<?xml version="1.0" encoding="UTF-8"?>
<svg width="202.17" height="134.04" version="1.1" viewBox="0 0 202.17 134.04" xmlns="http://www.w3.org/2000/svg" xmlns:cc="http://creativecommons.org/ns#" xmlns:dc="http://purl.org/dc/elements/1.1/" xmlns:rdf="http://www.w3.org/1999/02/22-rdf-syntax-ns#">
 <metadata>
  <rdf:RDF>
   <cc:Work rdf:about="">
    <dc:format>image/svg+xml</dc:format>
    <dc:type rdf:resource="http://purl.org/dc/dcmitype/StillImage"/>
    <dc:title/>
   </cc:Work>
  </rdf:RDF>
 </metadata>
 <path d="m94.778 117.92c-0.86111-0.1396-1.7493 0.0371-2.5972-0.21095-1.3612-0.17222-2.7572-0.22358-4.0636-0.67832-0.67613 0.19642-1.2469-0.30558-1.881-0.46894-0.57894-0.2803-1.2471-0.22763-1.8237-0.52606-0.47665-0.16645-0.8424-0.53416-1.2306-0.81145-0.59846 0.24042-1.1049-0.2271-1.596-0.51347-0.51375-0.0524-0.19736-0.66967-0.70576-0.72827 0.12464-0.42463-0.34075-0.80957-0.41369-0.98007 0.29832-0.13532 0.64411-0.48021 0.09288-0.4461-0.18959-0.1874 0.40889 0.0651 0.14575-0.31087 0.41659-0.50463-0.64249-0.85603-0.41513-1.1848 0.62275 0.12973 1.0802 0.66833 1.6974 0.76575 0.3543-0.0317 1.095 0.018 0.61074-0.44489-0.0303-0.25374-0.86088-0.15441-0.24-0.38484 0.74206 0.0914 1.5179 0.19384 2.2789 0.26903 0.68465 0.11298 1.1612 0.71918 1.9062 0.68075 0.69335-0.18774 0.63511 0.66869 1.2919 0.58769 0.64477-0.0765 1.3382-0.17045 1.9683-0.12642 0.29566 0.42518 0.90822 0.067 1.3027 0.41258 0.59026-0.31255 1.0061 0.61553 1.5058-0.0288 0.52351-0.0648 0.98231 0.21072 1.5061 0.0336 0.7379 0.0637 1.495-0.045 2.2298-0.14039 0.22133 0.23252 0.43056 0.30797 0.31174 0.57679 0.23914-0.0644 0.2868-0.70544 0.7972-0.54219 0.81552 4.6e-4 1.6188-0.17017 2.432-0.17258 0.20413 0.15088 1.1795 0.68428 1.0946 0.3383-0.49235-0.25487 6e-3 -0.22303 0.27853-0.39046 0.61742-0.21329 1.2016-0.10472 1.8376-0.14547 0.74927 0.0464 1.406-0.2212 2.083-0.45395 0.89666-0.182 1.8841 0.057 2.7078-0.42054 0.59197-0.34422 1.3797 0.2914 1.8344-0.22475 0.36033-0.19242 1.2038-0.59197 0.92494 0.0346 0.35628 0.4936 0.2496-0.72983 0.80794-0.58015 0.79028-0.19776 1.4468-0.65242 2.1985-0.92392 0.39645 0.29801 1.0321 0.37847 1.0631-0.27814 0.6152-0.27702 1.2481-0.35868 1.8583-0.58418 0.35166-0.42814 0.88532-0.45876 1.4349-0.5277 0.50897-0.14818-0.21264-0.50879 0.42031-0.51854 0.532-0.39492 1.166-0.55962 1.7324-0.9097 0.43285-0.2861 0.98294-0.72074 1.5557-0.93212 0.60102-0.3057 1.0562-0.78593 1.6425-1.1234 1.1863-0.93451 2.158-2.1011 3.2151-3.1718 0.46589-0.32802 0.51846-1.1463 1.1038-1.1819-0.095-0.71921 0.39319-1.2309 0.62071-1.8565 0.15262-0.48332 0.59688-0.78502 0.53101-1.3378 0.29588-0.6321 0.41304-1.316 0.51665-1.9999 0.20081-0.6561 0.19761-1.3512 0.30761-2.0396 0.0233-0.79524 0.25289-1.6202 0.0238-2.3982-0.7127-0.16994-1.3801 0.39076-2.1185 0.36793-2.0397 0.32803-3.9553 1.1382-5.9644 1.5952-0.94009 0.25702-1.903 0.44682-2.8289 0.74486-0.61901 0.12938-1.2275 0.29247-1.8262 0.50584-0.75351 0.17308-1.5224 0.29857-2.2383 0.59834-0.99694 0.16288-1.9388 0.54349-2.9318 0.72775-0.56338 0.29691-1.211 0.41204-1.8323 0.58975-0.62249 0.18686-1.2208 0.43877-1.8687 0.53873-0.7538 0.22811-1.4942 0.51531-2.288 0.57109-0.96023 0.34278-1.9693 0.55206-2.9287 0.90166-0.88622 0.22446-1.781 0.42414-2.6609 0.66784-0.73177 0.1316-1.4024 0.47099-2.1307 0.61609-0.78641 0.08681-1.4957 0.48068-2.2888 0.53568-0.84547 0.2952-1.6779 0.67338-2.5735 0.79347-0.62549 0.22402-1.2507 0.46835-1.8894 0.64473-0.71839 0.0994-1.3446 0.48522-2.0758 0.5542-0.77048 0.1743-1.5822 0.29051-2.2575 0.72052-0.85379 0.28737-1.811 0.16971-2.6082 0.64206-0.78084 0.355-1.582 0.66968-2.4364 0.78934-0.63465 0.24997-1.3146 0.33556-1.9201 0.66216-1.3659 0.36124-2.6927 0.87583-3.98 1.4584-0.68306 0.17225-1.2622 0.62886-1.9585 0.78131-0.48028 0.27588-1.0563 0.44033-1.0443 1.1038-0.38483 0.53244-0.8069 1.1174-1.3961 1.4503-0.5938 0.25188-1.1316 0.55515-1.8348 0.33762-0.71266-0.12624-1.3107-0.4574-1.942-0.75193-0.44774-0.38836-1.1425-0.35011-1.4317-0.88905-0.80882 0.22494-0.83952-0.9212-1.5147-1.2072-0.27551-0.55887-0.38552-1.2204-0.51505-1.8451 0.05263-0.6526 0.25974-1.2802 0.83008-1.6667 0.4166-0.11876 0.65308-0.50733 0.955-0.60594 0.61125 0.18762 1.0081-0.74299 1.7326-0.63725 0.67548-0.1843 1.2704-0.5998 1.97-0.69834 0.58232-0.28864 1.2706-0.49967 1.876-0.80963 0.59385-0.28751 1.2572-0.35308 1.8448-0.68788 0.62478-0.25918 1.3171-0.31338 1.9234-0.60983 0.6599-0.03444 1.2195-0.37111 1.8421-0.54469 0.82235-0.25388 1.6764-0.37364 2.5157-0.54395 0.61706-0.2837 1.2797-0.4726 1.9239-0.6683 0.69309-0.04911 1.391-0.12216 1.9801-0.51788 0.72678 0.23551 1.108-0.41495 1.7715-0.54244 0.73933-0.12065 1.4256-0.47398 2.1754-0.60048 0.71259-0.17404 1.4677-0.12105 2.0785-0.58368 0.69245-0.03881 1.2348-0.37403 1.9078-0.37646 0.42894 0.08105 1.1427-0.06903 1.089-0.37257 0.08749-0.23708 0.88614-0.26909 1.2328-0.30629 0.28303 0.36374 1.2857 0.18068 0.68732-0.25372-0.52124-0.18925 0.63975-0.38575 0.5949 0.07644 0.42603-0.09978-0.04011-0.61076 0.56143-0.57777 1.2003-0.27581 2.3974-0.56385 3.5891-0.87426 0.8196-0.14315 1.5423-0.6066 2.3759-0.6994 0.65118-0.14132 1.2746-0.37737 1.9415-0.4482 0.74456-0.33067 1.5519-0.28345 2.3486-0.25107 0.63546 0.08421 1.2427-0.41768 1.7762 0.11511 0.7087-0.15189-0.54357-0.51321 0.17439-0.70203 0.53652 0.06047 1.4362-0.80502 1.717-0.09256-0.29931 0.18638-1.0259 0.22161-0.24118 0.32802 0.41747 0.15026 1.4422-0.44861 0.66945-0.65421 0.5038-0.30942 1.1361-0.44726 1.6606-0.69989 0.64257 0.0019-0.13 0.44753-0.40124 0.38864-0.32713 0.58826 0.43149 0.33872 0.70892 0.56044-0.48102-0.65597 0.77323 0.286 0.88694-0.41407 0.51123 0.10826 0.68509-0.72185 1.1152-0.19021 0.60519-0.29443 1.1469-0.74355 1.8834-0.75808 0.35666-0.2737 1.2095-0.15492 1.3125-0.53952-0.68401-0.17255-1.366 0.04059-1.9253 0.40878-0.14557 0.33615-1.2087 0.07095-0.86879-0.03727 0.6892-0.0041 1.2036-0.72284 1.8678-0.63048 0.49516 0.3726 0.35321-0.7516 0.89071-0.35599 0.60756 0.19596 1.0184-0.40957 1.5615-0.26678-0.0468 0.07939-0.42349 0.08579-0.43775 0.38341-0.60383 0.30092 0.45287 0.42685 0.73062 0.38835 0.12654-0.20099 0.81163-0.12797 0.40003-0.5933-0.13872-0.10092-0.98727 0.24219-0.61927-0.06508 0.38203-0.28658 0.70021-0.54239 1.0466-0.74754 0.28911 0.24439 0.72917 0.17607 1.1006-0.02315 0.73667 0.22903-0.41459 0.65646-0.7402 0.66163-0.33441 0.40873 0.56657 0.27544 0.75849 0.0391 0.3929-0.24087 0.92666 0.14451 0.69134-0.54914-0.66442-0.36169 0.87079-0.35394 1.0955-0.58963 0.30745-0.24786 0.56568 0.26086 0.71706-0.25798 0.62008 0.15805 1.0797-0.04447 1.3803-0.54173 0.47871-0.3471 1.3717-0.09059 0.91092 0.58847 0.48513 0.13287 1.0272-0.25742 1.402-0.15371-0.49064-0.3881-0.2358-1.0011 0.4087-0.5901 0.051 0.19468-0.0993 0.49276 0.2847 0.49976 0.47325-0.10306 0.25885-0.87087-0.30516-0.70054 0.31302-0.24356 0.91855-0.27051 1.3108-0.47655 0.47114-0.64452-0.12138-1.4128-0.12037-2.1104-0.0426-0.71176-0.21744-1.4442-0.47539-2.0803 0.14602-0.60074-0.31686-1.1805-0.35894-1.7912-0.28264-0.64469-0.22769-1.3478-0.46965-1.9362-0.21266-0.69994-0.23094-1.4761-0.60343-2.1296-0.0661-0.59926-0.28024-1.2105-0.46273-1.8007-0.18941-0.60654-0.47819-1.1906-0.57912-1.8322-0.14566-0.642-0.31386-1.3364-0.75738-1.8376-0.27741 0.55656-0.75852 0.93561-1.0252 1.5589-0.017 0.51768-0.51593 0.61387-0.65849 1.1082-0.41746 0.59328-0.94336 1.0843-1.5084 1.5321-0.48626 0.55366-1.0946 0.93678-1.7093 1.3088-0.62507 0.32946-1.3173 0.52781-1.9878 0.74873-1.2582 0.15763-2.5555 0.25164-3.7908-0.10491-0.68175-0.03513-1.2227-0.44006-1.8814-0.59923-0.63061-0.21071-1.2045-0.52738-1.6984-0.9305-0.53438-0.35263-0.99511-0.81436-1.3853-1.3356-0.48968-0.32162-0.79898-0.75275-1.0961-1.258-0.30274-0.53772-0.81464-0.96377-0.96717-1.5943-0.29255-0.67702-0.53908-1.3927-0.9232-2.0241-0.67833-0.43041-0.68633 0.82969-1.024 1.1892-0.31588 0.52864-0.38013 1.1307-0.97284 1.4207-0.53573 0.61249-1.0796 1.2536-1.6889 1.78-0.25931 0.4761-0.90992 0.68931-1.2671 1.1542-0.43964 0.41261-0.90179 0.83573-1.4142 1.1047-0.49107 0.46104-1.1981 0.56236-1.6721 1.0534-0.55956 0.30546-1.2607 0.28396-1.748 0.72093-0.66919 0.14804-1.3136 0.3128-1.967 0.49049-0.72288 0.12318-1.4196 0.37792-2.1301 0.57156-0.73006 0.42619-1.6184 0.04586-2.4149 0.10214-1.0274-0.09933-2.0984-0.11696-3.0572-0.53188-0.67157-0.08759-1.3099-0.26781-1.8761-0.63958-0.62076-0.1544-1.1605-0.43979-1.733-0.74184-0.5617-0.41617-1.132-0.74905-1.7082-1.151-0.58205-0.34843-0.96272-0.91618-1.5076-1.3206-0.39226-0.54161-0.85718-0.9425-1.3247-1.4155-0.34336-0.61639-0.95798-1.0627-1.2076-1.714-0.21842-0.63248-0.4914-1.2679-0.79707-1.8639-0.30986-0.75426-0.58283-1.5274-0.80646-2.3074-0.35778-0.70756-0.32931-1.527-0.60303-2.259-0.18917-0.79749-0.21005-1.6228-0.3351-2.4263-0.16359-0.99141 0.04794-2.0052 0.11788-2.9997 0.09698-0.61918 0.04857-1.2213 0.21149-1.8021 0.13694-0.63134 0.1945-1.29 0.3706-1.9133 0.25634-0.45374 0.07904-1.2963 0.66377-1.4092 0.21607-0.69548 1.0756-0.90751 1.6255-1.3212 0.40971-0.37546 1.077 0.18856 1.6012 0.11512 0.48012 0.28629 0.95436 0.79145 1.4585 0.94964 0.38134-0.29783 0.35148-0.72137 0.48409-1.0476 0.45376-0.21277 0.77835-0.595 0.48207-1.0915-0.1938-0.35464-0.12642-0.86601 0.10543-1.0799-0.17962-0.26066 0.1866-0.91485 0.16681-1.3401 0.21271-0.57024 0.60826-1.0881 0.63857-1.7403 0.05076-0.30965 0.0061-0.8355 0.41759-0.77389-0.4037-0.48286 0.61028-0.83254 0.48131-1.2896 0.02025-0.67137 0.76103-1.205 0.83341-1.9273 0.42698-0.45894 0.86177-0.86325 1.3425-1.3103 0.64944-0.13701 1.3624-0.38823 1.9648-0.2975 0.50362-0.19333 1.0532-0.461 1.5429-0.08242 0.68841-0.2142 1.0018 0.35608 1.5696 0.54808 0.74214 0.31136 1.4245 0.74897 2.1675 1.0568 0.54323 0.44983 1.2617 0.55578 1.7947 1.0183 0.71753 0.29353 1.1413 1.0017 1.8426 1.304 0.74082 0.6349 1.4272 1.33 2.1585 1.9754 0.66463 0.6551 1.3214 1.3364 1.878 2.0778 0.56125 0.36186 0.82266 1.0502 1.174 1.6005 0.3604 0.57716 0.77658 1.1191 1.0893 1.7166 0.16594 0.61765 0.36126 1.1584 0.72602 1.6972 0.3775 0.66795 0.70667 1.3653 0.89791 2.11 0.43388 0.42464 0.26094 1.5832 1.0591 1.5162 0.40706-0.5728 0.11397-1.3747 0.42451-1.9965 0.0601-0.70464 0.36691-1.3247 0.457-2.0255 0.22445-0.72501 0.47553-1.4285 0.69762-2.1468 0.18178-0.49245 0.2848-1.0201 0.57668-1.4343 0.39055-0.47868 0.52304-0.9183 0.63713-1.5146 0.42769-0.11378 0.20652-0.72513 0.6794-0.78406-0.31137-0.44364 0.57195-0.44335 0.43748-0.98416 0.27234-0.82397 1.0402-1.3472 1.4123-2.101 0.41941-0.40946 0.83958-0.81745 1.1965-1.2317 0.37507-0.51099 0.93044-0.84143 1.4188-1.2392 0.69079-0.7089 1.7493-0.76027 2.5652-1.258 0.87405-0.33413 1.837-0.48681 2.7628-0.30949 0.88785-0.021 1.7338 0.3021 2.5912 0.48368 0.5962 0.37543 1.271 0.58047 1.8406 0.99959 0.50681 0.30013 0.97827 0.69265 1.5661 0.91916 0.60233 0.31431 1.0792 0.8105 1.599 1.2508 0.53932 0.54877 1.1961 1.0276 1.5172 1.7438 0.52755 0.55362 0.77972 1.2478 1.1397 1.8849 0.28064 0.68936 0.45325 1.3841 0.67298 2.0971 0.22927 0.6619 0.42656 1.327 0.56864 2.0089 0.14962 1.1274 0.0144 2.27 0.0892 3.4033 0.10059 0.68742-0.26143 1.3715 0.0648 1.9839-0.13661 0.56438-0.40536 1.0621-0.0901 1.6265-0.22049 0.51329-0.59542 0.92208-0.2559 1.4899 0.10016 0.60836-0.10612 1.2101 0.0277 1.8447 0.0671 0.68802-3.2e-4 1.4181 0.30894 2.0532 0.041 0.72357 0.18565 1.4318 0.41186 2.1206 0.2447 0.87603 0.30645 1.7926 0.62101 2.6514 0.30602 0.91764 0.41473 1.8935 0.78402 2.7889 0.0899 0.65724 0.34619 1.2891 0.48917 1.9418 0.29503 0.8549 0.64547 1.7017 0.72316 2.614 0.16085 1.2158 0.57835 2.3742 0.96314 3.5315 0.28746 0.55804 0.14383 1.1421 0.3611 1.7478 0.10706 0.68982 0.27545 1.3748 0.41154 2.0458 0.0808 0.141 0.82753-0.28392 0.32022 0.18967 0.60601 0.07979 0.16659-1.4297 0.91802-0.86145 0.48204 0.44029 0.4694-0.69202 1.0521-0.30397 0.63754 0.46564 1.0676-0.48004 1.6681-0.54826 0.31653-0.10368 0.79587-0.38828 1.0753-0.19269-0.18064 0.1534-1.0617 0.26936-0.77497 0.50498 0.24527-0.14035 1.3114-0.36683 0.63149 0.06757-0.45252 0.19207-0.86295 0.0094-1.1468 0.48037-0.44153 0.38502-1.3814-0.30453-1.2977 0.6308 0.55892 0.58549 0.79889-0.72862 1.4063-0.21069 0.3686 0.15516 0.86369-0.32652 0.83815 0.34195 0.32417 0.40708 1.4628-0.07573 0.5381-0.1894-0.47384-0.46514 0.72864-1.3148 0.95325-0.55106 0.0263 0.20405-0.69191 0.71443-0.23798 0.83714 0.11332-0.53428 0.8228 0.27597 0.86978-0.45364 0.19988-0.29746-0.38738-0.6646 0.22843-0.75316 0.57524-0.33964-0.56417-0.84706-1e-3 -0.88585 0.70532-0.07378 0.80138-0.9059 1.5478-0.79759 0.29853-0.03297 0.85061-0.0618 0.50174 0.25102 0.35352 0.25746 0.0245 0.22235-0.0662 0.46782 0.21103 0.13818 0.99142-0.35462 0.50629-0.44834-0.62678-0.26909 0.69151-0.2302 0.0367-0.47234 0.32248-0.05011 0.86364 0.21734 1.06-0.19188 0.31799-0.02054 1.0592 0.03195 0.83735-0.23972 0.33344-0.16126 1.1648-0.56457 1.3186-0.34699-0.38629 0.41561 1.3404 0.11761 0.55827 0.51822-0.48119 0.14047-0.45176 0.35916 0.08 0.31222 0.3411-0.08197 0.92758-0.35453 0.48588-0.71065 0.34451-0.15392 0.67955-0.21494 0.13336-0.28638-0.49515-0.19794 0.57572-0.39277 0.7952-0.47282 0.96709-0.23986 1.9398-0.4608 2.9009-0.72194 0.27324 0.15262 0.47912 0.4409 0.40186-0.092 0.56588-0.3008 1.3231-0.3166 1.9719-0.2618 0.4271-0.12474 0.83703-0.46913 1.2543-0.06086 0.29135-0.05677 0.39828-0.31776 0.2288-0.5194 0.52572-0.11786 1.0487 0.2419 1.4772 0.33667-0.16403-0.33979-0.51582-0.69052 0.11748-0.65612 0.53977-0.25047 1.1495-0.3179 1.7184-0.50854 0.67695-0.0097 1.2258-0.5132 1.9104-0.52197 0.63599-0.05038 1.2143-0.32255 1.8418-0.43289 0.33391 0.28921 0.84506-0.35375 0.82508 0.16571 0.44324 0.07901 0.64245-0.20171 0.13518-0.30076 0.20896-0.17704 0.93768 0.16159 0.94406-0.28272 0.40026-0.3801 0.81527 0.11781 1.2076-0.37632 0.45572-0.24464 0.82794-0.01224 1.0238 0.31791 0.47109-0.10087 0.26118 0.06872 0.19759 0.31821 0.43973 0.01928 1.054-0.02989 1.3654-0.32052-0.53646-0.13024-0.29868-0.98274 0.11131-0.44003 0.27712 0.32174 0.96537 0.2763 0.45719-0.19113 0.19499-0.58951 1.2168-0.09887 1.6296-0.63919-0.22531-0.59324 0.73377-0.22473 1.0933-0.2452 0.32955-0.13858 0.5172-0.56234 0.95317-0.45508 0.32753 0.35774-0.0808 0.63909-0.1984 0.79876 0.40098 0.03633 1.1204 0.02267 1.2872-0.32459-0.59236 0.1188-1.2014-0.88251-0.27163-0.84833 0.69016-0.11227 1.236-0.33602 1.9263-0.17024 0.66919-0.17448 1.3449-0.26423 2.0124-0.46513 0.34348-0.14911 0.72445-0.17007 1.0652-0.05263 0.24629-0.7217 1.1593-0.31648 1.6847-0.66754 0.31128-0.31719 1.4294-0.33857 0.76096 0.13289 0.26371 0.17371-0.16809 0.64906 0.29784 0.41325 0.50699 0.36442 0.81302 1.087 1.5923 0.98662 0.45311-0.12698 0.45128 0.32982 0.25848 0.47626 0.29078 0.15148 0.8086 0.3254 0.23027 0.55206 0.30897 0.26107 0.80159-0.11985 0.82864 0.39999 0.65795 0.4357-0.45288 0.90847-0.54148 1.4338-0.37572 0.64572-1.0629 0.73385-1.6982 0.95674-0.70162 0.29389-1.4618 0.38668-2.186 0.60351-0.8752 0.10664-1.6497 0.5761-2.5296 0.66948-1.4455 0.25952-2.8076 0.85537-4.2554 1.1137-0.6407 0.14933-1.2467 0.43487-1.9177 0.41758-0.63681 0.20194-1.2551 0.49333-1.9335 0.58226-0.6718 0.07885-1.246 0.41097-1.9004 0.56464-0.61426 0.27342-1.2781 0.26909-1.9233 0.39262-0.94296 0.23784-1.9206 0.32651-2.8404 0.65527-0.68764 0.16732-1.3771 0.24016-2.053 0.43599-0.69558 0.16372-1.4232 0.20901-2.0167 0.58194-0.67604 0.09367-1.3314 0.26602-1.9632 0.51928-1.0128 0.25146-2.0089 0.56817-3.0384 0.74268-0.74907 0.23761-1.5041 0.45015-2.282 0.56871-0.70278 0.27432-1.4743 0.19842-2.1718 0.48752-0.71355 0.19928-1.4153 0.33036-2.1296 0.49848-1.081 0.12449-2.1042 0.54531-3.1734 0.71237-1.0057 0.49992-2.1602 0.48385-3.1989 0.87774-0.86332 0.07885-1.665 0.42935-2.5026 0.62568-0.65395 0.17721-1.3004 0.36913-1.9535 0.54952-0.89544-0.02475-1.3635 0.67699-1.1805 1.5127-0.0104 0.74263 0.17094 1.481 0.0306 2.2232-7e-3 0.91442-0.21678 1.8103-0.2085 2.7252-0.20471 0.69782-0.0351 1.3946-0.33871 2.048-0.0674 0.70153-0.20643 1.4088-0.4424 2.0676-0.18896 0.52668-0.42559 1.0598-0.67527 1.6445-0.2284 0.61688-0.57889 1.1706-0.81944 1.7785-0.30225 0.45282-0.49393 0.94049-0.86885 1.2908-0.50371 0.38046-0.64964 1.0375-1.0866 1.4842-0.29882 0.63371-0.96413 0.94078-1.3467 1.5222-0.28116 0.49766-0.86121 0.80015-1.2365 1.2567-0.48138 0.50731-1.0404 0.88374-1.5046 1.3719-0.61361 0.37363-1.1358 0.87997-1.7651 1.232-0.63474 0.30183-1.1791 0.72448-1.8118 1.0045-1.2784 0.62322-2.5239 1.328-3.8784 1.7769-0.57461 0.22251-1.1321 0.49742-1.7218 0.67159-0.56479 0.23732-1.1684 0.39177-1.7458 0.63524-0.6791 0.32363-1.4831 0.29238-2.1228 0.69725-0.64192 0.19865-1.2966 0.26911-1.9514 0.4075-1.0348 0.33954-2.0664 0.74604-3.1637 0.85169-0.71881 0.16746-1.5117-0.0591-2.1925 0.23483-1.1882 0.38594-2.461 0.18595-3.6642 0.49251-1.1804 0.17037-2.3785 0.10667-3.5622 0.25477-0.87196 0.0401-1.7504 0.15819-2.6214 0.0837-0.60163-0.17747-1.2469 0.21269-1.8971 0.0889-0.40202-7e-3 -0.80862-9e-3 -1.2042-0.0868zm5.44-4.6993c-0.30136-0.26666-0.12199 0.27971 0 0zm1.8645-0.13161c0.36876-0.21469 0.12496-0.54584-0.20163-0.14366-0.56255 0.18076 5e-3 0.23542 0.20163 0.14366zm2.0563-0.4902c-0.4727-0.47548-0.30762 0.44958 0.13584 0.23446 2e-3 -0.0994-0.0809-0.16461-0.13584-0.23446zm6.7088-0.12273c0.0246-0.68003-1.0086-8e-3 -0.31408 0.20805 0.13894 0.0308 0.28598-0.0698 0.31408-0.20805zm-27.552-0.53233c0.22566-0.42077-0.59202 0.23941 0 3.6e-4zm35.442-3.8431c-0.29458-0.32195-0.30691 0.31295 0 0zm-26.696-12.359c-0.35651-0.45011-0.32558 0.42485 0 0zm0.51912-0.25203c-0.56606-0.31467-0.22212 0.34871 0.06752 0.07156l-0.06753-0.07156zm12.977-2.6691c-0.18558-0.26459-0.28336 0.29297 0 0zm-1.76-0.24c0.25476-0.05391 0.48905-0.30641 0.0249-0.19888-0.20892-0.01217-0.17515 0.46037-0.0249 0.19888zm1.12-0.144c-0.13933-0.46482-0.76455-0.15719-0.1545 0.05885 0.0416 0.02251 0.15898 0.01593 0.1545-0.05885zm0.76-0.36801c0.32205 0.02403 1.2559-0.39847 0.44042-0.43113-0.36554-0.2082-1.4392 0.6885-0.60628 0.45988l0.0896-0.01763 0.0763-0.01112zm-1.6492-0.04062c0.17294-0.31361-0.73565-0.21626-0.16879 0.06495l0.0723-0.01227zm3.3592-0.37738c0.82812-0.38334-0.93279-0.3114-0.4092 0.04653 0.1378 0.0046 0.27446-0.02106 0.4092-0.04653zm8.09-0.10749c-0.22438-0.2135-0.37238 0.3264 0 0zm-6.7602-0.3218c0.0636-0.7205-0.83808 0.22561-0.0582 0.10767l0.0582-0.10766zm4.2675-0.02719c0.36791-0.49925-0.44276-0.42735-0.69975-0.21352-0.59456 0.0522 0.65874 0.63485 0.69975 0.21352zm-1.4673-0.61352c-0.30135-0.26666-0.12205 0.27972 0 0zm3.7731-0.36538c0.0633-0.61855-0.75246 0.22629-0.0451 0.08305l0.0452-0.08304zm4.7252-1.043c-0.32037-0.07414-0.15926 0.14659 0 0zm-1.9642-0.5588c-0.74132-0.26394-0.18117 0.36955 0.0991 0.073zm2.6474-1.0453c-0.45061-0.07813-0.16126 0.12805 0 0zm2.0585-0.30752c-0.14865-0.25397-0.30674 0.13915-0.41802-0.176-0.71324 0.0476 0.37973 0.4808 0.41802 0.176zm1.04-0.154c0.38133-0.18845-0.15037-0.51517-0.29471-0.09617-0.45233 0.19792 0.16684 0.19565 0.29471 0.09617zm0.89321-0.206c0.18017-0.49695-0.72807 0.19679-0.0938 0.01426l0.0937-0.01426zm0.30679-0.32c-0.18557-0.26462-0.28329 0.29292 0 0zm0.84-0.48c-0.12221-0.27967-0.30124 0.26666 0 0zm3.026-0.21264c-0.10462-0.17766 0.11626-0.62179-0.22243-0.53516 0.22058 0.2506-0.34058 0.66168 0.22243 0.53516zm8.914-1.5096c-0.0554-0.49955-0.73201 0.2629-0.0824 0.1911 0.0762-0.02797 0.0818-0.12496 0.0824-0.1911zm2.6881-0.07506c0.263-0.28437-1.0792-0.39612-0.46028 0.06634 0.15008 0.08673 0.33294 0.0317 0.46028-0.06634zm-3.4451-0.37175c-0.55075-0.1809 0.15263 0.49495 0 0zm3.737 9e-3c-0.50621-0.34069-0.43749 0.29773 0 0zm-3.2217-0.36833c-0.32033-0.07415-0.15931 0.1466 0 0zm11.782-1.1517c-0.2154-0.3224-0.18853 0.31147 0 0zm-4.6-0.56c-0.12221-0.27967-0.30124 0.26666 0 0zm2.04-0.88c-0.18557-0.26462-0.28329 0.29292 0 0zm1.92-0.08c-0.53135-0.14156 0.37014-0.5911-0.16001-0.64-0.42757-0.43305-1.0819 1.0853-0.26962 0.50316-0.5185 0.32966 0.31483 0.23321 0.42963 0.13684zm2.8-0.76c0.45826-0.24989 1.0922-0.31365 1.6589-0.26851 0.61421-0.05712 0.32123-0.63962-0.14279-0.36003-0.56092 0.1096-1.167 0.30888-1.7288 0.54794-0.25435 0.11658-0.5311 0.23824-0.0874 0.19634 0.0874-0.0118 0.2901 0.02483 0.3-0.11574zm2.9293-0.48859c0.0502-0.59329-0.74369-0.25912-0.3637 0.1402 0.16443 0.12394 0.3336 0.06082 0.3637-0.1402zm-2.8516-0.18829c0.29465-0.36714-0.71891 0.10131-0.1139 0.05435l0.11386-0.05438zm0.54936-0.02313c0.19322-0.18205 1.3096-0.24512 0.54155-0.41305-0.22636-0.10342-1.2071 0.66295-0.54155 0.41305zm3.2386-0.29369c0.16335-0.5327-1.3193 0.21152-0.41948 0.13109 0.14292-0.02313 0.30083-0.03951 0.41948-0.13109zm0.5284-0.03919c0.18344-0.47722-0.75475 0.25154-0.083 0.07229l0.083-0.07228zm5.5659-0.20712c-0.0247-0.28284-0.35364 0.2858 0 0zm-4.535-0.235c-0.0623-0.27872-0.38056 0.33273-0.0555 0.08444zm0.75901 0.02217c0.3424-0.28704 1.2574 0.21354 1.5628-0.37164 0.85128-0.30419-0.71373-0.21817-0.96621-0.05553-0.32455 0.09789-1.4772 0.18764-0.68063 0.55827 0.071 0.0081 0.1207-0.06916 0.084-0.1311zm7.016-1.6586c-0.26406-0.24926-0.4012 0.16597 0 0zm0.42893-0.16856c0.41586-0.12336 0.73178-0.57469 0.0887-0.67636-0.35054 0.05226-0.6821 0.67821-0.15664 0.77568l0.0683-0.09932zm-2.9889-0.1698c-0.0599-0.26084-0.40777 0.31078-0.0352 0.09167zm4.24-0.27138c-0.29261-0.58334-0.98982 0.34702-0.3259 0.14442 0.10583-0.04032 0.24938-0.05085 0.3259-0.14442zm4.5609-4.8e-4c0.27014-0.6454-0.80991-0.0712-0.63966 0.08601 0.20771 0.02488 0.51955 0.16396 0.63966-0.08601zm-3.8009 0.0017c-0.22095-0.32861-0.47938 0.28384 0 0zm0.42144-0.24c0.072-0.6573-0.44023 0.58616 0 0zm1.5892-0.30658c-0.63344-0.06006-0.24431 0.43294 0 0zm6.0294-0.29342c-0.38123-0.48713-0.4373 0.47125 0 0zm0.24-0.28c-0.29458-0.32195-0.30691 0.31295 0 0zm-4.8438-0.1129c-0.40724-0.25464-0.18456 0.2677 0.11085 0.09779l-0.11082-0.09778zm1.4038-0.2071c0.19891-0.2303-0.53288 0.07081-0.10293 0.05638zm3.28-0.2c-0.36437-0.44762-0.19145 0.40937 0 0zm-1.6067-0.32662c-0.0121-0.42448-0.57414-0.60972-0.52753-0.07849-0.0681 0.28774 0.39406 0.15698 0.52753 0.07849zm11.367-0.35619c-0.13324-0.64859-0.87008-0.21845-0.42456 0.18209 0.14736 0.01948 0.37338-0.01579 0.42456-0.18209zm-7.76-0.39719c-0.29458-0.32195-0.30691 0.31295 0 0zm-1.6534-0.11379c0.3616 0.03229 0.52392-0.30822 0.11361-0.51004-0.37823 0.0143-0.82332 0.89635-0.11361 0.51004zm1.6527-0.24526c0.15721-0.48534-0.78732 0.21922-0.0922 0.07874l0.0923-0.07874zm1.2008-0.15622c-0.19461-0.30211-0.22211 0.16199 0 0zm0.43684-0.15251c0.33062-0.43657-0.66154 0.04278-0.12453 0.07833l0.12448-0.07833zm-87.852-1.5625c0.75816-0.1588 1.4975-0.41479 2.1909-0.74236 0.61637-0.28009 1.298-0.44776 1.8182-0.86169 0.5727-0.3688 1.0444-0.85485 1.6246-1.2154 0.58731-0.58074 1.1565-1.1788 1.7089-1.8026 0.45284-0.37584 0.68674-0.99682 0.88468-1.5423 0.284-0.54808 0.5383-1.1355 0.53209-1.7704 0.02998-0.94389 0.07092-1.8924 0.0052-2.8349-0.05809-0.65894-0.16686-1.3222-0.4431-1.9365-0.01316-0.70146-0.42423-1.352-0.45877-2.0851-0.1784-0.65368-0.49902-1.2528-0.74366-1.8759-0.18192-0.75367-0.74877-1.3213-1.0145-2.0206-0.23951-0.64112-0.79977-1.092-1.2363-1.5999-0.52911-0.53882-1.0108-1.1029-1.5456-1.6282-0.43615-0.37411-0.61247-0.98904-1.1066-1.3138-0.52212-0.38033-1.0241-0.75785-1.5699-1.0971-0.65702-0.52434-1.2642 0.08099-1.5371 0.68849-0.47882 0.49759-0.45465 1.2236-0.75049 1.84-0.21193 0.45085-0.61652 0.94801-0.66044 1.4321 0.40992 0.12343-0.46673 0.41427-0.23552 0.7752-0.34846 0.606-0.28995 1.3262-0.23596 1.8795-0.22486 0.25772-0.40644 0.38521-0.25809 0.72815-0.32483 0.20139 0.47204 0.57948-0.14857 0.42529-0.20213 0.62107-0.15546 1.4804-0.21233 2.1883-0.0094 0.87896-0.07272 1.7693 0.0556 2.6401 0.03008 0.60098 0.40747 1.3496 0.18258 1.88-0.1738 0.4926 0.40766 0.9348 0.11522 1.4106-0.09732 0.55966 0.43162 1.1182 0.08589 1.5998-0.38002-0.07607-0.64143-0.12829-0.44914 0.32427 0.06375 0.23671-0.60308 0.28592-0.64392 0.19203-0.29963-0.15827-0.84352-0.87958-1.0937-0.30364 0.41513-0.07236 0.54317 0.45233-1.83e-4 0.24659-0.3713-0.40516-0.89838-0.3788-1.3482-0.61769-0.09089-0.75548-1.2522-0.49948-1.4059-1.3541-0.13982-0.54288-0.54056 0.35921-0.26379 0.57022-0.01884 0.66544 0.18836 1.295 0.36681 1.9148-0.03828 0.66729 0.64584 1.1431 0.49721 1.853 0.32406 0.57497 0.62364 1.2092 1.0206 1.7354 0.39647 0.47942 0.78234 1.0101 1.2535 1.3887 0.5958 0.17696 1.0709 0.91929 1.6976 0.55323 0.51088 0.33068 1.0287 0.53455 1.6603 0.44808 0.55464-0.01731 1.1115-0.03539 1.6617-0.11159zm-2.7446-18.17c0.2154-0.3224 0.18853 0.31147 0 0zm27.441 16.701c0.57498-0.33993 1.2681-0.69513 1.6288-1.2459 0.41341-0.58329 0.77774-1.2176 1.2874-1.6987 0.0827-0.59978 0.70528-0.95508 0.80514-1.5408 0.38986-0.30888 0.56029-0.87727 0.93863-1.2811 0.23564-0.74974 0.50861-1.5055 0.84666-2.2293 0.22409-0.52886 0.36664-1.0419 0.49875-1.6542 0.0135-0.65462 0.37138-1.2238 0.4352-1.865 0.15905-0.61348 0.38004-1.231 0.27906-1.866 0.33609-0.84458 0.0705-1.7707 0.1569-2.6529 0.0459-0.66718 0.1464-1.3886 0.57381-1.9282 0.12751-0.56911 0.73896-0.79986 0.49021-1.4749-0.22585-0.57562-0.14231-1.4006-0.70594-1.7635-0.099-0.65466-0.64654-1.096-1.0926-1.5486-0.42177-0.57414-1.2168-0.72518-1.8746-0.55296-0.54877 0.41522-1.2825 0.67896-1.7073 1.1779-0.43296 0.22565-0.72344 0.71152-0.92449 1.0533-0.21554 0.58558-0.92856 0.83474-1.0847 1.4101-0.15245 0.59911-0.63516 0.97922-1.0293 1.426-0.19112 0.60096-0.70838 1.0202-0.73419 1.7121 0.016 0.67767-0.48653 1.1926-0.57082 1.8493-0.24528 0.78036-0.5428 1.5508-0.66796 2.3662-0.0786 0.75724-0.27013 1.4792-0.33329 2.2358-0.11222 0.73195-0.31923 1.4484-0.26245 2.198-0.0115 1.0298 0.0462 2.0609 0.26396 3.0689-0.0261 0.62674 0.21318 1.2335 0.33468 1.8016 0.15933 0.64462 0.32583 1.204 0.65693 1.8064 0.37037 0.48932 0.72072 1.0686 1.308 1.2905 0.16556 0.0014 0.32679-0.04741 0.48351-0.094zm-35.721 42.579c0.34738-0.29599 0.0411 0.27067 0 0zm-0.75527-0.63117c-0.07346-0.24118 0.40613-0.30465 0.13126-0.66129 0.18904-0.60989 1.4865 0.40037 0.48946 0.48268-0.3367-0.0316-0.74153 0.12572-0.22544 0.24978-0.03737 0.17935-0.34951 0.0351-0.39528-0.0712zm-0.99139-0.38217c-0.1875-0.37536 0.5409-0.0643 0.06321 0.0441l-0.06321-0.0441zm-0.85333-1.0667c0.29458-0.32195 0.30691 0.31295 0 0zm35.733-20.853c-0.30502-0.63292 1.3117-0.39514 0.5105-0.18666-0.25669-0.09176-0.29018 0.37903-0.5105 0.18666zm5.8267-2.0267c0.0583-0.28896 0.20464 0.25925 0 0zm7.8-1.52c-0.34356-0.09007-0.62778-0.14021-0.0942-0.20782 0.34852-0.09451 0.66173 0.47221 0.0942 0.20782zm-98.448-1.2872c-0.7647-0.07022-1.5916-0.02135-2.2883-0.37089-0.69798-0.0188-1.3609-0.27015-2.0258-0.44802-0.65682-0.32883-1.2978-0.46778-1.8669-0.94613-0.64158-0.16245-1.2946-0.45058-1.6786-1.0115-0.61652-0.33261-1.0465-0.93974-1.5852-1.3843-0.43491-0.44252-0.65483-0.96694-1.0542-1.4539-0.38788-0.52182-0.61335-1.1441-0.9566-1.6973-0.19008-0.64665-0.35153-1.3107-0.54451-1.928-0.1439-0.72077-0.46681-1.5768-0.1673-2.3074 0.20468 0.14759 0.74521 0.94015 0.71585 0.25144-0.0812-0.40663 0.20856-1.0934-0.49211-0.8899-0.20027-0.25458 0.82751-0.38592 0.25059-0.7565-0.20907-0.40547 0.21544-1.5324 0.38364-0.76994-0.06624 0.66316 0.71952 0.04094 0.82028 0.53855 0.53485-0.156 0.90791 0.61204 1.5269 0.17528 0.70651-0.23682 0.82512 0.51872 1.0558 0.98037 0.57982 0.40424 0.37488 1.2817 0.83942 1.7991 0.40274 0.63254 0.81721 1.2848 1.375 1.7902 0.42843 0.05667 0.29947 0.0439-0.01159 0.2117 0.23438 0.48694 0.53063-0.19252 0.61218 0.32243 0.52345 0.59112 0.89148 1.3511 1.6405 1.714 0.83303 0.44059 1.7659 0.68023 2.7065 0.70076 0.58334 0.32513 1.2469 0.06894 1.8745 0.02334 0.72804-0.21999 1.5229-0.01684 2.2587-0.27765 0.70427-0.17121 1.4125-0.45228 2.1525-0.36106 0.39972-0.12059 0.75816 0.70776 0.73169 0.01003 0.60951-0.18654 1.241-0.41626 1.8525-0.62227 0.69002-0.15208 1.2591-0.67554 2.0412-0.57821 0.6015-0.15034 1.0952-0.61266 1.72-0.71772 0.70632-0.02874 1.1776-0.44345 1.813-0.76848 0.61348-0.12597 1.0907-0.48185 1.7019-0.58125 0.41281-0.39159 1.0627-0.67118 1.621-0.90222 0.48778-0.44054 1.1394-0.57184 1.6032-0.98212 0.50479-0.39666 1.1259-0.76648 1.7062-1.1115 0.62028-0.15528 1.033-0.6404 1.5122-1.0168 0.39426-0.23145 0.78203-0.75166 1.0883-0.7827-0.0059-0.28111 0.67144-0.21245 0.6524-0.64885 0.55271-0.15516 0.5216-0.71833 1.0234-1.0277 0.43884-0.55099 0.9243-1.0815 1.4295-1.5746 0.39989-0.38564 0.62352-0.98413 1.0407-1.4171 0.14131-0.65078 0.7026-1.1572 0.70996-1.8365 0.30912-0.77558 0.15578-1.6492 0.09357-2.4609-0.10587-0.85587-0.48968-1.6561-0.8737-2.4097-0.23918-0.64098-0.48696-1.3272-1.0015-1.7738-0.39542-0.63032-0.88811-1.192-1.4011-1.7346-0.66363-0.67848-1.3249-1.3709-2.085-1.9358-0.54566-0.39336-1.0238-0.82497-1.6082-1.1472-0.63306-0.25601-1.1182-0.7043-1.7028-1.0223-0.77774-0.1528-1.3525-0.80989-2.1608-0.86787-0.71011-0.09012-1.3459-0.35474-2.0236-0.52189-0.58683-0.29244-1.1242-0.1679-1.7648-0.30785-0.48999 0.0164-0.99248-0.01835-1.3416-0.29714-0.3761 0.14124-0.60117 0.39134-0.91063 0.0018-0.61862-0.06005-1.2019 0.30041-1.8318 0.31776-0.71787-0.05858-1.3096 0.42846-1.9983 0.54597-0.47901 0.52455-1.2263 0.49083-1.8499 0.7813-0.52949 0.35424-1.5186 0.45253-1.3252 1.3319 0.12921 0.83047 0.3165 1.6558 0.28974 2.5034 0.16372 0.83914 0.13682 1.6955 0.18635 2.5461 0.18068 0.58351 0.12254 1.1909 0.24904 1.7915 0.12687 0.68192 0.0068 1.3906 0.23002 2.0655 0.0089 0.75387 0.14251 1.4885 0.26763 2.2327 0.15316 0.75324 0.24541 1.516 0.24584 2.2844 0.2788 0.58967 0.15385 1.2828 0.30286 1.9199 0.03501 0.57334 0.1416 1.2381 0.02799 1.7571-0.70125-0.47736-0.08135 0.69451-0.22694 1.0259-0.01859 1.1049-0.03479 2.2112-0.10593 3.3141-0.26036 0.68805-0.54988 1.3596-0.76704 2.0618-0.34294 0.5706-0.69222 1.1528-1.2438 1.5555-0.56577 0.50397-1.4029 0.27616-2.0845 0.21742-0.43071-0.42252-1.0986-0.3895-1.692-0.4388-0.62374-0.13579-1.1041-0.57752-1.5922-0.99958-0.28417-0.12279-0.66132-0.42366-0.30548-0.66862-0.6698-0.39373-0.32299-1.09-0.54564-1.7005-0.17619-0.92409 0.92766-0.92211 1.5305-1.0403 0.51754-0.50634 0.26137-1.3523 0.40589-2.004-0.0669-0.63034-0.01171-1.3197-0.15105-1.9697-0.11215-0.59766-0.07821-1.1406-0.18342-1.7117 0.12478-0.59382 0.03496-1.1847-0.25604-1.6926 0.10255-0.66874-0.33522-1.3108-0.21964-2.0336-0.20358-0.55258-0.19247-1.1015-0.1828-1.7017-0.28396-0.53617-0.09688-1.1923-0.38327-1.7188-0.13192-0.67501-0.09653-1.3776-0.24434-2.051-0.1889-0.64652-0.11779-1.3297-0.24747-1.9951-0.32105-0.70835-0.09564-1.5507-0.4368-2.2557-0.17686-0.509-0.94293-0.56824-1.308-0.92964-0.50559-0.17167-1.2155-0.22214-1.5323-0.70168-0.22229-0.61701-0.551-1.1981-0.78205-1.7793-0.33745-0.61638-0.04005-1.327-0.05874-1.8869 0.37236-0.63917 1.1138-0.82834 1.6187-1.3153 0.43407-0.34994 0.95084-0.57256 1.4046-0.85439 0.11186-0.59962 0.22643-1.2412 0.09692-1.8483-0.19768-0.55696-0.08558-1.1206-0.17898-1.7217-0.03832-0.806-0.06481-1.6238-0.18361-2.4158 0.06237-1.8094-0.02587-3.6263 0.08429-5.4363 0.01397-1.1525 0.06412-2.3152-0.07626-3.4594 0.24182-1.0232-1.0544-0.4933-1.5586-0.86219-0.18515-0.74086-1.0732 0.33178-1.4419-0.38093-0.68161-0.25693-0.71308-1.0204-1.2266-1.4619-0.40273-0.57995-0.49387-1.4275-0.19992-2.0866 0.06491-0.58924 0.10323-1.1787 0.29881-1.7397 0.41213-0.50602 0.35107-1.1829 0.65752-1.6913 0.07259-0.59048 0.51672-1.0432 0.65051-1.5429 0.33228-0.51337 0.68003-0.94606 0.99755-1.4629 0.40504-0.5167 0.98081-0.8852 1.346-1.4646 0.57182-0.26803 0.9858-0.74929 1.5938-1.01 0.54237-0.39151 1.2075-0.59499 1.8593-0.76891 0.44195-0.07978 0.74396-0.52816 1.1948-0.36503 0.51303-0.28297 1.0815-0.50856 1.6426-0.55616 0.43529-0.12062 0.92128 0.09732 1.3683-0.21612 0.76116 0.11854 1.5037-0.0441 2.2737 0.11169 0.74081-0.06368 1.4101 0.3149 2.1505 0.2522 0.69744 0.07347 1.3863 0.22499 2.0402 0.47437 0.75084 0.06543 1.3448 0.61813 2.0863 0.70037 0.51564 0.23677 1.1567 0.25164 1.6051 0.56622 1.3902 0.51838 2.6388 1.3472 3.9969 1.9366 0.60277 0.22061 1.1277 0.64413 1.6907 1.0162 0.5439 0.3908 1.0701 0.77345 1.5932 1.1789 0.59092 0.36357 1.112 0.83149 1.6669 1.2282 0.45828 0.36982 0.91689 0.79531 1.343 1.2293 0.35811 0.4523 0.71954 0.87499 1.2242 1.0908 0.39211 0.59346 1.0209 0.96862 1.4195 1.5713 0.44288 0.51892 0.85161 1.0662 1.1106 1.7177 0.2549 0.66522 0.40543 1.3663 0.50124 2.0715 0.08148 0.65579-0.21023 1.1505-0.16278 1.788-0.10892 0.67145-0.18864 1.284-0.65223 1.832-0.12223 0.84496-0.6799 1.4753-1.1927 2.104-0.27452 0.66133-0.77325 1.1292-1.1681 1.7087-0.46115 0.54723-1.1855 0.78784-1.5754 1.413-0.60518 0.42734-1.0454 1.0319-1.6179 1.4891-0.3577 0.43502-0.67922 0.82188-1.1779 1.121-0.62549 0.7264-1.4959 1.17-2.2785 1.6997-0.28349 0.2241-0.81435 0.37951-0.97867 0.6645 0.72331 0.1678 1.3478 0.63298 2.0859 0.75298 0.40735 0.31354 0.80295 0.67483 1.3536 0.61959 0.65233 0.26049 1.2971 0.56973 1.9353 0.79842 0.49148 0.47475 1.2418 0.49959 1.7366 0.933 0.6437 0.18899 1.0053 0.86284 1.6283 1.124 0.55142 0.51439 1.243 0.82248 1.8026 1.3039 0.31847 0.55123 1.0234 0.78321 1.4017 1.2875 0.41944 0.56388 1.0689 0.81496 1.5565 1.3075 0.3791 0.56117 0.93366 0.90987 1.3234 1.4393 0.29858 0.71895 0.94602 1.2052 1.2714 1.8901 0.37238 0.45943 0.45028 1.1494 0.79095 1.6139 0.23501 0.47203 0.42521 0.99455 0.63637 1.4858 0.24221 0.71725 0.5501 1.3919 0.60529 2.1547 0.04745 0.60091 0.34596 1.0505 0.14272 1.6073 0.09781 0.82431-0.09579 1.6131-0.31904 2.4017 0.03182 0.58303-0.47549 1.0081-0.49088 1.5416-0.55556 0.41196-0.34998 1.2445-0.80778 1.7108-0.29662 0.66227-0.9473 1.1419-1.2321 1.8279-0.30297 0.52904-0.73836 0.86916-1.1812 1.2955-0.40903 0.59756-0.99429 1.0616-1.4456 1.63-0.59738 0.3642-1.0581 0.88507-1.5968 1.3303-0.54629 0.48236-1.2093 0.80253-1.7646 1.2825-0.52343 0.39272-0.9788 0.87984-1.5925 1.1482-0.54591 0.41649-1.1365 0.68042-1.7317 1.0042-0.5232 0.39496-1.0621 0.75541-1.7151 0.93033-0.68524 0.39094-1.4012 0.73556-2.133 1.027-0.67203 0.21828-1.3095 0.52284-1.9444 0.8477-0.70528 0.25121-1.459 0.38694-2.1478 0.69701-0.67326 0.20127-1.3055 0.50996-1.995 0.67476-0.80802 0.1982-1.5895 0.49242-2.4044 0.661-0.61529 0.34125-1.3536 0.37168-1.9824 0.61441-1.1527 0.22399-2.3383 0.28372-3.472 0.6138-0.74165 0.14907-1.5011 0.1872-2.2468 0.30564-1.0333 0.04968-2.0695 0.03238-3.1027-0.01002zm-10.315-12.958c-0.4558-0.16803-0.13916 0.38449 0 0zm-0.55145-0.0041c0.04104-0.45253-0.87515 0.11384-0.24041 0.08664l0.14704-0.02541zm16.434-4.1177c-0.23658-0.34676-0.24168 0.40969 0 0zm-0.4-2.3533c-0.18557-0.2646-0.28334 0.29296 0 0zm-0.64-21.08c0.58243-0.18962 1.2613-0.21195 1.8149-0.49004 0.61598-0.08729 1.0716-0.61107 1.6252-0.84836 0.64204-0.23451 1.2364-0.59902 1.7339-1.0399 0.64982-0.29126 1.1971-0.76139 1.8128-1.1017 0.48978-0.34135 0.95517-0.86022 1.5466-1.0004 0.14844-0.64577 1.0265-0.71641 1.4386-1.1977 0.63243-0.43249 1.1559-1.0122 1.7928-1.4472 0.4777-0.43271 0.86639-0.96976 1.326-1.432 0.47068-0.53496 0.85637-1.1001 1.2152-1.6909-0.02975-0.74413 0.75206-0.89813 1.0045-1.5346 0.28427-0.5677 0.4066-1.1771 0.34061-1.8153-0.13345-0.60875-0.39431-1.2629-0.9069-1.6207-0.4177-0.70533-0.99605-1.233-1.6249-1.7573-0.5203-0.56732-1.2601-0.81202-1.8564-1.2789-0.62872-0.6041-1.3965-1.0542-2.1621-1.4601-0.63259-0.17964-1.0909-0.66436-1.6996-0.90225-0.59036-0.30772-1.2427-0.48172-1.7621-0.83341-0.47141-0.38008-1.2183-0.46856-1.8302-0.59515-0.96388-0.27214-1.9943-0.23518-2.9916-0.25309-0.54879 0.13546-1.4142 0.3426-1.4005 1.0578-0.10269 0.67435-0.22654 1.3385-0.36607 1.9984-0.0082 1.3618 0.03385 2.7445-0.22618 4.0849 0.22752 1.014-0.0038 2.0596 0.01695 3.0849 0.32078 0.44475-0.12591 1.1396 0.02945 1.7101 0.02472 0.98348-0.0382 1.9733 0.03934 2.9524-0.30606 0.50246 0.1578 1.2339 0.05909 1.799-0.24771 0.80588-0.01649 1.6698 0.08066 2.487-0.03477 0.89712-0.08417 1.8095 0.0054 2.706 0.1667 0.41212 0.55097 0.54486 0.94444 0.41855zm108.78 38.158c-0.1492-0.50025 0.69887-0.66332 0.97522-0.59812-0.34769 0.11314-0.56865 0.72134-0.97522 0.59812zm-0.1313-0.65543c-0.47552-0.29988 1.3585-0.35436 0.45821 4.08e-4 -0.14822 0.07624-0.30651 0.03446-0.45821-4.08e-4zm0.90732-0.26399c0.47161-0.18416 8e-3 0.29408 0 0zm-71.615-1.1503c-0.54551-0.43784-1.2508-0.37466-1.8798-0.59468-0.56947-0.39402-0.85538-0.82957-1.2084-1.4038 0.29075-0.47444-0.65123-0.31027-0.54189-0.8652-0.16868-0.70536-0.3809-1.3732-0.71373-2.0422 0.05678-0.65065-0.47012-1.0614-0.46116-1.7204-0.3426-0.5975-0.18632-1.3738-0.28707-1.9664-0.26154-0.4875-0.57377-1.102-0.16337-1.5175-0.48227-0.22926-0.31448-0.92111-0.57173-1.3179 0.15713-0.74669-0.51345-1.4661-0.14066-2.1604 0.17473-0.30825-0.20298-0.72915-0.13521-1.0178-0.31301-0.57198-0.02419-1.3191-0.22947-1.9413-0.23119-0.30686 0.23454-0.71877 0.05531-1.1753 0.05473-0.68876-0.20191-1.3348-0.17758-2.0214-0.0062-0.75579-0.066-1.5185 0.02563-2.2705 0.36285-0.35033-0.36937-0.68093 0.06013-0.96415-0.46997-0.45021-0.06839-1.1059-0.23769-1.6812 0.25383-0.4779-0.2639-0.9194 0.0154-1.4494 0.04002-0.70322-0.0023-1.3976 0.07463-2.0986 0.04274-1.1403 0.05626-2.2889 0.18006-3.4198-0.15922-0.70424 0.33433-1.3153 0.02334-2.0066 0.16749-0.58907-0.13435-1.2924 0.04841-1.9238 0.05245-0.77066 0.05138-1.5484-0.04306-2.3124 0.02154-1.0633 0.10592-2.131-0.04744-3.1884 0.16314-1.0909 0.10337-2.2052 0.02627-3.3013 0.1643-0.62506-0.13139-1.16 0.07693-1.7641 0.07338-0.66488 0.16002-1.3362 0.14025-2.0217-0.0052-0.6664 0.11287-1.3364 0.1651-1.9861-0.30191-0.43776 0.08671-0.93856-0.02721-1.2623-0.19694-0.43626 0.28824-0.96376 0.09605-1.3994-0.06409-0.48673 0.17384-1.0694 0.12295-1.6436-0.07095-0.58532-0.02029-1.122-0.0077-1.6483 0.03244-0.6251 0.14805-1.1705 0.5052-1.6951 0.32079-0.5292 0.82777-0.75975 1.32-1.0378 0.6483 0.07826 1.3045 0.08817 1.955 0.14748 0.57203 0.38148 1.2122 0.68649 1.8434 0.98718 0.1692 0.44237 0.67153 0.54128 1.0141 0.94549 0.32124 0.56444 0.84141 0.98476 1.1814 1.5391 0.06763 0.67211-0.0564 1.2784-0.18198 1.9623-0.12128 0.92052-0.17732 1.8594-0.26795 2.775-0.19757 0.56977-0.13385 1.2697-0.26138 1.8872-0.08598 0.95648-0.1103 1.9195-0.25016 2.8679-0.14001 3.9446-0.10369 7.8929-0.1577 11.839-0.21028 0.46953 0.0069 1.1418-0.06276 1.733-0.03916 1.7049-0.04963 3.4157-0.1419 5.1157-0.13584 0.70093-0.11488 1.3936-0.09127 2.1128-0.0022 3.2131-0.26841 6.4344 6.62e-4 9.6414-0.06835 0.58691 0.01761 1.162 0.10165 1.7394 0.03171 0.85825 0.14759 1.7062 0.28623 2.5513 0.11229 1.1732 0.13998 2.3837 0.5416 3.4992 0.12506 0.42967 0.10797 0.71314-0.15784 0.95261 0.45192-0.0023 0.43896 0.78412 0.51202 1.1043-0.26006 0.45045-0.08607-0.35644-0.32845 0.10941-0.17244 0.58304 0.27067 1.11 0.12465 1.705 0.15171 0.62673-0.16158 1.2826 0.0445 1.8867 0.40398 0.434 0.02888 0.77474-0.44422 0.73724-0.15117 0.36816 0.35903 1.0732-0.42903 0.99422-0.29702 0.0622-0.60885 0.1395-0.89308-0.01401zm1.6939-5.6484c-0.05828-0.28895-0.20468 0.25925 0 0zm-0.04-0.4c-0.29458-0.32195-0.30691 0.31295 0 0zm-0.58167-2.8483c-0.32052-0.07411-0.15907 0.14658 0 0zm97.48 3.7283c-0.16506-0.50242 0.75078 0.32943 0.0802 0.09853l-0.0801-0.09853zm-0.53857-0.16c0.0583-0.28896 0.20464 0.25925 0 0zm0.57454-0.13213c-0.24526-0.49584 0.53189-0.18438 0 0zm2.1855-0.74787c0.2154-0.3224 0.18853 0.31147 0 0z" fill="#FFAA00"/>
</svg>
