<?xml version="1.0" encoding="UTF-8"?>
<svg width="144.778" height="118.668" version="1.1" viewBox="0 0 144.778 118.668" xmlns="http://www.w3.org/2000/svg" xmlns:cc="http://creativecommons.org/ns#" xmlns:dc="http://purl.org/dc/elements/1.1/" xmlns:rdf="http://www.w3.org/1999/02/22-rdf-syntax-ns#">
 <metadata>
  <rdf:RDF>
   <cc:Work rdf:about="">
    <dc:format>image/svg+xml</dc:format>
    <dc:type rdf:resource="http://purl.org/dc/dcmitype/StillImage"/>
    <dc:title/>
   </cc:Work>
  </rdf:RDF>
 </metadata>
 <g transform="translate(-14.7673 -6.16)">
  <path d="m58.5944 124.791c-1.60997-0.12619-3.23339-0.01-4.84188-0.19367-0.771011-0.038-1.50111-0.30613-2.2721-0.35443-0.583242-0.29599-1.23484 0.15952-1.86723-0.11198-0.957693-0.1178-1.87761-0.41315-2.82273-0.58713-0.648049 0.0142-1.2402-0.23527-1.83943-0.4388-0.588109-0.48248-1.37968-0.35094-2.04501-0.62948-0.531253-0.26749-1.1247-0.3717-1.66845-0.61975-0.477931-0.31475-1.1148-0.29408-1.64324-0.63406-0.649835-0.20691-1.22337-0.5865-1.81444-0.88038-0.772869-0.32588-1.50736-0.72456-2.23273-1.14592-0.495009-0.29752-0.863991-0.7755-1.45812-0.90504-0.552157-0.28121-1.12008-0.54612-1.54992-1.00688-0.525085-0.38489-0.902041-0.71066-1.50466-0.97685-0.78342-0.41729-1.2574-1.27723-2.11216-1.56823-0.446109-0.47785-1.03336-0.76417-1.49494-1.23957-0.351547-0.51793-0.784222-0.97958-1.26854-1.38601-0.738726-0.52919-1.24008-1.29394-1.87724-1.9297-0.502888-0.473-0.860805-1.06095-1.36716-1.53132-0.411833-0.48133-0.67681-1.08132-1.16722-1.47723-0.406819-0.4043-0.643871-0.93919-0.964338-1.40054-0.34199-0.58376-0.574348-1.18505-0.96963-1.73676-0.419719-0.53404-0.484178-1.28049-1.02233-1.72745-0.111626-0.33498-0.08446-0.62241-0.456296-0.79299-0.146017-0.55183-0.48923-1.04129-0.705411-1.56049 0.04352-0.705492-0.590044-1.18114-0.714762-1.85523-0.194166-0.61094-0.416117-1.15329-0.618954-1.76385-0.06682-0.650819-0.358205-1.19752-0.475847-1.85265-0.138031-0.685907-0.477077-1.32559-0.446112-2.04255-0.02783-0.904097-0.149386-1.80509-0.359094-2.68173-0.09386-0.619968-0.04009-1.27944-0.04472-1.86865-0.174046-0.739647-0.255562-1.55239-0.112771-2.29119 0.05542-0.560293 0.173136-1.15945 0.126582-1.75352-0.225276-0.341936 0.319763-0.466838 0.07835-0.930614-0.121272-0.318725 0.02327-0.633969 0.18346-0.807-0.527956-0.17067 0.355798-0.06151 0.102327-0.502071-0.187867-0.510045 0.04048-1.01621 0.14923-1.56569-0.226564-0.645043 0.253076-1.29276 0.489882-1.8387-0.08012-0.641772 0.291865-1.23197 0.311072-1.88218 0.123767-0.618085 0.317714-1.21648 0.363365-1.85036 0.21389-0.489274 0.370386-1.14188 0.937545-1.16816-0.109055-0.238366-0.664079-0.06408-0.357929-0.482576 0.137424-0.599955 0.179618-1.27957 0.410585-1.8792 0.293618-0.599751 0.4391-1.2699 0.636716-1.92431 0.321365-0.496882 0.391639-1.10297 0.795009-1.55504 0.04041-0.658492 0.548178-1.1372 0.594373-1.80021 0.09812-0.580851 0.546715-0.934839 0.570975-1.53441-0.04657-0.53449 0.990487-0.564498 0.434175-0.994392 0.287619-0.461488 0.743654-0.865399 0.876962-1.45164 0.15565-0.511723 0.696978-0.731442 0.719536-1.22906 0.156866-0.37307 0.33324-0.849103 0.638965-1.14967-0.274504-0.557582 0.807553-0.692551 0.506454-1.22138 0.350637-0.195715 0.117576-0.650454 0.602875-0.690703 0.488361-0.469951-0.108869-1.07359 0.337653-1.58352 0.572537 0.142691 0.219391-0.760394 0.79113-0.935866 0.594434-0.24624 0.658118-0.928874 0.900548-1.47241 0.10875-0.414445 0.634413-0.58492 0.410284-1.05122 0.18566-0.536485 0.679719-0.546494 0.860268-1.12304 0.115937-0.61954 0.438015-1.13187 0.848325-1.61132-0.04422-0.490681 0.356844-0.835477 0.738414-0.894165-0.211298-0.530078 0.785882-0.635966 0.211885-0.95811 0.181156-0.471756 0.679311-0.786123 0.907616-1.21995 0.213933-0.324315 0.780041-0.655174 0.747527-1.19287 0.409003-0.480044 0.553674-1.12076 1.04501-1.55193 0.273598-0.545338 0.579342-1.07157 0.933901-1.57018 0.375129-0.584946 0.766705-1.13669 1.27992-1.5836 0.114252-0.691455 1.00127-0.696699 1.04915-1.42591 0.403142-0.510947 0.630445-1.04634 0.973296-1.59941 0.30664-0.352398 0.539236-0.786639 0.950485-0.95296 0.341805 0.0071 0.631625-0.159414 0.375031-0.477706-0.06998-0.618162 0.76749-0.956192 1.02378-1.50835 0.611624-0.607116 0.991373-1.41489 1.69522-1.93486 0.249065-0.503547 0.692037-0.881437 0.989418-1.36276 0.435529-0.439972 0.746055-1.04356 1.37782-1.25817 0.510457 0.01387-0.301608-0.486514 0.280503-0.368187 0.554345 0.01036-0.135222-0.586853 0.336132-0.601085 0.402267-0.485114 0.68175-1.11224 1.16639-1.45481 0.559352-0.278979 0.66312-1.03744 1.21546-1.23027 0.379687-0.441515 0.81115-0.854102 1.21578-1.28376 0.420156-0.492623 0.941333-0.891515 1.37925-1.39716 0.318582-0.546284 0.925824-0.794081 1.2977-1.28871 0.534296-0.408198 1.11247-0.761492 1.57039-1.26453 0.42789-0.505012 1.05891-0.719464 1.53828-1.16206 0.535987-0.498252 1.15924-0.880089 1.76782-1.27255 0.508963-0.297895 0.979975-0.677194 1.51875-0.93892 0.781123-0.431021 1.63475-0.696032 2.42978-1.10095 0.62593-0.347472 1.32769-0.463124 2.02286-0.587102 1.48079-0.2669 2.92706-0.850804 4.45233-0.769166-0.0049 0.173008-0.347857 0.522135 0.05139 0.729468-0.108205 0.377634-0.391547 0.948208 0.263163 1.0792 0.806896 0.0958 1.67582-0.09593 2.42228 0.303474 0.345537 0.450715-0.717509 0.619604-0.637641 1.18156-0.550394 0.51777 0.468125 1.38491-0.389894 1.80739-0.401708 0.443441-1.07361 0.463218-1.44326 0.894807-0.584877 0.200076-1.16514 0.452423-1.78277 0.542865-0.559129 0.224792-1.15925 0.301937-1.70311 0.578889-1.12169 0.326033-2.13261 0.914884-3.12524 1.51464-0.595508 0.314359-1.04942 0.774392-1.60682 1.15485-0.494849 0.301436-0.879211 0.73938-1.32302 1.10171-0.76622 0.349332-1.27097 1.08869-2.00277 1.49856-1.00789 0.891509-2.04901 1.75507-2.97804 2.73056-0.467621 0.441071-0.848031 0.921577-1.29213 1.41532-0.665436 0.712441-1.29245 1.4598-1.98731 2.14512-0.414557 0.565826-0.930954 1.04505-1.36152 1.60547-0.453403 0.319261-0.689302 0.889612-1.14483 1.26536-0.381524 0.524519-0.789311 1.04384-1.22358 1.53694-0.428126 0.552516-0.785748 1.15477-1.2451 1.68948-0.578535 0.466823-0.637458 1.22181-1.29686 1.59967-0.457481 0.496623-0.752097 1.09661-1.23146 1.57381-0.412292 0.482718-0.668173 1.11375-1.07894 1.62079-0.50323 0.591499-0.870379 1.25674-1.33931 1.86538-0.328639 0.435019-0.541256 0.933341-0.877425 1.38464-0.379319 0.637564-0.918437 1.15754-1.37733 1.7312-0.302179 0.543028-0.804621 0.915373-0.880463 1.58024-0.264398 0.586416-0.641796 1.1353-0.972855 1.6753-0.483044 0.323481-0.57482 1.11638-1.15006 1.36089 0.301483 0.599954-0.575556 0.913756-0.665562 1.47382-0.0707 0.594181-0.723812 0.969671-0.905132 1.57087-0.355441 0.583913-0.750317 1.125-0.971138 1.76294-0.593665 0.310153-0.353314 1.02727-0.819491 1.50011-0.363963 0.498773-0.546934 1.13617-0.923307 1.644-0.431025 0.508692-0.540952 1.14426-0.767699 1.7323-0.402385 0.55705-0.6539 1.19487-0.809018 1.82204-0.54375 0.304336-0.242517 1.05796-0.649285 1.48464-0.454618 0.314482-0.309666 0.999889-0.68868 1.43083-0.0067 0.634287-0.731243 1.10532-0.582226 1.74636-0.469964 0.509815-0.638851 1.18769-0.803108 1.82591-0.367311 0.57624-0.441661 1.23136-0.643434 1.85186-0.119947 0.563334-0.420244 1.12181-0.467002 1.68331-0.221862 0.357246-0.338749 0.907259-0.468674 1.35728-0.144706 0.613604-0.414094 1.18427-0.483121 1.82475-0.184699 0.565645-0.193511 1.1842-0.340093 1.76638-0.06821 0.593402-0.109151 1.1882-0.247823 1.76796-0.0093 0.68639-0.264829 1.3063-0.269827 1.97017-0.03328 0.627885-0.05983 1.23519-0.05514 1.86908-0.0043 0.6615-0.176313 1.32907-0.159582 2.00222 0.02785 1.25857 0.166716 2.51378 0.289113 3.7666 0.122391 0.87925 0.181229 1.80059 0.480086 2.62985-0.01457 0.626579 0.316406 1.18633 0.414945 1.7821 0.245056 0.595414 0.257354 1.2743 0.65312 1.8059 0.138959 0.629008 0.508587 1.17715 0.638103 1.80913 0.280918 0.51648 0.638733 1.0184 0.868815 1.57782 0.336273 0.5769 0.543289 1.23205 1.00435 1.72247 0.349109 0.5247 0.66036 1.03029 1.05923 1.51433 0.57843 0.81499 1.25542 1.55757 1.91089 2.31053 0.508967 0.36198 0.913688 0.75036 1.2528 1.28012 0.474819 0.38922 1.01058 0.75784 1.36089 1.27415 0.601018 0.27913 0.966468 0.90994 1.57214 1.16952 0.613577 0.33694 0.992394 0.92042 1.64131 1.18345 0.766338 0.19249 1.19655 0.94011 1.89564 1.26131 1.10976 0.82661 2.42446 1.30366 3.65214 1.92138 0.924114 0.43426 1.94133 0.64886 2.83202 1.15329 0.956824 0.26242 1.91308 0.52799 2.86517 0.80963 1.21831 0.33761 2.43991 0.69566 3.7073 0.78619 0.584681-0.0459 0.820221 0.5927 1.31759 0.18429 0.730052 0.19848 1.5008 0.19637 2.24186 0.35123 2.20151 0.23814 4.42209 0.18392 6.63263 0.25829 0.747554 0.0238 1.49763 0.0473 2.23494-0.0944 0.480425-0.0425 0.962399-0.0632 1.44366-0.0937-0.256922 0.18759-0.334618 0.64047 0.02608 0.18605 0.745827-0.46481 1.67974-0.31385 2.50588-0.24286-0.0096 0.50648 0.235503 0.0668 0.343737-0.11323 0.629717-0.21458 1.27704 0.0103 1.89009-0.28426 0.730936-0.15944 1.48507-0.12588 2.22044-0.25612 1.12588-0.0101 2.21068-0.37181 3.33814-0.36443 0.678706-0.0708 1.34808-0.17637 2.02727-0.26071 1.04245-0.20334 2.03993-0.61013 3.10764-0.68875 0.606479-0.19897 1.20968 0.14299 1.72349-0.313 0.617038-0.0331 1.22307-0.3469 1.80298-0.39154 0.376359 0.41208 0.684518-0.43702 1.13145-0.10635 0.304895-0.29216 0.805122-0.46691 0.958283-0.31105 0.320032-0.63215 1.13051 0.20802 1.32866-0.56384 0.465769-0.36411 1.11492-0.17945 1.53799-0.26469 0.494623-0.19123 1.18567-0.41672 1.76606-0.57219 0.670996-0.088 1.29323-0.37816 1.94603-0.49278 0.52363-0.29672 1.19341-0.34272 1.67071-0.76789 0.544779-0.35812 1.45381-0.0182 1.85087-0.34223 0.245595-0.24656 0.667901-0.71353 0.868732-0.2418 0.418212-0.3493 0.861096-0.86169 1.39234-0.44194 0.183939-0.4745 1.10232-1.03071 1.2176-0.21461 0.715452-0.0143 0.507328-1.01329 1.20555-1.03171 0.282904-4e-3 0.538858 0.14484 0.63493-0.18702 0.597555-0.30579 1.24211-0.41341 1.91145-0.38257 0.60491 0.11003-0.0335-0.5777 0.58789-0.60965 0.61574-0.31165 1.29724-0.48122 1.95384-0.60791 0.3055-0.64507 1.10943-0.25706 1.43948-0.73782 0.65285-7e-3 1.00816-0.71056 1.65241-0.80677 0.60564-0.21861 1.26339-0.41395 1.78228-0.81378 0.69703-0.20036-0.4644 0.55108 0.20816 0.5596 0.18329-9e-3 0.91654-0.41028 0.6183-0.52372-0.461-0.15553 0.53677-0.0448 0.2215-0.51439 0.3996-0.49058 1.14741-0.54148 1.50991-1.02337 0.48644-0.26147 1.11444-0.38962 1.61582-0.71487 0.52739-0.31314 1.06997-0.55119 1.52883-0.96468 0.63271-0.14003 1.05051-0.6832 1.65556-0.80745 0.20193 0.0653 0.67258 0.59097 0.56082 0.0872-0.70088-0.13947 0.44732-0.41871 0.42823-0.77713 0.52782-0.29924 1.04661-0.43251 1.60282-0.34236-0.52171-0.5293 0.59343-0.47819 0.94112-0.61805 0.14981-0.51116 0.62045-0.78451 0.98958-1.16662 0.39514-0.462156 0.95249-0.740197 1.48862-1.00553 0.62059-0.131661 1.26596-0.30783 1.66048-0.763428 0.46856-0.263199 0.0612 0.855837 0.60354 0.360584 0.26988-0.173769 0.4298-0.554433-0.0141-0.546754-0.11149-0.492643 0.32894-0.666186 0.64135-0.789921-0.0898-0.377889 0.56752-0.572888 0.65791-0.968145 0.47563-0.389938 1.0444-0.636337 1.53124-1.05735 0.37009-0.175346 0.8146-0.179318 0.99173-0.518692 0.823 0.214107 0.32271-0.895339 1.02933-1.0384-0.0401-0.44558 0.32823-0.849526 0.64755-0.34736 0.41383 0.191648-0.16764-0.274447 0.26824-0.417766 0.38874-0.113471 0.41723-0.375152 0.48729-0.688408 0.47291 0.125392 0.40472 0.0232 0.3102-0.262968 0.50339-0.181943 1.01917-0.269851 1.21173-0.616437 0.59111 0.133553 0.11405-0.478612 0.67688-0.574375 0.35893-0.453145 0.75333-0.939835 1.30529-1.1711 0.15027-0.226805 0.5241-0.407489 0.63866-0.604208 0.62526 0.238144 0.76574-0.440357 1.14804-0.621295 0.35013 0.261298 0.026-0.36967-0.13301-0.355933 0.31944-0.165097 0.68629-0.467876 0.43295-0.671817 0.34684 0.104931 1.20905-0.436175 0.49189-0.40633 0.59271-0.328148 0.9275-0.991708 1.11914-1.62862 0.18665-0.797412 1.29827-0.530498 1.44029-1.38228 0.41177-0.502927 1.32462-0.332414 1.63504-0.906689-0.0641-0.575329 0.92775-0.305267 0.67094-0.761728-0.61059-0.200511-0.12724-0.867289 0.19705-1.02642 0.19679-0.527821 0.88127-0.589855 1.09956-1.16236 0.22276-0.19051 0.11361-0.606365 0.44839-0.305678-0.0847-0.32599-0.0775-0.736638 0.29281-0.803457 0.0708-0.635168 0.3861 0.162957 0.71579-0.155303 0.41421 0.08818 0.74014 0.07975 0.46788-0.333159 0.3779-0.101341 0.24239-0.545847-0.0201-0.611442 0.19678-0.230773 0.51917-0.859546 0.87542-0.484818 0.27223-0.190324 0.49981-0.494647 9e-3 -0.683952-0.48752 0.227725-0.15222-0.717303 0.15106-0.540551 0.31821-0.01156 0.29667-0.145385 0.50132 0.146471 0.36936-0.270889-0.18786-0.511665-0.0583-0.598317-0.16133-0.191264 0.37572-0.496769-0.16304-0.416274-0.23267-0.0047 0.58484-0.253864 0.51991-0.561949-0.19787-0.389918 0.31644-0.861613 0.67177-1.15995 0.57672-0.519825-0.0465 0.593937 0.44135 0.27197 0.10887-0.227587 0.34493-0.179929 0.16764-0.458875 0.4333-0.401393-0.41788-0.525561-0.0138-0.92667 0.19669-0.183374 0.75223 0.385099 0.62688-0.145077 0.81286 0.121087 0.78627-0.749531 0.89512-1.27154 0.30532-0.301031 0.21268-0.909531-0.16765-0.805254 0.14665-0.389305-0.12362-0.572613 0.34619-0.725278 0.0898-0.243733-0.46748-0.281434-0.0476-0.56475 0.258-0.284272 0.39175-0.970092 0.84557-0.557066 0.57716-0.244959-0.72382-0.148033-0.25046-0.6692 0.21642-0.561198 0.5686-1.03546 0.81308-1.58937 0.26024-0.316127 0.41853-0.686351 0.55781-1.10166-0.3346-0.402987 0.40371-0.02587 0.37155 0.24589 0.60555-0.141537 0.3075-0.688083-0.11571-0.813619-0.0481-0.433698 0.69156-0.751261 0.20726-1.22393 0.072-0.451367 0.75256-0.336369 0.46892-0.884318-0.0303-0.432358 0.67571-0.470124 0.1676-0.818248 0.23364 2.31e-4 0.9385 0.147022 0.59452-0.30159-0.63254-0.14027-0.13726-0.972359-0.32041-1.26925 0.8812-0.214414 0.19546-1.06723 0.6424-1.55076 0.40003-0.459851 0.60125-1.02879 1.18477-1.27569-0.0943-0.225609-1.16806-0.376119-0.52721-0.661405-0.036-0.517748 1.151 0.06997 0.6506-0.470807-0.28647-0.186151-0.6135-0.40737-0.25614-0.586757-0.12788-0.3355-0.33171-0.574055 7.5e-4 -0.854552-0.69707-0.620038 0.9922-0.384698 0.75162-0.790643-0.78056 0.127936-0.77536-0.724735-0.75565-1.27526-0.10933-0.415285 0.15831-0.803487 0.19105-1.12289-0.64838-0.111761 0.50861-0.355524-0.0734-0.519847-0.29813-0.564384 0.43882-1.0693-2e-3 -1.59641 0.0714-0.542145-5e-3 -1.16565 0.0978-1.74771 0.071-0.823063 0.0895-1.65746-0.0988-2.46515 0.13038-0.482343 0.0347-1.09015-0.0515-1.60963-0.0853-0.657331-0.19706-1.30709-0.33183-1.95497-0.0292-0.300491-0.18266-1.21358 0.0785-0.454563 0.4909 0.199596 0.43503-0.989894-0.12736-0.610927-0.40486-0.118623-0.14512-0.623414 0.12574-0.631029-0.26527-0.0137-0.5333-0.775066-0.0455-0.875499-0.26302-0.169932 0.25467-0.53482-0.27766-0.690425-0.43018-0.155329-0.0358-0.714089-0.59431-0.805834-0.35521-0.301145-0.28782-0.492486 0.0638-0.690683-0.0794-0.505432-0.4931 0.240482-0.50838-0.31625-0.21229-0.624466-0.16219-1.31403-0.64312-1.80721-0.29508-0.365098-0.61851-0.970476-0.58881-1.37766-0.17255-0.367571-0.39195-1.06873-0.66921-1.51075-0.38706-0.57127-0.57464-1.25141-0.85454-1.87755-0.23142-0.521163-0.9165-0.662227-1.10342-1.26001-0.34619-0.486491-0.72145-1.00344-1.1342-1.46008-0.56169-0.528748-1.12015-1.10373-1.67179-1.67238-0.57282-0.403571-1.00921-0.951643-1.59019-1.34742-0.44316-0.377928-0.85337-0.765517-1.39351-1.02922-0.48356-0.44809-1.0758-0.74392-1.60278-1.13237-0.53683-0.305137-1.03517-0.682989-1.59149-0.971483-0.82445-0.441888-1.65-0.893564-2.47032-1.3348-0.89943-0.342847-1.6566-1.03195-2.61852-1.22763-0.27438-0.317522-0.5075-0.524529-0.96842-0.455489-0.8602-0.427042-1.78133-0.701837-2.67812-1.0351-0.59736-0.198935-1.09472-0.626668-1.73941-0.682764-0.67632 0.0039-1.19484-0.483326-1.84-0.592967-0.71938-0.03069-1.28661-0.505232-1.96475-0.644414-0.701 0.06939-1.26644-0.432392-1.95684-0.333975-0.63945 0.03181-1.2032-0.272828-1.79841-0.422173-0.66589 0.0448-1.11504-0.582092-1.75519-0.499036-0.78979-0.112736-1.54329-0.425784-2.34629-0.451255-0.58071-0.295538-1.31785 0.04305-1.84586-0.407285-0.8997 0.02454-1.79443-0.199327-2.67457-0.378027-0.95141-0.440612-2.02119-0.182103-3.02348-0.371482-0.70466-0.0037-1.37465-0.246579-2.07509-0.258398-0.65818-0.08291-1.30907-0.150446-1.9805-0.171145-0.65439-0.0706-1.29799-0.28373-1.88971-0.368246-0.22582-0.110814-0.59519-0.854162-0.73069-0.358166 0.40095 0.304018 0.0449 0.573771-0.29989 0.290534-1.905-0.17204-3.82784-0.06057-5.73277-0.243578-0.588278-0.234653-1.1244-0.04872-1.73666 0.01943-0.86035-0.142803-1.82162 0.197355-2.59159-0.328464-0.318774 0.05671-0.354285-0.02784-0.382323-0.286289-0.327257 0.141465-0.282226 0.559636-0.706831 0.35999-1.20317 0.113371-2.41802 0.02778-3.62587 0.06154-1.36613 0.0278-2.72789-0.144812-4.0945-0.07834-0.502669-0.230421-0.67263 0.384666-1.2387 0.236962-1.04856 0.05326-2.10606-0.03734-3.14944 0.08657-0.633362 0.09992-1.34733 0.06586-1.93565 0.04948-0.398463 0.506471-1.11276 0.08004-1.57056 0.539997-0.674483 0.01063-1.35014-0.181736-1.95484 0.09613-0.633746-0.0298-1.2505 0.206126-1.87364 0.355835-0.65391 0.124912-1.3233 0.139609-1.98087 0.243283-0.668346 0.09786-1.3431 0.172245-2.00905 0.301658-0.644069 0.214124-1.30236 0.34257-1.98684 0.348168-0.69511-0.0059-1.32223 0.338396-2.01626 0.34521-0.521339 0.108398-0.858663 0.339986-1.41859 0.378937-0.578832 0.201168-1.23208-0.118467-1.73256 0.347299-0.650908 0.151023-1.31902 0.218448-1.96114 0.419027-0.625349 0.13674-1.18322 0.354619-1.82634 0.44067-0.64133 0.13646-1.25434 0.323133-1.86775 0.602344-0.544639 0.36831-1.2329 0.175872-1.81209 0.403772-0.45642 0.713309-1.31239 0.09068-1.80086 0.688547-0.454568 0.491315-1.14734 0.433301-1.72341 0.63778-0.467778 0.434696-1.20114 0.34331-1.69118 0.787001-0.548833 0.270592-1.13478 0.429538-1.70461 0.653004-0.744895 0.114124-1.22065 0.808954-1.96339 0.920784-0.564902 0.165794-1.08013 0.390013-1.58577 0.715918-0.441898 0.331235-1.03985 0.466443-1.50343 0.803076-0.490176 0.467602-1.13647 0.571629-1.75402 0.657786 0.01223 0.478724-0.62925 0.356199-0.726626 0.839366-0.446328 0.470456-1.10574 0.24495-1.49917 0.804707-0.440939 0.282137-0.797979 0.650202-1.3009 0.923099-0.257788 0.1764-0.767552-0.755815-0.761401-0.137272 0.214827 0.25515 0.967857 0.356521 0.297715 0.556514-0.545479 0.349389-1.14371 0.561288-1.59294 1.06853-0.660861 0.219788-0.994169 0.948686-1.57093 1.21142-0.226468 0.209547-0.622385 0.174541-0.647432 0.4955-0.428193-0.01046-0.405068 0.573681-0.912742 0.50164-0.05657 0.45107-0.697833 0.425514-0.730184 0.865462-0.374077 0.177579-0.37061-0.512105-0.802517-0.172376-0.297028 0.279851-0.462318 0.568871-0.902401 0.5437-0.419367 0.270957 0.09432 1.06157 0.278801 0.382348 0.479648-0.05852 0.720145-0.34641 0.957679-0.71389 0.150467 0.655636-0.931406 0.683548-0.850599 1.13509-0.263686 0.278027-0.695253 0.263268-0.8722 0.687743-0.293334 0.363961-0.661155-0.143443-0.151114-0.185124 0.482225-0.378924-0.387534-0.387432-0.332942 0.08104-0.184129 0.11373-1.13391 0.218109-0.543522 0.52958 0.758874 0.06893 0.09612 0.766529-0.255582 0.893913-0.343037 0.508957-0.802436 0.927534-1.18872 1.39924-0.592974 0.08634-0.61123 1.18345-1.19332 1.02267-0.29065 0.03287-0.309244 0.844599-0.593188 0.270019 0.253815-0.346707 0.77704-0.418899 0.730083-0.840774-0.02529-0.501218 0.90693-0.261426 0.955707-0.866598 0.685021-0.168609-0.49622-0.969393-0.737481-0.406093-0.250835 0.07238-0.650004 0.429405-0.125788 0.339222 0.763081 0.252962-0.844991 0.662111-0.354408 1.13556-0.633541-0.06318-1.2697 0.985618-0.471225 1.03977-0.24062 0.342152-0.264573 0.425693-0.298289 0.0098-0.397889-0.04845-0.477524 0.572236 0.02846 0.432484-0.359642 0.663595-1.04111 1.08373-1.46643 1.70753-0.188381 0.220024-0.56291 0.223177-0.3377-0.06632-0.4305 0.07728-0.688868 0.07173-0.93455-0.195745-0.778075-0.122537 0.633461 0.561795-0.03983 0.691734 0.25046 0.54765-0.739594 0.624523-0.381654 0.07074 0.164566-0.438133-0.399804-0.430434-0.05218-0.871188-0.581749-0.334984 0.530174-1.10533 0.348305-0.462641-0.22239 0.474137 0.55518 0.565379 0.500339 0.02759 0.347916-0.285601 0.08881-0.416091-0.159781-0.449398 0.05777-0.641033 0.621257-0.0219 0.801739-0.244249-0.445223-0.324877 0.281815-0.233016 0.304502-0.623648 0.350489-0.277473 0.423393-0.458753 0.0214-0.671043-0.06222-0.532098 0.304704-0.937387 0.869858-0.722202 0.477973-0.05216-0.07401-0.391122-0.255494-0.339674 0.229535-0.470381 0.697278-0.939045 0.239682-1.47018-0.166804-0.466335 0.518833-0.543622 0.154512-0.185365 0.436114 0.155029 0.947541 0.399585 1.00036-0.285748-0.348721-0.435148 0.488209-0.50229 0.320659-1.03613 0.199806-0.554852 0.553504 0.0694 0.137762 0.249642-0.29988 0.467889 0.485241 0.517779 0.420363 0.01306-0.01415-0.581068 0.634712-0.190214 0.758407-0.319565 0.444964 0.436653 1.10785-0.412227 0.573428-0.569145-0.259946 0.530148-0.815137-0.348657-0.205164-0.357305 0.399372-0.273727 0.173905-0.801289-0.203655-0.320254-0.09368 0.303637-0.916558 0.551323-0.509851 0.120242 0.42276 0.04315 0.582564-1.16806 0.987679-0.4144 0.476356-0.0076 0.843806-0.536082 1.37076-0.455065 0.428803-0.101487-0.199328-0.72608 0.311201-0.380252 0.5663 0.246504-0.02826-0.284662-0.04215-0.340532 0.413131-0.04494 0.891747-0.869607 0.258305-0.80224 0.509634-0.453478 0.834045-1.02626 1.31072-1.51433 0.468699-0.161985 0.696667-0.813705 1.22142-0.678553 0.0904 0.530054-0.758548 0.629667-0.98036 1.0303-0.172108 0.214952-0.781681 0.633726-0.142212 0.472062 0.67525-0.41812 1.10046-1.21766 1.9125-1.39991 0.263226-0.07806 0.894343-0.59737 0.244883-0.50556-0.116353 0.309381-0.937786-0.148773-0.5279 0.204861 0.429033 0.530655-0.819324-0.02882-0.193325-0.328746 0.513214-0.161238 1.10442-0.124857 1.5634-0.268632 0.476435 2e-3 0.398113 0.91739 0.659476 1.28052-0.02526 0.639361 0.718743 0.352968 0.432502-0.175761-0.219324-0.28408-0.477828-0.95046-0.14406-1.18359 0.13077-0.358686-0.911497-1.12263-0.113438-1.19238 0.648648 0.324772 1.07569-0.596588 1.56552-0.574134 0.344011 0.130287 0.943172 0.05348 0.737439-0.364515 0.231076-0.161195 0.562346-0.37101 0.04123-0.394761-0.73498-0.597925 0.882061-0.485424 1.01041-1.00562-0.03423-0.422674 0.419138-0.526148 0.530277-0.202515 0.313116-0.02172-0.406424-0.523537 0.05737-0.399739 0.650958 0.442441 0.89645-0.321366 1.1148-0.738189 0.278964-0.119007 0.618832-0.79748 0.620169-0.121811-0.09326 0.608339 0.89857 0.281306 0.800577-0.199346 0.05054-0.306836-0.06983-0.613235 0.401296-0.77009 0.171674-0.17814 1.06152-0.701144 0.326488-0.470564-0.525241 0.192081 0.420424-0.408812 0.648165-0.319996 0.369339-0.155991 0.606469-0.600583 1.09151-0.772491 0.475427-0.288159 1.07815-0.631885 1.6695-0.527113 0.613392-0.06957 1.16643-0.342116 1.43749-0.902131 0.42097-0.219726 0.911682-0.308762 1.2646-0.592283 0.60721 0.08712 1.08274-0.226676 1.50083-0.555655 0.451798-0.445021 1.02288-0.553765 1.64165-0.521604 0.32004 0.01589 0.693429-0.205675 0.158875-0.263098 0.08283-0.229314 0.764354 0.170748 0.476919-0.387559 0.18711-0.362009 0.532527 0.210516 0.186855 0.356078 0.394491 0.253783 0.897264-0.851685 1.05062-0.190775 0.270974 0.241772 0.738736-0.246777 0.802904 0.249372 0.524191 0.312993 0.265645-0.296683 0.304346-0.513934 0.27545-0.243307 0.661964-0.504549 0.540286-0.834186 0.335724-0.01156 0.575164-0.370896 0.541907-0.446549 0.563082-0.137421 1.21856 0.02531 1.61362-0.385428 0.281861 0.113944 0.909446 0.216574 0.309907 0.456638 0.400041 0.08571 0.930833-0.280927 1.11976-0.73239 0.268775-0.190319 0.536847-0.377028 0.396359-0.67454 0.376454-0.286342-0.857049 0.014983-0.286143-0.226312 0.205587-0.03596 0.602993-0.217593 0.492711 0.138581 0.254985-0.153927 1.13842-0.096667 0.402811 0.064826-0.625567 0.289955 0.09361 0.900317 0.379935 0.324902 0.358174-0.295352 1.6819 0.09291 1.20937-0.682574 0.277443-0.354734 0.886102 0.461346 1.28858-0.040358 0.318669 0.060753 0.559163 0.202145 0.867787-0.096205 0.795159 0.157304-0.157575 1.25261 0.563564 1.35047 0.769434 0.01636 0.283834-1.17019 1.0491-1.08046 0.09826-0.556961 0.9461-0.432109 1.37398-0.675277 0.41666-0.254608 1.25496-0.123655 1.12595-0.872269 0.207163-0.706482 1.20942-0.202314 1.71382-0.554961 0.790469-0.280405 1.66164-0.321749 2.4931-0.266991 0.315801 0.520443-0.860185 0.039948-0.829303 0.558477-0.655275 0.21327-1.36715-0.145914-2.015-0.00283-0.147462 0.339506-0.519483 0.098549-0.568372 0.508246-0.459229 0.289986 0.587948 0.58893 0.882948 0.375058 0.428459-0.015404-0.02754-0.676411 0.522232-0.421543 0.528768-0.131365 0.765525 0.662979 1.3797 0.489122 0.712251-0.015878-0.312427-0.287664-0.352889-0.411366 0.303197-0.323486 0.885923-0.082415 1.07958-0.513156 0.158826 0.357638 0.538877 0.938895 0.938209 0.392218 0.387728-0.289659 0.9891-0.805825 1.31943-0.277862 0.569062 0.146964 1.1135-0.334917 1.73752-0.124782 0.705621-0.103439 1.4429-0.100247 2.12577-0.267009 0.677477 0.109256 1.31123-0.096658 1.96202-0.226718 0.516666-0.205276 0.941376-0.443013 1.4619-0.14578 0.376341 0.042882 0.30357-0.103993 0.170361-0.275531 0.154245-0.286944 1.08287-0.286046 1.02122-0.19267-0.476651-0.050681-0.796191 0.603265-0.142862 0.56459 0.333024 0.145846 0.813301-0.128522 0.881038-0.249968-0.09081-0.077917 0.685155-0.386526 0.119764-0.419548-0.700237-0.178268 1.02975-0.321665 0.50981 0.412134 0.274356 0.205711 1.12775 0.066474 1.61681 0.118806 0.298402 0.081285 0.626848-0.069862 0.605846-0.231904 0.558115 0.718956 1.0692-0.3071 1.74034-0.147524 0.477028-0.024115 1.42945-0.054751 0.544974 0.288893 0.437162 0.314044 1.50473-0.246147 1.59245 0.375993-0.07604 0.516038 0.396735 0.56366 0.585236 0.199498 0.716297 0.366107 0.451077-0.859623 1.09683-0.546419 0.266692 0.069381 0.632267 0.172353 0.425861-0.207788 0.260862 0.064263 0.478394-0.559773 0.574404-0.189913-0.443434 0.550309 0.6781 0.585446 1.05747 0.560488 0.314674 0.055516 0.618221 0.511894 0.732743 0.038475 0.476777-0.191244 0.841642 0.041056 1.30964-0.0209 0.439918-0.542868 1.14854-0.459911 1.71173-0.632109 0.08901-0.584182 1.30961-0.09737 0.544932 0.202187-0.0076 0.491515 0.698741 0.058669 0.949018 0.013953-0.261841-0.608708 0.610231-0.823399 0.803464-0.480728-0.432476-0.099177 0.02409 0.323115-0.387475 0.472298-0.139228 0.260827 0.568276 0.077708 0.600062 0.411467 0.511022 0.286286 0.712552-0.71772 1.07821-0.194404-0.0241 0.62388 0.943416 0.64678 1.40162 0.602239 0.69351-0.069668 1.27857-0.650634 1.94443-0.406693 0.49771 0.115545-0.0173-0.513227 0.52482-0.297422 0.31917 0.446508 0.81089 0.02826 1.11283 0.291238-0.63499 0.099294 0.18851 0.263062 0.19007 0.594485 0.53003 0.331948 1.38997-0.577273 1.43352 0.371093-0.0931 0.709071 1.16514 0.15774 0.53707-0.160379 0.25482-0.312788 0.78472-0.24407 0.7823 0.095269 0.43696 0.00934 0.82769 0.262113 1.22022 0.045371 0.41994 0.4345 0.50754-0.152142 0.99758-0.035929 0.17254-0.177037 0.66539 0.067336 1.05924-0.134948 0.39124-0.075327 0.4299 0.737458 0.97634 0.459133 0.60106-0.160719 0.64979 1.36892 0.86764 0.396198 0.0635-0.39813 0.83705-0.282716 0.95631-0.703758 0.50619 0.619864 1.15993 0.137195 1.79301 0.259197 0.48191 0.112734 1.05793 0.181485 1.20735 0.61243 0.61762 0.209079 1.28952-0.134648 1.86157 0.216639 0.30525-0.039449 0.6297 0.124443 0.17231 0.257347-0.1524 0.477755 0.59461 0.124485 0.5206-0.204747 0.26741-0.341491 1.15618 0.094495 0.68141 0.332361-0.23904-0.252744-0.93129-0.00458-0.31583 0.12779 0.5349 0.39027 1.15718 0.597499 1.82724 0.58109 0.35172 0.114319 0.19442-0.400883 0.51066-0.215726-0.50803-0.528395 0.33276-0.01084 0.60304-0.192988 0.36677 0.177512 0.85599 0.268124 1.18987 0.45767-0.12227 0.489156-0.6942 0.153989-0.8922 0.138607 0.26444 0.515467 1.06552 0.348887 1.49284 0.692061 0.41657 0.103433 0.72141-0.137902 0.96564 0.270729 0.46508 0.08944 1.29521 0.406155 1.57828 0.190684-0.33131-0.307822 0.86654 0.100612 1.13736 0.08286 0.33789 0.0921 1.24573-0.2198 0.80956 0.327916 0.0894 0.490931 0.81699 1.08308 1.07748 0.394085 0.39319 0.0035 0.76236 0.268503 1.1727 0.195747-0.0143 0.478147 0.86287 0.959405 0.97682 0.440928 0.3064 0.357998 1.53358-0.110415 1.31983 0.516015 0.4148 0.24371 1.21522 0.183081 0.96982 0.616201 0.0643 0.166006 0.43734 0.317868 0.19627-0.03189 0.48099 0.154209 1.02895 0.200204 1.48366 0.546218 0.63388 0.128253 0.8086 0.724051 1.50987 0.69317 0.75058 0.184998 1.39094 0.634707 2.10436 0.912168 0.4555 0.382754 1.05296 0.517197 1.51822 0.899266 0.55297 0.292646 1.02932 0.67212 1.52699 1.04156 0.53762 0.443109 1.14647 0.805584 1.68937 1.24785 0.58185 0.261193 0.93385 0.827132 1.47601 1.14737 0.48816 0.367909 1.01624 0.648994 1.45682 1.08688 0.65464 0.202223 0.80894 0.869483 1.26895 1.26852 0.48699 0.558731 1.0589 0.94282 1.58723 1.45666 0.50587 0.467935 0.59935 1.19048 1.12588 1.64353 0.50098 0.719381 1.14104 1.33917 1.72634 1.99359 0.51407 0.420594 0.76548 0.998817 1.06896 1.55504 0.3008 0.529313 0.59713 0.983171 0.93168 1.5182 0.2548 0.451335 0.19182 0.934253 0.60941 1.22305 0.0799 0.60937 0.62072 1.01832 0.7191 1.61541 0.27093 0.491877 0.53625 1.16225 0.25005 1.54994 0.72033 0.09234 0.77097 1.04789 1.01315 1.59976 0.37274 1.19421 0.65797 2.41156 0.87384 3.64298 0.19391 0.587452 0.17596 1.22338 0.2846 1.84256 0.13979 0.564209 0.24513 1.12715 0.31113 1.70745 0.22142 0.540926 0.16183 1.21922 0.33583 1.65401-0.27657 0.45657-0.50056 0.79469-0.16616 1.2366 0.0807 0.893207-0.17082 1.8275 0.17557 2.68735 4.7e-4 0.637208 0.0966 1.2515-0.0352 1.89079-0.0709 0.911343-0.0283 1.83558-0.27736 2.72421-0.0347 0.685012-0.0615 1.37157-0.21359 2.04701-0.14041 0.625477-0.26374 1.25817-0.42475 1.87578-0.15734 0.735495-0.14648 1.51916-0.44053 2.21796-0.30589 0.580193-0.39393 1.2953-0.56155 1.94249-0.0798 0.667476-0.31997 1.29782-0.48417 1.92959-0.10132 0.541746-0.42476 1.03999-0.51153 1.6039-0.30422 0.558694-0.45581 1.15523-0.68846 1.73517-0.54735 0.321218-0.41793 1.06122-0.72003 1.50883 8e-4 0.670032-0.53657 1.12647-0.78256 1.68135-0.19186 0.619129-0.55967 1.17503-0.71031 1.80637-0.42923 0.557875-0.83782 1.14507-1.05508 1.8105-0.40663 0.473146-0.77817 1.02002-0.87451 1.66187-0.22599 0.580525-0.78787 0.968042-0.94118 1.58745-0.15037 0.636942-0.87058 0.875887-0.95696 1.51512-0.43803 0.485959-0.72185 1.09444-1.19109 1.56074-0.51828 0.40633-0.70921 1.04458-1.14165 1.4664-0.14907 0.431719-0.47941 1.10388-0.9193 0.650344-0.63417-0.04514 8e-4 0.542997-0.4424 0.722576 0.17529 0.684445-0.47147 1.1101-0.7853 1.62533-0.31268 0.5539-0.6571 1.09013-1.18605 1.4787-0.32076 0.582292-0.81662 0.960468-1.32714 1.36729-0.81492 0.832832-1.59464 1.7004-2.4008 2.54137-0.33987 0.415617-0.93328 0.574234-1.16377 1.11416-0.48248 0.377997-0.8293 0.851434-1.31349 1.21124-0.44481 0.479829-0.84463 1.05809-1.40413 1.44091-0.48183 0.355053-0.90422 0.731801-1.36507 1.104-0.63002 0.311047-0.93647 0.954519-1.45779 1.37776-0.59737 0.415025-1.13561 0.893172-1.77013 1.24868-0.49023 0.400077-0.95906 0.844525-1.52265 1.12226-0.57417 0.120247-0.81175 0.806239-1.38645 1.02563-0.69809 0.45268-1.18464 1.19409-1.97015 1.51921-0.53783 0.41768-1.03925 0.78803-1.63418 1.13686-0.56865 0.22435-0.98546 0.69936-1.47417 1.00149-0.60038 0.50124-1.34838 0.78734-1.93099 1.31172-0.63834 0.2495-1.04341 0.8124-1.68558 1.06099-0.42183 0.37247-0.96328 0.58134-1.47286 0.83423-0.47324 0.33447-0.96112 0.64067-1.49672 0.86456-0.52092 0.39842-1.08206 0.74956-1.71128 0.90179-0.3162 0.28937-0.64789 0.44039-1.035 0.44518-0.12708 0.60196-0.91689-0.17088-0.94046 0.59278-0.50327 0.31918-1.08076 0.54653-1.5981 0.88698-0.55623 0.17829-0.92051 0.70141-1.51728 0.8814-0.55405 0.32975-1.26557 0.31555-1.74627 0.76955-0.51237 0.23778-1.03792 0.42796-1.55319 0.60256-0.67033-0.0559-0.84695 0.70987-1.5043 0.64593-0.69113 0.6237-1.6631 0.73916-2.46535 1.16891-0.8027 0.29894-1.58927 0.63878-2.38331 0.95806-0.64204 0.0722-1.26094 0.28047-1.8152 0.61437-0.818036 0.0393-1.31659 0.63711-2.09314 0.83811-0.609488 0.0654-1.12882 0.44977-1.73885 0.5095-0.543127 0.22829-1.2348 0.14517-1.75059 0.58414-0.464535 5e-3 -0.479824 0.4761-1.00077 0.31899-0.654917 0.2736-1.24332 0.63159-1.98136 0.70449-0.662963 0.12333-1.13224 0.64511-1.80676 0.70526-0.713266-0.1437-1.24253 0.35909-1.88829 0.5072-0.721046-0.0701-1.36688 0.38765-2.06415 0.27502-0.559722-0.17675-1.08271 0.43468-1.66396 0.51242-0.654662 0.0836-1.26064 0.35974-1.92825 0.40889-0.564645 0.20552-1.30532-0.15229-1.71181 0.35465-0.59092-0.17805-1.12259 0.52884-1.79326 0.41791-0.493192 0.0186-0.680116 0.51974-1.24 0.29967-0.499012 0.17144-1.02881-0.12944-1.57483 1e-3 -0.650243 4e-3 -1.23409 0.33343-1.88721 0.29446-0.637554 0.14689-1.16664 0.33471-1.79007 0.41403-1.10514 0.28457-2.25389 0.25895-3.38107 0.38246-0.625863-0.099-1.22032 0.10108-1.83344 0.1607-0.909658 0.0804-1.81787 0.1998-2.73378 0.21718-1.51674 0.0564-3.03613 0.14449-4.5539 0.0935l-0.07791-0.0185zm15.5439-6.43936c-0.320031-0.0739-0.15925 0.14726 0 0zm4.90167-0.78694c-0.09079-0.64201-1.17588 0.17559-0.315278 0.11528 0.09042-0.0163 0.295873 0.0243 0.315278-0.11528zm5.98169-0.42978c-0.195746-0.2159-0.29262 0.39016 0 2e-5zm10.1998-1.90741c-0.45414-0.0829-0.23827 0.11853 0 0zm-8.20318-0.23587c-0.320089-0.0739-0.159193 0.14726 0 0zm2.02166-0.19166c-0.215401-0.3224-0.188532 0.31147 0 0zm5.27025-0.95228c0.231276-0.51884-0.66568 3e-3 -0.09474 0.0512l0.09474-0.051zm0.169752-0.93628c-0.301326-0.17521-0.321379 0.30882 0 0zm3.36-0.18672c-0.156058-0.34531-0.639267 0.26837-0.06462 0.0523l0.04727-0.0233 0.01736-0.029zm1.12-1.36472c-0.215401-0.3224-0.188532 0.31147 0 0zm0.815464-0.30346c0.186474-0.63315-1.32038 0.15531-0.541308 0.15849 0.183145-0.0269 0.386216-0.0487 0.541308-0.15849zm4.54453-1.05654c-0.29458-0.32195-0.30691 0.31295 0 0zm2.16-1.08c-0.0826-0.57143-0.80537 0.33504-0.0979 0.19091 0.0884-0.0134 0.10141-0.12244 0.0979-0.19091zm1.73834-0.0883c-0.31977-0.0739-0.15958 0.14729 0 0zm0.44082-0.23473c0.0124-0.37298 0.45916-0.78222 0.0849-1.11918-0.55647 0.15591-0.87076 1.23464-0.0849 1.11918zm-2.64582-0.21697c0.3916-0.35162-0.24454-0.36248-0.29837-0.0291-0.26296 0.27181 0.21786 0.19584 0.29837 0.0291zm11.965-0.98834c-0.31977-0.0739-0.15958 0.14729 0 0zm-8.21834-0.10187c-0.29879-0.65476-0.51304 0.35308 0 0zm2.4-1.44979c-0.18557-0.26462-0.28329 0.29292 0 0zm1.62636-0.54841c0.3073-0.7519-0.74167-0.41177-0.52886 0.14015 0.17174 0.0938 0.4045-0.0112 0.52886-0.14015zm2.53364-1.13159c-0.55861-0.0587 8e-3 -0.46434-0.0658-0.5934-0.40458-0.4243-0.99245 0.52891-0.46343 0.62108 0.14929 0.022 0.42041 0.11405 0.52926-0.0277zm8.11656-1.68557c-0.56191-0.17826-0.10801 0.57534 0 0zm-5.71656-0.31192c-0.22431-0.21346-0.37246 0.32646 0 0zm0.62167-0.89751c-0.39118-0.49989-0.17931 0.4156 0 0zm1.37833 0.0236c-0.12502-0.30746-0.88518-0.14077-0.28112 0.0546 0.0861 0.013 0.24685 0.0553 0.28112-0.0546zm-0.80914-0.81421c-0.39152-0.12937 0.1875 0.31491 1e-5 -5e-5zm2.56914-0.87439c-0.21692-0.295461-0.0765 0.255546 0 0zm0.32-0.314688c0.26141-0.05864 0.63677-0.31787 0.13875-0.398501-0.32719-0.02596-0.73856 0.685127-0.13875 0.398501zm5.50167-0.580312c-0.39114-0.499959-0.17937 0.415695 0 0zm-0.54167-1.42774c0.26181-0.446883-1.46048-0.522485-0.58771-0.139381 0.16452 0.123242 0.3833 0.322536 0.58771 0.139381zm-1.48-0.397256c0.4629-0.323745-0.85649 0.239464 0 0zm3.4-0.366416c0.28886-0.265483 0.25143-0.503007-0.1725-0.381965-0.65592-0.07616-0.10682 1.14368 0.1725 0.381965zm-0.74166-0.08192c-0.32019-0.07416-0.15948 0.146609 0 0zm-1.25309-0.325456c0.24817-0.618279-0.52396-0.401163-0.29638 0.09362 0.0708 0.240074 0.26529 0.04571 0.29638-0.09362zm1.89853-0.526656c0.32101-0.283801 0.0705-0.920847-0.29108-0.391193-0.12653 0.284055-0.56972 0.58637 0.0545 0.477763 0.0809-0.01697 0.17337-0.02615 0.23654-0.08657zm-1.42378-0.334832c-0.19462-0.302118-0.2221 0.161994 0 0zm2-0.318176c0.35899-0.619618-0.92857 0.01197-0.19076 0.03242l0.13246-0.0049 0.0583-0.02754zm-0.69848-0.419016c-0.40013-0.0963-0.31185 0.145411 0 0zm7.09848-0.107528c-0.37124-0.249016-0.18886 0.264829 0.052 0.03863zm-5.81181-0.49912c-0.35676-0.253652-0.58536 0.564033-0.0649 0.189203 0.0432-0.04208 0.10378-0.123265 0.0649-0.189203zm-0.26819-0.14088c-0.42714-0.436717-0.57263 0.416817 0 0zm0.64-0.48c-0.29458-0.321948-0.30691 0.312954 0 0zm1.76-0.24c-0.22857-0.271512-0.42651 0.264612-0.013 0.03106zm-2.64-0.19528c-0.10401-0.283515-0.42786 0.193077 0 0zm1.28-0.68944c0.0413-0.263226 0.59866-0.180245 0.2346-0.589942-0.26024-0.06978 0.08 0.362447-0.37828 0.370864-0.44346-0.119401 0.18251 0.829391 0.14368 0.219078zm5.36-1.43528c-0.40896-0.285517-0.2645 0.170481 0 0zm-2.29673-0.96036c0.20608-0.09384 0.91147-0.233139 0.33779-0.553238-0.35317-0.03383-0.30908 0.453122-0.64916 0.168385-0.26058 0.234276 0.10456 0.963952 0.31137 0.384853zm4.08266-2.27182c0.01-0.576395-0.79766 0.267692-0.0721 0.07774 0.0551 0.01773 0.036-0.07761 0.0721-0.07774zm0.37933-0.53064c0.5427-0.478329-0.74458-0.575712-0.34716 0.03649 0.1003 0.08968 0.24793 0.01146 0.34716-0.03649zm-1.22894-0.535232c0.47694-0.178558-0.23744-0.251242-0.40331-0.185253-0.0776 0.346297 0.19659 0.380682 0.40331 0.185253zm3.54368-2.10195c-0.19222-0.530897-0.43239 0.424792-9e-3 0.06126l9e-3 -0.06126zm-1.32-0.08c-0.12221-0.279669-0.30124 0.266664 0 0zm-0.84-0.36384c-0.17403-0.242418-0.28755 0.29059-1e-5 -2.3e-4zm0.99554 0.05106c0.0884-0.723828-0.70933 0.117297-0.0642 0.0514l0.0642-0.0514zm0.3428-0.695552c-0.32019-0.07416-0.15948 0.146609 0 0zm3.50166-3.31167c-0.22095-0.328606-0.47938 0.283835 0 0zm-0.17157-0.535509c0.50626-0.24431-0.83432-0.740827-0.55675-0.0077 0.16805 0.394811 0.32968-0.04919 0.55675 0.0077zm3.69157-3.22449c-0.12221-0.279669-0.30124 0.266664 0 0zm0.81834-1.72833c-0.32037-0.07414-0.15926 0.146594 0 0zm0.97829-1.23167c0.25995-0.199354 0.13819-1.22377-0.13534-0.842218 0.34423 0.357966-0.55323 0.746175-0.11156 1.01861 0.0767-0.06532 0.14426-0.151303 0.2469-0.176391zm0.38894-2.06c0.014-0.290313-0.47825-0.114297-0.13171-0.464634 0.16107-0.709363-0.71201 0.04257-0.26073 0.370166-0.10333 0.377378 0.3257 0.40446 0.39244 0.09447zm-130.194-1.34668c-0.0467-0.36092-0.327499 0.417638 0 0zm131.488-0.513315c-0.18557-0.264616-0.28329 0.292924 0 0zm-0.22134-0.413336c-0.61215-0.151903-0.13643 0.391708 0 0zm-1.05866-0.19253c-0.29859-0.440759-0.44075 0.499319 0 0zm1.31482-0.02575c-0.16325-0.412471-0.45319 0.297255 0 0zm-0.53081-1.43378c-0.37164-0.609785-0.49382 0.693202-0.0303 0.120974l0.0273-0.06175zm0.25599-0.734604c-0.41779-0.337584-0.32339 0.293902 0 0zm4.94505-2.38c-0.3679-0.527102-0.46275 0.337826 2e-3 0.05384l-0.00202-0.05384zm-3.56905-0.516c-0.48239-0.199924-0.0526 0.371733 0 0zm1.024-0.384c-0.37123-0.249023-0.18887 0.264835 0.052 0.03863zm-0.28-0.56c-0.25132-0.337589-0.38113 0.271748 0 0zm-0.48-0.64c-0.34733-0.295992-0.0412 0.270699 0 0zm0.12-1.47528c-0.19461-0.302114-0.22211 0.161991 0 0zm4.8-1.64472c-0.0838-0.260256-0.20133 0.277559 0 0zm-3.4-1.36c-0.10285-0.274789-0.58311 0.20259-0.0819 0.0565zm-0.167-0.848382c0.29076-0.427281-0.63647 0.142192-2e-5 0zm-128.016-1.35783c0.269329-0.471636-0.511042-0.6892-0.362312-0.09213 0.07905 0.265472 0.205634 0.45454 0.362312 0.09213zm128.687 0.110213c0.41245-0.622988-0.66702-0.514716-0.41433 0.05432 0.11582 0.09212 0.30998 0.0231 0.41433-0.05432zm4.176-0.064c-0.0838-0.260256-0.20133 0.277559 0 0zm-4.35671-0.885322c0.11493-0.205104-0.77058-0.377657-0.33089-0.08666 0.0767 0.08698 0.23879 0.268917 0.33089 0.08666zm0.17505-3.24301c-0.32037-0.07414-0.15926 0.146594 0 0zm1.50166-0.351666c-0.38802-0.314866-0.25099 0.222443 0 0zm-1.18166-2.12833c-0.32037-0.07414-0.15926 0.146594 0 0zm-0.10176-2.51719c-0.72183-0.346601-0.12097 0.442987 0 0zm-0.15658-0.394472c-0.1033-0.296917-0.27893 0.23786 0 0zm-0.14166-1.08833c-0.32037-0.07414-0.15926 0.146594 0 0zm-117.098-5.15388c-0.348697-0.190523-0.16523 0.391073 0 0zm-15.3-2.57779c0.131953-0.06613 0.668192-0.307304 0.201061-0.349064-0.334477-0.06543-0.639825 0.345439-0.203885 0.429259l0.0028-0.08019zm17.4383 0.05167c-0.320569-0.0741-0.159023 0.146573 0 0zm-16.6136-0.812176c0.325183-0.328019-0.261282-0.241564-0.460888-0.211668 0.263191 0.09354-0.244252 0.505832 0.24018 0.416411 0.09731-0.03574 0.170456-0.116955 0.220708-0.204743zm0.315247-0.699494c-0.202425-0.416581-0.163025 0.40159 0 0zm0.858333-2.96833c-0.320569-0.0741-0.159023 0.146573 0 0zm1.54167-0.450125c0.217679-0.229792 0.876169-0.987573 0.0866-0.819941-0.325705 0.03907-0.137654 0.890001-0.35088 0.27609-0.377562-0.46936-0.301659 0.461303-0.227911 0.631983 0.152884-0.02668 0.38566 0.02595 0.492191-0.08813zm-0.269106-0.102c0.05363-0.472247 0.385787 0.342275 0 0zm1.62911-0.534831c-0.510694-0.339898-0.291897 0.68771-0.02969 0.08631l0.02969-0.0863zm3.64044-3.1052c0.447746-0.412109-1.03305-0.266077-0.280444-0.166322-0.680961 0.199664 0.0355 0.484344 0.280444 0.166322zm1.37638-1.27951c0.07207-0.217332 0.807512-0.221424 0.248473-0.619344-0.413043-0.09306-0.445264 0.447647-0.489288 0.539302-0.462727 0.09796 0.360262 0.451717 0.240815 0.08004zm-0.977749-0.223071c0.147808-0.221316 1.10477-0.302908 0.529236-0.708741-0.402971-0.250771-0.591292-0.07704-0.600552 0.326602-0.579602-0.01942 0.01055 1.05061 0.07132 0.382139zm-1.75336-0.131215c0.350157-0.555742-0.504904 0.335122 0-4e-6zm3.84668-0.249164c0.125852-0.491771-0.899323 0.277165-0.164539 0.105325 0.06103-0.01919 0.134395-0.04196 0.164539-0.105325zm-0.532394-0.67655c0.212869-0.60464 0.993076 0.373041 0.730208-0.42-0.264374-0.105097-0.697565-0.50087-0.714559 0.06147-0.358084 0.02479-0.729394 0.773453-0.16332 0.50326l0.06879-0.06348 0.07888-0.08125zm-1.2-0.16c-0.185566-0.264598-0.283347 0.292957 0 0zm3.94921-2.00581c0.665601-0.590234-0.608024-0.371559-0.397514 0.134328 0.130729 0.08626 0.292751-0.06681 0.397514-0.134328zm0.330789-0.554194c-0.549158-0.338407-0.07458 0.329889 0 0zm-1.56-0.12c-0.463434-0.487435-0.54461 0.467216 0 0zm2.36-0.2c-0.220946-0.328602-0.479387 0.283837 0 0zm0.88-1.42122c0.275892-0.20889 0.334911-0.452317-0.04095-0.170745-0.204763 0.06993-0.213003 0.345379 0.04095 0.170745zm-0.74-0.391757c-0.317112-0.06779-0.268606 0.125982 0 0zm3.34526-0.269832c0.467307-0.25054-0.666722-0.62356-0.455335-0.02767 0.02506 0.211829 0.343102 0.0721 0.455335 0.02767zm-1.88825-0.242028c-0.47126-0.28653-0.388039 0.2274 0 0zm2.42132-0.843492c-0.320569-0.0741-0.159023 0.146573 0 0zm2.26167-1.32111c-0.136986-0.177897-0.225499 0.323376-0.0235 0.07102zm-1.06678-0.317673c0.110208-0.260403 1.07717-0.624846 0.680522-0.778951-0.320603 0.266509-1.28383 0.532414-0.960968 1.01374 0.113858-0.05155 0.196011-0.147082 0.280446-0.234792zm3.95332-0.872885c0.383167-0.640581-0.799491-0.03033-0.191902 0.04545l0.105235-0.0321 0.08667-0.01335zm-1.1618-0.487677c-0.02271-0.643642-0.662427 0.06436-0.0759 0.06956l0.0759-0.06956zm5.48051-0.235137c0.528347-0.431532-0.768278-0.111201-0.14881 0.06453l0.06921-0.02581 0.0796-0.03871zm-4.88526-0.157186c0.108446-0.188505-0.705893-0.04352-0.16 0.07755l0.0635-0.02278zm5.76-0.792922c-0.255469-0.197881-0.42727 0.23577-0.01368 0.02832zm2.24-0.08272c-0.287682-0.342222-0.6362 0.139462 0 0zm-1.36-0.08435c-0.215401-0.322399-0.188532 0.311471 0 0zm-0.88-1.04281c-0.354527-0.354825-0.53103 0.492469-0.048 0.08989l0.03494-0.04423 0.01306-0.04568zm-0.686543-0.04575c0.426068-0.318731-0.672348-0.116359-0.09136 0.03376l0.09136-0.03374zm1.61648-0.31253c0.356958-0.111263 0.947781-0.270978 1.03842-0.616372-0.476516-0.5697-0.970521 0.376239-1.51506 0.343604-0.196513 0.03557 0.239139-0.236747 0.306697-0.329788-0.477067-0.09476-0.505586 0.442908-0.897197 0.557196-0.128366 0.124781 0.610965 0.422171 0.765235 0.106802 0.09813-0.0312 0.199547-0.0513 0.301899-0.06144zm82.1537 0.07332c-0.46896-0.279673-0.30247 0.253236 0.0616 0.08446l-0.0616-0.08445zm-83.4837-0.432234c-0.309291-0.287563-0.128624 0.217365 0 0zm8.2299-0.547563c-0.389896 0.0061-0.421752 0.613966 0 0zm-6.97157 0.09923c-0.320561-0.0741-0.159036 0.146575 0 0zm10.3013-0.07737c0.120249-0.169969 0.02521-0.40666 0.08839-0.647662-0.376277-0.118542-0.481523 0.573614-0.514717 0.703273 0.132574 0.112477 0.313167 0.04908 0.426328-0.05561zm-1.79961-0.034297c-0.294575-0.321948-0.306913 0.312954 0 0zm68.6833-0.714678c-0.78225-0.498929 0.16008 0.392301 0 0zm-73.745 0.02634c-0.320573-0.0741-0.159019 0.146573 0 0zm8.98167-0.111662c-0.03882-0.261792-0.62456-0.380225-0.590779-0.101627 0.331851-0.08913 0.317314 0.3634 0.590779 0.101627zm1.84 0c-0.215401-0.322399-0.188532 0.311471 0 0zm47.5977-0.163125c-0.42935-0.262542-0.0803 0.317789 0.072 0.06131l-0.072-0.06126zm-59.0769-0.23818c0.600872-0.187279-0.750008 0.0071-0.0699 0.05748l0.0699-0.05748zm2.6362-0.153853c-0.20803-0.273842-0.379336 0.245271 0 0zm6.54938-0.131463c-0.380569-0.449657-0.228196 0.616914 0 0zm9.47194 0.158287c-0.320569-0.0741-0.159023 0.146573 0 0zm-17.6318-0.112891c-0.04408-0.28201-0.974627-0.124973-0.257001 0.0498 0.08874-0.0015 0.166768-0.05513 0.257001-0.0498zm13.1692-0.113661c0.347509-0.559133-0.955366-0.511963-0.325888-0.01802 0.07712 0.122142 0.244976 0.180964 0.325888 0.01802zm4.88424-0.438571c-0.04003-0.382648 0.24933-0.453514 0.437554-0.257725 0.454584-0.178684 0.367231-0.712223-0.16439-0.537384-0.493752-0.104027-1.35486 0.128162-0.935087 0.677754 0.06001-0.348016 0.736791-0.686926 0.573792-0.08702-0.122549 0.129413 0.02259 0.567777 0.08813 0.204371zm37.9128-0.256971c0.19299-0.20878-0.0595-0.42013 0.23954-0.653266-0.50788-0.356982-1.03892 1.2629-0.23954 0.653266zm-14.1128 0.010428c-0.05828-0.28895-0.204684 0.259251 0 0zm5.64 0c-0.2154-0.322399-0.18853 0.311471 0 0zm-34.495-0.180918c-0.115545-0.451968-0.52618 0.505382-0.02145 0.05369l0.02145-0.05369zm12.833 0.136286c0.191793-0.596643-0.798295-0.241792-0.201568 0.03912l0.111736 0.0039 0.08983-0.04304zm-10.418-0.102034c-0.188937-0.460861-0.322075 0.272559 0 0zm1.43768-0.01021c0.29638-0.370953-0.719071 0.102427-0.113861 0.05434l0.113862-0.054374zm6.72232-0.083124c-0.216971-0.295463-0.07644 0.255551 0 0zm0.72-0.08c-0.12154-0.316079-0.408316 0.353523 0 0zm10.68-0.172622c0.282388-0.32815-0.714682 0.271849-0.127687 0.04525l0.127687-0.04528zm2.44 0.012622c0.08735-0.508727-0.745702 0.251718-0.121865 0.129041l0.06602-0.05166 0.05585-0.07738zm-12.96-0.16221c-0.348697-0.190523-0.16523 0.391073 0 0zm42.72 0.08221c-0.0838-0.260256-0.20133 0.277559 0 0zm-53.143-0.06409c0.246455-0.505225-0.310201-0.466026-0.328328-0.01994 0.03027 0.133192 0.252889 0.07529 0.328328 0.01994zm31.3018-0.08524c-0.0867-0.49322-1.01294 0.07763-0.24832 0.08963 0.0816-1e-3 0.22513 0.01216 0.24832-0.08963zm2.32122-8.75e-4c-0.15595-0.244214-0.28878-0.31971-0.12917-0.010129-0.25708 0.09622 0.12435 0.105494 0.12917 0.010129zm-8.57443-0.230613c0.657306-0.611865-1.27877 0.043105-0.351179 0.086041 0.07241 0.234396 0.299392 0.113976 0.351179-0.086041zm-14.1056 0.0608176c-0.04553-0.252205-0.636846 0.227475-0.08641 0.056128zm-15.64-0.24c-0.247025-0.598485-0.420404 0.643084 0 0zm-0.499962-0.06c-0.269754-0.390222-0.564767 0.3075-0.055288 0.0743394zm19.1258-0.12663c-0.38892-0.656699-0.286528 0.649148 0 0zm34.9307 0.032158c0.0191-0.337234-0.72836 0.052386-0.14006 0.070276l0.0823-0.018165 0.0578-0.052105zm-36.1966-0.0855284c-0.294575-0.321948-0.306913 0.312954 0 0zm35.5783-0.048334c-0.3203-0.07416-0.15935 0.146573 0 0zm-1.28594-0.228216c-0.31296-0.062043-0.43166-0.546713-0.68266-0.174796-0.2227-0.167779-1.25227-0.133966-0.57896 0.087769 0.36573-0.164218 1.25513 0.442821 1.26162 0.087027zm-16.6124-0.28345c-0.216974-0.295463-0.07644 0.255552 0 0zm-24.88-0.07749c-0.224398-0.213495-0.372358 0.326388 0 0zm34.4-0.033951c-0.46111-0.644823-0.25332 0.426163 0 0zm-34.2574-0.275291c-0.152392-0.335731-0.658006 0.355765-0.078496 0.083232l0.05043-0.039681zm16.4174-0.013268c-0.294575-0.321948-0.306913 0.312954 0 0zm14.56-0.04c-0.10558-0.420137-1.01234-0.080682-0.3145 0.087258 0.10146 0.026909 0.29942 0.071941 0.3145-0.087258zm-30.0261-0.22c0.112937-0.558375-0.6388 0.342572-0.355947 0.259092 0.16207-0.0122648 0.380706-0.0344326 0.355947-0.259092zm22.6661 0.144722c-0.194612-0.302119-0.222108 0.161986 0 0zm2.39341-0.069931c0.75946-0.247952-0.91503-0.326242-0.45693 0.088146 0.15113-0.035236 0.30132-0.077195 0.45693-0.088146zm-10.9506-0.098181c0.217688-0.594882-0.72922 0.10853-0.111569 0.09457l0.111571-0.09457zm9.24962-0.15661c-0.143274-0.788773-0.756504 0.490525 0 0zm-1.86243-0.10382c-0.0034-0.60845-0.570503 0.258966 0 0zm-9.06334-0.15618c0.252988-0.536663-0.308025-0.429464-0.381778-0.070099 0.077099 0.0753835 0.30579 0.205915 0.381778 0.070099zm-19.4067-0.1c-0.02625-0.259904-0.474053 0.18372-0.07017 0.0565zm34.0983-0.048333c-0.32032-0.074164-0.15934 0.146543 0 0zm-5.81834-0.271667c-0.175366-0.23573-0.480412 0.276427-0.0142 0.030966zm3.2 102.929c0.32126-0.30872 0.30143 0.17514 0 0zm35.0111-23.1286c0.16027-0.437199 0.41539 0.408421 0 0zm11.1889-3.4c0.0583-0.28896 0.20464 0.259247 0 0zm7-29.7914c0.32144-0.308794 0.30126 0.175343 0 0zm-137.88-10.3504c-0.604002-0.17682 0.06109-0.788817 0.362693-0.99256 0.467916 0.340119-0.05002 0.560097-0.141879 0.98272l-0.08568 0.02754-0.135117-0.0177zm1.33284-0.701924c-0.25726-0.761938 0.872987-0.02873 0.164722 0.20376-0.08529-0.03878-0.124929-0.126324-0.164722-0.20376zm-0.209425-0.510708c0.06648-0.466997 0.227355 0.302537 0 0zm0.621773-0.115779c-0.07909-0.332185 0.0015-0.670166-0.156973-0.945253 0.314874-0.306429-0.14709-0.675137 0.403157-0.637641 0.230248-0.235148 0.78487 0.03347 1.06764 0.141018-0.255978 0.159404-0.80011-0.278852-0.919322 0.292133-0.329227 0.362736 0.114019 1.05185-0.401878 1.22762l0.0074-0.07787zm-1.26519-0.209749c0.301368-0.266656 0.121985 0.279716 0 0zm1.92518-0.231618c0.178341-0.472093 0.429739 0.299294 0 0zm-0.125181-1.4112c-0.309348-0.431979-0.143536-0.668691 0.357593-0.438426 0.226821 0.07431 0.631927 0.323339 0.157112 0.356604-0.110548 0.104004-0.443782 0.356907-0.514705 0.08182zm1.76-0.07719c0.313198-0.475568 0.313103 0.46083 0 0zm-2.26667-0.493334c-0.184609-0.79681 0.489002 0.227111 0 0zm0.666666-0.112632c-0.290275-0.109251-0.592535-0.368922-0.07256-0.474034 0.456857-0.64067 0.795774 0.561423 0.07256 0.474034zm2-0.149312c0.04894-0.176517 0.499157-0.605899 0.04448-0.346755-0.02838 0.707109-1.06486-0.168527-0.28294-0.03631 0.678239 0.01056-0.542254-0.609403 0.201781-0.4629 0.336171 0.185475 0.864516 0.230257 0.319031 0.628528-0.08091 0.041-0.218355 0.581689-0.282348 0.217436zm-1.56856-1.09126c0.04847-0.67231 0.587424 0.185998 0.04538 0.119524-0.05999-0.0023-0.07211-0.0794-0.04538-0.119524zm0.624559-0.369457c-0.415324-0.420875 0.798308-0.401476 0.232577 0.04481-0.06209 0.09399-0.187008 0.01662-0.232577-0.04481zm2.064 0.02091c0.115924-0.431638 0.705049-0.27184 0.16677 0.0165-0.02025-0.01924-0.146636 0.05017-0.16677-0.0165zm-1.84-0.489632c0.174903-0.173285 0.187794 0.278284 0 0zm0.28-0.315278c0.301368-0.266655 0.121982 0.279716 0 0zm1.25856-1.76c0.87275-0.664873-0.29135 0.621167 0 0zm6.51349-4.43744c0.134912-0.656063 0.44259 0.457909 0 0zm5.09789-7.55326c-0.406127-0.549607 0.533457-0.176392 0.09561 0.07427zm3.89006-3.04458c0.174434-0.430474 0.467448 0.372477 0 0zm8.225-5.17937c0.355779-0.05876-0.04523 0.145825 4e-6 -1e-5zm4.06833-2.83868c-0.4907-0.489864 1.40988-0.412966 0.499396-0.284188-0.373482 0.01719-0.07565 0.779309-0.499396 0.284188zm1.14667-0.389176c0.372379-0.326399 0.224377 0.213502 0 0zm76.4143-0.661966c0.20486-0.334231 1.0713 0.0845 0.32675 0.0281-0.0593-0.06401-0.64907 0.221924-0.32675-0.0281zm1.06571 0.02448c0.0583-0.28896 0.20464 0.259247 0 0zm-2.60714-0.424859c0.31749-0.105369 0.64538 0.180777 0.10886 0.0713-0.0101-0.0088-0.15841-0.0092-0.10886-0.0713zm1.12714-0.055145c0.21692-0.295461 0.0765 0.255546 0 0zm-72.8-0.167453c0.12956-0.319952 1.48202-0.25126 0.637381 0.02824-0.18873 0.02391-0.482361 0.110023-0.637381-0.02824zm2.4786-0.674228c-0.06602-0.269527 0.833017-0.07331 0.181671 0.06717-0.06766 0.02988-0.1438-0.0108-0.181671-0.06717zm3.00532-0.576949c-0.126801-0.3495 1.00069-0.671538 0.656294-0.082101 0.595543 0.229797-0.632083 0.253924-0.656294 0.082101zm2.75608-0.574672c0.01492-0.466016 1.35729-0.687252 1.00343-0.132819-0.435167-0.304059-0.736848 0.157388-0.976959 0.300569l-0.0203-0.062711-0.0062-0.105037zm-1.60928 0.065875c0.02722-0.227826 0.715956 0.076872 0.09867 0.042068zm4.77145-0.549058c0.07457-0.428139 0.826486-0.270104 0.21148 0.023629-0.05507 0.055698-0.180618 0.068111-0.21148-0.023629zm48.3176-0.163863c0.0604-0.325059 0.60475-0.037959 0.0815 0.036693l-0.0487-0.00755-0.0328-0.029138zm-47.5598-0.239651c0.18557-0.264596 0.283344 0.292957 0 0zm5.4884-0.386403c-0.02022-0.244447 0.327949-0.750939 0.309675-0.228569-0.05043 0.092195-0.181041 0.321444-0.309675 0.228569zm38.2421-0.110568c0.49097-0.263838 0.53425 0.268447 0 0zm-30.9705-0.463029c0.521216-0.315952 0.39895 0.323792 0 0zm12.4168-0.31992c0.03352-0.63696 0.188754 0.489108 0 0zm-8.87684 0.026938c0.317424-0.067723 0.268247 0.12594 0 0zm1.64152-0.00246c0.372013-0.06439 0.233788 0.11476-0.03601 0.014549l0.03601-0.014553zm8.85848 0.023998c0.264065-0.249257 0.401189 0.165967 0 0zm-10.74-0.261538c0.317424-0.067723 0.268247 0.12594 0 0zm4.94-0.0270175c-0.223463-0.0995294-0.345418-0.164448 0.030783-0.234744 0.57451-0.0936625-0.033836 0.523797-0.030783 0.234744zm4.16-0.24c0.351925-0.203866 0.551267 0.040915 0.05452 0.071631l-0.06068-0.017908zm6.52-0.08c0.294575-0.321948 0.306913 0.312954 0 0z" stroke-width=".08"/>
 </g>
</svg>
