<?xml version="1.0" encoding="UTF-8"?>
<svg width="245.07" height="94.956" version="1.1" viewBox="0 0 245.07 94.956" xmlns="http://www.w3.org/2000/svg" xmlns:cc="http://creativecommons.org/ns#" xmlns:dc="http://purl.org/dc/elements/1.1/" xmlns:rdf="http://www.w3.org/1999/02/22-rdf-syntax-ns#">
 <metadata>
  <rdf:RDF>
   <cc:Work rdf:about="">
    <dc:format>image/svg+xml</dc:format>
    <dc:type rdf:resource="http://purl.org/dc/dcmitype/StillImage"/>
    <dc:title/>
   </cc:Work>
  </rdf:RDF>
 </metadata>
 <g transform="translate(5.4362 1.8763)">
  <path d="m22.04 77.066c-0.73873-0.30222-1.5751-0.20886-2.3348-0.45485-0.96285-0.27696-1.9499-0.58052-2.7974-1.1246-0.48544-0.45353-1.0809-0.82958-1.5487-1.3262-0.49141-0.621-1.148-1.0108-1.5521-1.7035-0.34845-0.60985-0.88924-1.0708-1.1428-1.7611-0.41118-0.73856-0.68082-1.5652-0.95448-2.3726-0.1583-0.72386-0.17736-1.4789-0.43544-2.1848-0.01911-0.57636-0.47906-1.5879 0.1997-1.6201-0.5735-0.28666-0.40657-1.1333-0.66519-1.5421-0.12301-0.37278 0.35164-0.62795 0.0512-0.87236 0.15226-0.14059-0.52576-0.76532 0.01667-0.89593-0.32456-0.39423 0.20742-1.0268-0.19288-1.4626-0.05982-0.45018 0.55809-0.83676-0.01383-1.2156 0.4376-0.41693-0.31192-0.78105 0.23282-1.0954-0.18102-0.62764-0.38113-1.3647-0.29436-2.0756 0.15615-0.76787 0.18526-1.5456 0.24916-2.3286-0.46482-0.12199-0.33059-0.89042 0.07268-0.97597 0.2633-0.48032 0.07077-0.95931-0.17966-1.3212 0.21004-0.59608 0.21812-1.3361 0.10189-1.9925 0.27516-0.2446-0.17757-1.0054 0.41799-0.82919-0.1131-0.32302-0.74281-0.01127-0.21047-0.38239 0.15297-0.35346 0.46884-0.98894-0.15178-1.0179 0.15338-0.64552 0.33767-1.3459 0.37857-2.0392 0.36532-0.40236-6e-3 -0.87545 0.13823-1.3432-0.06023-0.52485 0.31015-0.96344 0.65497-1.0305-0.50507-0.73374 0.07527-1.51 0.1015-2.2652-0.10694-0.57164 0.2647-1.2137 0.183-1.7583 0.20078-0.58018 0.03852-1.1906 0.23936-1.775 0.17318-0.78278 0.45414-1.5176 0.37964-2.3491 0.07542-0.74843 0.37516-1.4692 0.39921-2.2187 0.43324-0.61325 0.35702-1.4288 0.69355-2.0916 0.22288-0.70311 0.44771-1.1608 0.4472-1.8499 0.39491-0.60467 0.36519-1.3829 0.73418-1.9847 0.24236-0.75526 0.54866-1.4959 0.81267-2.2406 0.37497-0.67841 0.75192-1.3617 1.0492-2.0852 0.10759-0.78033 0.80658-1.1815 0.9512-1.8972 0.21223-0.65148 0.85874-1.1413 1.1292-1.8455 0.34815-0.54668 0.49599-1.2344 1.1581-1.4713 0.62587-0.49784 1.1189-1.1696 1.9205-1.3879 0.65978-0.37968 1.3475-0.78684 2.1402-0.75199 0.92937 0.0561 1.9383-0.06454 2.7851 0.38972 0.864-0.0027 1.4172 0.78197 2.3015 0.66005 0.23394 0.36687 0.31596 0.88767 0.913 1.0308 0.24895 0.54947 1.1898 0.62401 1.2953 1.1429 0.4882 0.40692 0.94288 0.9477 1.4266 1.3491 0.40573 0.72426 1.1232 1.2575 1.3716 2.0784-0.26317 0.75554 0.23703 1.4753 0.58442 2.1029 0.33139 0.4385 0.89761 1.0282 0.51589 1.6001-0.14507 0.73816-0.24213 1.7084-1.1335 1.9749-0.7889-0.03613-1.0512 0.82855-1.8428 0.52549-0.71923 0.05176-1.4011-0.20002-2.0888-0.07609-0.47005-0.12256-0.51212-0.77261-0.91777-0.72098-0.26147-0.71952-1.1025-1.2226-0.98363-2.034-0.06151-0.70265-0.36949-1.431-0.69181-2.0956-0.47505-0.46452-0.79586-1.1445-1.2336-1.4937-0.50392-0.45907-1.1108 0.10181-1.4796 0.54874-0.51574 0.49377-0.69753 1.2052-1.1608 1.7313-0.36621 0.69128-0.86972 1.3336-1.1564 2.0774-0.04441 0.56634-0.47376 1.0423-0.44569 1.6588-0.5331 0.57247-0.60872 1.4375-0.90162 2.1521-0.19952 0.78371-0.66177 1.4681-0.91538 2.2215 0.12973 0.9304-0.53154 1.7221-0.55463 2.6419-0.10508 0.74044-0.26796 1.4672-0.47722 2.1924-0.20646 0.72721-0.29372 1.5052-0.39117 2.2777-0.22589 0.71832-0.37606 1.3753-0.46593 2.1074-0.22335 0.85863-0.19519 1.7721-0.47936 2.6106 0.05872 0.88569-0.29221 1.7367-0.28779 2.6239-0.09437 0.76021-0.23864 1.5248-0.24897 2.3078 0.03415 0.77718-0.17237 1.5264-0.19447 2.2967 0.09614 0.73962-0.13315 1.4366-0.12812 2.145 0.05637 1.1545 0.05516 2.3442-0.09751 3.476 0.13055 1.96-0.04399 3.9384 0.2056 5.8896 0.02652 1.057 0.05358 2.1156 0.18849 3.1652-0.20173 0.58481 0.33191 1.2896 0.33853 1.9855 0.29188 0.42916 0.05055 1.0867 0.53122 1.4298 0.30393 0.45416 0.38315 1.0001 0.79331 1.3418-0.01685 0.46412 0.72915 0.95448 1.1554 1.279 0.58494 0.24802 1.0842 0.68087 1.6517 0.97892 0.86042-0.14716 1.7566-0.16239 2.5867-0.4232 0.53928-0.05407 0.72013-0.59567 1.3403-0.39921 0.7426-0.26593 1.36-0.84244 1.9843-1.2673 0.68197-0.4579 1.5053-0.76889 2.0234-1.4167 0.61187-0.45465 1.1013-1.0857 1.7396-1.5032 1.523-1.4671 3.041-2.9493 4.5438-4.4402 0.49437-0.50937 0.98804-0.99444 1.3986-1.5503 0.44266-0.37611 1.0135-1.4539 1.6834-0.93994 0.02073-0.14055-0.66239-0.87032 0.08389-0.94991 0.41355-0.58596 1.0322-1.1177 1.3578-1.6889 0.35756-0.61054 0.99977-1.0095 1.3554-1.632 0.71997-0.49467 1.0378-1.3968 0.95902-2.2566-0.22867-0.90735-0.15767-1.8726-0.17381-2.8052 0.12008-0.63476-0.10704-1.231 0.08308-1.8448-0.08041-0.73011 0.33612-1.2827 0.518-1.9013 0.25703-0.35535-0.22222-1.0564 0.33439-0.68973 0.08568-0.29324-0.49514-0.4923 0.07457-0.73951 0.42011-0.24683-0.66359-0.39359 0.08153-0.37508 0.50467-0.34193-0.73548 0.14641-0.21048-0.4672-0.0718-0.41344 0.84553-0.27704 0.31504-0.58615 0.08933-0.50389 0.90562 0.19188 0.69333-0.56426-0.01514-0.59526 0.76762-0.98303 0.84318-1.3946 0.18271 0.26719 0.53117-0.60236 0.66508-0.85413 0.31865-0.64781 0.94299-1.0493 1.4749-1.4806 0.22612-0.62792 0.96671-1.2122 1.6455-1.3548 0.81656-0.49181 1.6448-1.0819 2.6395-1.0995 1.2386-0.08716 2.5186-0.26651 3.742 0.01356 0.59814 0.13986 1.2936 0.12593 1.8903 0.40158 1.1239 0.26636 2.1463 0.83011 3.1632 1.3612 0.59761 0.50308 1.2667 0.92112 1.8798 1.4005 0.51748 0.49728 1.0725 0.96608 1.486 1.5778 0.40053 0.56326 1.1344 0.90016 1.3587 1.6026 0.41249 0.5386 0.73094 1.1307 1.074 1.7087 0.24666 0.6643 0.70156 1.2778 0.87483 1.9754 0.12439 0.72816 0.28305 1.4521 0.43748 2.1746 0.41866 0.70654 0.17942 1.4514 0.47977 2.1755 0.09565 0.78942 0.03083 1.5241 0.16448 2.2872-0.1576 0.45731 0.06518 0.89752 0.52193 0.44689 0.87596-0.16342 1.6242-0.79488 2.4761-0.94447 0.75858-0.23339 1.5585-0.53959 2.3772-0.5377 0.65614-0.08701 1.2459-0.50523 1.8832-0.09362 0.42606-0.47332 0.77869-1.0904 0.97007-1.7205 0.33188-0.70419 0.55148-1.4544 0.82301-2.179 0.40107-0.09727 0.52931-0.12728 0.23789-0.49454 0.1286-0.69692 0.71708-1.2182 0.85285-1.8958 0.36087-0.59676 0.88901-1.0912 1.2526-1.6706 0.63817-0.66383 1.2502-1.4045 2.0709-1.8471 0.68288-0.1797 1.1034-0.81022 1.8963-0.82864 0.80017-0.29493 1.6221 0.14022 2.3931 0.15416 0.83063-0.1261 1.3457 0.66467 2.0116 1.0025 0.62818 0.31754 1.0316 0.95383 1.3163 1.5878 0.24949 0.60441 0.19122 1.3126 0.66353 1.8209 0.68174 0.57772 0.2599 1.5604 0.84106 2.1764 0.17746 0.55466 0.3636 1.0989 0.74083 1.6328 0.2161 0.65847 0.55434 1.2336 0.83628 1.884 0.19312 0.76758 0.76974 1.3664 0.98241 2.1271 0.31364 0.63548 0.73102 1.1755 0.89889 1.8924 0.63783 0.44277 0.58312 1.2542 1.097 1.7967 0.48338 0.62305 0.56851 1.4768 1.095 2.0514 0.35072 0.57257 0.58607 1.1357 1.0221 1.6357 0.29956 0.38721 0.65789 0.7221 0.99924 1.0713 0.54629-0.03 1.1114-0.0735 1.5622-0.42173 0.60141-0.43204 1.1109-1.0775 1.6428-1.6469 0.51522-0.49439 0.93585-1.1029 1.4793-1.5524 0.39129-0.51308 0.91741-1.024 1.31-1.5767 0.40651-0.48705 1.0003-0.81079 1.1906-1.4591 0.69313 0.16425 0.82169-0.71888 1.1365-1.0893 0.5075 0.0034 0.36728-0.25965 0.16024-0.46971 0.34765 0.04992 0.78035 0.17186 0.74109-0.42184-0.1447-0.74476 0.77561-1.049 0.55047-1.8406-8e-3 -0.61174 0.15785-1.2701 0.39773-1.8426 0.45344-0.603 0.45159-1.5132 0.25899-2.2092-0.22369-0.69176-1.3847-0.20217-2.0005-0.38863-0.76308-0.04828-1.5233-0.03015-2.2788 0.06802-1.0614 0.10367-2.1446-0.09098-3.1931 0.10549-0.60126 0.13758-1.2316 0.05069-1.804 0.28481-0.54332-0.17421-1.0325 0.14848-1.657 0.17715-0.51247 0.3861-1.0037-0.27456-1.5723-0.13606-0.79011-0.18128-1.2963-0.87044-2.035-1.1617-0.16373-0.52161-0.70687-0.84058-0.53487-1.4119-0.12237-0.73722 0.01186-1.5527 0.39562-2.177 0.15492-0.27326 0.77253 0.0224 0.51851-0.55248 0.10404-0.74186 1.0584 0.30442 1.381-0.3672 1.1905-0.04774 2.3954 0.04716 3.5902 0.08446 2.1196 0.13174 4.2444 0.02517 6.3661 0.086 1.0675-0.03062 2.151 0.06641 3.2066-0.12547 0.67329-0.34889 0.36279-1.4276 0.35715-2.0723 0.0467-0.75627 0.2789-1.5423 0.13503-2.291 0.17801-0.71012 0.3052-1.4219 0.28508-2.158 0.10377-0.75161 0.24331-1.4922 0.32505-2.2496 0.12648-0.66561-0.0235-1.5847 0.027-2.0857 0.52909-0.41983 0.30804-1.3133 1.1612-1.3872 0.59931-0.31411 1.1475-0.59889 1.7776-0.7259 0.64758 0.02712 1.1659 0.38058 1.7763 0.54626 0.74574 0.07207 1.4639 0.48854 1.907 1.0877 0.58879 0.28084 0.52776 1.1466 0.87698 1.6717 0.14999 0.53776-0.52592 0.93432-0.13494 1.4729-0.50544 0.55392-0.4031 1.3525-0.67044 2.0195-0.0716 0.70849-0.16648 1.4078-0.26579 2.1124-0.10869 0.81449-0.2477 1.6215-0.2589 2.4476-2e-3 0.50166-0.16873 1.2359 0.099 1.6372 2.8767 0.05529 5.757-0.02927 8.6306-0.17123 1.1301-0.11724 2.2744-0.07269 3.3928-0.28309 0.91423-0.07545 1.8434-0.07524 2.7416-0.24466 1.2602-0.04102 2.5081-0.27873 3.7671-0.36023 0.95363-0.10126 1.8846-0.33544 2.8079-0.57322 0.90037-0.13018 1.7804-0.39052 2.664-0.5865 0.56017-0.31602 1.0275-0.66871 1.7297-0.70091 0.71881 0.05227 1.2252-0.30485 1.6393-0.74121 0.56613-0.05119 1.3239-0.18002 1.7707-0.02708 0.18083-0.57229 0.43201-0.1042 0.59121 0.15304 0.74327 0.14897 1.4664-0.21816 2.1761 0.07464 0.0503 0.71664 1.031 0.17447 1.1776 0.87864 0.54182 0.20192 0.43691 0.9654 0.93915 1.3125-0.1808 0.57948 0.7446 0.72095 0.16603 1.2144-0.21514 0.302 0.55788 0.29457 0.30265 0.76793 0.12313 0.29939 0.29885 0.38596 0.0273 0.60653 0.272 0.30118-0.30763 0.61483 0.0721 0.89684-0.47762 0.28696-0.66775 1.0454-0.85358 1.6249-0.24121 0.67028-0.31545 1.454-0.34695 2.1898-0.16902 0.73543-0.32438 1.4739-0.49425 2.2125 0.0606 0.79905-0.21329 1.5419-0.13181 2.3317-0.14821 0.87548-0.20736 1.8058-0.0178 2.6753-0.0726 0.68845 0.0196 1.451 0.0295 2.1697 0.0192 0.76601 0.0432 1.5438 0.2683 2.2693 0.0407 0.81497 0.35719 1.5408 0.46064 2.3481 0.0371 1.0574 0.61136 1.9886 1.0233 2.9336 0.40763 0.61019 1.0487 1.331 1.8563 1.1196 1.0113-0.51543 2.2117-0.6486 3.095-1.4092 0.8274-0.0696 1.2141-1.0192 2.1022-0.78307 0.52215 0.12536 1.517 0.17434 1.3914 0.89024-0.2619 0.57386 0.2869 1.0952-0.0544 1.6802 0.35736 0.80564-0.38704 1.4362-0.90375 1.8733-0.39526 0.58294-1.0278 0.91689-1.52 1.3743-0.53088 0.68106-1.4695 0.60119-2.1482 1.066-1.049 0.28922-2.1598 0.24775-3.2395 0.29821-0.8729-0.0902-1.7182-0.26883-2.5604-0.4496-0.62237-0.31131-1.3343-0.60176-1.8484-1.0558-0.71305-0.44104-1.2182-1.0376-1.6649-1.6891-0.33022-0.62584-0.62467-1.2245-1.0371-1.7501-0.16463-0.81379-0.58487-1.4616-0.88144-2.2203-0.0316-0.80303-0.43208-1.5164-0.50513-2.3158-0.20596-0.49398-0.20854-1.2587-0.57744-1.5873-0.58485 0.28376-0.83833 0.98293-1.2244 1.4856-0.47442 0.62103-0.96847 1.1996-1.247 1.9364-0.39318 0.58566-0.61776 1.2977-1.0892 1.8156-0.46206 0.60389-0.47146 1.3816-1.0839 1.8374-0.5865 0.48553-0.7075 1.2292-1.2808 1.7523-0.53084 0.44833-0.83089 1.1637-1.5772 1.2844-0.75243 0.29037-1.2565 0.84433-2.0829 0.97656-0.89567 0.13916-1.8233 0.17521-2.7109-0.03418-0.66266 0.04507-1.2505-0.23133-1.8014-0.56827-0.67028-0.39039-1.356-0.82686-1.6742-1.5907-0.28933-0.65512-0.73784-1.2716-0.7716-2.0107 0.23934-0.53963 0.0614-1.0633-0.2275-1.4665 0.26921-0.68539-0.13127-1.3681-0.0476-2.0508 0.1464-0.74967 0.0548-1.5241 0.19851-2.2764-0.0115-0.91808 0.24145-1.7899 0.42147-2.6784 0.16789-0.66538 0.15255-1.6731 0.68141-2.0577 0.50693-0.59272 0.0793-1.2938 0.46657-1.9654 0.25619-0.73898 0.59446-1.4091 0.87196-2.1357 0.079-0.78537 0.87877-1.1238 1.0338-1.8099 0.29398-0.73495 0.78532-1.3703 1.0549-2.1238 0.334-0.52035 0.84817-1.0876 1.0871-1.6533-0.21445-0.42207-1.1932-0.08447-1.6648-0.21553-1.5907 0.0723-3.185 0.05764-4.772 0.20434-0.88891-0.04494-1.7582 0.33329-2.6431 0.15508-0.70916-0.11586-1.513 0.13942-2.2698 0.09088-1.0508 0.06434-2.1007 0.14842-3.154 0.13742-0.51102 0.14074-1.1257 0.06266-0.93523 0.83315-0.0997 0.88075 0.0362 1.7954-0.25245 2.6458 0.0789 0.70034-0.1401 1.4234-0.12817 2.1447-0.0268 0.85304-0.19366 1.7253-0.0627 2.5698-0.14102 0.6682-0.18971 1.4412-0.21198 2.1572-0.0389 0.92855-2.3e-4 1.8673-0.14727 2.7836 0.10439 0.76007-0.32416 1.4852-0.23915 2.2581-0.0687 0.78609 0.11599 1.5755-0.0449 2.3415-0.10648 0.82751-0.28645 1.6672-0.59136 2.4467-0.45113 0.48528-0.96216 1.0647-1.6975 1.0049-0.77327 0.20672-1.5656 0.49437-2.4114 0.30952-0.60978 0.01033-1.2232-0.0043-1.3599-0.69469-0.31855-0.49174-0.44175-1.3421-0.43364-1.9949 0.0416-1.3644-0.0236-2.7296-0.0193-4.0931 0.0135-0.81887-0.0894-1.6307-0.0172-2.4593-0.0889-0.37929 0.22076-1.3707-0.33946-1.3336 0.0884 0.85109-0.54128 1.4633-0.90158 2.1704-0.65973 0.49072-0.5251 1.519-1.1184 2.0163-0.64456 0.4376-0.51748 1.3571-1.0393 1.8979-0.23653 0.7333-0.71151 1.2867-1.413 1.5925-0.50033 0.52931-1.1829 0.89159-1.867 1.0631-0.6343 0.49677-1.433 0.64959-2.2368 0.61137-0.71681-0.0014-1.4671 0.32459-2.1025-0.07239-0.72834 0.25805-1.4551-0.2312-2.1096-0.50187-0.73202-0.19686-1.2807-0.74767-1.8597-1.1892-0.59273-0.59768-1.2441-1.1435-1.7715-1.8019-0.2837-0.66705-0.96679-1.1097-1.2668-1.7547-0.45088-0.79343-0.78614-1.6787-1.3896-2.37-0.42392-0.57372-0.49019-1.3628-0.99291-1.8751-0.31004-0.59614-0.44687-1.3865-0.88107-1.9704-0.49489-0.57743-0.70546-1.306-1.0777-1.9544-0.4132-0.67971-0.58981-1.4173-1.0153-2.0767-0.26584-0.68094-0.44741-1.384-0.90036-1.9677-0.20479-0.47411-0.79804-1.7899-1.2549-0.8218-0.54699 0.58238-0.7121 1.3677-0.77736 2.1405-0.28207 0.67851-0.27764 1.4279-0.56032 2.0796 0.16943 0.85806-0.5244 1.5219-0.57682 2.3246-0.02183 0.62693-0.43883 1.1626-0.62752 1.7816-0.02733 0.74752-0.53386 1.3389-0.66423 2.0696-0.23717 0.78882-0.20735 1.6959-0.65079 2.4522-0.21627 0.62516-0.49993 1.2081-0.6669 1.8704-0.02689 0.77734-0.7818 1.354-0.70811 2.1763-0.13221 0.76638-0.37674 1.4948-0.52721 2.2367-0.55088 0.59878-1.3111 0.83014-1.8813 1.3382-0.78195-0.19612-1.4951 0.5516-2.1776 0.02029-0.72549-0.158-1.5686-0.0082-2.1234-0.53898-0.52893-0.34347-0.66984-1.0099-0.89458-1.5672-0.31472-0.73195-0.42504-1.4926-0.35917-2.2236 0.2019-0.52883 0.43948-1.1164 0.43586-1.7543 0.19419-0.69344 0.65775-1.3002 0.66896-2.0349 0.11518-0.86001 0.2164-1.7711 0.67399-2.5246-0.20646-0.26276 0.2235-0.93474-0.39868-0.66468-0.81452 0.19978-1.5391 0.62292-2.3677 0.76194-0.62742 0.28395-1.2713 0.5435-1.9376 0.70767-0.43339 0.72946-0.68182 1.49-1.0676 2.2413-0.24028 0.72272-0.54612 1.346-0.93516 2.0148-0.19688 0.70223-0.57437 1.2644-0.94036 1.8989-0.50962 0.43918-0.45395 1.0546-0.80949 1.6136-0.367 0.61451-0.78366 1.1978-1.2914 1.6502 0.01729 0.60806-0.76598 0.93894-0.82739 1.5798-0.38937 0.67108-0.84286 1.3347-1.4199 1.8483-0.47861 0.53151-1.0061 1.0205-1.5331 1.5128-0.57688 0.45716-1.2819 0.7235-1.9363 1.086-0.68744 0.18154-1.3088 0.50036-2.0128 0.62531-0.78649 0.10973-1.6108 0.21231-2.3814-0.03596-0.8312 0.18572-1.7383-0.10748-2.4946-0.46974-0.71349-0.19975-1.2644-0.67739-1.8468-1.0566-0.62576-0.50206-1.1157-1.1616-1.621-1.7811-0.42523-0.55891-0.76584-1.238-1.2412-1.8312-0.24165-0.71073-0.71329-1.3367-0.90209-2.0742-0.22235-0.68883-0.54206-1.3671-0.69404-2.0881-0.09052-0.86307-0.42312-1.6807-0.52431-2.5364 0.1295-0.72765-0.38474-0.60801-0.73149-0.17602-0.65033 0.44532-1.2155 1.0454-1.6089 1.6929-0.59051 0.35118-0.8142 1.0002-1.2674 1.4912-0.36593 0.44038-1.0136 0.42378-0.97051 1.0192-0.64537 0.25538-0.94669 1.0267-1.519 1.4356-0.50479 0.52754-1.2231 0.82016-1.5812 1.4322-0.68435 0.46189-1.4077 0.89323-1.9398 1.5424-0.55848 0.41467-1.2407 0.60254-1.7361 1.1156-0.55135 0.42802-1.0986 0.80101-1.7578 1.0726-0.55982 0.45806-1.2758 0.53645-1.9054 0.82704-0.82054 0.34501-1.6883 0.56694-2.5602 0.72543-1.1009 0.3045-2.2579 0.22577-3.3869 0.28375l-0.09684-0.01371zm31.16-6.3463c0.6732-0.20228 1.1092-0.77276 1.7578-1.1548 0.65604-0.30436 0.67505-1.1932 1.2349-1.6278 0.27433-0.66411 0.74691-1.2495 1.1759-1.8076 0.39754-0.67382 0.74055-1.3841 1.1439-2.0195 0.26604-0.43671 0.96141-1.6829-0.11798-1.2931-0.81502 0.014-1.6262 0.08692-2.4362 0.15694-0.74211-0.02865-1.4408-0.0072-2.1828-0.08302-0.81426-0.07535-1.6762 0.01367-2.4287-0.35115-0.51985-0.16874-1.0602-0.25903-1.6049-0.29024 0.05723 0.61957-0.15083 1.2222 0.04857 1.8648 0.09182 0.75625 0.15775 1.4765 0.38211 2.193 0.42038 0.75493 0.29849 1.7067 0.87982 2.3496 0.26432 0.61905 0.41614 1.2684 1.1118 1.5296 0.38868 0.14175 0.57113 0.83528 1.0358 0.53337zm106.2-3.92c-0.31421-0.28861-0.15258 0.29083 0 0zm-2.36-1.1647c-0.42651-0.51521-0.13955 0.56694 0 0zm2.28-0.59528c-4e-3 -0.32193-0.28848 0.29979 0 0zm-147.64-1.36c-0.36964-0.32356-0.43017 0.31315 0 0zm122.49-0.84c0.48948-0.64152 1.087-1.1685 1.4112-1.9268 0.54424-0.48726 0.59035-1.2702 1.1456-1.7371 0.45876-0.52206 0.91917-1.0657 1.1779-1.7932 0.44304-0.53257 0.52202-1.1017 1.2352-1.309 0.097-0.5233 0.32691-1.2737 0.97259-1.2285 0.23102-0.63426 0.15215-1.2107 0.6378-1.6076 0.0878-0.3741 0.1221-0.76136 0.2886-1.1121 0.59526 0.18952 0.25623-0.33094 0.17052-0.40512 0.61799 0.21038 0.51866-0.30897 0.47406-0.4318 0.42042-0.46806 0.24484-1.4034 0.77272-1.878 0.28782-0.62022 0.32758-1.3466 0.63429-1.9713 5e-3 -0.3352 0.59259-1.0289-0.14332-0.6536-0.71871 0.05272-1.312 0.60309-1.8522 1.1261-0.53783 0.42194-0.93702 0.96708-1.4089 1.4874-0.40734 0.49315-0.93756 0.94272-1.2212 1.4684-0.53625 0.57137-0.89065 1.2861-1.3444 1.9321-0.54406 0.52716-0.7229 1.2717-1.0366 1.8943-0.46335 0.96189-0.96052 1.9153-1.3274 2.9172-0.51474 0.36431-0.33171 1.1301-0.48855 1.6973-0.20084 0.71392-0.42439 1.3845-0.53789 2.1343 0.0193 0.61678-0.49446 1.4918-0.0385 1.9169 0.18997-0.1387 0.32642-0.34344 0.47823-0.52zm-122.65 0.12c-0.47882-0.33453-0.46508 0.28866 0 0zm97.741-4.7662c-0.0388-0.87898-0.62648 0.31252-0.0537 0.38809 0.0755-0.11667 0.0543-0.25856 0.0537-0.38809zm-52.501 0.19771c0.84675-0.097 1.703-0.17691 2.5077-0.46871 0.68045-0.07277 1.3956-0.27228 1.9547-0.69944 0.36623-0.63781 0.58899-1.3618 0.7154-2.0595 0.10485-1.2867 0.05402-2.5908 0.19092-3.8687-0.11622-0.47187-0.32068-0.58577-0.21292-1.0667-0.33422-0.63677-0.26657-1.3931-0.57846-2.0604-0.35193-0.62957-0.3579-1.4132-0.92608-1.9065-0.39428-0.67445-0.8569-1.289-1.3894-1.866-0.48823-0.59126-1.075-1.1262-1.7444-1.5106-0.5978-0.40081-1.1878-0.80946-1.9575-0.72521-0.74125-0.02302-1.4896 0.09979-2.0813 0.57339-0.68296 0.47613-1.441 1.0713-1.7469 1.8715-0.32744 0.42599 0.37566-0.17466 0.48333 0.276 0.48891 0.2368 0.62458 0.83345 1.2625 0.94372 0.38383 0.59699 0.89477 1.236 0.78998 2.0389-0.21071 0.75671-0.80968 1.2741-1.0413 2.0489-0.34617 0.42607-0.197 0.76686-0.71394 1.026-0.06662 0.74402-0.64364 1.271-0.79697 1.9514-0.59633 0.45407-0.63015 1.2614-0.86237 1.93-0.11065 0.74919-0.18493 1.481 0.40905 2.0795 0.51526 0.54709 1.2056 0.87598 1.8184 1.2952 0.80349 0.26221 1.6724 0.18214 2.4936 0.35509 0.47674-0.03468 0.95025-0.11146 1.426-0.15784zm49.96-1.8715c-0.36434-0.44761-0.1915 0.40935 0 0zm1.7673-1.42c0.17746-0.55635-0.91373 0.38437-0.15633 0.22676l0.0925-0.08029 0.0639-0.14647zm32.313-0.94472c-0.35419-0.33294-0.13702 0.42378 0 0zm0.34906-0.84314c0.39702-0.34253-0.0694-0.57593-0.24392-0.08246 0.12347 0.1201-0.0154 0.72628 0.22994 0.1785l0.0142-0.09604zm-31.629-1.1521c-0.0914-0.25549-0.18143 0.27878 0 0zm-48.48-5.68c-0.09135-0.25549-0.18148 0.27879 0 0zm-0.08-0.56c-0.2154-0.3224-0.18853 0.31147 0 0zm109.88 26.461c-0.81319-0.07651-1.638-0.06811-2.393-0.41951-0.68851-0.07923-1.2198-0.56604-1.8777-0.72387-0.68689-0.45106-1.2451-1.0475-1.8874-1.5541-0.49171-0.49482-0.98627-1.1328-1.1131-1.8246-0.35276-0.71639-0.52767-1.4935-0.76572-2.2422-0.32874-0.64918-0.29583-1.2828-0.33853-1.9174-0.36983-0.69721-0.27358-1.5423-0.45408-2.3001 0.18207-0.64957-0.12364-1.1764-0.03-1.8239-0.0793-0.50944 0.12412-1.189 0.40609-1.3971-0.61652-0.6437 0.0215-1.6488-0.0582-2.4293 0.21931-0.57135 0.31251-1.1919 0.43214-1.8837-0.0171-0.75595 0.54738-1.2535 0.4626-1.9285 0.28198-0.71302 0.44984-1.4693 0.80188-2.163 0.15161-0.53621 0.66706-1.115 0.69265-1.5786-0.0122-0.45016 0.41737-0.84485 0.50902-1.4588 0.3862-0.43939 0.22301-1.1563 0.75696-1.4271-0.0544-0.77498 0.46451-1.3923 0.71052-2.0698 0.15362-0.66202 0.58308-1.2003 0.90628-1.7725 0.18718-0.65133 0.47944-1.3192 0.96015-1.7601 0.43485-0.59243 0.90857-1.2703 1.6777-1.4265 0.67086-0.35958 1.3672-0.66918 2.1331-0.62412 0.60729-0.17894 1.2798 0.0465 1.8795 0.29448 0.64457 0.19725 1.3157 0.46438 1.7497 0.9687 0.47105 0.48443 0.975 0.83032 1.3486 1.3948 0.56137 0.36292 0.71437 1.0928 0.91174 1.6996 0.18693 0.33195-0.22893 0.45508-0.40508 0.6631-0.20673 0.43697-0.16444 1.19-0.97222 1.0072-0.57715 0.16889-1.5247 0.12872-1.8358 0.52355-0.80178-0.29332-1.2791 0.45691-1.463 1.1228-0.62196 0.41913-0.66306 1.3454-1.1524 1.9361-0.38339 0.67112-0.57805 1.5041-0.96853 2.1294-0.28436 0.7065-0.67286 1.3773-0.87678 2.123-0.39924 0.71146-0.47563 1.5243-0.77605 2.2737-0.26491 0.78941-0.32136 1.6249-0.56182 2.42-0.0794 0.67037-0.37309 1.2867-0.34636 1.9989 0.0672 0.7997-0.30676 1.6101-0.0856 2.3705-0.17745 1.0987 0.0695 2.2207 0.0998 3.3242 0.24878 0.70538 0.4005 1.4192 0.65645 2.12 0.30537 0.60999 1.0302 1.4041 1.6762 0.79746 0.5698-0.31828 1.3462-0.44296 1.6806-1.0309 0.77073-0.29057 1.3328-1.0057 1.9394-1.5528 0.5142-0.70667 1.205-1.2741 1.6553-2.0255 0.63339-0.43839 0.83038-1.2348 1.4049-1.7113 0.50506-0.64995 0.93115-1.357 1.491-1.9664 0.21608-0.24656 0.42981-0.15418 0.40295-0.62864 0.63255-0.31518 0.70836-1.0498 1.1355-1.5714 0.52857-0.516 0.85446-1.186 1.2123-1.8028 0.34942-0.6324 0.69731-1.2792 1.0668-1.9054 0.46745-0.61702 0.87957-1.2084 1.1619-1.9297 0.34482-0.68974 0.86329-1.2645 1.1691-1.9755 0.35641-0.62238 0.59294-1.2944 0.9638-1.909 0.36814-0.44754 0.36438-0.92821 0.72721-1.4014 0.36752-0.68145 0.78942-1.2933 0.96692-2.0465 0.11751-0.48799 1.0606-1.3668 0.0167-1.4945-0.79625-0.01627-1.5776-0.13539-2.356-0.30409-0.69114-0.07858-1.3576-0.3535-1.9805-0.30769-0.63972-0.14347-1.3857-0.36395-2.0268-0.5203-0.29479 0.12366-0.6633-0.28955-1.0612-0.20646-0.0759-0.5098-0.86824-0.1512-0.97923-0.374-0.0882-0.70377-1.1755-0.36663-1.304-0.97701-0.23643-0.52479-1.1372-0.73811-1.1183-1.4822-0.28346-0.36907-0.58735-0.54712-0.27639-1.0269 0.0909-0.73464 0.0427-1.6084 0.66728-2.1067 0.64013-0.42144 1.3996-0.77682 2.1983-0.65976 0.51968 0.5885 1.0458-0.40073 1.5212 0.0787 0.72035 0.10105 1.164 0.60312 1.6767 0.97819 0.6068 0.33096 1.2913 0.40194 1.8568 0.87388 1.099 0.50376 2.3427 0.65588 3.5424 0.64953 0.81525 0.10351 0.68794-0.70847 0.79548-1.2868 0.12304-1.1865 0.12489-2.3945 0.31303-3.5698-0.0587-0.78061 0.23297-1.5342 0.3114-2.3072 0.13575-0.8783 0.29739-1.7523 0.32168-2.6439 0.20778-0.7066 0.0775-1.4852 0.47029-2.1127 0.0172-0.80622 0.093-1.6066 0.34555-2.3643 0.4632-0.50091 0.43307-1.3822 1.2533-1.5355 0.62942-0.39335 1.4323-0.70833 2.1797-0.59221 0.70868 0.38734 1.5015 0.62052 2.2057 0.98423 0.48719 0.4389 1.0465 0.7017 1.3871 1.3333 0.23397 0.50508 0.0596 1.0329 0.41328 1.4656-0.0949 0.68691 0.0405 1.4465 0.0889 2.1548 0.0429 0.94989 0.0559 1.9047 0.0466 2.8544-0.28543 0.64062-0.0668 1.3624-0.35829 1.9988-0.0777 0.80288-0.17783 1.5894-0.30661 2.3795-0.26742 0.69803-0.21772 1.4627-0.48835 2.1565-0.33295 0.90045 0.9896 0.64611 1.4706 0.50726 0.82277-0.22635 1.6806-0.27298 2.5182-0.41559 0.86005-0.01674 1.6872-0.19288 2.5326-0.31455 0.65948-0.05202 1.3254-0.23305 1.9508-0.23205 0.72468-0.20066 1.5188-0.11839 2.2164-0.43655 0.45586-0.27116 0.96926 0.68043 0.95775-0.06218 0.56445-0.37922 1.3855-0.21494 2.0268-0.49269 0.61584 0.0709 1.4807-0.54028 1.8594 0.09683 0.50328 0.1227 0.47817-0.09564 0.29388-0.40086 0.32906-0.55962 0.68425 0.70514 0.61652-0.1154 0.30809-0.16325 1.0144 0.96559 1.1252 0.17362 0.58537-0.6562 1.5486-0.37792 2.1882-0.72052 0.0584 0.54211 0.85995 0.48115 1.1627 0.05443 0.32722-0.35902 0.76664 0.14465 1.1992-0.11735 0.21049-4.15e-4 0.0746-0.45859 0.51356-0.15477 0.37131-0.42835 0.96079 0.48804 1.1767-0.31075 0.53179-0.1875 0.99862 0.58405 1.6253 0.12943 7.3e-4 0.64212-0.89525 0.06099-1.1004 0.6442-0.49756-0.48108-0.84807 0.23438-0.25516 0.34984 0.30132-0.03009 0.5278-0.142 0.70965 0.0638 0.17698-0.33786 0.27767 0.11498 0.60012 0.13329 0.0734 0.27837-0.39242 0.80047 0.2933 0.58551 0.93751 0.13029-0.18506 0.72262-0.53568 0.87309-0.71048-0.01333-0.92871 0.60844-1.5292 0.83296-0.26242-0.51058-1.4626 0.1274-0.48808 0.09565-0.32249 0.48767-1.0051 0.7161-1.5685 0.87867-0.73667 0.21637-1.2701 0.38138-2.0168 0.44554-0.69872 0.1641-1.3912 0.43595-2.0929 0.58582-0.78356 0.1403-1.5769 0.19016-2.3058 0.51414-0.77605 0.02779-1.5064 0.32457-2.3012 0.35148-0.735 0.19678-1.4987 0.35916-2.203 0.63169-0.75243 0.04076-1.4895 0.20365-2.2387 0.42656-1.135 0.23094-2.2909 0.32635-3.4356 0.47775-0.71134 0.32422-1.4878 0.17453-2.2067 0.4313-0.41489 0.2927-0.60032-0.36197-1.1028 0.04712-0.67209 0.28993-1.4522 0.21219-2.1611 0.40023-0.70572 0.05878-1.4452 0.32557-1.2042 1.1905-0.0207 0.78173-0.18025 1.5425-0.23203 2.3193-0.0699 1.9011 0.0466 3.8101-0.18846 5.7025 0.027 0.82423-0.0572 1.5935-0.0997 2.4048 5e-3 2.4632-0.0385 4.9282 0.0266 7.3904 0.19658 1.22-0.0303 2.4875 0.30893 3.6833 0.0236 0.73749 0.2927 1.4426 0.50662 2.1227 0.0744 0.49714 0.0853 0.85481-0.19627 1.3181-0.1648 0.67441-0.73311 1.1365-1.4758 1.1032-0.74576-0.08888-1.2316 0.70324-1.9436 0.40736-0.69511-0.24258-1.6575-0.22525-2.002-0.97613-0.50419-0.37016-0.98772-1.0212-0.73859-1.6361-0.24635-0.65064-0.72582-1.2131-0.64606-1.9972-0.06-0.77512-0.21102-1.5005-0.3778-2.2394-0.0276-1.5375-0.21912-3.0675-0.15599-4.6062-0.0271-0.47784 0.19802-1.922-0.57026-1.082-0.56689 0.61715-0.64985 1.4726-1.1887 2.1101-0.64393 0.61019-0.89311 1.4299-1.3796 2.1373-0.37927 0.72232-0.97398 1.2639-1.3709 1.9706-0.34801 0.70039-1.02 1.1948-1.3713 1.8896-0.43829 0.67493-0.98683 1.1997-1.4722 1.8447-0.39832 0.49426-0.83131 0.88792-1.1774 1.3537-0.32678 0.68113-1.1319 0.87837-1.5463 1.4278-0.45022 0.56508-1.1369 0.83604-1.6193 1.3819-0.44928 0.49715-1.1181 0.65313-1.6567 0.95171-0.65793 0.38712-1.4747 0.30302-2.1634 0.634-0.73342 0.06984-1.414 0.41403-2.1641 0.23112l-0.14012-0.01539zm47.72-36.252c-0.53117-0.28616-0.49121 0.17499 0 0zm-1.3742-1.3548c0.24142-0.83337-1.1496-0.17635-0.61207 0.05461 0.18669 0.1301 0.60198 0.35232 0.61207-0.05461zm0.79256 0.13719c-0.32037-0.07414-0.15926 0.1466 0 0zm4.9817-0.27167c-0.29458-0.32195-0.30691 0.31295 0 0zm-2.96-0.1496c0.44156-0.29162 1.5431-0.13857 1.5558-0.76696-0.45715-0.24515-1.4075-0.28702-1.2386 0.45391-0.21679-0.02944-1.1046 0.18586-0.31721 0.31305zm-2.1-0.3904c-0.3105-0.44902-0.46153 0.48185 0 0zm-5.02-0.1c-0.2154-0.3224-0.18853 0.31147 0 0zm9.12-0.08c-0.0914-0.25549-0.18143 0.27878 0 0zm-1.028-0.6c-0.23449-0.40473-0.20903 0.39484 0 0zm-176.77 10.2c0.0035-0.32191 0.2885 0.29977 0 0z" stroke-width=".08"/>
 </g>
</svg>
