<?xml version="1.0" encoding="UTF-8"?>
<svg width="21.2451mm" height="24.8557mm" version="1.1" viewBox="0 0 21.2451 24.8557" xmlns="http://www.w3.org/2000/svg" xmlns:cc="http://creativecommons.org/ns#" xmlns:dc="http://purl.org/dc/elements/1.1/" xmlns:rdf="http://www.w3.org/1999/02/22-rdf-syntax-ns#">
 <metadata>
  <rdf:RDF>
   <cc:Work rdf:about="">
    <dc:format>image/svg+xml</dc:format>
    <dc:type rdf:resource="http://purl.org/dc/dcmitype/StillImage"/>
    <dc:title/>
   </cc:Work>
  </rdf:RDF>
 </metadata>
 <g transform="translate(-152.117 -211.818)">
  <path d="m171.062 236.659c-0.10078-0.0717-0.22931-0.11097-0.35377-0.11153-0.11865 6e-3 -0.19033-0.0908-0.29331-0.12801-0.0587-0.0799-0.12552-0.15755-0.20624-0.20776 0.0673-0.0932-0.22764-0.077-0.11988-0.20802 0.0352-0.0828 0.0821-0.14208 0.13709-0.21767 0.0505-0.0907 0.12623-0.14005 0.21359-0.18849 0.0776-0.0851 0.17683-0.2148 0.0828-0.32541-0.0608-0.0901-0.1801-0.0973-0.24635-0.18452-0.0783-0.0744-0.16344-0.13228-0.25697-0.18648-0.0922-0.0477-0.13801-0.12211-0.23554-0.15912-0.19633-0.12042-0.39741-0.23398-0.58679-0.3652-0.0917-0.0598-0.19843-0.10804-0.2975-0.16152-0.16571-0.0743-0.31881-0.1773-0.45735-0.29416-0.0821-0.087-0.22431-0.0807-0.30357-0.1817-0.0871-0.11463-0.23804-0.15031-0.32748-0.25844-0.0934-0.0436-0.15561-0.13727-0.26168-0.17159-0.18566-0.0837-0.3064-0.25792-0.48079-0.35718-0.0761-0.0529-0.14437-0.11371-0.22009-0.18671-0.12024-0.10322-0.24841-0.19983-0.35207-0.3204-0.0578-0.10612-0.14936-0.19213-0.24054-0.2702-0.11219-0.0336-0.21397-0.092-0.29342-0.18337-0.0857-0.0788-0.19982-0.12718-0.26025-0.23142-0.0939-0.0545-0.14442-0.13786-0.23459-0.19224-0.11801-0.0776-0.1657-0.22105-0.27291-0.30635-0.12503-0.0233-0.16714-0.15711-0.23677-0.24606-0.0676-0.0887-0.12486-0.19521-0.22656-0.24763-0.0988-0.0647-0.11879-0.20757-0.23823-0.24093-0.0595-0.086-0.14648-0.14242-0.21765-0.2249-0.0753-0.09-0.16275-0.178-0.20705-0.28722-0.0828-0.0426-0.13471-0.15595-0.15983-0.2331-0.12481-0.0267-0.16097-0.16299-0.24892-0.24239 0.0303-0.10961-0.12071-0.099-0.17539-0.17431-0.0684-0.0787-0.14939-0.14526-0.21582-0.22516-0.0189-0.12049-0.13715-0.15357-0.19333-0.24832-0.10344-0.144-0.2462-0.25865-0.33222-0.41457-0.0867-0.10821-0.19493-0.19896-0.26642-0.31859-0.0762-0.0913-0.17284-0.16871-0.22259-0.27845-0.15038-0.14249-0.22001-0.34761-0.36108-0.49709-0.0983-0.0986-0.15347-0.2328-0.25235-0.33126-0.0757-0.14293-0.1867-0.26315-0.27458-0.39843-0.0668-0.10773-0.21589-0.0663-0.2882 0.0113-0.0574 0.0761-0.10557 0.16751-0.21057 0.18767-0.0661-1e-3 -0.0873 7e-3 -0.0482 0.0675 3e-3 0.12349-0.14173 0.15353-0.20093 0.24135-0.0373 0.10179-0.14794 0.1305-0.21089 0.21328-0.12752 0.16902-0.25839 0.3447-0.44272 0.45579-0.1408 0.16726-0.29889 0.32155-0.46298 0.46677-0.13864 0.0956-0.25113 0.22639-0.36339 0.35135-0.0592 0.10551-0.19834 0.1414-0.23604 0.26391-0.065 0.0776-0.1496 0.14546-0.19211 0.2339-0.0807 0.0714-0.16275 0.14664-0.23781 0.22602-0.0761 0.10376-0.1774 0.1886-0.28006 0.26558-0.0638 0.0554-0.12124 0.12402-0.2035 0.1735-0.10651 0.0709-0.14788 0.19316-0.23246 0.28128-0.0542 0.0939-0.16855 0.10544-0.20501 0.21343-0.0974 0.064-0.15634 0.18149-0.25416 0.25333-0.17722 0.15539-0.31903 0.35032-0.51416 0.48475-0.11511 0.0393-0.11403 0.17993-0.20101 0.25447-0.0678 0.0914-0.18516 0.13159-0.23449 0.23521-0.10722 0.056-0.12586 0.19732-0.22943 0.2518-0.099 0.0508-0.13421 0.17375-0.22156 0.24247-0.0945 0.10289-0.19842 0.1999-0.28171 0.31117-0.12229 0.0515-0.23408 0.13806-0.27933 0.26718-0.0813 0.0696-0.15061 0.14195-0.21133 0.22643-0.0641 0.0757-0.11325 0.16723-0.18641 0.24218-0.13942 0.15312-0.30163 0.29165-0.39625 0.47908-0.0841 0.0747-0.1036 0.19172-0.18059 0.27005-0.0899 0.10818-0.17048 0.22777-0.22302 0.35822-0.0817 0.0886-0.14185 0.19011-0.1843 0.30186-0.0804 0.0934-0.0836 0.22563-0.15491 0.32436-0.0315 0.1998-0.0858 0.3962-0.13645 0.59201-0.07 0.061-0.16018 0.11773-0.19314 0.205-0.0853-0.0546-0.18052-0.11384-0.28659-0.12948-0.11945 0.0779-0.21426-0.0495-0.33046-0.0665-0.17744-0.0609-0.33536-0.17401-0.46934-0.30362-0.0802-0.0808-0.0798-0.20464-0.14474-0.29327-0.10797-0.036-0.15819-0.14057-0.0611-0.22155 1e-3 -0.12191 0.0467-0.23122 0.0408-0.35309 0.0166-0.13173 0.0701-0.25898 0.14228-0.36959 0.0698-0.0988 0.086-0.23591 0.17504-0.32962 0.0512-0.10405 0.10257-0.20927 0.17583-0.2979 0.0869-0.0651 0.0943-0.18707 0.19253-0.23851 0.0804-0.0747 0.11685-0.16881 0.20972-0.22205 0.0428-0.0878-0.0152-0.23026 0.12193-0.25075 0.10697-0.0586 0.0563-0.20017 0.1408-0.27181 0.0874-0.0677 0.13327-0.16441 0.17357-0.25791 0.0754-0.0933 0.1922-0.14575 0.25001-0.25373 0.0664-0.0491 0.15102-0.08 0.16521-0.15069 0.0912-0.0567 0.10017-0.20075 0.21861-0.2301 0.0796-0.0551 0.14379-0.12837 0.23096-0.18174 0.0687-0.10972 0.12189-0.23075 0.20127-0.33329 0.0849-0.0884 0.19776-0.14125 0.28608-0.22821 0.0636-0.0163 0.12088-0.0922 0.15133-0.11146 0.0459 0.0512 0.0957 0.0177 0.0236-0.0271-0.0518-0.14568 0.13581-0.15232 0.18476-0.24284 0.0683-0.0727 0.13152-0.12623 0.1776-0.2223 2e-3 -0.10739 0.19152-0.0708 0.12082-0.17421 0.0728 5e-3 0.11989-0.0204 0.13018-0.0904 0.049-0.0856 0.16262-0.11702 0.18563-0.2101 0.0602-0.0964 0.21655-0.0864 0.25711-0.20943 0.0345-0.10733 0.15161-0.14432 0.23103-0.19652 0.0902-0.0567 0.14493-0.16313 0.19411-0.25245 0.0431-0.11946 0.16337-0.19626 0.23808-0.27298 0.0359-0.0688 0.15553-0.0628 0.17746-0.16161 0.0493-0.10602 0.10256-0.23144 0.23947-0.21729 0.0517-0.0395 0.026-0.11571 0.11744-0.10907 0.0513-0.0725 0.1083-0.15858 0.19676-0.19397-0.065-0.11505 0.0842-0.16884 0.16745-0.21746 0.0755-0.0316 0.16831-0.0648 0.15294-0.15746 0.0852 8.8e-4 0.0377-0.13269 0.14567-0.11677 0.083-0.0569 0.15694-0.14758 0.1833-0.2447 0.0594-0.10351 0.23396-0.11452 0.27902-0.23694 0.0249-0.11926 0.1769-0.13639 0.22612-0.23215-1e-3 -0.0436-0.0295-0.0833 0.0499-0.10119 0.13122 0.0138 0.1472-0.14105 0.23192-0.19563 0.0211-0.11076 0.15047-0.13061 0.19917-0.22321 0.0781-0.0695 0.15884-0.13137 0.25301-0.0348 0.12933 0.0673 0.0973-0.12146 0.18595-0.16177 0.0548-0.0695-0.03-0.0866-0.053-0.11027 6e-5 -0.11468 0.13505-0.15932 0.19718-0.24042 0.0754-0.0514 0.18506-0.11114 0.17207-0.19369 0.0312 0.0687 0.0258 5e-3 0.0423-6.2e-4 0.0558 0.0855 0.0274-0.0723-0.0223-0.0764 0.0312-0.13331 0.18585-0.16603 0.24958-0.28182 0.10257-0.0893 0.0654-0.22905-0.0255-0.31065-0.0828-0.0896-0.0932-0.21482-0.16349-0.30989-0.0562-0.0915-0.0945-0.19308-0.15965-0.28029-0.0914-0.14951-0.15033-0.31844-0.25269-0.46082-0.0417-0.0827-0.11627-0.15986-0.15506-0.25092-0.0375-0.10265-0.10467-0.18958-0.15661-0.28307-0.0222-0.13984-0.11968-0.25139-0.17423-0.37932-0.0458-0.10528-0.14695-0.17679-0.16248-0.29392-0.0557-0.0828-0.0873-0.18745-0.15223-0.25659-0.0416-0.13335-0.11739-0.25434-0.14917-0.39139-0.11478-0.16722-0.19864-0.35521-0.28129-0.54071-0.0386-0.10357-0.0713-0.19557-0.13033-0.28696-0.0508-0.12271-0.10872-0.24326-0.14499-0.37103-0.0836-0.11047-0.0902-0.25675-0.16378-0.37339-0.0295-0.10743-0.0924-0.19807-0.12751-0.30096-0.0531-0.14273-0.12662-0.27777-0.18755-0.41758-0.0703-0.0912-0.0477-0.21105-0.10193-0.30629-0.0773-0.20004-0.13465-0.40791-0.22698-0.60191-0.0491-0.14757-0.0329-0.31198-0.11204-0.45064-0.0745-0.16055-0.0687-0.34358-0.13883-0.50548-0.0105-0.10782-0.036-0.2103-0.077-0.31113-0.0301-0.12748-0.0927-0.24582-0.10222-0.37786-0.0312-0.10481-0.0628-0.20985-0.0682-0.32016 1e-3 -0.12416-0.0402-0.23819-0.0683-0.35393 0.0203-0.12816-0.0453-0.2372-0.0674-0.35863-0.0484-0.22254-0.0397-0.45312-0.0886-0.67519-0.0305-0.0992-0.017-0.20958-0.0441-0.31348-0.0258-0.24404-0.0504-0.49031-0.11479-0.72767-0.0461-0.13723-0.029-0.28698-0.0337-0.4299-0.0159-0.11094 0.0608-0.21326 0.12787-0.2826 0.10691-0.0386 0.13728-0.17143 0.27145-0.15447 0.11008-0.0169 0.27512-0.064 0.3403 0.0559 0.0955 0.0553 0.18264 0.12661 0.27915 0.17943 0.14 0.0209 0.2196 0.16221 0.35422 0.20239 0.12924 0.0306 0.1388 0.1441 0.16518 0.25313 0.0274 0.11251 0.12015 0.19146 0.157 0.30135 0.0809 0.17184 0.0562 0.3681 0.0731 0.55212 0.0113 0.26161 0.0121 0.52449 0.0572 0.78326 0.0208 0.15626 0.0205 0.31632 0.067 0.46789 0.041 0.23576 0.0435 0.47602 0.0765 0.71255 0.0433 0.10458 0.0275 0.22154 0.074 0.32572 0.0189 0.11321 0.0599 0.22099 0.0683 0.33866 0.0335 0.18142 0.0927 0.35721 0.11827 0.54039 0.0192 0.13644 0.10453 0.25202 0.11925 0.38926 0.0124 0.12201 0.0932 0.22157 0.10582 0.3438 0.0651 0.24626 0.16399 0.48181 0.24175 0.72401 0.0464 0.11705 0.10836 0.22831 0.13791 0.3514 0.065 0.0998 0.10512 0.22846 0.14576 0.34495 0.066 0.083 0.029 0.19619 0.11765 0.2672 0.0398 0.10875 0.099 0.21128 0.1284 0.32393 0.0799 0.1711 0.16578 0.34343 0.20878 0.52746 0.0996 0.13566 0.15053 0.30103 0.22258 0.45219 0.0244 0.12168 0.0882 0.21844 0.16445 0.31056 0.0181 0.0964 0.0335 0.20063 0.12584 0.25764 0.0674 0.11669 0.12467 0.23983 0.19311 0.35644 0.0599 0.11011 0.0993 0.22981 0.13943 0.34735 0.0891 0.0721 0.1321 0.17476 0.19539 0.26962 0.0437 0.11037 0.0874 0.22297 0.14716 0.32747 0.0529 0.0984 0.10795 0.24528 0.23274 0.2338-0.0528 0.10781 0.0645 0.12536 0.12032 0.0488-0.041-0.0927 0.0761-0.15158 0.10925-0.23104 0.0106-0.0649 0.1267-0.18514 0.17331-0.0952 0.0107 0.085 0.0897-0.1054 0.12482-0.12251 0.0801-0.0386 0.13464-0.10804 0.19849-0.16949 0.0381-0.057-0.0585-0.11296 0.0338-0.14726 0.03-0.10619 0.2-0.10593 0.16026-0.24322 0.10353-0.0388 0.21036-0.0864 0.28904-0.17653 0.0586-0.0234 0.1394-0.0861 0.0372-0.12124-3e-3 -0.0871 0.23958-0.0441 0.17126-0.13186-0.061 3e-3 -0.10825-0.0716-0.0182-0.063 0.0615-5e-3 0.14802-0.027 0.0699-0.0628 0.10145-0.0345 0.0808-0.20221 0.20667-0.18919 0.0758-3e-3 -0.0298-0.0444 0.0385-0.0563 3e-3 -0.13376 0.17769-0.0424 0.25239-0.10643 0.12107-0.0569-0.11856-0.0562-6.6e-4 -0.13497 0.0186-0.0965 0.12449-0.1143 0.188-0.11923-5e-3 -0.0789-0.18956-0.0713-0.0487-0.10711 0.11243 0.0199 0.1803-0.0502 0.16401-0.15815 0.0774-0.0698 0.11714-0.18389 0.24378-0.17099 0.0991-0.041 0.0487-0.13161 0.0561-0.19999 0.0491-0.11268 0.19101-0.12986 0.24702-0.23714 0.0507-0.10457 0.14939-0.14442 0.2015-0.24652 0.052-0.0809 0.0996-0.16653 0.20143-0.16898-0.0316-0.12814 0.14594-0.13559 0.17509-0.25082 0.0939-0.11181 0.22504-0.19262 0.29069-0.32674 0.0839-0.0303 0.15705-0.0686 0.17309-0.16979 0.0264-0.11165 0.18395-0.10696 0.19014-0.21495 0.16797-0.14272 0.3287-0.29679 0.47315-0.46416 0.0313-0.0607 0.11732-0.0471 0.13696-0.12514 0.12844-0.0653 0.20153-0.21225 0.33674-0.26584 7e-3 -0.0859 0.0804-0.20959 0.17773-0.20448 0.0791-2e-3 0.0376-0.0437 0.029-0.0731 0.0417-0.0379 0.21001 0.0113 0.12562-0.085-0.0732-0.0571 0.11924 2.9e-4 0.0772-0.0934 0.0188-0.1166 0.14593-0.17977 0.20322-0.28062 0.0697-0.0682 0.12558-0.14585 0.17279-0.21331 0.0985-0.0426 0.12065-0.1771 0.2233-0.19559 0.0809-0.0739 0.14075-0.16051 0.20795-0.24706 0.0926-0.0621 0.11883-0.17721 0.21936-0.23082 0.0918-0.061 0.14863-0.16062 0.22404-0.2299 0.0293-0.0945 0.14585-0.12987 0.20406-0.17658 3e-3 -0.0929 0.056-0.17917 0.13725-0.2386 0.0958-0.0607 0.1633-0.15019 0.21794-0.24717 0.0412-0.12166 0.22349-0.0531 0.23451-0.17636-1e-4 -0.0934 0.12764-0.0408 0.0962-0.15229 0.0215-0.11279 0.14267-0.15613 0.21234-0.23528 0.10166-0.0703 0.13053-0.19322 0.22036-0.27309 0.13546-0.144 0.24697-0.30885 0.37837-0.45574 0.0513-0.11931 0.14908-0.21068 0.20629-0.32366 0.0873-0.112 0.17928-0.22175 0.25737-0.34127 0.0622-0.10433 0.15434-0.18652 0.21895-0.2876 0.063-0.08 0.12183-0.15407 0.18834-0.23943 0.12316-0.12907 0.23728-0.26651 0.35271-0.40214 0.0584-0.0925 0.081-0.20406 0.17353-0.27354 0.075-0.08 0.15373-0.16212 0.19538-0.26428 0.11597-0.12048 0.21869-0.25926 0.27996-0.41572 0.0398-0.11792 0.13079-0.22555 0.21631-0.31959 0.0966-0.0623 0.13242-0.16468 0.20993-0.24444 0.10766 0.0178 0.2214 0.0323 0.33319 0.028 0.11574-0.0145 0.22264 0.0157 0.30235 0.1011 0.0687 0.0482 0.16108 0.0863 0.2157 0.16802 0.0221 0.0635 0.0354 0.14241 0.1283 0.092 0.0797-0.0172 0.15086 0.0497 0.21855 0.0926 0.0363 0.0726 0.1032 0.15103 0.10923 0.24979 0.0371 0.11352 0.12047 0.20523 0.14711 0.32344 0.0503 0.11465 0.0443 0.23929 0.0115 0.35741-0.0315 0.15101-0.0878 0.32886-0.25004 0.38346-0.0499 0.0896-0.11549 0.17647-0.20066 0.24136-0.0951 0.0467-0.15354 0.13531-0.22678 0.19894-0.0495 0.1088-0.15851 0.17723-0.22456 0.27635-0.0514 0.11258-0.18055 0.15317-0.23729 0.25895-0.0397 0.0964-0.12699 0.16016-0.16829 0.25355-0.0637 0.0948-0.14505 0.17944-0.20005 0.28467-0.10331 0.12767-0.24006 0.23071-0.31911 0.37614-0.0661 0.1077-0.19152 0.14457-0.26546 0.24406-0.0804 0.095-0.13047 0.2103-0.22606 0.29379-0.0924 0.14504-0.22264 0.26659-0.30395 0.41686-0.0898 0.0465-0.14694 0.14061-0.21734 0.2119-0.0801 0.0995-0.18591 0.17764-0.25134 0.28794-0.10547 0.0525-0.1504 0.16187-0.23389 0.23883-0.19864 0.22138-0.4006 0.43981-0.61136 0.64984-0.17312 0.17848-0.35646 0.34865-0.51514 0.54013-0.063 0.0941-0.15025 0.17119-0.23692 0.24353-0.0995 0.0599-0.14282 0.18058-0.23754 0.24838-0.1051 0.0423-0.13548 0.15009-0.21125 0.22671-0.0894 0.10877-0.19803 0.19954-0.28022 0.31427-0.24964 0.27234-0.53007 0.51513-0.76906 0.79761-0.16528 0.18607-0.33984 0.364-0.49436 0.55923-0.0706 0.0691-0.1597 0.11548-0.22352 0.19399-0.0799 0.0784-0.14338 0.17505-0.24255 0.23122-0.0543 0.0991-0.14923 0.16955-0.23323 0.24153-0.12664 0.15072-0.2312 0.32352-0.38266 0.45149-0.089 0.0589-0.11017 0.17345-0.21456 0.21707-0.0695 0.0916-0.12385 0.19609-0.21802 0.26727-0.12761 0.12061-0.27189 0.22853-0.37044 0.37557-0.10123 0.0402-0.15997 0.13079-0.23377 0.20509-0.0476 0.089-0.14897 0.14287-0.20256 0.23842-0.14895 0.15426-0.30039 0.30623-0.4405 0.46874-0.10717 0.0439-0.12869 0.15147-0.21504 0.22743-0.0492 0.11418-0.16356 0.18043-0.22866 0.28385-0.0976 0.0806-0.17298 0.17752-0.24853 0.27693-0.0728 0.0625-0.12285 0.15172-0.18456 0.21748-0.20297 0.17124-0.38293 0.3692-0.56977 0.55797-0.10301 0.12036-0.24738 0.22237-0.29 0.38199-0.0263 0.12292 0.11374 0.17544 0.14255 0.27956 0.0926 0.0985 0.14268 0.22393 0.21746 0.33433 0.0814 0.0967 0.12706 0.21616 0.19574 0.32081 0.0828 0.0776 0.10933 0.20341 0.21033 0.26649 0.0751 0.0982 0.12443 0.21463 0.20483 0.30992 0.09 0.0747 0.11954 0.19641 0.21341 0.27065 0.0417 0.10876 0.1531 0.15829 0.16482 0.28493 0.0564 0.0788 0.14775 0.13739 0.20406 0.22251 0.0702 0.0891 0.12888 0.18831 0.21881 0.25905 0.0366 0.11059 0.13685 0.15816 0.20912 0.24196 0.0641 0.0978 0.13885 0.18797 0.22569 0.26805 0.0902 0.0769 0.13383 0.18947 0.22268 0.26725 0.083 0.0767 0.11086 0.19147 0.19758 0.26589 0.0868 0.083 0.1468 0.19007 0.23448 0.27114 0.0698 0.0566 0.10695 0.15012 0.19472 0.19972 0.0548 0.081 0.14895 0.14405 0.22137 0.21544 0.0804 0.0638 0.13026 0.14435 0.17845 0.2346 0.0689 0.0879 0.17186 0.14619 0.23811 0.24002 0.15857 0.17712 0.33752 0.33547 0.48918 0.51865 0.0861 0.0692 0.18611 0.1396 0.27054 0.22042 0.083 0.0693 0.13507 0.15924 0.23342 0.21397 0.18901 0.17287 0.37211 0.35487 0.5809 0.50394 0.12749 0.0628 0.22427 0.1734 0.33881 0.25633 0.0938 0.0727 0.19844 0.13095 0.28074 0.21811 0.14096 0.12398 0.31148 0.20923 0.44572 0.3417 0.10651 0.0731 0.23351 0.11256 0.32108 0.21422 0.12975 0.10348 0.30059 0.14359 0.41664 0.26656 0.17846 0.12005 0.3796 0.20192 0.56345 0.31352 0.12147 0.0738 0.24909 0.13596 0.37881 0.19329 0.20274 0.13457 0.41114 0.26056 0.62844 0.37044 0.11234 0.0607 0.19948 0.15956 0.32239 0.20236 0.0964 0.0644 0.18242 0.14066 0.2839 0.19853 0.26239 0.23081 0.54792 0.4407 0.76848 0.71447 0.075 0.10154 0.1452 0.20775 0.20904 0.31622 0.0472 0.14574 0.0798 0.30253 0.0628 0.45593-0.0199 0.11697-0.10549 0.20384-0.15014 0.3111-0.0866 0.11894-0.19649 0.22334-0.31563 0.3094-0.10576 0.063-0.22769 0.11194-0.35162 0.11458-0.0786-0.09-0.20367-7e-3 -0.3021 3e-3 -0.0785 6e-3 -0.19662 0.07-0.2609 0.0354zm-15.8807-6.17727c-0.0952-0.0196-0.0385 0.0358 0 0zm0.73461-0.81493c-0.0487-0.0316-0.0745-0.0176-0.0417 0.0249-5e-3 0.0296 0.0585-7e-3 0.0417-0.0249zm0.86921-0.0401c-0.0318-0.0839-0.078 0.0653 0 0zm1.7092-2.51168c-0.11024-0.0206-0.0294 0.0387 0 0zm1.1117-0.70168c-0.0302-0.0807-0.11518 0.0393-0.023 0.0291 0.0115-6e-3 0.0195-0.0185 0.023-0.0291zm-0.22799-0.16045c-0.0733-0.0712-0.0907 0.0364 0 0zm0.254-0.0552c-0.0617-0.0881-0.023 0.0764 0 0zm0.49319-0.76411c-0.0555-0.0329-0.16026 0.0278-0.0426 0.0313 0.0157 2e-3 0.0658-5e-3 0.0426-0.0313zm0.2794-0.10372c-9e-3 -0.0683-0.0967 0.0404-0.0151 0.0148zm1.04775-1.18533c-0.022-0.0737-0.0586 0.0806 0 0zm0.78316-0.762c-0.0445-0.0693 0.14633-0.0855 0.0631-0.0979-0.067-0.0272-0.23361 0.0622-0.10315 0.10828 0.0105 0.0105 0.0444 0.0158 0.04-0.0104zm2.12552-2.21418c0.1167-0.0672-0.16683-0.0626-0.0382 0.0117 7e-3 9e-3 0.0384-0.0256 0.0382-0.0117zm1.5469-1.97682c-0.0317-0.0838-0.078 0.0653 0 0zm0.47625-0.475c-0.0507-0.0771-0.0596 0.0398 0 0zm6.04793-6.75562c-0.0952-0.0196-0.0385 0.0358 0 0zm-0.14243-0.0507c-0.0515-0.0822-0.0539 0.0815 0 0z" stroke-width=".0211667"/>
 </g>
</svg>
