<?xml version="1.0" encoding="UTF-8"?>
<svg width="310.479" height="210.273" version="1.1" viewBox="0 0 310.479 210.273" xmlns="http://www.w3.org/2000/svg" xmlns:cc="http://creativecommons.org/ns#" xmlns:dc="http://purl.org/dc/elements/1.1/" xmlns:rdf="http://www.w3.org/1999/02/22-rdf-syntax-ns#">
 <metadata>
  <rdf:RDF>
   <cc:Work rdf:about="">
    <dc:format>image/svg+xml</dc:format>
    <dc:type rdf:resource="http://purl.org/dc/dcmitype/StillImage"/>
    <dc:title/>
   </cc:Work>
  </rdf:RDF>
 </metadata>
 <g transform="translate(-4.15222 84.1918)">
  <path d="m208.475 126.06c-0.98633 0.0238-1.97716-0.26402-2.68673-0.49981 0.48757 0.50696-0.41446-0.15407-0.63841 0.15715-0.99756-0.30888-2.09614-0.4264-3.30009-0.40119-1.31039-0.50324-2.74071-0.81236-4.06719-1.26365-1.3602-0.4736-2.5294-1.3145-3.83427-1.85056-1.09599-0.80635-2.19179-1.62152-3.39109-2.29292-0.92803-0.84546-2.29872-1.27929-2.97381-2.33003-0.87711-0.88742-1.8054-1.8356-2.40687-2.95546-0.44316-1.02804-1.24387-1.92142-1.62072-3.03217 0.2121-0.20771-0.57363-0.50189 0.23481-0.51244-1.03306-0.3012-0.93733-1.98677-1.3741-2.93844-0.41516-0.63974 0.2927-1.18535-0.34057-1.73842-0.20866-1.05796-0.0663-2.47526-0.0756-3.08467 0.46005-0.0806-0.41279-0.57467 0.33879-0.65562 0.28198-0.655-0.08-0.86306 0.0981-1.45081-0.38756-0.72967 1.27567-0.19191 0.91262-1.21535-0.0283-1.09854-1.2512 1.06076-0.98885-0.345943-0.56405-0.531897 0.83798-0.09915 0.53745-0.955927-0.19954-0.832407 0.83244-1.21428 1.46272-1.27106-0.31761-0.396237-1.40312 0.210997-0.71341-0.582362 0.0429-0.512881-0.36089-1.35698 0.55786-1.18715 0.29881-0.608969-0.74906-0.363354-0.37498-0.940509-0.0745-0.4708 0.89166-0.464813 0.55229-1.14616 0.93981-1.13802-0.33728 1.36181 0.65665 1.13492 0.13371-0.2453 1.07031-1.69875 0.81397-0.606172-0.0859 0.672344-0.74038 1.72955-0.0224 1.76523-0.60607 0.424978-0.44046 1.4193 0.2167 1.20723-0.15331-0.306792 0.60719-0.613606 0.332 0.153354-0.0179 0.826412 0.42411 1.45836 0.079 2.37535 0.75761 0.745031 0.31497 1.58099 0.28905 2.52219-0.12983 0.88223 0.38405 1.85036 0.62905 0.56188 0.31706 1.34409 0.14259 2.79032 0.59765 4.11179 0.21739 1.42649 0.82079 2.76433 1.35741 4.10211 0.48236 0.77875 0.9287 1.4982 1.64444 2.25354 0.74833 0.71099 1.57182 1.43622 2.35202 2.1696 1.4248 1.11683 2.86799 2.28284 4.57234 2.94325 1.55421 0.85216 3.24741 1.44518 4.98459 1.81286 1.08842 0.43054 2.2845 0.32976 3.39594 0.67147 1.69253 0.10006 3.37996 0.30119 5.08024 0.18966 1.27843-0.16438 2.52141-0.033 3.76915-0.32913 1.22878-0.15709 2.44013-0.38125 3.64381-0.64932 1.33412-0.098 2.41506-0.80577 3.64942-1.25638 0.89588-0.6005 2.03665-0.67872 2.67983-1.35596 0.9876-0.52145 1.86735-1.2177 2.59717-2.10819 0.86243-0.94003 1.91705-1.79205 2.40535-2.97546 0.82832-0.94373 1.36978-2.0643 1.96726-3.1488 0.279-0.83385 0.97653-0.98436 0.85026-1.90845 0.17646-0.9628 0.55023-1.8518 0.74046-2.78527 0.37425-1.12631 0.45272-2.26345 0.60579-3.42833-0.10897-0.51829 0.48531-1.58788 0.33908-1.49868-0.53492-0.945992-2.17554 0.09949-3.10665 0.356852-1.14341 0.08578-2.14122 0.787566-3.29003 0.913396-1.23829 0.40342-2.43687 0.61933-3.64881 1.02553-1.15935 0.5852-2.4377 0.70895-3.63578 1.18631-1.58766 0.35549-3.09334 1.02916-4.69281 1.3504-1.33729 0.59736-2.76097 1.01483-4.10464 1.61392-1.08768 0.4466-2.25076 0.7168-3.36344 1.15199-1.38992 0.42652-2.73209 0.95207-4.17786 1.18963-1.29695 0.22636-2.45168 0.68888-3.75058 0.61153-0.52667 0.63075-1.4861-0.27619-2.00558-0.60998-0.85078-0.75881-2.18337-1.45374-2.20537-2.74908-0.75005-1.22281 0.33214-2.08003 1.18153-2.6907 0.81117-0.65882 2.14445-0.65161 3.26244-0.39121 1.77592 0.0706 3.52593-0.32031 5.24182-0.70456 1.12866-0.54471 2.41691-0.89958 3.62689-1.31539 1.27916-0.551222 2.62639-0.942958 3.91628-1.47597 1.68137-0.420644 3.25144-1.19332 4.94015-1.57632 1.2437-0.387754 2.48706-0.739613 3.76466-1.01641 1.11631-0.443906 2.29575-0.776631 3.45654-1.13687 1.2886-0.123792 2.39405-0.894558 3.67115-1.06628 1.40581-0.370503 2.77879-0.88539 4.23173-1.18409 1.16805-0.617956 0.0159-2.36257 0.14869-3.45257-0.0185-1.36682-0.67809-2.73071-0.42057-4.07226-0.37593-1.25258-0.92618-2.46464-1.05872-3.81457-0.23519-1.21836-0.74517-2.34357-1.03544-3.5502-0.42732-1.38551-1.06543-2.7135-1.44982-4.12033-0.23131-1.39992-1.15295-2.56156-1.47154-3.94-0.32535-1.05547-0.97724-1.9493-1.32401-3.0228-0.51148-1.25584-1.12267-2.47881-1.6685-3.66109-0.54314-1.20696-1.1-2.43556-1.60752-3.61852-0.13469-1.02707-0.93802-1.29612-1.36489-0.272659-0.61513 1.06082-1.44625 1.88411-2.08427 2.93117-0.81067 0.967788-1.78559 1.79301-2.65886 2.72962-0.74496 0.851344-1.67429 1.50616-2.35916 2.33594-0.7782 0.947152-1.88028 1.46813-2.77484 2.26857-0.86824 0.753315-1.51954 1.71485-2.4097 2.46447-0.99224 0.72752-1.65628 1.88684-2.85252 2.30115-1.13296 0.627015-2.30949 1.06352-3.60281 1.19545-1.23132 0.46029-2.66799 0.39824-3.81556-0.271475-1.32941-0.04486-2.23901-0.902924-3.21013-1.70353-0.81997-0.694516-1.62827-1.44037-2.13175-2.42118-0.79921-0.898204-1.14388-2.26888-1.52809-3.33373-0.39447-1.02793-0.6548-2.10797-0.83874-3.22413-0.23349-1.24566-0.46335-2.44859-0.4921-3.72-0.1637-0.881312 0.21711-2.29968-0.37357-2.87332-0.89393 0.746415-1.57938 1.74373-2.13194 2.75281-0.67449 1.1474-1.88884 1.60172-2.66641 2.58505-0.72223 0.793822-1.43105 1.62828-2.15681 2.43215-1.27507 0.941718-2.20576 2.32158-3.57228 3.16975-0.93075 1.25538-2.2913 2.12193-3.45387 3.14024-0.9307 0.820736-2.03678 1.52776-3.0852 2.28366-0.89059 0.552179-1.80535 1.0936-2.80081 1.51714-1.19844 0.536041-2.44905 0.903693-3.72897 1.20448-1.46557 0.283737-2.96807 0.214919-4.43775 0.0041-1.31989-0.377623-2.43155-1.25102-3.64596-1.88661-1.01278-0.643601-1.99855-2.1255-3.33609-1.24943-1.19951 0.374225-2.22283 1.14642-3.48848 1.31565-1.1228 0.276266-2.16918 0.78543-3.30105 1.02281-1.22554 0.471597-2.51696 0.738674-3.75722 1.17057-1.26029 0.219482-2.52085 0.446538-3.73363 0.789391-1.30588 0.326883-2.62565 0.593425-3.9752 0.685857-1.933 0.164086-3.89511 0.197262-5.79751-0.217406-1.07243-0.625554-2.47035-0.670749-3.29387-1.61428-0.95574-0.744015-1.90891-1.47414-2.62969-2.4572-0.63582-1.03817-1.12213-2.17378-1.59691-3.29143-0.0944-1.10217-0.46385-2.13055-0.68646-3.19756-0.20556-1.34685-0.28917-2.72097-0.36405-4.08999-0.0991-1.34786 0.0322-2.71674 0.17786-4.03625-0.18304-1.12141 0.23337-2.22722 0.12181-3.32016 0.39714-1.2237 0.17994-2.43544 0.37608-3.69531 0.28328-1.35332 0.44791-2.59589 0.51209-3.95724 0.19935-1.18016 0.37611-2.41839 0.31297-3.70738 0.035-1.15182 0.26209-2.40167 0.55255-3.43935 0.26674-1.09832 0.17895-2.40588 0.60126-3.53551 0.3933-0.781775 0.25973-1.73069 0.28685-2.59094 0.64891-0.812988 0.29488-1.73528 0.47001-2.73396-0.0202-1.40744 0.42577-2.77344 0.36571-4.17393 0.29293-1.39855 0.58171-2.82583 0.64633-4.26842 0.35219-1.33611 0.3101-2.72333 0.72201-4.03449-0.0641-1.1652 0.6182-2.32615 0.71782-3.58666 0.14782-1.15604 0.51998-2.25435 0.46559-3.42944 0.0601-0.930591 0.52978-2.11907 1.42686-2.61005 0.89935-0.743459 2.76982-0.794304 3.54722-0.01082 1.0929 0.743859 2.11728 1.81945 2.53287 3.06014 0.63489 1.14182-0.34999 2.26645-0.42746 3.35194-0.37976 1.28768-0.32818 2.31135-0.78609 3.60903-0.1785 1.43189-0.81991 2.794-0.83801 4.24717-0.37184 1.07599-0.4788 2.21246-0.69204 3.33822-0.0446 1.20106-0.43565 2.33839-0.31245 3.53362-0.32174 1.44686-0.45673 2.91366-0.76701 4.36778-0.12168 1.26369-0.40355 2.46221-0.63981 3.66559-0.2333 1.13553-0.14476 2.43506-0.65845 3.45508-5e-3 1.30462-0.18357 2.62672-0.43077 3.90161-0.25935 1.20005-0.30623 2.43186-0.56475 3.65754-0.33598 2.76166-0.32225 5.55295-0.54999 8.32455-0.0465 1.2266-0.11101 2.36994-0.0449 3.55764-0.18074 1.3352-0.15671 2.75823 0.12238 4.12555 0.20472 1.16793 0.37629 2.34896 0.87282 3.44063 0.35278 1.2118 1.37292 2.35688 2.72774 2.25267 1.26801 0.232805 2.5596-0.05219 3.85596-0.141166 1.31892-0.230757 2.61831-0.52758 3.9307-0.817772 1.26253-0.243787 2.44728-0.732743 3.69674-1.00413 1.36088-0.303595 2.66983-0.787496 3.98922-1.23391 1.42623-0.378388 2.81784-0.944498 4.14703-1.58897-0.0445-1.26947-0.50992-2.52204-0.59783-3.80455-7e-3 -1.07201 0.0762-2.12025-0.11049-3.19394 0.21087-1.01521-0.3854-2.53219 0.50957-3.32607 0.13451-0.486917-0.64251 0.382163-0.24633-0.424748 0.24173-1.05763 0.3036-1.92878 0.51928-2.91209 0.0329-0.87758 0.39262-1.53922 0.41389-2.43597 0.36807-1.15627 0.50514-2.37189 1.04995-3.4806 0.23905-1.06366 1.0165-1.95815 1.19083-3.01872 0.59235-0.875735 0.9139-1.98096 1.41222-2.89261 0.73265-0.888808 1.0836-1.98714 1.78541-2.91033 0.69308-0.978737 1.60187-1.76759 2.2325-2.71697 0.92106-1.12219 2.06861-1.94389 3.09475-2.95907 1.05821-1.18616 2.52642-1.91752 4.05746-2.28565 2.06164-0.785311 4.42308-0.584367 6.33303 0.510719 1.03746 0.686834 2.08415 1.47349 2.88637 2.42635 0.85973 0.820593 1.40014 1.8522 2.0927 2.79776 0.461 1.06028 0.59085 2.19757 0.59181 3.3616-0.0785 1.05587-0.48576 2.17282-0.99974 3.17629-0.55454 1.1862-1.28296 2.2145-2.07279 3.26626-0.86564 0.970011-1.65184 2.14071-2.90664 2.64032-1.07115 0.710987-1.60895 1.93146-2.54728 2.73272-0.97473 0.700521-1.71674 1.65682-2.59684 2.43206-1.05728 0.722933-1.74311 1.70412-2.824 2.40663-0.93574 0.717691-1.76329 1.6757-2.85991 2.08172-0.82977 0.696534-2.15164 0.499229-3.14026 0.239592-1.33549-0.778813-1.13837 1.13829-1.14855 2.00289 0.19844 0.906905-0.36334 2.68411 0.51511 3.11252 1.25385-0.191506 2.43097-1.93462 3.67756-1.23896-0.0652 0.69251 0.75803 1.29774 0.93411 1.84544 0.83525 0.258023 1.46813 1.6083 0.46295 2.25149-0.34174 1.34378-2.05722 1.67374-2.46094 2.80597 1.40615 1.03954 3.29816 0.730995 4.80348 0.08321 1.52325-0.540767 2.75155-1.61315 4.0939-2.46449 0.89638-0.866869 1.95819-1.62672 2.8694-2.53606 0.94746-0.499468 1.42454-1.3775 2.3414-1.99984 1.07709-0.623776 1.61183-1.68485 2.60992-2.45112 0.69999-0.557243 1.09653-1.35984 1.89632-1.51274-0.0742-1.14884 1.48609-1.20603 1.77839-2.19496 0.93538-0.750063 1.59417-1.51637 2.18535-2.47189 0.70194-0.943579 1.42853-1.83354 2.09212-2.79064 0.66922-0.873218 1.38109-1.91173 1.78177-2.86827 0.24113-0.865999 2.3151-1.15447 1.13176-1.87033 0.39658-1.1746 0.98121-2.24322 1.47487-3.39401 0.44326-0.949421-0.10505-2.34845 1.03746-2.7782 0.42003-1.00677 1.4753-1.23308 2.4148-1.51358 0.97026 0.0079 2.21615-0.06625 2.54556 0.943732 0.63448 0.787335 1.46868 1.55254 1.62369 2.60962 0.70564 0.755757-0.13857 1.3347 0.0869 2.18801-0.23096 1.03394-0.57701 2.09097-0.67774 3.25414-0.22135 1.10361-0.15984 2.26657-0.35326 3.39135-0.0437 1.36217-0.0801 2.72649-0.1814 4.08483 0.0982 1.1918-0.089 2.4902 0.0102 3.73259-2e-3 1.24087 0.0687 2.31181 0.18775 3.59626 0.15258 1.20191 0.28015 2.36025 0.71043 3.4905 0.32061 0.959686 0.62141 1.78868 1.36485 2.44618 1.22825 0.77256 2.2552-0.471195 3.2865-0.987354 0.92463-0.698148 1.86118-1.42493 2.79488-2.15836 0.52564-0.838919 2.75585-1.6893 1.80342-2.76772-1.56436-2.01714-2.08926-4.67547-1.78884-7.17784 0.64938-1.15279 0.37363-2.54345 1.10312-3.64811 0.30717-1.2379 1.02595-2.28986 1.70933-3.33498 0.84615-0.746828 1.38583-1.75643 2.07621-2.68369 1.50144-1.99977 3.24394-3.83375 5.12653-5.47822 1.09119-0.716534 2.2162-1.38115 3.50214-1.76618 1.18492-0.107576 2.31285-0.767109 3.52178-0.523338 1.46839-0.05343 2.53537 0.959103 3.52359 1.88887 0.70652 1.01821 1.35937 2.02681 1.78398 3.184 0.26192 1.34352-0.13368 2.66357-0.55051 3.92591-0.61186 1.20753-0.9782 2.47476-1.61606 3.67276-0.18944 1.17171 1.01977 2.32197 1.36183 3.49259 0.37662 1.23012 1.01776 2.37362 1.38575 3.5996 0.54527 0.872003 0.68738 2.27694 1.52793 2.81831-3e-3 -1.0244 0.67252-2.44159-0.0918-3.2517-0.033-1.16119-0.1909-2.41598 0.26282-3.49413-0.3823-1.0283-0.39309-2.05927-0.43371-3.15925 0.40382-1.2467-0.26814-2.50369-0.0857-3.81284 0.0818-0.680848-0.0147-1.91186 0.22966-2.01194-0.49961-0.946302 0.14758-2.21029-0.0943-3.28976 0.38198-0.30298-0.44923-1.33734 0.0299-2.0797 0.16318-1.21481 0.46317-2.40228 0.26103-3.62326 0.857-0.678509 0.0257-2.17315 0.23162-3.05567 0.0732-1.13832-0.11571-2.50884 0.24069-3.69848 0.32029-1.38883 0.15881-2.83274 0.47572-4.20588 0.3753-1.57516 0.34308-3.23439 0.90977-4.76319 0.0817-1.32771 0.65356-2.58276 0.93002-3.88406 0.39491-1.34379 0.93196-2.6625 1.17241-4.0234 0.43687-1.00156 1.02317-2.0683 1.12386-3.22142 0.30338-1.03859 0.89314-2.0892 1.99439-2.51805 0.72157-0.462882 2.16899-0.343308 2.94204 0.14067 1.10398 0.58812 1.83838 1.71813 2.61056 2.6371 0.38188 1.34981-0.45342 2.52246-0.88863 3.7067-0.33382 1.03937-0.67726 2.13274-1.14396 3.12947-0.47518 1.19606-0.88272 2.42292-1.06774 3.71404-0.60494 1.4565-0.79384 3.02601-1.11607 4.55745-0.19774 1.36851-0.40914 2.56524-0.59255 3.93543-0.33972 1.29833-0.31421 2.34526-0.45204 3.78104 6e-3 1.3524-0.27724 2.62713-0.30022 3.97268-0.10654 1.19536-0.4285 2.29269-0.19333 3.48245-0.12159 1.2987 0.0134 2.61424-0.11106 3.91984-0.16702 2.84943-0.0537 5.70082-0.0717 8.54718-0.19242 0.727431 0.23111 2.00438 0.11914 2.95768 0.0304 0.962144-0.16889 2.67448 0.4754 3.10114 0.25117-0.625138 0.90885-0.857066 1.13533-1.41615 0.085-0.674854 0.44296-2.11069 1.15259-2.80996 0.38057-1.03186 0.80151-2.29632 1.80933-2.90806-0.49645-0.316199 0.37734-1.00525 0.0939-1.20584-0.14118-0.885798 1.37355-1.33694 1.1377-2.47389 0.23037-0.510899 0.48487-0.469327 0.19838-0.731799 0.96089-0.130204 0.61921-1.8867 1.28439-1.59432 0.57804 0.345767-0.26966-0.863501 0.26402-1.04315 0.0888-0.785262 0.67341-1.3054 1.00097-1.93123 0.3339-0.504684 0.60376-1.08321 1.041-1.16302-0.39116-0.332513 0.28458-1.22971 0.78772-1.21411-1.19993-0.233372 0.90595-0.88207 0.21333-0.878803 0.33419-0.471685 0.98201-0.426676 0.34206-0.863483 0.61866 0.266523 1.0366-0.298712 0.60764-0.825448 0.28475-0.190362 0.88502-0.646056 0.5567-0.827169 1.06668 0.132554 0.92257-1.23501 1.95622-1.28774-0.6445-0.617846 0.31621-1.53224 0.84096-1.56587 0.13313-0.95074 1.51335-0.590178 1.61252-1.75551 0.79982-0.742295 1.75461-1.30004 2.61875-1.96404 1.13924-0.457408 2.06828-1.20639 3.27514-1.48715 1.11276-0.40626 2.24146-0.705707 3.44258-0.569758 1.45841 0.0661 3.02765 0.465337 4.04501 1.57825 0.84945 0.787444 1.80572 1.50439 2.30166 2.57682 0.49628 1.05171 0.96213 2.13642 1.03538 3.30812 0.37538 1.3345 0.0296 2.71803 0.20869 4.0508-0.0388 1.19002-0.25173 2.33593-0.28586 3.46652-5e-3 1.10762-0.0617 2.30716-0.33053 3.44657-0.0907 1.1754-0.23182 2.31701-0.49794 3.41476-0.36605 1.20417-0.34068 2.49258-0.74631 3.68703-9.3e-4 1.30119-0.59496 2.48659-0.67763 3.76758-0.22616 1.23478-0.30212 2.50266-0.58253 3.70412-0.2568 1.18782-0.13971 2.60715-0.30242 3.90076-0.0398 1.29354-0.74757 2.60302-1.23874 3.63024-0.59767 0.634348-1.71207 1.29689-2.47862 1.36087-0.24048-0.74636-1.47291 0.434855-2.05721-0.377723-0.68959-0.517723-2.23632-1.33653-1.71397-2.1981 0.2468-1.02744 0.72363-1.7837 0.79411-2.90188 0.37178-1.99711 0.31822-4.05006 0.51139-6.06675 0.10909-0.999265 0.0659-1.95809 0.23628-3.06693 0.29477-1.0152 0.17495-2.21969 0.59315-3.23403-0.0285-0.713604 0.57055-1.99875 0.63262-2.19314-0.46848 0.366746 0.14087-1.37032 0.25268-1.83745 0.2436-1.13444 0.43249-2.28932 0.61246-3.47049 0.22788-1.24576 0.20794-2.29517 0.235-3.444-0.0575-1.24699-0.016-2.53942-9e-3 -3.82192 0.15744-1.09187-0.0587-2.18727-0.53058-3.17986-1.27634-0.252554-2.4025 0.708378-3.42287 1.34748-0.91986 0.69231-1.86918 1.33631-2.729 2.09757-0.58903 1.14504-1.74367 1.86348-2.42329 2.97634-0.68863 1.10555-1.56525 2.08924-2.17239 3.23373-0.61009 0.804353-1.07026 1.61783-1.64424 2.40528-0.36051 0.930975-0.9877 1.88306-1.44488 2.82738-0.55105 1.21528-1.19231 2.37467-1.71667 3.61367-0.45614 1.25378-1.22151 2.40146-1.58552 3.65892-0.51831 1.23524-1.09174 2.39908-1.62463 3.61363-0.2161 1.10506-0.7496 2.0948-1.19854 3.12625-0.44616 1.15968-1.2234 2.1974-1.50286 3.4139-0.61015 1.32549-1.10523 2.73412-1.64312 4.08277-0.30656 0.912106 0.19187 1.9316-0.93156 2.46556-0.44844 0.583219-0.91917 1.11814-1.30217 1.01073-0.62169 0.874416-2.78729-0.151046-1.93984 1.54617 0.40424 1.22817 0.80891 2.44775 1.17538 3.69671 0.3588 1.21768 0.48125 2.30312 0.88068 3.44396 0.43745 1.23363 0.45104 2.55592 0.74047 3.81103 0.32978 1.05554 0.34998 2.12816 0.62813 3.20826-0.1045 1.16792 1.4179 0.145489 2.04484 0.253722 1.18734-0.402417 2.40016-0.512631 3.61752-0.808376 1.31714 0.01952 2.42927-0.774884 3.76444-0.846385 1.56443-0.349168 3.15636-0.48866 4.6762-1.02716 1.12987-0.169396 2.13402-0.352338 3.22502-0.449493 0.31453 0.347012 1.97128 0.585962 1.08695 0.09202-0.28738-0.271859 0.66446-0.746475 1.33646-0.768643 1.19542-0.218705 2.47233-0.447113 3.57696-0.723532 1.30116 0.0062 2.41452-0.542917 3.69346-0.656228 0.65588 0.02183 1.64874-0.512923 2.41041-0.34952 0.44671 0.416458 0.60453-0.757082 1.40004-0.453267 1.1609 0.03154 2.35623-0.508605 3.36537-0.373883 1.10867-0.08271 1.99865-0.514191 3.08544-0.799783 0.37402-0.06835 0.04 0.602092 0.70765 0.06261 0.71355-0.112511 1.4238 0.342743 1.45155 0.998903 0.33365-0.469739-0.22929-1.61387 0.96696-1.53673 1.22892 0.01323 2.42679-0.642231 3.60161-0.457425 1.17173-0.379525 2.52315-0.70846 3.80425-0.780528 1.23622-0.193718 2.46753-0.43814 3.66056-0.722411 0.6672-0.281308 1.1015-0.01262 1.36706 0.03651 0.66446-0.724884 0.38891 0.52167 1.22389-0.218341 0.31862 0.478696-0.70464 0.666973 0.1056 0.788818-0.37635 0.376944 0.38969 0.654617-0.088 1.16941 0.13099 0.126794-1.00764 0.644423-0.14527 0.77259 0.37543 0.05778 1.92282 0.454903 1.09546-0.123874-0.96391 0.138543 0.54345-0.721358-0.49372-1.10052 0.0101-0.08942 1.85107-1.27839 0.76087-0.754126-0.77043 0.117836-0.78123-0.37276-0.0444-0.561282 0.15764-1.10609 1.55278 0.429053 1.47745-0.694094 0.93005-0.158014 1.96219-0.578219 2.78671-0.552331 0.57833-0.217468 0.91074 0.366922 1.21452-0.20003 1.14864 0.234192 2.27412-0.443207 3.47806-0.34778 0.61546-0.09869-0.64356 1.07042-0.4032 1.02338 1.17668 0.445791-1.2105-0.158434-0.55857 0.481718 0.48001 0.208451 1.24156 0.05748 0.76888 0.586127-0.0142 0.530813-1.00219-0.218822-0.45187 0.398209-0.59949 0.04398-0.36747 0.993456 0.23075 0.369221 0.0735 0.887957 0.89854-0.948098 0.91477-0.27087-0.49082 0.724338 0.87375-0.09858 1.22359 0.348773 1.18888 0.08536-0.91753-1.2223-0.0459-0.985933 0.64044 0.759948 1.95751-0.451096 1.09971-0.5259-0.71854-1.203 2.05432-0.07495 1.64949-0.91759 0.91818 0.411733-1.2419 0.550557 0.12938 0.958651-0.21377 0.3276-0.25846 1.4943 0.5471 1.0458 0.36157 0.218592 1.28406 1.01888 0.37199 0.805584-0.44678-0.466786-0.0752 0.848384-0.75969 0.250693-0.61277-0.321713 0.13058 0.784954-0.33612 0.334287-0.68913-0.346891-1.52448 1.07392-2.55935 0.78538-1.26328 0.301414-2.58797 0.745395-3.89665 0.58704-0.98333 0.583309-2.0845 0.305728-3.0486 0.70832-0.95542 0.284464-2.11306 0.477812-3.21421 0.672109-1.0521 0.558749-2.26049-0.06071-3.17467 0.513411-1.09438 0.250306-2.09645 0.408505-3.167 0.58514-0.60671 0.196368-1.33055 0.423882-1.73888 0.176598 0.0481 0.522036-1.51524 0.211767-2.05143 0.510165-1.06417 0.420709-2.20511 0.257368-3.13464 0.516351-1.14881 0.545201-2.4681 0.516174-3.66649 0.919159-1.3981 0.09498-2.63031 0.328548-3.99155 0.666822-1.31748 0.01949-2.61118 0.394193-3.91886 0.635865-1.97593 0.281545-3.92094 0.763962-5.86129 1.2191-1.30701 0.285042-2.66389 0.614214-4.01727 0.807519-1.12482-0.10838-2.27166 0.647152-3.47258 0.624752-1.12542 0.634695-2.4765 0.521846-3.70288 0.853941-1.29565 0.188866-2.60887 0.499867-3.84414 0.826169-1.33949 0.299922-2.7244 0.542956-4.07335 0.873346-1.223 0.294604-2.40152 0.720851-3.63028 1.00622-1.18963 0.25681-2.69664 0.330002-2.45456 1.91811 0.3185 1.60214 0.0231 3.25596-0.22463 4.84869-0.21279 1.35021-0.53309 2.70464-0.96223 3.98859-0.35614 1.06954-0.82393 2.10216-1.18566 3.16102-0.63896 0.97703-1.14248 1.98355-1.74199 2.977-0.45836 0.86048-0.86922 1.73271-1.61313 2.01235-0.0794 1.36563-1.73108 2.10889-2.47628 3.1843-1.00355 0.88652-2.01264 1.75555-3.13803 2.45366-0.95125 0.72805-2.01138 1.25516-3.08946 1.79189-1.12474 0.47144-2.2684 0.89845-3.4532 1.20358-1.38482 0.60951-2.90592 0.79629-4.39757 0.97204-1.37012 0.44133-2.83413 0.40791-4.24006 0.6757-1.24909 0.12376-2.50718 0.19515-3.75574 0.19788-0.69223 0.0851-1.40748 0.11835-2.10014 0.0729zm-21.1668-21.2999c-0.11949-0.25281-0.18049 0.27476 0 0zm-0.0515-0.43878c-0.3783-0.82044-0.70371 0.45763 0 0zm-4.20289-1.10122c-0.52923-0.74322-0.22962 0.57395-4e-5 -1e-5zm0.0807-1.10492c-0.5428-0.72246-0.0217 1.08022 0 0zm-8e-3 -1.16342c-0.26062-0.0879-0.21503 0.14924 0 0zm-0.0141-1.54483c0.17026-0.575597-0.45634 0.103922 0 0zm0.47574-1.00683c-0.49785-0.375794-0.62681 0.434156 0 1e-4zm60.9871-4.72368c0.14357-0.531224-0.7004-0.77367-0.51226-0.1625-0.36011 0.282001 0.45097 0.550147 0.51226 0.1625zm7.43293-2.27181c0.55441-0.460657 0.64554-1.06512-0.10066-0.50576-0.55519 0.263921-0.64417 0.86845 0.10066 0.50576zm-9.74-0.23595c-0.40188-0.549335-0.19289 0.38238 0 0zm11.56-0.64856c-0.0212-0.293391-0.24008 0.269493 0 0zm-1.56-0.72472c-0.58725-0.399957-0.18455 0.495417 0 0zm1.99922-0.0343c-0.14401-0.612664-0.94521 0.244059-1e-5 4.5e-4zm17.4408-1.17201c-0.46198-0.532432-0.34758 0.473871 0 0zm-12.694-0.0416c-0.0681-1.04634-0.79463 0.09143 0 0zm-2.58598-0.14736c0.68802-0.876468-0.89876 0.437057 0 0zm3.36-0.11847c-0.62345-0.812704-0.98918 0.575571 0 0zm-2.48 0.0432c-0.12923-0.262134-0.3363 0.173193 3e-5 0zm10.72-0.0447c-0.19153-0.319609-0.12765 0.297504 0 0zm6.32-0.12c-0.34262-0.467448-0.37596 0.463282 0 0zm-18.4-0.12c-0.44383-0.336918-0.28182 0.304017 0 0zm12.0695-0.10736c0.12468-0.558625-0.70774 0.404138 0 0zm-1.01751-0.0926c-0.23448-0.404752-0.20906 0.39482 0 0zm-0.22882-0.36c0.49146-0.999702-1.07712 0.567785 0 0zm-3.58318-0.0856c-0.44576-0.560512-0.26452 0.563387 0 0zm10.9355-0.43226c-0.6057-0.637324 0.054 0.953458 0 0zm-5.45554 0.11783c-0.27598-0.551983-0.22148 0.536152 0 0zm20.64 0c-0.19153-0.319609-0.12765 0.297504 0 0zm-16.0147-0.26c-0.16937-0.678801-0.92971 0.780504-0.023 0.112626l0.023-0.112676zm-7.04511-0.0461c-0.0479-0.789703-1.10448-0.401868 0 0zm10.2488-0.48437c-0.43698-0.166719-0.0428 0.530793 0 0zm-8.31418-0.0558c-0.51163-0.274086 0.15528 0.467644 0 0zm11.5652 0.12624c-0.20183-0.306795-0.34284 0.260165 0 0zm5.8-0.28c0.7733-0.502518-1.20105-0.290438-0.44861-1.21631-0.63211-0.91844-1.74511-0.362778-1.5887 0.534298-0.37262 0.47159 0.4758-0.0049 0.51301 0.558369 0.92048-1.07922 0.59592 1.11871 1.5243 0.123641zm-0.96-0.76c0.19153-0.319609 0.12765 0.297504 0 0zm-0.36-0.24c0.33544-0.281891 0.11529 0.28856 0 0zm0.08-0.24c0.42873-0.29384 0.43294 0.185871 0 0zm-0.295-0.0546c0.49505-0.08051-0.14995 0.153382 0 0zm-9.82782 1.2599c0.1804-0.810612-0.64184 0.54966 0 0zm4.75232-0.0438c-0.39763-0.255782-0.44656 0.439765 0 0zm-3.9495-0.0415c-0.37461-0.351547-0.1549 0.324707 0 0zm-6.08-0.12c-0.34261-0.467445-0.37596 0.463282 0 0zm11.9856-0.21918c-0.23627-0.769059-0.77665 0.879274 0 0zm1.17101 0.10471c-0.0402-0.433006-0.64251 0.396746 0 0zm-0.0566-0.24013c0.3402-0.998419-1.23943 0.287121-0.14777 0.01393l0.14777-0.01387zm-5.49839-0.12734c0.35353-0.625638-0.89713 0.459019 0 0zm-1.30637-0.16187c0.29336-0.606275-0.74398 0.4367 0 0zm3.26476-0.11619c-0.41755-0.314856-0.28405 0.321365 0 0zm1.2 0c-0.33544-0.281891-0.11529 0.28856 0 0zm0.97834 0.0317c-0.26062-0.08794-0.21503 0.149245 0 0zm10.2617-0.11166c-0.29458-0.321948-0.30691 0.312954 0 0zm-14.3604-0.15871c-0.0522-1.73766-0.81495 0.703086 0 0zm-1.59959-0.24129c-0.33544-0.281891-0.11529 0.28856 0 0zm3.50274-0.0817c-0.36036-0.349911-0.17165 0.537081 0 0zm10.0573 0.0331c-0.27465-0.182666-0.35172 0.307433 0 0zm-9.29025-0.0234c0.29305-0.47473-0.63817 0.295011 0 0zm6.17025-0.088c-0.19467-0.315515-0.32286 0.325164 0 0zm-3.8-0.2c-0.26699-0.621411-0.20973 0.601535 0 0zm-1.6 0.04c-0.40575-0.315731 0.055 0.280549 0 0zm3.16-0.0447c-0.1759-0.289442-0.15153 0.388972 0 0zm-3.96856-0.0818c0.13876-0.846981-0.90414 0.55249 0 0zm6.68605 0.0665c-0.54756-0.804274-0.91282 0.284206 0 0zm4.19797-0.12c-0.37333-0.698479-0.10056 0.601303-2e-5 1e-5zm2.36517 0.0188c-0.0827-0.762918-0.85031 0.56764 0 0zm-10.3206-0.0788c-0.37461-0.351547-0.1549 0.324707 0 0zm2.44 0c-0.24165-0.32935-0.45104 0.301845 0 0zm16.6996-0.2c-0.1145-0.647311-0.26228 0.624728 0 0zm-9.61958 5e-3c-0.20181-0.313229-0.22031 0.168235 0 0zm5.63539-0.0373c-0.19253-0.170608-0.43777 0.250789 0 0zm-11.903-0.13091c-0.0236-0.599226-0.48174 0.449154 0 0zm0.66761-0.12125c-0.19107-0.299904-0.18054 0.425807 0 0zm10.7055-0.23233c-0.77679-0.347996 0.49136 0.789112 0 4e-5zm-7.65784 0.18782c0.0743-0.397299-0.49951 0.403515 0 0zm10.0723-0.0755c0.85703-0.591002-1.18803-0.462672-0.34202 0.14208 0.0927 0.07936 0.37667 0.02571 0.34202-0.14208zm-1.44039 0.0467c-0.1499-0.68815-1.13206 0.191638-4e-5 -7e-5zm-10.8213-0.13027c-0.26062-0.08794-0.21503 0.149245 0 0zm11.3417-0.0317c-0.0212-0.293391-0.24008 0.269493 0 0zm-8.6-0.08c-0.2154-0.322399-0.18853 0.311471 0 0zm13.5054-0.57c0.47494-0.762778-1.75143-1.05881-0.68196 0.17001-0.0544 0.573969 0.38781 0.354512 0.68196-0.17001zm-3.30537 0.33c-0.12146-0.304647-0.24418 0.253313 0 0zm0.73834 0.0317c-0.26062-0.08794-0.21503 0.149245 0 0zm3.25059-0.0717c1.02297-0.212312-0.98502-1.39251-0.0817-0.252744 0.0454 0.116813-0.70658 0.4698-5e-3 0.330226l0.0872-0.0774zm-19.1649-0.056c0.24469-0.673163-0.7772 0.286433 0 0zm12.9564-0.104c0.58015-0.252255 0.25697-1.14539-0.38708-0.68002-0.39689 0.132262 0.69242 0.314486 0.01 0.444167-0.0636 0.216274 0.38809 0.727025 0.37748 0.235853zm1.91792 0.15166c-0.26062-0.08794-0.21503 0.149245 0 0zm-1.57834-0.19166c-0.19467-0.315515-0.32286 0.325164 0 0zm2.06438-0.20233c-1.09626-0.900479-0.166 0.887738 0 0zm9.23714 0.14985c-0.56665-0.06024-0.0306 0.128997 0 0zm-17.3015-0.26752c-0.29458-0.321948-0.30691 0.312954 0 0zm4.03469-0.0838c-0.72759-0.136442 0.35816 0.329025 0 0zm14.1253 0.0524c-0.53832-0.751805-0.67865 0.481057 0 0zm-11.2986-0.12856c-0.54565-0.475329 0.0224 0.587744 0 0zm1.79523 0.1059c0.13238-0.487563 0.10624-0.928732-0.57618-0.33948 0.13793 0.0094 0.53244 0.567921 0.57618 0.33948zm10.0177-0.17681c-0.31293-0.487184-0.68151 0.282392 0 0zm-2.45028-0.38601c-0.80829-0.541353-0.48507 0.464457 0.172 0.18308-0.0573-0.06103-0.11467-0.122053-0.172-0.18308zm-8.5441 0.0569c-0.71039-0.636099-0.38218 0.3796 0 0zm4.116-0.089c-0.42623-0.33263-0.72264 0.433434 0 0zm-5.116-0.071c-0.41755-0.314856-0.28405 0.321365 0 0zm2.8-0.08c-0.15786-0.291664 0.7665-0.146461 0.12469-0.669317-0.96921-0.812672-0.68747 1.13064-0.12469 0.669317zm1.47878 0.02c-0.5233-0.597888-0.62401-0.146872-0.0252 0.05394l0.0252-0.05393zm-5.46044-0.0683c-0.26062-0.08794-0.21503 0.149245 0 0zm0.94637-0.0691c0.23413-0.237508-1.53436-0.63414-0.5648 0.049 0.17838 0.08648 0.40546 0.07364 0.5648-0.049zm2.27101-0.67455c-0.0489-0.64237-1.57198 0.16957-0.31204 0.148256l0.19263-0.04729 0.11941-0.10098zm1.20177 0.012c-0.34987-0.627218-1.44061 0.01322 0 0zm0.6768-0.0657c0.38763-0.648706-1.03182 0.06322-0.0964 0.08513l0.0964-0.08514zm0.42405-3e-3c-0.26062-0.08794-0.21503 0.149245 0 0zm5.74166-0.0317c-0.10786-0.298846-0.33561 0.286674 0 0zm-10.64-0.08c-0.10786-0.298846-0.33561 0.286674 0 0zm3.9727-0.34603c0.60194-0.917181-0.84487 0.295621-5e-5 -3e-5zm0.84412-0.054c0.042-0.214489 1.46929 0.0836 0.62318-0.15982-0.42956 0.165689-0.11325-0.659191-0.56919-0.176288-0.88696-0.400438-0.50257 0.915891-0.054 0.336108zm5.66318 0.08c-0.0212-0.293391-0.24008 0.269493 0 0zm-8.08-0.08c-0.0342-0.358445-0.51725 0.359671 0 0zm0.64834-0.13833c-0.33255-0.0683 0.1582 0.451833 0 0zm-68.8883-17.9416c-0.40573-0.315611 0.0551 0.280513 0 0zm-78.12-1.59749c-0.24448-0.176904-0.36221 0.279525 0 0zm60.8335-2.37107c0.55574-0.780192 1.12065-1.55969 1.73915-2.35408 0.6277-0.994402 1.4868-1.74379 2.15672-2.71121 0.68688-0.847747 1.68859-1.45929 2.34592-2.27749 0.60743-0.801459 1.07871-1.64744 1.42307-2.6472 0.30392-0.693828 1.08143-2.1632 0.5441-2.64553-1.18019 0.417307-1.88229 1.6027-2.83817 2.37409-0.71031 0.819297-1.52282 1.50933-2.10327 2.45161-0.91647 0.973395-1.50979 2.18335-2.28602 3.24837-0.46202 1.10747-1.04828 2.21304-1.29095 3.42914-0.0889 0.291747-0.35931 1.45055 0.30945 1.13231zm19.0065-0.238107c-0.22785-0.326706-0.25057 0.416062 0 0zm-71.9469-3.83857c0.92527-0.769117 1.82466-1.66534 2.8077-2.33634 0.55559-0.819446 1.36537-1.38043 2.08792-2.0469 0.74391-0.748726 1.64017-1.34206 2.26538-2.1719 0.86995-0.814839 1.60885-1.76058 2.47629-2.58767 0.90907-1.01037 1.79392-2.03533 2.4734-3.21197 0.50151-0.966954 1.14818-2.09088 0.72819-3.20011-0.26396-1.17306-1.62802-1.58421-2.66053-1.3155-1.21094 0.186313-2.11362 1.15741-3.00757 1.9459-0.75574 0.94181-1.67024 1.78786-2.34499 2.8097-1.84825 1.99239-3.04105 4.48704-3.95982 7.0255-0.61079 1.41722-0.99391 2.91466-1.31741 4.41808-0.0978 0.331035-0.0741 1.37707 0.45144 0.671191zm26.7069-1.27477c-0.45465-0.434509-0.48083 0.424624 0 0zm57.4-5.8c-0.24336-0.522899-0.21215 0.539421 0 0zm23.22-3.41298c-0.49782-0.07936-6e-3 0.138414 0 0zm-34.18-17.627c-0.2154-0.322399-0.18853 0.311471 0 0zm-47.96 76.48c0.0606-0.7667 0.59337 0.34669 0 0zm0.16704-1.02999c0.0293-0.87101 0.38459-0.69508 0 0zm0.0885-1.42117c3e-3 -0.58423 0.42358 0.2251 0 0zm-5.09554-2.59356c0.16261-0.175628 0.18114 0.267659 0 0zm0.32-1.67528c0.2154-0.322399 0.18853 0.311471 0 0zm0.08-0.35528c0.16286-0.398522 0.16431 0.283364 0 0zm3.12-2.68472c0.2154-0.322399 0.18853 0.311471 0 0zm94.092-9.356c0.26455-0.299649 0.0803 0.243382 0 0zm31.3396-0.99387c-0.08-0.412426-0.75491-0.629839-5e-3 -0.90287-0.55065-0.210648-0.15063-1.45276 0.37752-0.50432 0.18866 0.993805 1.73333 0.63406 1.42144 0.116118 0.92175 0.08009-0.18252 1.05821-0.0958 1.06598-0.75699-0.103227-1.23562-0.14735-1.69861 0.22509zm0.59458-0.58296c-0.41815-0.709505-0.35762 0.139271 0 0zm-0.58616-0.66717c-0.2154-0.322399-0.18853 0.311471 0 0zm2.37107 0.52c0.42759-0.412368 0.11436 0.393093 0 0zm-8.31556-0.17116c-0.0631-0.391252 0.50029 0.158519 0 0zm6.90449-0.10884c0.2154-0.322399 0.18853 0.311471 0 0zm2.04 0c0.57327-0.332998 0.25824 0.313336 0 0zm-4.52-0.24c0.29458-0.321948 0.30691 0.312954 0 0zm2.28-0.16c0.10786-0.298846 0.33561 0.286674 0 0zm-2.00446-0.29796c-0.42884-1.15232 0.74027 0.168952 0 0zm-3.63473-0.0134c-0.49871-0.397761 0.77006 0.221112 0 0zm-1.16-0.40992c0.31608-0.17919 0.16349 0.297381 0 0zm5.57661-0.0911c0.42788-0.469708 0.25934 0.30409 0 0zm-2.4162-0.37512c0.23976-0.08071-0.0656-0.431663 0.0892-0.810744-0.88246-0.618813 1.18343-0.454858 1.54741-0.421426 1.36737-0.08892-1.10314 0.183768-0.65382 0.474925-1.05763-0.360275-0.40164 1.32622-0.98279 0.757245zm-3.08122-0.0925c0.12146-0.304647 0.24418 0.253313 0 0zm1.12342-0.0745c0.021-0.427451 0.27424 0.256514 0 0zm-0.55486-0.13205c-0.0523-0.602062 0.63728 0.395706-4e-5 6e-5zm0.49144-0.41076c-0.68993-0.432186 1.11818 0.05457 0 0zm4.0319-0.0137c0.17961-0.363414 0.62919 0.183336 0-1e-5zm-3.6119-0.27972c0.4211-0.262699 0.29778 0.1421 0 0zm3.95954-0.43645c0.14858-0.477695 0.89606 0.143466 0-2e-5zm-301.892-1.70663c-0.899908-0.592036-1.99706-0.743692-2.73325-1.58966-0.417676-1.06321-0.951159-2.0592-0.897668-3.23652-0.0024383-0.982279-0.403362-1.94825-0.254867-2.52004-0.330448-0.684793 0.246694-1.26612 0.0091434-1.87778-0.132603-1.03672 0.101862-2.04382-0.11886-3.18262 0.294231-1.12192-0.157293-2.20953 0.0865162-3.33342 0.234559-1.23784-0.0252562-2.41511 0.345614-3.62902 0.384472-1.00112-0.118997-2.0674 0.0960596-3.19706-0.0732469-1.38748 0.170783-2.79326 0.0126871-4.16465-0.013334-0.960429 0.373984-1.86994 0.264055-2.81815-0.238018-1.18309 0.26697-2.12943 0.136876-3.33798-0.160973-1.58076-0.24738-3.20024 0.075303-4.76241-0.190303-1.20703-0.18246-2.50138-0.171037-3.7012-0.363993-0.553757 0.0877026-1.63882-0.111518-2.51568 0.05215-1.19582-0.049442-2.43389-0.08582-3.60145 0.082638-1.26034-0.20224-2.56311-8.4e-4 -3.83855-0.279094-1.29989-0.191845-2.65231-0.255963-3.95721-0.0250487-1.10271-0.0044416-2.23502-0.457687-3.23866 0.0033156-0.711421-0.685361-0.905408-0.29544-1.54282-0.455643-0.16112-0.0236062-0.814307-0.387717-1.13144 0.818048-0.452933 0.250377-1.70091 1.27468-2.13842 0.567661-1.03083 1.84155-0.889418 2.93893-0.917916 0.929339 0.198954 1.63724 1.06277 2.61165 1.41063 0.445543 1.04859 1.72014 1.4344 1.81838 2.70397-0.15146 1.17464 0.293624 2.33084-0.01264 3.51788 0.02213 1.79445 0.131335 3.59473 0.103431 5.39034 0.07479 1.2065-0.07114 2.51562 0.122179 3.73685-0.1783 1.26068 0.07595 2.5216-0.03334 3.77962 0.249097 1.27582 0.0528 2.67276 0.0646 4.03591 0.10549 1.20113-0.06344 2.41831-0.06851 3.59972 0.08418 1.89685 0.03955 3.80946-0.07333 5.70574-0.191382 1.20258 0.02714 2.4064-0.116634 3.58368-0.102096 1.37577-0.07817 2.75911-0.19606 4.12202 0.149456 1.15463-0.06133 2.26962-0.123156 3.44677 0.08243 1.35718-0.415172 2.61882-0.274622 4.0401-0.07622 1.66034-0.313336 3.31513-0.34312 4.97322-0.07593 1.17962 0.11186 2.34476 0.01571 3.53568 0.143207 1.0588 0.0018 2.19612 0.508317 3.13258 0.118479 1.01226 0.440094 2.52846-0.718034 2.74187-0.986945-0.08766-1.70113 1.76244-2.75401 0.776077zm29.5883-4.17461c-1.03921-0.669087-2.27847-1.03568-3.17981-1.92612-0.583741-1.04546-0.946016-2.18817-1.32101-3.30751-0.392269-1.15876-0.864493-2.28945-0.986458-3.52921-0.260193-1.17808-0.513069-2.10217-0.565594-3.3586-0.252167-1.28423-0.186788-2.61795-0.40874-3.90248-0.123212-1.31318-0.165385-2.60565-0.265954-3.93365 0.01329-1.38326-0.134071-2.75624 0.06553-4.13401 0.04772-1.3914 0.382393-2.69351 0.708565-4.01838 0.190398-1.1933 0.548997-2.35984 0.604368-3.65004-0.02761-1.19274 0.827296-2.1855 1.37218-3.08068 0.667976 0.22058 1.36181-0.780247 2.16075-0.179743 1.24076-0.164986 1.88212 0.942383 2.85316 1.21611 0.393453 1.01798 1.67788 1.86701 1.1384 3.203 0.07547 1.15765-0.754666 2.07821-0.644668 3.2802-0.668689 1.07405-0.532337 2.45718-0.8733 3.66532-0.05091 1.1175-0.262345 2.13624-0.38962 3.27034 0.07375 1.27244 0.03968 2.59974 0.268321 3.76917 0.682111-0.739969 0.883968-2.3224 1.35277-3.39529 0.301785-1.17971 0.828527-2.07274 1.04504-3.12 0.334328-1.08843 0.695586-2.13461 1.0353-3.20033 0.378163-0.811429 0.625608-1.72599 1.05149-2.36476 0.255168-1.00322 0.904936-1.73262 0.997238-2.80548 0.309732-1.07939 0.940483-2.00381 1.45782-2.86912 0.593732-0.934028 1.26094-1.85814 2.0896-2.6289 0.487516-1.00521 1.63678-1.47311 2.3727-2.16391 1.05691 0.274023 2.46926-0.407919 3.34341 0.732603 0.896297 0.864164 1.88476 1.75789 2.42926 2.91788 0.557723 1.10493 0.721364 2.33422 1.03482 3.51466 0.308753 1.31972 0.426474 2.65469 0.647507 4.00845 0.313895 1.06696 0.531105 2.11173 0.426226 3.25766 2e-3 1.18372 0.126554 2.2593 0.142837 3.44563 0.150586 0.907002 0.584503-0.923609 0.867736-1.21017 0.370822-0.913107 1.00734-1.79124 1.08562-2.81897 0.617142-0.819679 0.828479-1.86858 1.19419-2.73809 0.18263-1.19942 1.07816-2.1609 1.39293-3.34391 0.736041-0.95894 0.874509-2.10931 1.55276-3.09164 0.677025-0.968214 1.28595-2.06964 2.36962-2.65228 0.771856-0.638406 1.80588-0.530372 2.8122-0.378244 1.41253 0.08173 1.97952 1.60026 3.06321 2.25382 0.813597 1.20921 0.702463 2.73202 0.99321 4.11306-0.0054 1.21537 0.308102 2.3826 0.273235 3.59552 0.078 1.09065 0.176118 2.20131 0.225811 3.31697 0.117948 1.34386-0.02444 2.70979 0.102615 4.06666-0.01718 1.71445-0.106339 3.44052-0.101076 5.1469 0.387114 1.27514 0.154999 2.6585 0.634503 3.90224 0.142663 1.25644 0.938946 2.32464 1.40544 3.45325 0.805812 0.851192 1.03827 2.06055 1.60678 3.01035 0.242261 0.712556 0.437997 0.971966-0.306988 1.30801-0.747291 1.14394-2.26123 1.2042-3.40167 0.733348-0.970814-0.591119-2.08307-0.991209-2.87484-1.86419-0.770468-0.637621-1.51804-1.48513-1.92001-2.41916-0.5404-0.878713-1.01765-1.79618-1.40391-2.80223-0.444286-1.20971-0.754208-2.46692-0.787583-3.76685-0.572173-1.92468-0.160802-3.94896-0.441527-5.90899-0.02628-1.12516 0.0793-2.35462-0.238469-3.4545-0.260395-1.25984-0.762427 1.04116-0.919582 1.50421-0.234351 1.19633-1.40529 1.94259-1.41214 3.23947-0.694234 1.23755-0.843411 2.65183-1.51574 3.91802-0.57915 1.12046-0.967371 2.29418-1.44351 3.46568-0.281185 1.12033-0.931271 2.11966-1.01302 3.3023-0.288319 1.10381-0.309358 2.5613-1.70568 2.84775-1.05153 0.524538-2.34233 1.05373-3.5196 0.627225-0.360923-0.706303-1.39021-0.461276-1.83162-1.24037-0.988546-0.59941-0.880617-2.04891-1.25186-3.06246-0.396795-2.00866-0.766793-4.03501-0.795838-6.09459 0.08085-1.21815-0.211553-2.3597-0.178361-3.58799 0.04201-1.3454 0.03772-2.66691 0.03595-4.00476-0.106297-1.9282-0.145761-3.86488-0.411823-5.77725-0.618828-1.72907-1.26376 1.13814-1.51724 1.81208-0.290731 1.17615-0.846325 2.2541-1.12155 3.4421-0.310055 1.09419-0.591476 2.2415-1.17615 3.24601-0.172749 1.19284-0.627973 2.31487-0.802424 3.52591-0.272995 1.16038-0.590062 2.31005-0.798059 3.49696-0.187707 1.12236-0.901972 2.19123-1.10606 3.3616-0.603795 0.785474-0.423731 1.92034-0.889267 2.64187-0.683741 0.822936-0.208802 1.88385-0.7945 2.73096 0.470336 0.776644-0.0032 1.71855-0.431317 2.44976-0.722557 0.861228-2.12902 0.536997-2.9343 1.16194-0.183018-0.03813-0.357021-0.107342-0.532227-0.170085zm152.625-24.4529c0.3161-0.17916 0.16345 0.297404 0 0zm-166.707-8.53203c-0.736559-0.59921 0.330101-1.35511-0.210266-1.8122-0.628288 0.549277-0.628264 1.10318-1.08078 0.05995-0.416156-1.05214-1.473 1.12058-1.19093-0.197655 0.178301-0.520904 0.05018-1.01318 0.445182-1.53571-0.300218-0.795714 0.371899-1.97954 0.318282-2.7281 0.474644-0.50478 0.310705-1.40063 0.648682-2.02088 0.147614-1.05539 0.699844-1.41923 0.846808-2.4632 0.701443-0.955835 0.648155-2.19996 1.21726-3.26257 0.457466-0.827458 0.810693-1.5718 1.14856-2.4663 0.537165-1.19485 1.22962-2.32357 1.6126-3.58597 0.39282-1.23835 1.03781-2.37627 1.28679-3.67122 0.467164-0.897898 0.170456-1.94452 0.258773-2.79324 0.877158-0.181662 0.694459-1.6983 1.78959-1.47231 0.881233-0.739689 1.75834-0.499627 2.71102-0.507655 1.25463 0.160101 2.19219 0.745898 3.00898 1.62179 0.487531 0.942104 1.25949 2.02038 0.949437 3.19032-0.131906 1.14111-1.1412 1.7711-1.40222 2.88148-0.475851 1.01734-1.05247 2.06014-1.41809 3.18204-0.704769 0.980525-0.994349 2.20222-1.76136 3.14705-0.399692 0.978501-0.980129 1.91817-1.39405 2.93028-0.43097 1.19576-1.1133 2.127-1.618 3.29468-0.399605 1.14189-1.06671 2.1943-1.4434 3.30676-0.691286 0.869766-1.27965 1.91665-1.73619 2.99435-0.348803 0.684013-1.35614 0.03707-1.42603 1.11227-0.211275 0.458026-0.61119 0.701055-0.686837 0.176148-0.356441 0.05513-0.53659 0.703988-0.873807 0.619903zm-1.60134-0.783888c-0.470348-0.727984 0.156983-1.03843 0.472517-0.225631 0.05268 0.322997-0.255792 0.436551-0.472517 0.225631zm228.728-1.85576c0.49782-0.07936 6e-3 0.138414 0 0zm-35.66-14.587c0.43328-0.330396-1.2143 0.253045-1.4646-0.418923-0.73796-1.06787-1.99351-1.5708-2.54982-2.6981-0.68201-0.793003-2.13701-0.631696-2.36997-1.55946-0.96643-0.451643-0.57195-1.5671-1.64136-1.67796-0.79639-0.830354-0.71128-2.11018-0.89211-3.13402 0.18857-0.812821 0.7617-1.56411 1.63818-1.97529 1.05395-0.136106 2.42154-0.03661 3.28 0.269845 0.5057 0.215611 2.19104 0.420433 2.2847 1.53664 0.61712 0.477012 1.53287 1.42985 1.34631 2.30552 0.55683 1.03962 0.54478 2.26103 1.47047 3.11443 0.49383 0.925001 1.08568 2.84466 0.24133 3.47868-0.86913-0.402769-0.49075 1.02531-1.34313 0.758649zm-211.48-4.72c0.021118-0.293387 0.240125 0.269502 0 0z"/>
  <path d="m95.3186-4.72532c-0.948772-0.458493-1.38738-1.57854-1.71491-2.3311-0.564621-0.8253-1.11243-1.87442-1.28276-2.66844-0.495082-0.951713-0.928287-2.00658-1.2745-3.07879-0.295346-1.03738-0.633743-2.08328-0.987718-3.11112 0.531258-0.220308 0.659099-1.49625-0.06115-1.00065-0.357147-0.714314-0.939973-2.4231-0.6792-2.76072 0.917427 0.645567 0.04768-1.37632-0.355611-1.36009 0.507386-0.210589 0.392379-1.7766-0.273688-1.31901 0.0047-0.664374-0.343481-0.987082 0.178052-1.50958-1.11438-0.484479 0.02693-1.23624-0.547374-1.96115-0.960707-0.639169-0.520618-2.13284-0.790609-3.06399-0.359343-1.08529-0.432633-2.54946-0.580422-3.79385-0.08443-1.20552-0.243487-2.4061-0.361528-3.57595 0.178556-1.11496-0.5604-2.23405-1.592-1.22438-1.23716 0.687628-2.13234 1.71042-3.4437 2.2924-1.06364 0.630983-2.24855 0.98235-3.32386 1.60896-0.995981 0.720746-3.06879 0.444119-3.2086 1.99186 0.0554 1.23454 0.169291 2.47252 0.03263 3.66359 0.12452 1.13657 0.462424 2.26826 0.444723 3.44743-0.260105 1.20668 0.370585 2.34732 0.277434 3.56396 0.142079 1.24801 0.151703 2.50312 0.407657 3.73675 0.06473 1.14838 0.220963 2.21319-0.09192 3.34456-0.187045 0.861173-0.04062 1.97382-1.01165 2.04-0.414926 1.00078-1.44464 2.18113-2.56696 2.06707-0.465324 0.59925-2.51958 0.693762-1.95696-0.465816-0.438056 0.348245-0.311256-0.924028-0.31107-1.20877 0.472293-1.64879-0.07016-3.33084-0.19142-4.9854 0.132825-1.03233-0.409037-1.85156-0.42296-2.88702-0.111916-1.17022-0.206949-2.16304-0.43484-3.40774-0.0581-0.937575-0.23214-2.12932-0.454964-3.24379 0.15802-1.11119-0.482741-2.18134-0.228946-3.33166-0.09131-1.8142-2.39379-0.118523-3.4724-0.249719-1.09248 0.369758-2.24056 0.540317-3.34352 0.895014-1.2309 0.258595-2.43938 0.555984-3.66342 0.823155-1.06472 0.443242-2.41133 0.540283-3.22816 1.36113-1.12764 0.177439-1.8502 1.3775-3.01257 1.35041-0.83418 0.113706-1.37031 0.0504-2.10729-0.03737-0.578131-0.529657-1.41161-0.666771-1.56407-1.51945-0.599859-0.791035-0.119981-1.52099-0.05016-2.19987 0.08049-0.828613 0.871912-1.43348 1.23631-1.98776 0.819433-0.721246 1.72827-1.20731 2.82095-1.51026 1.23998-0.40746 2.38342-1.09547 3.70969-1.1923 1.28018-0.405322 2.45265-0.677132 3.81748-0.832794 1.22726-0.520329 2.45495-0.483579 3.69161-0.882787 1.47837-0.293725 2.96294-0.6115 4.40227-1.00121 0.824442-0.766827 0.311304-2.1823 0.440499-3.21946-0.151566-1.17413 0.01081-2.27708 0.0016-3.44869 0.01343-2.47989 0.17207-4.95749 0.09212-7.43675 0.128541-1.55272 0.145534-3.12085 0.05869-4.67357 0.212158-1.40421 0.02063-2.89227 0.08083-4.33536-0.06955-2.34522 0.214181-4.68918 0.05588-7.03099 0.139899-1.13586 0.116076-2.37479-0.09404-3.49758 0.369941-0.719272-0.941542-1.65376-0.04629-2.0797-0.294562-0.692528 0.589404-1.6959 0.96985-2.4779 0.795556-0.878883 2.29159-1.35129 3.23306-0.36782 0.511323 0.594792 1.73843 0.762987 1.7346 1.49488 0.930904 0.857438 1.31815 2.12256 1.39475 3.37645 0.138401 1.14809 0.123783 2.21546 0.0229 3.35514-0.16443 3.65569-0.423851 7.31297-0.275325 10.9742-0.109274 1.38855-0.09884 2.6965-0.154837 4.09901 0.04988 1.24931-0.294561 2.53902 0.01697 3.75945-0.354949 1.068-0.07806 2.07724-0.198439 3.18844-0.04743 1.77589-0.0554 3.56538-0.08527 5.33357 0.826023 0.934132 2.19636-0.730901 3.2013-0.901652 1.17913-0.835688 2.6131-1.20429 3.68159-2.24102 1.05417-0.5685 1.86528-1.5308 2.87481-2.16381 0.957153-0.86987 1.87625-1.61551 1.44263-3.05968 0.07303-1.33231-0.08578-2.63351-0.0686-3.91295 0.01305-2.48433-0.03106-4.97172 0.143479-7.45433-4.9e-5 -1.86949 0.163648-3.72963 0.422744-5.57829-0.01749-1.53237 0.480509-2.99082 0.624623-4.5007 0.277146-1.13272 0.510259-2.30294 0.702483-3.46555 0.35549-1.11793 0.772685-2.28194 1.53386-3.22821 0.767769-0.686357 1.87679-1.72836 3.04493-1.3514 1.51322 0.249751 2.84015 1.12336 3.82466 2.28433 0.628486 1.01809 1.57835 1.94541 1.99744 3.01354 0.53676 1.24932 0.925095 2.54495 1.41654 3.80732 0.470591 1.29463 0.622651 2.64566 0.855531 3.99922-0.27549 1.17161 0.1619 2.42276-0.0843 3.61132-0.14992 0.953175-0.16419 1.91302-0.48825 2.85528-0.130602 1.15904-0.632852 2.19506-1.06196 3.28175-0.349566 1.02788-0.949411 1.96538-1.42452 2.97241-0.437045 1.16348-1.28873 2.00243-1.84717 3.10902-0.485269 1.20794-1.65841 1.88042-2.27641 3.00808-0.598186 1.14651-0.244068 2.53828-0.328253 3.78878 0.06137 2.22463 0.01327 4.45996 0.320125 6.66562-0.04342 1.34075 0.314119 2.62852 0.420997 3.93538 0.231228 1.52125 0.279631 3.08544 0.676789 4.57076 0.279481 1.29439 0.380328 2.67273 0.748177 3.97147 0.164739 1.15062 0.483823 2.28775 0.643783 3.41616 0.310016 1.15802 0.458493 2.35606 0.91942 3.47998 0.289142 1.11022 0.663549 2.20978 0.88544 3.31911 0.513641 1.21344 1.08868 2.49285 1.41806 3.74673-0.04303 0.677528 0.729265 1.91318 0.30145 2.24628-1.00498-0.90004-0.765977 1.6651-1.9774 1.26151-0.61453 0.694437-1.40876-0.617471-1.74553 0.217245-0.169859-0.035973-0.323796-0.117573-0.473956-0.200765zm-25.96-20.029c-0.121465-0.304647-0.244182 0.253313 0 0zm24.175-31.374c0.416809-1.18645 1.14242-1.95436 1.1059-3.21577 0.164782-1.18456 0.585148-2.33417 0.450651-3.51167-0.211535-1.26437 0.107432-2.66953-0.605089-3.81171-0.270921-1.53537-0.88377 0.833095-0.805141 1.42547-0.205266 1.31512-0.394916 2.65168-0.404349 4.00382-0.216105 1.69898-0.173742 3.43398-0.09938 5.14377 0.05326 0.236635 0.277781 0.07529 0.357409-0.03391zm38.327 46.29c-0.50356-0.109206-1.17655-0.380836-1.47027-0.431892 0.43909-0.264707-1.32209-1.12957-0.979-1.87334-0.76001-0.428805-0.20558-1.87294 0.18653-2.58892 0.46561-0.694376 1.17954-1.11819 1.73442-1.69431 1.09172 0.08073 2.30657-0.285347 3.26744 0.364739 0.60586 0.902341 1.36655 1.47504 2.01494 2.46509 0.1179 0.927781-0.15733 1.66061-0.34402 2.35808-0.91241 0.933567-1.91147 1.30747-3.17132 1.32238-0.40911 0.049629-0.82593 0.122486-1.23872 0.078175zm-21.429-2.7906c-1.2461-0.282323-2.3367-1.10094-2.98934-2.24977-0.3735-1.12638-1.51044-1.98994-1.50461-3.22128-0.40059-1.21807-0.97429-2.35441-1.15739-3.6559 0.0672-0.966074-0.35954-1.90104-0.5512-2.93598-0.16498-1.29522-0.17035-2.56098-0.16804-3.8493-0.17232-1.24211 0.17601-2.25391 0.12577-3.4756 0.24298-1.32737 0.18424-2.63745 0.7097-3.88461 0.10371-1.21498 0.42618-2.40566 0.72288-3.59016 0.25371-1.26089 0.38744-2.56076 0.5352-3.83998 0.0318-1.15402 0.25944-2.42087 0.6758-3.53379 0.59119-0.714003 1.01638-1.65846 2.17925-1.70288 1.19101-0.23339 2.58687 0.01649 3.18406 1.17102 0.82838 0.807758 1.82891 2.01792 1.16614 3.20722-0.37795 1.25114-0.64097 2.51164-0.68522 3.81585-0.34229 1.17897-0.21327 2.31593-0.64677 3.51037-0.37809 1.57578-0.4459 3.1977-0.89842 4.74877-0.4433 2.5734-0.39993 5.23549 0.0287 7.80734-0.061 0.967593 0.20847 2.10968 0.51078 3.1127 0.13104 1.27428 0.63313 2.47542 1.12544 3.62445 0.0221 1.0245 0.38217 2.19227 0.55261 3.21651-1.29581 0.09875-1.3664 2.04953-2.91585 1.72494zm20.244-33.902c-0.54492-1.17837-0.22185-2.19909-0.68962-3.34046-0.0971-1.28753-0.34881-2.53858-0.39328-3.84513-0.0859-1.34238-0.26443-2.52283-0.4552-3.83298-0.31227-1.33641-0.17718-2.7288-0.42206-4.07428-0.088-1.18607-0.22192-2.36979-0.30178-3.56409-0.32591-2.373-0.3514-4.78763-0.23615-7.18404 0.28479-1.18658-2e-3 -2.53017 0.14719-3.78258 0.0934-1.24981-0.095-2.5178 0.0791-3.74678-0.15292-1.13048-0.055-2.36581 0.68683-3.23984 0.87239-0.732001 1.79372-1.49009 2.89045-0.743325 1.31498-0.122496 1.97067 1.17674 2.74169 2.013 0.68094 0.930802 0.54221 2.14093 0.51329 3.2765-0.10676 2.99617-0.12207 5.99314-0.39329 8.98132-0.12738 1.27277-0.0678 2.5032 0.054 3.77175-0.0235 1.40482 0.21303 2.71961 0.16031 4.10198 0.0495 1.19419 0.17909 2.28579 0.27985 3.49878-0.0832 1.64012 0.14094 3.34 0.0279 5.0056 0.16025 1.23448-0.12892 2.40943-0.29583 3.59551-1.15746-0.747461-1.02958 1.30886-1.34759 2.09292-0.29443 0.628027-0.70816 0.800589-1.24022 0.786836-0.20886 0.440919-0.52573-0.99642-0.68184 0.05827 5.9e-4 0.351094-1.07598 0.631588-1.12379 0.17106zm1.4647-0.83136c-5e-3 -0.747634-0.59096 0.212319 0 0zm2.5172-2.7273c-0.29843-0.531411-0.34518 0.400717 0 0zm-28.051-22.506c-0.85941-0.540394-1.90452-0.899356-2.53496-1.72761-0.65355-0.810892-1.35179-2.20946-0.67232-3.15382 0.71137-0.610528 1.28297-1.75088 2.34857-1.76214 1.35283-0.3769 2.45578 0.245288 3.51873 0.92075 1.14141 0.661213 1.8652 1.8777 2.35807 3.03827 0.61749 1.45969-1.50742 2.11243-2.6109 2.47383-0.75935 0.217089-1.6234 0.49086-2.40719 0.210723z"/>
 </g>
</svg>
