<?xml version="1.0" encoding="UTF-8"?>
<svg width="202.23" height="100.27" version="1.1" viewBox="0 0 202.23 100.27" xmlns="http://www.w3.org/2000/svg" xmlns:cc="http://creativecommons.org/ns#" xmlns:dc="http://purl.org/dc/elements/1.1/" xmlns:rdf="http://www.w3.org/1999/02/22-rdf-syntax-ns#">
 <metadata>
  <rdf:RDF>
   <cc:Work rdf:about="">
    <dc:format>image/svg+xml</dc:format>
    <dc:type rdf:resource="http://purl.org/dc/dcmitype/StillImage"/>
    <dc:title/>
   </cc:Work>
  </rdf:RDF>
 </metadata>
 <g transform="translate(5.8062 7.0104)">
  <path d="m55.571 77.121c-0.48788-0.39708-1.0452-0.29878-1.5956-0.48957-0.47988-0.44787-1.0012-0.78072-1.471-1.2506-0.42239-0.53229-0.86471-1.0699-1.2643-1.6155-0.06797-0.3787-0.37528-0.74562-0.39644-1.1937-0.41744-0.56939-0.58489-1.2797-0.80566-1.9436-0.15143-0.69447-0.46649-1.3461-0.5572-2.0623-0.27148-0.68096-0.23691-1.4331-0.49691-2.1153-0.07467-0.63806-0.16755-1.2693-0.27872-1.9011-0.20068-1.1244-0.34415-2.2579-0.36867-3.401-0.0508-0.59893-0.18503-1.185-0.27372-1.7866-0.06318-0.67534-0.05505-1.3646-0.19385-2.0263 0.02237-0.583-0.01913-1.0598-0.07494-1.6217-0.03253-0.50535-0.0647-0.9616 0.03369-1.4112-0.21601-0.8494-0.20722-1.7476-0.22858-2.6223-0.0526-2.9103 0.04631-5.8219-4.38e-4 -8.7327-0.02178-0.96286 0.0775-1.9354-0.03834-2.8919-0.41638-0.25869-0.99892 0.47664-1.3399 0.74862-0.50501 0.34029-0.98039 0.60878-1.3285 1.1283-0.51558 0.30148-0.94217 0.74667-1.4419 1.06-0.56167 0.23551-0.99944 0.64851-1.509 0.97069-0.62887 0.31565-1.2742 0.58655-1.9049 0.90398-0.59281 0.27683-1.1735 0.61436-1.7692 0.83506-0.6641 0.29051-1.3421 0.52186-2.028 0.74018-0.53769 0.36842-1.5268 0.23748-1.7285 0.94907 0.0622 0.61579 0.02764 1.1303 0.12374 1.7351-0.1182 0.56237 0.17152 1.1776-0.11661 1.6745 0.05164 0.6178 0.27334 1.2724 0.2131 1.9419 0.05196 1.0314 0.0017 2.0737 0.15108 3.0966 0.07771 0.72192 0.20779 1.4761 0.22833 2.2271 0.04308 1.3067 0.33172 2.6038 0.22291 3.9162-0.06172 0.6632 0.22836 1.2858 0.19251 1.954 0.1242 2.1305 0.09851 4.266 0.08638 6.3984-0.04773 0.88314-0.28322 1.742-0.53219 2.5836-0.29245 0.57162-0.94531 0.64827-1.4983 0.798-0.57097 0.0409-1.2478 0.20057-1.7372-0.18434-0.5799-0.26416-1.1275-0.55889-1.6848-0.88414-0.5201-0.24789-0.99844-0.73916-1.0656-1.2971 0.04645-0.35552-0.62132-0.57383-0.17384-0.95415 0.01032-0.70078 0.986-0.8207 0.91501-1.6094 0.16955-1.3003 0.03635-2.6113 0.01373-3.9167-0.01953-0.45882-0.33537-0.76826-0.11845-1.2108-0.28398-0.79327-0.15621-1.6619-0.27862-2.486-0.14554-1.4092-0.18285-2.8315-0.39429-4.2329-0.18221-0.59058-0.02828-1.232-0.1159-1.8424-0.02323-0.83921-0.165-1.6666-0.21662-2.5026-0.10272-0.56507-0.05096-1.1544-0.28578-1.7291 0.10436-0.59974 0.15915-1.4139-0.1763-1.9179-0.60229-0.05964-1.2207-0.02308-1.7471 0.25917-0.58511 0.06063-1.1668 0.11394-1.7521 0.15984-0.80296 0.3493-1.7137 0.34188-2.5594 0.55085-0.87222 0.1404-1.6916 0.52747-2.5825 0.55084-0.58421 0.21701-1.2171 0.227-1.8242 0.36626-0.55223 0.16764-0.93049 0.44662-1.4592 0.59839-0.62237 0.02134-1.2545-0.03045-1.8713 0.03502 0.61806 0.33345-0.56322 0.18749-0.69098-0.06382-0.56248 0.16212-1.1932-0.14327-0.95905-0.74401-0.53553 0.0293-0.76765-0.68851-1.3339-0.63332-0.2275-0.25999-0.10836-0.84366-0.64479-0.75537-0.43785-0.30804 0.08867-0.85074-0.4257-1.0383-0.3133-0.39903-0.13384-0.86983-0.21865-1.2805 0.42344-0.45833 0.36874-0.94758 0.8977-1.2982 0.06297-0.4083 0.58871-0.17046 0.59761-0.53714 0.60697 0.27762 1.1639-0.51861 1.694-0.36784 0.21702 0.03848 0.46066 0.5096 0.64666 0.26625 0.25268-0.37302 0.62775 0.04432 1.0429-0.20093 0.39363 0.2904 0.92623-0.01286 1.3991-0.011 0.55021-0.3091 1.1152-0.31607 1.7222-0.20485 0.6463-0.15695 1.3003-0.23272 1.9484-0.38776 0.91637-0.19517 1.8897-0.05093 2.7736-0.41002 1.0789-0.22892 2.1849-0.354 3.2255-0.73385 0.71914-0.1747 1.6025-0.09149 2.1125-0.72669 0.06438-0.37867 0.01952-0.80345 0.04176-1.1999 0.03258-1.8626 0.01478-3.7265 0.01995-5.5884-0.10772-0.61463-0.18787-1.2604 0.0071-1.8654 0.13326-0.6449 0.048-1.2799-0.01993-1.9146 0.17806-0.63753-0.05971-1.3113 0.18078-1.9424-0.01242-0.61812-0.15329-1.2511-0.09541-1.8866 7.77e-4 -0.98 0.1084-1.9658 0.01499-2.9427 0.12701-0.56848-0.01941-1.1709-0.02621-1.7623-0.0081-0.83757-0.0381-1.6828 0.07687-2.5139-0.17077-0.47148 0.06772-1.101-0.34369-1.5287 0.23994-0.68406 0.09402-1.4601-0.2041-2.1042-0.13433-0.55131 0.10163-1.2596-0.32519-1.7001 0.12741-0.58796 0.26479-1.2841 0.54657-1.7992 0.45335-0.31385 0.66136-1.066 1.3681-0.83557 0.31381-0.16955 0.66762 0.11295 0.92053-0.18279 0.34499 0.29621 0.75486 0.6264 1.1991 0.32034 0.39934 0.35727 0.89923 0.59948 1.2966 0.92076 0.41826 0.14193 0.76376 0.49761 0.85886 0.85351 0.40635 0.24762 0.70138 0.805 0.80908 1.3063-0.23349 0.40672 0.41397 0.52303 0.22884 1.0068 0.23015 0.61325 0.1462 1.2732 0.14646 1.9313-0.0092 2.0602 0.01564 4.1217-0.01044 6.181-0.13278 1.9005-0.11105 3.8118 0.01181 5.7119-0.07282 0.66611 0.09432 1.3235-0.06828 1.9584-0.0143 2.309-0.1456 4.6181-0.09395 6.9269 0.03167 0.86344 0.91308 0.25405 1.2347-0.07863 0.61802-0.10075 1.0893-0.57178 1.7092-0.69866 0.469-0.37892 1.0362-0.63361 1.5744-0.89694 0.49929-0.42325 1.1164-0.71095 1.5816-1.158 0.50612-0.33024 0.9368-0.76957 1.4384-1.0959 1.087-1.2225 2.2004-2.4239 3.3199-3.6177 0.39186-0.51224 0.80591-0.98326 1.1906-1.4952 0.20743-0.55068 0.79015-0.74474 1.0519-1.2476 0.14148-0.18478 0.2661-0.37454 0.21067-0.61733 0.01123-0.73175-0.07232-1.4757 0.06321-2.1971-0.02296-0.65371 0.0034-1.3582 0.0097-2.0331-0.06957-0.68539-0.03012-1.3917-0.03592-2.0616 0.14927-0.60038 0.21088-1.2925 0.20581-1.9448 0.02979-0.71907 0.07782-1.4448 0.26175-2.1385 0.05579-0.71072-0.02186-1.4432 0.16594-2.1378 0.12875-0.50316 0.22937-1.063 0.19882-1.5989 0.18786-0.69615 0.15534-1.426 0.26202-2.1357 0.0087-0.57265 0.15177-1.1398 0.19481-1.719 0.239-0.54185 0.43087-1.1308 1.02-1.4327 0.48244-0.76856 1.3254-0.14024 2.0062-0.39492 0.61773 0.059908 1.2712 0.33854 1.7999 0.66723 0.2809 0.42592 0.92074 0.49974 1.3596 0.79533 0.18046 0.61306 0.82206 1.0956 0.71227 1.7828 0.13521 0.68788 0.33488 1.3681 0.47303 2.0632 0.17879 0.87372 0.34726 1.7506 0.55075 2.6186 0.16938 1.4805-0.01478 2.9789 0.19351 4.4572-0.15939 0.75156-0.14595 1.527-0.24614 2.2859-0.35177 0.56031-0.01996 1.3806-0.54775 1.8409-0.26518 0.53558-0.04262 1.1438-0.53834 1.5394-0.17941 0.5747-0.49523 1.0899-0.76382 1.6298-0.13918 0.57735-0.4653 1.0799-0.61101 1.648-0.30146 0.87773-0.18517 1.8318-0.24284 2.7463-0.0232 0.72432-0.04126 1.4524-0.1621 2.1676 0.16908 0.60166-0.05328 1.2754 0.0024 1.9124 0.0045 0.94829-0.09653 1.8969-0.08167 2.8427 0.38961 0.54233-0.15219 1.2107-0.04501 1.7818 0.02127 1.6321 0.05255 3.272-0.01798 4.9062 0.11128 0.72152-0.10856 1.402-0.06995 2.131 0.21819 0.99959 0.0066 2.0318 0.01007 3.0463 0.0719 0.64652 0.06017 1.2851-0.10342 1.8963 0.47022 0.58308 0.07344 1.3866 0.09977 2.0519 0.12912 1.0245-0.0081 2.088 0.3376 3.083 0.02424 0.68908-0.14925 1.3891 0.0014 2.0822 0.20759 0.64352 0.01298 1.3422 0.2494 1.9838-0.09753 0.58642 0.1911 1.1916 0.22008 1.7963 0.27716 0.51082-0.05132 1.063 0.20368 1.63 0.03154 0.5895 0.2401 1.1408 0.31551 1.7202 0.16463 0.73459 0.46539 1.4308 0.59376 2.1751 0.23815 0.54787 0.45822 1.0549 0.7239 1.5591 0.28854 0.57481 0.52404 1.1815 1.0369 1.6054 0.23154 0.30999-0.13441 0.7183 0.24841 1.0021 0.25716 0.27339 0.19378 0.43032-0.1169 0.55822 0.33438 0.17116 0.02799 0.80234-0.01263 1.1236-0.31165 0.52581-0.70519 1.0601-1.4241 0.92513-0.3566 0.20367-0.60096 0.30902-1.0352 0.07368zm-42.291-26.198c-0.41186-0.49892-0.43355 0.22468 0 0zm61.26 20.507c-0.56064 0.01487-1.0738-0.2288-1.6196-0.33792-0.66456-0.071-1.2073-0.53999-1.8651-0.62803-0.4929-0.549-1.3927-0.41647-1.8525-1.0697-0.42606-0.46441-0.98431-0.75705-1.4004-1.2339-0.50322-0.31666-0.93258-0.84111-1.4021-1.1186-0.32458-0.50551-0.83246-0.88474-1.1102-1.4273-0.48761-0.48872-0.87912-1.0802-1.132-1.7158-0.46646-0.461-0.73498-1.0497-1.0226-1.6096-0.23669-0.50414-0.22423-1.1436-0.60755-1.545-0.15536-0.58062-0.24114-1.2278-0.62696-1.7047 0.05226-0.7082-0.64664-1.2712-0.48372-1.9951-0.22663-0.33328-0.19489-0.76165-0.32167-1.0898-0.28888-0.41878-0.15468-0.91948-0.11783-1.4227 0.01739-0.59086-0.08172-1.1749-0.23297-1.7368-0.04547-0.50934-0.18417-0.93305-0.03018-1.4088-0.30699-0.57342-0.0441-1.1791-0.11073-1.7972 0.02563-0.63993-0.08357-1.2787-0.07681-1.9128 0.1651-0.55916-0.2404-1.0618 0.05947-1.627 0.0944-0.63539 0.68497-1.0767 1.1261-1.4403 0.59156-0.12202 1.1752-0.36175 1.7808-0.31933 0.60989 0.12872 1.0564-0.19684 1.0918-0.79843 0.28579-0.54832 0.60404-1.0032 0.89021-1.5475 0.23809-0.57072 0.58487-1.095 1.1384-1.3527 0.52763-0.31253 0.74327-0.94113 1.1464-1.3107 0.03991-0.38785 0.66112-0.60401 0.28492-0.9461 0.28576-0.4548 0.94517-0.02455 0.9591-0.68283 0.3433-0.51963 0.54844-1.1244 1.1218-1.4394 0.30053-0.26549 0.95-1.0016 1.2447-0.59803 0.52271 0.13664 0.36286-0.76918 0.92881-0.67508 0.60157-0.1517 1.0321-0.50809 1.6258-0.68155 0.69248-0.34193 1.4917-0.20677 2.2329-0.3372 0.84872-0.03561 1.7111-0.04733 2.5554-5e-3 0.86222 0.37664 1.6841 0.83476 2.4787 1.3365 0.51387 0.26853 0.78051 0.8205 1.3681 0.98698 0.51587 0.776 1.3247 1.3282 1.7409 2.1777 0.37018 0.50743 0.65523 1.0802 0.93283 1.645 0.3649 0.51209 0.45201 1.1865 0.83104 1.7089 0.41711 0.75838 0.53868 1.6307 0.95434 2.3908 0.1219 0.4142 0.41332 0.81487 0.77969 0.3447 1.0424-0.75625 1.9677-1.6583 2.8706-2.5702 0.62461-0.24317 0.72405-1.0014 1.2696-1.3063 0.54008-0.36302 1.0909-0.83928 1.775-0.81656 0.65652-0.14864 1.4127-0.37404 2.0223 0.0412 0.43977 0.34762 1.3217 0.03316 1.6237 0.62893 0.38653 0.50475 0.93734 0.99655 1.1033 1.6644-0.03881 0.63795 0.41803 1.1585 0.41139 1.7914 0.0091 0.63448 0.16056 1.3107-0.10428 1.9118 0.0474 0.62866 0.27179 1.271-0.0025 1.8652-0.18641 0.7109 0.08138 1.4062-0.07344 2.1138-0.0098 0.60876-0.05059 1.2298 0.0753 1.8287-0.09079 0.31731-0.29479 1.5058 0.32579 1.1234 0.28369-0.58972 0.22935-1.3099 0.54946-1.9071 0.10391-0.53533 0.23236-0.9264 0.46517-1.4143-0.0755-0.61237 0.3762-1.0646 0.46786-1.6272 0.30464-0.47103 0.31114-1.0382 0.53145-1.5656 0.17445-0.42343 0.54748-0.74536 0.78685-1.0439-0.40267-0.4637 0.0555-0.98558 0.26372-1.3732 0.14237-0.56731 0.52861-1.039 0.74791-1.5799 0.53371-1.0679 1.3863-1.9576 2.3555-2.6417 0.6014-0.31579 1.0177-0.88277 1.6897-1.1211 0.58885-0.26512 1.3088-0.56641 1.9235-0.2195 0.57576 0.08996 1.1338 0.2189 1.6941 0.41402 0.59166 0.08858 1.2099 0.37874 1.4744 0.92875 0.26597 0.33862 0.54951 0.6771 0.75813 1.1388 0.31403 0.47724 0.47896 1.056 0.59733 1.6386 0.0643 0.6248 0.45743 1.161 0.43967 1.8097 0.13212 0.55543 0.40886 1.0619 0.53003 1.6229 0.34689 0.4639 0.18639 1.0575 0.35116 1.6032 0.0952 0.55678 0.37282 1.077 0.51185 1.6352 0.0631 0.66259 0.0111 1.3013 0.15962 1.9607 0.031 0.83857 0.34646 1.6367 0.33074 2.4794 0.38096 0.58542 0.90637-0.57835 0.91586-0.97534 0.26584-0.46553 0.5307-0.94897 0.79003-1.3695 0.12103-0.6251 0.33299-1.2102 0.57408-1.8036 0.20937-0.53792 0.36477-1.0907 0.5461-1.6335 0.34264-0.66492 0.51805-1.4041 0.89077-2.0573 0.13907-0.5501 0.37297-0.94048 0.61405-1.4542 0.33376-0.52028 0.51699-1.1143 0.74548-1.6851 0.36306-0.51379 0.63369-1.0344 0.77651-1.6608 0.42946-0.48664 0.75638-0.99607 1.0635-1.5658 0.40918-0.53571 0.85557-1.04 1.1621-1.6472 0.3412-0.62884 0.86799-1.1313 1.5788-1.267 0.6192-0.1018 1.2634-0.63919 1.8615-0.27491 0.62345 0.17272 1.271 0.24592 1.8246 0.59491 0.39821 0.34171 0.63022 0.7866 1.1101 1.064 0.32395 0.50786 0.44915 1.1347 0.64406 1.6998 0.33939 0.537 0.19293 1.2612 0.2112 1.8762-0.18266 1.318-0.27953 2.6462-0.25228 3.9769-0.14455 1.8108 0.0902 3.6245 0.13111 5.436 0.0781 0.82246 0.0404 1.6645 0.25439 2.4661-7e-3 0.66257 0.10359 1.3018 0.23919 1.9462 0.0414 0.67605 0.22146 1.3285 0.2879 1.9976 0.18752 0.56525 0.26597 1.1698 0.58989 1.6703 0.15105 0.57285 0.54987 1.0389 0.6216 1.6354 0.21182 0.53611 0.72578 0.86209 0.95788 1.3869 0.58791 0.51578 1.2092 1.054 1.9629 1.3114 0.68545 0.04761 1.3492-0.24653 2.0432-0.27355 0.78939-0.50263 1.6598-0.88548 2.4013-1.4695 0.65218-0.36119 1.1814-0.90092 1.7447-1.3829 0.50465-0.58065-0.0112-1.3671-0.0738-2.0161-0.0118-0.71802-0.23915-1.3845-0.319-2.0969-0.0361-0.65791-0.14727-1.3145-0.13714-1.9718 0.15932-0.70232-0.0641-1.379 0.13355-2.0765-0.22132-0.67989 0.43219-1.1148 0.29226-1.7737-0.052-0.59709 0.0943-1.1435 0.14237-1.7665 0.0871-0.62101 0.2183-1.2288 0.31218-1.8471 0.33212-0.5605 0.36124-1.2226 0.66943-1.7944 0.15051-0.58628 0.28514-1.1821 0.56068-1.7143 0.19409-0.55653 0.36072-1.1155 0.60333-1.7014 0.31806-0.5462 0.4132-1.2301 0.96314-1.6341 0.33242-0.52013 0.64841-1.0562 1.1881-1.3584 0.30047-0.51963 0.69242-0.98579 1.1022-1.4298 0.35318-0.42411 0.50979-0.9996 1.0685-1.2396 0.26817-0.53627 0.87009-0.71175 1.3168-1.0635 0.48272-0.40014 1.1697-0.42562 1.7554-0.58109 0.62712-0.03519 1.2615-0.08005 1.8841-0.09799 0.58184 0.23528 1.2172 0.30609 1.7562 0.65113 0.66957 0.19233 1.2394 0.593 1.728 1.0894 0.54464 0.32166 0.85054 0.82545 0.7329 1.4486 0.35841 0.46347 0.24803 1.1542 0.49039 1.6527 0.19594 0.66939 0.37687 1.314 0.43767 2.01 0.0871 1.0764 0.16617 2.1558 0.20946 3.2341-0.20338 0.87524-0.0374 1.7983-0.17886 2.6883 0.0275 0.67254-0.25754 1.2666-0.45058 1.89-0.1564 0.76739-0.37865 1.5212-0.68109 2.2407-0.27358 0.80244-0.76358 1.5145-1.2393 2.2095-0.19217 0.58697-0.60406 1.0804-0.93505 1.606-0.26421 0.5595-0.72418 0.991-0.97525 1.5577-0.41585 0.4174-0.65085 1.0088-1.1309 1.3877-0.41615 0.49702-0.77538 1.0502-1.2429 1.4942-0.20318 0.68181-0.80712 1.0212-1.2701 1.5057-0.36537 0.32722-0.27607 0.89455 0.28103 0.83192 0.51852 0.2753 1.0921 0.56939 1.7126 0.5174 0.74347-0.02786 1.4948 0.05896 2.2324-0.05156 0.60311-0.30329 1.2901-0.35167 1.9351-0.48752 0.62333-0.34941 1.3678-0.42406 1.9975-0.77752 0.56307-0.20804 1.0454-0.57532 1.596-0.79639 0.52838-0.36297 1.1333-0.60539 1.7003-0.96188 0.54134-0.29746 1.0929-0.57294 1.5865-0.94752 0.64246-0.37666 1.3218-0.69141 1.9289-1.1247 0.51894-0.30226 1.0914-0.4587 1.5441-0.86276 0.55021-0.4337 1.1112-0.90044 1.7879-1.1072 0.49533-0.19663 0.88612-1.2101 1.4108-0.89072 0.0437 0.51463 0.9854 0.05834 0.41259-0.28118-0.50643-0.46641 0.95144-0.13508 0.26798-0.459 0.20037-0.32408 0.52029 0.42106 0.84388-0.0096 0.29784-0.29511 1.0939-0.36162 0.6603-0.84034 0.26323-0.02794 0.84594-0.02474 0.56216-0.37215 0.51163 0.12287 0.54933-0.48777 0.55408-0.70513 0.16346 0.34196 0.70528-0.27854 0.45756 0.10382 0.43334 0.02527 1.0747-0.33227 1.138-0.7595-0.25827-0.53014 0.58553-0.45222 0.94398-0.60986 0.27555-0.14665 0.72964-0.08996 0.28929 0.12686 0.0521 0.54411-1.1518-0.29116-0.82002 0.26657 0.37456 0.09414 0.77578 0.28114 0.95243-0.07023 0.4681 0.30863 0.82648-0.03474 1.3104 0.01766 0.36712 0.02052 0.39486 0.18155 0.37603 0.38825 0.35033-0.01741 0.79605-0.21633 1.0377-0.42199-0.25256-0.15574 0.56673-0.03568 0.66374-0.28681 0.56061-0.1279 0.36415 0.74716-0.16419 0.55457-0.41718-0.06933-0.60945 0.55365-0.0884 0.35262 0.32701-0.11336 0.79557-0.12682 0.25363 0.15126-0.5398 0.13309-0.59986 0.8589-1.2072 0.88606 0.47701 0.2157-0.54039 0.34426 0.0287 0.58339 0.42495 0.21701 0.75352-0.67299 1.0775-0.03961-0.18881 0.45889-0.65538 0.76701-0.92604 1.2137-0.44794 0.38869-0.76952 0.94588-1.2239 1.2801-0.35471 0.44252-0.71023 0.90551-1.2068 1.2204-0.32799 0.27264-0.75726 0.21371-0.7515 0.68378-0.27872 0.57124-1.0484 0.69142-1.4134 1.2116-0.5664 0.33246-0.87477 0.89997-1.4192 1.2266-0.58694 0.26568-1.0492 0.75588-1.4805 1.2228-0.46282 0.38007-1.1012 0.61435-1.635 0.93612-0.35944 0.4116-0.94504 0.56893-1.3088 0.96199-0.59076 0.26121-1.1199 0.66802-1.6625 1.0316-0.74886 0.50667-1.5649 0.90169-2.3495 1.3449-0.40443 0.40667-1.0057 0.56144-1.5256 0.78423-0.63446 0.20074-1.198 0.53498-1.8248 0.76167-0.58367 0.30686-1.2477 0.33262-1.842 0.61984-1.0289 0.32262-2.1028 0.44492-3.1657 0.58983-0.72521 0.27509-1.5266 0.15952-2.2872 0.2315-0.68352 0.03743-1.3736 0.0549-2.0383-0.13515-0.59141-0.12632-1.2645-0.07204-1.7461-0.49408-0.57566-0.15786-1.2006-0.36207-1.6926-0.68022-0.59166-0.25087-1.078-0.70415-1.6506-0.97177-0.6259-0.51653-1.1977 0.2986-1.6934 0.60412-0.35892 0.31289-0.57678-0.01148-0.73978 0.4877-0.53717 0.47316-1.2078 0.77796-1.8092 1.1424-0.62005 0.1667-1.2362 0.44117-1.8559 0.65253-0.76594 0.18995-1.5596 0.24604-2.3229 0.45466-0.77208 0.04295-1.5575 0.03377-2.3269-0.06252-0.57859-0.14743-1.163-0.26654-1.7147-0.47632-0.5466-0.24287-1.2022-0.25945-1.7074-0.59026-0.57724-0.2674-0.98124-0.76431-1.5589-1.0274-0.42188-0.36976-0.96934-0.58179-1.3024-1.037-0.71271-0.39645-1.1493-1.131-1.6833-1.7211-0.29366-0.41749-0.47126-0.98489-0.70732-1.4512-0.41708-0.48858-0.62129-1.069-0.9045-1.6274-0.36592-0.47623-0.51419-1.0439-0.66816-1.63-0.24171-0.59839-0.44115-1.1896-0.52044-1.8348-0.17733-0.58959-0.34607-1.1722-0.48083-1.7656-0.0671-0.81088-0.21366-1.6153-0.32953-2.4164-0.24456-0.36296 0.0244-1.3929-0.57827-1.3238-0.29127 0.50946-0.40669 1.0575-0.69615 1.5943-0.3389 0.67858-0.28513 1.4979-0.71888 2.134-0.16058 1.0184-0.72917 1.9097-1.0433 2.8809-0.2941 0.74632-0.77594 1.4119-0.92386 2.2131-0.17693 0.62773-0.41852 1.2355-0.52831 1.8793-0.31051 0.55628-0.41109 1.2203-0.50454 1.778-0.25207 0.55946-0.19204 1.2267-0.42099 1.8021-0.27182 0.51786-0.57339 1.0711-1.0704 1.4028-0.31655 0.203-0.55699 0.4272-0.93591 0.20982-0.67159-0.06404-1.2316 0.45188-1.8962 0.13672-0.36183-0.27634-0.65665-0.67552-1.1673-0.72091-0.61048-0.1334-1.0303-0.61735-1.5498-0.90362-0.37072-0.46284-0.6265-0.95454-0.95557-1.4342-0.3217-0.48639-0.60853-0.97677-0.78031-1.5327-0.11156-0.61907-0.51026-1.1789-0.55677-1.8307-0.26591-0.76228-0.467-1.5459-0.57752-2.3457-0.26587-0.61464-0.10418-1.3427-0.4258-1.949-0.0918-0.53789 0.0217-1.1464-0.21795-1.7034 2e-3 -0.63446-0.2364-1.2193-0.20651-1.8628-0.22387-1.2631-0.22344-2.5545-0.42373-3.8225-0.10495-0.6599-0.21479-1.318-0.33943-1.9743-0.0297-0.42216-0.40396-1.2231-0.63624-0.43082-0.26038 0.52119-0.41566 1.1196-0.77062 1.5907-0.20894 0.58556-0.46139 1.1719-0.5258 1.8116-0.11246 0.7166-0.6638 1.2714-0.60316 2.0203-0.24444 0.55612-0.38599 1.1509-0.62997 1.7046 0.017 0.67479-0.18828 1.3241-0.27795 1.9731-0.35226 0.5078-0.42949 1.1302-0.50781 1.7327-0.35944 0.52041-0.42167 1.1291-0.52138 1.7373-0.22416 0.51266-0.37521 1.016-0.52223 1.559-0.12329 0.58158-0.36534 1.0873-0.51983 1.6636-0.18986 0.67882-0.4159 1.347-0.55711 2.0439-0.23915 0.55962-0.23971 1.174-0.37963 1.7562-0.0465 0.70807-0.1479 1.4481-0.61852 2.0121-0.40277 0.60849-1.0952 0.94659-1.8172 0.75565-0.47694 0.0061-0.86327 0.38811-1.3468 0.03668-0.51211-0.27305-0.99097-0.35203-1.4629-0.6462-0.53493-0.35044-0.98612-0.81126-1.508-1.1794-0.42877-0.47955-0.72311-1.0472-1.0906-1.5764-0.31186-0.5584-0.6727-1.0894-0.77834-1.7201-0.22229-0.59565-0.46157-1.202-0.46921-1.8536-0.08755-0.61182-0.3404-1.1938-0.2848-1.8272 0.03688-0.6474-0.04784-1.28-0.21533-1.9049-0.09146-0.60608-0.26326-1.1504-0.13652-1.7606-0.29251-1.8627-0.17076-3.758-0.27166-5.6353-0.11864-0.47355 0.17759-1.4601-0.38149-1.569-0.62274 0.23021-1.0833 0.73687-1.5995 1.1339-0.44633 0.37563-1.0511 0.66848-1.291 1.2199-0.39575 0.67181-0.21066 1.4575-0.27712 2.1924-0.04578 0.60757-0.20123 1.1783-0.27578 1.7797 0.25697 0.44526-0.39979 0.64896-0.16906 1.1551-0.27948 0.49085-0.33796 1.1527-0.45176 1.7238-0.3309 0.50014-0.52528 1.0817-0.68849 1.6456-0.18711 0.65928-0.60733 1.1753-0.76762 1.8487-0.24396 0.53553-0.43165 1.0774-0.61506 1.6166-0.3252 0.55476-0.5715 1.1417-0.89794 1.6952-0.7589 0.97863-1.5507 1.9319-2.4375 2.799-0.33476 0.4815-0.79709 0.76241-1.2629 1.0919-0.42882 0.37983-1.0619 0.35628-1.5017 0.73918-0.57552 0.29612-1.2427 0.25773-1.8467 0.4912-0.78034 0.1614-1.585 0.14917-2.376 0.19876l-0.09466-0.01734-0.0709-0.02659zm0.27665-5.9799c0.59945-0.13739 1.1145-0.4571 1.5222-0.91404 0.54378-0.47365 0.95436-1.0662 1.4895-1.5491 0.41663-0.42678 0.41061-1.0983 0.82629-1.5183 0.21547-0.51383 0.47496-0.94953 0.70588-1.4411 0.34319-0.4303 0.34671-1.1449 0.69036-1.5154-0.63392-0.04758-1.0867 0.47102-1.6152 0.73586-0.5512 0.27962-1.0144 0.72736-1.6248 0.88603-0.738 0.32016-1.4585 0.70377-2.2632 0.82789-1.0711 0.44564-2.2559 0.4756-3.3982 0.57206-0.43014 0.14999-1.3094-0.23196-1.4537 0.23015 0.14106 0.60056 0.66118 0.97927 0.94433 1.4928 0.36466 0.30682 0.58133 0.84215 1.024 1.1963 0.48378 0.4228 1.0443 0.71992 1.6288 0.97582 0.49304 0.10949 1.0309 0.1465 1.5237 0.02096zm92.9-9.2971c-0.37109-0.17826-6e-3 0.41134 0 0zm-96.516-0.07317c0.63447-0.2409 1.3309-0.36708 1.9397-0.70635 0.60176-0.18694 0.95395-0.5675 1.5066-0.84852 0.69459-0.35613 1.3456-0.80324 2.0124-1.1961 0.40291-0.36344 0.88856-0.6832 1.3435-0.9434 0.54737-0.28445 1.0087-0.74807 1.5327-1.0446 0.3933-0.52853 1.0928-0.61271 1.5435-1.0973 0.64336-0.33977 1.0171-0.92799 0.73444-1.6601-0.11521-0.74572-0.07828-1.5072-0.29466-2.2373-0.2066-0.66358 0.17763-1.2827-0.171-1.9203-0.32572-0.50936-0.41921-1.1443-0.70421-1.6845-0.18189-0.52823-0.39602-1.0509-0.64117-1.5529-0.42012-0.47098-0.72422-1.0781-1.2983-1.3858-0.5554-0.40219-1.2739-0.37948-1.8981-0.16474-0.54191 0.20315-1.1447 0.49308-1.5405 0.86222-0.55816 0.30366-0.92688 0.75376-1.329 1.205-0.61456 0.43725-0.90623 1.165-1.3781 1.732-0.3059 0.51566-0.51982 1.0712-0.97909 1.4531-0.3344 0.51349-0.48934 1.0944-0.84287 1.601-0.19691 0.62144-0.69855 1.1236-0.78304 1.7957 0.01115 0.57517-0.38566 1.05-0.47076 1.6363-0.25518 0.5666-0.28221 1.1946-0.47327 1.7709-0.15038 0.82003-0.13428 1.6862-0.1167 2.526 0.13503 0.52704 0.28456 1.0963 0.44933 1.5827 0.5466 0.23337 1.1136 0.63572 1.7451 0.3476l0.11348-0.07049zm101.28-2.6353c-0.29965-0.50287-0.27536 0.29712 0 0zm-23.743-0.54472c0.14527-0.69568 0.89868-0.90788 1.0564-1.5619 0.2587-0.44563 0.74782-0.66304 0.786-1.2127 0.40328-0.61288 0.66977-1.3085 1.1137-1.8972 0.23619-0.51732 0.22779-1.0906 0.62699-1.5174 0.23906-0.63383 0.57386-1.2372 0.44835-1.9624-0.0503-0.67771 0.26111-1.2903 0.26967-1.9573 5e-5 -0.71674 0.14693-1.4812-0.0435-2.1694-0.0971-0.27072-0.80833 0.51103-0.9576 0.81781-0.39286 0.57226-0.97135 1.0015-1.1606 1.6964-0.29543 0.62192-0.71619 1.1727-0.94353 1.8241-0.11941 0.68925-0.6473 1.2185-0.75697 1.9085-0.15746 0.55455-0.21026 1.1403-0.39465 1.683-0.0683 0.56951 6.5e-4 1.0934-0.23145 1.6197-0.043 0.60758-0.1848 1.1985-0.10152 1.813-0.0452 0.27337-0.38925 1.4339 0.28867 0.91583zm25.663 0.06c-0.2154-0.3224-0.18853 0.31147 0 0zm4.1928-0.29016c-0.0387-0.24623-0.27188-0.79543-0.33546-0.22595-0.0745 0.22635 0.15994 0.5372 0.33546 0.22595zm-4.3128-0.66984c-0.0583-0.28896-0.20464 0.25925 0 0zm1.6-0.48c-0.30134-0.26666-0.12206 0.27972 0 0zm0.45958-0.28c-0.30199-0.87431-0.49879 0.78083 0 0zm2.8388 0.15167c-0.29475-0.08999-0.12436 0.14502 0 0zm-2.0291-0.35747c0.70422-0.53819-1.2259-0.5953-0.44109 0.0897 0.13236 0.15216 0.32571-7.23e-4 0.44109-0.0897zm-1.4113-0.04778c-0.12078-0.28395-0.50111 0.3124-0.0639 0.07422zm2.6821-0.0794c-0.31711-0.06779-0.26861 0.12598 0 0zm-24.46-7.147c-0.0583-0.28896-0.20464 0.25925 0 0zm-8.96-3.12c-0.30134-0.26666-0.12206 0.27972 0 0zm27.771 11.464c-0.20319-0.43076 0.53336 0.0017 0 0zm1.5687-1.4045c0.12799-0.45615 1.2787 0.0076 0.49917 0.08462-0.14281-0.0059-0.41974 0.06913-0.49917-0.08462zm2.6723-0.71398c-0.12722-0.27792 0.48695-0.55585 0.51137-0.75022-0.2855 0.03047-0.60505-0.24115-0.0998-0.17891 0.30839 0.0084 0.56112-0.8835 0.76056-0.37832-0.25139 0.24135-0.18636 0.91661 0.25116 0.91942 0.12324 0.15152 0.69578 0.4608 0.11002 0.48197-0.41394 0.09111 0.15252-0.48096-0.33934-0.39984-0.46465-0.08797-0.73377 0.51689-1.194 0.30591zm-0.45218-0.22602c0.21692-0.29546 0.0765 0.25555 0 0zm1.92-0.32472c0.1749-0.17328 0.18779 0.27828 0 0zm-165.8-4.7153c0.10316-0.29696 0.27904 0.23786 0 0z" stroke-width=".08"/>
 </g>
</svg>
