<?xml version="1.0" encoding="UTF-8"?>
<svg width="105.356" height="98.1185" version="1.1" viewBox="0 0 105.356 98.1185" xmlns="http://www.w3.org/2000/svg" xmlns:cc="http://creativecommons.org/ns#" xmlns:dc="http://purl.org/dc/elements/1.1/" xmlns:rdf="http://www.w3.org/1999/02/22-rdf-syntax-ns#">
 <metadata>
  <rdf:RDF>
   <cc:Work rdf:about="">
    <dc:format>image/svg+xml</dc:format>
    <dc:type rdf:resource="http://purl.org/dc/dcmitype/StillImage"/>
    <dc:title/>
   </cc:Work>
  </rdf:RDF>
 </metadata>
 <g transform="translate(-54.2665 -8.93683)">
  <path d="m99.2575 106.996c-0.917014-0.1088-1.84589 0.0733-2.76009-0.0416-0.439439-0.27851-0.965759 6e-3 -1.46134-0.0723-1.01385-6e-3 -2.03479-0.0135-3.03052-0.22451-1.14429-0.17901-2.34684-0.15075-3.42805-0.61-0.529812-0.32016-1.19626-0.19215-1.7369-0.47259-0.225134-0.47735-0.841307-0.362-1.27705-0.3869-1.17326-0.12493-2.27648-0.56827-3.33313-1.07104-0.507787-0.12449-0.918161-0.43553-1.39281-0.64238-0.553641-0.26458-1.16542-0.36484-1.70373-0.66682-0.579376-0.26198-1.0908-0.64286-1.64877-0.9458-0.477-0.30602-1.03224-0.47905-1.46664-0.87318-0.453002-0.20472-0.844856-0.48992-1.22783-0.80493-0.328432-0.352675-0.731495-0.544158-1.1119-0.827871-0.610092-0.375882-1.26191-0.702375-1.76486-1.2272-0.445861-0.399653-0.933828-0.7475-1.38217-1.14454-0.352468-0.320308-0.721077-0.591388-1.04676-0.934267-0.404477-0.428298-0.822728-0.852635-1.29039-1.21112-0.521219-0.17939-0.599193-0.809615-1.03269-1.10357-0.497725-0.191826-0.648476-0.646587-0.980946-1.03163-0.310987-0.407581-0.786549-0.683593-1.00373-1.15757-0.552187-0.645357-1.15023-1.26531-1.56651-2.01321-0.22208-0.408903-0.564121-0.75128-0.827535-1.13372-0.294604-0.334313-0.349261-0.749276-0.621768-1.11005-0.196196-0.567448-0.797666-0.933596-0.946288-1.47482-0.146048-0.388683-0.523928-0.798847-0.69917-1.2451-0.220498-0.425808-0.580778-0.793185-0.65718-1.28108-0.201013-0.449312-0.322671-0.920134-0.601546-1.33605-0.207139-0.387266-0.289428-0.82252-0.487139-1.20813-0.3214-0.392345-0.31606-0.926349-0.59582-1.34881-0.534574-1.31532-0.869217-2.69875-1.27374-4.05587-0.031108-0.597629-0.333771-1.12654-0.461337-1.70012-0.082734-0.715828-0.449633-1.36704-0.485072-2.08819-0.10385-0.456545-0.245589-0.899609-0.254047-1.37403-0.048814-0.434893-0.215625-0.825181-0.233207-1.18754-0.110903-0.557912-0.262138-1.10425-0.296404-1.67707-0.128975-0.545406-0.0751-1.10538-0.0553-1.65765 0.04637-0.506358-0.225427-0.942292-0.254935-1.43822-0.09186-0.448635-0.207642-0.89518-0.213485-1.36029-0.203834-1.94504-0.232612-3.90391-0.282398-5.85766 0.025-0.859464-0.07358-1.72167 0.04665-2.57694-0.09392-0.448193-0.169636-0.911434-0.143547-1.37916-0.03525-0.504162 0.08812-1.01931 0.591306-1.21316 0.521796-0.526065 1.31507-0.444951 1.99255-0.463005 0.502284 0.03389 0.896909 0.345295 1.2976 0.619829 0.457082 0.201689 0.917158 0.392666 1.2538 0.785976 0.438885 0.221464 0.719165 0.578944 1.01738 0.973805 0.201006 0.425179 0.386064 0.841027 0.475231 1.29084 0.204347 0.54136 0.168894 1.08147 0.07994 1.64089-0.03982 2.13591-0.05902 4.27363 0.0018 6.4092 0.07178 0.769435 0.0029 1.54645 0.128311 2.31002 0.03312 0.710557 0.0446 1.42677 0.198292 2.12379-0.0099 0.460312 0.13228 0.877604 0.118871 1.35576 0.09463 0.554168 0.07628 1.12231 0.183735 1.67328 0.339262 0.648912 0.233621 1.41682 0.462447 2.10212 0.219371 0.459844 0.122299 0.992963 0.344137 1.44866 0.302414 0.998078 0.454529 2.03596 0.779782 3.02862 0.0057 0.516917 0.40365 0.842447 0.389725 1.34545 0.301292 0.357838 0.288492 0.850324 0.516118 1.24508 0.09114 0.470724 0.308071 0.86467 0.58584 1.23962 0.08866 0.512551 0.441853 0.940577 0.542228 1.45345 0.206701 0.412054 0.453586 0.740315 0.563747 1.17102 0.163174 0.450522 0.586801 0.832158 0.703157 1.24308 0.213491 0.388254 0.355143 0.840879 0.615335 1.21615 0.358991 0.344055 0.517395 0.816374 0.849782 1.18429 0.200019 0.507226 0.634448 0.878858 0.930788 1.33053 0.265029 0.387498 0.716484 0.711704 0.684853 1.16907 0.520617 0.191917 0.751339 0.717963 1.11114 1.09485 0.68118 0.725542 1.36252 1.4541 2.10095 2.12046 0.680474 0.447214 1.19211 1.10096 1.88594 1.53177 0.415511 0.316104 0.779493 0.701399 1.25609 0.931202 0.484631 0.267799 0.895937 0.637658 1.31628 0.990302 0.468388 0.173038 0.863541 0.507204 1.30868 0.738716 0.442942 0.274966 0.838802 0.636984 1.34828 0.784469 0.804685 0.370472 1.55367 0.85177 2.38582 1.16452 0.467766 0.123083 0.824421 0.455714 1.29411 0.525464 0.605441 0.211018 1.23282 0.361193 1.82917 0.593587 0.456899 0.20679 0.953096 0.2512 1.43904 0.38917 0.839569 0.25397 1.72937 0.27257 2.57329 0.4988 0.514756-4e-3 0.976439 0.24271 1.48794 0.25011 1.4279 0.093 2.86243 0.12265 4.28332 0.2979 0.444345 0.21756 0.933234-0.0291 1.41033 0.0457 0.782522-0.0194 1.55071 0.18983 2.33014 0.17689 0.503363-0.18274 1.06323-0.0821 1.5893-0.062 0.48544 0.16718 0.92606-0.0914 1.41376-0.10265 1.06511-0.094 2.13828-0.0952 3.19613-0.26147 0.83342-0.033 1.67001-0.0458 2.49266-0.20126 0.50177-0.0923 1.0326 0.0247 1.51015-0.18022 0.60819-0.0827 1.25469 0.0844 1.8278-0.19028 0.57107-0.0538 1.12433-0.1773 1.67478-0.33347 0.68151-0.0705 1.36766-0.13785 2.0222-0.35568 0.62325-0.191855 1.27817-0.233981 1.90817-0.388719 0.42837-0.203766 0.92265-0.122016 1.36693-0.281951 0.41511-0.143029 0.85727-0.14524 1.28003-0.241537 0.77259-0.344723 1.64338-0.328099 2.44086-0.581066 0.90372-0.515116 1.93629-0.717107 2.93586-0.954322 0.5563-0.263003 1.171-0.392157 1.69702-0.716316 0.77157-0.16645 1.44215-0.596086 2.12684-0.963058 0.43861-0.272732 0.94437-0.360348 1.37576-0.647983 0.45323-0.259001 1.01202-0.150349 1.38384-0.540527 0.48716-0.04517 0.7775-0.614615 1.3388-0.494985 0.35207-0.240749 0.79081-0.372859 1.11846-0.635587 0.3771-0.403807 0.95999-0.472365 1.42342-0.72092 0.41406-0.223445 0.96735-0.119991 1.14348-0.627104 0.40731-0.364041 0.86981-0.650838 1.36295-0.881923 0.44955-0.419769 0.98394-0.744157 1.5106-1.06235 0.41851-0.164731 0.81394-0.282486 1.17037-0.463617 0.25942-0.432356 0.46065-0.914355 0.91936-1.18555 0.18686-0.327205 0.74698-0.02561 0.78017-0.532573 0.33302-0.390817 0.85656-0.564978 1.17456-0.976831 0.53276-0.145259 0.84166-0.527493 1.16794-0.958686 0.2712-0.459135 0.90973-0.257109 1.18238-0.710787-0.48482-0.160529 0.41882-0.354684 0.52123-0.616849 0.20423-0.209136 0.49399-0.183365 0.23602-0.451807 0.14913-0.272763 0.6224-0.06407 0.60193-0.479299 0.37612-0.298709 0.56103-0.826398 1.02748-1.02173 0.1378-0.488203 0.5583-0.914007 0.82438-1.35609 0.23587-0.298828 0.44964 0.484068 0.63367 0.04298-0.0674-0.243644-0.69023-0.410469-0.14961-0.613724 0.52294 0.04249 0.89611-0.580186 0.84026-1.0644-0.26827-0.426601 0.40005-0.400017 0.35607-0.831219 0.13428-0.475145 0.49203-0.799632 0.68364-1.2366 0.35461-0.296324 0.35005-0.74772 0.55035-1.11043-0.0252-0.379621 0.26798-0.583622 0.51894-0.619425 0.18178-0.37598-0.31801-0.97891 0.36856-0.94421 0.25054-0.165604-0.14947-0.506471 0.13758-0.741206-0.0159-0.359464 0.36373-0.567788 0.19228-0.86029 0.47177-0.189406 0.17928-1.01073 0.80814-0.881713 0.5785-0.09401 0.16414-0.690602-0.25477-0.522424-0.49502-0.148807 0.35061-0.594689 0.22146-0.958059 0.20809-0.447833 0.2064-0.960457 0.22139-1.45282-1e-3 -0.34919 0.0139-1.01611 0.4399-1.02956 0.042 0.374779 0.6824 0.839932 0.70094 0.192626-0.1293-0.464291 0.47898 0.343147 0.42058-0.178839 0.0138-0.284843-0.22568-0.826431 0.27761-0.576653 0.36611-0.03542 0.55979 0.243199 0.88375 0.305784 0.16181 0.41369 0.49663 0.248538 0.40477-0.139387 0.36791 0.03596 0.179 0.611041 0.62387 0.608117 0.2741 0.19867 0.60864 0.51438 0.8505 0.07767 0.60274-0.148642 0.43839 0.876342 0.7358 1.219 0.17613 0.430976 0.27094 0.89893 0.4086 1.34426-0.0867 0.529383 0.19555 1.07008-0.0254 1.58269-0.18212 0.924694-0.2588 1.87471-0.5845 2.76645-0.15158 0.565725-0.30599 1.13035-0.54594 1.66624-0.0802 0.485599-0.53732 0.782924-0.61259 1.26708-0.0524 0.47243-0.45162 0.842332-0.53068 1.32326-0.35186 0.764635-0.75099 1.51665-1.27527 2.17729-0.10748 0.508376-0.44845 0.903307-0.76951 1.29901-0.31372 0.480687-0.62491 0.963929-0.99892 1.40054-0.17647 0.506576-0.73312 0.746621-0.93387 1.23996-0.50913 0.626117-1.06271 1.21243-1.6073 1.80697-0.77515 1.0397-1.80808 1.8431-2.72492 2.75025-0.46356 0.424023-0.97209 0.795355-1.45567 1.19408-0.38313 0.242235-0.77662 0.485605-1.18223 0.592265-0.10006 0.485389-0.69198 0.679652-0.99172 1.03239-0.60949 0.278463-1.07237 0.787243-1.66383 1.10062-0.39158 0.24971-0.83702 0.396278-1.16705 0.699572-0.44965 0.08035-0.79564 0.390179-1.05103 0.728286-0.48335 0.250502-0.96884 0.497831-1.38421 0.855228-0.45012 0.322493-0.94663 0.526634-1.44616 0.752018-0.4529 0.294919-0.86369 0.609295-1.42363 0.648224-0.47457 0.219662-1.06119 0.306918-1.42781 0.679266-0.23635 0.461876-0.91679 0.34179-1.31299 0.65404-0.42789 0.224492-0.89068 0.358642-1.36816 0.407982-0.43286 0.14946-0.70395 0.50776-1.13661 0.69099-0.75071 0.41331-1.61544 0.53484-2.37462 0.92904-0.4228 0.13064-0.84394 0.3075-1.26207 0.41871-0.40955 0.29196-0.94124 0.31052-1.38647 0.51562-0.43141 0.32085-0.98771 0.27499-1.46659 0.47045-0.47577 0.0495-0.92226 0.41463-1.43094 0.50909-0.82874 0.24555-1.70629 0.27283-2.52965 0.54652-0.85964 0.32523-1.76922 0.48081-2.67472 0.61106-0.50682 0.25581-1.10436 0.27934-1.65507 0.40993-0.4923-0.0382-0.95363 0.17077-1.44778 0.1644-0.53045 0.2515-1.10015 0.41809-1.69236 0.4121-0.49324-6e-3 -0.94887 0.16323-1.41591 0.29153-0.91166 0.21944-1.85575 0.2089-2.77726 0.36836-0.88651 0.0811-1.78715 0.16082-2.67304 0.0403-0.38772-0.16046-0.88364 0.10118-1.19218 0.0124-0.0736 0.20656-0.15584 0.37914-0.40355 0.29233-0.63435-0.0388-1.28914-0.01-1.89538-0.21539-0.59863 0.23835-1.26589 0.16683-1.89904 0.21431-0.64873 0.046-1.29679-4e-3 -1.94276-0.0568-0.183419 0.0704-0.280956 0.13787-0.557642 0.0363zm25.84-3.66919c-0.29329-0.31062-0.28579 0.17606 0 0zm6.60216-6.7965c-0.48634-0.179603-0.1991 0.293429 0 0zm6.10055-3.27112c0.28725-0.273677-0.51818-0.731954-0.31984-0.172832-1e-3 0.192133 0.1555 0.315552 0.31984 0.172832zm8.57729-7.45238c-0.20195-0.262247-0.44462 0.159485-0.0339 0.0565l0.0248-0.02544zm0.42744-0.46612c0.2778-0.316508-0.75297 0.03343-0.13984 0.139806 0.0524-0.04053 0.0944-0.09212 0.13984-0.139806zm0.99182 0.03353c-0.10916-0.122673-0.92132-0.148886-0.46902 0.08042 0.15685-0.0068 0.32494-0.01291 0.46902-0.08042zm5.34074-5.24741c-0.12-0.306156-0.2685 0.238859 0 0zm-0.92-3.47144c-0.20997-0.243364-0.42946 0.11645-0.0484 0.0222zm1.36-2.52384c-0.0674-0.341355-0.65731 0.208725-0.1346 0.06779 0.0427-0.0131 0.1191-0.01113 0.1346-0.06779zm2.25554-3.08689c0.24761-0.403395-0.43949-0.441625-0.30085-0.03028-0.27894 0.271952 0.27565 0.305213 0.30085 0.03028zm-1.31205-0.799827c0.54025-0.585509-0.93908-0.151507-0.23875 0.188174 0.0964-0.03956 0.16166-0.122849 0.23875-0.188174zm1.29651-0.358003c-0.13672-0.195176-0.26821-0.512723 0.13272-0.521125 0.24708-0.204825 0.54465-0.745291-0.038-0.671399-0.13973 0.133903-0.0263 0.417453-0.34068 0.398389-0.0714 0.296985-0.27621 0.212249-0.2319 0.524381-0.17637 0.293852 0.39111 0.667188 0.47791 0.269754zm-0.96-1.28c0.19449-0.282663 0.0806 0.251294 0 0zm-63.6585-5.7717c-0.555795-0.101408-0.846226-0.662319-1.35423-0.865839-0.411666-0.260056-0.588084-0.722912-0.933953-1.0485-0.366276-0.365509-0.680868-0.77712-0.918111-1.23584-0.5136-0.594296-0.92425-1.29984-1.12479-2.05534-0.283781-0.380827-0.275416-0.889891-0.460911-1.31906-0.128114-0.469674-0.05772-0.953313-0.148719-1.43279-0.0747-0.568413-0.09963-1.15417 0.0033-1.72003 0.247001-0.426842-0.37754-0.851796 0.02936-1.29126-0.259061-0.518014 0.0997-1.00415 0.08729-1.54166-0.06762-0.461488 0.242438-0.882359 0.175506-1.3343 0.08429-0.434576 0.129319-0.885135 0.250845-1.31644 0.180643-0.530482 0.273523-1.08294 0.392019-1.62724 0.125919-0.515322 0.282936-1.02103 0.492114-1.50717 0.08568-0.468518 0.125949-0.981697 0.296443-1.44714 0.158068-0.474099 0.252057-0.999159 0.723159-1.27793 0.414359-0.309521-0.455278-0.489892 0.02696-0.836824 0.0887-0.33377 0.46547-0.640773 0.22178-0.906389 0.231894-0.447815 0.36724-0.93148 0.572538-1.38839 0.100014-0.489139 0.468236-0.818409 0.607849-1.26396 0.147452-0.426523 0.264426-0.920946 0.647005-1.19871-0.06589-0.453452 0.1474-0.926022 0.507496-1.28097 0.386765-0.439792 0.373338-1.0475 0.667623-1.52567 0.346935-0.400147 0.322757-0.939853 0.548683-1.39354 0.35483-0.438426 0.432572-1.02673 0.812326-1.42807 0.322691-1.05071 0.901414-2.00623 1.34008-3.01287 0.152614-0.44698 0.439034-0.816236 0.622586-1.24925 0.131285-0.409382 0.428297-0.750653 0.543511-1.15544 0.278541-0.391216 0.357996-0.888779 0.695442-1.25287 0.158782-0.457272 0.355022-0.974155 0.614589-1.35 0.349677-0.390789 0.328836-0.979089 0.713663-1.33052 0.135142-0.511487 0.485962-0.931952 0.665502-1.41174 0.325843-0.443765 0.415773-1.00425 0.701746-1.46274 0.174792-0.520039 0.540058-0.955002 0.807898-1.43979 0.35739-0.78703 0.66936-1.59575 1.09341-2.35027 0.20131-0.474603 0.47685-0.926551 0.61845-1.42204 0.13718-0.447549 0.58106-0.839121 0.52495-1.36102 0.33236-0.422148 0.21094-0.993284 0.49152-1.45593 0.30978-0.281065 0.24247-0.864637 0.67492-1.05097 0.46787 0.021344 0.77103-0.571207 1.20588-0.179856 0.44856 0.03804 0.87056 0.154127 1.23709 0.415336 0.14554 0.327175 0.7512 0.18778 0.87498 0.651718 0.21853 0.36875 0.41946 0.818455 0.65787 1.19105 0.46146 0.05808 0.92805 0.35771 1.02714 0.796416 0.0405 0.361931 0.3149 0.627157 0.57299 0.928337 0.16972 0.402407 0.18166 0.874109-0.12702 1.22829-0.18097 0.464053-0.0592 1.00371-0.30159 1.45928-0.18744 0.454147-0.26463 0.928266-0.4069 1.41113-0.11435 0.567125-0.51436 0.990311-0.76226 1.49656-0.23861 0.462336-0.53828 0.869608-0.80877 1.31656-0.13074 0.392596-0.41639 0.741265-0.54079 1.12856-0.14614 0.543587-0.52881 0.987876-0.77566 1.48727-0.12014 0.467715-0.36661 0.853213-0.53127 1.29796-0.28284 0.446684-0.52374 0.920028-0.80031 1.37248-0.2951 0.355153-0.33978 0.880683-0.64267 1.25551-0.16471 0.484344-0.54905 0.826737-0.7206 1.30479-0.45714 0.951456-0.90999 1.90521-1.38391 2.84849-0.22194 0.420265-0.52065 0.797542-0.67927 1.2504-0.19776 0.453729-0.35055 0.937236-0.657897 1.34649-0.460446 0.708279-0.691123 1.54871-1.23891 2.20281-0.353219 0.543025-0.538712 1.17639-0.889487 1.71878-0.291621 0.342624-0.345026 0.84444-0.585953 1.25682-0.245122 0.397945-0.156533 0.906247-0.525706 1.24149-0.08671 0.475871-0.474861 0.795706-0.647572 1.23696-0.151134 0.484007-0.421029 0.916289-0.563057 1.39924-0.197254 0.456209-0.411014 0.906232-0.572715 1.37514-0.284209 0.482786-0.319674 1.06259-0.601389 1.54865-0.11228 0.457511-0.401717 0.89688-0.482548 1.32265 0.0452 0.49717-0.37744 0.936196-0.37425 1.44842-0.197162 0.74227-0.409528 1.48355-0.703837 2.19329-0.02296 0.459523-0.204309 0.89965-0.258168 1.36186-0.232843 0.506781-0.0739 1.08316-0.252276 1.5987-0.01359 0.476787-0.07143 0.947892-0.132541 1.41885-0.02062 0.593514-0.06451 1.19662 0.06956 1.77797 0.0262 0.598185 0.788352 0.417128 1.14526 0.589973 0.282303 0.205036 1.09283 0.09768 0.892523 0.682479-0.129587 0.374667-0.252222 0.961699 0.337102 0.893044 0.04898 0.414786 0.218953 0.885591 0.436875 1.23632 0.400484 0.284945 0.30547 0.850154 0.184164 1.25674-0.08994 0.431148-0.266816 0.895912-0.678025 1.1504-0.289249 0.09854-0.762561 0.213395-0.496336 0.576106-0.537752 0.176617-1.1521 0.0735-1.71844 0.105918-0.337091-0.0073-0.676463-0.0054-1.01117-0.05087zm27.551-9.89416c-0.23792-0.160415-0.33854-0.766506-0.74598-0.435651-0.25891 0.06235-0.25015-0.374592-0.49679-0.450163 0.3216-0.554559-0.45741-0.567194-0.79114-0.501649-0.0858-0.515565 0.60743-0.736316 0.44361-1.28591-0.0839-0.460982 0.25566-0.635127 0.0823-1.00794-0.0698-0.369426 0.54538-0.166736 0.31351-0.419598-0.1925-0.216649-0.18589-0.571666 0.19197-0.431582 0.31415-0.261965 0.7494-0.967538 0.34627-1.29292 0.16694-0.05905 0.0263-0.300769 0.25503-0.326278-0.11206-0.366155 0.0196-0.578583 0.34419-0.746879 0.0684-0.236101-0.14586-0.500995 0.14192-0.700719-0.29376-0.469598 0.25047-0.864362 0.30584-1.28299 5e-3 -0.563281 0.28448-1.06568 0.42784-1.59596 0.09-0.446421 0.30592-0.854583 0.4013-1.3006 0.0347-0.369 0.46458-0.611291 0.58518-0.809465-0.13523-0.384539-0.18797-0.795894 0.18094-1.12263 0.19887-0.456324-0.0514-1.00605 0.18626-1.46319 0.14779-0.505517 0.42642-0.943699 0.53249-1.46766 0.29008-0.461364 0.34199-1.00796 0.39361-1.53527 0.17148-0.543031 0.38913-1.07191 0.54231-1.61999 0.18952-0.291833 5e-3 -0.654732 0.21776-0.994074 0.12234-0.537618 0.6261-0.995866 0.53811-1.58589 0.0768-0.518552 0.32403-0.995321 0.39998-1.51712 0.07-0.413352 0.27435-0.786089 0.36499-1.16137 0.16406-0.425927 0.1421-0.879459 0.31202-1.28212 0.14197-0.669617 0.41487-1.30301 0.55927-1.97272 0.23527-0.507776 0.36797-1.04351 0.44097-1.5963 0.10981-0.427107 0.29281-0.84927 0.32286-1.27112 0.17705-0.445407 0.23374-0.897182 0.46321-1.32077 0.11154-0.439612 0.17887-0.888491 0.24595-1.34054 0.0447-0.512138 0.30377-0.997267 0.29087-1.53053-0.1029-0.521838 0.35752-0.96616 0.29085-1.50828 0.0814-0.428661 0.22247-0.847211 0.22928-1.29018 3e-3 -0.213879 0.066-0.450433 0.0306-0.650063-0.4295-0.424836-0.99961-0.880535-0.92531-1.55246 0.17075-0.302796 0.27594-0.755958 0.68795-1.0194 0.3606-0.293256 0.54441-0.72301 0.88284-1.03518 0.29701-0.251493 0.12189-0.809201 0.65975-0.656466 0.39116 0.03179 0.70698-0.122251 0.98273-0.313925 0.37495 0.138548 0.78709 0.113943 0.97413 0.545085 0.4763 0.105346 0.84561 0.513433 1.35823 0.602798 0.38598 0.0477 0.65109 0.312795 0.80604 0.569136 0.50882-0.08597 0.55631 0.542754 0.86296 0.79944 0.13453 0.369798 0.58086 0.511507 0.5387 0.923085 0.2677 0.133515 0.73297 0.410628 0.56731 0.703426 0.36093 0.123301-0.14259 0.455436 0.18012 0.637302 0.0711 0.242559-0.44796 0.270553-0.0843 0.551768-0.0718 0.368373-0.1379 0.650725-0.30324 0.998628-0.0389 0.478796-0.24547 0.918395-0.24933 1.40866-0.16275 0.504736-0.2926 1.02031-0.45864 1.5232-0.17162 0.443064-0.29245 0.876042-0.30129 1.34164-0.19271 0.463163-0.36096 0.927885-0.42634 1.42849-0.0932 0.522942-0.17535 1.03663-0.30452 1.53658-0.1917 0.32892-0.21267 0.7777-0.37259 1.16009-0.234 0.936323-0.53495 1.85384-0.82815 2.77208-0.14899 0.466659-0.21894 0.962756-0.4457 1.40547-0.12833 0.794693-0.41385 1.56393-0.75334 2.29072-0.0844 0.529593-0.50219 0.963754-0.47863 1.52942-0.0579 0.347466-0.39377 0.446397-0.29213 0.871528-0.0312 0.518541-0.4827 0.878861-0.56999 1.39047-0.0891 0.402174-0.24173 0.78685-0.44514 1.11174-0.35139 0.374597-0.21353 0.922366-0.45831 1.33051-0.20256 0.452374-0.0491 0.979053-0.35642 1.39958-0.12276 0.495019-0.42395 0.919077-0.50249 1.42194-0.12223 0.503962-0.22649 1.00246-0.48269 1.46434-0.19603 0.460667-0.1866 0.97549-0.43028 1.42068-0.0831 0.466281-0.26754 0.90123-0.47649 1.32499-0.23692 0.593694-0.36794 1.22576-0.63962 1.80831-0.22719 0.561719-0.54708 1.08722-0.71961 1.66849-0.29698 0.486719-0.6162 0.977875-0.82954 1.51306-0.10566 0.526095-0.46773 0.949773-0.61627 1.45863-0.26795 0.36737-0.35463 0.820959-0.67112 1.15696-0.0473 0.426378-0.65801 0.560836-0.83371 0.404266-0.2585 0.276264-0.8052 0.05054-1.03026 0.493817-0.38903 0.267172-0.8263 0.461854-1.30822 0.451714-0.0844-0.0014-0.17581-0.0068-0.25442-0.02248zm1.29213-0.980134c-0.3104-0.310652-0.22064 0.338544 0 0zm-2.38589-0.854c-0.0387-0.562639-0.78305 0.07451-0.19502 0.05861 0.0591-0.0092 0.16475 0.01106 0.19502-0.05861z" stroke-width=".08"/>
 </g>
</svg>
