<?xml version="1.0" encoding="UTF-8"?>
<svg width="135.83" height="103.151" version="1.1" viewBox="0 0 135.83 103.151" xmlns="http://www.w3.org/2000/svg" xmlns:cc="http://creativecommons.org/ns#" xmlns:dc="http://purl.org/dc/elements/1.1/" xmlns:rdf="http://www.w3.org/1999/02/22-rdf-syntax-ns#">
 <metadata>
  <rdf:RDF>
   <cc:Work rdf:about="">
    <dc:format>image/svg+xml</dc:format>
    <dc:type rdf:resource="http://purl.org/dc/dcmitype/StillImage"/>
    <dc:title/>
   </cc:Work>
  </rdf:RDF>
 </metadata>
 <g transform="translate(-19.5272 -10.9891)">
  <path d="m32.9234 114.093c-0.59808-0.0667-1.20763-0.10001-1.76945-0.33259-0.351073 0.12316-0.717578-0.40404-1.12104-0.45902-0.49793-0.19833-1.00961-0.35571-1.50154-0.62699-0.406532-0.3105-0.900993-0.37941-1.17254-0.80911-0.591249-0.66022-1.35854-1.20382-1.6784-2.06398-0.340925-0.54059-0.609266-1.1178-0.878972-1.69248-0.214354-0.55105-0.49729-1.0809-0.66744-1.64766-0.277599-0.83429-0.543814-1.67424-0.789824-2.51929-0.05638-0.56057-0.162792-1.11196-0.280751-1.66174-0.205763-0.66812-0.340178-1.35435-0.362187-2.05512-0.203502-0.876443-0.422965-1.77122-0.396269-2.6783-0.309578-0.83527-0.365052-1.74743-0.446553-2.62939-0.288998-0.580985-0.217523-1.26348-0.32155-1.89384-0.139179-1.11929-0.196133-2.2468-0.297165-3.36844 0.0076-0.51996-0.296168-0.968678-0.120738-1.47338-0.112094-0.979394-0.115059-1.97166-0.147817-2.9565 0.07301-0.594057-0.174153-1.20325-0.06574-1.82314 0.128298-0.674375-0.669606-1.09451-0.300181-1.70153 0.172535-0.714976-0.15317-1.41791-0.05961-2.12037-0.332255-0.663746-0.138001-1.46731-0.458277-2.13181-0.364187-0.447777-0.239498-1.0985-0.450695-1.60982-0.257712-0.454077 0.291174-0.898089 0.155764-1.39712 0.294049-0.470105 0.839069-0.915799 1.42883-0.7924 0.53572 0.237888 1.19141-0.100169 1.72452 0.216215 0.441681-0.118892 0.06058 0.686617 0.584646 0.433412 0.575249-0.473492 1.19857 0.385636 1.74512 0.08608 0.403239 0.377138 1.23836-0.0536 1.41882 0.688192 0.433156 0.284275 0.609673 0.794191 0.859652 1.19568 0.138399 0.578266 0.243404 1.19182 0.25065 1.79612 0.03814 0.774019 0.272611 1.52527 0.252962 2.30462 0.213178 0.479429-0.05442 1.00925 0.09655 1.52303 0.240082 0.585367 0.262239 1.02384 0.18567 1.65762-0.01186 1.25385 0.09807 2.50344 0.208806 3.75041-0.08162 0.595409 0.08615 1.04158 0.01282 1.57344 0.08542 0.523328 0.218591 1.03562 0.180891 1.57627 0.04435 0.712994 0.03743 1.43807 0.181657 2.13901 0.390184 0.547653-0.01023 1.17538 0.18238 1.77634 0.07271 0.840753 0.239782 1.67555 0.245706 2.52018-0.105751 0.579768 0.39885 1.06099 0.324755 1.65958 0.218177 0.515893 0.216409 1.0658 0.290737 1.62202 0.109614 0.82822 0.31832 1.63833 0.453162 2.46176 0.07499 0.55579 0.385174 0.9884 0.433963 1.55215 0.196452 0.73544 0.421904 1.47401 0.762037 2.1535 0.13419 0.38465 0.337112 1.36745 0.979916 1.03705 0.466962-0.36449 0.969367-0.67805 1.43854-1.04111 0.493065-0.31505 1.00017-0.60236 1.36381-1.0598 0.406133-0.46339 0.9225-0.81038 1.29388-1.31913 0.197013-0.47335 0.878258-0.53067 1.0529-1.04717 0.472276-0.34161 0.810626-0.81706 1.2197-1.22765 0.435489-0.45964 0.935831-0.87443 1.2974-1.39297 0.509264-0.25365 0.830236-0.784865 1.27335-1.14976 0.125774-0.416853 0.572583-0.217836 0.60495-0.671725 0.400852-0.420567 0.665922-0.996629 1.15327-1.3673 0.367424-0.440782 0.759424-0.875145 1.08888-1.34074 0.322375-0.435465 0.767287-0.758992 1.08312-1.15512 0.374979-0.44018 0.727716-1.01401 1.13686-1.37038 0.426734-0.326355 0.771211-0.873549 1.21092-1.24352 0.675672-0.642159 1.20882-1.42875 1.93512-2.0157 0.319117-0.249877 0.536293-0.631167 0.911168-0.852229 0.199117-0.499013 0.650492-0.778381 1.02459-1.11833 0.36568-0.376384 0.586281-0.77093 0.992354-1.08908 0.549029-0.523948 1.0301-1.11518 1.60723-1.61063 0.453583-0.548357 0.935393-1.07323 1.40343-1.60917 0.335872-0.23318 0.64477-0.609692 0.973803-0.819569 0.05197 0.792312 0.79629 0.0087 1.10028-0.213243 0.03994-0.440079 0.796179-0.633914 0.258928-1.1872 0.15902-0.295819 0.49461-0.708433 0.858015-0.874768 0.104456 0.184795-0.58581 0.762036 0.0037 0.619117 0.330306-0.09579-0.173907-0.434009 0.278554-0.45909 0.154534-0.186045 1.13647-0.296847 0.401929-0.358889-0.412339-0.397069 0.319394-0.544273 0.570109-0.30919 0.41743-0.207426 0.649409-0.633056 0.419279-1.01328 0.05314-0.462066 0.428436-0.437017 0.54774-0.06276 0.292817-0.0658 0.548774-0.411103 0.746196-0.577078-0.203547-0.281629-0.517896 0.396938-0.620185-0.06703 0.368511-0.428007 0.849308-0.714368 1.08553-1.19303 0.292812-0.417419 0.827403 0.333022 0.802547-0.356526-0.02218-0.609073 0.669445-0.938679 1.04971-1.33287 0.384884-0.248331 0.569203-0.766729 1.10788-0.848079 0.131573-0.199126 0.511625-0.828568 0.701286-0.596407-0.210903 0.187295-0.544815 0.803698 0.02813 0.579252 0.652518 0.06916 0.645614-0.78532 1.14264-1.02903-0.02291-0.179479-0.640808-0.130472-0.258959-0.443286 0.221866-0.50232 0.898053-0.637629 1.12946-1.16945 0.173015-0.306932 0.514513-0.664086 0.732056-0.206624 0.297409-0.07166 0.583832-0.426756 0.816442-0.618596-0.444701-0.516949 0.273811-1.07136 0.702505-1.29472 0.754232-0.6214 1.52262-1.26117 2.12158-2.03382 0.522666-0.1308 0.861413-0.604791 1.25064-0.947131 0.31518-0.675179 0.350742 0.687284 0.742926 0.08191 0.05001-0.609397 1.29958-0.03597 1.09437-0.506071-0.262825-0.336315 0.557415-0.969915-0.208003-0.754538-0.271393-0.01616-0.268791 0.607553-0.551481 0.207438 0.213872-0.437168 0.91776-0.459697 1.09877-0.901118 0.292885-0.278428 0.603029 0.377631 0.890446-0.08941 0.01207 0.349267 0.620374 0.207627 0.203284 0.0031 0.113528-0.514724 0.862942-0.896395 0.906652-1.27774-0.786051 0.04543-0.04727-0.673391 0.267019-0.81632 0.320241-0.282861 0.729066-0.807 1.04462-0.906584-0.01468 0.590404-0.792625 0.683848-0.744892 1.20226 0.361266-0.394405 0.983002-0.374058 1.22591-0.899984 0.369964-0.315001 0.710823-0.637372 0.904376-0.988122-0.254055-0.03029-0.776499 0.05898-0.381336-0.306084 0.09874-0.336421 0.966753-0.6945 0.963154-0.411041-0.264082 0.06635-0.319384 0.455028-0.516411 0.524304 0.361876-0.02495 1.21433-0.619838 0.817546 0.06471 0.498989-0.0052 0.403703-0.750667 0.813763-0.984316 0.09705-0.608354 0.774319-0.742381 1.1483-1.15538 0.513473-0.254438 0.688609-0.855836 1.31507-1.00066-0.09614-0.450144 0.634324-0.280339 0.60019-0.810633 0.125354-0.122714 0.852639-0.427896 0.323061-0.458201-0.193154 0.0053-0.665493 0.178929-0.309543-0.102414 0.324544-0.551513 0.64832 0.253382 1.08425-0.16182 0.2824-0.118816 0.269957-0.483972 0.682133-0.551676 0.121723-0.34836 1.24892-0.877945 0.357723-0.950704-0.371634 0.01312-0.165205-0.140392 0.02335-0.288749 0.609965-0.491955 1.14814-1.07254 1.76939-1.54654 0.351844-0.0531 0.638972-0.906269 0.980197-0.508548-0.686955 0.09547 0.234654 0.806878 0.429345 0.227822 0.319598-0.470919 0.815711-0.74917 1.31848-0.929949-0.01259-0.377995 0.535309-0.358355 0.387986 0.02756 0.618051 0.455653 0.237082-0.666597 0.775985-0.603948 0.351747-0.09264 0.529864-0.411811 0.456805-0.583775 0.405325 0.07255 0.590851-0.379375 0.96196-0.152712 0.178769-0.152522 0.386776-0.772952-0.0543-0.411022-0.217108 0.213821-0.580423-6e-3 -0.236976-0.210486 0.470043-0.238804 0.74173-0.666446 1.07325-1.10572 0.534236-0.724541-0.623423-0.02499-0.61605-0.166589 0.491196-0.326224 0.850008-0.821392 1.35279-1.14058 0.448364-0.482406 1.16499 0.310633 1.54754-0.367919 0.124288-0.22323-0.07221-0.418337 0.308089-0.504303 0.231505-0.168112 0.190302-0.47604-0.123972-0.232961-0.111174 0.338643-0.459389 0.01226-0.04563-0.111778 0.165384-0.120972 0.879296-0.553673 0.728465-0.372446-0.168906 0.684851 1.04407 0.115468 0.591861-0.372721 0.303949-0.264717 0.405514 0.382655 0.347951 0.526838 0.26463 0.0581 0.705122-0.47542 0.257-0.386304 0.15663-0.24657 1.12308 0.04586 0.610062-0.433082 0.14996-0.245006 1.19931-0.37286 0.43649-0.468138-0.46062-0.08096-0.930956-0.04011-1.07264 0.461324-0.390267 0.136276-0.06095-0.555855 0.173691-0.584626 0.477544-0.271318 0.766334-0.793085 1.28335-0.994005 0.39537-0.437432 1.14561-0.475969 1.41607-0.95142 0.39338-0.183665 0.27655 0.557044-0.1369 0.425083-0.53707-0.01485-0.30006 0.324755 0.0782 0.268466 0.6363-0.233261 1.08529-0.826094 1.67465-1.12155-0.14701-0.230881 0.64784-0.411073 0.12357-0.424406-0.44014 0.239513-0.83269 0.813576-1.40492 0.584951-0.2243-0.08714 0.50061-0.157659 0.4602-0.41666 0.52041-0.178629 0.84946-0.584107 1.25748-0.946804 0.50031-0.398905 1.06317-0.641985 1.49623-1.1145 0.26319-0.146679 0.62394-0.604266 0.87345-0.464965-0.47685 0.259341-0.2872 0.618296 0.20844 0.480285 0.40439-0.09859 1.00128-0.710081 0.23649-0.733127 0.0277-0.528089 0.86044-0.491812 0.98978-0.930984 0.57602-0.267991 1.01163-0.974588 1.73126-0.82428 0.33088 0.161256 0.484 0.217117 0.5066-0.18047-0.33042-0.188017 0.0644-0.705719 0.21396-0.2305 0.52357-0.01603 0.98805-0.457836 1.47446-0.636865 0.2967 0.306805 0.43969-0.435507 0.47355-0.59223-0.11447-0.177473 0.4407-0.266872-0.0449-0.217491-0.28528 0.09752-0.90889-0.04669-0.2818-0.189233 0.47921-0.231058 0.67301-0.984681 1.30226-0.82847-0.21314 0.16021-0.20939 0.544156-0.47891 0.723326 0.53276-0.0089 0.89301-0.514709 1.35256-0.730718 0.4535-0.258262 0.7311-0.818987 1.31129-0.833378 0.35968-0.08979 0.64507 0.05376 0.77842 0.332728 0.69389 0.116131 0.34069-1.1759-0.16797-0.624731 0.301-0.506422 0.86721-0.766941 1.27382-1.14888 0.53704-0.189743 0.98389-0.560166 1.42688-0.918231 0.47965-0.209858 0.61458-0.77536 0.43423-1.08997 0.33496-0.566646 0.9606 0.339835 1.26207-0.344073 0.11741-0.402975-0.049-0.974545 0.53766-1.06887 0.44845-0.470498 1.17623-0.380366 1.65351-0.769399 0.25612-0.44096 0.68729-0.843998 1.10144-1.10826 0.35054-0.25991 0.71668-0.602374 1.14903-0.811487 0.35191-0.355791 0.89177-0.541341 1.23275-0.838839 0.41333-0.248643 0.83341-0.165019 1.04768-0.669639 0.31083-0.100656 0.68006 0.243963 0.87338-0.160711 0.48404-0.02359 0.29334-0.376903-0.079-0.18886-0.72082 0.246718 0.29856-0.488687 0.55814-0.503745 0.29297-0.202191 0.87554 0.09667 0.24962 0.0097-0.19658 0.09116 0.22592 0.276421-0.0631 0.434138 0.28452-0.03146 0.38984-0.353846 0.69497-0.404144 8e-3 -0.50464 0.89523 0.515698 0.8884-0.297791 0.30336-0.01574 0.60448-0.620855 0.67787-0.260195-0.0509-0.452516 0.12002-0.247173 0.19704-0.04982 0.51878-0.119842 1.01519-0.384513 0.98361-0.994057 0.33979-0.315428 0.85051-0.56663 0.85693-0.96146 0.15682-0.25058-0.0218-0.697103 0.52523-0.693719-0.0863-0.442015 0.61537 0.105828 0.21302-0.308092 0.29152-0.26008 0.79458-0.50814 1.17191-0.639873-0.43764 0.546466 0.49085 0.115073 0.36181-0.252403 0.38192 0.01278 0.61795-0.601525 1.07098-0.662448 0.37117-0.210948 0.61171-0.482999 0.82676-0.823437 0.64389-0.0822 1.27535-0.340364 1.70959-0.832992 0.32791-0.280903 0.45921-0.0016 0.16691 0.206794 0.0266 0.194677-0.68786 0.634821-0.12123 0.544575 0.20648-0.232213 0.87863-0.612394 0.52367-0.921468-0.25499-0.357304 0.73551-0.645758 1.03287-0.845056 0.69899 0.03793 0.87728-0.58987 1.43551-0.871222 0.64692-0.436796 1.26194-0.970232 2.02393-1.19394 0.63998-0.626773 1.52725-0.906612 2.1835-1.51497 0.72465-0.520169 1.43584-1.07174 2.21824-1.50188 0.51151-0.257458 0.91924 0.04355 1.22631 0.394715 0.56743-0.05469 1.13891-0.31082 1.73551-0.143043 0.63719 0.11347 1.24911 0.277473 1.6793 0.752641 0.48571 0.135077 0.90879 0.481244 1.43652 0.588657 0.48461 0.392983 0.42017 1.25668 0.46117 1.86767-0.0924 0.551066-0.39048 1.21961-0.95099 1.44968-0.443 0.377315-0.98178 0.618407-1.54922 0.73529-0.61331 0.206606-1.08607 0.690544-1.70669 0.869982-0.53595 0.297169-0.98437 0.730298-1.55916 0.964496-0.48925 0.33852-0.98992 0.58513-1.51077 0.868237-0.47061 0.312556-0.96907 0.63024-1.48876 0.905088-0.3778 0.325228-0.8145 0.578317-1.30436 0.759377-0.5928 0.268375-1.05511 0.717581-1.62525 1.02183-0.51208 0.411342-1.0869 0.73476-1.64242 1.07423-0.4645 0.334576-1.00978 0.520703-1.41878 0.940725-0.48471 0.309242-1.01138 0.48454-1.45555 0.81495-0.54614 0.21201-0.98542 0.545338-1.46753 0.864879-0.55354 0.241236-0.86544 0.963819-1.54193 0.907658-0.41478 0.496437-1.02023 0.734085-1.52086 1.13547-0.40645 0.398054-0.89032 0.690054-1.43962 0.757149-0.31026 0.44114-0.86738 0.70668-1.30689 1.03594-0.64361 0.288239-1.08666 0.945126-1.78404 1.10843-0.33036-0.09786-0.18517 0.577112-0.63051 0.560471-0.51409 0.268368-0.96449 0.646538-1.49158 0.898076-0.58409 0.296151-1.02118 0.801144-1.61853 1.07605-0.48328 0.388394-1.1165 0.57448-1.52329 1.04392-0.54641 0.289073-0.95849 0.775744-1.49023 1.07451-0.50539 0.338087-0.99121 0.685591-1.44576 1.13228-0.30429 0.635402-1.29787-0.0038-1.3789 0.715546-0.26775 0.53441-0.93557 0.773337-1.49041 0.767029-0.18014-0.228328-0.91766-0.348527-0.52672 0.07735 0.65295 0.389844-0.69757 0.502498-0.13298 0.758511-0.60664-0.03827-0.69501 0.561597-1.14651 0.846033-0.56662 0.266622-0.95215 0.743993-1.48634 1.07726-0.24568 0.32027-0.76596 0.605097-0.99496 0.726171-0.29462 0.28938-1.00446 0.216767-1.20926 0.722395-0.23312 0.209598-0.78753 0.729313-0.69441 0.275969-0.55392-0.09906 0.0757 0.46822-0.46593 0.435632 0.12368 0.398929-0.64214 0.758369-0.98484 1.14013-0.32517 0.24378-0.85831 0.08548-0.89703 0.575924-0.41358 0.231645-0.73514 0.371496-1.00409 0.776309-0.31248 0.101138-0.44688 0.50757-0.78789 0.44808 0.43865 0.455801-1.00513-0.01291-0.54002 0.490804-0.19676 0.166782-0.74181 0.203022-0.81507 0.634328-0.33273 0.493458-1.17083 0.5286-1.35815 1.04026-0.55211 0.306981-0.95487 0.876615-1.57864 1.06388-0.31781 0.409208-0.81248 0.655673-1.26648 0.68042 0.36036 0.505191-0.6373 0.852714-1.02616 0.99352-0.20867 0.49012-0.83583 0.699415-1.09843 1.17186-0.60479 0.22126-0.93666 0.813974-1.47489 1.07894-0.523932 0.28297-0.897551 0.877851-1.51358 0.864225-0.350476 0.510805-0.841151 0.903195-1.29188 1.3061-0.300548 0.468548-0.792115 0.714716-1.07894 1.18782-0.516447 0.291864-0.955815 0.644237-1.39377 1.01986-0.287237 0.301795-0.569172 0.537673-1.01846 0.737566-0.215771 0.561544-0.887558 0.499804-1.29336 0.913962-0.302025 0.163636-0.747418-0.01949-0.443092 0.381447-0.0374 0.369144-0.716735 0.221624-0.466189 0.606308-0.407677 0.199422-0.686849 0.84701-1.16913 0.51366-0.324217 0.147143-0.40438 0.455455-0.334032 0.736779-0.493551 0.275433-0.740206 0.891691-1.30901 1.03652-0.340477 0.548704-1.16376 0.467797-1.30823 1.14712-0.402112 0.188595-0.777009 0.929644-1.14043 0.877537 0.0842-0.520269-0.465799-0.02566-0.441982 0.242463-0.149012 0.386488-0.697179 0.256833-0.57337 0.78829-0.351006 0.150863-0.629469 0.978207-0.972757 0.77488-0.256451-0.338389-0.763617 0.223986-0.376891 0.443021-0.307679 0.331348-0.927216 0.546299-1.21004 0.73283 0.251414 0.326145-0.04135 0.501566-0.250882 0.183768-0.271351 0.360686-0.517985 0.874327-0.916906 1.22623-0.354592 0.406144-0.943454 0.516041-1.15872 1.02509-0.377815 0.313759-0.76833 0.714348-1.145 0.966004-0.480082-0.226109-0.0284 0.491964-0.531215 0.453631-0.490411 0.395476-0.884961 0.840882-1.31133 1.31426-0.288661 0.504669-0.907724 0.643826-1.23872 1.05794-0.332994 0.3389-0.80869 0.570531-1.01299 1.01073-0.436568 0.01912-0.489276 0.603293-1.00667 0.620089-0.262364 0.497527-0.901428 0.614733-1.08656 1.08612-0.382831 0.365891-0.613642 0.936308-0.935884 1.24689-0.496862 0.234178-0.969135 0.429013-1.36411 0.859211-0.444916 0.362635-0.808962 0.889924-1.39748 1.02334-0.112255 0.304716-0.234488 0.71345-0.630548 0.781531-0.02004 0.337103-0.694748 0.505175-0.640003 0.558606 0.261231 0.285497-0.643287 0.08166-0.186751 0.42314-0.279272 0.36688-0.661746 0.598624-0.940627 0.969298-0.604769-0.07251-0.698577 0.716617-1.13355 0.998862-0.326913 0.447311-1.01322 0.509476-1.19079 1.10463-0.426143 0.503892-0.768424 1.0539-1.32417 1.40319-0.497634 0.153351-0.517043 0.867555-0.996026 1.18829-0.538068 0.245325-0.839632 0.789772-1.15892 1.25814-0.472121 0.303897-0.714594 0.795163-1.13544 1.15635-0.433184 0.412441-0.788591 0.947615-1.36187 1.1697-0.28336 0.522919-0.647983 0.935415-1.13612 1.29124-0.471216 0.229428-0.4134 0.852941-1.03426 0.848065-0.405961 0.114626 0.01974 0.509791-0.425306 0.679582-0.51649 0.220878-0.570728 0.820422-1.01816 1.1497-0.511747 0.499961-0.962067 1.07991-1.53801 1.50535-0.292697 0.342191-0.538786 0.845039-0.79635 1.23723-0.617102 0.239111-1.00405 0.761169-1.3469 1.29907-0.266363 0.210021-0.05657 0.75435-0.512635 0.687903-0.315035 0.483594-0.802329 0.806908-1.12532 1.2491-0.388387 0.39124-0.729845 0.8605-1.27464 1.0964-0.25259 0.3973-0.526318 0.88383-0.820189 1.19132-0.560869 0.3142-0.669147 1.25664-1.44822 1.13187-0.124783 0.49276-0.37976 1.00269-0.797598 1.35554-0.473764 0.24802-0.63996 0.81633-1.02178 1.15358-0.521172 0.21984-0.767751 0.81614-1.19976 1.17454-0.852472 0.90206-1.7302 1.78145-2.64276 2.62191-0.340764 0.46214-0.79419 0.82918-1.23524 1.21466-0.279435 0.46128-0.913949 0.59239-1.09501 1.10116-0.545879 0.15314-0.929111 0.61303-1.45592 0.80374-0.564629 0.15854-0.908799 0.73522-1.52767 0.76686-0.576547 0.14217-1.16932 0.22312-1.75981 0.12128zm9.15469-15.1079c-0.572089-0.114564 0.326779 0.282316 0-2e-6zm2.84531-3.15152c-0.103838-0.283541-0.428132 0.193124 0 0zm6.74917-6.88279c0.308678-0.102332 0.576078-1.18797 0.08382-0.641932-0.27117 0.119313-1.07263 0.572849-0.386526 0.739415 0.110362 0.03473 0.216914-0.03792 0.302706-0.09748zm1.97083-1.48193c-0.216971-0.295463-0.07644 0.255551 0 0zm-1-0.08c-0.384451-0.278537 0.05982 0.233099-2e-6 0zm0.84-0.64472c-0.43813-0.344313-0.194879 0.36916-4e-6 0zm2.44087-2.49666c0.179499-0.13313 0.525623-0.624384 0.04584-0.401207-0.03514 0.1378-0.700198 0.93591-0.04584 0.401207zm3.75113-3.43739c-0.151579-0.26116-0.668611 0.211256-0.142607 0.192347 0.04344-0.06747 0.06817-0.149101 0.142607-0.192347zm3.168-3.30122c-0.296235-0.462193-0.298751 0.452014 0 0zm4.51658-0.125528c-0.620382-0.314281-0.02899 0.431593 0 0zm-2.75658-1.43447c-0.216971-0.295463-0.07644 0.255551 0 0zm2.03601-0.15355c-0.130095-0.411839-0.412278-0.298177-0.234955 0.04789 0.06772 0.0588 0.183092 0.0127 0.234955-0.04789zm1.10996-2.61909c0.09775-0.396534-0.877583-0.285684-0.313799 0.01924 0.09822 0.03767 0.22615 0.05535 0.313799-0.01924zm0.694027-0.867361c-0.191517-0.396902-0.231732 0.398224 0 2e-6zm2.38764-2.31824c-0.02663-0.385852-0.65788 0.526727-0.142096 0.172185 0.06158-0.04175 0.123188-0.09679 0.142096-0.172185zm1.45236 0.198242c-0.264008-0.264444-0.556799 0.17025-0.04561 0.0565l0.03336-0.02544zm-0.24-0.32c-0.215401-0.322399-0.188532 0.311471 0 0zm-0.136027-0.610168c0.259239-0.04401 0.827672-0.699326 0.235336-0.455364-0.233564 0.05723-1.03037 0.851254-0.235336 0.455364zm0.970001-0.970235c0.249029-0.100418 0.679535-0.715829 0.108428-0.436687-0.310051 0.03624-0.913793 1.09387-0.266184 0.553044l0.07735-0.05617 0.08037-0.06019zm4.80603-0.659597c-0.02465-0.28283-0.35364 0.285787 0 0zm-2.61978-0.460543c-0.117071-0.248744-0.611365 0.123463-0.15975 0.122222l0.09819-0.04177zm0.959782-1.69494c0.564221-0.504765-0.483476-0.265119-0.261811 0.143851 0.102669 0.01024 0.184362-0.09346 0.261811-0.143851zm1.06-0.08451c-0.275603-0.635849-0.455251 0.576783 0 0zm4.32-2.91144c-0.283462-0.275021-0.342349 0.145051 0 0zm-0.1473-0.634585c0.573161-0.378456-0.360016-0.850966-0.523134-0.444373 0.564691-0.116681 0.01146 0.809847 0.523134 0.444373zm-0.3327-0.133974c-0.215401-0.322399-0.188532 0.311471 0 0zm2.80638-1.24768c0.163254-0.368566-0.667698 0.238707-0.107457 0.08826l0.05636-0.03782 0.0511-0.05044zm-1.28638-0.192317c-0.08379-0.26026-0.20138 0.277559 0 0zm2.68-0.16c-0.425963-0.310354-0.282625 0.333898 0 0zm-1.81495-0.54c-0.112748-0.339685-0.646088-0.07265-0.179121 0.120153 0.09102 0.05785 0.212563-0.01296 0.179121-0.120153zm5.69495-2.64667c-0.188937-0.460861-0.322075 0.272559 0 0zm0.16-0.863129c-0.241835-0.354889-0.571754 0.127522-0.18091 0.252364 0.09221-0.05242 0.167686-0.144216 0.18091-0.252364zm0.679609-0.350839c-0.346771-0.332999-0.128389 0.673549 0.01413 0.09486l5.07e-4 -0.05149-0.01464-0.04338zm-1.41957-0.779366c-0.101043-0.240581-0.794411-0.294239-0.347944 0.06565 0.110897 0.09283 0.284487 0.07862 0.347944-0.06565zm0.377648-0.61125c0.541361-0.48452-0.594468-0.446431-0.43296 0.03125-0.307386 0.287176 0.393748 0.107688 0.43296-0.03125zm4.96231-0.28875c-0.132138-0.248719-1.02963 0.07153-0.36944 0.08 0.121356-0.01004 0.268369 0.0015 0.36944-0.08zm-1.474-0.262c-0.14165-0.242782-0.24123 0.329162 0 0zm1.514-0.186559c-0.482592-0.161742-0.257508 0.261594 0 0zm-3.84-0.521236c-0.37117-0.300277-0.387157 0.636004 0 0zm2.92-0.07021c-0.05828-0.28895-0.204684 0.259251 0 0zm-1.13682-0.4c-0.05494-0.528805-0.451879 0.442176-0.02565 0.06213l0.02565-0.06213zm1.53341-0.405528c-0.299314-0.270861-0.01559 0.382351 4e-6 -1e-6zm-1.11623 5e-3c-0.01711-0.286475-1.01432 0.06316-0.325611 0.07866 0.10749-7e-3 0.242305 0.0045 0.325611-0.07866zm5.31965-0.248914c-0.136986-0.177897-0.225499 0.323376-0.0235 0.07102zm-0.99136-4.05056c0.445398-0.485111-0.993415-0.113549-0.27782 0.110972 0.105061 0.06722 0.225929-0.02366 0.27782-0.110972zm3.97559-0.538904c-0.33624-0.429093-0.34644 0.409911 0 0zm4.29577-1.2411c0.0979-0.196556-0.79833-0.02135-0.25523 0.07583 0.0902-9.8e-4 0.17958-0.02726 0.25523-0.07583zm2.68 0c-0.0583-0.28896-0.20464 0.259247 0 0zm1.24-0.404722c-0.095-0.103756-0.86091-0.111094-0.41257 0.01414 0.11152 0.04068 0.39594 0.205859 0.41257-0.01414zm-6.16 0.0047c-0.2914-0.305298-0.21254 0.262309 0 0zm2.32 0.0086c-0.20287-0.324257-0.5835-0.07962-0.1 0.06836l0.0706-0.01883 0.0294-0.04957zm-3.66708-1.21547c0.42045-0.01396-0.31516-0.558259-0.20211-0.273765-0.0206 0.168353-0.35613 0.400532 0.0696 0.334081l0.0624-0.02544 0.0701-0.03489zm2.18367-0.707557c-0.0305-0.395352-0.60874 0.168217-0.0653 0.05362l0.0652-0.05366zm2.08341-2.64557c-0.13968-0.301561-0.33125 0.264768 0 0zm4.08-0.08c-0.42595-0.310353-0.28265 0.333901 0 0zm-3.3975-0.253386c0.52926 0.07258 0.36082-0.392746 0.62499-0.612793-0.42101 0.0093-0.68998 0.159829-0.78359 0.51234-0.23089-0.273737-0.83827-0.0041-0.44739 0.246252 0.19856-0.06136 0.40319-0.101828 0.60599-0.145799zm2.42643-1.78661c0.27719-0.134892 1.1119-0.410491 0.74406-0.800239-0.37396-0.0033-1.42293 0.580644-0.89056 0.902727 0.072 0.03526 0.13503-0.04108 0.1465-0.102488zm0.98941-0.248334c-0.29476-0.08998-0.12435 0.145014 0 0zm-0.01-0.81c-0.29155-0.03639 0.13433 0.425114 0-3e-6zm5.19166-0.181666c-0.42595-0.310353-0.28265 0.333901 0 0zm5.04-0.24c-0.0583-0.28896-0.20464 0.259247 0 0zm-7.96-0.06667c-0.14184-0.390776-0.47839 0.216183-0.01 0.02918l0.01-0.02913zm0.19482-0.564952c-0.1781-0.472262-0.42986 0.299365 0 0zm6.28518 0.03443c-0.42951-0.461937-0.33713 0.148672 0 0zm-5.04-0.762808c-0.3995-0.646818-0.40307 0.629059 0 0zm0.16-0.351441c-0.28346-0.275021-0.34235 0.145051 0 0zm0.496-0.06456c-0.53047-0.205628 0.01 0.38211 0 0zm8.544-0.183999c-0.19986-0.428566-0.15641 0.412162 0 0zm-1-2.92c-0.36901-0.183627-9e-3 0.553978 0 0zm4.44-1.44c-0.2154-0.322399-0.18853 0.311471 0 0zm-5.72668-0.69145c0.085-0.501092-0.5569 0.262148-0.0684 0.09284l0.0684-0.09284zm1.98783-1.19637c0.16665-0.447231-0.76484-0.196187-0.1774 0.01666 0.0528 0.03225 0.13591 0.03906 0.1774-0.01666zm-0.56115-0.16516c-0.30398-0.071-0.21876 0.11644 0.023 0.01567zm4.56422-0.06592c-0.33622-0.429095-0.34643 0.409912 0 0zm-3.26206-0.437602c-0.34006-0.183826-0.35293 0.282443 0 0zm1.4313-1.09205c0.45407-0.523784-0.63154 0.04305-4e-5 1e-6zm5.56654-0.03144c-0.27696-0.326699-0.33711 0.31479 0 0zm-4.0069-0.849403c0.53758-0.728028-1.18423-0.106197-0.54718 0.203124 0.20219 0.02967 0.42802-0.02169 0.54718-0.203124zm2.2869-0.830597c-0.48006-0.303454-0.4487 0.290141 0 0zm-0.75474-0.242814c0.57032-0.552986-0.85997 0.162772-0.15191 0.05796l0.0804-0.02595 0.0715-0.03201zm0.51474-0.557186c-0.54902-0.338339-0.0748 0.329827 0 0zm2.84-0.808559c-0.32067-0.328204-0.43873 0.470392 0 0zm3.52-2.82672c-0.19461-0.302114-0.22211 0.161991 0 0zm4.68-1.88472c-0.0583-0.28896-0.20464 0.259247 0 0zm1.52-2.56c-0.0583-0.28896-0.20464 0.259247 0 0zm0.91722-0.4c0.34858-0.323415-0.11507-0.510834-0.22509-0.0884-0.19995 0.301805 0.0882 0.08101 0.22509 0.0884zm-84.4772 65.92c0.216971-0.295463 0.07644 0.255551 0 0zm2.96-2.91132c0.05804-0.363657 0.67781-0.295668 0.245097 0.04075-0.0604 0.0757-0.248434 0.0941-0.245097-0.04075zm14.32-13.2534c0.17491-0.173282 0.187784 0.278281 0 0zm2.08-1.90584c0.151742-0.398497 0.22488 0.139544 0 0zm0.535602-0.404784c0.385919-0.533514 0.1232 0.490639 5e-6 0zm5.32106-4.61875c-0.13212-0.266699 0.394324-0.247678 0.411213-0.524526 0.531444-0.20452 0.293875 0.167284-0.01209 0.31722-0.02509 0.171722-0.236765 0.343597-0.399123 0.207306zm0.958689-0.913157c0.202547-0.324598 0.626717 0.03431 0.100274 0.06-0.04894 0.03773-0.146991 0.02016-0.100274-0.06zm0.410999-0.279474c-0.04056-0.5914 0.594739 0.07847 0.06892 0.07564l-0.04065-0.02945-0.02827-0.04619zm0.533651-0.593274c0.215401-0.322399 0.188532 0.311471 0 0zm0.46-0.220591c-0.455134-0.22568 0.38798-0.179586 0.105528 0.01704l-0.105528-0.01703zm1.3-1.37249c0.340094-0.426873 0.828343-0.80305 1.24286-1.0906-0.06807 0.506652-0.493457 0.963793-1.01362 1.09551-0.06333 0.0013-0.181961 0.06536-0.22924-0.0049zm4.545-3.82157c0.377303-0.0485-0.07902 0.132686 0 0zm2.33661-1.90728c0.373045-0.304841-0.149228 0.383483 2e-6 2e-6zm0.878392-0.59598c0.194438-0.198986 0.432895-0.830228 0.707449-0.657999-0.144318 0.220839-0.440912 0.748206-0.707449 0.657999zm3.48-2.96209c0.425968-0.310355 0.28262 0.333894 0 0zm13.04-9.52c0.23664-0.270922 0.0349 0.277745 0 0zm4.6-3.40198c0.31894-0.06589 0.46383-0.628773 0.79586-0.364361-0.34458 0.132936-0.3285 0.588221-0.79586 0.364361zm17.2-11.078c0.41779-0.337584 0.32339 0.293902 0 0z" stroke-width=".08"/>
 </g>
</svg>
