<?xml version="1.0" encoding="UTF-8"?>
<svg width="268.662" height="87.1721" version="1.1" viewBox="0 0 268.662 87.1721" xmlns="http://www.w3.org/2000/svg" xmlns:cc="http://creativecommons.org/ns#" xmlns:dc="http://purl.org/dc/elements/1.1/" xmlns:rdf="http://www.w3.org/1999/02/22-rdf-syntax-ns#">
 <metadata>
  <rdf:RDF>
   <cc:Work rdf:about="">
    <dc:format>image/svg+xml</dc:format>
    <dc:type rdf:resource="http://purl.org/dc/dcmitype/StillImage"/>
    <dc:title/>
   </cc:Work>
  </rdf:RDF>
 </metadata>
 <g transform="translate(-40.5901 -34.9371)">
  <path d="m44.9866 122.078c-0.368996-0.51889-1.48921-0.2544-1.69867-1.01505-0.465391-0.6172-0.787721-1.20433-1.41661-1.59615-0.250549-0.78189-0.950002-1.33858-1.27699-2.15916 0.459209-0.62121-0.370717-1.37292 0.483939-1.83203 0.04346-0.6209 0.243928-1.22889 0.947572-0.89815 0.699434-8e-3 1.57033-0.10401 2.42445-0.20674 1.05189-0.23595 2.01706-0.76031 3.02293-1.14115 0.87114-0.48887 1.83311-0.73415 2.73514-1.1721 1.2196-0.49519 2.39567-1.12408 3.57316-1.69087 0.823307-0.301 1.55282-0.70393 2.38321-0.94375 0.930297-0.40373 1.87836-0.70374 2.79033-1.15603 0.997743-0.39076 1.87733-1.0383 2.93044-1.2879 0.656451-0.6627 1.7754-0.52581 2.54792-1.04483 0.707287-0.50983 1.62036-0.44839 2.34833-1.00437 0.70949-0.62655 1.59564-0.37188 2.24462-1.07186 0.253432-0.63408 1.7012-0.15019 1.355-0.68901 0.767294-0.2201 1.7205-0.59841 2.25082-0.82152 0.555385-0.46534 1.79876-0.40537 2.13791-0.93194 0.251761-0.0913 1.44148-0.14996 1.75374-0.8072 0.872152-0.41311 1.68309-0.8324 2.68639-1.02981 0.770212 0.01009 1.24068-0.728206 1.99635-0.699044 0.251481-0.335276 0.611883 0.263393 0.78992-0.342266 0.979126-0.144218 1.64654-0.741494 2.50815-1.05061 0.554735-0.263924 0.893584-0.343318 1.41746-0.356249 0.432971-0.637377 1.30862-0.756079 1.88922-1.08405 0.513848-0.595212 1.38418-0.532976 2.0794-1.0178-0.04078-0.511503 1.20267-0.262827 0.159946-0.150795 0.342567 0.700561 0.601066-0.925024 1.01635-0.199291 0.305501-0.517811 1.19501 0.181763 1.63283-0.423012 0.68785 0.126715 0.803737-0.743492 1.49084-0.359229-0.0068-1.00265 1.74781-0.469583 1.85437-1.45237 0.516254-0.02423 1.05327-0.485573 1.59116-0.04479 0.102849-0.856444 1.26466-0.621345 1.77453-1.06415 0.447992-0.03782 0.80661-0.03261 1.08347-0.387586 0.90417 0.07163 1.57545-0.830338 2.4116-1.00196 0.57132-0.241482 1.50627-0.862304 1.94604-0.718077-0.33409 0.299263-0.4559 0.791658 0.11001 0.35794 0.53271-0.133374 0.84721-0.238606 0.61201-0.665963 1.09297-0.41108 2.128-0.999986 3.27808-1.26681 0.72089-0.108523 1.54403-0.679789 2.16299-0.647648 0.0238 0.369517-0.11618 0.878389 0.4021 0.416226-0.3282-0.738165 0.75692-0.534423 0.49649-0.180938 0.57161-0.14041 1.52448-0.234813 1.24895-0.631675 0.48188 0.182566 1.13569 0.824338 1.44708 0.0028-0.3561 0.108279-0.75188-0.467077-0.93943-0.0056-0.61274-0.123123-1.11504-0.552569-0.18879-0.732912 0.43897 0.06241 1.52297-0.820501 0.94508 0.120735 0.0705 0.172774 1.50286 0.04534 0.91666-0.432151 0.10394-0.598593-1.01923 0.321492-0.3148-0.344704 0.63871-0.136442 0.81109-0.798741 1.60635-0.790188 0.49052-0.282952 1.07979 0.05381 1.12521-0.442309 0.92963-0.298126 1.75183-0.948105 2.7479-0.93988 0.43649-0.733085 1.70083-0.09512 2.07697-0.783274 0.77922-0.18276 1.57059-0.49437 2.29872-0.507861 0.67639 0.320751 1.66971 0.141064 2.08295-0.418001-0.26852-0.75607 1.35274-0.343023 1.47112-1.06657 0.6134-0.312492 1.16209-0.430116 1.84827-0.176489-0.23921-1.07353 1.41115-0.353751 1.75342-1.20096 0.84554-0.316819 1.68872-0.516567 2.56176-0.721936 0.43427-0.612019 1.56437-0.65785 1.92709-0.630621 0.11257-0.694741 1.74358-0.371398 1.58893-0.692109-0.23687-0.448731 1.04013 0.132418 0.3698-0.32856 0.53694-0.03304 1.73747 0.491403 1.92721-0.217372 0.30775-0.701213 0.85956-0.01671 0.95285 0.0156 0.57996-0.03571 0.26148-0.735388 0.88635-0.278246 0.51699-0.0071 1.14994-0.439954 1.52965-0.487405-0.13826-0.322013 0.55816-0.559368 0.72458-0.855957 0.44844 0.285149 0.69275 0.191279 0.80265-0.384156 0.32403-0.442015 0.27106 0.336819 0.79692 0.09685 0.84328 0.335676 0.12695-0.224065-0.21933-0.282081 0.82214-0.02966 1.48367-0.772505 2.31871-0.957578 0.46955-0.0015 0.60303 0.676734 0.88124 0.452794 0.4803 0.257484 0.76036-0.473946 0.18153-0.562937 0.2658-0.539932 0.75303 0.689721 0.96481-0.06905 0.64234 0.570794 0.3586-0.733673-0.1545-0.147849-0.84191-0.207143 0.91787-0.672971 1.26537-0.834028 0.72527-0.522732 1.75039-0.181228 2.38202-0.703175 0.819-0.44334 1.80187-0.740465 2.73289-0.619266 0.10427 0.589777 0.4154-0.837607 1.05415-0.524234 0.85837-0.392911 1.7841-0.58742 2.6531-0.871762 0.46074 0.05632 0.8857 0.391646 1.12965-0.26797 1.02835 0.206742 1.59696-0.82695 2.60308-0.830262 0.70708 0.162185 1.18395-0.643956 1.97597-0.585657 0.9684-0.178005 1.7953-0.791679 2.71997-0.961698 0.14142 0.718527 0.77529 0.369055 1.05119 0.07136 0.60335-0.09188 1.04942-0.981603 1.84788-0.544327 0.30267 0.115501 0.73779-0.07085 0.19213 0.437639 0.39835 0.171843 0.78117-0.587327 1.29163-0.441397-0.38092-1.18505 0.89578 0.275208 1.4982 0.03021 0.0228-0.518609-0.14613-0.974 0.39933-1.02854-0.88049-0.473682 0.82678-0.05767 0.92455-0.705117 0.32974-0.618779 1.17724 0.832732 1.01645-0.07001-0.66643-0.638616 0.58838 0.242336 0.33504-0.409872 0.66775-0.173028 1.59925-1.03234 2.28202-0.383303-0.15716 0.107214-1.68799 0.287833-0.77141 0.632143 0.33807-0.191734 1.01362 0.233228 0.82542-0.416128 0.43213 0.162392 1.48713-0.715489 0.54812-0.551036 0.45056-0.463174 1.99482-0.382851 1.01093 0.274379-0.78379 0.295015 1.78354 0.480674 0.71807-0.208873 0.23476-0.206092 1.10733 0.581511 0.92144-0.29823-0.12888-0.871544 0.82416-0.788104 1.30027-1.1972 0.49173-0.02908 1.82603-0.343559 1.86725-0.02864-0.93241-0.08368 0.71736 0.473448 0.35834-0.276197 0.1264-0.158584 1.56654 0.209618 1.0027-0.253228-0.74294-0.260205 0.86266-0.381279 1.16752-0.540957 0.86367-0.08118 1.69658-0.694821 2.53791-0.480381 0.40385-0.767231 1.61371-1.11738 2.39624-0.957736 0.41628-0.0332 1.00407-0.270169 0.8548 0.01251 0.46023 0.06277 1.74471-0.214102 1.21111-0.711916 0.83182-0.50711 1.64432-0.723472 2.62509-0.727054 0.58302-0.0468 1.22905-0.261559 1.49639 0.144089 0.50021-0.158701 0.16938-0.737665 0.71079-0.290567 0.59102-0.266303 0.25621-1.04805 1.07197-0.779654 0.62989 0.131725 1.58916 0.353052 2.31692-0.106478 0.70052-0.120071-0.35822-0.58177 0.54484-0.584499 0.4456-0.331738 0.74028-0.438534 1.2042-0.355659 0.6278-0.221576 1.6672-0.05683 2.37074-0.488511 0.39971 0.503622 0.55059-0.756966 1.22584-0.30249 0.15561-0.137819-0.45544-0.111904 0.13363-0.23841 0.3592-0.434275 1.78774-0.346955 1.55903-0.02971-0.532-0.155361-0.44916 0.466134 0.12194 0.250491-0.21703 0.723198 0.6569 0.116609 0.75482-0.219765 0.74194-0.159302 0.64185-0.961906 1.52625-0.947927 0.97122-0.04199 1.62647-0.762906 2.6238-0.681415 0.55598-0.75253 1.58519-0.394414 2.34935-0.538014 0.26845 0.375348-1.30421-0.03666-0.95326 0.615454 0.4445 0.07936 1.12965-0.342555 1.13964 0.351784 0.55575 0.299238 0.10231-1.68846 0.66185-0.673816 0.31721 0.580437 0.0792-0.387061 0.52901-0.330195 0.2686-0.759881 1.41954-0.448984 1.92802-1.06977 0.96136 0.587085 1.57237-0.580408 2.53607-0.622045 0.557-0.514438 1.4599 0.230465 1.72015-0.09637-0.70745-0.291135 0.59893-0.41526 0.87838-0.367274 0.52956-0.258813 1.46939-1.12332 1.64881-0.02159 0.44582-0.635102 1.23554-0.925378 2.09824-1.00206 0.7882-0.303727 1.58394-0.530838 2.36049-0.522318 0.91284-0.446825 1.92164-0.613441 2.92047-0.837972 0.81304-0.04211 1.64536 0.01536 2.32317-0.561242 0.98094-0.0907 1.97283-0.300789 2.90884-0.542447 0.40689 0.05097-0.0738-0.377363 0.58676-0.19178 0.73651-0.52051 1.76386-0.362382 2.62804-0.620449 0.75301-0.560484 1.66804-0.08279 2.40245-0.519942 0.81404-0.528235 1.87292-0.250735 2.77301-0.55968 0.86907-0.272467 1.81036-0.216526 2.6602-0.499331 0.79562-0.412943 1.77278-0.35151 2.61219-0.678843 0.86405-0.143657 1.35306-0.169671 2.22138-0.274914 0.93718-0.156007 1.88123-0.310461 2.77309-0.581882 1.01629-0.246718 2.00416-0.561248 3.0431-0.626579 0.8022-0.171881 1.58909-0.648064 2.51716-0.66237 0.91012-0.2507 1.8733-0.237241 2.82336-0.276727 0.38177-0.376293 0.57488-0.35618 0.94427-0.24824 0.61508-0.691578 1.82292-0.133016 2.60576-0.633675 1.06201-0.356116 2.19192-0.40105 3.30095-0.363952 0.81956-0.476711 1.79853-0.411339 2.70553-0.570246 0.75366-0.629187 1.55623 0.573439 2.17699-0.368416 0.98178-0.107022 1.89506-0.406096 2.81241-0.762724 0.53879-0.133302 1.22458-0.286238 1.49062 0.21168 0.75718-0.643488 1.7762-0.635803 2.73519-0.696376 0.9904-0.125871 1.96318-0.414538 2.96984-0.476599 0.79252-0.05714 1.65882 0.02314 2.39185-0.193451 0.37592 0.234445 0.99575-0.350904 1.52216-0.107376 0.95781-0.02251 1.92744-0.517624 2.86028-0.358937 0.95836-0.02779 1.78849-0.27065 2.72304-0.489179 1.00348 0.01587 1.97161-0.174527 2.91678-0.483331 0.96979 0.02494 1.05156-1.15298 1.96402-0.976461 0.90255 0.347958 2.1439-0.523008 2.49685 0.830403 0.73789 0.317612 1.23835 1.60751 1.74486 1.79315 0.40714 0.195016 0.9127 1.49299 0.8053 2.00374 0.62425 0.377863 0.11771 1.42345-6e-3 1.98527 0.53781 0.697572-0.77257 1.02661-1.14171 1.49265-0.19144 0.966791-1.35134 0.621052-1.99178 0.796912-0.99737-0.391755-2.07192-0.36544-3.14069-0.285881-2.64521 0.117239-5.28268 0.36777-7.91817 0.598668-0.87122-0.02853-1.71376 0.13865-2.56372 0.225283-0.86893 0.252843-1.81456 0.141078-2.68569 0.43245-0.78837-0.222467-1.69005 0.143978-2.52346 0.109478-0.97424-0.0013-1.87334 0.386437-2.84165 0.366122-0.93827 0.03966-1.83914 0.304693-2.7762 0.320144-0.83277 0.226538-1.81655 0.358338-2.74653 0.536228-1.23029 0.08712-2.43595 0.363096-3.66188 0.470545-0.69386 0.49933-1.65338 0.277644-2.47727 0.478951-1.00385 0.112114-1.91828 0.395082-2.92099 0.485314-0.89574 0.192196-1.68748 0.394267-2.59661 0.533509-0.54073 0.383987-1.06858-0.39442-1.14649 0.159877-1.00959 0.137041-2.02571 0.30252-2.98441 0.610641-0.63476 0.44518-1.68475 0.184377-2.45753 0.49626-0.89813 0.06886-1.82872 0.486973-2.7122 0.302515-0.85277 0.314022-1.77324 0.526148-2.70145 0.67123-0.91959-0.140954-1.69413 0.696329-2.59644 0.368185-0.81999 0.307704-1.54012 0.554358-2.41602 0.713535-0.88538 0.213668-1.79256 0.192064-2.64021 0.523407-0.69974 0.172969-1.66723 0.688918-2.13268 0.142688-0.47981 0.873537-1.68529 0.47683-2.47189 0.826884-0.9077 0.37262-1.85779 0.686091-2.85699 0.686405-0.96367 0.292755-1.94789 0.642556-2.9717 0.754209-0.90928 0.161623-1.81477 0.436414-2.7033 0.764586-0.88478 0.01295-1.57112 0.366105-2.41972 0.400654-0.36588-0.03795-0.96473-0.367372-0.39006 0.175897-0.87343 0.02139-1.64581 0.572587-2.55049 0.563369-0.35499-0.233939-0.72731 0.539803-1.20921 0.103152-0.50283 0.268641-0.91407 0.704844-1.64068 0.612648-0.89188 0.253147-1.70815 0.211229-2.52308 0.607117-0.80265 0.309076-1.76219-0.166369-2.33401 0.615555-0.91689-0.114854-1.7021 0.713858-2.56568 0.456701 0.13118-0.402156-0.0167-1.07169-0.48553-0.482067 0.14294 1.08994-1.11498 0.636397-1.60777 1.17766-0.52559 0.243257-0.98005 0.571814-1.44192 0.139085-0.48528 0.592663-1.3556 0.09995-1.71631 0.858145-0.78025-0.02159-1.76258 0.560723-2.27574 0.262335-0.0567 0.619866-0.63667 0.330488-1.06129 0.360408-0.85644 0.152113-1.60529 0.991484-2.55702 0.621397-0.9669 0.439923-1.93898 0.677154-2.93461 1.02045-0.82438 0.08196-1.67734 0.207466-2.41341 0.46888-0.35419 0.712738-1.57415-0.604828-1.11662 0.314469-0.87121 0.3734-1.87559 0.717405-2.87175 0.848095-0.85248 0.331443-1.61693 0.198592-2.49304 0.219181-0.18878 0.985669-1.34787 0.472301-1.91344 1.07738-0.4962 0.173318-1.05447 0.02715-1.39002 0.493887-1.05656-0.05585-1.97128 0.440037-2.93253 0.670606-0.6865 0.668345-1.71038 0.358685-2.41457 0.888989-1.03954 0.103189-1.98174 0.511288-2.98347 0.759531-0.98799 0.17883-1.9638 0.460717-2.91561 0.902799-0.60334-0.100957-0.93409 0.06437-1.40298 0.345902-0.53017-0.210696-1.0152 0.05566-1.17064 0.299465-0.78575 0.489308-1.73021 0.361613-2.50373 0.785596-0.99467 0.46356-2.06137 0.691097-3.08351 0.993277-0.5977 0.209549-0.94632 0.08005-1.58363 0.482872-0.9526 0.323202-1.89668 0.67395-2.85187 0.998153-1.04361 0.136694-1.91832 0.586344-2.92586 0.821509-0.68884 0.604082-1.73664 0.175036-2.31598 0.886209-0.84251 0.522566-1.81063 0.326448-2.68365 0.759853-0.44057 0.221628-0.51315 0.259696-0.77015 0.01141-0.43003 0.09614-0.0696 0.606617-0.75315 0.328123-0.5503 0.457017-1.54057 0.925619-2.34394 0.542363-0.66456-0.0618-0.4055 0.848594-1.21227 0.834085-1.12011 0.194216-2.22109 0.520115-3.23291 1.06139-0.83372 0.555603-1.94642 0.270885-2.65575 0.992822-0.42599 0.03232-1.3952 0.650674-0.91266-0.124649-0.20761-0.91959-1.02047 0.01233-0.71283 0.535257-0.78736 0.359623-1.69576 0.678908-2.54317 0.871312-0.86932 0.461136-1.8465 0.697934-2.76404 0.988202-0.98832 0.110017-1.70858 0.826563-2.69302 0.999078-0.83072 0.05851-1.34139 0.779803-2.22818 0.705833-0.69531 0.485427-1.45288 0.632121-2.26016 0.890199-0.83017 0.29166-1.5052 0.937598-2.42776 0.904226-0.79296 0.226152-1.5341 0.681919-2.27341 1.01011-0.95765 0.228012-1.83754 0.587244-2.7178 0.979861-0.58516-0.32085-1.16817 0.85448-2.00449 0.643159-0.80124 0.236238-1.38665 0.786734-2.25769 0.822161-0.8094 0.444779-1.68403 0.86522-2.6381 0.972482-0.61926-0.06635-0.87338 0.537039-1.55395 0.573032-0.78652 0.625882-1.94789 0.502905-2.82078 1.04084-0.45072 0.178562-1.23146 0.0032-1.36254 0.229102 0.53694 0.234388-0.91928 0.580883-1.18501 0.761055-0.83032 0.455693-1.72761 0.853603-2.62221 1.12-0.91145 0.293942-1.76869 0.925369-2.7102 1.16-0.75826 0.298231-1.59065 0.59171-2.27645 0.85793-0.84608 0.416787-1.80165 0.592416-2.59283 1.04104-1.10694 0.20359-1.99579 0.795109-3.04034 1.16282-1.03638 0.384662-2.03159 0.748191-3.03668 1.20003-0.446886 0.439047-0.222982-0.717332-0.47527-0.107815-0.405799 0.743196-1.65103 0.84167-2.42338 1.25188-1.0498 0.03158-1.66609 0.718585-2.57858 1.09-0.878687 0.32778-1.69581 0.81277-2.6208 1.0032-0.899836 0.45899-1.83593 0.83019-2.73146 1.26464-0.921494 0.40306-1.85256 0.78474-2.81465 0.9041-0.605534 0.7764-1.86384 0.81537-2.65882 1.36664-0.864788 0.16001-1.89759 1.33136-2.64105 0.4572-0.463287 0.29577-0.407143 0.56368 0.0096 0.67751-0.498645 0.27173-0.918508-7e-3 -1.22207 0.54903-0.78437 0.4637-1.7546 0.58664-2.46819 1.15295-0.486685-0.63884-0.262099 0.50156-0.996853 0.34532-0.985915 0.50194-2.08383 0.67914-3.03569 1.22452-0.73311 0.55964-1.70749 0.66165-2.43871 1.16669-0.943413 0.42347-1.90234 0.78345-2.82139 1.28938-0.884976 0.37651-1.67752 0.86718-2.57281 1.22181-0.909515 0.51273-1.89831 0.85109-2.80365 1.36093-0.873002 0.38145-1.75072 0.69897-2.56079 1.20248-0.851419 0.4564-1.77568 0.70386-2.55489 1.27392-0.992975 0.29714-1.84563 0.91384-2.78022 1.35084-0.970676 0.28707-1.70034 1.06875-2.7371 1.23808-0.854045 0.30071-1.56186 0.83278-2.43772 1.06758-0.845982 0.24251-1.60023 1.01403-2.50872 0.89919zm33.9492-20.4164c-0.721737-0.33733-0.552555 0.53664 0.0098 0.10415l-0.0098-0.10413zm-0.609148-0.30336c-0.44928-0.17208-0.412597 0.1732-0.03681 0.0485zm14-2.67144c-0.240205-0.232478-0.388903 0.302999 0 0zm-5.30167-0.768334c-0.260668-0.08814-0.215069 0.148589 0 0zm12.5017-3.43167c-0.136057-0.400398-0.127488 0.392981 0 0zm9.24672-0.62c-0.1122-0.765344-1.09356-0.08652-0.14516 0.09442 0.0437 0.03757 0.19753-0.01586 0.14516-0.09442zm-6.78838-0.588334c-0.26061-0.08815-0.21518 0.148586 0 0zm-3.04-0.88c-0.260668-0.08814-0.215069 0.148589 0 0zm5.22166-0.06694c-0.0185-0.733772-0.99722-0.01266-0.1443 0.111471l0.10359-0.02994 0.0407-0.08153zm-4.84571-0.330436c0.357708-0.646856-0.69723 0.3292 2e-6 4e-6zm4.69359-0.543825c-0.65304-0.08793 0.38165 0.435702-2e-5 0zm-2.98954-0.0988c-0.26061-0.08815-0.21518 0.148588 0 0zm3.62166-0.146944c-0.28466-0.637411-0.4523 0.46711 0 0zm0.92-1.64472c-0.0212-0.293391-0.24008 0.269493 0 0zm5.11529-0.202544c0.10725-0.132575-0.12008-0.165641 6e-3 -0.455949-0.64476-0.279525-0.49144 0.966193-6e-3 0.455949zm1.32471-0.192734c-0.18237-0.418631-0.20215 0.275744 0 0zm5.796-0.573713c-0.22824-0.314019-0.66751 0.532214 0 0zm-9.876-0.151008c-0.44485-0.324978-0.55448 0.311848 0 0zm4.60472-0.35848c0.25771-0.631043-0.73425 0.323598-5e-5 -1e-6zm-1.88472-0.44152c-0.60367-0.255957-0.0151 0.297143 0 0zm15.3073-0.939154c-0.54981-0.310739-0.55777 0.910916 0.0327 0.177632 0.0989-0.03767 0.0376-0.159843-0.0327-0.177632zm-11.7873-0.612287c-0.26541-0.281226-0.3563 0.150664 0 0zm2.08-0.288559c-0.44383-0.336918-0.28182 0.304017 0 0zm11.12-2.03528c-0.26038-0.62551-0.28226 0.471123 0 0zm-5.68-0.515392c-0.0257-0.362706-1.49069-0.157296-0.68 0.0065 0.1755 0.05161 0.61857 0.299429 0.68-0.0065zm4.25371-0.221729c0.42449-0.462847-0.80104-0.281947-0.24276 0.128346l0.11142-0.03573 0.1313-0.09262zm-1.92172-0.736448c0.0161-0.564233-0.89939 0.530959-0.0864 0.124138zm1.18801-0.251153c-0.29458-0.321948-0.30691 0.312954 0 0zm3.80329-0.0053c-6.8e-4 -0.4828-0.51679 0.29588 0 0zm-0.65906-1.15358c-0.34678-0.440302-0.32518 0.421135 0 0zm7.97577-0.56584c-0.39845-0.472221-0.19935 0.597597 0 0zm7.68 0.08944c-0.15041-0.535519-0.45263 0.507051 0 0zm-12.5372-0.20333c-4e-4 -0.255473-1.18559 0.05319-0.31143 0.144519 0.1114 0.01977 0.28601-0.0047 0.31143-0.144519zm-0.84448-0.04972c-0.26061-0.08815-0.21518 0.148586 0 0zm15.5378-0.104432c5e-3 -0.486542-0.52221 0.47944-2e-5 4e-6zm-11.4007-0.08219c0.40024-0.733705-1.40576 0.06135-0.20598 0.136661l0.10067-0.03875 0.10529-0.09792zm-2.54436-0.04505c0.1854-0.171178 0.75405-0.297598 0.0103-0.24087-1.00427-0.482327-0.11786 0.597034-0.0103 0.24087zm12.2689-0.12c-0.29458-0.321948-0.30691 0.312954 0 0zm2.256-0.096c-0.43093-0.173116 0.21074 0.3662 0 0zm-10.736 0.016c-0.50469 0.0961-0.41601-0.885612-0.80883-0.357194-0.43158-0.231836-0.91775 0.137156-0.1702 0.236711 0.32429 0.01054 0.67431 0.362146 0.97903 0.120483zm9.96-0.08c-0.57328-0.333-0.25823 0.313339 0 0zm-11.96-0.16c0.44535-0.389402-0.47443-0.792047 0.36109-0.503126-0.40859-0.33308 0.82933-0.341448 0.0333-0.527059-0.5388 0.03563-0.86375 0.525562-1.35439 0.587369 0.20554 0.404669 0.73939 0.05735 0.72004 0.602816l0.1035-0.047 0.1365-0.113zm13.76-0.44c-0.27402-0.903244-0.33348 0.896831 0 0zm-1.45264-0.110493c-0.0162-0.390385-0.69296 0.203575 0 0zm-9.90736-0.40827c-0.61343-1.13283-0.60649 0.872816 0 0zm-0.76-0.0012c-0.34562-0.309426-0.49207 0.35587 0 0zm9.865-0.155c-0.0624-0.278734-0.38056 0.332731-0.0555 0.08444zm-9.025-0.418281c-0.46494-0.347531-0.76259 0.314347 0 0zm14.96-0.306719c-0.1574-0.285517-0.33119 0.304947 0 0zm0.82876-0.119565c-0.2344-0.576155-0.64009 0.558818 0 0zm-5.94876-0.128994c-0.37506-0.305343-0.36585 0.441885 0 0zm-8.14-0.124423c-0.31711-0.06779-0.26861 0.125982 0 0zm4.73346-0.155577c0.39418-0.419174-0.83815 0.2144-4e-5 -1e-6zm-2.19346-0.111441c-0.29602-0.304773-0.18814 0.266292 0 0zm10.6183-0.128334c-0.26061-0.08815-0.21518 0.148587 0 0zm-9.21834-0.111666c-0.0247-0.282837-0.35364 0.285795 0 0zm11.32-0.64c-0.29458-0.321948-0.30691 0.312954 0 0zm-9.28-0.144c-0.24028-0.547099-0.88547 0.209494-0.068 0.0452zm5.52-0.416c-0.2154-0.322399-0.18853 0.311471 0 0zm-1.2-0.122814c-0.10465-0.262654-0.53281 0.311926-0.0461 0.08746zm2.08199-0.08239c0.26541-0.800172-1.03604 0.467967-0.10699 0.157159l0.10704-0.157162zm-4.66365-0.163126c-0.26061-0.08815-0.21518 0.148587 0 0zm14.6164-0.275424c-0.54283-0.118765 0.29602 0.292992 0 0zm-13.5547 0.01709c-0.14189-0.442203-0.61259 0.293535 0 0zm-0.92654-0.06189c0.49286-0.76907-0.79699 0.27202 0 0zm12.9049 2.4e-4c-0.26061-0.08815-0.21518 0.148587 0 0zm1.48166-0.172064c0.69764-0.361901-1.00122-0.233307-0.36707 0.100341l0.16848-0.05529 0.19856-0.04505zm-8.42-0.37962c-0.37137-0.444768-0.47809 0.532694 0 0zm-0.56-0.29529c-0.20742-0.35489-1.30617-0.27267-0.79695 0.08422 0.52139-0.352725 0.56179 0.630977 0.79695-0.08422zm-4.21577-0.103614c-0.34678-0.440301-0.32518 0.421133 0 0zm13.6847-0.321096c-0.32264-0.396864-0.0384 0.386085 0 0zm4.20193-0.20565c-0.38014-0.141325 0.16604 0.333228 0 0zm-8.01374-1.08449c-0.32473-0.552646-0.7075 0.475649 0 0zm10.2629-0.109857c-0.29458-0.321948-0.30691 0.312954 0 0zm-12.64-0.56c-0.51261-0.258282-0.82119 0.104329 0 0zm4.31583-0.07573c0.0261-0.402477-0.86345 0.121161-0.12277 0.05364l0.12282-0.05368zm13.0602-0.10027c-0.57984-0.172286 0.10275 0.355021 0 0zm-14.6674-0.135225c0.10162-0.496751-0.54031 0.27618 0 0zm14.8037-0.119433c0.0382-0.529181-0.45555 0.368522 0 0zm-14.5693-0.417924c0.64852-0.186359 0.0832-0.693448-0.13802-0.213844-0.77277 0.03075-0.28939 0.399323 0.13802 0.213844zm7.171-0.06151c0.66002-0.344412-1.03541 0.05091-0.17185 0.07457l0.17185-0.07457zm-1.11392-0.129908c-0.0212-0.293391-0.24008 0.269493 0 0zm-5.01741-0.22764c-0.10941-0.31749-0.50002 0.339051-0.0672 0.08414zm16.0838-0.358351c-0.18352-0.487115-0.83751 0.463493-0.0801 0.114361l0.0531-0.05097zm-3.14634-0.121554c0.79069-0.679033-0.95184-0.04726-0.11886 0.1253l0.0838-0.04858 0.0351-0.07673zm-7.64 0.03227c-0.2018-0.313273-0.22033 0.168175 0 0zm-0.41468-0.264725c-0.2402-0.630597-0.71592 0.432849-0.0117 0.174962zm3.77468 0.14c0.22381-0.32396-0.58976 0.27367 0 0zm-6.56-0.12c-0.34256-0.467434-0.37601 0.463248 0 0zm16.16-0.28c-0.2154-0.322399-0.18853 0.311471 0 0zm2.24-0.08c-0.19153-0.319609-0.12765 0.297504 0 0zm1.25833-0.368334c-0.2606-0.08815-0.21516 0.148588 0 0zm-15.6783-0.251666c-0.47122-0.46527-0.48974 0.47055 0 0zm-0.70004-0.02c-0.29458-0.321948-0.30691 0.312954 0 0zm2.77268-0.175837c0.23724-0.518384-0.26414-0.922355-0.36572-0.160237-0.18213 0.288269 0.45943 0.527615 0.36572 0.160237zm1.38732-0.224163c-0.60469-0.5494-0.27337 0.301506 0 0zm2.87992-0.495278c-0.37053-0.3434 0.65354-0.400113-0.20778-0.426972-0.77943 0.04591-0.62347 0.786341 0.0912 0.469525l0.11664-0.04255zm1.64008-0.06472c-0.31421-0.288608-0.15257 0.290832 0 0zm-6.06166-0.04833c-0.2606-0.08815-0.21519 0.14859 0 0zm2.66166-0.19167c-0.13236-0.306367-0.67638 0.271231 0 0zm3.19755 9e-3c0.43146-0.33383-1.00809-0.119529-0.21107 0.04884l0.21104-0.04885zm-1.64273-0.320616c-0.26299-0.481022-0.54505 0.28862 0 0zm1.8204 0.02974c0.18723-0.593447-0.98061-0.563157-0.3617-0.01145 0.10302 0.06584 0.25602 0.07439 0.3617 0.01145zm9.22479-0.03812c-0.15009-0.296269-0.30613 0.270274 0 0zm-10.3612-0.22c-0.10889-0.65962-0.38534 0.29456 0 0zm1.88122-0.1c-0.32807-0.574665-0.49674 0.28499 0 0zm0.33834-0.04833c-0.26061-0.08815-0.21518 0.148586 0 0zm0.34044-0.21167c-0.25031-0.865513-0.72252 0.492685 0 0zm0.75468 0.05144c0.44297-0.358116-0.94992-0.224189-0.18573 0.04296l0.18575-0.04296zm1.45909-0.155284c-0.41213-0.992752-0.71111 0.492926 0 0zm-3.45255-0.03616c-0.0212-0.293391-0.24008 0.269493 0 0zm13.2828-0.369201c0.75299-0.598687-1.48605-0.160474-0.29977 0.122376l0.13678-0.03218 0.16299-0.0902zm-4.86115-0.175799c-0.42449-0.419617-0.32628 0.453097 0 0zm9.47753 0.03686c0.12997-0.355306-0.61595 0.285485 0 0zm-0.70574-0.02042c0.30908-0.376314-0.9247 0.164116 0-3e-6zm-13.5564-0.147937c0.12127-1.17035-0.62656 0.670684 0 0zm14.2029-0.0435c-0.28106-0.361356-0.6165 0.345092 0 0zm-12.166-0.169688c-0.3401-0.166535-0.13851 0.410398 0 0zm7.48599-0.10559c-0.12919-0.262157-0.33634 0.173143 2e-5 0zm-0.4-0.291388c-0.23409-0.447977-0.24982 0.541227 0 0zm-6.96-0.03333c-0.10796-0.447953-1.01135 0.268821-0.10847 0.07561l0.10847-0.07561zm-1.88-0.12c-0.24165-0.329351-0.45104 0.301846 0 0zm6.12 0c-0.1574-0.285517-0.33119 0.304947 0 0zm-3.30252-0.07891c0.17588-0.600591-1.02661 0.222941-0.11912 0.01425l0.11908-0.01425zm2.48523 0.01129c-0.0899-0.54468 0.72321-0.204959 0.47479-0.805422 0.77088-0.434616-0.7079-0.510796-0.7468 0.07303-0.0698 0.03721-0.25688 1.07543 0.27201 0.732387zm3.25729-0.245713c-0.22196-0.429598-0.44351 0.521529 0 0zm-4.37834-0.231671c-0.21955-0.341646-0.26654 0.403944 0 0zm-2.30166-0.015c-0.2154-0.322399-0.18853 0.311471 0 0zm1.04 0c-0.19153-0.319609-0.12765 0.297504 0 0zm3.366-0.102c-0.47234-0.298567-0.22591 0.262146 0 0zm8.059-0.133c-0.0623-0.27874-0.38055 0.332705-0.0556 0.08444zm-7.985-0.48721c-0.35286-0.181335-0.14117 0.395301 0 0zm0.72-0.15779c-0.1574-0.285517-0.33119 0.304947 0 0zm0.4-0.4c-0.37614-0.370748-0.85997 0.246283-0.0842 0.0565zm15.6108-0.341246c-0.5669-0.194606-0.0452 0.389084 0 0zm-16.5924-0.107088c-0.2606-0.08815-0.21516 0.148588 0 0zm19.7817-0.13002c-0.24126-0.0589-0.37531 0.397438 0 0zm-17.52-0.06736c-0.17031-0.353531-0.28615 0.529098 0-9e-6zm3.47105-0.0088c0.33016-1.06449-0.6014 0.573759 0 0zm-5.35105 0.01451c-0.31286-0.348178-0.30593 0.294692 0 0zm12.6365-0.165602c-0.4215-0.167207-0.26439 0.395526 0 0zm-8.91653 0.05032c-0.2018-0.313273-0.22033 0.168175 0 0zm4.59-0.188542c-0.0126-0.684115-0.74417 0.349152 0 0zm13.586-0.27218c-0.57982-0.172298 0.10271 0.355025 0 0zm-15.6183-0.06088c0.22983-0.510708-0.62003 0.276198 0 0zm16.3223-0.0031c-0.2154-0.322399-0.18853 0.311471 0 0zm-17.86-0.111372c-0.48002 0.0209-0.56337-1.22072-0.90389-0.500071-0.0187 0.311938 0.83808 0.924782 0.90389 0.500071zm9.93995-0.177187c-0.27467-0.182754-0.35168 0.307363 0 0zm-7.66-0.231441c-0.29341-0.357952-0.56125 0.493854 0 0zm11.4177-0.196875c0.22563-0.424148-0.9861 0.182959-0.1389 0.05455l0.13888-0.05452zm4.80232-0.0384c-0.36255-0.697638-0.23406 0.464926 0 0zm0.88-0.04472c-0.29458-0.321948-0.30691 0.312954 0 0zm-16.08-0.03528c-0.2018-0.313273-0.22033 0.168175 0 0zm11.6604-0.06473c-0.53648-0.438455-0.1948 0.286716 0 0zm3.9687-0.179541c-0.29356-0.282831-0.016 0.370333 0 0zm2.89067-0.03974c4e-3 -0.927636-1.09043-0.04693-0.28767 0.164274 0.10111-0.01912 0.24502-0.05127 0.28767-0.164274zm-0.93927-0.02072c-0.86991-0.517261-0.46487 0.31656 0 0zm-16.3005-0.215278c-0.19598-0.381683-0.0416-0.856346-0.48016-0.267842-0.48076 0.09758 0.39931 0.510864 0.48016 0.267842zm15.36 0.01306c-0.39543-0.787507-0.64015 0.383385 0 0zm-11.44-0.04845c-0.13705-0.184168-0.63955-6.29e-4 -0.2 0.03067zm13.4-0.449326c-0.0466-0.266364-0.44882 0.188755-0.0702 0.0565zm-9.58167-0.04833c-0.2606-0.08815-0.21516 0.148586 0 0zm5.54167-0.111676c-0.1574-0.285517-0.33119 0.304947 0 0zm-9.76-0.16c-0.19153-0.319609-0.12765 0.297504 0 0zm0.64-0.32c-0.19153-0.319609-0.12765 0.297504 0 0zm-0.56-0.249326c-0.2513-0.350609-0.72521 0.536131 0 0zm1.02447 0.01591c-0.21639-0.596769-0.60104-1.1837-1.24895-0.597266-0.31846-0.136995-1.2876 0.09474-0.40885 0.108068 0.64814-0.06669 1.12302 0.03781 1.34427 0.583921 0.0986 0.03991 0.27478 0.03054 0.31353-0.09472zm2.33553-0.36186c-0.12919-0.262157-0.33634 0.173143 2e-5 0zm7.36 0c-0.12919-0.262157-0.33634 0.173143 2e-5 0zm-5.48988-0.126595c-0.80471-0.414134-0.25557 0.321316 0 0zm4.04988-0.07813c-0.1574-0.285517-0.33119 0.304947 0 0zm-8.16068-0.402106c-0.88768-0.286722 0.20856 0.597993 0 0zm4.36537 0.02013c0.56269-0.378841-0.81649-0.973424-0.13024-0.268747-0.19373 0.156401-0.074 0.56411 0.13024 0.268747zm14.6656 0.06969c0.1634-0.704376-0.64558 0.281656 0 0zm-17.1102-0.03916c-0.22844-0.248352-0.42186 0.163819 0 0zm5.28-0.04856c-0.0152-0.297131-0.60362 0.255963 0 0zm9.36184-0.39555c-0.52664-0.801678 0.13697 1.05732-2e-5 0zm-9.64184-0.06199c-0.74772-0.574292-0.28287 0.290149 3e-5 -2.7e-5zm0.76-0.14194c-0.70163-0.289061-0.50706 0.271254 0 0zm5.68-0.280521c-0.29602-0.304774-0.18814 0.26629 0 0zm-5.28-0.60933c-0.34816-0.150146-0.41313 0.235891 0 0zm-0.48-0.15067c0.44211-0.566892-0.40747-0.10093-0.38855 0.04879 0.10023 0.06641 0.35833 0.133743 0.38855-0.04879zm20.6-0.08557c-0.57592-0.721649-0.33859 0.671356 0 0zm-19.572-0.04222c0.69674-0.460006-1.25807-0.0034-0.20385 0.06211l0.20385-0.06214zm18.972-0.112203c0.69689-0.387225-0.74142-0.250377-0.0588 0.114699l0.0426-0.03864 0.0162-0.07607zm-17.68-0.395278c-0.12919-0.262157-0.33634 0.173143 2e-5 0zm18.32-0.124722c-0.2154-0.322399-0.18853 0.311471 0 0zm-18.0217-0.04833c-0.2606-0.08815-0.21516 0.148588 0 0zm19.7294-0.02106c0.32809-0.458855-0.82238 0.185613-0.14807 0.04272zm1.07406-0.372535c-0.24896-0.68625-0.37323 0.801034 0 0zm-0.88348-0.166409c-0.2606-0.08815-0.21516 0.148586 0 0zm-14.7783-0.227691c-0.36473-0.302412 0.18496-0.426142-0.4598-0.427572-0.25844 0.09072 0.31223 0.806212 0.4598 0.427572zm16.08 0.03603c-0.19153-0.319609-0.12765 0.297504 0 0zm-0.33506-0.459082c-0.59996-0.707898-0.13635 0.587107 0 0zm-15.4186-0.407427c-0.66592 0.02443 0.38939 0.294728 0 0zm6.91367-0.012c-0.598-0.680955-0.43589 0.47395 0 0zm8.44-0.241538c-0.36704-0.550163-0.18634 0.532807 0 0zm-13.43 0c0.97411-0.142743-0.41086-0.310942-0.61452-0.312689-0.19816-0.307188-0.52958 0.688633 0.1093 0.341876 0.16771-0.01894 0.33648-0.02843 0.50522-0.02919zm10.03-0.64c-0.0247-0.282832-0.35362 0.285785 0 0zm11 0.04571c-0.23429-0.481068-0.87156-0.216988-0.17341 0.02682 0.0209-0.0032 0.16638 0.05298 0.17341-0.02682zm-12.64-0.125713c-0.29602-0.304774-0.18814 0.26629 0 0zm2.57719-0.228421c0.32458-0.818885-0.99083-0.05155-0.2082 0.13479 0.0492-0.0065 0.22685-0.03173 0.2082-0.13479zm9.52535-0.171579c-0.10227-0.433731-0.73912 0.230326 0 0zm-0.30561-0.267864c0.26761-0.749527-0.72191 0.35032 0 0zm-10.372-0.111218c-0.36411-0.55586-0.30307 0.513628 0 0zm-4.86494-0.02092c-0.11949-0.252813-0.18049 0.274761 0 0zm7.505-0.155c-0.0623-0.27874-0.38055 0.332705-0.0556 0.08444zm-3.265-0.411048c-0.26796-0.169409-0.3364 0.39507 0 0zm8.30466-0.07995c-0.25598-0.321929-0.27069 0.33801 0 0zm-6.11121-0.602559c0.44468-0.285229-0.9382-0.240571-0.15228 0.03992l0.15228-0.03991zm6.20655-0.03144c-0.2154-0.322399-0.18853 0.311471 0 0zm-0.17534-0.246c-0.25598-0.321929-0.27069 0.33801 0 0zm0.17534-0.234c-0.2154-0.322399-0.18853 0.311471 0 0zm5.47553 0.0072c-0.0271-0.946097-0.88878 0.338356 0 0zm-4.45415-0.263076c-0.24862-0.293899-0.2709 0.464566 0 0zm10.3386 0.01588c-0.29458-0.321948-0.30691 0.312954 0 0zm-10.84-0.32c-0.0212-0.293391-0.24008 0.269493 0 0zm20.88-0.24c-0.31421-0.288609-0.15258 0.29083 0 0zm-19.68-0.08c-0.15009-0.296269-0.30613 0.270274 0 0zm3.2 0c-0.0466-0.266365-0.44882 0.188759-0.0702 0.0565zm-0.17039-1.50853c0.24386-0.903346-0.75146 0.540967 0 0zm4.82352 0.02315c-0.10508-0.775222-0.53345 0.484216 0 0zm-2.61313-0.346063c-0.40599-0.717052-0.20646 0.444515 0 0zm2.64-0.328559c-0.1574-0.285517-0.33119 0.304947 0 0zm-0.04-0.32c-0.35803-0.479607-0.96985 0.218366-0.13769 0.12456l0.10043-0.04638 0.0373-0.07817zm1.44-0.16c-0.12146-0.304647-0.24418 0.253313 0 0zm-0.44-0.06667c-0.18905-0.460888-0.32196 0.272609 0 0zm2.36615-0.386151c0.58099-0.576202-0.70695 0.269089-0.0747 0.20255-5e-3 0.03645 0.14997-0.202656 0.0747-0.20255zm15.2476-1.11958c0.43032-0.45309-1.27077-0.198585-0.3038 0.120255 0.11486 0.03794 0.22183-0.05799 0.3038-0.120255zm-5.23204-0.252595c-0.5213-0.434887-0.42968 0.438987 0 0zm3.61413-0.0976c-0.60204-0.144935 0.10859 0.31492 0 0zm-4.65495-0.158349c-0.26383-0.355052-1.02762 0.216528-0.20737 0.03025 0.0504-0.0636 0.45937 0.435088 0.20737-0.03025zm-0.14084-0.43251c0.30377-0.766643-0.7735 0.182579 0 0zm6.6905-0.808014c0.70511-0.688011-0.86938-0.315728-0.13364 0.134891 0.0827 0.07167 0.20741-0.04816 0.13364-0.134891zm-0.123-0.556881c0.82697-0.311532-1.57039-0.03107-0.4629 0.187221 0.11973-0.123876 0.26415-0.272024 0.4629-0.187221zm5.9925 0.03835c-0.29458-0.321948-0.30691 0.312954 0 0zm-5.28-0.08c-0.21166-0.304436-0.50397 0.316299 0 0zm2-0.64c-0.2154-0.322399-0.18853 0.311471 0 0zm2-0.64c-0.29602-0.304773-0.18814 0.266292 0 0zm-168.543 50.1919c-0.137368-0.344718 0.355564 0.286795 0 0zm14.9832-5.71193c0.31286-0.348178 0.30593 0.294692 0 0zm13.2208-4.83082c-0.3764-0.532704 1.6365-0.509457 0.4421-0.239627-0.16415 0.123774-0.17616 0.51815-0.4421 0.239627zm30.7792-4.68918c0.15009-0.296269 0.30613 0.270274 0 0zm-13.48-1.36c0.49156-0.298535 0.4587 0.178574 0 0zm26.1628-8.91661c-0.0856-0.367195 1.03631-0.08093 0.1858 0.04l-0.088 0.0338-0.0978-0.0738zm3.11718-0.52339c0.36964-0.323556 0.43017 0.313149 0 0zm-0.63484-0.117238c-0.4359-0.418045 0.92517 0.252714 0-6e-6zm30.9744-9.06173c-0.19158-0.347013 1.67641-0.381004 0.59275-0.115911-0.20003 0.02293-0.38753 0.150109-0.59275 0.115911zm9.02548-2.37503c-0.0717-0.528357 0.491 0.175659 0 0z" stroke-width=".08"/>
 </g>
</svg>
