<?xml version="1.0" encoding="UTF-8"?>
<svg width="225.552" height="73.3031" version="1.1" viewBox="0 0 225.552 73.3031" xmlns="http://www.w3.org/2000/svg" xmlns:cc="http://creativecommons.org/ns#" xmlns:dc="http://purl.org/dc/elements/1.1/" xmlns:rdf="http://www.w3.org/1999/02/22-rdf-syntax-ns#">
 <metadata>
  <rdf:RDF>
   <cc:Work rdf:about="">
    <dc:format>image/svg+xml</dc:format>
    <dc:type rdf:resource="http://purl.org/dc/dcmitype/StillImage"/>
    <dc:title/>
   </cc:Work>
  </rdf:RDF>
 </metadata>
 <g transform="translate(-35.2437 -20.4038)">
  <path d="m39.7211 93.6365c0.288292-0.264528 0.635194 0.12263 0 0zm-1.28803-0.20968c-0.71653-0.447789-0.768063-1.52277-1.36959-2.06501-0.505774-0.467615-1.22966-0.768949-1.34238-1.44133-0.475875-0.267629 0.189954-0.688398-0.368023-0.955975-0.264576-0.725324-0.155379-1.52645 0.49142-1.94882 0.08422-0.857779 0.359965-1.68604 0.604736-2.51622 0.03165-0.858765 0.859423-1.28707 1.08958-1.94303 0.730101 0.01056 1.51038 0.366952 1.73044 1.16879 0.0051 0.71743-0.06864 1.45232 0.14339 2.09749 0.788908-0.113472 1.46228-0.681585 2.20367-0.9813 0.926745-0.436853 1.83146-0.934813 2.77322-1.32719 0.727574-0.532798 1.53471-0.949093 2.3255-1.37341 0.663205-0.353406 1.36956-0.626656 1.98045-1.05625 0.686568-0.361623 1.36995-0.675265 2.03197-1.06915 0.530756-0.271951 1.39145-0.601458 1.63985-0.651408 0.302408-0.538342 1.31561-0.546103 1.7992-0.918729 0.567572-0.262028 1.16895-0.609216 1.70876-0.968772 0.766264-0.43955 1.47395-0.991636 2.3412-1.23892 0.648794-0.199835 1.2327-0.729532 1.95976-0.878738 0.642099-0.342282 1.41399-0.323553 1.8546-0.817761 0.622518-0.219576 1.32584-0.450301 1.92234-0.420795 0.333946-0.911588 1.53378-0.29106 1.86042-1.11724 0.670112-0.370198 1.39269-0.714691 2.15633-0.936603 0.676751-0.507076 1.60679-0.620022 2.30532-1.16992 0.92205-0.132179 1.57382-0.903305 2.50498-1.02373 0.965797-0.538537 2.07971-0.786209 3.17069-0.906885 0.488107-0.506665 1.27621-0.569235 1.88569-0.960673 0.616379-0.201779 1.32222-0.382931 1.81977-0.698218 0.636223 0.120017 1.04807 0.07494 1.33214-0.576323 0.6966-0.418196 1.54473-0.479315 2.28868-0.702668 0.472043-0.441914 1.33492-0.808027 2.05336-0.784538 0.44803-0.493372 1.55824-0.863728 2.07055-0.604791 0.423956 0.210119-0.0049-0.327292 0.1355-0.297845 0.394586-0.0039 0.82 0.364652 1.13137-0.09855 0.294307-0.161165 1.429 0.1243 0.603337-0.285821-0.460143-0.197804 0.720223-0.373185 0.872492-0.674988 0.604709-0.03591 1.25286-0.01299 1.50823-0.557232 0.735219-0.08467 1.30909-0.544809 2.05914-0.709028 0.736968-0.04462 1.33018-0.418234 1.99393-0.61875 0.355126-0.170232 1.04386-0.141912 0.6863 0.27106 0.347438-0.08306 1.09692 0.458779 1.06365-0.09803 0.680254 0.208075 1.31814-0.435884 1.86605-0.333018 0.485091-0.08722 1.44627-0.495264 2-0.289326 0.33296 0.294853 0.75225-0.497078 1.25712-0.221414-0.26404-0.288105 0.14488-0.777631 0.52586-0.676294 0.16742-0.439258 0.88485-0.988455 1.14544-0.912969 0.10164 0.517335 0.69679-0.18495 0.30577-0.483993 0.18289-0.714521 1.47701-0.704621 2.14842-0.95303 0.87835-0.337887 1.73131-0.784819 2.68044-0.89891 0.30144-0.168022 0.45226-0.194294 0.55106-0.07953 0.47981-0.480305 1.34743-0.484461 1.93584-0.741036 0.55689-0.136113 0.94973-0.543189 1.60003-0.383908 0.81058-0.52046 1.50085 0.640927 2.22941 0.299057-0.11572-0.469491-1.5294-0.435111-0.66726-1.00805 0.72928-0.231217 1.5045-0.346177 2.17085-0.68168 0.72453-0.328013 1.55592-0.149888 2.22157-0.52263 0.74927-0.597981 1.62108-0.129427 2.40184-0.368413-0.60811-0.795852 1.03318-0.527515 1.50982-0.690796 0.78593 0.05265 1.08914-0.785871 1.92797-0.638272-0.0658 0.255078 0.20592 0.942107 0.35704 0.416815-0.45012-0.347139 0.69565-0.119761 0.0588-0.398457-0.51044-0.362097 0.7884-0.257858 0.99526-0.495712 0.49622-0.101777 0.49427 0.139024 0.18405 0.346453 0.29939 0.07984 1.01713-0.345888 0.42342-0.46669 0.397-0.536277 1.344-0.740025 1.75069-0.458042 0.35306-0.424089 0.63534-0.136066 0.94896-0.49315 0.33747-0.186899 1.47792-0.807876 1.51339-0.269031-0.92095 0.0641 0.20122 0.437132 0.50424 0.161267 0.17742 0.223507 0.99734 0.516734 0.98193-0.17441 0.27239-0.937492 1.30842 0.288968 1.83184-0.333277-0.59872-0.114459 0.66331-0.284766-0.1377-0.496355 0.0922-0.430422 1.03273-0.213836 0.80152 0.332523 0.35961 0.285351 0.67669-0.264966 1.10044-0.01603 0.3386-0.662813 1.53739-2e-3 1.51555-0.483537 0.39793-0.162384 0.43897-0.02794 0.42852 0.305063 0.42306-0.142299 0.70536-0.231518 0.30693-0.491449-0.81899 0.188399-0.23883-0.636096 0.23739-0.643356 0.15842-0.460646 0.55891 0.291023-0.028 0.116018-0.40358 0.618519 0.58931 0.331295 0.82505 0.103962-0.36817 0.349833 0.40343 0.525744 0.46726 0.23039-0.13412-0.09608 0.1333-0.167067-5e-3 -0.386952 0.38367-0.09697 1.21042-0.301395 0.51227 0.126719 0.29451 0.219487 0.57678 0.245953 0.50098-0.08081 0.23568-0.24313 0.74487-0.260113 0.54149-0.699214 0.45874-0.507866 1.15717-0.478942 1.65079-0.397451 0.21669-0.263543 0.24739-0.1866 0.0454-0.38751 0.16507-0.266846 0.69664 0.113113 0.95296-0.18404 0.14085 0.257884-0.36349 0.717994 0.2145 0.472437-0.0893-0.437081 1.05164 0.158811 0.47115-0.357667 0.7188-0.350047-0.73792-0.702743 0.10624-0.540968 0.5481-0.0326 1.28582 0.598422 1.47548-0.239573 0.98042 0.10754 1.56793-0.65934 2.23753-1.22742 0.30416-0.175643-0.12938 0.669834 0.49494 0.407023 0.27002-0.395897 1.29814-0.116055 0.41154 0.01903-0.17048 0.235895 1.21988 0.289309 1.12484-0.353768 0.43265-0.78784 1.05381-1.28808 1.99197-1.31898 0.55049-0.07812 0.26059 0.146344 0.2384 0.327287 0.43185 0.181491 0.72326-0.289351 0.31301-0.235912 0.51951-0.240695 1.13813 0.237419 1.35455-0.360979 0.45053 0.09198 0.64181-0.773296 1.2699-0.373417 0.42898 0.01653 1.00347 0.956735 1.23977 0.430265-0.20643-0.520411 0.39093-0.842727 0.55573-0.287756 0.78127 0.361177 0.73533-0.852649 1.37126-1.03121 0.26973-0.692818 0.52559 0.01694 0.92388-0.298436 0.54564 0.434303 1.82292 0.0319 2.00042-0.205439-0.31365-0.434064 0.5486 0.04104 0.67189-0.339322 0.27846 0.291879 0.73334-0.0099 0.1766-0.03655 0.56505-0.604502 1.43474-0.610609 2.13571-0.775163 0.2649-0.404539 0.90483-0.409193 0.86412-0.01073 0.34135-0.02764 0.54304-0.116503 0.795-0.249355-0.48722-0.482535 0.46725-0.0028 0.66434-0.07292 0.034 0.565383 0.80144-0.315282 1.07164 0.228404 0.40067 0.160897-0.11801 0.939722 0.61107 0.689492 0.023-0.586705 1.2266-0.247673 0.67385-0.85571-0.32669-0.937874 1.15375-0.263009 1.69155-0.396525 0.83669 0.282266 1.53501-0.427056 1.89678-1.08723 0.3309-0.224642 0.50719 0.524529 0.99042 0.160632 0.15331-0.861181 1.39719 0.0983 1.9009-0.290083-0.38984-0.380111 0.11886-0.649261 0.48378-0.656157-0.045-0.539564 0.80584-0.111575 0.83101-0.499822 0.31459 0.363662 0.91314 0.03624 0.85786 0.364701 0.53965 0.204916 1.05638-0.206964 1.23926-0.460547 0.29035 0.08178 0.64865-0.646471 1.15596-0.396436 0.69854-0.181257-0.2751-0.168847-0.43596-0.181928 0.41977-0.590082 1.57278-0.563075 2.06888-0.860402 0.3316-0.09092 0.85163-0.260715 1.17508-0.108171-0.22611-0.667462 1.01119-0.305831 1.4766-0.442803 0.43757 0.51343 0.67495-0.07822 0.88535-0.286378 0.29822-0.164382 1.01003 0.115899 0.75858 0.289589-0.34369-0.136627-1.40473 1.01164-0.47335 0.59634 0.30966-0.58682 0.64805 0.407684 0.78736-0.294288-0.0249-0.277183 0.60046-0.394883 0.1091-0.762113-0.44902-0.168867 0.78231 0.0021 0.94419-0.221921 0.34311 0.483681 0.66711-0.457518 1.11004-0.258894 0.11796-0.781598 1.22094-0.247495 1.57348-0.595677 0.61398-0.06344 1.39013-0.559265 1.87116-0.367116 0.76968-0.378403 1.62639-0.349669 2.46147-0.50928 0.6311-0.341805 1.39975-0.204929 2.01058-0.54993 0.27448-0.192023 0.82175-0.151576 0.23667-0.02624 0.0896 0.571705 1.04838 0.478608 0.56197-0.192615 0.28532 0.186026 1.27944-0.406662 0.75233 0.188773-0.38198 0.235054-0.61846 0.423832-5e-3 0.376482 0.58557-0.175181 1.31565-0.320625 1.73105-0.579733 0.49296 0.42926 0.94582-0.369466 1.44756-0.299144-0.0496 0.505385 0.90112-0.05372 0.16267-0.05181-0.0776-0.325732 0.89061-0.0078 0.53613 0.222496 0.72933 0.16002 0.22392-0.860497 0.9197-0.868212 0.0184-0.824906 1.10223-0.243972 1.58744-0.265788 0.69719-0.07138-0.5874-0.171635 0.18088-0.41181 0.30386-0.508818 1.09125-0.277978 1.49284-0.446842-0.21438 0.421177 0.12744 0.707356 0.55715 0.412617 0.13155-0.738077 1.14028-0.675117 1.77471-0.812274 0.89513-0.267-0.45088 0.394478-0.32206 0.348738 0.85128 0.415377 0.91362-0.756014 1.64118-0.764909 0.38612-0.157566 1.2885-0.257443 0.92505 0.366628 0.34832 0.509377 0.45027-0.167312 0.36851-0.355723 0.44781-0.72844 1.42716 0.01777 1.90949-0.57 0.41642 0.28426 0.8616 0.281689 0.86952-0.198853 0.56685-0.196069 1.49515-0.225947 1.90879-0.35258 0.22306-0.16597 1.58883-0.674875 1.18659 0.26256 0.68849-0.156288 0.80168-0.894788 1.56455-0.895159 0.81723-0.366822 1.74438-0.543538 2.63656-0.441232 0.62634 0.68574 1.39482-0.833588 2.15077-0.139413 0.5639 0.352481 0.27932-0.686063 0.95955-0.521683 0.80602-0.33458 1.54475-0.239131 2.37944-0.488577 0.72824-0.289439 1.40958-0.430189 2.18338-0.354311 0.2574-0.785267 1.51403-0.14918 2.09997-0.656701 0.78803-0.101917 1.57688-0.218393 2.37798-0.206274 0.67908 8.59e-4 1.28095-0.295555 1.84972-0.545827 0.45085-0.59423 0.52017 0.700166 0.67262 0.05551 0.20209-0.441814 1.48414-0.170073 2.04444-0.487062 0.63777-0.07357 1.26544-0.117608 1.72001 0.378168 0.19359-0.63937 1.08097-1.00025 1.85559-0.883775 0.99214-0.110922 1.97946-0.27373 2.97332-0.368767 0.66736 0.07952 1.37459-0.135762 2.06719-0.251688 0.75125-0.254682 1.52374-0.245599 2.27446-0.475244 0.48066-0.243424 0.29931 0.306834 0.67708-0.08171 0.88963-0.0015 1.73806-0.210888 2.62456-0.319065 0.66312 0.05637 1.34394-0.463556 1.47906-0.968549 0.50407-0.289119 1.1766-0.234093 1.76823-0.198823-0.14668 0.276655 0.54431 0.628078 0.83455 0.462458 0.45327 0.169949 0.90689 0.216444 0.87265 0.640539 0.46543 0.06793 0.91634 0.20028 0.77534 0.672537 0.50166 0.465419 0.78325 1.18669 0.91595 1.76624 0.3246 0.321175 0.83268 0.101287 0.67562 0.639552 0.23993 0.331276 0.17886 0.790743 0.48372 1.10311-0.49642 0.61347 0.26464 1.20481 0.0416 1.86321-0.18861 0.698319-0.88747 0.948638-0.91783 1.62619-0.5717 0.124006-0.73033 0.794525-1.39677 0.892464-0.28124 0.664587-0.89462 0.679486-1.35875 0.145818-0.36857 0.250699-0.54833-0.32541-0.92629-0.08458-0.48525-0.644162-1.2452-0.924469-2.10376-0.783646-1.20424 0.168258-2.42336 0.181384-3.62602 0.357373-0.78859-0.03647-1.55294 0.377822-2.34168 0.206075-0.68715-0.203738-1.51671 0.05009-2.17831 0.07056-0.74062 0.01505-1.62016-0.112357-2.38515 0.146066-0.68511 0.127733-1.34234 0.272772-2.1054 0.409399-0.80632 0.108005-1.61978 0.130647-2.42918 0.185449-0.69616 0.412571-1.55726 0.35957-2.33668 0.520718-0.77592 0.149537-1.54979 0.291192-2.32966 0.40813-0.95305 0.302165-1.95048 0.399345-2.94282 0.448885-0.75066 0.418147-1.65896 0.356273-2.47222 0.603977-0.81 0.181982-1.72627-0.03766-2.43227 0.487319-0.71175-0.06424-1.64028 0.703174-2.21242 0.07243-0.35843 0.409484-1.20216 0.620124-1.90003 0.659726-0.62203 0.167644-1.27788 0.294447-1.9105 0.402887-0.75071 0.225319-1.53818 0.350104-2.34882 0.387916-0.82985 0.268751-1.6647 0.387497-2.53776 0.426704-0.71877 0.08928-1.30712 0.558919-2.0343 0.569987-0.54292-0.07471-0.62572 0.58912-1.20243 0.168255-0.7968 0.334291-1.65474 0.496709-2.50305 0.705416-0.77801-0.01968-1.46307 0.309617-2.23953 0.269023-0.72855 0.186935-1.47578 0.492926-2.25407 0.566171-0.78641 0.298125-1.69744 0.301523-2.40228 0.787414-0.72705-0.281871-1.48747 0.325339-2.13202 0.252128-0.80212 0.368026-1.73589 0.449923-2.57629 0.73351-0.75558 0.163894-1.63108 0.04118-2.26702 0.549719-0.81246 0.08732-1.54995 0.484725-2.3693 0.505211-0.68955 0.102416-1.28156 0.236829-1.86669 0.624053-0.7929 0.0045-1.53922 0.224198-2.29965 0.394773-0.53098-0.259713-0.56542 0.515673-1.13899 0.480003-0.4658 0.112482-0.84407-0.315433-1.25289 0.203594-0.79317 0.06992-1.56975 0.262102-2.28659 0.511441-0.47687 0.05701-0.86572 0.367124-1.38857 0.367885 0.0146 0.294942 0.20011 0.549647-0.24587 0.312588-0.45921-0.834082-0.69677 0.661469-1.10901 0.113671-0.83611 0.1201-1.76977 0.18886-2.48392 0.675362-0.73253 0.194561-1.51696 0.258185-2.27129 0.375015-0.68655 0.325073-1.48293 0.4736-2.19912 0.764977-0.54995 0.120609-0.79904 0.661255-1.27174 0.292819 0.0573 0.408453-0.47583-0.02901-0.69031 0.30724-0.83151 0.135031-1.69241 0.14593-2.47754 0.526239-0.73168 0.269215-1.38937 0.499026-2.18211 0.606657-0.29091 0.423482-0.78473 0.289466-1.15392 0.660853-0.74509-0.489771-1.59944-0.02742-2.33934 0.147989-0.77233-0.114352-1.06726 0.728402-1.93493 0.654319-0.75104 0.181503-1.45949 0.218629-2.14051 0.648582-0.6478 0.409408-1.18991-0.113043-1.85045 0.420247-0.50402-0.09584-0.61158 0.429573-1.15666 0.257929-0.44374 0.291665-1.25521-0.239322-1.42781 0.473532-0.47367-0.170194-1.00889 0.08711-1.44432-0.0035-0.27077 0.288937-1.01544 1.08194-1.18421 0.45089-0.72722 0.289922-1.54549 0.761809-2.37601 0.774382-0.84213 0.101321-1.59478 0.554425-2.43057 0.597535-0.77224 0.216531-1.31252 1.10431-2.15562 0.985215-0.5826-0.212434-1.18316 0.264232-1.74118 0.144364-0.53522 0.63248-1.62721 0.217109-2.27878 0.758812-0.64283 0.337393-1.49632 0.290798-2.17176 0.671012-0.77287 5.8e-5 -1.38606 0.566142-2.11 0.557609-0.67188 0.238164-1.40601 0.284826-2.07856 0.566045-0.6509 0.260101-1.32597 0.489485-1.95714 0.740944-0.57267-0.226362-0.96848 0.323729-1.06238 0.695039-0.0619-0.766016-1.52535-0.253325-1.34882 0.06743-0.28142 0.266574-1.17616 0.363438-1.68543 0.226396-0.13092 0.209166-0.73701 0.782852-1.36864 0.761796-0.58787-0.04019-1.07192 0.551082-1.54707 0.19852-0.60562-0.0037-1.11975 0.454941-1.61385 0.542905 0.45481 0.294994-0.66468 0.09309-0.83095 0.388627-0.6548 0.486605-1.40146 0.147246-2.14101 0.468537-0.73548 0.235611-1.52576 0.266765-2.21151 0.602025-0.68475 0.434835-1.51293 0.455737-2.26503 0.660956-0.66619 0.155821-1.22848 0.536601-1.88428 0.74119-0.81275 0.366502-1.85216 0.302252-2.55221 0.810459-0.47787 0.3674-1.33336 0.220644-1.88145 0.594253-0.71918 0.08545-1.40538 0.448836-2.17419 0.42651-0.3885 0.312881-0.89328 0.480959-1.29185 0.382552-0.59487 0.685378-1.37167 0.783834-2.22057 0.96735-0.74307 0.26507-1.44645 0.619827-2.18225 0.845284-0.34467 0.275416-0.77395 0.586615-1.13927 0.336867-0.83061 0.231567-1.62434 0.595301-2.45192 0.844732-0.53635 0.42224-0.963102 0.563373-1.65104 0.726307-0.971666 0.0935-1.86818 0.562705-2.84512 0.609966-0.696706 0.43737-1.4309 0.777107-2.2633 0.903708-0.741752 0.295241-1.49348 0.413987-2.1899 0.814967-0.496452 0.22145-0.866284 0.835878-1.43029 0.541174-0.570149 0.459899-1.42566 0.311895-2.10274 0.558439-0.496877 0.20708-1.07665 0.647979-1.68143 0.653152-0.362852 0.07217-0.278866 0.610591-0.711442 0.275371-0.749113 0.180898-0.728423 1.07104-1.63668 0.881469-0.733404 0.271539-1.52103 0.418253-2.21065 0.761096-0.591663 0.355812-1.31954 0.536381-2.01268 0.79319-0.722932 0.08145-1.36598 0.434254-1.97874 0.796941-0.7561 0.175802-1.58528 0.408084-2.2458 0.810583-0.806662 0.138868-1.49974 0.663578-2.31621 0.814705-0.712433 0.11937-1.29048 0.572092-1.97021 0.844746-0.74247 0.645141-1.61775 0.789939-2.46977 1.16976-0.790724 0.281529-1.70439 0.359242-2.28101 0.990929-0.779936 0.273054-1.28611 0.936163-2.05465 1.2074-0.273682 0.43636-0.665841-0.279478-0.886995 0.409433-0.418275 0.409618-1.21889 0.321159-1.55089 0.894365-0.443363 0.25687-0.568316 0.40853-0.94388 0.212607-0.639422 0.462833-1.3628 0.56888-2.08798 0.927125-0.45241 0.349374-1.18322 0.506547-1.55101 0.790952-0.166609 0.556506-1.07161 0.306709-1.24455 0.910543-0.280559 0.112766-0.750856-0.199856-0.663916 0.178849-0.538764-0.06707-1.14443 0.339641-1.4034 0.73109 0.55638 0.07339 0.06726 0.343317-0.211839 0.171326 0.266231 0.865671-0.872996 0.424652-1.29236 0.837411-0.06867 0.669068-1.34607 0.338856-1.27033 1.15311-0.542627-0.07182-1.63188 0.281977-1.57376 0.863958-0.772683-0.371466-1.42539 0.142231-1.86855 0.66826-0.367384 0.03027-0.53321-0.274187-0.457436 0.05575-0.655576 0.312941-1.14879 0.844967-1.82749 1.12802-0.06679 0.900091-1.18317 0.08599-1.49079 0.919306-0.627856 0.522092-1.427 0.305603-2.01084 0.756626-0.277016-0.07545-0.778928-0.368716-0.803524 0.255906 0.48034 0.554834-0.644813 0.01428-0.830575 0.393475-0.395292 0.146606-0.648706-0.222394-1.10755 0.113567-0.346712 0.02692-0.729043 0.07756-1.05728-0.05648zm7.64803-2.83032c-0.513336-0.334258-0.183328 0.35305 0 0zm13-10.8c-0.178619-0.518705-0.657828 0.378372-0.04328 0.105064l0.0316-0.04679zm5.04-5.15528c-0.177232-0.281707-0.202249 0.148536 0 0zm1.6-0.621745c-0.260574-0.176335-0.371812 0.277971 0 0zm0.623444-0.236091c-0.140187-0.548812-1.03748 0.442454-0.18157 0.152246 0.07139-0.02992 0.159404-0.06862 0.18157-0.152246zm4.97656-0.266885c-0.364377-0.447636-0.191433 0.409368 0 0zm-4.98-0.11388c0.18953-0.224452 0.714531-0.56538 0.108006-0.295758-0.368599 0.137437-0.800201 0.405042-0.108002 0.295756zm3.60776-1.1955c0.543002-0.807747-0.799656 0.552546 0 0zm10.9322-0.09062c-0.02465-0.282831-0.353641 0.285787 0 0zm-10.3372-0.55867c-0.111375-0.690408-0.731191 0.408687-0.04401 0.125156l0.04401-0.125156zm10.2172-0.529885c-0.272895-0.151579-0.276863 0.265169 0 0zm-9.55447-0.04038c-0.158777-0.630889-0.54191 0.370801 0 0zm2.97281-1.39939c-0.320561-0.0741-0.159036 0.146575 0 0zm2.24-0.08c-0.320545-0.07411-0.159048 0.146578 0 0zm0.661666-0.751666c-0.301202-0.284834-0.61186 0.211117-0.05875 0.0565l0.04297-0.02544zm12.6792-1.22955c0.262256-0.354283-1.13011-0.04266-0.321691 0.105884l0.167887-0.02966 0.153804-0.07622zm-2.51924-0.629693c-0.470652-0.327966-0.554696 0.630693 0 0zm2.1-0.193739c-0.317112-0.06779-0.268606 0.125982 0 0zm4.46-0.589228c-0.352851-0.18134-0.141123 0.395304 0 0zm-7.48409-0.241275c-1.06555 0.0928 0.325398 0.32669 0 0zm0.484091 0.08349c-0.412994-0.306862-0.169768 0.28057 0 0zm0.36-0.35705c0.483178-0.310539-0.960859-0.192391-0.250205 0.114206l0.09421-0.03474 0.155999-0.07948zm6.8-0.03823c-0.264697-0.481051-0.449804 0.309592 0 0zm-4.94762-0.571344c0.531404-0.491609-1.38983 0.123471-0.363009 0.11502 0.126132-0.01803 0.250116-0.0555 0.363009-0.11502zm4.91091 0.0013c0.03393-0.448494-0.530919 0.300023 0 0zm-6.48329-0.07468c-0.02826-0.414102-0.444811-0.189615-0.16642 0.07747l0.09287-0.01569 0.07353-0.06178zm7.64-0.322815c0.661435-0.02418 0.128577-0.729697-0.160849-0.142631-0.382168 0.32938-0.02961 0.489157 0.160849 0.142631zm9.83409-1.32431c-0.90031-0.460539 0.21716 0.577434 0 0zm-12.8741 0.0071c0.153454-0.418262-0.407011 0.361189 0 0zm12.9246-0.393463c0.24547-0.126003-0.93849-0.79506-0.52656-0.09173 0.0715 0.257149 0.36415 0.232996 0.52656 0.09173zm-10.3646-0.126519c-0.466461-0.500538-0.493777 0.363106 0.04245 0.128542l-0.04244-0.128545zm6.91482-0.231618c-0.16922-0.445951-0.32341 0.299336 0 0zm-7.25649-0.136716c-0.320545-0.07411-0.159048 0.146578 0 0zm1.6619-0.512038c-0.300258-0.537301-0.737965 0.0419-0.203858 0.104501l0.128411-0.04862 0.07545-0.05588zm8.36997 0.02736c0.22021-0.499053-0.58973-0.52042-0.31675 0.09484 0.0918 0.132175 0.25358-0.01318 0.31675-0.09484zm-3.79187-0.795324c-0.32039-0.07413-0.15922 0.14659 0 0zm14.1775-1.30739c-0.0215-0.281863-1.44419-0.469656-0.53053 0.03298 0.17157 0.05347 0.37006 0.06036 0.53053-0.03298zm-1.27582-0.364272c0.13457-0.436981-0.42968 0.370696 0 0zm2.24978-0.34412c5.2e-4 -0.42202-0.66519-0.04817-0.15687 0.201701l0.0819-0.06365 0.075-0.138046zm1.83022-0.0606c-0.46321-0.470894-0.25041 0.590052 0 0zm-2.88232-0.272153c0.21504-0.467446-0.7863 0.276827 0 0zm0.88232-0.05168c-0.52573-0.168851-0.66441 0.210825 0 0zm-2.08123-0.486719c-0.24919-0.736622-0.50551 0.619416-0.0219 0.196352l0.0159-0.08651 6e-3 -0.109843zm2.24123 0.255278c-0.3231-0.483598-0.2828 0.467207 0 0zm-1.12-0.04c-0.29602-0.304774-0.18814 0.26629 0 0zm6.51481-0.151618c-0.17042-0.445717-0.50417 0.303611 0 0zm-0.44859-0.915945c-0.19368-0.346178-0.42629 0.546471-4e-5 -4e-6zm2.25086-0.0089c0.10651-0.757897-0.56605 0.331581 0-4e-6zm-6.92914-0.400981c-0.11755-0.569574-0.61297 0.449085 2e-5 -3e-6zm-1.86794-0.248276c-0.10928-0.410471-1.16421-0.241177-0.50742-0.134713-0.0585 0.216344 0.40122 0.195632 0.50742 0.134713zm5.29098-0.295306c-0.56769-0.179526-0.25764 0.439221 0 0zm-7.55058 1e-3c-0.56946-0.476206-0.34662 0.361643 0 0zm10.2596-0.06c-0.29458-0.321948-0.30691 0.312954 0 0zm-9.57346-0.165051c-0.22936-0.337005-0.74847 0.156554-0.0973 0.01508l0.0973-0.01508zm1.89346 0.0063c-0.35668-0.269512-0.68879 0.16233-0.0705 0.05202l0.0516-0.02191zm15.7148 0.0071c-0.15305-0.415189-0.76012 0.231149-0.0923 0.05245l0.0922-0.05243zm-0.29648-0.456716c-0.32038-0.07414-0.15924 0.146589 0 0zm-0.43833-0.404593c-0.31711-0.06779-0.26861 0.125982 0 0zm0.42037-0.187631c-0.021-0.714638-0.93572 0.0052 0 0zm-6.64037-0.07939c-0.0466-0.266364-0.44882 0.188755-0.0702 0.0565zm4.2-0.528558c-0.28566-0.404669-0.39795 0.542042 0 0zm-0.77108 0.0086c-0.26536-0.494551-0.60437 0.417889 0 0zm5.26416-0.2c-0.52276-1.16322-0.49182 1.01772 0 0zm-4.35475-0.128334c-0.32042-0.07413-0.15919 0.146588 0 0zm2.50167-0.03167c-0.27482-0.343335-0.0493 0.314701 0 0zm2.28 0c-0.12147-0.304647-0.24418 0.25331 0 0zm-11.44-0.207299c0.94382-0.116024-0.8225-0.593109-0.69584-0.286551 0.53012 0.106597-0.0687 0.579792 0.59161 0.311138l0.10423-0.02458zm9.61348-0.394794c0.31152-1.07268-0.73192 0.566599 0 0zm1.56804-0.170419c-0.45059-0.07813-0.1613 0.128045 0 0zm-8.32152-0.08051c-0.31711-0.06779-0.26861 0.125982 0 0zm1.42-0.01846c-0.36846-0.451916-0.29278 0.199869 0 0zm-1.59261-0.208559c-0.28721-0.280317-0.78967-0.366513-0.51205-0.04632 0.17818-0.03068 0.38677 0.333596 0.51205 0.04632zm8.50919-0.03447c-0.14836-0.434938-0.61088 0.332739-4e-5 3.1e-5zm2.04342-0.165526c-0.29458-0.321948-0.30691 0.312954 0 0zm-10.6-0.08c-0.43354-0.300757 0.11816 0.287593 0 0zm11.416-0.096c-0.57982-0.172298 0.10271 0.355025 0 0zm-7.34711-0.263911c-0.0344-1.1454-0.85244 0.468753 0 0zm7.53111 0.03991c-0.34554-0.309454-0.49228 0.355958 0 0zm-2.36-0.200771c-0.24607-0.242569-0.40765 0.278477 0 0zm5.89236-0.252632c-0.42351-1.29228-0.57127 0.81635 0 0zm4.91289 0.130589c0.36843-0.219217-0.29445-0.276182-0.0641-0.623962-0.65535-0.07444-0.53638 0.928699 0.0641 0.623962zm2.50807-0.185735c-0.80396-0.567398 0.0559 0.553616 0 0zm-13.7933 0.02855c-0.5549-0.258586 0.0577 0.299401 0 0zm-2.24-0.08c-0.36954-0.304307-0.28342 0.276972 0 0zm10.4-0.232559c0.28459-0.513673-0.31483-0.863999-0.54707-1.28496-0.75139 0.230028 0.1126 0.879413 0.3387 1.10572-0.28408 0.243741 0.11114 0.594358 0.20837 0.179232zm-3.57565-0.08297c-0.32715-0.358143-0.10969 0.507117 0 0zm2.59342 0.02232c-0.4893-0.645479-0.48029 0.468319 0 0zm-3.27944 0.0049c-0.3204-0.07413-0.15922 0.146584 0 0zm7.86167-0.151691c-0.29993-0.440101-0.15133 0.391831 0 0zm-15.04-0.03744c0.24364-0.205293 0.53546-0.430024 0.0438-0.229717-0.22356 9.73e-4 -0.27476 0.506888-0.0438 0.229717zm17.1534-0.131114c0.42438-0.443094-0.72351 0.154625 0-4e-6zm-9.87345-0.111446c-0.29458-0.321948-0.30691 0.312954 0 0zm7.12-0.341754c-0.63069-0.60429-0.45924 0.712402 0 0zm0.64 0.06648c-0.16123-0.493049-0.66038 0.440538-0.0142 0.04739l0.0143-0.04739zm-13.6-0.124722c-0.37812-0.272478-0.97183 0.155292-0.19575 0.07369 0.0584-0.02118 0.16174-0.0026 0.19575-0.07369zm2.37833 0.03167c-0.32042-0.07412-0.15918 0.146586 0 0zm5.54289-0.131667c0.65927 0.230183-0.47747-0.459341-0.34794 0.04666 0.0912 0.07362 0.30204 0.08858 0.34794-0.04666zm0.87878-0.152848c-0.27269-0.234797-0.59283 0.522334-0.0588 0.0742l0.0588-0.0742zm3.23577 0.08601c-0.39294-0.179271 4e-3 0.405398 0 0zm-7.87577-0.153169c-0.3012-0.284834-0.61186 0.211117-0.0588 0.0565l0.043-0.02544zm-0.71804-0.163658c0.0882-0.495853-0.41964 0.515369 0 0zm2.35143-0.286868c3e-3 -0.64033-0.96584 0.364377-0.11896 0.223991l0.0639-0.07694zm1.68661-0.269474c-0.34729-0.296012-0.0413 0.27067 0 0zm2.78834-0.234666c-0.26115 0.135148-0.76753-0.0266-0.23076 0.256847 0.10421-0.03884 0.21472-0.143048 0.23076-0.256847zm3.92898 0.02591c0.29476-0.149374 1.446-0.243472 0.48914-0.351247-0.35665-0.262174-1.1165 0.697375-0.48914 0.351247zm-0.43338-0.706492c-0.57885-0.269508 0.0329 0.383212-2e-5 -4e-6zm-0.64394-0.364752c-0.27482-0.343335-0.0493 0.314701 0 0zm7.19999-0.318763c-0.30177-0.321115-1.34957 0.06019-0.40159 0.05903 0.12652-0.01758 0.2923 0.02315 0.40159-0.05903zm3.64-0.08124c-0.0466-0.266364-0.44882 0.188759-0.0702 0.0565zm-3.44-0.32c-0.12661-0.263687-0.73554 0.236771-0.0981 0.05613l0.0982-0.05613zm1.88-0.16c-0.29602-0.304773-0.18814 0.266292 0 0zm2.14671-0.08991c-0.65781-0.282277 0.0827 0.365177 0 0zm-1.36837-0.358425c-0.32037-0.07414-0.15926 0.146594 0 0zm5.38166-0.271667c0.13701-0.256621-0.66628 0.10538-0.11603 0.0569zm2.29834-0.128333c-0.32037-0.07414-0.15926 0.146594 0 0zm-2.51516-0.191667c-0.0504-0.441832-0.77678 0.100167-0.0845 0.14789l0.0484-0.04406 0.0361-0.103824zm2.58618-0.237425c0.57363-0.637292-0.29429-0.465991-0.49613-0.06258 0.0768 0.406463 0.34237 0.51817 0.49613 0.06258zm-1.64936-0.120064c-0.14641-0.02336-0.83422-1.03179-0.62252-0.29868 0.0781 0.139943 0.55262 0.607713 0.62252 0.29868zm-2.92-0.04251c-0.18336-0.353043-0.51329 0.334244 0 0zm-6.87788-0.544549c-0.25977 4e-3 -0.23468 0.30162 0 0zm11.7606-0.155451c-7e-3 -0.726303-0.77818 0.671678-0.0375 0.211649l0.0284-0.08372 9e-3 -0.127928zm3.52934 0.102563c0.19387-0.408586-0.0296-0.806814-0.16862-0.122564-0.0883 0.147677 0.1884 0.403919 0.16862 0.122564zm-4.37206-0.04256c-0.48523-0.09853 0.23057-0.292867-0.24079-0.522046-0.27744-0.76438-1.44719 0.459704-0.4352 0.43635 0.15114 0.06181 0.59433 0.221955 0.67599 0.0857zm-7.66-0.05298c-0.31711-0.06779-0.26861 0.125982 0 0zm14.8459-0.133647c-0.32879-0.505264-0.34415 0.557056 0 0zm-3.86587-0.05337c-0.0466-0.266364-0.44882 0.188759-0.0702 0.0565zm-7.08-0.24c-0.5549-0.258582 0.0577 0.299401 0 0zm5.22893-0.04c0.50253-0.0564 0.42364-0.466892 0.57917-0.818815-0.31977-0.07064-0.86762 0.350263-0.49077 0.596049-0.47971-0.16414-0.59349 0.644405-0.0884 0.222766zm1.68455-0.06814c-0.67705-0.353606-0.30816 0.4254 0 0zm3.88652-0.04714c-0.26469-0.481046-0.44982 0.30959 0 0zm-15.7796-0.144722c-0.2848-0.386715-0.66654 0.341184-0.0665 0.0735l0.0665-0.0735zm0.76761 0.02278c0.19677-0.284409 0.34646-0.658933-0.202-0.387666-0.19801 0.198144-0.1566 0.720238 0.202 0.387666zm13.6678-0.04545c0.2566-0.249577 0.636-1.32039-0.0477-0.722182-0.22186 0.125934-0.33586 1.23 0.0477 0.722182zm-5.97578-0.157331c-0.51334-0.334256-0.18333 0.353057 0 0zm10.5117 0.0068c0.28268-0.623936-0.70884-0.08099-0.10388 0.05445l0.10388-0.05445zm-3.23507-0.08132c-0.1328-0.505135-0.63363 0.289525 0 0zm-8.47659-0.165527c-0.31421-0.288608-0.15257 0.290832 0 0zm-2.83169-0.263696c-0.37753-0.161981 0.11399 0.387569 0 0zm4.93664-0.115385c-0.62072-0.637424-0.4532 0.616875 0 0zm-6.26495-0.02092c-4e-3 -0.321929-0.28848 0.29979 0 0zm1.8698-0.06c-0.41364-0.579948-0.41053 0.221958 0.069 0.114854l-0.0686-0.114854zm-1.69146-0.228333c-0.32035-0.07414-0.15929 0.146593 0 0zm7.38166-0.111667c-0.20897-0.289654-0.43079 0.351952 0 0zm4-0.04c-0.14992-0.381236-0.51747 0.369381-0.0125 0.04688l0.0125-0.04688zm4.05834 0.07167c-0.32035-0.07414-0.15929 0.146593 0 0zm-2.24229-0.503042c0.0985-0.723465-0.46239 0.437483-2e-5 2e-6zm-6.01605-0.08863c-0.18336-0.353043-0.51329 0.334244 0 0zm11.6794 9.2e-4c-0.14553-0.150202-0.26562 0.24472-4e-5 4e-6zm-12.5607-0.406478c0.34448-0.473158-0.45124-0.549216-0.43752 0.0056-0.0684 0.0097-0.85763-0.03357-0.46126 0.173193 0.34901-0.169689 0.95626 0.560175 0.89878-0.178755zm6.00122 0.165558c-0.43355-0.300753 0.11819 0.287594 0 0zm-5.32-0.16c-0.36964-0.323556-0.43017 0.313149 0 0zm6.64 0c-0.29458-0.321948-0.30691 0.312954 0 0zm4.48 0c-0.36964-0.323556-0.43017 0.313149 0 0zm-3.12-0.44c-0.27939-0.892123-0.13606 0.784651-2e-5 2e-6zm-9.62166 0.151667c-0.32035-0.07414-0.15929 0.146593 0 0zm3.94166 0.01488c0.32892-0.565081-1.01465-0.196809-0.20027 0.03053 0.0279-0.01861 0.18192 0.05441 0.20027-0.03053zm4.96-0.269672c-0.16803-0.220109-0.27076 0.373154 0 1e-6zm-9.024-0.03287c-0.57984-0.172286 0.10275 0.355021 0 0zm2.384-0.384c-0.3012-0.284834-0.61186 0.211117-0.0588 0.0565l0.043-0.02544zm11.3522-0.289342c-0.7466-0.527016-0.2117 0.633782 0 0zm4.88 0.09869c-4e-3 -0.556522-0.62612 0.370169 2e-5 -2.1e-5zm-13.5825-0.435363c-0.17285-0.113496-0.30369-0.718913-0.6368-0.355643 0.0304 0.245685 0.9663 0.773065 0.6368 0.355643zm11.4881 0.09281c-0.2686-0.498062-0.67134 0.216284-0.0622 0.0817l0.0622-0.0817zm-12.2178-0.02679c-0.27482-0.343335-0.0493 0.314701 0 0zm1.44 0c-0.27482-0.343335-0.0493 0.314701 0 0zm12.16 0c-0.36954-0.304306-0.28342 0.276973 0 0zm6.69834-0.128333c-0.32035-0.07414-0.15929 0.146593 0 0zm-5.87225-0.159073c-0.50398 0.01346-0.89238-0.77316-1.4304-0.585623 0.0932 0.299732 1.30832 0.8861 1.4304 0.585623zm-4.86609-0.03259c-0.12146-0.304647-0.24418 0.253313 0 0zm-6.76-0.16c-0.1574-0.285517-0.33119 0.304947 0 0zm9.16 0c-0.25132-0.337589-0.38113 0.271748 0 0zm4.12 0.0498c-0.38718-0.525972-0.17845 0.155142 0 0zm-7.2-0.405187c-0.36912-0.523975-0.50965 0.338872-0.02 0.08721l0.02-0.08721zm9.14 0.142409c-0.31711-0.06779-0.26861 0.125982 0 0zm2.06239-0.191473c-0.0377-0.570238-0.51887 0.614147-3e-5 0zm-13.4024-0.03554c-0.0779-0.403368-1.18594-0.101634-0.43685 0.08386 0.10679 0.156025 0.43584 0.136717 0.43685-0.08386zm11.5094-0.353174c0.18979-0.467621-0.79501-0.22814-0.31462-0.130452-0.30983 0.489397 0.35819 0.625183 0.31462 0.130452zm-9.86944 0.0379c-0.17724-0.281709-0.20224 0.148539 0 0zm0.44-0.04472c-0.0247-0.282837-0.35364 0.285795 0 0zm6.66-0.19854c-0.32852-0.693316-0.24764 0.786974-1e-5 0zm11.14 0.19854c-0.2154-0.322399-0.18853 0.311471 0 0zm-14.72-0.03144c-0.26406-0.24926-0.4012 0.165966 0 0zm8.51961-0.174263c0.33475-0.58998-1.05108 0.01056-0.20683 0.104289l0.10076-0.03794 0.10607-0.06635zm0.92039 0.0457c-0.27482-0.343335-0.0493 0.314701 0 0zm-2.08-0.08c-0.209-0.289644-0.4308 0.351952 0 0zm2.20751-0.252136c-0.0844-0.6283-0.66992 0.130916-0.0748 0.06507l0.0748-0.06508zm-6.14917-0.116197c-0.32033-0.07415-0.15931 0.146597 0 0zm-2.89834-0.351667c-0.57512-0.344414-0.45208 0.233282 0 0zm2.79116-0.125812c-0.14604-0.366064-0.41138 0.421959 0 2e-6zm4.92884-0.194188c-0.1574-0.285517-0.33119 0.304947 0 0zm-5.54166-0.368333c-0.32035-0.07414-0.15929 0.146593 0 0zm14.8 0c-0.32035-0.07414-0.15929 0.146593 0 0zm-1.77834-0.111667c-0.28157-0.335379-0.62405 0.289349 0 0zm-12.1711-0.12c-0.14229-0.434522-0.27971 0.396525 0 0zm11.1311-0.04c-0.31421-0.288608-0.15257 0.290832 0 0zm-2.51655-0.465517c-0.56975 0.06407-0.11257 0.568933 0 0zm2.43655-0.01448c-0.12146-0.304647-0.24418 0.253313 0 0zm-10.24-0.08c-0.0466-0.266364-0.44882 0.188759-0.0702 0.0565zm10.36-0.24c-0.62364-0.671373 0.13142 0.658226 0 0zm4.29834 0.03167c-0.32035-0.07414-0.15929 0.146593 0 0zm0.47744-0.44833c0.23701-0.151241-0.25788-0.39061-0.0838 0.08343 0.017 0.288363 0.23283-0.0058 0.0838-0.08343zm-1.38434-0.34988c0.0182-0.685409-0.399 0.432915 0 0zm4.44856-0.115967c-0.44989-0.504388-0.31903 0.306482 0 0zm1.76-1.40605c-0.51344-0.183561-0.32768 0.237413 0 0zm-7.72039-0.590807c0.0698-0.608645-0.42265 0.163314-0.47492-0.240645-0.57816 0.296031 0.2412 0.432618 0.47492 0.240645zm16.1204-0.360614c-0.20243-0.416581-0.16302 0.40159 0 0zm-7.64-0.04c-0.18336-0.353043-0.51329 0.334244 0 0zm7.08-0.24c-0.065-0.393851-0.48956-0.09121-0.1686 0.08l0.11904-0.0235 0.0495-0.0565zm-13.96-0.16c-0.12146-0.304647-0.24418 0.253313 0 0zm17.32-0.16c-0.2154-0.322399-0.18853 0.311471 0 0zm-16.36-0.08c-0.5029-0.312072-0.40913 0.332082 0 0zm3.02546-0.110946c-0.16745-0.299157-0.38235 0.365315-2e-5 -1e-6zm9.81454-0.04905c-0.36964-0.323556-0.43017 0.313149 0 0zm4-0.169331c-0.37942-0.343606-0.45638 0.477736 0 0zm-15.44-0.171375c-0.0514-0.314237-0.53772 0.525853-0.11295 0.07027l0.11296-0.07027zm2.21834 0.212372c-0.32035-0.07414-0.15929 0.146593 0 0zm0.74166-0.231666c-0.54756-0.472467-0.76821 0.463043 0 0zm1.12-0.235279c-0.13195-0.288021-0.38873 0.186774 0 0zm7.95659-0.03919c-0.0338-0.399634-0.29467 0.27635 0 0zm8.68341-0.285531c-0.71361-0.452301 0.0231 0.395049 0-4.4e-5zm-5.12-0.08856c-0.27289-0.151579-0.27686 0.265169 0 0zm-8.88-0.54211c-0.30097-0.266194-0.5348 0.141591 0 0zm16.56-0.16933c-0.402-0.49527-0.2805 0.469026 0 0zm-14.76-0.04c-0.0874-0.300465-0.97156-0.282168-0.32719 0.04273 0.10132 0.03684 0.25228 0.06209 0.32719-0.04273zm11.8-0.64c-0.29458-0.321948-0.30691 0.312954 0 0zm-4.96-0.24c-0.3012-0.284834-0.61186 0.211117-0.0588 0.0565l0.043-0.02544zm17.3457-1.28045c-0.43046-0.05074-3e-3 0.617138 0 0zm-1.02567 0.165172c-0.29964-0.502872-0.27534 0.297128 0 0zm-2.48-0.244721c-0.29458-0.321948-0.30691 0.312954 0 0zm2.8-0.04c-0.36438-0.447613-0.19145 0.409358 0 0zm-0.2-0.2c-0.15009-0.296269-0.30613 0.270274 0 0zm-10.3817-0.208334c-0.32035-0.07414-0.15929 0.146593 0 0zm11.9417-0.391666c-0.0817-0.345773-0.6769-0.645258-0.45944-0.03684 0.0646 0.133774 0.43023 0.257463 0.45944 0.03684zm-9.12-0.04c0.0999-0.323688-0.56203 0.233757 0 0zm-0.86-0.612983c-0.31711-0.06779-0.26861 0.125982 0 0zm6.38-0.587017c-0.2154-0.322399-0.18853 0.311471 0 0zm2.04 0c-0.51331-0.334252-0.18336 0.353051 0 0zm-1-0.842511c-0.40117-0.649655-0.54534 0.506839 0 0zm0.88-0.424156c-0.28307-0.26904-0.3172 0.261033 0 0zm7.2-0.733333c-0.0914-0.255488-0.18143 0.278784 0 0zm-139.2 36.2573c0.347285-0.275858 0.852106 0.0066 0.126543 0.03126l-0.08937 0.01085-0.03717-0.0421zm6.56-2.17838c-0.63221-0.131102 1.07538-0.222037 0.18822 0.01486l-0.18825-0.01486zm29.68-9.43893c0.29602-0.304773 0.18814 0.266292 0 0zm2.43144-0.366543c0.13028-0.617592 0.88866 0.234717 0.22082 0.06198-0.0667-0.416499-0.18502 0.327264-0.22082-0.06198zm2.08856-0.993457c0.28794-0.211104 0.76317 0.04384 0.13674 0.0769-6e-3 0.0096-0.18398-0.0052-0.13674-0.0769zm1.48-0.226666c0.27127-0.256178 0.19272 0.224881 0 0zm0.4-0.132235c0.27495-0.284562 1.24382-0.388804 0.54023 0.02698-0.12894-0.273305-0.33601-0.03264-0.54023-0.02698zm26.8486-0.01914c-0.23786-0.647593 0.73219-0.08385 3e-5 -5e-6zm-25.7612-0.372415c0.4305-0.313775 0.69493 0.162384 0.0426 0.103237l-0.0499-0.03289 7e-3 -0.07034zm1.3926-0.209544c0.2154-0.322399 0.18853 0.311471 0 0zm3.87838-1.20262c0.45686-0.540267 0.84254-0.358266 1.47317-0.517462 0.6367 0.425999-0.59274 0.08452-0.90313 0.468767-0.17176 0.04376-0.40443 0.161111-0.57004 0.04869zm3.56161-1.31456c0.42624-0.483725 0.35503 0.288829 0 0zm8.10072-2.09556c-0.15872-0.465557 1.20495-0.180051 0.29338 0.0105-0.0926 0.04459-0.20373 0.03614-0.29338-0.0105zm10.649-2.76382c0.32405-0.2267 0.82302 0.162684 0.10382 0.04481l-0.10382-0.04477zm0.61943-0.137268c-0.0513-0.507977 1.02983 0.131565 0.11596 0.03311l-0.11596-0.03311zm3.1108-0.08617c-0.0805-0.30658 0.46931 0.211076 0 0zm-1.6-0.16c0.29458-0.321948 0.30691 0.312954 0 0zm4.51829-1.14238c-0.41567-0.105701-0.99405 0.04172-0.35621-0.321955 0.42449-0.10372 0.62432-0.414879 0.4923 0.169893 0.24729 0.209387 0.0755 0.248983-0.13609 0.152062zm4.28171-0.857625c0.49343-0.351306 0.26957 0.253103 0 0zm21.5902-5.59228c0.0512-0.729177 0.49886 0.39581 0 0zm0.60975-0.40772c-0.37953-0.305186 0.657 0.187201 0 0z" stroke-width=".08"/>
 </g>
</svg>
