<?xml version="1.0" encoding="UTF-8"?>
<svg width="100.674" height="33.5576" version="1.1" viewBox="0 0 100.674 33.5576" xmlns="http://www.w3.org/2000/svg" xmlns:cc="http://creativecommons.org/ns#" xmlns:dc="http://purl.org/dc/elements/1.1/" xmlns:rdf="http://www.w3.org/1999/02/22-rdf-syntax-ns#">
 <metadata>
  <rdf:RDF>
   <cc:Work rdf:about="">
    <dc:format>image/svg+xml</dc:format>
    <dc:type rdf:resource="http://purl.org/dc/dcmitype/StillImage"/>
    <dc:title/>
   </cc:Work>
  </rdf:RDF>
 </metadata>
 <g transform="translate(-47.3854 -23.1017)">
  <path d="m51.3404 56.6335c0.0082-0.500038-0.863692 0.02906-0.824498-0.512255-0.116938-0.316912-0.436681-0.565707-0.516192-0.859382-0.198207 0.03-0.19966-0.175485-0.03587-0.194266-0.23932-0.220432-0.484863-0.428381-0.620493-0.754027-0.112627-0.05983-0.144838 0.133534-0.211661-0.06759-0.405607-0.02174-0.282295-0.37758-0.321028-0.648389-0.141879-0.119926 0.0083-0.343292-0.174048-0.463432 0.03777-0.391205-0.480878-0.413172-0.661665-0.705664-0.216871-0.276363-0.425037-0.529775-0.386992-0.909561-0.08438-0.442322-0.245198-0.891286-0.18463-1.34707 0.204778-0.307522 0.40121-0.616473 0.578682-0.939146 0.255851-0.301894 0.527729-0.598327 0.844262-0.837092 0.309886-0.14756 0.601707 0.147011 0.877453 0.04841 0.357214 0.02332 0.607704-0.177582 0.883105-0.35098 0.416683-0.02413 0.786737-0.27552 1.16804-0.429715 0.402325-0.250762 0.849005-0.371626 1.27818-0.53705 0.339327-0.195709 0.771085-0.209638 1.06785-0.475203 0.261827-0.194278 0.693374-0.05971 0.866675-0.43113 0.378118-0.293807 0.820585-0.532135 1.29879-0.595585 0.373852-0.305427 0.882722-0.351342 1.28424-0.614584 0.36069-0.219342 0.707875-0.484551 1.13188-0.567105 0.29037-0.225043 0.668247-0.24843 0.950118-0.499735 0.408733-0.200507 0.773499-0.512613 1.22863-0.600874 0.38593 0.01269 0.614264-0.355221 0.954344-0.478957 0.569662-0.294301 1.1368-0.605252 1.73953-0.825814 0.435186 0.188881 0.76716-0.302728 1.15712-0.458781 0.460877-0.253103 0.922991-0.538825 1.45122-0.61741 0.255468-0.128179 0.622616-0.136279 0.843572-0.156916 0.05579-0.363629 0.499257-0.572408 0.83852-0.622794 0.332252-0.172116 0.781004-0.332095 1.09933-0.04169 0.127242 0.273672 0.41842 0.189489 0.348058-0.113512 0.06903-0.363062 0.496219-0.482874 0.768173-0.640066 0.228754 0.06224 0.460321 0.17829 0.620202-0.09989 0.120836-0.08231 0.578382-0.280489 0.395336-0.03799 0.168662 0.395376 0.753009-0.06603 0.444824-0.325618 0.168337-0.321693 0.534589-0.171817 0.400154 0.17959 0.04663 0.548007 0.920518-0.220301 0.344575-0.352736-0.073-0.03577-0.44869-0.07747-0.211222-0.0944 0.41445-0.08945 0.788691 0.156768 1.15262 0.31705 0.159698-0.230355 0.387154-0.439059 0.687765-0.424937 0.408054 0.04736 0.42829-0.374475 0.21476-0.606639 0.153073-0.217526 0.408718-0.275614 0.599535-0.468561 0.409516-0.157041 0.77848-0.439252 1.22559-0.477354 0.502259-0.277195 1.05868-0.458415 1.61089-0.612854 0.460349-0.07229 0.842806-0.405802 1.318-0.425416 0.312986-0.218812 0.712475-0.17476 1.04576-0.293664 0.301422-0.216053 0.693465-0.323673 1.04731-0.445418 0.571094-0.09805 1.09991-0.341796 1.60944-0.608388 0.358182-0.0531 0.727472 0.01364 1.0664-0.167455 0.363027 0.07706 0.613103-0.122026 0.88925-0.30494 0.208263-0.22411 0.573696-0.121366 0.863173-0.20654 0.392534-0.0851 0.707796-0.383351 1.09856-0.455639 0.167602 0.199649 0.580841 0.399289 0.599017-0.01727-0.219885-0.2255 0.420743-0.171983 0.550994-0.16303 0.325303-0.177465 0.670568-0.313233 1.03585-0.387814 0.335397 0.0026 0.677819-0.284052 0.956272-0.212793 0.383374 0.236679 0.557908-0.373364 0.953814-0.304816 0.372777-0.182728 0.758401-0.09773 1.1495-0.193788 0.375349-0.115974 0.712632-0.335349 1.12958-0.229632 0.252724-0.02235 0.686064 0.255695 0.739922-0.142007 0.128015-0.149977 0.77149-0.125684 0.350679 0.09226 0.09536 0.387342 0.446052 0.129792 0.54178-0.10365 0.272275-0.185295 0.536991 0.201732 0.85482 0.01039 0.462636 0.02361 0.328084-0.511498 0.574713-0.705388 0.18019-0.185999 0.355753-0.472481 0.666128-0.275113 0.269287 0.266435 0.82886 0.29019 0.632184-0.221039 0.04212-0.404416 0.393537 0.235617 0.3534 0.389732 0.256041 0.01417 0.288438-0.333698 0.250546-0.465143 0.314578-0.1264 0.568496-0.541874 0.895705-0.163059 0.352724 0.195453 0.685745-0.103196 1.00094-0.233717 0.248824-0.362853 0.66763-0.239781 1.0143-0.386975 0.38286 0.277977 0.72126-0.09482 1.12208-0.102215 0.41735 0.138452 0.47569-0.387499 0.8711-0.294036 0.41035-0.01206 0.83137 0.04889 1.23358-0.04659 0.33535-0.04096 0.71479 0.07008 0.93948-0.289693 0.32533-0.162923 0.71883-0.169056 1.04948-0.342828 0.46402-0.169114 0.99755-0.0054 1.44576-0.240921 0.31591-0.14889 0.91149-0.227684 0.95803 0.245168 6e-3 0.178109 0.20925 0.04252 0.17933-0.06756 0.31891-0.131558 0.56053-0.399024 0.92149-0.47042 0.32159-0.195225 0.67928-0.245797 1.04727-0.24352 0.35838-0.07518 0.71973-0.0024 1.07493 0.03742 0.32072-0.234656 0.73737-0.296897 1.12491-0.374807 0.29293 0.03416 0.79086-0.385498 0.93406-0.03122 0.33166 0.132357 0.57434-0.451408 0.93806-0.164084 0.14932 0.152234 0.36449 0.144846 0.25752-0.10222 0.4028-0.02413 0.80426-0.366667 1.24397-0.130532 0.0625 0.128125 0.21546 0.244666 0.18568-0.0014 0.0236-0.405633 0.39804 0.07626 0.64819-0.03182 0.14612 0.135886 0.46836 0.246335 0.44451-0.07252 0.10989-0.134969 0.68553-0.376243 0.28899-0.07788 0.2607 0.103944 0.69714 0.08002 0.98827-0.02636-0.0439-0.115476-0.2428-0.150126 0.0138-0.15099 0.83316-0.04371 1.67049-0.01298 2.50131-0.09248 0.35709-0.02918 0.58248-0.407904 0.95765-0.369885 0.51492 0.0026 1.03737 0.03142 1.53307 0.176224 0.20996-0.02736 0.63631-0.194398 0.69264-0.25296-0.22649-0.226252 0.39327-0.09753 0.52055-0.133432 0.34439-0.175951 0.68825-0.182797 1.03607-0.0096 0.23411 0.02268 0.15094-0.190229 0.0928-0.25791 0.3746-0.05001 0.79854 0.116171 1.13169-0.129484 0.47989-0.143649 0.99063-0.0291 1.48156-0.0095 0.41848 0.136021 0.71306-0.158585 1.0372-0.351808 0.95048-0.07668 1.90336-0.183603 2.85865-0.197739 0.43032-0.02474 0.88209 0.162174 1.28916-0.04772 0.31066-0.110499 0.6867-0.01166 0.96309-0.196549 0.64667-0.122114 1.31289-0.0877 1.96303-0.195269 0.84499-0.154281 1.70201-0.211157 2.55512-0.29891 0.51584-0.08553 1.03755-0.122857 1.56002-0.113655 0.49115 0.07295 0.6783-0.439663 1.06988-0.56634 0.16249-0.05651 0.66916-0.03209 0.42578-0.212568 0.5763-0.09607 1.15238-0.205498 1.72302-0.335979 0.34735-0.08238 0.73085-0.110706 1.04224 0.04131 0.32625-0.377506 0.75515 0.289728 0.42674 0.545023 0.1586 0.24691 0.84383-0.03349 0.60867 0.477108-0.11604 0.11624-0.36423 0.470926-5e-3 0.399247 0.35859-0.07961 0.2432 0.280955 0.18549 0.461495 0.18987 0.197457 0.63524 0.163577 0.57392 0.571817-0.11799 0.470031 0.4515 0.511053 0.71329 0.520506-0.1166 0.361175 0.27963 0.442261 0.46046 0.581017 0.0253 0.361693 0.0434 0.754863-0.10706 1.09108-0.0358 0.385616-8e-3 0.780489-0.12457 1.1568 0.0173 0.294614-0.0602 0.568172-0.16261 0.810691 0.27072 0.404449-0.0797 0.762068-0.28473 1.07984-0.0326 0.252696 0.0269 0.686615-0.37017 0.50711-0.33589-0.03605-0.17152 0.560833-0.56761 0.530941-0.12854 0.205738-0.21741 0.417809-0.46556 0.535696-0.23718 0.459739-0.76758-0.250643-1.03501 0.225587-0.26852 0.116781-0.86494 0.382929-0.99035-0.02325-0.20261-0.31412-0.58934-0.35922-0.90259-0.498144-1.57504-0.22269-3.17147-0.137932-4.75695-0.135238-0.52421-0.0096-1.04048 0.10417-1.56203 0.114121-0.33093-0.02772-0.66853-0.156266-0.94158-0.31429-0.20875 0.01738-0.33229 0.159441-0.24651 0.337415-0.35021 0.219722-0.7475-0.132878-1.11853 0.03235-0.78474 0.215217-1.60686 0.116061-2.40768 0.212396-1.37391 0.09229-2.72682 0.37683-4.10319 0.441817-0.67716 0.05195-1.3565 0.09811-2.02447 0.222809-1.06658 0.06585-2.12099 0.261322-3.184 0.368586-0.90474 0.117479-1.82048 0.170739-2.71586 0.348204-0.5 0.141945-1.03299 0.122263-1.5482 0.178385-0.34402 0.02256-0.68498 0.06906-1.01201 0.174352-1.00346 0.116718-2.00337 0.269658-2.99999 0.43402-0.38462 0.109219-0.77617 0.188426-1.17716 0.208815-0.39759 0.03916-0.75757 0.243524-1.16859 0.194807-0.27177 0.0822-0.65679-0.103304-0.84808-0.02352-0.16336 0.304336-0.64954-0.04826-0.91871 0.215351-0.65014 0.172351-1.34062 0.135308-1.97697 0.36676-0.75068 0.17464-1.50929 0.327729-2.27269 0.426292-0.39955 0.264361-0.90298 0.237259-1.35473 0.350157-0.70221 0.157658-1.43674 0.155176-2.11988 0.394897-0.42083 0.115903-0.89798-0.0011-1.27975 0.241351-0.39493 0.05431-0.70172 0.345261-1.12437 0.340458-0.401961 0.0702-0.780376 0.229375-1.18585 0.286659-0.380947 0.0445-0.707996 0.333588-1.09977 0.276713-0.379415-0.17697-0.66529 0.196224-1.03591 0.16825-0.328071 0.157303-0.672136 0.315469-1.03989 0.389594-0.369256 0.102559-0.778012 0.06189-1.09878 0.307679-0.508563 0.211905-1.07616 0.192421-1.60398 0.33795-0.649099 0.118535-1.23908 0.428118-1.87954 0.579468-0.732078 0.177794-1.44544 0.419495-2.15973 0.655686-0.39825 0.03613-0.719811 0.268257-1.08952 0.361165-0.369689-0.02486-0.667368 0.238767-1.03523 0.250575-0.361088 0.05557-0.641249 0.29027-1.01208 0.29589-0.287789 0.233929-0.630614 0.332829-0.898269 0.542968-0.560713 0.169432-1.18378 0.140789-1.70775 0.422698-0.273721 0.23543-0.674484 0.162301-0.976503 0.334378-0.532078 0.142221-1.01934 0.428824-1.57045 0.509895-0.50231 0.121697-0.956302 0.381113-1.45241 0.523548-0.294563 0.200348-0.606871 0.381456-0.956085 0.482975-0.330129 0.120509-0.683941 0.190699-0.984549 0.378914-0.451081 0.03462-0.877196 0.216285-1.25169 0.465867-0.430148 0.239443-0.948484 0.28745-1.33767 0.605686-0.382103 0.133817-0.772575 0.263459-1.14436 0.433002-0.345426 0.159213-0.717775 0.273652-1.03521 0.485869-0.272297 0.153309-0.628211 0.132389-0.895022 0.348651-0.448339 0.219568-0.935256 0.370341-1.34219 0.663869-0.487122 0.268592-1.05438 0.32698-1.54474 0.5909-0.368048 0.12566-0.63721 0.456277-1.02601 0.518367-0.294311-0.02314-0.540073 0.0266-0.687916 0.280826-0.304079 0.144042-0.690697 0.06851-0.91757 0.372876-0.384159 0.269561-0.817908 0.459186-1.22268 0.695024-0.368416 0.103777-0.752856 0.184429-1.07433 0.413355-0.263619 0.261133-0.653358 0.315718-0.897752 0.554148-0.380678 0.108037-0.618634 0.447836-0.976451 0.597058-0.327919 0.167961-0.60385 0.438799-0.985673 0.50396-0.423458 0.07118-0.674485 0.49873-1.09173 0.61213-0.251576 0.225752-0.600536 0.266583-0.865129 0.487096-0.272377 0.200568-0.65114 0.172366-0.861805 0.464789-0.503944 0.215565-0.92415 0.602728-1.45358 0.771446-0.429364 0.166921-0.76551 0.509806-1.21464 0.63628-0.337275 0.121256-0.550772 0.425374-0.853207 0.597128-0.365415 0.02177-0.606269 0.304695-0.964455 0.356193-0.351787 0.154744-0.704265 0.201606-0.973048 0.496683-0.431457 0.218449-0.950496 0.316441-1.42653 0.246284zm20.9695-16.097c-0.232597-0.33262-0.08989 0.288525 0 0zm0.298334-0.448334c-0.28964-0.08987-0.193976 0.157482 0 0zm18.7774-2.6785c-0.367453-0.176242-0.01223 0.40203 0 0zm-3.95578-0.633168c-0.08584-0.247957-0.353801 0.199797-0.03664 0.0565l0.02679-0.02544zm5.6-3.3502c-0.02137-0.256524-0.48767-0.304169-0.254354-0.0015 0.05144 0.07991 0.220015 0.109489 0.254354 0.0015zm14.84-0.0098c-0.27408-0.277364-0.12368 0.222517 0.0128 0.03106zm1.656-0.256c-0.3208-0.16702-0.18433 0.275669 0.0375 0.0465zm-17.364-0.424c-0.226802-0.39703-0.21342 0.391653 0 0zm5.94835-0.440564c-0.0016-0.313024-0.519557-0.04829-0.121226 0.07728l0.06514-0.01863 0.05608-0.05861zm1.79965-0.559436c0.244767-0.233841-0.482722 0.0939-0.106146 0.05695l0.05-0.02373 0.05614-0.03322zm4.8-0.165865c-0.0676-0.433247-0.57182 0.253586-0.0917 0.156048 0.0682-0.01619 0.0958-0.09408 0.0917-0.156048zm5.6-0.07413c-0.19749-0.308129-0.19917 0.301342 0 0zm-10.56-0.193457c0.05335-0.331027-0.48927-0.351571-0.266669-0.01988 0.06219 0.03948 0.213501 0.09439 0.266669 0.01988zm-1.52-0.126544c-0.19749-0.308129-0.199167 0.301342 0 0zm2.04-0.24c-0.306717-0.275393-0.25517 0.228276 0.01 0.03106zm-0.885711-0.125714c0.363647-0.274526-0.443244-0.1506-0.464172-0.05707 0.104024 0.187878 0.323118 0.237138 0.464172 0.05707zm1.27482-0.153826c-0.21997-0.284079-0.20748 0.333707 0.0106 0.04931l-0.0106-0.04931zm-0.869107-0.12046c-0.03261-0.258146-0.370047 0.152583-0.05703 0.0565l0.05703-0.0565zm18.7384-0.07446c-0.12245-0.389055-0.18012 0.397073-1e-3 0.05998zm-15.5201-0.373876c-0.28959-0.08987-0.19406 0.157471 0 0zm2.26166-0.663105c-0.0543-0.225336-0.42415-0.09118-0.1253 0.05933 0.0465 0.0274 0.13033 0.0036 0.1253-0.05933zm5.2-0.208559c-0.0721-0.35541-0.50195 0.20941-0.0963 0.110535 0.0482-0.01478 0.0964-0.05576 0.0963-0.110535zm3.55277-1.3317c-0.23884-0.293503-0.62235 0.408407-0.14733 0.153025 0.0498-0.03604 0.1619-0.07234 0.14733-0.153025zm1.62557-0.596635c-0.2896-0.08988-0.19405 0.157478 0 0z" stroke-width=".08"/>
 </g>
</svg>
