<?xml version="1.0" encoding="UTF-8"?>
<svg width="179.929" height="52.584" version="1.1" viewBox="0 0 179.929 52.584" xmlns="http://www.w3.org/2000/svg" xmlns:cc="http://creativecommons.org/ns#" xmlns:dc="http://purl.org/dc/elements/1.1/" xmlns:rdf="http://www.w3.org/1999/02/22-rdf-syntax-ns#">
 <metadata>
  <rdf:RDF>
   <cc:Work rdf:about="">
    <dc:format>image/svg+xml</dc:format>
    <dc:type rdf:resource="http://purl.org/dc/dcmitype/StillImage"/>
    <dc:title/>
   </cc:Work>
  </rdf:RDF>
 </metadata>
 <g transform="translate(-40.4803 -44.7322)">
  <path d="m45.1711 97.2364c-0.771324-0.0052-1.20557-0.676021-1.84819-0.95463-0.66494-0.112993-0.688871-0.90221-1.33811-1.12871-0.09753-0.339683-0.273373-0.706731-0.568025-0.760453-0.249289-0.569807-0.292104-1.26363-0.732641-1.7351-0.339838-0.239116-0.06374-0.160471 0.179147-0.09896-0.398151-0.104846-0.436498-0.782427-0.256265-1.15307 0.132275-0.212522-0.265296-0.35654 0.05791-0.666823 0.349274-0.460522 0.624933-1.04346 1.24895-1.15505 0.248657-0.765164 0.943483 0.03159 1.48266-0.260408 0.624447 0.06712 1.11968-0.386276 1.66997-0.578224 0.711084-0.142952 1.36589-0.499448 2.05052-0.758887 0.640633-0.09272 1.18078-0.396677 1.76328-0.664673 1.0364-0.411155 1.99042-1.01404 3.04397-1.37924 0.429327-0.409808 1.00919-0.361017 1.45799-0.749077 0.586335-0.243271 1.1462-0.517497 1.7144-0.736433 0.472881-0.28814 0.902293-0.596383 1.41596-0.710582 0.425606-0.404205 1.0958-0.295199 1.54854-0.764488 0.637509-0.0393 1.01758-0.663902 1.63173-0.670291 0.54962-0.286764 1.03387-0.727772 1.66693-0.856643 0.435308-0.514519 1.19229-0.24152 1.71267-0.640563 0.668167-0.228962 1.2607-0.695747 1.96688-0.871262 0.694574-0.133409 1.11771-0.812711 1.84094-0.857974 0.645343-0.125091 1.25792-0.305534 1.75805-0.736005 0.672417-0.413628 1.5208-0.337418 2.14586-0.831434 0.579715-0.196601 1.08084-0.619004 1.65609-0.785476 0.658368-0.217428 1.23784-0.646544 1.89474-0.904143 0.398096-0.386072 1.10415-0.272364 1.51633-0.666323 0.540152-0.257098 1.21295-0.4066 1.73109-0.751046 0.185723-0.403643 1.09803-0.188926 1.51701-0.535233 0.642003-0.243092 1.26543-0.40692 1.87883-0.701263 0.849505-0.286811 1.65346-0.737885 2.54167-0.887364 0.526336-0.328348 1.16092-0.411285 1.68951-0.754457 0.574979-0.166698 1.14895-0.326798 1.67216-0.63362 0.471569-0.356646 1.16519-0.362876 1.45653 0.05068-0.619409 0.43095 0.745419 0.183805 0.712268-0.251381-0.265126-0.735051 0.927246-0.774049 1.37848-0.995357 0.363649 0.272565 0.382859-0.551082 0.872996-0.484675 0.614347-0.119865 1.14409-0.464162 1.76628-0.456293 0.354542-0.609011 1.16974-0.821285 1.84441-0.842903 0.443792-0.366729 0.911594-0.922314 1.46959-0.572283 0.49401-0.341623 1.011-0.769539 1.65975-0.733419 0.507431 0.04991 0.862334-0.41026 1.39514-0.286121 0.445491-0.430375 1.12846-0.365615 1.60898-0.689979 0.77853 0.03111 1.15476-0.766683 1.91856-0.775805 0.54378-0.302765 1.24581-0.131297 1.79118-0.464484 0.53981-0.336155 1.08952-0.755288 1.76452-0.705524 0.71282-0.02375 1.40955-0.223778 2.02237-0.583909 0.7944-0.287872 1.63475-0.446737 2.41818-0.764268 0.46462-0.255731 1.05744-0.283707 1.57105-0.480252 0.58106-0.218846 1.17953-0.304791 1.73701-0.581754 0.55174-0.31114 1.22761-0.193129 1.72259-0.436214 0.42264-0.513662 1.21864 0.554678 0.53637 0.575516 0.20455 0.655098 1.22253-0.03357 0.62442-0.43592-0.0658-0.549581 0.68753-0.310468 0.81252-0.726912 0.27913 0.193175 1.35822 0.242282 0.93667-0.190596 0.51483-0.352762 1.09115 0.188024 1.53883-0.01367-0.41413-0.482272 0.65408-0.868059 1.0694-0.818735 0.68139 0.07203 1.19825-0.547279 1.87343-0.597786 0.68241 0.0036 1.22516-0.370648 1.84269-0.526279 0.48262-0.179302 1.181 0.150592 1.68226-0.216044 0.60587-0.307855 1.26772-0.414194 1.94385-0.332809 0.62615-0.02664 0.87853-0.694548 1.41751-0.851817 0.56016-0.219821 1.18602-0.107551 1.73821-0.233768 0.16098-0.325381 0.27371-0.427969 0.54224-0.236857 0.32561-0.219747 0.42615-0.01069 0.72508-0.05146 0.20815-0.510144 1.09773-0.0525 1.23734-0.647275 0.36115-0.05958 0.53273 0.263064 0.77271 0.265338 0.16054-0.532854 0.65298-0.708047 1.22534-0.673863 0.58279-0.07394 0.92845 0.37143 1.40769-0.13796 0.51677-0.446321 1.25329-0.343926 1.88232-0.488308 0.69851-0.08789 1.39895-0.219881 2.10249-0.224164 0.49398-0.282085 1.16614-0.07262 1.54822-0.487317 0.39988 0.218537 0.89078-0.110952 1.31874 0.188872 0.59598 8.68e-4 -0.74812-0.347687-1e-3 -0.462038 0.65058-0.111043 1.26911-0.333938 1.91528-0.443809 0.26665 0.260784 0.82662-0.188214 0.24953-0.07897 0.34603-0.275925 1.03342 0.0088 1.43534-0.359301 0.63729-0.153512 1.23622-0.446821 1.91094-0.3702 0.57302-0.06698 1.27978 0.01961 1.72136-0.406827 0.48544-0.337945 0.33173 0.711702 0.35031 0.837099 0.40996-0.158859 0.35942 0.133655 0.0889 0.284399 0.65639 0.233707 1.08612-0.846818 0.21355-0.818972-0.58966-0.162654 0.53078-0.228188 0.68387-0.325593 0.11077-0.679917 1.06979 0.03603 1.12912-0.54632 0.58512 0.320237 1.16859-0.05289 1.7562-0.13769 0.29093-0.09133 1.22426-0.101714 1.08411-0.347264-0.34937-5e-3 -0.52837-0.01261-0.10858-0.133462 0.24716-0.112549 0.92942-0.515024 0.63308 0.01081 0.55771 0.335376 1.12516-0.176874 1.71517-0.111858 0.59241-0.0019 1.12165-0.196938 1.69951-0.328236 1.02514-0.06858 1.95881-0.621954 2.99736-0.570607 0.50502-0.154512 0.97233-0.317621 1.33327-0.492397 0.0374-0.312676 0.31941 0.241717 0.48892-0.173596 0.53664-0.0054 1.08031 0.13981 1.57692-0.04512 0.59215-0.02061 1.26937 0.06546 1.80088-0.205393 0.65313-0.136147 1.22892-0.200628 1.87354-0.242876 0.54404-0.04897 1.13698-0.154548 1.72988-0.143442 0.49611-0.252299 1.21195 0.02278 1.59635-0.34174 0.50875 0.357056 0.94168-0.544528 1.4787-0.158445 0.28529-0.166977 0.38451-0.44358 0.82427-0.311518 1.3432 0.06871 2.68836-0.0059 4.03197-0.02837 0.25478-0.480561 0.70391-0.568845 1.19854-0.394608 0.65316-0.169551 1.31213-0.190562 1.99151-0.168279 0.60196 0.127358 1.22514-0.550589 1.70134-0.12085 0.59867-0.321604 1.28733-0.300331 1.94892-0.33048 0.40319-0.232433 0.80855 0.500167 0.91458-0.07444 0.56043-0.307853 1.00276-0.04 1.46499 0.111181 0.37641-0.398002 0.97125-0.112262 1.33516-0.393246-0.062-0.548825 0.39965-0.369086 0.54488-0.03272 0.39503 0.264338 0.76853-0.473331 0.95529 0.01805 0.29875-0.181301 0.61172-0.529598 0.93575-0.18171 0.38502-0.572273 0.25366 0.552392 0.71339 0.106985 0.30064-0.141455 1.09416-0.624891 1.10088-0.03971 0.84624-0.04513 1.68338-0.287144 2.53832-0.19782 0.5651-0.05923 1.0055-0.408349 1.55274-0.202242 0.72307-0.03492 1.41825-0.258717 2.12675-0.366697 0.85241-0.04861 1.71223-0.01953 2.55548 0.07355 1.54342-0.135663 3.09916-0.0892 4.64643-0.03912 1.3011 0.08671 2.60741 0.09256 3.90653 0.195862 0.75235-0.05815 1.58009-0.177172 2.1595-0.701333 0.58561-0.147847 1.2723 0.05041 1.74967 0.418719 0.38643 0.473723 1.05438 0.669115 1.28653 1.29231 0.24151 0.514366 0.92014 0.679398 0.99597 1.30996 0.2683 0.564643 1.1677 0.810012 1.03729 1.53062 0.13505 0.591126-0.0799 1.15919-0.0711 1.76244 0.0306 0.518107-0.50124 1.00098-0.78732 1.42264-0.19638 0.557867-0.82271 0.891265-1.16341 1.12824-0.5698-0.156332-1.21011 0.103954-1.76068-0.292757-0.58073-0.186871-1.09126-0.419729-1.67222-0.582776-0.73216-0.10967-1.47725-0.118092-2.20123-0.279842-0.79318-0.06913-1.59364-0.07303-2.37583-0.21526-0.62202 0.08058-1.08443-0.124117-1.72585 0.01958-1.31182 0.04971-2.62582 0.02091-3.93367-0.08138-2.48695 0.04897-4.97225 0.16779-7.45687 0.279344-1.12141 0.172697-2.25627 0.06313-3.38455 0.118842-0.67745 0.06048-1.36919-0.04485-2.05567 0.08698-0.96115 0.08044-1.90814 0.262001-2.85168 0.449208-1.0982 0.04615-2.20011 0.04044-3.2974 0.132018-0.46158-0.01268-0.79592-0.05776-1.10227 0.281221-0.70207 0.195295-1.44202 0.115321-2.1538 0.243338-0.58643-0.179802-1.26486 0.06522-1.86108 0.146104-0.52708 0.373526-1.3082 0.300674-1.95093 0.396316-0.8253 0.06444-1.66763 0.01528-2.48193 0.151864-0.28816 0.351377-1.02125 0.09381-1.44106 0.397112-0.46048-0.09166-1.03635-0.05257-1.42673-0.211115-0.29122 0.395771-0.68016 0.130266-0.94969 0.071-0.12965 0.648327-1.09757 0.242315-1.58805 0.455912-0.55751 0.345464-1.21534-0.0087-1.82998 0.195064-0.27676 0.234117-0.54052-0.402338-0.6912 0.07536-0.56886-0.04719-1.04706 0.362731-1.60467 0.325255-0.68012-0.0056-1.34909 0.159411-1.99766 0.367857-0.52714-0.03594-1.0351 0.201572-1.49562 0.258288 0.0688-0.423662-0.99683 0.485284-1.04119 0.08801 0.0177-0.489357-0.41397-0.230861-0.48368 0.05105-0.55066 0.473397-1.14372 0.202993-1.75579 0.462978-0.64104 0.05646-1.29742 0.07703-1.9021 0.138398-0.95405 0.496432-2.012 0.797417-3.09248 0.80532-0.51766 0.05508-1.20457 0.04436-1.49053 0.423229-0.68259-0.0087-1.30197 0.285581-1.98402 0.29998-0.41685 0.368988-1.05841 0.275468-1.45887 0.143686 0.1104 0.436773-0.65157 0.225717-0.92409 0.469691-0.69712 0.05303-1.39743 0.293416-2.09315 0.23065-0.49345-0.223097-0.86028 0.412646-1.42148 0.266025-0.55092 0.107547-1.05895 0.549903-1.63136 0.308064-0.53465 0.323943-1.20153 0.425587-1.80536 0.591842-0.81414 0.157501-1.7434-0.02552-2.43962 0.5268-0.57517 0.348733-1.32774 0.159935-1.89738 0.485407-0.53675 0.06671-1.17923 0.143386-1.74847 0.311798-0.61836-0.254684-1.18778 0.183263-1.64016 0.508713-0.58017 0.177374-1.26533-0.06904-1.77658 0.356127-0.61826 0.212279-1.18479 0.390614-1.85027 0.44031-0.61064 0.298413-1.28237 0.449999-1.89846 0.710648-0.55055 0.0087-1.14061 0.158762-1.57437 0.314429-0.33743-0.0452-0.453-0.197973-0.63301 0.160428-0.67397 0.06238-1.26245 0.292427-1.88018 0.535719-0.49507-0.0075-0.8818 0.659668-1.45119 0.388036-0.81785 0.132552-1.59743 0.678603-2.44355 0.52929-0.54268-0.23709-0.62377 0.686076-1.25023 0.487396-0.63411 0.158933-1.21305 0.473489-1.91922 0.411288-0.47352 0.181466-0.84893 0.311778-1.35713 0.548339-0.58694 0.412574-1.37616 0.21531-1.98429 0.597716-0.66303 0.03357-1.10619 0.61482-1.76681 0.692021-0.61032 0.309454-1.26607 0.490733-1.94176 0.556809-0.55377 0.214821-1.16894 0.132471-1.66972 0.509978-0.54442 0.315084-1.1959 0.374059-1.80282 0.488035-0.36243 0.286895-0.9682 0.394441-0.7238-0.102794-0.49162-0.05859-0.097 0.737521-0.66111 0.75579-0.73979 0.179146-1.28857 0.743495-2.06965 0.860092-0.57838 0.112912-1.13461-0.06311-1.59458 0.42304-0.58704 0.200622-1.11882 0.508564-1.71162 0.628837-0.592395 0.256497-1.3014 0.07023-1.79609 0.55478-0.540828 0.325129-1.18498 0.383662-1.69504 0.768699-0.337345 0.354307-0.841506-0.22802-0.894181 0.225552-0.522544 0.01472-0.771857 0.717231-1.40806 0.618263-0.543712 0.288446-1.17559 0.334611-1.73443 0.626071-0.578382 0.240678-1.22583 0.276117-1.75773 0.632746-0.614336 0.375131-1.28865 0.616203-1.95437 0.877214-0.490692 0.328153-1.16265 0.121468-1.61736 0.569012-0.613655 0.22347-1.05871 0.749838-1.71927 0.636796-0.484236 0.251026-0.822024 0.759477-1.40141 0.824446-0.664564 0.169863-1.34764 0.11645-1.86762 0.647568-0.59785-0.01009-1.01572 0.476216-1.54766 0.635593-0.591674-0.08276-1.00518 0.148269-1.35954 0.579008-0.493171 0.255953-1.11969 0.426366-1.53548 0.293487-0.292254 0.375887-0.756128 0.613446-1.2389 0.779713-0.726644 0.0964-1.22334 0.61767-1.83434 0.944765-0.481601 0.334479-1.09516 0.425249-1.60252 0.731195-0.580286 0.258941-1.18763 0.368794-1.71199 0.734691-0.477528 0.513115-1.30118 0.09195-1.71044 0.702553-0.504955 0.332369-1.10756 0.400101-1.57525 0.795346-0.652908 0.286754-1.28925 0.605253-1.96536 0.83983-0.630102 0.286971-1.25539 0.479623-1.80443 0.889729-0.583757 0.350664-1.29767 0.390124-1.84506 0.754205-0.382638 0.470126-1.13287 0.433437-1.59963 0.811242-0.502274 0.378012-1.16108 0.517979-1.68766 0.873128-0.510217 0.378254-1.00803 0.827581-1.66772 0.903616-0.48872 0.323622-1.0524 0.51097-1.49665 0.843246-0.603066 0.365486-1.41525 0.378148-1.88797 0.903909-0.625864 0.348695-1.26386 0.615473-1.86142 1.02039-0.556336 0.407445-1.15919 0.795524-1.8479 0.921788-0.656323 0.177484-1.00517 0.822534-1.66285 0.986265-0.551185 0.251921-1.09941 0.535648-1.57055 0.91142-0.667156 0.08536-1.16482 0.620444-1.85617 0.630755-0.126849-0.0042-0.25295-0.03134-0.370303-0.07963zm38.0292-18.1149c-0.103164-0.296957-0.279037 0.237857 0 0zm6.17833-2.68833c-0.320561-0.0741-0.159036 0.146575 0 0zm-0.103936-0.840731c-0.510181-0.29612-0.119169 0.576292 0 0zm3.8456-1.59094c-0.122-0.279712-0.301357 0.266657 0 0zm2-0.4c-0.220945-0.328602-0.479387 0.283837 0 0zm-10.2217-1.00833c-0.320566-0.0741-0.159028 0.146574 0 0zm6.36902-0.707571c-0.02363-0.447981-0.748984 0.07945-0.18614 0.112603 0.07252-5e-3 0.157821-0.03947 0.18614-0.112603zm13.1969-0.722999c-0.33622-0.429095-0.34643 0.409912 0 0zm-16.9442-0.121096c-0.05828-0.288952-0.204682 0.259249 0 0zm15.005-0.04455c0.33224-0.442332-0.17399-0.556983-0.28119-0.11212-0.0982 0.212714 0.16979 0.313322 0.28119 0.11212zm1.67498-0.270914c-0.29176-0.211827-0.2879-0.503404-0.19745-0.707454-0.44803-0.122182-0.24532 1.15865 0.19745 0.707454zm8.8-2.64454c-0.0838-0.260256-0.20133 0.277559 0 0zm-5.92-0.16c-0.28334-0.292964-0.18562 0.264601 0 0zm7.16 0c-0.30134-0.266662-0.12206 0.27972 0 0zm-17.0661-0.418059c-0.492184-0.164221 0.08258 0.367517-9e-6 1e-6zm13.1061-0.137219c-0.14217-0.483021-0.76367 0.276153 0 0zm-11.6217-0.133056c-0.320566-0.0741-0.159028 0.146574 0 0zm0.541666-0.191666c-0.135584-0.263054-0.756209 0.123162-0.164997 0.07369l0.07271-0.01719zm17.48-0.08c-0.0838-0.260256-0.20133 0.277559 0 0zm-15.2217-0.368333c-0.32039-0.07413-0.15922 0.14659 0 0zm4.48425-0.739307c-0.0817-0.3147-0.53226 0.339831-0.0672 0.08414zm11.2974 0.06267c-0.22087-0.248906-0.40454 0.212514-0.0122 0.02821zm-10.64-0.204358c-0.37774-0.160376-0.45526 0.261432 0 0zm9.28-0.59067c-0.2154-0.322399-0.18853 0.311471 0 0zm0.28-0.56c-0.25132-0.337589-0.38113 0.271748 0 0zm9.52-0.24c-0.34727-0.296006-0.0413 0.270686 0 0zm-16.0172-0.241326c-0.4092-0.756148-0.0725 0.698511-7e-5 0zm0.45717-0.487233c-0.34696-0.316771-0.27827 0.445692 0 0zm14.24 0.08856c-0.2154-0.322399-0.18853 0.311471 0 0zm-7.31635-1.55223c0.21355-0.392333-0.58274 0.01583-0.0879 0.07937l0.088-0.07937zm10.1964 0.03877c0.29455-0.579769-0.80163-0.108743-0.10698 0.06692 0.045 0.01749 0.11168-0.01445 0.10698-0.06692zm7.44-0.726543c-0.0838-0.260256-0.20133 0.277559 0 0zm-4.49834-0.255c-0.39112-0.499953-0.17935 0.415675 0 0zm-9.86292-0.147033c-0.4602-0.166504-0.0346 0.338313-4e-5 -2e-6zm0.63784-0.07244c-0.0504-0.418401-0.61601 0.155925-0.0665 0.05496l0.0665-0.05495zm15.1234-0.165527c-0.34727-0.296006-0.0413 0.270686 0 0zm3.332-0.04c-0.23137-0.399907-0.20454 0.39432 0 0zm-9.212-0.04c-0.2154-0.322399-0.18853 0.311471 0 0zm4.69833 0.03167c-0.32039-0.07413-0.15922 0.14659 0 0zm-16.72-0.16c-0.32036-0.07413-0.15925 0.146588 0 0zm9.22167-0.206895c-0.24703-0.182263-0.26853 0.39916 0-1e-6zm8.16 0.09522c-0.2154-0.322399-0.18853 0.311471 0 0zm-13.04-0.124716c-0.15748-0.294104-0.16936 0.392621 0 0zm4.68-0.755279c-0.30134-0.266662-0.12206 0.27972 0 0zm2.04451-0.26c0.28524-0.232775 0.14208-1.33191-0.14097-0.969969 0.33801 0.02175-0.41555 1.07567 0.018 1.09709-0.041 0.0011 0.18238-0.127248 0.123-0.127125zm-2.48451 0.02c-0.21692-0.295461-0.0765 0.255546 0 0zm0-0.56c-0.2154-0.322399-0.18853 0.311471 0 0zm4.16-0.315278c-0.1614-0.413819-0.33523 0.320196 0 0zm-5.96-0.08472c-0.22095-0.328606-0.47938 0.283835 0 0zm3.52-0.48c-0.38802-0.314864-0.25101 0.222436 0 0zm5.03-0.94382c-0.0986-0.71372-0.7098 0.314367 0 0zm24.21-0.04762c-0.26406-0.24926-0.4012 0.165966 0 0zm-20.6-0.44856c-0.34727-0.296006-0.0413 0.270686 0 0zm-3.34167-0.368333c-0.32036-0.07413-0.15925 0.146588 0 0zm28.1817-0.351669c-0.30929-0.287563-0.12862 0.217366 0 0zm-20.782-0.524632c0.0919-0.752-0.82657 0.09302 0 0zm5.82346-0.49454c-0.15659-0.320163-0.76326-0.157361-0.26552 0.0098 0.0252 0.01164 0.52898 0.07723 0.26552-0.0098zm5.81944-0.780827c0.0521-0.568671-0.44993-0.291036-0.28422 0.139218 0.0662 0.436913 0.3889 0.149548 0.28422-0.139218zm-5.78485 0.04645c-0.24339-0.196336 0.11902-0.810413-0.33931-0.432354-0.20677 0.208499 0.0993 0.71196 0.33931 0.432354zm7.278-0.09614c-0.29743-0.194971-0.19266 0.461531 0 0zm3.13072-1.74264c-0.43098-0.384515-0.26351 0.680325 2e-3 0.09547l9e-3 -0.05149-0.0117-0.04397zm1.89846-0.03275c0.11994-0.403674-0.30282-0.978108-0.67345-0.805322 0.72604 0.105973-0.34368 1.28049 0.67345 0.805322zm-2.29991-0.380252c0.0671-0.413894-0.55576 0.366253-1.9e-4 -1e-6zm2.82472-0.759293c-0.0574-0.488404-0.76387 0.05939-0.19809 0.07692l0.12833-0.04412zm0.81298-0.07644c0.50164-0.597764-0.95043-0.314306-0.40701 0.170896 0.16346 0.09097 0.30238-0.07294 0.40701-0.170896zm10.0325-0.0875c0.41207-0.295098-0.49584-0.157072-0.10568 0.03672l0.10564-0.03672zm-0.0292-0.551439c-0.24265-0.275315-0.29032 0.374096 4e-5 0zm22.2958-0.206408c-0.0432-0.329719-0.57723-0.394938-0.27147-0.0035 0.0144 0.08722 0.57555 0.148987 0.27147 0.0035zm-15.3087-0.827407c-0.37751-0.593817-0.4216 0.48431 0 0zm3.62704-0.01452c-0.32035-0.07414-0.15929 0.146593 0 0zm-10.9383-0.231665c-0.4702-0.549322-0.25158 0.423093 0 0zm1.41834-0.0083c-0.32035-0.07414-0.15929 0.146593 0 0zm7.04-1.2c-0.32035-0.07415-0.15928 0.146599 0 0zm9.86166-0.586979c-0.15008-0.400235-0.20815 0.267864 0 0zm-32.5122 3.85643c-0.23513-0.502729 0.71161 0.03444 0 0zm11.6722-2.26115c0.12221-0.279669 0.30124 0.266664 0 0z" stroke-width=".08"/>
 </g>
</svg>
