<?xml version="1.0" encoding="UTF-8"?>
<svg width="338.966" height="313.446" enable-background="new 0 0 586 559" version="1.1" viewBox="0 0 338.966 313.446" xml:space="preserve" xmlns="http://www.w3.org/2000/svg" xmlns:cc="http://creativecommons.org/ns#" xmlns:dc="http://purl.org/dc/elements/1.1/" xmlns:rdf="http://www.w3.org/1999/02/22-rdf-syntax-ns#"><g transform="translate(-123.55 -122.776)"><path d="m461.514 298.355-18.049-55.587c8e-3 0.025 0.011 0.051 0.019 0.076-9e-3 -0.029-0.014-0.058-0.022-0.087-1e-3 -2e-3 -1e-3 -3e-3 -1e-3 -5e-3v-2e-3l-35.83-110.31c-1.96-5.811-7.353-9.711-13.536-9.663-6.201 0.032-11.446 3.857-13.364 9.748l-34.01 104.705h-107.313l-34.074-104.712c-1.916-5.886-7.162-9.71-13.362-9.742h-0.075c-6.105 0-11.509 3.876-13.49 9.752l-35.732 110.211-5e-3 0.014v3e-3c-9e-3 0.028-0.013 0.056-0.022 0.084 8e-3 -0.025 0.011-0.051 0.019-0.076l-18.115 55.591c-2.725 8.392 0.232 17.512 7.36 22.697l156.416 113.648c0.023 0.017 0.049 0.027 0.072 0.044 0.067 0.048 0.132 0.097 0.2 0.142-0.064-0.043-0.124-0.09-0.187-0.134 0 0 0-1e-3 -1e-3 -1e-3 0.01 8e-3 0.022 0.013 0.033 0.02 9e-3 6e-3 0.018 0.01 0.027 0.016 1e-3 1e-3 2e-3 2e-3 4e-3 3e-3 0.242 0.168 0.493 0.322 0.753 0.463 0.036 0.02 0.068 0.045 0.104 0.064 1e-3 0 1e-3 1e-3 2e-3 1e-3 0.022 0.011 0.042 0.025 0.064 0.036 0.017 8e-3 0.035 0.013 0.051 0.021 0.012 6e-3 0.025 0.01 0.037 0.015 0.029 0.014 0.061 0.023 0.09 0.038 0.136 0.065 0.279 0.118 0.419 0.175 0.131 0.054 0.258 0.117 0.392 0.164 6e-3 2e-3 0.011 5e-3 0.017 7e-3 0.022 8e-3 0.042 0.019 0.065 0.027 0.028 0.01 0.055 0.021 0.083 0.03 0.011 3e-3 0.022 5e-3 0.033 8e-3 0.035 0.011 0.073 0.016 0.108 0.026 0.013 4e-3 0.028 6e-3 0.042 0.01 0.188 0.057 0.383 0.098 0.577 0.141 0.076 0.017 0.149 0.041 0.226 0.055 0.011 2e-3 0.021 6e-3 0.033 8e-3 0.025 5e-3 0.048 0.014 0.074 0.018 0.041 7e-3 0.081 0.02 0.123 0.026 0.033 5e-3 0.067 3e-3 0.1 8e-3 6e-3 1e-3 0.011 0 0.017 1e-3h5e-3c0.369 0.053 0.743 0.09 1.124 0.09h0.013c0.382 0 0.756-0.037 1.126-0.09h4e-3c6e-3 -1e-3 0.012 0 0.018-1e-3 0.033-5e-3 0.068-3e-3 0.101-8e-3 0.042-7e-3 0.082-0.019 0.124-0.026 0.025-4e-3 0.048-0.013 0.073-0.018 0.011-2e-3 0.021-6e-3 0.032-8e-3 0.078-0.015 0.153-0.039 0.231-0.056 0.191-0.042 0.383-0.083 0.57-0.139 0.013-4e-3 0.026-5e-3 0.039-9e-3 0.037-0.011 0.075-0.016 0.112-0.027 0.011-4e-3 0.023-5e-3 0.034-8e-3 0.029-9e-3 0.057-0.021 0.085-0.031 0.022-8e-3 0.042-0.019 0.064-0.027 6e-3 -2e-3 0.011-5e-3 0.017-7e-3 0.142-0.05 0.276-0.116 0.415-0.173 0.129-0.054 0.261-0.102 0.387-0.162 0.031-0.015 0.064-0.024 0.094-0.039 0.012-6e-3 0.026-0.01 0.038-0.016 0.017-8e-3 0.035-0.013 0.052-0.022 0.023-0.012 0.045-0.026 0.067-0.037 0 0 1e-3 0 1e-3 -1e-3 0.037-0.019 0.07-0.046 0.107-0.066 0.258-0.14 0.508-0.293 0.749-0.46 0.019-0.013 0.041-0.023 0.061-0.037 5e-3 -4e-3 0.011-6e-3 0.016-0.01 0.023-0.017 0.05-0.028 0.073-0.045l156.44-113.65c7.124-5.182 10.081-14.302 7.356-22.694zm-67.32-155.581 30.68 94.456h-61.36zm25.307 110.428-12.519 16.041-92.334 118.307 43.677-134.348zm-134.073 177.505c8e-3 0.024 0.021 0.046 0.029 0.071-8e-3 -0.025-0.021-0.047-0.029-0.071zm-14.008-43.149-104.796-134.356h61.18zm-79.545-244.785 30.737 94.457h-61.36zm-50.571 165.36c-1.516-1.103-2.144-3.05-1.563-4.838l13.466-41.325 98.67 126.502zm146.749 126.356c-0.031-0.025-0.061-0.052-0.091-0.078-6e-3 -5e-3 -0.012-0.012-0.019-0.017-0.06-0.05-0.119-0.101-0.177-0.153-0.114-0.099-0.226-0.2-0.333-0.306 9e-3 8e-3 0.019 0.015 0.028 0.023 0.012 0.011 0.025 0.02 0.037 0.031 0.229 0.219 0.47 0.425 0.722 0.615 3e-3 2e-3 5e-3 5e-3 8e-3 7e-3 0.012 9e-3 0.022 0.02 0.034 0.03-0.069-0.05-0.141-0.098-0.209-0.152zm4.975-32.097-25.665-79.059-22.766-70.131h96.933zm5.253 31.849c-0.06 0.052-0.118 0.104-0.179 0.154-7e-3 6e-3 -0.014 0.013-0.021 0.019-0.031 0.025-0.06 0.052-0.09 0.077-0.066 0.053-0.138 0.101-0.207 0.152 0.012-9e-3 0.022-0.021 0.035-0.029l6e-3 -6e-3c0.252-0.19 0.492-0.394 0.719-0.613 9e-3 -9e-3 0.02-0.016 0.029-0.024 0.012-0.011 0.025-0.02 0.036-0.031-0.106 0.103-0.217 0.203-0.328 0.301zm146.485-126.111-110.557 80.317 98.703-126.467 13.412 41.307c0.582 1.796-0.045 3.743-1.558 4.843z"/></g><metadata><rdf:RDF><cc:Work rdf:about=""><dc:title/><dc:format>image/svg+xml</dc:format><dc:type rdf:resource="http://purl.org/dc/dcmitype/StillImage"/></cc:Work></rdf:RDF></metadata></svg>
