<?xml version="1.0" encoding="UTF-8" standalone="no"?>
<svg
   xmlns:dc="http://purl.org/dc/elements/1.1/"
   xmlns:cc="http://creativecommons.org/ns#"
   xmlns:rdf="http://www.w3.org/1999/02/22-rdf-syntax-ns#"
   xmlns:svg="http://www.w3.org/2000/svg"
   xmlns="http://www.w3.org/2000/svg"
   xmlns:sodipodi="http://sodipodi.sourceforge.net/DTD/sodipodi-0.dtd"
   xmlns:inkscape="http://www.inkscape.org/namespaces/inkscape"
   width="11.493mm"
   height="11.492996mm"
   viewBox="0 0 11.493 11.492996"
   version="1.1"
   id="svg837"
   inkscape:version="1.0.2 (e86c870879, 2021-01-15)"
   sodipodi:docname="github.svg">
  <defs
     id="defs831" />
  <sodipodi:namedview
     id="base"
     pagecolor="#ffffff"
     bordercolor="#666666"
     borderopacity="1.0"
     inkscape:pageopacity="0.0"
     inkscape:pageshadow="2"
     inkscape:zoom="11.2"
     inkscape:cx="26.574304"
     inkscape:cy="38.026861"
     inkscape:document-units="mm"
     inkscape:current-layer="layer1"
     inkscape:document-rotation="0"
     showgrid="false"
     fit-margin-top="0"
     fit-margin-left="0"
     fit-margin-right="0"
     fit-margin-bottom="0"
     inkscape:window-width="1524"
     inkscape:window-height="1052"
     inkscape:window-x="0"
     inkscape:window-y="0"
     inkscape:window-maximized="0" />
  <metadata
     id="metadata834">
    <rdf:RDF>
      <cc:Work
         rdf:about="">
        <dc:format>image/svg+xml</dc:format>
        <dc:type
           rdf:resource="http://purl.org/dc/dcmitype/StillImage" />
        <dc:title></dc:title>
      </cc:Work>
    </rdf:RDF>
  </metadata>
  <g
     inkscape:label="Layer 1"
     inkscape:groupmode="layer"
     id="layer1"
     transform="translate(-363.15819,-334.57383)">
    <path
       d="m 368.90427,334.57383 c -3.1729,0 -5.74608,2.63789 -5.74608,5.89211 0,2.6028 1.64642,4.81134 3.92997,5.59081 0.28752,0.0539 0.39229,-0.12804 0.39229,-0.28429 0,-0.13998 -0.005,-0.51036 -0.008,-1.00192 -1.59844,0.35592 -1.9357,-0.78995 -1.9357,-0.78995 -0.26141,-0.68072 -0.63818,-0.86193 -0.63818,-0.86193 -0.52176,-0.36532 0.0395,-0.35808 0.0395,-0.35808 0.5768,0.0416 0.88019,0.60729 0.88019,0.60729 0.51258,0.90027 1.34515,0.64021 1.67253,0.48938 0.0522,-0.38051 0.20074,-0.64021 0.36478,-0.78742 -1.27601,-0.14902 -2.61763,-0.65432 -2.61763,-2.91205 0,-0.64348 0.22401,-1.16902 0.59161,-1.58101 -0.0593,-0.14901 -0.25647,-0.74799 0.0564,-1.55929 0,0 0.48226,-0.15842 1.5801,0.60369 0.45827,-0.13058 0.95004,-0.19569 1.43865,-0.19822 0.48824,0.002 0.97966,0.0677 1.43864,0.19822 1.09714,-0.76211 1.57869,-0.60369 1.57869,-0.60369 0.31362,0.8113 0.11642,1.41028 0.0575,1.55929 0.3683,0.41199 0.59055,0.93753 0.59055,1.58101 0,2.26352 -1.34374,2.76158 -2.62363,2.90734 0.20603,0.18194 0.38983,0.54147 0.38983,1.09126 0,0.78742 -0.007,1.42292 -0.007,1.61608 0,0.1577 0.10371,0.34108 0.39511,0.28356 2.28178,-0.7809 3.9268,-2.98764 3.9268,-5.59008 0,-3.25422 -2.57318,-5.89211 -5.74716,-5.89211"
       style="fill:#1b1817;fill-opacity:1;fill-rule:evenodd;stroke:none;stroke-width:0.0357213"
       id="path16" />
  </g>
</svg>
