<?xml version="1.0" encoding="UTF-8" standalone="no"?>
<svg
   xmlns:dc="http://purl.org/dc/elements/1.1/"
   xmlns:cc="http://creativecommons.org/ns#"
   xmlns:rdf="http://www.w3.org/1999/02/22-rdf-syntax-ns#"
   xmlns:svg="http://www.w3.org/2000/svg"
   xmlns="http://www.w3.org/2000/svg"
   xmlns:sodipodi="http://sodipodi.sourceforge.net/DTD/sodipodi-0.dtd"
   xmlns:inkscape="http://www.inkscape.org/namespaces/inkscape"
   width="21.245092mm"
   height="24.855659mm"
   viewBox="0 0 21.245092 24.855659"
   version="1.1"
   id="svg117"
   inkscape:version="1.0.2 (e86c870879, 2021-01-15)"
   sodipodi:docname="Cross.svg">
  <defs
     id="defs111" />
  <sodipodi:namedview
     id="base"
     pagecolor="#ffffff"
     bordercolor="#666666"
     borderopacity="1.0"
     inkscape:pageopacity="0.0"
     inkscape:pageshadow="2"
     inkscape:zoom="5.6"
     inkscape:cx="7.0021136"
     inkscape:cy="43.440367"
     inkscape:document-units="mm"
     inkscape:current-layer="layer1"
     inkscape:document-rotation="0"
     showgrid="false"
     fit-margin-top="0"
     fit-margin-left="0"
     fit-margin-right="0"
     fit-margin-bottom="0"
     inkscape:window-width="1920"
     inkscape:window-height="1052"
     inkscape:window-x="0"
     inkscape:window-y="0"
     inkscape:window-maximized="1" />
  <metadata
     id="metadata114">
    <rdf:RDF>
      <cc:Work
         rdf:about="">
        <dc:format>image/svg+xml</dc:format>
        <dc:type
           rdf:resource="http://purl.org/dc/dcmitype/StillImage" />
        <dc:title></dc:title>
      </cc:Work>
    </rdf:RDF>
  </metadata>
  <g
     inkscape:label="Layer 1"
     inkscape:groupmode="layer"
     id="layer1"
     transform="translate(-152.11691,-211.81753)">
    <path
       style="fill:#000000;stroke-width:0.0211667"
       d="m 171.0624,236.6593 c 0,-0.0219 -0.21998,-0.10778 -0.27516,-0.1074 -0.10387,7.2e-4 -0.22114,-0.0256 -0.23651,-0.0531 -0.01,-0.0175 -0.0494,-0.0423 -0.088,-0.055 -0.0466,-0.0154 -0.0814,-0.0468 -0.10371,-0.0935 -0.0196,-0.0411 -0.0608,-0.0816 -0.0993,-0.0976 -0.052,-0.0215 -0.0608,-0.0333 -0.0419,-0.056 0.0185,-0.0223 0.015,-0.0317 -0.0155,-0.0416 -0.13624,-0.0441 -0.16267,-0.0866 -0.10293,-0.16549 0.0167,-0.0221 0.026,-0.0473 0.0206,-0.056 -0.005,-0.009 0.004,-0.0213 0.0218,-0.028 0.0174,-0.007 0.0316,-0.0251 0.0316,-0.0409 0,-0.0158 0.0238,-0.0511 0.0529,-0.0784 0.0291,-0.0273 0.0529,-0.0589 0.0529,-0.0701 0,-0.0275 0.0663,-0.0764 0.10583,-0.078 0.0393,-0.002 0.15916,-0.16065 0.1765,-0.23412 0.0167,-0.0706 -0.0745,-0.2104 -0.13717,-0.2104 -0.0241,0 -0.0625,-0.0238 -0.0854,-0.0529 -0.0229,-0.0291 -0.0511,-0.0529 -0.0626,-0.0529 -0.0115,0 -0.045,-0.0286 -0.0744,-0.0635 -0.0294,-0.0349 -0.0661,-0.0635 -0.0817,-0.0635 -0.0155,0 -0.0552,-0.0222 -0.0881,-0.0493 -0.0329,-0.0271 -0.0765,-0.0554 -0.0969,-0.0628 -0.0204,-0.007 -0.037,-0.0233 -0.037,-0.0354 0,-0.012 -0.008,-0.0218 -0.0184,-0.0218 -0.0169,0 -0.0973,-0.0475 -0.53618,-0.31716 -0.085,-0.0522 -0.15767,-0.1022 -0.16155,-0.11112 -0.004,-0.009 -0.0154,-0.0162 -0.0255,-0.0162 -0.0102,0 -0.0641,-0.0267 -0.11994,-0.0592 -0.0558,-0.0326 -0.1336,-0.0723 -0.17286,-0.0883 -0.10234,-0.0417 -0.38736,-0.23294 -0.43286,-0.29049 -0.0212,-0.0268 -0.0571,-0.0488 -0.0798,-0.0488 -0.0529,0 -0.1814,-0.0823 -0.2622,-0.16788 -0.0347,-0.0368 -0.10452,-0.0876 -0.15518,-0.11285 -0.0507,-0.0253 -0.10119,-0.063 -0.1123,-0.0837 -0.0111,-0.0207 -0.0344,-0.0377 -0.0519,-0.0377 -0.0174,0 -0.0369,-0.0137 -0.0434,-0.0306 -0.006,-0.0168 -0.0466,-0.049 -0.0893,-0.0715 -0.21715,-0.11461 -0.21482,-0.11295 -0.4367,-0.3107 -0.0522,-0.0466 -0.11665,-0.0903 -0.1431,-0.0971 -0.0265,-0.007 -0.0457,-0.0235 -0.0428,-0.037 0.003,-0.0135 -0.009,-0.0246 -0.0254,-0.0246 -0.0169,0 -0.0383,-0.0132 -0.0476,-0.0294 -0.009,-0.0162 -0.0598,-0.0647 -0.11218,-0.10786 -0.20626,-0.17 -0.33867,-0.29409 -0.33867,-0.31739 0,-0.0134 -0.0562,-0.0833 -0.12494,-0.15533 -0.0918,-0.0962 -0.13984,-0.13089 -0.18115,-0.13089 -0.0358,0 -0.087,-0.0289 -0.14101,-0.0794 -0.11216,-0.10499 -0.12207,-0.1131 -0.21235,-0.17368 -0.0426,-0.0286 -0.0924,-0.0773 -0.1107,-0.10836 -0.0183,-0.031 -0.0621,-0.0683 -0.0973,-0.0829 -0.0351,-0.0146 -0.0639,-0.0399 -0.0639,-0.0563 0,-0.0164 -0.0167,-0.0362 -0.037,-0.0441 -0.0625,-0.024 -0.17277,-0.1355 -0.23669,-0.23937 -0.0433,-0.0704 -0.0784,-0.10231 -0.12188,-0.11102 -0.0445,-0.009 -0.0804,-0.0427 -0.1324,-0.12477 -0.10934,-0.17256 -0.23654,-0.3348 -0.26249,-0.3348 -0.0292,0 -0.15727,-0.14221 -0.17314,-0.19221 -0.006,-0.0204 -0.0408,-0.0472 -0.0763,-0.0596 -0.0355,-0.0124 -0.0695,-0.0417 -0.0757,-0.0653 -0.006,-0.0235 -0.0181,-0.0428 -0.0266,-0.0428 -0.0436,0 -0.33945,-0.34757 -0.33945,-0.39883 0,-0.0135 -0.0136,-0.0245 -0.0302,-0.0245 -0.0166,0 -0.047,-0.0381 -0.0676,-0.0847 -0.0205,-0.0466 -0.0461,-0.0847 -0.0567,-0.0847 -0.0106,0 -0.0141,-0.0137 -0.008,-0.0303 0.008,-0.0206 -0.008,-0.0347 -0.0497,-0.0438 -0.0347,-0.008 -0.0671,-0.0317 -0.0746,-0.0554 -0.007,-0.023 -0.0457,-0.0743 -0.0853,-0.1139 -0.0419,-0.0419 -0.0628,-0.0776 -0.0501,-0.0855 0.0299,-0.0185 -0.017,-0.0733 -0.0627,-0.0733 -0.0319,0 -0.12407,-0.0764 -0.18507,-0.15335 -0.0133,-0.0168 -0.0466,-0.049 -0.0741,-0.0717 -0.0553,-0.0456 -0.10273,-0.11983 -0.10294,-0.161 -6e-5,-0.0147 -0.0288,-0.0431 -0.0639,-0.063 -0.0351,-0.0199 -0.0691,-0.0503 -0.0757,-0.0675 -0.0117,-0.0303 -0.0493,-0.076 -0.236,-0.2862 -0.0495,-0.0557 -0.09,-0.11063 -0.09,-0.12206 0,-0.0114 -0.0572,-0.0803 -0.127,-0.15302 -0.0699,-0.0727 -0.127,-0.14075 -0.127,-0.15116 0,-0.0104 -0.0524,-0.073 -0.11642,-0.13912 -0.064,-0.0661 -0.11641,-0.13134 -0.11641,-0.14496 0,-0.0136 -0.0244,-0.0477 -0.0542,-0.0757 -0.0298,-0.028 -0.0743,-0.0845 -0.0989,-0.12539 -0.1062,-0.17716 -0.21694,-0.33903 -0.23194,-0.33903 -0.009,0 -0.0601,-0.0666 -0.11377,-0.14806 -0.0536,-0.0814 -0.10682,-0.15379 -0.11817,-0.1608 -0.0113,-0.007 -0.0296,-0.0333 -0.0406,-0.0583 -0.011,-0.0251 -0.0534,-0.0884 -0.0944,-0.14082 -0.0409,-0.0524 -0.10043,-0.13524 -0.13221,-0.18411 -0.0352,-0.0541 -0.0794,-0.0938 -0.11306,-0.10159 -0.0753,-0.0173 -0.20722,0.0478 -0.22282,0.11002 -0.007,0.0268 -0.0255,0.0487 -0.0417,0.0487 -0.0162,0 -0.0295,0.0108 -0.0295,0.0241 0,0.0409 -0.0704,0.0803 -0.14817,0.0827 -0.0407,0.001 -0.0622,0.007 -0.0476,0.013 0.0489,0.0198 0.0308,0.13034 -0.0277,0.16865 -0.0866,0.0568 -0.17865,0.14939 -0.17917,0.18037 -2.6e-4,0.0157 -0.0311,0.0437 -0.0686,0.0622 -0.0375,0.0185 -0.10157,0.081 -0.1424,0.13889 -0.0775,0.10988 -0.19437,0.24476 -0.2618,0.30203 -0.0217,0.0184 -0.0507,0.043 -0.0644,0.0546 -0.0138,0.0116 -0.043,0.0313 -0.065,0.0437 -0.022,0.0124 -0.0502,0.0407 -0.0626,0.0628 -0.0283,0.0504 -0.41843,0.43189 -0.44244,0.43265 -0.0263,8.4e-4 -0.35273,0.33153 -0.35273,0.35734 0,0.0122 -0.0429,0.0517 -0.0953,0.0877 -0.0524,0.036 -0.0952,0.0808 -0.0952,0.0994 0,0.0186 -0.0482,0.0801 -0.10708,0.13657 -0.0589,0.0565 -0.10205,0.11079 -0.0959,0.12073 0.006,0.01 -0.0115,0.0284 -0.0393,0.041 -0.0277,0.0126 -0.056,0.0402 -0.0628,0.0613 -0.007,0.0211 -0.0411,0.0547 -0.0763,0.0746 -0.0352,0.02 -0.0712,0.0558 -0.08,0.0798 -0.0171,0.0462 -0.26843,0.27552 -0.30196,0.27552 -0.0109,0 -0.0198,0.0143 -0.0198,0.0318 0,0.0175 -0.0142,0.0317 -0.0316,0.0317 -0.0174,0 -0.0435,0.019 -0.058,0.0423 -0.0145,0.0233 -0.0348,0.0423 -0.045,0.0423 -0.0278,0 -0.18284,0.16539 -0.18352,0.19581 -3.3e-4,0.0145 -0.0289,0.0542 -0.0635,0.0882 -0.0346,0.034 -0.0629,0.0686 -0.0629,0.0771 0,0.008 -0.0237,0.0213 -0.0526,0.0285 -0.0322,0.008 -0.0576,0.0333 -0.0656,0.065 -0.007,0.0285 -0.0311,0.0576 -0.0532,0.0646 -0.0221,0.007 -0.0402,0.0223 -0.0402,0.0339 0,0.0117 -0.0738,0.092 -0.16404,0.17847 -0.0902,0.0865 -0.17108,0.16443 -0.17967,0.17318 -0.009,0.009 -0.0821,0.0847 -0.16331,0.16877 -0.0812,0.0841 -0.18134,0.16693 -0.22249,0.18412 -0.049,0.0205 -0.0748,0.0454 -0.0748,0.0721 0,0.0224 -0.0143,0.0527 -0.0317,0.0672 -0.0175,0.0145 -0.0318,0.0357 -0.0318,0.047 0,0.0243 -0.18928,0.20698 -0.21449,0.20698 -0.009,0 -0.0317,0.0279 -0.0493,0.062 -0.0176,0.0341 -0.0488,0.0673 -0.0693,0.0739 -0.0205,0.007 -0.0566,0.0521 -0.0803,0.10125 -0.0285,0.0592 -0.0606,0.0935 -0.0952,0.10165 -0.0288,0.007 -0.0648,0.0384 -0.0802,0.0703 -0.0154,0.0319 -0.113,0.14536 -0.21695,0.25212 -0.10396,0.10677 -0.18902,0.20191 -0.18902,0.21143 0,0.01 -0.0262,0.0286 -0.0582,0.0425 -0.11444,0.0495 -0.1893,0.12437 -0.22846,0.2286 -0.007,0.0178 -0.0402,0.0512 -0.0744,0.0741 -0.0342,0.0229 -0.0622,0.0525 -0.0622,0.0659 -4e-5,0.0133 -0.0145,0.0297 -0.0321,0.0365 -0.0176,0.007 -0.0412,0.0364 -0.0524,0.0658 -0.0112,0.0294 -0.0294,0.0535 -0.0406,0.0535 -0.0111,0 -0.0264,0.0194 -0.0339,0.0431 -0.008,0.0237 -0.0629,0.0945 -0.12313,0.15746 -0.25084,0.26209 -0.31072,0.33109 -0.34445,0.39692 -0.0195,0.0381 -0.0413,0.074 -0.0484,0.0799 -0.0288,0.0236 -0.10817,0.14802 -0.10817,0.16963 0,0.0127 -0.0291,0.0536 -0.0646,0.0908 -0.0664,0.0696 -0.21057,0.29772 -0.21057,0.3333 0,0.011 -0.0327,0.0561 -0.0726,0.10031 -0.0399,0.0442 -0.0793,0.10851 -0.0875,0.14294 -0.008,0.0344 -0.0318,0.0816 -0.0524,0.10493 -0.0206,0.0233 -0.0496,0.0852 -0.0644,0.13759 -0.0148,0.0524 -0.0395,0.11028 -0.0549,0.12866 -0.0155,0.0184 -0.0281,0.0535 -0.0281,0.078 0,0.0245 -0.0247,0.14285 -0.0549,0.26292 -0.0302,0.12006 -0.06,0.24052 -0.0663,0.26766 -0.006,0.0272 -0.0268,0.0548 -0.0457,0.0614 -0.0505,0.0177 -0.12949,0.0937 -0.12949,0.12455 0,0.0484 -0.0405,0.0531 -0.0782,0.009 -0.0204,-0.0238 -0.0477,-0.0432 -0.0608,-0.0432 -0.0131,0 -0.0543,-0.0152 -0.0917,-0.0339 -0.0558,-0.0279 -0.0787,-0.0293 -0.12925,-0.008 -0.0523,0.0217 -0.0701,0.0195 -0.12059,-0.0147 -0.0326,-0.0221 -0.10523,-0.0518 -0.16147,-0.066 -0.10709,-0.0271 -0.3092,-0.15293 -0.44078,-0.27435 -0.0543,-0.0501 -0.089,-0.10922 -0.11641,-0.19838 -0.0329,-0.10706 -0.0498,-0.13156 -0.10784,-0.15612 -0.0762,-0.0323 -0.0935,-0.10383 -0.0353,-0.14639 0.0223,-0.0163 0.0335,-0.0576 0.0335,-0.12388 0,-0.0547 0.008,-0.10429 0.0176,-0.11028 0.01,-0.006 0.015,-0.0437 0.0118,-0.0839 -0.003,-0.0401 0.005,-0.11388 0.0178,-0.16389 0.0283,-0.10886 0.11549,-0.29201 0.13902,-0.29201 0.009,0 0.0274,-0.0421 0.0403,-0.0935 0.0129,-0.0514 0.0462,-0.12045 0.0738,-0.15346 0.0277,-0.033 0.0715,-0.10934 0.0974,-0.16962 0.0259,-0.0603 0.0652,-0.12606 0.0874,-0.14616 0.0222,-0.0201 0.0404,-0.0456 0.0404,-0.0567 0,-0.0111 0.0238,-0.0389 0.0529,-0.0618 0.0291,-0.0229 0.0529,-0.0603 0.0529,-0.0831 0,-0.0248 0.029,-0.0586 0.072,-0.084 0.0396,-0.0234 0.0779,-0.0659 0.0851,-0.0945 0.007,-0.0286 0.0272,-0.0521 0.0444,-0.0521 0.0172,0 0.0314,-0.0136 0.0314,-0.0303 0,-0.0167 0.019,-0.0364 0.0423,-0.0438 0.0347,-0.011 0.0423,-0.032 0.0423,-0.11642 0,-0.0883 0.007,-0.10511 0.0476,-0.11793 0.0758,-0.0238 0.13612,-0.103 0.13808,-0.18123 0.001,-0.0557 0.021,-0.0884 0.0897,-0.14978 0.0484,-0.0432 0.0826,-0.0872 0.0761,-0.0977 -0.007,-0.0105 0.007,-0.0365 0.0307,-0.0577 0.0234,-0.0212 0.0382,-0.05 0.0328,-0.0641 -0.005,-0.014 0.0371,-0.0575 0.0945,-0.0966 0.0573,-0.0391 0.10428,-0.0813 0.1043,-0.0938 6e-5,-0.0332 0.0862,-0.10856 0.15309,-0.13389 0.0392,-0.0149 0.0538,-0.0323 0.0454,-0.0543 -0.008,-0.0199 -6.2e-4,-0.0324 0.0182,-0.0324 0.0169,0 0.0488,-0.0357 0.0711,-0.0794 0.0469,-0.0923 0.0816,-0.12574 0.16208,-0.15651 0.032,-0.0122 0.0582,-0.0352 0.0582,-0.0509 0,-0.0158 0.0341,-0.0449 0.0758,-0.0647 0.0417,-0.0198 0.0851,-0.056 0.0963,-0.0804 0.0113,-0.0244 0.0436,-0.0825 0.0719,-0.12904 0.0283,-0.0466 0.0581,-0.099 0.0663,-0.11642 0.0223,-0.0475 0.12034,-0.14813 0.14463,-0.14843 0.0117,-1.5e-4 0.062,-0.0381 0.11186,-0.0844 0.0498,-0.0463 0.11324,-0.0898 0.14088,-0.0968 0.0276,-0.007 0.0565,-0.0332 0.0643,-0.0584 0.009,-0.0282 0.0182,-0.0357 0.0249,-0.0194 0.006,0.0146 0.0268,0.0263 0.0462,0.0261 0.0282,-2.6e-4 0.0295,-0.004 0.006,-0.0188 -0.0528,-0.0335 -0.0461,-0.12516 0.0127,-0.17135 0.0296,-0.0233 0.0667,-0.0424 0.0823,-0.0424 0.0156,0 0.0431,-0.0286 0.0612,-0.0635 0.0181,-0.0349 0.0469,-0.0635 0.064,-0.0635 0.0172,0 0.0312,-0.0143 0.0312,-0.0318 0,-0.0175 0.008,-0.0317 0.0174,-0.0317 0.01,0 0.0388,-0.0429 0.065,-0.0953 0.0294,-0.0589 0.0618,-0.0952 0.0849,-0.0952 0.0524,0 0.0693,-0.0229 0.0416,-0.0563 -0.0189,-0.0227 -0.0104,-0.0284 0.0425,-0.0284 0.052,0 0.0661,-0.009 0.0661,-0.0423 0,-0.0233 0.007,-0.0424 0.0159,-0.0424 0.009,-4e-5 0.0346,-0.028 0.0575,-0.0622 0.0229,-0.0342 0.0589,-0.0667 0.08,-0.0722 0.0211,-0.006 0.036,-0.018 0.0332,-0.0277 -0.008,-0.0279 0.0536,-0.11295 0.0818,-0.11295 0.0564,0 0.17696,-0.0915 0.19024,-0.14448 0.0148,-0.059 0.0843,-0.12882 0.12934,-0.12998 0.0149,-3.9e-4 0.0326,-0.015 0.0393,-0.0325 0.007,-0.0175 0.0281,-0.0317 0.0476,-0.0317 0.0379,0 0.089,-0.0509 0.13097,-0.13062 0.0143,-0.0271 0.0358,-0.0557 0.0478,-0.0635 0.012,-0.008 0.0241,-0.0295 0.0268,-0.0483 0.009,-0.0584 0.16342,-0.24445 0.20341,-0.24445 0.0234,0 0.038,-0.0157 0.038,-0.0409 0,-0.0285 0.0171,-0.043 0.0561,-0.0476 0.0308,-0.004 0.0666,-0.0258 0.0794,-0.049 0.0128,-0.0233 0.0281,-0.0471 0.0339,-0.0529 0.006,-0.006 0.0327,-0.0558 0.0597,-0.11113 0.0273,-0.0559 0.0649,-0.10193 0.0846,-0.10367 0.0196,-0.002 0.0525,-0.004 0.0733,-0.005 0.0411,-0.002 0.0823,-0.0533 0.0653,-0.0808 -0.006,-0.009 0.0186,-0.023 0.0543,-0.0301 0.0418,-0.008 0.0649,-0.0258 0.0649,-0.0488 0,-0.0365 0.09,-0.12817 0.12591,-0.12817 0.0331,0 0.0484,-0.0426 0.0253,-0.0704 -0.012,-0.0144 -0.0152,-0.0354 -0.007,-0.0467 0.0259,-0.0361 0.1388,-0.10782 0.2407,-0.15288 0.0818,-0.0362 0.097,-0.0515 0.0875,-0.088 -0.008,-0.0314 -0.002,-0.0442 0.0227,-0.0442 0.0188,0 0.0354,-0.01 0.0369,-0.0212 0.001,-0.0116 0.004,-0.0331 0.005,-0.0476 0.001,-0.0145 0.0256,-0.0297 0.0536,-0.0336 0.028,-0.004 0.0684,-0.0278 0.0898,-0.0529 0.0943,-0.11104 0.13369,-0.17342 0.12858,-0.20368 -0.003,-0.0187 0.0208,-0.0442 0.0565,-0.06 0.10362,-0.0458 0.23769,-0.15238 0.22252,-0.17694 -0.016,-0.0258 0.1269,-0.16607 0.16913,-0.16607 0.0149,0 0.038,-0.0238 0.0513,-0.0529 0.0173,-0.038 0.0175,-0.0529 8.1e-4,-0.0529 -0.0156,0 -0.0146,-0.0105 0.003,-0.0318 0.0145,-0.0175 0.0466,-0.0321 0.0714,-0.0324 0.06,-8.9e-4 0.10511,-0.0377 0.14815,-0.12103 0.0196,-0.0378 0.0448,-0.0688 0.0562,-0.0688 0.0113,0 0.0206,-0.0175 0.0206,-0.039 0,-0.0228 0.0305,-0.0554 0.0732,-0.0785 0.0403,-0.0217 0.0697,-0.043 0.0653,-0.0474 -0.0118,-0.0118 0.0602,-0.0796 0.10123,-0.0954 0.0195,-0.007 0.0354,-0.0234 0.0354,-0.0354 0,-0.0359 0.0849,-0.0247 0.13979,0.0184 0.0656,0.0516 0.13538,0.0356 0.13538,-0.0311 0,-0.0272 0.0129,-0.057 0.0287,-0.0663 0.0523,-0.0309 0.0796,-0.10495 0.0483,-0.13094 -0.0154,-0.0128 -0.0342,-0.0169 -0.0419,-0.009 -0.008,0.008 -0.0139,-0.009 -0.0139,-0.0375 0,-0.0313 0.0223,-0.0679 0.057,-0.0935 0.0314,-0.0231 0.0718,-0.0599 0.09,-0.0818 0.0181,-0.0218 0.0758,-0.0674 0.12818,-0.10126 0.0524,-0.0339 0.0929,-0.066 0.09,-0.0714 -0.003,-0.005 -0.005,-0.0265 -0.005,-0.0469 2.8e-4,-0.0317 0.003,-0.0324 0.0209,-0.005 0.0182,0.0282 0.0206,0.0282 0.0212,0 5.8e-4,-0.0282 0.003,-0.0282 0.0212,0 0.0168,0.0259 0.0206,0.0234 0.0208,-0.0136 1.7e-4,-0.0249 -0.0143,-0.051 -0.0322,-0.0578 -0.0291,-0.0112 -0.0291,-0.019 5.4e-4,-0.0764 0.0182,-0.0351 0.0423,-0.0639 0.0537,-0.0639 0.0309,0 0.18336,-0.15852 0.21779,-0.22641 0.0394,-0.0777 0.0313,-0.1166 -0.0442,-0.21265 -0.0691,-0.0879 -0.13179,-0.20175 -0.13179,-0.23925 0,-0.0133 -0.0214,-0.0543 -0.0476,-0.091 -0.0262,-0.0367 -0.0484,-0.0715 -0.0495,-0.0774 -0.006,-0.0322 -0.0431,-0.10302 -0.084,-0.15875 -0.0256,-0.0349 -0.0971,-0.16589 -0.15883,-0.29104 -0.0617,-0.12515 -0.12006,-0.22754 -0.12961,-0.22754 -0.01,0 -0.0174,-0.0114 -0.0174,-0.0253 0,-0.0139 -0.0222,-0.0496 -0.0493,-0.0794 -0.0271,-0.0298 -0.0757,-0.11458 -0.10799,-0.18852 -0.0323,-0.0739 -0.0768,-0.15253 -0.0989,-0.17463 -0.0221,-0.0221 -0.041,-0.0616 -0.0419,-0.0878 -9.3e-4,-0.0262 -0.0237,-0.0857 -0.0506,-0.1323 -0.0269,-0.0466 -0.0777,-0.14204 -0.11304,-0.21217 -0.0353,-0.0701 -0.084,-0.14542 -0.10818,-0.16732 -0.0242,-0.0219 -0.044,-0.0583 -0.044,-0.0809 0,-0.0226 -0.0174,-0.0664 -0.0386,-0.0973 -0.0213,-0.0309 -0.051,-0.0871 -0.0661,-0.12498 -0.0151,-0.0378 -0.0358,-0.0688 -0.046,-0.0688 -0.0102,0 -0.0186,-0.011 -0.0186,-0.0244 0,-0.0134 -0.0274,-0.0825 -0.0608,-0.15346 -0.0334,-0.071 -0.0674,-0.15935 -0.0754,-0.19638 -0.008,-0.037 -0.0273,-0.0778 -0.0427,-0.0906 -0.0483,-0.0401 -0.30787,-0.58732 -0.30787,-0.64901 0,-0.016 -0.007,-0.0291 -0.0165,-0.0291 -0.009,0 -0.0432,-0.0643 -0.0759,-0.14288 -0.0327,-0.0786 -0.0697,-0.16669 -0.0823,-0.19579 -0.0126,-0.0291 -0.0262,-0.0715 -0.0304,-0.0941 -0.004,-0.0227 -0.0208,-0.056 -0.0369,-0.0741 -0.0161,-0.0181 -0.0407,-0.0756 -0.0546,-0.12788 -0.0139,-0.0523 -0.0481,-0.13792 -0.076,-0.19034 -0.0279,-0.0524 -0.0507,-0.11077 -0.0507,-0.12966 0,-0.0189 -0.019,-0.0586 -0.0423,-0.0882 -0.0233,-0.0296 -0.0423,-0.0682 -0.0423,-0.0858 0,-0.0176 -0.0137,-0.0589 -0.0304,-0.0919 -0.0167,-0.033 -0.0605,-0.1266 -0.0972,-0.20809 -0.0367,-0.0815 -0.0802,-0.17345 -0.0966,-0.20435 -0.0164,-0.0309 -0.0298,-0.0838 -0.0298,-0.11748 0,-0.0337 -0.009,-0.0703 -0.0194,-0.0814 -0.0107,-0.0111 -0.0537,-0.12488 -0.0957,-0.25294 -0.042,-0.12806 -0.0939,-0.26617 -0.1154,-0.30692 -0.0426,-0.0807 -0.065,-0.17109 -0.0784,-0.31539 -0.005,-0.0512 -0.0328,-0.14264 -0.0624,-0.20313 -0.0296,-0.0605 -0.0636,-0.17574 -0.0755,-0.25611 -0.0119,-0.0804 -0.0353,-0.17613 -0.052,-0.21282 -0.0167,-0.0367 -0.0303,-0.0963 -0.0303,-0.13257 0,-0.0362 -0.009,-0.0824 -0.0199,-0.10264 -0.011,-0.0202 -0.0357,-0.0939 -0.055,-0.16375 -0.0193,-0.0699 -0.0443,-0.14664 -0.0556,-0.17064 -0.0113,-0.024 -0.0235,-0.0764 -0.0271,-0.11641 -0.004,-0.04 -0.0181,-0.10136 -0.032,-0.13629 -0.0247,-0.0617 -0.0352,-0.12937 -0.0578,-0.37041 -0.006,-0.064 -0.0215,-0.12303 -0.0345,-0.13111 -0.0134,-0.008 -0.0226,-0.0678 -0.0214,-0.13759 0.001,-0.0676 -0.007,-0.13382 -0.0173,-0.14718 -0.0363,-0.0452 -0.0793,-0.29182 -0.10119,-0.58043 -0.009,-0.12305 -0.0282,-0.24469 -0.0419,-0.27031 -0.0137,-0.0256 -0.0197,-0.0551 -0.0132,-0.0656 0.006,-0.0104 0.003,-0.065 -0.008,-0.12127 -0.0111,-0.0563 -0.0253,-0.16423 -0.0314,-0.2399 -0.0103,-0.12651 -0.0257,-0.23098 -0.0719,-0.48683 -0.009,-0.0524 -0.027,-0.1143 -0.0389,-0.13758 -0.012,-0.0233 -0.0227,-0.15122 -0.0237,-0.2843 -0.002,-0.22697 0.001,-0.24576 0.0496,-0.30325 0.0284,-0.0337 0.0516,-0.0701 0.0516,-0.0808 0,-0.0108 0.0119,-0.0199 0.0265,-0.0202 0.0351,-9.4e-4 0.12171,-0.0741 0.12171,-0.10283 0,-0.0125 0.0214,-0.0267 0.0476,-0.0317 0.0262,-0.005 0.0905,-0.0176 0.14288,-0.028 0.14023,-0.0278 0.26898,-0.0109 0.28151,0.037 0.006,0.0215 0.0422,0.0526 0.0813,0.0692 0.0391,0.0166 0.0978,0.0553 0.1304,0.0859 0.0326,0.0306 0.082,0.0557 0.10981,0.0557 0.0278,0 0.0821,0.0295 0.12062,0.0655 0.0386,0.0361 0.1082,0.0836 0.15477,0.10556 0.0466,0.022 0.10371,0.0521 0.127,0.0668 0.0233,0.0147 0.0458,0.0286 0.05,0.0308 0.004,0.002 0.0102,0.0309 0.0133,0.0635 0.003,0.0327 0.0163,0.0862 0.0294,0.11896 0.0131,0.0328 0.0238,0.0655 0.0238,0.0727 0,0.007 0.0174,0.0328 0.0386,0.0568 0.0212,0.024 0.0638,0.10136 0.0946,0.17185 0.0585,0.13406 0.0563,0.11035 0.0879,0.93153 0.003,0.0822 0.0129,0.19654 0.0217,0.254 0.0188,0.12334 0.0281,0.20421 0.045,0.39014 0.007,0.0756 0.0186,0.14706 0.026,0.15875 0.0185,0.0289 0.0546,0.33306 0.0747,0.62883 0.006,0.0897 0.0206,0.18083 0.0322,0.20254 0.0116,0.0217 0.0208,0.0674 0.0204,0.10151 -4.1e-4,0.0341 0.0146,0.10401 0.0333,0.1553 0.0187,0.0513 0.0295,0.0978 0.024,0.10333 -0.006,0.006 -5.4e-4,0.0279 0.0111,0.0496 0.0117,0.0217 0.0263,0.0896 0.0324,0.15067 0.006,0.0611 0.0292,0.17304 0.0512,0.24871 0.0219,0.0757 0.0502,0.20308 0.0629,0.28313 0.0126,0.08 0.0384,0.18007 0.0573,0.22225 0.0189,0.0422 0.0363,0.0838 0.0388,0.0926 0.003,0.009 0.007,0.0182 0.009,0.0212 0.004,0.005 0.007,0.0197 0.0352,0.16404 0.008,0.0408 0.0262,0.0931 0.0408,0.11642 0.0146,0.0233 0.0332,0.0757 0.0413,0.11642 0.0203,0.10182 0.0681,0.25608 0.1377,0.4445 0.0323,0.0873 0.0714,0.20161 0.087,0.254 0.0156,0.0524 0.0545,0.14964 0.0865,0.21613 0.032,0.0665 0.063,0.14738 0.0688,0.17976 0.006,0.0324 0.0204,0.0621 0.0323,0.0661 0.0119,0.004 0.0216,0.0208 0.0216,0.0373 0,0.0165 0.0238,0.0795 0.0529,0.13978 0.0291,0.0603 0.0529,0.12579 0.0529,0.14547 0,0.0197 0.0142,0.0476 0.0315,0.062 0.0193,0.016 0.0268,0.0449 0.0195,0.0743 -0.008,0.0328 0.002,0.0613 0.0326,0.0897 0.0246,0.0229 0.0485,0.0597 0.0531,0.0818 0.005,0.0221 0.0282,0.0802 0.0523,0.12913 0.0241,0.0489 0.0438,0.0993 0.0438,0.11197 0,0.0127 0.0203,0.0628 0.0451,0.11133 0.0689,0.13502 0.16647,0.38201 0.16655,0.42154 4e-5,0.0194 0.008,0.0385 0.0166,0.0423 0.0157,0.007 0.11303,0.20013 0.15799,0.31397 0.0115,0.0291 0.0302,0.0709 0.0416,0.0929 0.0114,0.022 0.0344,0.086 0.0511,0.14217 0.0167,0.0562 0.0429,0.10965 0.0582,0.11877 0.047,0.028 0.0996,0.12522 0.0864,0.15963 -0.007,0.0179 -0.002,0.0389 0.0101,0.0466 0.0124,0.008 0.0226,0.0318 0.0226,0.0536 0,0.0218 0.0177,0.0453 0.0393,0.0521 0.0216,0.007 0.0571,0.0528 0.0788,0.10196 0.0217,0.0492 0.0728,0.14664 0.11362,0.21649 0.0721,0.12358 0.14221,0.28845 0.16472,0.38758 0.006,0.0269 0.0337,0.0637 0.0613,0.0818 0.0276,0.0181 0.0502,0.042 0.0502,0.0531 0,0.0111 0.0287,0.062 0.0638,0.11299 0.0351,0.051 0.0618,0.10037 0.0593,0.10965 -0.008,0.0288 0.1983,0.4316 0.24129,0.47166 0.023,0.0214 0.0587,0.0332 0.0819,0.0271 0.0314,-0.008 0.038,-0.003 0.028,0.0235 -0.007,0.0189 -0.008,0.0489 -6.9e-4,0.0668 0.0111,0.0291 0.0194,0.0289 0.0778,-0.001 0.0525,-0.0271 0.0605,-0.0397 0.0408,-0.0635 -0.0195,-0.0235 -0.0125,-0.0408 0.0333,-0.0833 0.0319,-0.0295 0.0501,-0.0537 0.0406,-0.0537 -0.01,0 0.005,-0.0238 0.0324,-0.0529 0.0273,-0.0291 0.0418,-0.0529 0.0322,-0.0529 -0.01,0 -3.1e-4,-0.019 0.0208,-0.0423 0.0461,-0.0509 0.14861,-0.0593 0.12993,-0.0106 -0.007,0.0175 -0.007,0.0317 -2e-5,0.0317 0.019,0 0.10353,-0.11371 0.0978,-0.13151 -0.003,-0.009 0.0182,-0.0218 0.0469,-0.029 0.0286,-0.007 0.0578,-0.0312 0.0648,-0.0533 0.007,-0.0221 0.0253,-0.0402 0.0407,-0.0402 0.0153,0 0.0439,-0.0245 0.0635,-0.0543 0.0291,-0.0444 0.0307,-0.0602 0.009,-0.0867 -0.0221,-0.0267 -0.0205,-0.0359 0.009,-0.0526 0.0198,-0.0111 0.036,-0.0341 0.036,-0.0512 0,-0.0171 0.0341,-0.0473 0.0758,-0.0672 0.0643,-0.0307 0.0745,-0.0449 0.0673,-0.0941 -0.009,-0.0608 0.0199,-0.0861 0.10034,-0.0881 0.0233,-5.8e-4 0.0852,-0.0419 0.13758,-0.0918 0.0524,-0.0499 0.10716,-0.0909 0.12171,-0.091 0.0391,-3.7e-4 0.0321,-0.057 -0.009,-0.0728 -0.0319,-0.0122 -0.0313,-0.0165 0.006,-0.0428 0.0229,-0.0161 0.0691,-0.0324 0.10257,-0.0363 0.0784,-0.009 0.0923,-0.051 0.0227,-0.0685 -0.0717,-0.018 -0.0688,-0.0549 0.004,-0.0554 0.0572,-3.2e-4 0.15017,-0.041 0.0953,-0.0417 -0.0407,-5e-4 -0.0314,-0.0383 0.013,-0.0523 0.0217,-0.007 0.0482,-0.0432 0.0589,-0.0808 0.0164,-0.0575 0.0309,-0.0694 0.0915,-0.0752 0.0528,-0.005 0.0639,-0.012 0.0417,-0.0261 -0.0211,-0.0134 -0.0223,-0.0193 -0.004,-0.0195 0.0145,-1.7e-4 0.0264,-0.0194 0.0264,-0.0426 0,-0.0427 0.002,-0.0433 0.1716,-0.0517 0.0303,-0.002 0.0715,-0.0191 0.0915,-0.039 0.0343,-0.0343 0.0339,-0.0363 -0.008,-0.0363 -0.0458,0 -0.0603,-0.0508 -0.0214,-0.0749 0.0124,-0.008 0.0312,-0.0368 0.0418,-0.0647 0.0174,-0.0458 0.0748,-0.0658 0.1529,-0.0533 0.009,10e-4 0.004,-0.0165 -0.0104,-0.0398 -0.0146,-0.0233 -0.0456,-0.0426 -0.069,-0.0427 -0.0352,-2.7e-4 -0.0371,-0.004 -0.0108,-0.0208 0.0175,-0.0113 0.0664,-0.0207 0.10883,-0.0208 0.0648,-2.7e-4 0.0792,-0.009 0.0906,-0.0542 0.007,-0.0296 0.008,-0.0622 0.002,-0.0724 -0.006,-0.0102 0.0125,-0.0373 0.0417,-0.0603 0.0292,-0.023 0.0531,-0.052 0.0531,-0.0644 0,-0.0311 0.071,-0.0665 0.13363,-0.0665 0.0615,0 0.1264,-0.11828 0.0804,-0.14669 -0.0413,-0.0255 0.0391,-0.1428 0.12449,-0.18163 0.048,-0.0218 0.0963,-0.0707 0.13679,-0.13846 0.0344,-0.0576 0.0749,-0.10472 0.09,-0.10472 0.0151,0 0.0274,-0.008 0.0274,-0.0171 0,-0.009 0.0255,-0.0479 0.0567,-0.0855 0.0312,-0.0376 0.0672,-0.0895 0.08,-0.11521 0.0128,-0.0257 0.035,-0.048 0.0492,-0.0494 0.0142,-0.001 0.0412,-0.004 0.0601,-0.005 0.0245,-0.002 0.0314,-0.0174 0.0243,-0.0543 -0.008,-0.0417 0.002,-0.0567 0.053,-0.0777 0.0346,-0.0143 0.0736,-0.0514 0.0868,-0.0825 0.0132,-0.031 0.0807,-0.10607 0.15008,-0.16673 0.0694,-0.0607 0.13769,-0.1377 0.15178,-0.1712 0.0182,-0.0433 0.0429,-0.0629 0.0855,-0.0678 0.0448,-0.005 0.0653,-0.0229 0.0813,-0.0704 0.0344,-0.10204 0.0932,-0.17515 0.15971,-0.19832 0.0408,-0.0142 0.0579,-0.032 0.0502,-0.0521 -0.007,-0.0189 0.0151,-0.049 0.0584,-0.0788 0.0845,-0.0582 0.44055,-0.41799 0.44055,-0.44524 0,-0.0106 0.0184,-0.0193 0.0409,-0.0193 0.0225,0 0.0469,-0.0191 0.0543,-0.0423 0.007,-0.0233 0.0237,-0.0423 0.0363,-0.0423 0.0126,0 0.0795,-0.0572 0.14868,-0.127 0.0692,-0.0698 0.14026,-0.127 0.1579,-0.127 0.0197,0 0.0274,-0.0122 0.02,-0.0315 -0.007,-0.0179 0.0105,-0.0542 0.0401,-0.0837 0.0287,-0.0287 0.0522,-0.0621 0.0522,-0.0743 0,-0.0122 0.028,-0.0221 0.0622,-0.0221 0.0662,0 0.10406,-0.0315 0.0596,-0.0495 -0.0439,-0.0178 0.0294,-0.0564 0.082,-0.0432 0.0609,0.0153 0.0854,-0.0297 0.0364,-0.0668 -0.0366,-0.0278 -0.0354,-0.0297 0.019,-0.0303 0.0502,-5.8e-4 0.0582,-0.009 0.0582,-0.0631 0,-0.0343 0.0124,-0.0701 0.0276,-0.0794 0.0152,-0.009 0.0829,-0.086 0.15055,-0.17039 0.0676,-0.0844 0.1314,-0.15346 0.14173,-0.15346 0.0103,0 0.0188,-0.019 0.0188,-0.0423 0,-0.0233 0.01,-0.0423 0.0219,-0.0423 0.0285,0 0.16863,-0.14017 0.16863,-0.16863 0,-0.012 0.0169,-0.0219 0.0376,-0.0219 0.0361,0 0.11054,-0.068 0.11054,-0.10099 0,-0.009 0.019,-0.0277 0.0423,-0.0423 0.0233,-0.0145 0.0423,-0.0383 0.0423,-0.0528 0,-0.0145 0.0333,-0.0542 0.0741,-0.0882 0.0407,-0.034 0.0741,-0.0737 0.0741,-0.0882 0,-0.0146 0.0293,-0.0486 0.0651,-0.0757 0.10846,-0.0821 0.23127,-0.20324 0.23127,-0.22816 0,-0.0129 0.0143,-0.029 0.0318,-0.0357 0.0175,-0.007 0.0317,-0.0237 0.0317,-0.0377 0,-0.0335 0.12984,-0.12965 0.16465,-0.12197 0.0181,0.004 0.0239,-0.0113 0.0176,-0.0464 -0.006,-0.034 0.002,-0.0567 0.0228,-0.0648 0.0177,-0.007 0.0271,-0.0259 0.0207,-0.0424 -0.007,-0.0193 0.032,-0.0619 0.11044,-0.11938 0.0671,-0.0491 0.13323,-0.11408 0.14697,-0.14437 0.0486,-0.10722 0.14263,-0.19266 0.21194,-0.19266 0.0579,0 0.0666,-0.008 0.0793,-0.0759 0.0112,-0.0594 0.0225,-0.0737 0.0524,-0.0659 0.0251,0.007 0.0384,-0.002 0.0389,-0.0247 0.002,-0.0956 0.019,-0.13115 0.0887,-0.18651 0.13427,-0.10664 0.25216,-0.22649 0.25216,-0.25635 0,-0.016 0.0393,-0.0688 0.0872,-0.11735 0.048,-0.0486 0.14321,-0.16155 0.21166,-0.25109 0.0685,-0.0895 0.13416,-0.16879 0.14603,-0.17612 0.0119,-0.007 0.0445,-0.0579 0.0726,-0.11238 0.0281,-0.0545 0.0755,-0.12482 0.10543,-0.15632 0.0299,-0.0315 0.0544,-0.0677 0.0544,-0.0803 0,-0.0127 0.0233,-0.0463 0.0517,-0.0748 0.0284,-0.0284 0.11618,-0.14469 0.19497,-0.25833 0.0788,-0.11364 0.15899,-0.21814 0.17821,-0.23223 0.0192,-0.0141 0.0469,-0.0546 0.0616,-0.09 0.0147,-0.0354 0.0398,-0.0643 0.0558,-0.0643 0.0161,0 0.0292,-0.0134 0.0292,-0.0298 0,-0.0164 0.0548,-0.0876 0.1217,-0.15831 0.0669,-0.0707 0.14553,-0.15878 0.17463,-0.19571 0.0291,-0.0369 0.0769,-0.0919 0.10624,-0.12215 0.0542,-0.0559 0.0994,-0.13504 0.11012,-0.19258 0.003,-0.0175 0.0488,-0.0755 0.10114,-0.12888 0.10369,-0.10574 0.1905,-0.21856 0.1905,-0.24757 0,-0.0101 0.0223,-0.0393 0.0495,-0.0649 0.0884,-0.083 0.24681,-0.33355 0.24681,-0.39028 0,-0.0302 0.0171,-0.0675 0.038,-0.0827 0.0209,-0.0152 0.054,-0.061 0.0736,-0.10174 0.0196,-0.0408 0.0739,-0.1021 0.12074,-0.13635 0.0468,-0.0342 0.0851,-0.0747 0.0851,-0.09 0,-0.0152 0.007,-0.0277 0.0159,-0.0278 0.009,-7e-5 0.0321,-0.0286 0.0519,-0.0634 0.0321,-0.0563 0.042,-0.0609 0.0913,-0.0422 0.0304,0.0116 0.14898,0.021 0.26341,0.021 0.19406,0 0.21143,0.004 0.25792,0.0525 0.0274,0.0289 0.0618,0.0527 0.0763,0.0529 0.0146,2.1e-4 0.0265,0.01 0.0265,0.0215 0,0.0117 0.0119,0.0214 0.0265,0.0217 0.0493,9.2e-4 0.18621,0.14159 0.17253,0.17726 -0.0172,0.0449 0.0337,0.0621 0.10428,0.0353 0.0362,-0.0137 0.0566,-0.0141 0.0566,-8.6e-4 0,0.0114 0.019,0.0206 0.0423,0.0206 0.0233,0 0.0423,0.008 0.0423,0.0187 0,0.0103 0.02,0.0239 0.0445,0.0303 0.0245,0.006 0.0385,0.0213 0.0312,0.0332 -0.007,0.0118 0.005,0.0315 0.0279,0.0436 0.0227,0.0121 0.0473,0.0531 0.0548,0.091 0.0194,0.0982 0.0545,0.187 0.10027,0.25345 0.0397,0.0577 0.10065,0.2353 0.11462,0.3341 0.004,0.0291 -0.0125,0.13586 -0.0369,0.23723 -0.0467,0.19403 -0.11226,0.29332 -0.22104,0.33468 -0.0288,0.0109 -0.0518,0.0368 -0.0518,0.0582 0,0.0422 -0.16883,0.21017 -0.25722,0.25593 -0.0306,0.0158 -0.066,0.0515 -0.0787,0.0794 -0.0127,0.0278 -0.0328,0.0506 -0.0447,0.0506 -0.0119,0 -0.0216,0.0105 -0.0216,0.0233 0,0.0128 -0.044,0.0676 -0.0978,0.1217 -0.0538,0.0541 -0.12011,0.1334 -0.14739,0.17614 -0.0273,0.0427 -0.0778,0.0944 -0.11222,0.11471 -0.0344,0.0203 -0.0751,0.0616 -0.0904,0.0916 -0.0392,0.0769 -0.11002,0.18027 -0.12949,0.18885 -0.009,0.004 -0.03,0.0397 -0.0465,0.0794 -0.0166,0.0397 -0.0393,0.0721 -0.0504,0.0721 -0.0111,0 -0.0464,0.0452 -0.0783,0.10054 -0.0319,0.0553 -0.0712,0.11483 -0.0873,0.13229 -0.016,0.0175 -0.0861,0.0919 -0.15558,0.16539 -0.0695,0.0735 -0.12642,0.14224 -0.12642,0.15275 0,0.027 -0.13288,0.16862 -0.1586,0.16905 -0.0322,5.2e-4 -0.19332,0.1742 -0.20979,0.22611 -0.008,0.025 -0.0438,0.0742 -0.0797,0.10929 -0.0359,0.0351 -0.076,0.0824 -0.089,0.10518 -0.0131,0.0228 -0.0785,0.10854 -0.14548,0.19066 -0.0669,0.0821 -0.1217,0.15935 -0.1217,0.17161 0,0.0123 -0.009,0.0223 -0.0203,0.0223 -0.0187,0 -0.10103,0.0839 -0.23368,0.23827 -0.0291,0.0339 -0.0837,0.0907 -0.12122,0.12627 -0.0376,0.0356 -0.0733,0.08 -0.0793,0.0988 -0.006,0.0188 -0.0398,0.0504 -0.0749,0.0704 -0.0352,0.0199 -0.0704,0.053 -0.0782,0.0735 -0.008,0.0205 -0.0483,0.0708 -0.0898,0.1119 -0.0415,0.0411 -0.12779,0.13579 -0.19172,0.21052 -0.0639,0.0747 -0.30435,0.32446 -0.53427,0.55494 -0.22992,0.23048 -0.41804,0.42952 -0.41804,0.44229 0,0.0269 -0.22857,0.25331 -0.25569,0.25331 -0.01,0 -0.0572,0.0529 -0.1049,0.11744 -0.0477,0.0646 -0.11905,0.13284 -0.15851,0.15166 -0.0395,0.0188 -0.067,0.0419 -0.0613,0.0512 0.009,0.0152 -0.17351,0.23307 -0.26412,0.31471 -0.0194,0.0175 -0.0505,0.0537 -0.0691,0.0805 -0.0428,0.0616 -0.19778,0.22312 -0.41193,0.42936 -0.0917,0.0883 -0.23342,0.23539 -0.31491,0.32684 -0.12986,0.14571 -0.33858,0.37556 -0.43392,0.47784 -0.0175,0.0187 -0.0556,0.0651 -0.0847,0.10306 -0.0641,0.0836 -0.12972,0.14876 -0.14979,0.14876 -0.0175,0 -0.17696,0.15624 -0.25238,0.24732 -0.0291,0.0351 -0.0744,0.0752 -0.10054,0.089 -0.0262,0.0138 -0.0476,0.0346 -0.0476,0.0463 0,0.0216 -0.16593,0.18837 -0.18865,0.18956 -0.007,3.6e-4 -0.0458,0.0453 -0.0865,0.0999 -0.0408,0.0546 -0.0864,0.1138 -0.10149,0.13164 -0.0151,0.0178 -0.0614,0.0751 -0.10292,0.12725 -0.0415,0.0522 -0.10277,0.11139 -0.13607,0.13164 -0.0333,0.0203 -0.0664,0.0601 -0.0735,0.0886 -0.007,0.0293 -0.0384,0.0623 -0.0714,0.076 -0.0322,0.0133 -0.0809,0.0641 -0.10832,0.11293 -0.055,0.0979 -0.0623,0.10564 -0.31203,0.32983 -0.0958,0.0861 -0.18601,0.1809 -0.20041,0.21077 -0.0144,0.0299 -0.0499,0.0599 -0.0789,0.0667 -0.029,0.007 -0.0748,0.0453 -0.10181,0.0856 -0.027,0.0402 -0.0581,0.0764 -0.069,0.0802 -0.0109,0.004 -0.0199,0.0199 -0.0199,0.0356 0,0.0157 -0.0191,0.0346 -0.0426,0.0421 -0.0234,0.007 -0.0559,0.039 -0.0721,0.0702 -0.0163,0.0312 -0.0948,0.12065 -0.1744,0.19879 -0.0797,0.0781 -0.18291,0.18602 -0.22948,0.23971 -0.12918,0.14896 -0.13481,0.15423 -0.18035,0.16868 -0.0234,0.007 -0.0374,0.0218 -0.0311,0.0319 0.006,0.0101 -0.0222,0.052 -0.0632,0.093 -0.041,0.041 -0.0746,0.0853 -0.0746,0.0983 0,0.0131 -0.0429,0.0654 -0.0952,0.11634 -0.0524,0.0509 -0.0952,0.0989 -0.0952,0.10656 0,0.008 -0.0429,0.0517 -0.0953,0.0978 -0.0524,0.0461 -0.0952,0.0934 -0.0952,0.10515 0,0.0117 -0.0476,0.0699 -0.10569,0.12923 -0.0581,0.0594 -0.11115,0.12516 -0.11784,0.14623 -0.007,0.0211 -0.0226,0.0383 -0.0354,0.0383 -0.0218,0 -0.4509,0.42716 -0.71969,0.71651 -0.16611,0.17881 -0.18467,0.28582 -0.0683,0.39368 0.0286,0.0265 0.0521,0.0587 0.0521,0.0716 0,0.0128 0.0286,0.0559 0.0636,0.0957 0.035,0.0398 0.077,0.10445 0.0933,0.14361 0.0164,0.0392 0.058,0.10668 0.0924,0.15003 0.0345,0.0434 0.0884,0.13145 0.11988,0.19579 0.0315,0.0643 0.0646,0.11698 0.0735,0.11698 0.009,0 0.0389,0.044 0.0666,0.0978 0.0277,0.0538 0.0725,0.11236 0.0997,0.13014 0.0272,0.0178 0.0642,0.0619 0.0823,0.098 0.05,0.0998 0.18137,0.2879 0.20098,0.2879 0.01,0 0.0308,0.031 0.0472,0.0688 0.0164,0.0378 0.0594,0.0958 0.0955,0.1288 0.0361,0.033 0.0656,0.0776 0.0656,0.0991 0,0.0215 0.0191,0.0452 0.0424,0.0526 0.0282,0.009 0.0503,0.0449 0.066,0.10726 0.013,0.0516 0.0318,0.0938 0.0418,0.0938 0.0265,0 0.1813,0.17249 0.2559,0.28513 0.0353,0.0533 0.0822,0.10652 0.10421,0.1183 0.022,0.0118 0.0538,0.0544 0.0707,0.0948 0.0169,0.0403 0.0401,0.0733 0.0515,0.0733 0.0265,0 0.17123,0.15158 0.17182,0.17992 2.3e-4,0.0116 0.067,0.0875 0.14835,0.16858 0.0813,0.0811 0.14791,0.15776 0.14791,0.17041 0,0.0127 0.0427,0.0654 0.0948,0.11717 0.0522,0.0518 0.0952,0.10846 0.0957,0.12592 4.9e-4,0.0175 0.0507,0.0848 0.11155,0.14973 0.0609,0.0649 0.13429,0.15245 0.16317,0.1946 0.0289,0.0421 0.0694,0.081 0.09,0.0864 0.0206,0.005 0.0376,0.0273 0.0377,0.0488 1.5e-4,0.0215 0.0344,0.0611 0.0761,0.0882 0.0417,0.027 0.0702,0.0547 0.0634,0.0616 -0.007,0.007 0.0208,0.0351 0.0615,0.0627 0.0407,0.0276 0.074,0.0581 0.074,0.0678 0,0.01 0.0381,0.0439 0.0847,0.0762 0.0466,0.0323 0.0847,0.0717 0.0847,0.0875 0,0.0159 0.009,0.0289 0.0196,0.0289 0.0108,0 0.0364,0.038 0.0569,0.0845 0.0205,0.0465 0.0531,0.0895 0.0723,0.0956 0.0193,0.006 0.0831,0.0657 0.14175,0.13245 0.0587,0.0667 0.20304,0.21809 0.32078,0.33636 0.11774,0.11827 0.21408,0.22478 0.21408,0.2367 0,0.0119 0.0214,0.0282 0.0476,0.0363 0.0262,0.008 0.0762,0.0446 0.11113,0.0813 0.0349,0.0367 0.089,0.0829 0.1201,0.10266 0.0311,0.0198 0.0626,0.0548 0.0699,0.0778 0.007,0.023 0.0311,0.0475 0.053,0.0544 0.0218,0.007 0.10586,0.0765 0.18676,0.15454 0.0809,0.0781 0.18875,0.17701 0.2397,0.21986 0.0509,0.0429 0.12721,0.10714 0.16949,0.14287 0.0423,0.0357 0.0857,0.065 0.0965,0.065 0.0108,0 0.0684,0.0405 0.12789,0.09 0.20114,0.16715 0.27005,0.22058 0.31618,0.24512 0.0253,0.0135 0.0884,0.065 0.14039,0.11456 0.0519,0.0496 0.14822,0.12345 0.21397,0.16419 0.0657,0.0408 0.1613,0.11363 0.21235,0.16197 0.0511,0.0483 0.11982,0.0939 0.15282,0.10114 0.033,0.007 0.10018,0.0504 0.14928,0.0958 0.0884,0.0818 0.12751,0.1068 0.29173,0.18665 0.0466,0.0226 0.11071,0.0657 0.14255,0.0957 0.0576,0.0543 0.098,0.0796 0.25961,0.16298 0.0466,0.024 0.099,0.0514 0.11642,0.0609 0.0175,0.009 0.0556,0.03 0.0847,0.0455 0.0291,0.0156 0.1053,0.0582 0.16933,0.0947 0.15826,0.0903 0.1909,0.10729 0.26458,0.13756 0.0791,0.0325 0.0853,0.0361 0.22486,0.12877 0.1281,0.0851 0.26451,0.16386 0.45327,0.26169 0.0703,0.0364 0.14946,0.0879 0.17594,0.11438 0.0265,0.0265 0.092,0.0669 0.14552,0.0899 0.0536,0.023 0.11547,0.0626 0.1376,0.0881 0.0221,0.0255 0.0632,0.0562 0.0914,0.0681 0.0281,0.0119 0.087,0.0528 0.13095,0.0907 0.0439,0.038 0.18937,0.16289 0.32325,0.27758 0.25394,0.21754 0.39021,0.36334 0.49742,0.53221 0.0349,0.055 0.0816,0.1255 0.10363,0.15664 0.0482,0.0679 0.10174,0.37412 0.0836,0.47793 -0.0128,0.0734 -0.0437,0.14896 -0.0693,0.16934 -0.007,0.006 -0.0304,0.0494 -0.0513,0.0968 -0.0209,0.0474 -0.0667,0.11409 -0.10192,0.14816 -0.0352,0.0341 -0.094,0.0919 -0.13077,0.12851 -0.0913,0.091 -0.21379,0.1571 -0.35257,0.19045 -0.10286,0.0247 -0.11935,0.024 -0.14158,-0.006 -0.0229,-0.0305 -0.0433,-0.0294 -0.22225,0.012 -0.29666,0.0687 -0.31351,0.0713 -0.31351,0.0486 z m -15.88073,-6.17727 c -0.007,-0.007 -0.0253,-0.008 -0.0406,-0.002 -0.0169,0.007 -0.0119,0.0118 0.0128,0.0128 0.0223,9.2e-4 0.0348,-0.004 0.0278,-0.0111 z m 0.73461,-0.81493 c -0.006,-0.0104 -0.0278,-0.0182 -0.0475,-0.0173 -0.0222,0.001 -0.0257,0.006 -0.009,0.0124 0.0146,0.006 0.0213,0.0193 0.0148,0.0298 -0.006,0.0105 0.003,0.0135 0.0209,0.007 0.018,-0.007 0.0275,-0.0211 0.021,-0.0315 z m 0.86921,-0.0401 c 0.007,-0.0116 -0.002,-0.0212 -0.0212,-0.0212 -0.0188,0 -0.0284,0.01 -0.0212,0.0212 0.007,0.0117 0.0167,0.0212 0.0212,0.0212 0.004,0 0.014,-0.01 0.0212,-0.0212 z m 1.7092,-2.51168 c -0.0145,-0.006 -0.0384,-0.006 -0.0529,0 -0.0145,0.006 -0.003,0.0107 0.0265,0.0107 0.0291,0 0.041,-0.005 0.0264,-0.0107 z m 1.1117,-0.70168 c 0.005,-0.014 -0.0109,-0.0251 -0.0351,-0.0251 -0.0304,0 -0.0397,0.01 -0.0309,0.0327 0.0139,0.0361 0.0529,0.0317 0.066,-0.008 z m -0.22799,-0.16045 c 0,-0.005 -0.0143,-0.0138 -0.0318,-0.0205 -0.0175,-0.007 -0.0317,-0.003 -0.0317,0.008 0,0.0113 0.0143,0.0205 0.0317,0.0205 0.0175,0 0.0318,-0.004 0.0318,-0.008 z m 0.254,-0.0552 c 0,-0.0116 -0.0101,-0.0212 -0.0224,-0.0212 -0.0123,0 -0.0165,0.01 -0.009,0.0212 0.007,0.0117 0.0173,0.0212 0.0224,0.0212 0.005,0 0.009,-0.01 0.009,-0.0212 z m 0.49319,-0.76411 c -0.01,-0.01 -0.0408,-0.0116 -0.0691,-0.004 -0.0473,0.0124 -0.0481,0.0146 -0.0102,0.0281 0.0493,0.0176 0.10423,0.001 0.0793,-0.0239 z m 0.2794,-0.10372 c 0.007,-0.0116 -0.002,-0.0212 -0.0199,-0.0212 -0.0181,0 -0.033,0.01 -0.033,0.0212 0,0.0116 0.009,0.0212 0.0199,0.0212 0.011,0 0.0258,-0.01 0.033,-0.0212 z m 1.04775,-1.18533 c 0,-0.0116 -0.004,-0.0212 -0.009,-0.0212 -0.005,0 -0.0152,0.01 -0.0224,0.0212 -0.007,0.0116 -0.003,0.0212 0.009,0.0212 0.0123,0 0.0224,-0.01 0.0224,-0.0212 z m 0.78316,-0.762 c 0,-0.0472 0.004,-0.0537 0.0489,-0.0725 l 0.0464,-0.0195 -0.0489,-0.009 c -0.0269,-0.005 -0.0729,0.007 -0.10232,0.0265 -0.051,0.0334 -0.0516,0.0364 -0.0147,0.0645 0.0464,0.0351 0.0706,0.0384 0.0706,0.01 z m 2.12552,-2.21418 c 0.0515,-0.0198 0.0397,-0.0507 -0.0194,-0.0507 -0.0514,0 -0.0676,0.0206 -0.0388,0.0494 0.0172,0.0172 0.0168,0.0172 0.0582,0.001 z m 1.5469,-1.97682 c 0.007,-0.0116 -0.002,-0.0212 -0.0212,-0.0212 -0.0188,0 -0.0284,0.01 -0.0212,0.0212 0.007,0.0116 0.0167,0.0212 0.0212,0.0212 0.004,0 0.014,-0.01 0.0212,-0.0212 z m 0.47625,-0.475 c 0,-0.005 -0.01,-0.0152 -0.0212,-0.0224 -0.0116,-0.007 -0.0212,-0.003 -0.0212,0.009 0,0.0123 0.01,0.0224 0.0212,0.0224 0.0116,0 0.0212,-0.004 0.0212,-0.009 z m 6.04793,-6.75562 c -0.007,-0.007 -0.0253,-0.008 -0.0406,-0.002 -0.0169,0.007 -0.0119,0.0118 0.0128,0.0128 0.0223,9.2e-4 0.0348,-0.004 0.0278,-0.0111 z m -0.14243,-0.0507 c 0,-0.0116 -0.01,-0.0212 -0.0212,-0.0212 -0.0116,0 -0.0212,0.01 -0.0212,0.0212 0,0.0117 0.01,0.0212 0.0212,0.0212 0.0116,0 0.0212,-0.01 0.0212,-0.0212 z"
       id="path133" />
  </g>
</svg>
