<?xml version="1.0" encoding="UTF-8" standalone="no"?>
<svg
   xmlns:dc="http://purl.org/dc/elements/1.1/"
   xmlns:cc="http://creativecommons.org/ns#"
   xmlns:rdf="http://www.w3.org/1999/02/22-rdf-syntax-ns#"
   xmlns:svg="http://www.w3.org/2000/svg"
   xmlns="http://www.w3.org/2000/svg"
   xmlns:sodipodi="http://sodipodi.sourceforge.net/DTD/sodipodi-0.dtd"
   xmlns:inkscape="http://www.inkscape.org/namespaces/inkscape"
   width="88.891281"
   height="79.759094"
   version="1.1"
   viewBox="0 0 88.891281 79.759093"
   id="svg749"
   sodipodi:docname="Hi.svg"
   inkscape:version="1.0.2 (e86c870879, 2021-01-15)">
  <defs
     id="defs753" />
  <sodipodi:namedview
     pagecolor="#ffffff"
     bordercolor="#666666"
     borderopacity="1"
     objecttolerance="10"
     gridtolerance="10"
     guidetolerance="10"
     inkscape:pageopacity="0"
     inkscape:pageshadow="2"
     inkscape:window-width="1920"
     inkscape:window-height="1048"
     id="namedview751"
     showgrid="false"
     fit-margin-top="0"
     fit-margin-left="0"
     fit-margin-right="0"
     fit-margin-bottom="0"
     inkscape:zoom="8.1761005"
     inkscape:cx="52.356827"
     inkscape:cy="40.799091"
     inkscape:window-x="0"
     inkscape:window-y="0"
     inkscape:window-maximized="1"
     inkscape:current-layer="svg749" />
  <metadata
     id="metadata745">
    <rdf:RDF>
      <cc:Work
         rdf:about="">
        <dc:format>image/svg+xml</dc:format>
        <dc:type
           rdf:resource="http://purl.org/dc/dcmitype/StillImage" />
        <dc:title></dc:title>
      </cc:Work>
    </rdf:RDF>
  </metadata>
  <path
     d="m 47.556827,79.54809 c -0.46016,-0.26068 -0.92007,-0.70358 -1.0795,-1.0396 -0.06862,-0.14461 -0.15981,-0.28458 -0.20263,-0.31105 -0.04282,-0.02647 -0.07786,-0.11835 -0.07786,-0.20418 0,-0.08583 -0.07124,-0.21706 -0.1583,-0.29161 -0.11797,-0.10101 -0.13326,-0.15215 -0.06,-0.20074 0.0748,-0.04961 0.06762,-0.08881 -0.03005,-0.16398 -0.0706,-0.05434 -0.15275,-0.17564 -0.18256,-0.26956 -0.02982,-0.09393 -0.14305,-0.26665 -0.25165,-0.38382 -0.10859,-0.11718 -0.19744,-0.26671 -0.19744,-0.3323 0,-0.06559 -0.03651,-0.16274 -0.08113,-0.21588 -0.36834,-0.4387 -0.70924,-1.1932 -0.56139,-1.2424 0.1263,-0.0421 0.09809,-0.23108 -0.04255,-0.28505 -0.06879,-0.0264 -0.10096,-0.08701 -0.07149,-0.13469 0.02947,-0.04768 -0.02225,-0.15734 -0.11493,-0.24368 -0.09268,-0.08634 -0.16851,-0.22759 -0.16851,-0.31388 0,-0.08628 -0.04691,-0.15688 -0.10425,-0.15688 -0.09239,0 -0.43788,-0.88825 -0.51276,-1.3183 -0.01516,-0.08706 -0.06253,-0.19326 -0.10527,-0.236 -0.04274,-0.04274 -0.07793,-0.13351 -0.0782,-0.20171 -2.4e-4,-0.0682 -0.05408,-0.22674 -0.11958,-0.35233 -0.0655,-0.12558 -0.10069,-0.25809 -0.0782,-0.29447 0.02248,-0.03638 0.0089,-0.08588 -0.03009,-0.11001 -0.06851,-0.04234 -0.16047,-0.36434 -0.21588,-0.75589 -0.01469,-0.10378 -0.08852,-0.257 -0.16407,-0.34049 -0.07556,-0.08349 -0.11502,-0.17415 -0.0877,-0.20146 0.02732,-0.02732 -0.0029,-0.1755 -0.06716,-0.32928 -0.06426,-0.15378 -0.11684,-0.37024 -0.11684,-0.48102 0,-0.11078 -0.05063,-0.24138 -0.11252,-0.29023 -0.06189,-0.04885 -0.13649,-0.20465 -0.16579,-0.34623 -0.04871,-0.23537 -0.03051,-0.26735 0.21252,-0.37347 0.14618,-0.06384 0.22497,-0.119 0.17509,-0.12259 -0.11915,-0.0086 -0.07955,-0.50978 0.04352,-0.5508 0.07145,-0.02382 0.07163,-0.05808 7.2e-4,-0.14351 -0.12438,-0.14986 -0.28497,-0.14207 -0.34593,0.01679 -0.04009,0.10448 -0.07214,0.11022 -0.16856,0.0302 -0.06548,-0.05434 -0.11905,-0.15932 -0.11905,-0.2333 0,-0.07397 -0.08631,-0.31257 -0.19181,-0.5302 -0.16861,-0.34784 -0.29281,-0.77348 -0.33724,-1.1557 -0.0077,-0.066 -0.02237,-0.138 -0.03266,-0.16 -0.01029,-0.022 -0.02696,-0.11601 -0.03705,-0.20892 -0.01008,-0.0929 -0.04218,-0.2639 -0.07131,-0.38 -0.03129,-0.12468 -0.01961,-0.21108 0.02855,-0.21108 0.04484,0 0.08152,0.05331 0.08152,0.11848 0,0.12037 0.36792,0.26027 0.45513,0.17306 0.02622,-0.02622 0.0025,-0.10209 -0.05268,-0.16859 -0.05519,-0.0665 -0.08104,-0.17124 -0.05743,-0.23275 0.0236,-0.06151 -0.01054,-0.18815 -0.07588,-0.28143 -0.06533,-0.09328 -0.12619,-0.26841 -0.13524,-0.38918 -0.01385,-0.18484 -0.05738,-0.22355 -0.27518,-0.24466 -0.30822,-0.02986 -0.34628,-0.21561 -0.05897,-0.28772 0.17116,-0.04296 0.18653,-0.07132 0.10738,-0.19808 -0.05539,-0.08869 -0.06607,-0.20825 -0.02667,-0.29854 0.11121,-0.25484 0.08624,-0.58279 -0.05869,-0.77105 -0.12155,-0.15788 -0.13844,-0.16198 -0.14,-0.03398 -0.0013,0.10482 -0.05216,0.13841 -0.18178,0.12 -0.20505,-0.02912 -0.28805,-0.32717 -0.14059,-0.50485 0.09949,-0.11987 -0.01679,-0.44071 -0.15971,-0.44071 -0.12772,0 0.0035,-0.22217 0.15451,-0.26167 0.07873,-0.02059 0.16156,-0.13379 0.18408,-0.25156 0.03535,-0.18493 -0.0013,-0.23566 -0.26868,-0.37208 -0.3313,-0.16902 -0.36447,-0.22783 -0.2136,-0.3787 0.06898,-0.06898 0.07158,-0.12042 0.0093,-0.18275 -0.11293,-0.11288 -0.03873,-0.39325 0.10403,-0.39325 0.14165,0 0.13921,-0.04208 -0.01623,-0.2793 -0.06979,-0.10652 -0.10219,-0.23364 -0.07199,-0.28251 0.05886,-0.09524 -0.1323,-0.278 -0.41477,-0.39654 -0.12021,-0.05044 -0.16109,-0.12096 -0.13281,-0.22909 0.02247,-0.08592 -0.0041,-0.24012 -0.05893,-0.34266 -0.13761,-0.25713 -0.16199,-0.6995 -0.04878,-0.88518 0.07693,-0.12618 0.06854,-0.17351 -0.04582,-0.25842 -0.07718,-0.05731 -0.14,-0.20791 -0.14,-0.33566 0,-0.12744 -0.03403,-0.35036 -0.07562,-0.49537 -0.06057,-0.21121 -0.05128,-0.273 0.04671,-0.3106 0.08601,-0.033 0.09486,-0.06391 0.02983,-0.1041 -0.09596,-0.0593 -0.24413,-0.53242 -0.27578,-0.88057 -0.01,-0.11 -0.04194,-0.29 -0.07098,-0.4 -0.02904,-0.11 -0.06886,-0.47 -0.0885,-0.8 -0.01964,-0.33 -0.07087,-0.79968 -0.11384,-1.0437 -0.04297,-0.24405 -0.07015,-0.55905 -0.06039,-0.7 0.0098,-0.14095 -0.0047,-0.25627 -0.03208,-0.25627 -0.0274,0 -0.05842,-0.31202 -0.06893,-0.69338 -0.01051,-0.38136 -0.04857,-0.75036 -0.08457,-0.82 -0.05605,-0.10842 -0.05433,-0.26624 0.0059,-0.54384 0.01464,-0.06745 -0.06467,-0.30805 -0.16573,-0.50278 -0.03425,-0.066 -0.03647,-0.192 -0.0049,-0.28 0.03154,-0.088 0.0262,-0.24332 -0.01186,-0.34516 -0.03807,-0.10184 -0.08067,-0.44569 -0.09469,-0.76411 -0.01401,-0.31842 -0.05052,-0.61947 -0.08113,-0.669 -0.03061,-0.04953 -0.18341,-0.13222 -0.33956,-0.18375 -0.23813,-0.07859 -0.30668,-0.07308 -0.42518,0.03416 -0.07771,0.07032 -0.20422,0.12786 -0.28114,0.12786 -0.07692,0 -0.24356,0.10371 -0.37032,0.23046 -0.12676,0.12675 -0.34898,0.25311 -0.49385,0.28079 -0.27178,0.05193 -0.95164,0.6166 -1.046,0.86875 -0.02881,0.077 -0.10193,0.14 -0.16249,0.14 -0.06056,0 -0.17342,0.06996 -0.2508,0.15547 -0.07738,0.08551 -0.24532,0.17844 -0.3732,0.20653 -0.34178,0.07507 -0.71875,0.27846 -0.9909,0.53462 -0.29401,0.27675 -0.96739,0.62339 -1.211,0.62339 -0.09876,0 -0.20232,0.03681 -0.23012,0.08179 -0.0753,0.12183 -0.97104,0.55821 -1.1458,0.55821 -0.08332,0 -0.24307,0.07203 -0.355,0.16008 -0.25226,0.19842 -1.1761,0.62324 -1.6581,0.76244 -0.198,0.05718 -0.468,0.14199 -0.6,0.18845 -0.132,0.04646 -0.33263,0.10259 -0.44584,0.12472 -0.11321,0.02214 -0.3709,0.16628 -0.57264,0.32032 -0.42981,0.32818 -0.50189,0.58329 -0.39881,1.4114 0.03709,0.298 0.03444,0.62108 -0.0061,0.74269 -0.04791,0.14374 -0.04119,0.25207 0.02023,0.32608 0.1088,0.1311 0.09844,1.2379 -0.01291,1.3787 -0.04744,0.05998 -0.04221,0.15623 0.01421,0.26165 0.04909,0.09172 0.06415,0.20739 0.03346,0.25704 -0.10484,0.16963 -0.09898,0.63249 0.01068,0.84386 0.06023,0.1161 0.09169,0.23993 0.06991,0.27518 -0.02178,0.03525 -0.0012,0.13585 0.04574,0.22356 0.08402,0.157 0.13997,0.5791 0.21257,1.6038 0.02026,0.286 0.04707,0.664 0.05958,0.84 0.0125,0.176 -0.01123,0.36461 -0.05275,0.41912 -0.04152,0.05452 -0.05283,0.2199 -0.02513,0.36752 0.02769,0.14762 0.06786,0.44143 0.08926,0.65291 0.0214,0.21148 0.08181,0.4362 0.13424,0.49938 0.06147,0.07406 0.10207,0.51103 0.11431,1.2301 0.01044,0.61339 0.05985,1.2391 0.10979,1.3904 0.07721,0.23395 0.10753,0.67428 0.0799,1.1606 -0.0079,0.13899 0.11667,0.92745 0.22362,1.4154 0.04044,0.18449 0.05751,0.49584 0.03794,0.6919 -0.01957,0.19606 0.0061,0.43441 0.05713,0.52968 0.06982,0.13046 0.07002,0.20054 8.32e-4,0.28391 -0.06237,0.07515 -0.06672,0.15565 -0.01354,0.25068 0.04823,0.08618 0.05061,0.21291 0.0062,0.32974 -0.03968,0.10437 -0.04949,0.28004 -0.0218,0.39037 0.02769,0.11034 0.0118,0.27884 -0.03533,0.37444 -0.04712,0.09562 -0.10254,0.31784 -0.12315,0.49384 -0.02061,0.176 -0.08895,0.5627 -0.15188,0.85933 -0.06292,0.29663 -0.09778,0.55596 -0.07746,0.57628 0.02032,0.02032 0.01392,0.12866 -0.01421,0.24076 -0.04026,0.16042 -0.09768,0.2014 -0.26961,0.19244 -0.41161,-0.02146 -0.49846,0.0084 -0.49846,0.17119 0,0.088 -0.036,0.16 -0.08,0.16 -0.044,0 -0.08,0.08282 -0.08,0.18404 0,0.25298 -0.6304,0.9951 -0.87407,1.029 -0.11569,0.01609 -0.24733,0.1235 -0.32595,0.26598 -0.18338,0.33231 -0.58245,0.55742 -0.79065,0.446 -0.24891,-0.13322 -0.4055,-0.10092 -0.4983,0.10277 -0.07096,0.15574 -0.1491,0.18918 -0.45828,0.19611 -0.20501,0.0046 -0.59435,0.03113 -0.86521,0.05897 -0.44455,0.04569 -0.49737,0.03519 -0.54276,-0.10783 -0.02766,-0.08714 -0.04333,-0.18917 -0.03482,-0.22672 0.0085,-0.03756 -0.0135,-0.13492 -0.0489,-0.21636 -0.04249,-0.09777 -0.02642,-0.1721 0.0473,-0.21878 0.06141,-0.03889 0.07386,-0.07126 0.02766,-0.07193 -0.0462,-8e-4 -0.13187,0.04378 -0.19037,0.09878 -0.08794,0.08267 -0.09797,0.03465 -0.05793,-0.2771 0.03793,-0.2953 0.02114,-0.39238 -0.07744,-0.44755 -0.11394,-0.06376 -0.11255,-0.1191 0.01459,-0.5829 0.12165,-0.44377 0.18754,-0.9202 0.18704,-1.3524 -8e-4,-0.66162 -0.08127,-1.7085 -0.13995,-1.82 -0.06104,-0.11598 -0.13139,-0.66797 -0.21156,-1.66 -0.0071,-0.088 -0.0403,-0.22128 -0.07375,-0.29617 -0.03345,-0.07489 -0.03448,-0.17878 -0.0023,-0.23085 0.14745,-0.23858 0.0058,-1.273 -0.17434,-1.273 -0.07876,0 -0.11135,-0.11928 -0.11477,-0.42 -0.0026,-0.231 -0.04094,-0.6 -0.08515,-0.82 -0.04421,-0.22 -0.08134,-0.48949 -0.08252,-0.59888 -0.0012,-0.10938 -0.0351,-0.26046 -0.07538,-0.33573 -0.05335,-0.09968 -0.03507,-0.15935 0.06729,-0.21966 0.09332,-0.05499 0.11147,-0.10346 0.05401,-0.14427 -0.10613,-0.0754 -0.26024,-0.85141 -0.29974,-1.5093 -0.01611,-0.26832 -0.06046,-0.53828 -0.09854,-0.5999 -0.10811,-0.17493 -0.08701,-0.42296 0.0448,-0.52652 0.10554,-0.08292 0.10364,-0.10063 -0.01577,-0.14694 -0.18987,-0.07363 -0.32472,-0.79537 -0.27404,-1.4667 0.03172,-0.4201 0.01201,-0.59048 -0.0842,-0.72783 -0.15024,-0.2145 -0.2074,-0.85481 -0.09505,-1.0647 0.04749,-0.08873 0.05116,-0.18844 0.009,-0.24466 -0.22998,-0.30675 -0.40221,-1.8445 -0.26857,-2.3981 0.07901,-0.32727 -0.04991,-0.71209 -0.2821,-0.84203 -0.12329,-0.069 -1.2172,0.09296 -1.5093,0.22345 -0.2478,0.11072 -1.185,0.32175 -1.429,0.32175 -0.12031,0 -0.36813,0.07217 -0.55069,0.16038 -0.18257,0.08821 -0.39855,0.13923 -0.47997,0.11339 -0.08142,-0.02584 -0.19413,-0.0087 -0.25048,0.03803 -0.1042,0.08648 -0.14899,0.09885 -0.75166,0.20756 -0.18798,0.03391 -0.3611,0.09293 -0.38472,0.13115 -0.02362,0.03822 -0.19521,0.06949 -0.38131,0.06949 -0.1861,0 -0.47959,0.072 -0.65219,0.16 -0.1726,0.088 -0.44302,0.16 -0.60092,0.16 -0.1579,0 -0.3258,0.03872 -0.37313,0.08604 -0.04733,0.04733 -0.27952,0.10203 -0.516,0.12157 -0.46516,0.03843 -1.0104,0.17639 -1.1689,0.29575 -0.05444,0.041 -0.14521,0.0568 -0.20171,0.03512 -0.15666,-0.06012 -1.2670005,0.24373 -1.4302005,0.39135 -0.07913,0.07161 -0.21458,0.11172 -0.301,0.08912 -0.24483,-0.06402 -1.5304,0.3905 -1.6495,0.58319 -0.02647,0.04282 -0.13114,0.07786 -0.23261,0.07786 -0.21533,0 -0.62861,0.2988 -0.56211,0.40641 0.02502,0.04048 -0.04542,0.07359 -0.15652,0.07359 -0.2353,0 -0.77913,0.2359 -0.86993,0.37736 -0.03438,0.05355 -0.22508,0.16928 -0.4238,0.25718 -0.42349,0.18733 -0.76969,0.4428 -0.69766,0.51484 0.02784,0.02784 -0.11097,0.05062 -0.30846,0.05062 -0.19749,0 -0.52493,0.05651 -0.72764,0.12558 -0.34236,0.11665 -0.38386,0.11555 -0.58395,-0.01556 -0.20681,-0.13551 -0.21974,-0.13519 -0.32443,0.008 -0.1044,0.14278 -0.11567,0.1431 -0.2654,0.0076 -0.14194,-0.12845 -0.17251,-0.13021 -0.33119,-0.01907 -0.13825,0.09683 -0.20622,0.10284 -0.3249,0.02872 -0.082543,-0.05158 -0.15008,-0.1391 -0.15008,-0.19451 0,-0.05541 -0.051238,-0.10076 -0.11386,-0.10076 -0.062625,0 -0.22553,-0.09396 -0.36201,-0.2088 -0.14656,-0.12332 -0.30903,-0.19289 -0.39685,-0.16992 -0.17665996,0.0462 -0.43837996,-0.22483 -0.37544996,-0.38881 0.023736,-0.06186 0.00829,-0.11247 -0.034332,-0.11247 -0.042619,0 -0.07749,-0.054 -0.07749,-0.12 0,-0.066 -0.036,-0.12 -0.08,-0.12 -0.044,0 -0.08,-0.09 -0.08,-0.2 0,-0.11 -0.028107,-0.2 -0.062461,-0.2 -0.10523,0 -0.24313,-0.46019 -0.22106,-0.73772 0.01147,-0.14426 -0.010964,-0.30308 -0.049853,-0.35294 -0.044951,-0.05763 -0.024405,-0.10842 0.056405,-0.13943 0.069912,-0.02683 0.10471,-0.08503 0.07732,-0.12934 -0.027386,-0.04431 -0.012934,-0.08057 0.032115,-0.08057 0.14811,0 0.26907,-0.31766 0.16754,-0.44 -0.0636,-0.07663 -0.066516,-0.15571 -0.00966,-0.26195 0.044794,-0.0837 0.062699,-0.22386 0.039789,-0.31147 -0.031296,-0.11968 0.070287,-0.25718 0.40847,-0.55293 0.39065996,-0.34164 0.44444996,-0.42311 0.40714996,-0.61669 -0.031935,-0.16575 -0.00737,-0.23452 0.095635,-0.26773 0.33894,-0.10927 0.65102,-0.31158 0.6858,-0.44455 0.020808,-0.07957 0.109,-0.14467 0.19599,-0.14467 0.090878,0 0.17596,-0.06806 0.2,-0.16 0.025423,-0.09722 0.10912,-0.16 0.2133,-0.16 0.20483,0 0.61751,-0.20197 0.65744,-0.32176 0.01561,-0.04682 0.15386,-0.1007 0.30723,-0.11973 0.15337,-0.01904 0.35085,-0.06967 0.43885,-0.11253 0.088,-0.04286 0.322,-0.13097 0.52,-0.1958 0.198,-0.06483 0.56803,-0.21065 0.82228,-0.32403 0.25425,-0.11338 0.5132,-0.20615 0.57543,-0.20615 0.06223,0 0.24434,-0.07741 0.40469,-0.17202 0.30484,-0.17986 0.58741,-0.25364 1.5163,-0.39592 0.30731,-0.04707 0.68211,-0.13712 0.83288,-0.20012 0.15078,-0.063 0.34372,-0.09246 0.42877,-0.06547 0.10569,0.03354 0.23002,-0.02301 0.39286,-0.1787 0.21872,-0.20912 0.282,-0.22626 0.7724905,-0.20928 0.29384,0.01017 0.64225,-0.01442 0.77425,-0.05465 0.132,-0.04023 0.3872,-0.09168 0.56712,-0.11434 0.17992,-0.02266 0.41392,-0.07705 0.52,-0.12088 0.10608,-0.04383 0.44209,-0.13893 0.74668,-0.21135 0.30458,-0.07242 0.63517,-0.18499 0.73464,-0.25016 0.1264,-0.08282 0.2246,-0.09558 0.32621,-0.04238 0.15407,0.08066 0.59849,0.04876 0.86536,-0.06211 0.44797,-0.18612 0.67476,-0.2471 1.04,-0.27968 0.22,-0.01962 0.508,-0.07131 0.64,-0.11486 0.62313,-0.20562 1.4943,-0.40808 1.7559,-0.40808 0.15934,0 0.37357,-0.05494 0.47606,-0.1221 0.10249,-0.06715 0.29022,-0.11845 0.41718,-0.114 0.38669,0.01357 0.83674,-0.13962 1.0718,-0.36481 0.22007,-0.21084 0.223,-0.22637 0.21714,-1.1515 -0.0033,-0.51579 0.01349,-0.9715 0.03724,-1.0127 0.02374,-0.04119 0.02999,-0.18289 0.01388,-0.31489 -0.01611,-0.132 -0.0453,-0.6347 -0.06487,-1.1171 -0.01957,-0.48242 -0.0571,-0.96286 -0.0834,-1.0677 -0.0263,-0.10479 -0.01031,-0.23573 0.03554,-0.29097 0.04584,-0.05524 0.08089,-0.1868 0.07787,-0.29235 -0.01978,-0.69204 0.01371,-3.3933 0.05197,-4.1919 0.07323,-1.5285 0.08368,-2.5772 0.03467,-3.48 -0.02508,-0.462 -0.0053,-1.182 0.04403,-1.6 0.08529,-0.72321 0.09217,-3.8895 0.0086,-3.973 -0.02179,-0.02179 0.01491,-0.19965 0.08155,-0.39524 0.079,-0.23184 0.09461,-0.38975 0.04486,-0.45368 -0.04197,-0.05393 -0.06363,-0.38606 -0.04812,-0.73806 0.01551,-0.352 0.02574,-0.694 0.02275,-0.76 -0.01165,-0.2567 -0.0176,-2.4695 -0.0081,-3 0.0055,-0.308 0.008,-0.902 0.0055,-1.32 -0.0025,-0.418 0.01534,-0.958 0.03966,-1.2 0.06895,-0.68596 0.07937,-3.4049 0.01347,-3.5115 -0.03247,-0.05254 -0.006,-0.1765 0.05887,-0.27547 0.09564,-0.14597 0.09899,-0.20583 0.01773,-0.31696 -0.0701,-0.09587 -0.08046,-0.23896 -0.0345,-0.47653 0.09246,-0.47758 0.08809,-1.1795 -0.0073,-1.1795 -0.10676,0 -0.10107,-0.21038 0.01433,-0.52949 0.07978,-0.22063 0.07053,-0.31364 -0.06,-0.60314 -0.16007,-0.35502 -0.16259,-0.5475 -0.0084,-0.64315 0.06058,-0.03759 0.03163,-0.11782 -0.08873,-0.24594 -0.09825,-0.10458 -0.15543,-0.21335 -0.12707,-0.24172 0.02836,-0.02836 -0.0069,-0.14082 -0.07838,-0.24989 -0.08669,-0.1323 -0.10166,-0.21581 -0.04496,-0.25085 0.05261,-0.03252 0.02307,-0.09589 -0.07754,-0.16636 -0.19456,-0.13628 -0.14307,-0.33046 0.09672,-0.36478 0.21304,-0.03049 0.26402,-0.24328 0.09805,-0.40925 -0.16438,-0.16438 -0.15769,-0.18962 0.06514,-0.24555 0.15008,-0.03767 0.18134,-0.08827 0.15136,-0.24507 -0.02396,-0.12535 0.02388,-0.27599 0.13086,-0.41199 0.09275,-0.11791 0.16864,-0.26244 0.16864,-0.32117 0,-0.05873 0.072,-0.23497 0.16,-0.39164 0.088,-0.15667 0.16,-0.33475 0.16,-0.39573 0,-0.06097 0.10213,-0.1560702 0.22695,-0.2113202 0.12482,-0.05525 0.25982,-0.17527 0.3,-0.2667 0.04018,-0.09144 0.15413,-0.17776 0.25322,-0.19183 0.0991,-0.01407 0.21544,-0.09147 0.25853,-0.172 0.05233,-0.09777 0.16864,-0.14641 0.35014,-0.14641 0.14948,0 0.34577,-0.0396 0.43621,-0.088 0.33541,-0.1795 0.80437,-0.10698 1.1615,0.17963 0.18341,0.14719 0.39646,0.29006 0.47346,0.31749 0.077,0.02743 0.14,0.09681 0.14,0.15418 0,0.12311 0.38175,0.3245 0.86423,0.4559002 0.18932,0.05157 0.36554,0.15474 0.3916,0.22928 0.02605,0.07454 0.12315,0.19772 0.21577,0.27374 0.09262,0.07602 0.1234,0.13902 0.0684,0.14 -0.16604,0.003 -0.1121,0.24178 0.05461,0.24178 0.09035,0 0.17796,0.07481 0.2108,0.18 0.0309,0.099 0.14378,0.26836 0.25085,0.37636 0.10706,0.108 0.26823,0.36 0.35815,0.56 0.08992,0.2 0.21816,0.42566 0.28498,0.50146 0.07608,0.08632 0.10514,0.22086 0.07774,0.36 -0.02406,0.12219 0.0074,0.36617 0.06989,0.54217 0.10292,0.28985 0.20194,1.2607 0.22438,2.2 0.0047,0.198 0.03619,0.40251 0.06991,0.45447 0.03372,0.05196 0.02309,0.11809 -0.02361,0.14696 -0.04671,0.02887 -0.08109,0.22035 -0.07641,0.42553 0.0075,0.3298 -0.04423,1.4249 -0.1235,2.613 -0.01468,0.22 -0.0466,1.102 -0.07093,1.96 -0.02434,0.858 -0.06629,1.756 -0.09323,1.9955 -0.06367,0.56603 -0.08204,3.138 -0.03317,4.6445 0.0378,1.1651 0.01699,1.5571 -0.12001,2.2609 -0.03831,0.19682 -0.02538,0.34086 0.03739,0.4165 0.05278,0.06359 0.06972,0.15807 0.03765,0.20996 -0.03207,0.05189 -0.06965,0.72847 -0.08351,1.5035 -0.01386,0.77504 -0.04889,1.7692 -0.07784,2.2092 -0.07398,1.1244 -0.0571,1.8163 0.04586,1.88 0.06248,0.03862 0.05272,0.1569 -0.0336,0.40722 -0.07543,0.21874 -0.10298,0.46989 -0.07249,0.66095 0.03314,0.20768 0.01629,0.32848 -0.0517,0.37049 -0.08035,0.04966 -0.08103,0.12246 -0.0033,0.35785 0.05927,0.17959 0.07611,0.4383 0.04293,0.65954 -0.03002,0.20022 -0.06811,1.5925 -0.08462,3.094 -0.01652,1.5015 -0.03464,2.73 -0.04026,2.73 -0.0056,0 -0.0194,0.08355 -0.03061,0.18568 -0.02362,0.21516 0.2298,0.57432 0.40524,0.57432 0.06595,0 0.17391,-0.054 0.23991,-0.12 0.066,-0.066 0.25604,-0.12 0.42232,-0.12 0.23886,0 0.33936,-0.04833 0.47879,-0.23026 0.11243,-0.14671 0.27689,-0.24656 0.45321,-0.27517 0.15221,-0.0247 0.37104,-0.11908 0.48628,-0.20974 0.11516,-0.09065 0.3126,-0.16483 0.43866,-0.16483 0.12607,0 0.22921,-0.03784 0.22921,-0.08408 0,-0.04625 0.117,-0.1331 0.26,-0.19302 0.143,-0.05991 0.34728,-0.20208 0.45394,-0.31592 0.10667,-0.11384 0.25067,-0.20712 0.32,-0.20728 0.06933,-1.6e-4 0.24392,-0.07216 0.38799,-0.16 0.14406,-0.08783 0.31053,-0.1597 0.36992,-0.1597 0.18984,0 0.79232,-0.37889 1.3281,-0.83524 0.286,-0.24358 0.637,-0.4821 0.78,-0.53002 0.143,-0.04793 0.26,-0.11901 0.26,-0.15796 0,-0.03895 0.225,-0.2225 0.5,-0.4079 0.55201,-0.37214 0.71652,-0.50792 1.2224,-1.0089 0.18883,-0.187 0.40982,-0.34 0.49108,-0.34 0.08602,0 0.37502,-0.26739 0.69172,-0.64 0.31139,-0.36636 0.60624,-0.64 0.68959,-0.64 0.24374,0 0.35588,-0.22484 0.35237,-0.70655 -0.0042,-0.57083 -0.01621,-1.047 -0.03173,-1.2534 -0.0066,-0.088 -0.0081,-0.25 -0.0032,-0.36 0.02,-0.45497 0.0082,-1.586 -0.02032,-1.9419 -0.01681,-0.21002 2.4e-4,-0.4009 0.03789,-0.42417 0.03765,-0.02327 0.0098,-0.13187 -0.06195,-0.24134 -0.10976,-0.16751 -0.11762,-0.27769 -0.04964,-0.69583 0.04442,-0.27324 0.06336,-0.8208 0.04208,-1.2168 -0.02128,-0.396 -0.03057,-0.81 -0.02065,-0.92 0.0271,-0.30034 0.03321,-1.4209 0.01049,-1.92 -0.01102,-0.242 -4.3e-5,-0.782 0.0244,-1.2 0.07845,-1.3417 0.1458,-3.0494 0.16564,-4.2 0.01645,-0.95373 0.12358,-2.0291 0.32279,-3.24 0.02533,-0.154 0.05781,-0.64 0.07218,-1.08 0.01436,-0.44 0.08044,-1.034 0.14684,-1.32 0.0664,-0.286 0.10712,-0.54278 0.09047,-0.57061 -0.01664,-0.02784 0.0348,-0.24384 0.11431,-0.48 0.07951,-0.23616 0.1522,-0.67081 0.16154,-0.96588 0.0093,-0.29507 0.07094,-0.66566 0.1369,-0.82352 0.06596,-0.15787 0.09768,-0.32302 0.0705,-0.36701 -0.02719,-0.04399 -0.01,-0.12755 0.03829,-0.18569 0.04825,-0.05814 0.12637,-0.37156 0.17361,-0.6965 0.1564,-1.0759 0.17088,-1.1501 0.24137,-1.2383 0.03848,-0.04814 0.07814,-0.27531 0.08813,-0.50482 0.01,-0.2295 0.06384,-0.45519 0.11967,-0.50153 0.05583,-0.04634 0.08081,-0.11774 0.05551,-0.15869 -0.0253,-0.04094 -0.01066,-0.11786 0.03253,-0.17094 0.0432,-0.05307 0.15789,-0.3665 0.25487,-0.6965 0.09698,-0.33 0.22674,-0.6568302 0.28835,-0.7263002 0.06161,-0.06947 0.11202,-0.16836 0.11202,-0.21977 0,-0.05141 0.1199,-0.22857 0.26644,-0.3937 0.14654,-0.16513 0.34775,-0.47123 0.44714,-0.68023 0.13563,-0.28524 0.22506,-0.38 0.35859,-0.38 0.09784,0 0.28137,-0.108 0.40783,-0.24 0.12646,-0.132 0.29259,-0.24 0.36916,-0.24 0.07657,0 0.21242,-0.09305 0.30187,-0.20677 0.10803,-0.13734 0.31767,-0.24725 0.62432,-0.32733 0.43283,-0.11303 0.49425,-0.11036 0.98316,0.04267 0.28682,0.08977 0.74956,0.20918 1.0283,0.26534 0.31324,0.06311 0.53431,0.15347 0.57878,0.23657 0.03957,0.07394 0.33428,0.26407 0.65491,0.42249 0.39014,0.19277 0.68823,0.41122 0.90122,0.66044 0.17504,0.20482 0.4727,0.51959 0.66145,0.69949 0.18875,0.1799 0.48822,0.5954402 0.66548,0.9234102 0.17726,0.32797 0.39183,0.64501 0.47681,0.70454 0.08498,0.05952 0.15452,0.15663 0.15452,0.21578 0,0.05916 0.16526,0.27048 0.36725,0.46962 0.26137,0.25768 0.35373,0.40464 0.32036,0.50977 -0.02578,0.08124 0.02381,0.2796 0.1102,0.4408 0.17346,0.32365 0.48219,1.1974 0.48219,1.3647 0,0.05859 0.04178,0.14831 0.09285,0.19937 0.10381,0.10381 0.46188,1.109 0.46509,1.3056 0.0011,0.06954 0.09192,0.30354 0.20173,0.52 0.10982,0.21646 0.19982,0.47599 0.2,0.57674 1.6e-4,0.10075 0.0737,0.32699 0.16336,0.50274 0.08966,0.17576 0.14268,0.35248 0.11782,0.39271 -0.05091,0.08237 0.09039,0.75326 0.21235,1.0083 0.04391,0.0918 0.07029,0.2178 0.05862,0.28 -0.03826,0.204 0.10421,1.3109 0.18095,1.406 0.04749,0.0588 0.04376,0.11219 -0.01016,0.14551 -0.04684,0.02895 -0.07907,0.22467 -0.07163,0.43493 0.0074,0.21026 -0.0063,0.41478 -0.03044,0.45449 -0.02418,0.03971 0.003,0.32081 0.06034,0.62467 0.07515,0.39802 0.08072,0.60424 0.01995,0.73763 -0.06018,0.13209 -0.05877,0.21599 0.0049,0.29273 0.06414,0.07728 0.06614,0.23001 0.0071,0.54237 -0.04519,0.23914 -0.09173,0.54496 -0.10342,0.67962 -0.01169,0.13465 -0.04618,0.28517 -0.07665,0.33447 -0.03047,0.0493 -0.01686,0.11347 0.03025,0.14258 0.05877,0.03632 0.05096,0.10711 -0.02488,0.22553 -0.06375,0.09954 -0.10428,0.34563 -0.09577,0.58142 0.0094,0.26008 -0.03864,0.51861 -0.13201,0.71057 -0.08072,0.16596 -0.12648,0.33456 -0.10169,0.37468 0.02479,0.04012 0.0031,0.12355 -0.04826,0.1854 -0.05134,0.06186 -0.08535,0.21328 -0.07559,0.3365 0.0098,0.12322 -0.01911,0.31403 -0.06415,0.42403 -0.04504,0.11 -0.06263,0.23246 -0.03907,0.27214 0.02356,0.03968 -0.01666,0.11563 -0.08936,0.1688 -0.0727,0.05316 -0.13647,0.2007 -0.1417,0.32786 -0.01273,0.30948 -0.22424,0.84796 -0.4836,1.2312 -0.07444,0.11 -0.15026,0.34455 -0.16848,0.52122 -0.03636,0.35236 -0.2753,0.91878 -0.38759,0.91878 -0.03899,0 -0.07088,0.04915 -0.07088,0.10921 0,0.06007 -0.06889,0.19679 -0.15309,0.30383 -0.0842,0.10704 -0.21655,0.39089 -0.29413,0.63079 -0.07757,0.23989 -0.31104,0.6943 -0.51881,1.0098 -0.20985,0.31866 -0.40217,0.7181 -0.43268,0.89867 -0.04196,0.24835 -0.12881,0.38356 -0.36811,0.57309 -0.17226,0.13643 -0.31319,0.30283 -0.31319,0.36978 0,0.06695 -0.09,0.22869 -0.2,0.35942 -0.11,0.13073 -0.2,0.28352 -0.2,0.33954 0,0.05602 -0.108,0.25095 -0.24,0.43317 -0.132,0.18222 -0.24,0.3696 -0.24,0.41639 0,0.1595 -0.64555,1.0363 -0.76298,1.0363 -0.06436,0 -0.11702,0.04815 -0.11702,0.10701 0,0.05885 -0.22739,0.33785 -0.50531,0.62 -0.27792,0.28214 -0.53038,0.56699 -0.56103,0.63299 -0.03065,0.066 -0.15278,0.282 -0.27141,0.48 -0.1985,0.33132 -0.21711,0.43648 -0.23356,1.32 -0.0098,0.528 -0.02122,1.032 -0.02531,1.12 -0.0041,0.088 0.0114,0.934 0.03443,1.88 0.02302,0.946 0.0379,1.81 0.03305,1.92 -0.01043,0.23682 -0.01251,0.17749 0.05053,1.44 0.02747,0.55 0.04737,1.0861 0.04424,1.1913 -0.0031,0.10522 0.03181,0.33059 0.07765,0.50083 0.04584,0.17024 0.09975,0.78615 0.1198,1.3687 0.04395,1.2771 0.12444,1.9458 0.26204,2.1769 0.02546,0.04277 0.03674,0.21011 0.02506,0.37186 -0.01168,0.16175 0.01179,0.3145 0.05216,0.33945 0.04037,0.02495 0.06688,0.21761 0.05892,0.42814 -0.008,0.21053 0.02933,0.58078 0.08287,0.82278 0.05354,0.242 0.09916,0.559 0.10138,0.70445 0.0056,0.36771 0.17683,1.7897 0.23306,1.9356 0.02544,0.066 0.05962,0.28116 0.07596,0.47812 0.01634,0.19696 0.06475,0.39317 0.10759,0.436 0.04283,0.04283 0.07788,0.21255 0.07788,0.37716 0,0.1646 0.03371,0.32011 0.07491,0.34558 0.0412,0.02546 0.07673,0.10859 0.07897,0.18472 0.01748,0.59645 0.17261,1.7281 0.24976,1.822 0.03776,0.04596 0.08358,0.28233 0.10182,0.52528 0.01824,0.24295 0.07889,0.52717 0.13478,0.6316 0.05589,0.10443 0.11215,0.40129 0.12502,0.65969 0.01287,0.2584 0.05701,0.51258 0.09808,0.56484 0.04107,0.05227 0.09638,0.28784 0.1229,0.5235 0.02653,0.23566 0.08057,0.46966 0.12009,0.52 0.07408,0.09436 0.09118,0.21051 0.10179,0.69153 0.0034,0.154 0.04299,0.32454 0.08798,0.37898 0.04499,0.05444 0.05896,0.15851 0.03104,0.23127 -0.02792,0.07276 0.0012,0.21165 0.06478,0.30864 0.06355,0.09699 0.12886,0.33522 0.14514,0.52938 0.01627,0.19417 0.05036,0.38874 0.07576,0.43238 0.06259,0.10756 0.17866,0.70092 0.15549,0.79484 -0.01025,0.04152 0.03315,0.20352 0.09644,0.36 0.06329,0.15648 0.15172,0.42851 0.1965,0.60451 0.04479,0.176 0.15733,0.51749 0.25009,0.75887 0.09276,0.24138 0.16866,0.53626 0.16866,0.65528 0,0.11902 0.036,0.23866 0.08,0.26585 0.044,0.02719 0.08022,0.12832 0.08049,0.22472 2.4e-4,0.09641 0.05427,0.27839 0.12,0.40442 0.06573,0.12603 0.11951,0.34503 0.11951,0.48666 0,0.14164 0.02467,0.2822 0.05483,0.31235 0.10766,0.10766 0.26093,0.65423 0.22017,0.7851 -0.02283,0.0733 -0.004,0.15642 0.04175,0.18473 0.04579,0.0283 0.08325,0.15456 0.08325,0.28059 0,0.12602 0.08342,0.3309 0.18538,0.45528 0.10196,0.12438 0.23159,0.35214 0.28807,0.50614 0.14458,0.3942 0.25264,0.65571 0.34326,0.83072 0.04292,0.0829 0.08824,0.28753 0.10071,0.45474 0.01247,0.1672 0.10119,0.40382 0.19715,0.52581 0.11262,0.14317 0.15858,0.28512 0.12966,0.40037 -0.02465,0.09821 -0.0077,0.20148 0.0376,0.2295 0.04533,0.02802 0.07447,0.09322 0.06476,0.1449 -0.0097,0.05168 0.04547,0.30484 0.12261,0.56257 0.07715,0.25773 0.12402,0.48485 0.10415,0.50471 -0.01986,0.01986 0.03201,0.22249 0.11527,0.45027 0.08326,0.22778 0.15138,0.47766 0.15138,0.55529 0,0.1921 -0.17839,0.17815 -0.30453,-0.02382 -0.14958,-0.23951 -0.52572,-0.18423 -0.56338,0.08279 -0.01535,0.10882 -0.11459,0.30086 -0.22054,0.42678 -0.10595,0.12591 -0.1729,0.26086 -0.14877,0.2999 0.02412,0.03903 -0.01578,0.16198 -0.08867,0.27323 -0.09873,0.15067 -0.20187,0.20226 -0.40441,0.20226 -0.14954,0 -0.3524,0.04162 -0.4508,0.09249 -0.39006,0.20164 -0.46374,0.22751 -0.64803,0.22751 -0.10521,0 -0.23774,-0.05597 -0.29451,-0.12437 -0.18276,-0.22021 -0.38273,-0.28857 -0.56258,-0.19231 -0.09519,0.05094 -0.14754,0.1376 -0.12251,0.20282 0.0671,0.17486 -0.1844,0.13367 -0.59128,-0.09683 z m -25.96,-20.029 c 0.02719,-0.044 -0.0088,-0.08 -0.08,-0.08 -0.07119,0 -0.10719,0.036 -0.08,0.08 0.02719,0.044 0.06319,0.08 0.08,0.08 0.01681,0 0.05281,-0.036 0.08,-0.08 z m 24.175,-31.374 c 0.10184,-0.09567 0.18516,-0.25767 0.18516,-0.36 0,-0.10233 0.06636,-0.25242 0.14747,-0.33352 0.08111,-0.08111 0.15088,-0.26743 0.15505,-0.41405 0.0043,-0.15244 0.06128,-0.29663 0.13299,-0.33676 0.0829,-0.04639 0.10962,-0.13309 0.07884,-0.25574 -0.03764,-0.14998 -0.008,-0.19524 0.15459,-0.23605 0.18861,-0.04734 0.20091,-0.08166 0.19715,-0.55021 -0.0022,-0.27484 0.0389,-0.69772 0.09136,-0.93972 0.05245,-0.242 0.11346,-0.62 0.13557,-0.84 0.02211,-0.22 0.08551,-0.472 0.14088,-0.56 0.05538,-0.088 0.10685,-0.33516 0.11439,-0.54925 0.0075,-0.21409 0.03338,-0.42109 0.05743,-0.46 0.02405,-0.03891 0.01782,-0.11267 -0.01385,-0.16391 -0.09151,-0.14807 -0.10343,-0.57312 -0.02042,-0.72823 0.04177,-0.07805 0.04729,-0.18617 0.01225,-0.24026 -0.03503,-0.05409 -0.06973,-0.31435 -0.07709,-0.57835 -0.0074,-0.264 -0.04523,-0.72294 -0.08414,-1.0199 -0.04145,-0.31634 -0.04112,-0.56949 8.08e-4,-0.61141 0.04207,-0.04206 0.03987,-0.13278 -0.0053,-0.22014 -0.04228,-0.08172 -0.10057,-0.27994 -0.12951,-0.44047 -0.02895,-0.16054 -0.12369,-0.38221 -0.21053,-0.49262 -0.08684,-0.1104 -0.15845,-0.30306 -0.15912,-0.42812 -0.0016,-0.28933 -0.09978,-0.4451 -0.24517,-0.38883 -0.14366,0.05561 -0.48124,1.1892 -0.46501,1.5614 0.0067,0.154 -0.03116,0.43783 -0.08417,0.63074 -0.05301,0.19291 -0.07556,0.4337 -0.05011,0.5351 0.02545,0.1014 0.01368,0.2045 -0.02615,0.22911 -0.09824,0.06071 -0.2375,1.4867 -0.28203,2.8878 -0.0084,0.2655 -0.03674,0.5175 -0.06289,0.56 -0.04097,0.06659 -0.07822,0.72753 -0.06972,1.2373 0.0015,0.088 -0.0018,0.223 -0.0072,0.3 -0.04662,0.66007 -0.02323,3.13 0.03069,3.24 0.08862,0.18076 0.13387,0.17647 0.35785,-0.03394 z m 38.327,46.29 c -0.01181,-0.01087 -0.16546,-0.04017 -0.34146,-0.0651 -0.176,-0.02494 -0.329,-0.0467 -0.34,-0.04836 -0.011,-0.0017 -0.02,-0.06152 -0.02,-0.13302 0,-0.0979 -0.05432,-0.12041 -0.22,-0.09116 -0.121,0.02137 -0.31,0.01422 -0.42,-0.01588 l -0.2,-0.05473 0.2,-0.06642 c 0.19815,-0.0658 0.19742,-0.06729 -0.08,-0.16117 -0.19916,-0.0674 -0.29155,-0.15324 -0.32,-0.29733 -0.022,-0.11141 -0.157,-0.30043 -0.3,-0.42006 -0.143,-0.11962 -0.26,-0.25532 -0.26,-0.30156 0,-0.04623 -0.06164,-0.12914 -0.13698,-0.18422 -0.11582,-0.08469 -0.12048,-0.12004 -0.0302,-0.22882 0.13187,-0.1589 0.0057,-0.34622 -0.25862,-0.38386 -0.13514,-0.01924 -0.168,-0.06964 -0.14656,-0.2248 0.0152,-0.11 0.0617,-0.2125 0.10334,-0.22778 0.04359,-0.016 0.0362,-0.07539 -0.01742,-0.14 -0.07154,-0.0862 -0.06767,-0.14292 0.01666,-0.24458 0.06038,-0.0728 0.11232,-0.2798 0.11541,-0.46 0.01196,-0.69765 0.03436,-0.76292 0.39303,-1.1453 0.19725,-0.21029 0.35925,-0.42177 0.36,-0.46995 0.0021,-0.13375 0.25577,-0.33355 0.50135,-0.39484 0.121,-0.0302 0.22,-0.08857 0.22,-0.12972 0,-0.04115 0.13006,-0.21539 0.28903,-0.3872 l 0.28903,-0.31239 0.77097,-0.0022 c 0.42403,-0.0012 1.0113,-0.0069 1.3051,-0.01267 0.84842,-0.01668 1.4916,0.35887 1.5859,0.92605 0.03454,0.20771 0.08674,0.25089 0.38246,0.31642 0.20306,0.04499 0.32808,0.11337 0.30713,0.16798 -0.01944,0.05065 0.05145,0.19311 0.15753,0.31656 0.10609,0.12346 0.19288,0.28041 0.19288,0.34878 0,0.06837 0.1649,0.27572 0.36646,0.46076 0.32276,0.29633 0.3557,0.35653 0.2763,0.5049 -0.04958,0.09265 -0.0657,0.20801 -0.03582,0.25635 0.02988,0.04835 0.06507,0.31433 0.0782,0.59106 0.02254,0.47506 0.01301,0.50588 -0.17063,0.55197 -0.21217,0.05325 -0.245,0.20192 -0.10313,0.467 0.0781,0.14594 0.06358,0.18872 -0.1,0.29474 -0.10526,0.06825 -0.33537,0.25183 -0.51137,0.40799 -0.176,0.15615 -0.473,0.35062 -0.66,0.43214 -0.187,0.08153 -0.34,0.20111 -0.34,0.26574 0,0.09596 -0.1045,0.11043 -0.56988,0.0789 -0.38492,-0.02607 -0.63929,-0.004 -0.78374,0.06809 -0.17736,0.08848 -1.4746,0.21248 -1.5449,0.14768 z m -21.429,-2.7906 c -0.01874,-0.01874 -0.19091,-0.04976 -0.3826,-0.06893 -0.27487,-0.02749 -0.40488,-0.09637 -0.61518,-0.32593 -0.19124,-0.20875 -0.33342,-0.29107 -0.50271,-0.29107 -0.1832,0 -0.32294,-0.0953 -0.62408,-0.4256 -0.51083,-0.56029 -1.068,-1.3805 -1.068,-1.5722 0,-0.08402 -0.03504,-0.17442 -0.07786,-0.20089 -0.04282,-0.02647 -0.13942,-0.17786 -0.21467,-0.33643 -0.07525,-0.15857 -0.21121,-0.36862 -0.30214,-0.46678 -0.21912,-0.23654 -0.52533,-0.81702 -0.52533,-0.99588 0,-0.07845 -0.05247,-0.18619 -0.1166,-0.23942 -0.07691,-0.06383 -0.10077,-0.17594 -0.07009,-0.32932 0.05218,-0.26092 -0.08434,-0.66947 -0.30741,-0.91989 -0.10306,-0.1157 -0.14412,-0.27456 -0.13478,-0.52144 0.01273,-0.33645 -0.08729,-0.61126 -0.31111,-0.85479 -0.055,-0.05984 -0.1,-0.18002 -0.1,-0.26707 0,-0.08704 -0.057,-0.26849 -0.12668,-0.40322 -0.06967,-0.13473 -0.14024,-0.45807 -0.15682,-0.71853 -0.01658,-0.26046 -0.05016,-0.50595 -0.07463,-0.54553 -0.02447,-0.03959 -0.0079,-0.09458 0.03682,-0.12222 0.12096,-0.07475 0.09832,-0.3593 -0.03258,-0.40953 -0.0662,-0.0254 -0.11288,-0.14995 -0.11149,-0.29749 0.0026,-0.27598 -0.06821,-0.64131 -0.17324,-0.89379 -0.10824,-0.26022 -0.23617,-0.86461 -0.2286,-1.08 0.0039,-0.11 -0.0314,-0.398 -0.07838,-0.64 -0.08494,-0.43758 -0.08086,-1.4002 0.0063,-1.4874 0.02511,-0.02511 -4.5e-5,-0.15972 -0.05591,-0.29914 -0.07284,-0.18179 -0.08432,-0.4419 -0.04058,-0.91976 0.03386,-0.36995 0.02869,-0.77889 -0.01163,-0.91947 -0.11412,-0.39791 -0.08579,-0.79864 0.08059,-1.14 0.13019,-0.26708 0.13594,-0.32404 0.03832,-0.3792 -0.06318,-0.0357 -0.08968,-0.10569 -0.05889,-0.15552 0.0308,-0.04983 0.06751,-0.43462 0.08158,-0.85508 0.01407,-0.42046 0.04826,-0.81848 0.07598,-0.88448 0.02772,-0.066 0.05979,-0.192 0.07127,-0.28 0.01148,-0.088 0.05636,-0.412 0.09973,-0.72 0.04609,-0.32733 0.04935,-0.59714 0.0078,-0.64939 -0.04387,-0.05523 -0.027,-0.1259 0.04415,-0.18495 0.06621,-0.05495 0.13863,-0.32298 0.17039,-0.63061 0.03038,-0.29428 0.1093,-0.59663 0.17538,-0.67189 0.07714,-0.08787 0.1059,-0.23103 0.08034,-0.4 -0.02243,-0.14833 0.0098,-0.36035 0.07393,-0.4859 0.06255,-0.12251 0.12178,-0.43271 0.13161,-0.68934 0.0098,-0.25663 0.05728,-0.51639 0.10542,-0.57725 0.08559,-0.1082 0.14664,-0.36993 0.26218,-1.1242 0.03147,-0.20544 0.09813,-0.42281 0.14813,-0.48306 0.05,-0.06025 0.12751,-0.46816 0.17225,-0.90648 0.04481,-0.43832 0.0968,-0.88694 0.1156,-0.99694 0.0584,-0.34161 0.21871,-1.4668 0.24794,-1.7402 0.0153,-0.1431 -0.0034,-0.2795 -0.04162,-0.3031 -0.07948,-0.04912 -0.0082,-0.51058 0.10026,-0.64934 0.03983,-0.05094 0.06444,-0.23094 0.05469,-0.4 -0.0097,-0.16906 0.02783,-0.39205 0.08352,-0.49555 0.05568,-0.1035 0.08151,-0.26362 0.0574,-0.35584 -0.02411,-0.09221 -0.0097,-0.20874 0.03193,-0.25896 0.04167,-0.05021 0.09542,-0.25009 0.11944,-0.44416 0.0687,-0.55511 0.20532,-0.85734 0.41086,-0.90892 0.21348,-0.05358 0.44889,-0.45441 0.37696,-0.64186 -0.06554,-0.17079 0.17141,-0.42084 0.45856,-0.48391 0.12744,-0.02799 0.2317,-0.08311 0.2317,-0.12248 0,-0.09927 0.46969,-0.33303 0.58542,-0.29137 0.05202,0.01873 0.1585,0.0012 0.23662,-0.03905 0.22205,-0.11427 1.978,-0.13745 1.978,-0.02611 0,0.08711 0.11663,0.15789 0.8185,0.49672 0.19968,0.0964 0.33623,0.2368 0.41247,0.4241 0.06269,0.154 0.18036,0.34138 0.2615,0.41639 0.79756,0.73734 0.80241,0.74346 0.80164,1.01 -5.6e-4,0.19464 0.05788,0.31314 0.21707,0.44007 0.19429,0.15492 0.21945,0.23128 0.23264,0.70601 0.01135,0.40858 -0.01759,0.56808 -0.12451,0.68623 -0.07662,0.08466 -0.1393,0.27284 -0.1393,0.41819 0,0.14534 -0.07199,0.38074 -0.15997,0.5231 -0.10122,0.16377 -0.16971,0.43738 -0.18648,0.74495 -0.01458,0.26736 -0.07325,0.54244 -0.13038,0.61128 -0.06436,0.07755 -0.08673,0.23087 -0.05879,0.40302 0.0248,0.15282 0.0097,0.29971 -0.03348,0.32642 -0.04411,0.02726 -0.05759,0.19456 -0.03073,0.38147 0.04318,0.30042 -0.17565,1.4191 -0.32481,1.6604 -0.02703,0.04373 -0.0046,0.13316 0.04981,0.19873 0.07872,0.09486 0.07796,0.15844 -0.0037,0.3111 -0.05648,0.10553 -0.08053,0.24961 -0.05345,0.32018 0.02708,0.07057 -0.0073,0.28 -0.07637,0.4654 -0.06909,0.1854 -0.12278,0.40909 -0.11931,0.49709 0.0035,0.088 -0.02583,0.232 -0.06509,0.32 -0.13867,0.3108 -0.50286,2.3 -0.51994,2.84 -0.0063,0.198 -0.05546,0.43863 -0.10932,0.53474 -0.05386,0.09611 -0.09793,0.32467 -0.09793,0.50791 0,0.18324 -0.05154,0.44661 -0.11453,0.58526 -0.063,0.13865 -0.13263,0.41409 -0.15474,0.61209 -0.02211,0.198 -0.08004,0.576 -0.12872,0.84 -0.17515,0.94975 -0.22133,2.5475 -0.1295,4.48 0.05265,1.1079 0.21999,2.4261 0.33075,2.6053 0.03148,0.05094 0.0099,0.12185 -0.04786,0.15758 -0.07447,0.04603 -0.08102,0.09588 -0.02246,0.17106 0.04545,0.05835 0.08809,0.38089 0.09475,0.71674 0.0072,0.36381 0.06046,0.70335 0.13172,0.84 0.06579,0.12615 0.11984,0.30316 0.12011,0.39336 2.4e-4,0.0902 0.03346,0.1982 0.07375,0.24 0.04029,0.0418 0.09294,0.256 0.117,0.476 0.07301,0.6676 0.21068,1.3036 0.33293,1.5379 0.06371,0.12214 0.11606,0.2783 0.11633,0.34704 2.4e-4,0.06874 0.07249,0.274 0.16049,0.45614 0.088,0.18214 0.16,0.40278 0.16,0.4903 0,0.08753 0.03655,0.18173 0.08121,0.20934 0.04467,0.0276 0.13492,0.17874 0.20056,0.33584 0.09057,0.21676 0.09726,0.31227 0.02775,0.39603 -0.07023,0.08463 -0.06103,0.14416 0.03944,0.25518 0.09048,0.09997 0.13104,0.29212 0.13104,0.6207 0,0.30884 0.04541,0.54073 0.12935,0.66058 0.08641,0.12337 0.11464,0.27535 0.08503,0.4578 -0.02438,0.15022 -0.01059,0.27312 0.03065,0.27312 0.04123,0 0.07497,0.1188 0.07497,0.264 0,0.1452 0.04006,0.30406 0.08903,0.35303 0.13994,0.13994 0.0065,0.26297 -0.28519,0.26297 -0.16692,0 -0.2845,0.04632 -0.31422,0.12379 -0.02613,0.06809 -0.15598,0.16161 -0.28856,0.20782 -0.13258,0.04622 -0.24398,0.10751 -0.24755,0.13621 -0.0036,0.0287 -0.01386,0.15328 -0.02285,0.27686 -0.009,0.12357 -0.05107,0.24966 -0.0935,0.2802 -0.65093,0.46846 -1.0213,0.65512 -1.3,0.65512 -0.17078,0 -0.32584,-0.01534 -0.34458,-0.03407 z m 20.244,-33.902 c -0.05591,-0.14495 -0.11168,-0.3426 -0.12394,-0.43923 -0.01226,-0.09663 -0.06113,-0.24828 -0.10862,-0.33701 -0.04749,-0.08873 -0.1025,-0.26167 -0.12224,-0.38432 -0.01974,-0.12264 -0.0583,-0.31631 -0.0857,-0.43036 -0.03303,-0.13756 -0.0067,-0.25048 0.07822,-0.3354 0.11514,-0.11514 0.11555,-0.13501 0.0041,-0.19742 -0.08407,-0.04705 -0.13221,-0.21738 -0.14949,-0.52897 -0.01402,-0.25277 -0.06673,-0.50082 -0.11713,-0.55121 -0.05039,-0.05039 -0.09162,-0.20166 -0.09162,-0.33615 0,-0.13449 -0.03496,-0.36642 -0.07768,-0.51539 -0.04273,-0.14897 -0.05336,-0.31022 -0.02363,-0.35832 0.06948,-0.11243 0.02717,-0.60934 -0.06685,-0.78501 -0.07093,-0.13253 -0.14287,-0.82649 -0.18504,-1.7848 -0.01162,-0.264 -0.0499,-0.56911 -0.08507,-0.67803 -0.09534,-0.29524 -0.10859,-1.3868 -0.01824,-1.5035 0.0537,-0.06936 0.04021,-0.14536 -0.04262,-0.24 -0.1652,-0.18877 -0.36804,-1.0407 -0.32199,-1.3525 0.02063,-0.13968 -0.0038,-0.37896 -0.05416,-0.53172 -0.09101,-0.27577 -0.14047,-0.83542 -0.20278,-2.2943 -0.01785,-0.418 -0.06737,-0.87454 -0.11005,-1.0145 -0.04267,-0.14 -0.0659,-0.446 -0.05162,-0.68 0.01428,-0.23401 -0.02223,-0.60546 -0.08115,-0.82546 -0.0589,-0.22 -0.1015,-0.472 -0.09464,-0.56 0.02734,-0.35093 -0.12924,-2.2859 -0.18791,-2.3221 -0.03449,-0.02131 -0.06355,-0.34432 -0.06459,-0.71779 -0.001,-0.37347 -0.02279,-0.71285 -0.04833,-0.75417 -0.0495,-0.08009 -0.15347,-2.0166 -0.13347,-2.4859 0.0066,-0.154 0.02046,-0.93661 0.03087,-1.7391 0.01454,-1.1205 0.04342,-1.4685 0.12446,-1.4996 0.06377,-0.02447 0.08591,-0.10225 0.05596,-0.19661 -0.05195,-0.16368 -0.0501,-1.6170002 0.0041,-3.2447002 0.01759,-0.528 0.02726,-1.104 0.02147,-1.28 -0.01068,-0.32503 -0.0086,-0.48168 0.0111,-0.84 0.0061,-0.11 -0.01119,-0.40975 -0.03831,-0.66611 -0.0305,-0.28841 -0.01645,-0.5057 0.03688,-0.56996 0.08079,-0.09735 0.06163,-0.5781 -0.04382,-1.0992 -0.02396,-0.11842 -0.0019,-0.29309 0.04894,-0.38817 0.05088,-0.09507 0.09027,-0.41228 0.08754,-0.7049 -0.0047,-0.50213 0.0109,-0.54889 0.27766,-0.83163 0.15546,-0.16477 0.2633,-0.33089 0.23966,-0.36915 -0.08093,-0.13094 0.33858,-0.46667004 1.3486,-1.07930004 0.1346,-0.08164 0.25673,-0.18064 0.27139,-0.22 0.04901,-0.1315 0.40102,-0.07361 0.78102,0.12844 0.28251,0.15021 0.49766,0.20007 0.86423,0.2003 0.47742,3.2e-4 1.0081,0.20592 1.0081,0.39062 0,0.0403 0.126,0.14762 0.28,0.23848004 0.154,0.09086 0.28,0.20993 0.28,0.26459 0,0.05466 0.18,0.27106 0.4,0.4809 0.22,0.20984 0.4,0.41392 0.4,0.45352 0,0.0396 0.05564,0.11818 0.12364,0.17462 0.068,0.05644 0.10482,0.15166 0.08182,0.21161 -0.02301,0.05995 0.02936,0.18018 0.11636,0.26718 0.087,0.087 0.15818,0.19119 0.15818,0.23152 0,0.04033 0.03666,0.08555 0.08147,0.10049 0.1015,0.03383 0.1204,1.6255 0.04114,3.4662 -0.05259,1.2212 -0.06482,1.9269 -0.04266,2.46 0.0042,0.099 -0.01636,0.45 -0.0455,0.78 -0.05336,0.6041402 -0.05893,0.7209002 -0.05532,1.1600002 0.0043,0.52727 -0.07022,1.88 -0.14111,2.56 -0.04128,0.396 -0.08743,1.152 -0.10255,1.68 -0.01512,0.528 -0.05378,1.0396 -0.08591,1.137 -0.03218,0.0975 -0.01835,0.25183 0.03079,0.34366 0.07418,0.13862 0.17056,1.8751 0.17534,3.1594 8e-4,0.176 0.03349,0.38082 0.07297,0.45514 0.04376,0.0824 0.04152,0.15384 -0.0058,0.18305 -0.08799,0.05438 -0.05586,0.62099 0.05227,0.9218 0.07222,0.20092 0.07417,0.89219 0.0029,1.0145 -0.021,0.03602 0.0087,0.33548 0.06605,0.66548 0.06174,0.35546 0.074,0.61087 0.03006,0.62667 -0.09983,0.0359 -0.09445,0.36104 0.0077,0.46316 0.045,0.045 0.09698,0.4495 0.11552,0.89888 0.01854,0.44938 0.05518,0.88474 0.08143,0.96745 0.02626,0.08271 0.0175,0.16907 -0.01945,0.1919 -0.03695,0.02284 -0.05576,0.23287 -0.04181,0.46673 0.02697,0.45199 0.08262,1.9728 0.09898,2.7052 0.0054,0.242 -0.0053,0.782 -0.02376,1.2 -0.01848,0.418 0,0.89583 0.04041,1.0618 0.0407,0.16602 0.04923,0.34193 0.01895,0.39093 -0.03028,0.04899 -0.06223,0.28066 -0.07101,0.51481 -0.0088,0.23415 -0.05838,0.47685 -0.11024,0.53934 -0.06756,0.0814 -0.0712,0.17436 -0.01285,0.32784 0.06136,0.16138 0.05191,0.27134 -0.03828,0.44576 -0.06585,0.12734 -0.11973,0.34132 -0.11973,0.4755 0,0.27143 -0.04752,0.29791 -0.2337,0.13021 -0.06946,-0.06257 -0.2221,-0.13767 -0.33919,-0.16689 -0.20516,-0.05119 -0.2164,-0.03627 -0.30916,0.41056 -0.05294,0.25502 -0.14778,0.54231 -0.21075,0.63842 -0.07042,0.10748 -0.0943,0.25521 -0.06202,0.38379 0.03427,0.13656 0.0057,0.28045 -0.08243,0.41493 -0.07419,0.11323 -0.1158,0.25565 -0.09246,0.31647 0.02334,0.06083 -0.04667,0.18069 -0.15558,0.26635 -0.10891,0.08567 -0.23803,0.27054 -0.28694,0.41083 -0.09108,0.26128 -0.21412,0.28416 -0.64054,0.11912 -0.09114,-0.03527 -0.14927,5.6e-4 -0.18538,0.1144 -0.08431,0.26564 -0.25783,0.18421 -0.20989,-0.0985 0.006,-0.03536 -0.04813,-0.12332 -0.12028,-0.19547 -0.12158,-0.12158 -0.13926,-0.12015 -0.24143,0.01958 -0.06063,0.08292 -0.11024,0.23262 -0.11024,0.33266 0,0.21796 -0.15569,0.30905 -0.65094,0.38084 -0.36381,0.05273 -0.3729,0.0487 -0.4726,-0.20978 z m 1.4647,-0.83136 c 0.07786,-0.07785 -0.02904,-0.27218 -0.14971,-0.27218 -0.06129,0 -0.11144,0.072 -0.11144,0.16 0,0.15061 0.1558,0.21753 0.26115,0.11218 z m 2.5172,-2.7273 c 0.02943,-0.08832 -0.21197,-0.21794 -0.27972,-0.15019 -0.02114,0.02114 -0.01596,0.09698 0.0115,0.16854 0.05268,0.13728 0.22017,0.12582 0.26822,-0.01835 z m -28.051,-22.506 c -0.15005,-0.08372 -0.31025,-0.18966 -0.356,-0.23541 -0.04575,-0.04575 -0.16568,-0.08318 -0.2665,-0.08318 -0.10083,0 -0.22829,-0.072 -0.28324,-0.16 -0.05496,-0.088 -0.1425,-0.16 -0.19454,-0.16 -0.05204,0 -0.20158,-0.09 -0.3323,-0.2 -0.13073,-0.11 -0.28093,-0.2 -0.33379,-0.2 -0.15089,-2e-6 -0.5608,-0.31934 -0.5608,-0.43689 0,-0.0583 -0.05061,-0.12541 -0.11246,-0.14915 -0.06185,-0.02373 -0.13685,-0.1542102 -0.16666,-0.2899502 -0.03396,-0.15462 -0.13554,-0.28886 -0.27197,-0.35941 -0.24911,-0.12882 -0.40891,-0.42725 -0.40891,-0.76365 0,-0.12733 -0.03202,-0.2513 -0.07116,-0.27549 -0.10129,-0.0626 -0.15468,-0.60641 -0.08418,-0.85737 0.03389,-0.12063 0.02478,-0.24666 -0.02115,-0.29259 -0.05424,-0.05424 -0.02544,-0.11025 0.0879,-0.17091 0.09272,-0.04963 0.16859,-0.16096 0.16859,-0.24741 0,-0.08645 0.03739,-0.15719 0.08309,-0.15719 0.10528,0 0.5976,-0.48618 0.99239,-0.98 0.21126,-0.26425 0.36254,-0.38 0.49667,-0.38 0.10608,0 0.2136,-0.054 0.23892,-0.12 0.0337,-0.08783 0.17779,-0.12133 0.53749,-0.12495 0.27029,-0.0027 0.76144,-0.03336 1.0914,-0.06808 0.60682,-0.06386 0.85597,-0.01202 0.98398,0.20471 0.03519,0.05958 0.11508,0.10832 0.17754,0.10832 0.17816,0 0.74002,0.31649 0.78915,0.44452 0.02437,0.06351 0.13159,0.11548 0.23826,0.11548 0.10667,0 0.21395,0.05212 0.2384,0.11582 0.02444,0.0637 0.1633,0.17701 0.30856,0.25181 0.42295,0.21778 0.94412,0.67919 0.94412,0.83587 0,0.07932 0.08494,0.24599 0.18874,0.37036 0.10381,0.12438 0.24781,0.34135 0.32,0.48216 0.07219,0.14081 0.17712,0.28481 0.23318,0.32 0.19222,0.12065 0.35268,0.46416 0.36347,0.77807 0.0059,0.17275 0.04766,0.35095 0.0927,0.396 0.04505,0.04505 0.08191,0.19828 0.08191,0.34052 0,0.18903 -0.04339,0.2723802 -0.16128,0.3098002 -0.0887,0.02815 -0.3317,0.22324 -0.54,0.43352 -0.25816,0.26062 -0.53153,0.43897 -0.85872,0.56026 -0.264,0.09786 -0.588,0.22604 -0.72,0.28484 -0.20881,0.09302 -0.83826,0.23578 -0.90282,0.20476 -0.01255,-0.006 -0.11277,0.05979 -0.2227,0.14626 -0.15981,0.12571 -0.2498,0.14291 -0.44888,0.08581 -0.14948,-0.04287 -0.38022,-0.04111 -0.5773,0.0044 -0.42692,0.0986 -0.44067,0.09712 -0.76111,-0.08168 z"
     stroke-width="0.08"
     id="path747" />
</svg>
