<?xml version="1.0" encoding="UTF-8" standalone="no"?>
<svg
   xmlns:dc="http://purl.org/dc/elements/1.1/"
   xmlns:cc="http://creativecommons.org/ns#"
   xmlns:rdf="http://www.w3.org/1999/02/22-rdf-syntax-ns#"
   xmlns:svg="http://www.w3.org/2000/svg"
   xmlns="http://www.w3.org/2000/svg"
   xmlns:sodipodi="http://sodipodi.sourceforge.net/DTD/sodipodi-0.dtd"
   xmlns:inkscape="http://www.inkscape.org/namespaces/inkscape"
   version="1.1"
   id="svg60"
   width="330.51682"
   height="230.35587"
   viewBox="0 0 330.51681 230.35587"
   sodipodi:docname="HiImLeigh.svg"
   inkscape:version="1.0.2 (e86c870879, 2021-01-15)">
  <metadata
     id="metadata66">
    <rdf:RDF>
      <cc:Work
         rdf:about="">
        <dc:format>image/svg+xml</dc:format>
        <dc:type
           rdf:resource="http://purl.org/dc/dcmitype/StillImage" />
        <dc:title></dc:title>
      </cc:Work>
    </rdf:RDF>
  </metadata>
  <defs
     id="defs64" />
  <sodipodi:namedview
     pagecolor="#ffffff"
     bordercolor="#666666"
     borderopacity="1"
     objecttolerance="10"
     gridtolerance="10"
     guidetolerance="10"
     inkscape:pageopacity="0"
     inkscape:pageshadow="2"
     inkscape:window-width="1920"
     inkscape:window-height="1052"
     id="namedview62"
     showgrid="false"
     inkscape:zoom="2.5461852"
     inkscape:cx="222.94119"
     inkscape:cy="156.70446"
     inkscape:window-x="0"
     inkscape:window-y="0"
     inkscape:window-maximized="1"
     inkscape:current-layer="g68"
     inkscape:document-rotation="0"
     fit-margin-top="10"
     fit-margin-left="10"
     fit-margin-right="10"
     fit-margin-bottom="10"
     lock-margins="true" />
  <g
     inkscape:groupmode="layer"
     inkscape:label="Image"
     id="g68"
     transform="translate(5.8807041,94.273404)">
    <path
       id="path72"
       style="fill:#000000;fill-opacity:1;stroke:none;stroke-width:0;stroke-miterlimit:4;stroke-dasharray:none"
       d="m 208.47546,126.06048 c -0.98633,0.0238 -1.97716,-0.26402 -2.68673,-0.49981 0.48757,0.50696 -0.41446,-0.15407 -0.63841,0.15715 -0.99756,-0.30888 -2.09614,-0.4264 -3.30009,-0.40119 -1.31039,-0.50324 -2.74071,-0.81236 -4.06719,-1.26365 -1.3602,-0.4736 -2.5294,-1.3145 -3.83427,-1.85056 -1.09599,-0.80635 -2.19179,-1.62152 -3.39109,-2.29292 -0.92803,-0.84546 -2.29872,-1.27929 -2.97381,-2.33003 -0.87711,-0.88742 -1.8054,-1.8356 -2.40687,-2.95546 -0.44316,-1.02804 -1.24387,-1.92142 -1.62072,-3.03217 0.2121,-0.20771 -0.57363,-0.50189 0.23481,-0.51244 -1.03306,-0.3012 -0.93733,-1.98677 -1.3741,-2.93844 -0.41516,-0.63974 0.2927,-1.18535 -0.34057,-1.73842 -0.20866,-1.05796 -0.0663,-2.47526 -0.0756,-3.08467 0.46005,-0.0806 -0.41279,-0.57467 0.33879,-0.65562 0.28198,-0.655 -0.08,-0.86306 0.0981,-1.45081 -0.38756,-0.72967 1.27567,-0.19191 0.91262,-1.215348 -0.0283,-1.098545 -1.2512,1.060758 -0.98885,-0.345943 -0.56405,-0.531897 0.83798,-0.09915 0.53745,-0.955927 -0.19954,-0.832407 0.83244,-1.214282 1.46272,-1.271058 -0.31761,-0.396237 -1.40312,0.210997 -0.71341,-0.582362 0.0429,-0.512881 -0.36089,-1.356976 0.55786,-1.187151 0.29881,-0.608969 -0.74906,-0.363354 -0.37498,-0.940509 -0.0745,-0.4708 0.89166,-0.464813 0.55229,-1.14616 0.93981,-1.138018 -0.33728,1.361812 0.65665,1.134922 0.13371,-0.2453 1.07031,-1.698749 0.81397,-0.606172 -0.0859,0.672344 -0.74038,1.729553 -0.0224,1.765232 -0.60607,0.424978 -0.44046,1.419299 0.2167,1.207234 -0.15331,-0.306792 0.60719,-0.613606 0.332,0.153354 -0.0179,0.826412 0.42411,1.45836 0.079,2.375347 0.75761,0.745031 0.31497,1.580991 0.28905,2.522191 -0.12983,0.88223 0.38405,1.85036 0.62905,0.56188 0.31706,1.34409 0.14259,2.79032 0.59765,4.11179 0.21739,1.42649 0.82079,2.76433 1.35741,4.10211 0.48236,0.77875 0.9287,1.4982 1.64444,2.25354 0.74833,0.71099 1.57182,1.43622 2.35202,2.1696 1.4248,1.11683 2.86799,2.28284 4.57234,2.94325 1.55421,0.85216 3.24741,1.44518 4.98459,1.81286 1.08842,0.43054 2.2845,0.32976 3.39594,0.67147 1.69253,0.10006 3.37996,0.30119 5.08024,0.18966 1.27843,-0.16438 2.52141,-0.033 3.76915,-0.32913 1.22878,-0.15709 2.44013,-0.38125 3.64381,-0.64932 1.33412,-0.098 2.41506,-0.80577 3.64942,-1.25638 0.89588,-0.6005 2.03665,-0.67872 2.67983,-1.35596 0.9876,-0.52145 1.86735,-1.2177 2.59717,-2.10819 0.86243,-0.94003 1.91705,-1.79205 2.40535,-2.97546 0.82832,-0.94373 1.36978,-2.0643 1.96726,-3.1488 0.279,-0.83385 0.97653,-0.98436 0.85026,-1.90845 0.17646,-0.9628 0.55023,-1.8518 0.74046,-2.78527 0.37425,-1.12631 0.45272,-2.26345 0.60579,-3.42833 -0.10897,-0.51829 0.48531,-1.587885 0.33908,-1.498678 -0.53492,-0.945992 -2.17554,0.09949 -3.10665,0.356852 -1.14341,0.08578 -2.14122,0.787566 -3.29003,0.913396 -1.23829,0.40342 -2.43687,0.61933 -3.64881,1.02553 -1.15935,0.5852 -2.4377,0.70895 -3.63578,1.18631 -1.58766,0.35549 -3.09334,1.02916 -4.69281,1.3504 -1.33729,0.59736 -2.76097,1.01483 -4.10464,1.61392 -1.08768,0.4466 -2.25076,0.7168 -3.36344,1.15199 -1.38992,0.42652 -2.73209,0.95207 -4.17786,1.18963 -1.29695,0.22636 -2.45168,0.68888 -3.75058,0.61153 -0.52667,0.63075 -1.4861,-0.27619 -2.00558,-0.60998 -0.85078,-0.75881 -2.18337,-1.45374 -2.20537,-2.74908 -0.75005,-1.22281 0.33214,-2.08003 1.18153,-2.6907 0.81117,-0.65882 2.14445,-0.65161 3.26244,-0.39121 1.77592,0.0706 3.52593,-0.32031 5.24182,-0.70456 1.12866,-0.54471 2.41691,-0.89958 3.62689,-1.31539 1.27916,-0.551222 2.62639,-0.942958 3.91628,-1.475972 1.68137,-0.420644 3.25144,-1.193323 4.94015,-1.576319 1.2437,-0.387754 2.48706,-0.739613 3.76466,-1.016407 1.11631,-0.443906 2.29575,-0.776631 3.45654,-1.136869 1.2886,-0.123792 2.39405,-0.894558 3.67115,-1.066281 1.40581,-0.370503 2.77879,-0.88539 4.23173,-1.184086 1.16805,-0.617956 0.0159,-2.362573 0.14869,-3.452567 -0.0185,-1.366824 -0.67809,-2.730707 -0.42057,-4.072263 -0.37593,-1.252583 -0.92618,-2.464643 -1.05872,-3.814574 -0.23519,-1.218365 -0.74517,-2.343568 -1.03544,-3.5502 -0.42732,-1.385514 -1.06543,-2.713502 -1.44982,-4.12033 -0.23131,-1.399917 -1.15295,-2.561563 -1.47154,-3.939999 -0.32535,-1.055474 -0.97724,-1.949296 -1.32401,-3.022804 -0.51148,-1.255836 -1.12267,-2.478809 -1.6685,-3.661086 -0.54314,-1.206963 -1.1,-2.435562 -1.60752,-3.61852 -0.13469,-1.027071 -0.93802,-1.296118 -1.36489,-0.272659 -0.61513,1.060818 -1.44625,1.884112 -2.08427,2.931166 -0.81067,0.967788 -1.78559,1.793011 -2.65886,2.729615 -0.74496,0.851344 -1.67429,1.506157 -2.35916,2.335935 -0.7782,0.947152 -1.88028,1.468132 -2.77484,2.268574 -0.86824,0.753315 -1.51954,1.714853 -2.4097,2.464466 -0.99224,0.72752 -1.65628,1.886835 -2.85252,2.301152 -1.13296,0.627015 -2.30949,1.063521 -3.60281,1.19545 -1.23132,0.46029 -2.66799,0.39824 -3.81556,-0.271475 -1.32941,-0.04486 -2.23901,-0.902924 -3.21013,-1.703531 -0.81997,-0.694516 -1.62827,-1.440369 -2.13175,-2.421175 -0.79921,-0.898204 -1.14388,-2.26888 -1.52809,-3.33373 -0.39447,-1.027928 -0.6548,-2.107966 -0.83874,-3.224128 -0.23349,-1.245662 -0.46335,-2.448586 -0.4921,-3.72 -0.1637,-0.881312 0.21711,-2.299685 -0.37357,-2.873317 -0.89393,0.746415 -1.57938,1.743734 -2.13194,2.752806 -0.67449,1.147397 -1.88884,1.601715 -2.66641,2.585047 -0.72223,0.793822 -1.43105,1.628277 -2.15681,2.432146 -1.27507,0.941718 -2.20576,2.321577 -3.57228,3.169753 -0.93075,1.25538 -2.2913,2.121926 -3.45387,3.140239 -0.9307,0.820736 -2.03678,1.527755 -3.0852,2.283655 -0.89059,0.552179 -1.80535,1.093605 -2.80081,1.51714 -1.19844,0.536041 -2.44905,0.903693 -3.72897,1.204477 -1.46557,0.283737 -2.96807,0.214919 -4.43775,0.0041 -1.31989,-0.377623 -2.43155,-1.251024 -3.64596,-1.886612 -1.01278,-0.643601 -1.99855,-2.125503 -3.33609,-1.249429 -1.19951,0.374225 -2.22283,1.146422 -3.48848,1.31565 -1.1228,0.276266 -2.16918,0.78543 -3.30105,1.022811 -1.22554,0.471597 -2.51696,0.738674 -3.75722,1.170572 -1.26029,0.219482 -2.52085,0.446538 -3.73363,0.789391 -1.30588,0.326883 -2.62565,0.593425 -3.9752,0.685857 -1.933,0.164086 -3.89511,0.197262 -5.79751,-0.217406 -1.07243,-0.625554 -2.47035,-0.670749 -3.29387,-1.614276 -0.95574,-0.744015 -1.90891,-1.474143 -2.62969,-2.457195 -0.63582,-1.038167 -1.12213,-2.173783 -1.59691,-3.291431 -0.0944,-1.102169 -0.46385,-2.130549 -0.68646,-3.197557 -0.20556,-1.346853 -0.28917,-2.720968 -0.36405,-4.089987 -0.0991,-1.347863 0.0322,-2.716737 0.17786,-4.036251 -0.18304,-1.121412 0.23337,-2.227225 0.12181,-3.320159 0.39714,-1.223697 0.17994,-2.435441 0.37608,-3.695313 0.28328,-1.353319 0.44791,-2.595889 0.51209,-3.957239 0.19935,-1.180157 0.37611,-2.418386 0.31297,-3.707381 0.035,-1.151818 0.26209,-2.401668 0.55255,-3.439347 0.26674,-1.098315 0.17895,-2.405877 0.60126,-3.535511 0.3933,-0.781775 0.25973,-1.730687 0.28685,-2.590938 0.64891,-0.812988 0.29488,-1.735278 0.47001,-2.733956 -0.0202,-1.407436 0.42577,-2.773444 0.36571,-4.17393 0.29293,-1.398554 0.58171,-2.825829 0.64633,-4.268416 0.35219,-1.336107 0.3101,-2.723327 0.72201,-4.034487 -0.0641,-1.1652 0.6182,-2.326153 0.71782,-3.586659 0.14782,-1.156037 0.51998,-2.254346 0.46559,-3.429442 0.0601,-0.930591 0.52978,-2.119072 1.42686,-2.610047 0.89935,-0.743459 2.76982,-0.794304 3.54722,-0.01082 1.0929,0.743859 2.11728,1.819453 2.53287,3.060138 0.63489,1.141819 -0.34999,2.26645 -0.42746,3.351938 -0.37976,1.287677 -0.32818,2.311351 -0.78609,3.609027 -0.1785,1.43189 -0.81991,2.794001 -0.83801,4.247167 -0.37184,1.075992 -0.4788,2.212465 -0.69204,3.338216 -0.0446,1.201065 -0.43565,2.338389 -0.31245,3.533623 -0.32174,1.446859 -0.45673,2.913656 -0.76701,4.367784 -0.12168,1.263687 -0.40355,2.462213 -0.63981,3.665594 -0.2333,1.135526 -0.14476,2.435064 -0.65845,3.455078 -0.005,1.304617 -0.18357,2.626722 -0.43077,3.90161 -0.25935,1.200049 -0.30623,2.431861 -0.56475,3.657545 -0.33598,2.761661 -0.32225,5.552949 -0.54999,8.324553 -0.0465,1.226596 -0.11101,2.369945 -0.0449,3.557635 -0.18074,1.335205 -0.15671,2.758227 0.12238,4.125553 0.20472,1.167931 0.37629,2.348961 0.87282,3.440628 0.35278,1.211803 1.37292,2.356879 2.72774,2.252667 1.26801,0.232805 2.5596,-0.05219 3.85596,-0.141166 1.31892,-0.230757 2.61831,-0.52758 3.9307,-0.817772 1.26253,-0.243787 2.44728,-0.732743 3.69674,-1.004128 1.36088,-0.303595 2.66983,-0.787496 3.98922,-1.233908 1.42623,-0.378388 2.81784,-0.944498 4.14703,-1.588969 -0.0445,-1.269468 -0.50992,-2.522041 -0.59783,-3.804547 -0.007,-1.072014 0.0762,-2.120249 -0.11049,-3.193945 0.21087,-1.015209 -0.3854,-2.532191 0.50957,-3.326067 0.13451,-0.486917 -0.64251,0.382163 -0.24633,-0.424748 0.24173,-1.057632 0.3036,-1.92878 0.51928,-2.912086 0.0329,-0.87758 0.39262,-1.539219 0.41389,-2.435974 0.36807,-1.15627 0.50514,-2.371894 1.04995,-3.480604 0.23905,-1.063655 1.0165,-1.95815 1.19083,-3.018724 0.59235,-0.875735 0.9139,-1.980955 1.41222,-2.892614 0.73265,-0.888808 1.0836,-1.987145 1.78541,-2.910331 0.69308,-0.978737 1.60187,-1.767586 2.2325,-2.716971 0.92106,-1.122194 2.06861,-1.943889 3.09475,-2.959068 1.05821,-1.186161 2.52642,-1.917525 4.05746,-2.285646 2.06164,-0.785311 4.42308,-0.584367 6.33303,0.510719 1.03746,0.686834 2.08415,1.473487 2.88637,2.426346 0.85973,0.820593 1.40014,1.852197 2.0927,2.797765 0.461,1.060275 0.59085,2.197572 0.59181,3.361597 -0.0785,1.055871 -0.48576,2.172821 -0.99974,3.176293 -0.55454,1.186201 -1.28296,2.214496 -2.07279,3.266258 -0.86564,0.970011 -1.65184,2.140711 -2.90664,2.640316 -1.07115,0.710987 -1.60895,1.931461 -2.54728,2.732723 -0.97473,0.700521 -1.71674,1.656817 -2.59684,2.432057 -1.05728,0.722933 -1.74311,1.704125 -2.824,2.406631 -0.93574,0.717691 -1.76329,1.675695 -2.85991,2.081717 -0.82977,0.696534 -2.15164,0.499229 -3.14026,0.239592 -1.33549,-0.778813 -1.13837,1.138286 -1.14855,2.002886 0.19844,0.906905 -0.36334,2.684106 0.51511,3.112516 1.25385,-0.191506 2.43097,-1.934615 3.67756,-1.238964 -0.0652,0.69251 0.75803,1.297744 0.93411,1.845436 0.83525,0.258023 1.46813,1.608298 0.46295,2.251493 -0.34174,1.343775 -2.05722,1.673737 -2.46094,2.805966 1.40615,1.039538 3.29816,0.730995 4.80348,0.08321 1.52325,-0.540767 2.75155,-1.613153 4.0939,-2.464491 0.89638,-0.866869 1.95819,-1.626717 2.8694,-2.536063 0.94746,-0.499468 1.42454,-1.377501 2.3414,-1.999839 1.07709,-0.623776 1.61183,-1.684848 2.60992,-2.451117 0.69999,-0.557243 1.09653,-1.359835 1.89632,-1.512744 -0.0742,-1.148836 1.48609,-1.206029 1.77839,-2.194964 0.93538,-0.750063 1.59417,-1.516367 2.18535,-2.47189 0.70194,-0.943579 1.42853,-1.833538 2.09212,-2.790642 0.66922,-0.873218 1.38109,-1.911727 1.78177,-2.868266 0.24113,-0.865999 2.3151,-1.154472 1.13176,-1.870332 0.39658,-1.174595 0.98121,-2.243223 1.47487,-3.394012 0.44326,-0.949421 -0.10505,-2.348447 1.03746,-2.7782 0.42003,-1.006774 1.4753,-1.233075 2.4148,-1.513583 0.97026,0.0079 2.21615,-0.06625 2.54556,0.943732 0.63448,0.787335 1.46868,1.552536 1.62369,2.609616 0.70564,0.755757 -0.13857,1.334702 0.0869,2.188006 -0.23096,1.033945 -0.57701,2.09097 -0.67774,3.254135 -0.22135,1.103611 -0.15984,2.266573 -0.35326,3.391346 -0.0437,1.362169 -0.0801,2.726494 -0.1814,4.08483 0.0982,1.1918 -0.089,2.490203 0.0102,3.732594 -0.002,1.240868 0.0687,2.311809 0.18775,3.596264 0.15258,1.201911 0.28015,2.360253 0.71043,3.4905 0.32061,0.959686 0.62141,1.78868 1.36485,2.446181 1.22825,0.77256 2.2552,-0.471195 3.2865,-0.987354 0.92463,-0.698148 1.86118,-1.42493 2.79488,-2.158356 0.52564,-0.838919 2.75585,-1.689301 1.80342,-2.767719 -1.56436,-2.017138 -2.08926,-4.67547 -1.78884,-7.177841 0.64938,-1.152791 0.37363,-2.543449 1.10312,-3.648111 0.30717,-1.237903 1.02595,-2.289861 1.70933,-3.334976 0.84615,-0.746828 1.38583,-1.75643 2.07621,-2.683687 1.50144,-1.999773 3.24394,-3.833754 5.12653,-5.478221 1.09119,-0.716534 2.2162,-1.381147 3.50214,-1.766181 1.18492,-0.107576 2.31285,-0.767109 3.52178,-0.523338 1.46839,-0.05343 2.53537,0.959103 3.52359,1.88887 0.70652,1.018207 1.35937,2.026809 1.78398,3.184002 0.26192,1.343519 -0.13368,2.663574 -0.55051,3.925914 -0.61186,1.207531 -0.9782,2.47476 -1.61606,3.672755 -0.18944,1.171707 1.01977,2.321973 1.36183,3.492586 0.37662,1.230123 1.01776,2.373623 1.38575,3.599597 0.54527,0.872003 0.68738,2.27694 1.52793,2.818313 -0.003,-1.024403 0.67252,-2.441592 -0.0918,-3.251696 -0.033,-1.161194 -0.1909,-2.415976 0.26282,-3.494126 -0.3823,-1.0283 -0.39309,-2.059267 -0.43371,-3.159253 0.40382,-1.246699 -0.26814,-2.503688 -0.0857,-3.81284 0.0818,-0.680848 -0.0147,-1.911856 0.22966,-2.011941 -0.49961,-0.946302 0.14758,-2.210286 -0.0943,-3.289765 0.38198,-0.30298 -0.44923,-1.337345 0.0299,-2.079699 0.16318,-1.214811 0.46317,-2.40228 0.26103,-3.623264 0.857,-0.678509 0.0257,-2.173148 0.23162,-3.055668 0.0732,-1.138321 -0.11571,-2.508844 0.24069,-3.69848 0.32029,-1.388832 0.15881,-2.832742 0.47572,-4.205875 0.3753,-1.575156 0.34308,-3.234394 0.90977,-4.763193 0.0817,-1.327713 0.65356,-2.582764 0.93002,-3.884058 0.39491,-1.343794 0.93196,-2.662503 1.17241,-4.023397 0.43687,-1.001565 1.02317,-2.068302 1.12386,-3.221419 0.30338,-1.0385918 0.89314,-2.0891987 1.99439,-2.5180505 0.72157,-0.4628817 2.16899,-0.3433077 2.94204,0.14067 1.10398,0.5881203 1.83838,1.7181348 2.61056,2.6370955 0.38188,1.34981 -0.45342,2.522455 -0.88863,3.706705 -0.33382,1.039369 -0.67726,2.13274 -1.14396,3.12947 -0.47518,1.196062 -0.88272,2.422922 -1.06774,3.714039 -0.60494,1.456497 -0.79384,3.026011 -1.11607,4.557448 -0.19774,1.368514 -0.40914,2.565243 -0.59255,3.935432 -0.33972,1.298332 -0.31421,2.345264 -0.45204,3.781035 0.006,1.352395 -0.27724,2.627128 -0.30022,3.97268 -0.10654,1.195356 -0.4285,2.292689 -0.19333,3.482446 -0.12159,1.298701 0.0134,2.614236 -0.11106,3.919844 -0.16702,2.849428 -0.0537,5.700823 -0.0717,8.547179 -0.19242,0.727431 0.23111,2.004377 0.11914,2.957684 0.0304,0.962144 -0.16889,2.674485 0.4754,3.101136 0.25117,-0.625138 0.90885,-0.857066 1.13533,-1.416149 0.085,-0.674854 0.44296,-2.110689 1.15259,-2.809962 0.38057,-1.031855 0.80151,-2.296321 1.80933,-2.908058 -0.49645,-0.316199 0.37734,-1.005254 0.0939,-1.205836 -0.14118,-0.885798 1.37355,-1.336936 1.1377,-2.473894 0.23037,-0.510899 0.48487,-0.469327 0.19838,-0.731799 0.96089,-0.130204 0.61921,-1.886695 1.28439,-1.594316 0.57804,0.345767 -0.26966,-0.863501 0.26402,-1.043149 0.0888,-0.785262 0.67341,-1.305397 1.00097,-1.931229 0.3339,-0.504684 0.60376,-1.083209 1.041,-1.163018 -0.39116,-0.332513 0.28458,-1.229707 0.78772,-1.214112 -1.19993,-0.233372 0.90595,-0.88207 0.21333,-0.878803 0.33419,-0.471685 0.98201,-0.426676 0.34206,-0.863483 0.61866,0.266523 1.0366,-0.298712 0.60764,-0.825448 0.28475,-0.190362 0.88502,-0.646056 0.5567,-0.827169 1.06668,0.132554 0.92257,-1.235007 1.95622,-1.287738 -0.6445,-0.617846 0.31621,-1.532236 0.84096,-1.565866 0.13313,-0.95074 1.51335,-0.590178 1.61252,-1.755512 0.79982,-0.742295 1.75461,-1.300043 2.61875,-1.964041 1.13924,-0.457408 2.06828,-1.206389 3.27514,-1.487146 1.11276,-0.40626 2.24146,-0.705707 3.44258,-0.569758 1.45841,0.0661 3.02765,0.465337 4.04501,1.57825 0.84945,0.787444 1.80572,1.504389 2.30166,2.576822 0.49628,1.051714 0.96213,2.136423 1.03538,3.308123 0.37538,1.334496 0.0296,2.718026 0.20869,4.050804 -0.0388,1.190019 -0.25173,2.335931 -0.28586,3.466519 -0.005,1.107617 -0.0617,2.307162 -0.33053,3.446568 -0.0907,1.175398 -0.23182,2.317012 -0.49794,3.414762 -0.36605,1.204169 -0.34068,2.492584 -0.74631,3.687032 -9.3e-4,1.301191 -0.59496,2.486587 -0.67763,3.767582 -0.22616,1.234775 -0.30212,2.502664 -0.58253,3.704123 -0.2568,1.187818 -0.13971,2.607152 -0.30242,3.900756 -0.0398,1.293541 -0.74757,2.603021 -1.23874,3.630238 -0.59767,0.634348 -1.71207,1.296887 -2.47862,1.360873 -0.24048,-0.74636 -1.47291,0.434855 -2.05721,-0.377723 -0.68959,-0.517723 -2.23632,-1.33653 -1.71397,-2.198095 0.2468,-1.027436 0.72363,-1.783703 0.79411,-2.90188 0.37178,-1.997107 0.31822,-4.050063 0.51139,-6.066746 0.10909,-0.999265 0.0659,-1.958087 0.23628,-3.066926 0.29477,-1.015196 0.17495,-2.219694 0.59315,-3.234029 -0.0285,-0.713604 0.57055,-1.998747 0.63262,-2.193144 -0.46848,0.366746 0.14087,-1.370323 0.25268,-1.837453 0.2436,-1.134438 0.43249,-2.289316 0.61246,-3.47049 0.22788,-1.245761 0.20794,-2.295171 0.235,-3.444004 -0.0575,-1.246986 -0.016,-2.53942 -0.009,-3.821921 0.15744,-1.091868 -0.0587,-2.187273 -0.53058,-3.179864 -1.27634,-0.252554 -2.4025,0.708378 -3.42287,1.347484 -0.91986,0.69231 -1.86918,1.336312 -2.729,2.097569 -0.58903,1.145043 -1.74367,1.863478 -2.42329,2.976343 -0.68863,1.105553 -1.56525,2.089235 -2.17239,3.23373 -0.61009,0.804353 -1.07026,1.617834 -1.64424,2.405285 -0.36051,0.930975 -0.9877,1.883057 -1.44488,2.82738 -0.55105,1.215277 -1.19231,2.374674 -1.71667,3.613666 -0.45614,1.253784 -1.22151,2.40146 -1.58552,3.658916 -0.51831,1.23524 -1.09174,2.399078 -1.62463,3.613633 -0.2161,1.10506 -0.7496,2.094796 -1.19854,3.126247 -0.44616,1.159678 -1.2234,2.197402 -1.50286,3.413905 -0.61015,1.325487 -1.10523,2.734123 -1.64312,4.082766 -0.30656,0.912106 0.19187,1.931601 -0.93156,2.465562 -0.44844,0.583219 -0.91917,1.118145 -1.30217,1.01073 -0.62169,0.874416 -2.78729,-0.151046 -1.93984,1.54617 0.40424,1.228168 0.80891,2.447754 1.17538,3.696712 0.3588,1.217678 0.48125,2.303121 0.88068,3.443958 0.43745,1.233628 0.45104,2.555916 0.74047,3.81103 0.32978,1.055536 0.34998,2.128156 0.62813,3.208261 -0.1045,1.167922 1.4179,0.145489 2.04484,0.253722 1.18734,-0.402417 2.40016,-0.512631 3.61752,-0.808376 1.31714,0.01952 2.42927,-0.774884 3.76444,-0.846385 1.56443,-0.349168 3.15636,-0.48866 4.6762,-1.027162 1.12987,-0.169396 2.13402,-0.352338 3.22502,-0.449493 0.31453,0.347012 1.97128,0.585962 1.08695,0.09202 -0.28738,-0.271859 0.66446,-0.746475 1.33646,-0.768643 1.19542,-0.218705 2.47233,-0.447113 3.57696,-0.723532 1.30116,0.0062 2.41452,-0.542917 3.69346,-0.656228 0.65588,0.02183 1.64874,-0.512923 2.41041,-0.34952 0.44671,0.416458 0.60453,-0.757082 1.40004,-0.453267 1.1609,0.03154 2.35623,-0.508605 3.36537,-0.373883 1.10867,-0.08271 1.99865,-0.514191 3.08544,-0.799783 0.37402,-0.06835 0.04,0.602092 0.70765,0.06261 0.71355,-0.112511 1.4238,0.342743 1.45155,0.998903 0.33365,-0.469739 -0.22929,-1.613869 0.96696,-1.536733 1.22892,0.01323 2.42679,-0.642231 3.60161,-0.457425 1.17173,-0.379525 2.52315,-0.70846 3.80425,-0.780528 1.23622,-0.193718 2.46753,-0.43814 3.66056,-0.722411 0.6672,-0.281308 1.1015,-0.01262 1.36706,0.03651 0.66446,-0.724884 0.38891,0.52167 1.22389,-0.218341 0.31862,0.478696 -0.70464,0.666973 0.1056,0.788818 -0.37635,0.376944 0.38969,0.654617 -0.088,1.169413 0.13099,0.126794 -1.00764,0.644423 -0.14527,0.77259 0.37543,0.05778 1.92282,0.454903 1.09546,-0.123874 -0.96391,0.138543 0.54345,-0.721358 -0.49372,-1.100522 0.0101,-0.08942 1.85107,-1.278389 0.76087,-0.754126 -0.77043,0.117836 -0.78123,-0.37276 -0.0444,-0.561282 0.15764,-1.106094 1.55278,0.429053 1.47745,-0.694094 0.93005,-0.158014 1.96219,-0.578219 2.78671,-0.552331 0.57833,-0.217468 0.91074,0.366922 1.21452,-0.20003 1.14864,0.234192 2.27412,-0.443207 3.47806,-0.34778 0.61546,-0.09869 -0.64356,1.070415 -0.4032,1.023385 1.17668,0.445791 -1.2105,-0.158434 -0.55857,0.481718 0.48001,0.208451 1.24156,0.05748 0.76888,0.586127 -0.0142,0.530813 -1.00219,-0.218822 -0.45187,0.398209 -0.59949,0.04398 -0.36747,0.993456 0.23075,0.369221 0.0735,0.887957 0.89854,-0.948098 0.91477,-0.27087 -0.49082,0.724338 0.87375,-0.09858 1.22359,0.348773 1.18888,0.08536 -0.91753,-1.222298 -0.0459,-0.985933 0.64044,0.759948 1.95751,-0.451096 1.09971,-0.5259 -0.71854,-1.203004 2.05432,-0.07495 1.64949,-0.91759 0.91818,0.411733 -1.2419,0.550557 0.12938,0.958651 -0.21377,0.3276 -0.25846,1.494298 0.5471,1.045795 0.36157,0.218592 1.28406,1.018876 0.37199,0.805584 -0.44678,-0.466786 -0.0752,0.848384 -0.75969,0.250693 -0.61277,-0.321713 0.13058,0.784954 -0.33612,0.334287 -0.68913,-0.346891 -1.52448,1.073924 -2.55935,0.78538 -1.26328,0.301414 -2.58797,0.745395 -3.89665,0.58704 -0.98333,0.583309 -2.0845,0.305728 -3.0486,0.70832 -0.95542,0.284464 -2.11306,0.477812 -3.21421,0.672109 -1.0521,0.558749 -2.26049,-0.06071 -3.17467,0.513411 -1.09438,0.250306 -2.09645,0.408505 -3.167,0.58514 -0.60671,0.196368 -1.33055,0.423882 -1.73888,0.176598 0.0481,0.522036 -1.51524,0.211767 -2.05143,0.510165 -1.06417,0.420709 -2.20511,0.257368 -3.13464,0.516351 -1.14881,0.545201 -2.4681,0.516174 -3.66649,0.919159 -1.3981,0.09498 -2.63031,0.328548 -3.99155,0.666822 -1.31748,0.01949 -2.61118,0.394193 -3.91886,0.635865 -1.97593,0.281545 -3.92094,0.763962 -5.86129,1.219099 -1.30701,0.285042 -2.66389,0.614214 -4.01727,0.807519 -1.12482,-0.10838 -2.27166,0.647152 -3.47258,0.624752 -1.12542,0.634695 -2.4765,0.521846 -3.70288,0.853941 -1.29565,0.188866 -2.60887,0.499867 -3.84414,0.826169 -1.33949,0.299922 -2.7244,0.542956 -4.07335,0.873346 -1.223,0.294604 -2.40152,0.720851 -3.63028,1.006224 -1.18963,0.25681 -2.69664,0.330002 -2.45456,1.918113 0.3185,1.60214 0.0231,3.25596 -0.22463,4.84869 -0.21279,1.35021 -0.53309,2.70464 -0.96223,3.98859 -0.35614,1.06954 -0.82393,2.10216 -1.18566,3.16102 -0.63896,0.97703 -1.14248,1.98355 -1.74199,2.977 -0.45836,0.86048 -0.86922,1.73271 -1.61313,2.01235 -0.0794,1.36563 -1.73108,2.10889 -2.47628,3.1843 -1.00355,0.88652 -2.01264,1.75555 -3.13803,2.45366 -0.95125,0.72805 -2.01138,1.25516 -3.08946,1.79189 -1.12474,0.47144 -2.2684,0.89845 -3.4532,1.20358 -1.38482,0.60951 -2.90592,0.79629 -4.39757,0.97204 -1.37012,0.44133 -2.83413,0.40791 -4.24006,0.6757 -1.24909,0.12376 -2.50718,0.19515 -3.75574,0.19788 -0.69223,0.0851 -1.40748,0.11835 -2.10014,0.0729 z m -21.16677,-21.29986 c -0.11949,-0.25281 -0.18049,0.27476 0,0 z m -0.0515,-0.43878 c -0.3783,-0.82044 -0.70371,0.45763 0,0 z m -4.20289,-1.10122 c -0.52923,-0.74322 -0.22962,0.57395 -4e-5,-1e-5 z m 0.0807,-1.10492 c -0.5428,-0.72246 -0.0217,1.08022 0,0 z m -0.008,-1.16342 c -0.26062,-0.0879 -0.21503,0.14924 0,0 z m -0.0141,-1.544828 c 0.17026,-0.575597 -0.45634,0.103922 0,0 z m 0.47574,-1.00683 c -0.49785,-0.375794 -0.62681,0.434156 0,1e-4 z m 60.98712,-4.72368 c 0.14357,-0.531224 -0.7004,-0.77367 -0.51226,-0.1625 -0.36011,0.282001 0.45097,0.550147 0.51226,0.1625 z m 7.43293,-2.27181 c 0.55441,-0.460657 0.64554,-1.065119 -0.10066,-0.50576 -0.55519,0.263921 -0.64417,0.86845 0.10066,0.50576 z m -9.74,-0.23595 c -0.40188,-0.549335 -0.19289,0.38238 0,0 z m 11.56,-0.64856 c -0.0212,-0.293391 -0.24008,0.269493 0,0 z m -1.56,-0.72472 c -0.58725,-0.399957 -0.18455,0.495417 0,0 z m 1.99922,-0.0343 c -0.14401,-0.612664 -0.94521,0.244059 -1e-5,4.5e-4 z m 17.44078,-1.17201 c -0.46198,-0.532432 -0.34758,0.473871 0,0 z m -12.69402,-0.0416 c -0.0681,-1.046339 -0.79463,0.09143 0,0 z m -2.58598,-0.14736 c 0.68802,-0.876468 -0.89876,0.437057 0,0 z m 3.36,-0.11847 c -0.62345,-0.812704 -0.98918,0.575571 0,0 z m -2.48,0.0432 c -0.12923,-0.262134 -0.3363,0.173193 3e-5,0 z m 10.72,-0.0447 c -0.19153,-0.319609 -0.12765,0.297504 0,0 z m 6.32,-0.12 c -0.34262,-0.467448 -0.37596,0.463282 0,0 z m -18.4,-0.12 c -0.44383,-0.336918 -0.28182,0.304017 0,0 z m 12.06951,-0.10736 c 0.12468,-0.558625 -0.70774,0.404138 0,0 z m -1.01751,-0.0926 c -0.23448,-0.404752 -0.20906,0.39482 0,0 z m -0.22882,-0.36 c 0.49146,-0.999702 -1.07712,0.567785 0,0 z m -3.58318,-0.0856 c -0.44576,-0.560512 -0.26452,0.563387 0,0 z m 10.93554,-0.43226 c -0.6057,-0.637324 0.054,0.953458 0,0 z m -5.45554,0.11783 c -0.27598,-0.551983 -0.22148,0.536152 0,0 z m 20.64,0 c -0.19153,-0.319609 -0.12765,0.297504 0,0 z m -16.01469,-0.26 c -0.16937,-0.678801 -0.92971,0.780504 -0.023,0.112626 l 0.023,-0.112676 z m -7.04511,-0.0461 c -0.0479,-0.789703 -1.10448,-0.401868 0,0 z m 10.2488,-0.48437 c -0.43698,-0.166719 -0.0428,0.530793 0,0 z m -8.31418,-0.0558 c -0.51163,-0.274086 0.15528,0.467644 0,0 z m 11.56518,0.12624 c -0.20183,-0.306795 -0.34284,0.260165 0,0 z m 5.8,-0.28 c 0.7733,-0.502518 -1.20105,-0.290438 -0.44861,-1.216308 -0.63211,-0.91844 -1.74511,-0.362778 -1.5887,0.534298 -0.37262,0.47159 0.4758,-0.0049 0.51301,0.558369 0.92048,-1.079223 0.59592,1.118709 1.5243,0.123641 z m -0.96,-0.76 c 0.19153,-0.319609 0.12765,0.297504 0,0 z m -0.36,-0.24 c 0.33544,-0.281891 0.11529,0.28856 0,0 z m 0.08,-0.24 c 0.42873,-0.29384 0.43294,0.185871 0,0 z m -0.295,-0.0546 c 0.49505,-0.08051 -0.14995,0.153382 0,0 z m -9.82782,1.2599 c 0.1804,-0.810612 -0.64184,0.54966 0,0 z m 4.75232,-0.0438 c -0.39763,-0.255782 -0.44656,0.439765 0,0 z m -3.9495,-0.0415 c -0.37461,-0.351547 -0.1549,0.324707 0,0 z m -6.08,-0.12 c -0.34261,-0.467445 -0.37596,0.463282 0,0 z m 11.98557,-0.21918 c -0.23627,-0.769059 -0.77665,0.879274 0,0 z m 1.17101,0.10471 c -0.0402,-0.433006 -0.64251,0.396746 0,0 z m -0.0566,-0.24013 c 0.3402,-0.998419 -1.23943,0.287121 -0.14777,0.01393 l 0.14777,-0.01387 z m -5.49839,-0.12734 c 0.35353,-0.625638 -0.89713,0.459019 0,0 z m -1.30637,-0.16187 c 0.29336,-0.606275 -0.74398,0.4367 0,0 z m 3.26476,-0.11619 c -0.41755,-0.314856 -0.28405,0.321365 0,0 z m 1.2,0 c -0.33544,-0.281891 -0.11529,0.28856 0,0 z m 0.97834,0.0317 c -0.26062,-0.08794 -0.21503,0.149245 0,0 z m 10.26166,-0.11166 c -0.29458,-0.321948 -0.30691,0.312954 0,0 z m -14.36041,-0.15871 c -0.0522,-1.73766 -0.81495,0.703086 0,0 z m -1.59959,-0.24129 c -0.33544,-0.281891 -0.11529,0.28856 0,0 z m 3.50274,-0.0817 c -0.36036,-0.349911 -0.17165,0.537081 0,0 z m 10.05726,0.0331 c -0.27465,-0.182666 -0.35172,0.307433 0,0 z m -9.29025,-0.0234 c 0.29305,-0.47473 -0.63817,0.295011 0,0 z m 6.17025,-0.088 c -0.19467,-0.315515 -0.32286,0.325164 0,0 z m -3.8,-0.2 c -0.26699,-0.621411 -0.20973,0.601535 0,0 z m -1.6,0.04 c -0.40575,-0.315731 0.055,0.280549 0,0 z m 3.16,-0.0447 c -0.1759,-0.289442 -0.15153,0.388972 0,0 z m -3.96856,-0.0818 c 0.13876,-0.846981 -0.90414,0.55249 0,0 z m 6.68605,0.0665 c -0.54756,-0.804274 -0.91282,0.284206 0,0 z m 4.19797,-0.12 c -0.37333,-0.698479 -0.10056,0.601303 -2e-5,10e-6 z m 2.36517,0.0188 c -0.0827,-0.762918 -0.85031,0.56764 0,0 z m -10.32063,-0.0788 c -0.37461,-0.351547 -0.1549,0.324707 0,0 z m 2.44,0 c -0.24165,-0.32935 -0.45104,0.301845 0,0 z m 16.69958,-0.2 c -0.1145,-0.647311 -0.26228,0.624728 0,0 z m -9.61958,0.005 c -0.20181,-0.313229 -0.22031,0.168235 0,0 z m 5.63539,-0.0373 c -0.19253,-0.170608 -0.43777,0.250789 0,0 z m -11.903,-0.13091 c -0.0236,-0.599226 -0.48174,0.449154 0,0 z m 0.66761,-0.12125 c -0.19107,-0.299904 -0.18054,0.425807 0,0 z m 10.7055,-0.23233 c -0.77679,-0.347996 0.49136,0.789112 0,4e-5 z m -7.65784,0.18782 c 0.0743,-0.397299 -0.49951,0.403515 0,0 z m 10.07234,-0.0755 c 0.85703,-0.591002 -1.18803,-0.462672 -0.34202,0.14208 0.0927,0.07936 0.37667,0.02571 0.34202,-0.14208 z m -1.44039,0.0467 c -0.1499,-0.68815 -1.13206,0.191638 -4e-5,-7e-5 z m -10.82127,-0.13027 c -0.26062,-0.08794 -0.21503,0.149245 0,0 z m 11.34166,-0.0317 c -0.0212,-0.293391 -0.24008,0.269493 0,0 z m -8.6,-0.08 c -0.2154,-0.322399 -0.18853,0.311471 0,0 z m 13.50537,-0.57 c 0.47494,-0.762778 -1.75143,-1.058806 -0.68196,0.17001 -0.0544,0.573969 0.38781,0.354512 0.68196,-0.17001 z m -3.30537,0.33 c -0.12146,-0.304647 -0.24418,0.253313 0,0 z m 0.73834,0.0317 c -0.26062,-0.08794 -0.21503,0.149245 0,0 z m 3.25059,-0.0717 c 1.02297,-0.212312 -0.98502,-1.392508 -0.0817,-0.252744 0.0454,0.116813 -0.70658,0.4698 -0.005,0.330226 l 0.0872,-0.0774 z m -19.16493,-0.056 c 0.24469,-0.673163 -0.7772,0.286433 0,0 z m 12.95642,-0.104 c 0.58015,-0.252255 0.25697,-1.145388 -0.38708,-0.68002 -0.39689,0.132262 0.69242,0.314486 0.01,0.444167 -0.0636,0.216274 0.38809,0.727025 0.37748,0.235853 z m 1.91792,0.15166 c -0.26062,-0.08794 -0.21503,0.149245 0,0 z m -1.57834,-0.19166 c -0.19467,-0.315515 -0.32286,0.325164 0,0 z m 2.06438,-0.20233 c -1.09626,-0.900479 -0.166,0.887738 0,0 z m 9.23714,0.14985 c -0.56665,-0.06024 -0.0306,0.128997 0,0 z m -17.30152,-0.26752 c -0.29458,-0.321948 -0.30691,0.312954 0,0 z m 4.03469,-0.0838 c -0.72759,-0.136442 0.35816,0.329025 0,0 z m 14.12531,0.0524 c -0.53832,-0.751805 -0.67865,0.481057 0,0 z m -11.29857,-0.12856 c -0.54565,-0.475329 0.0224,0.587744 0,0 z m 1.79523,0.1059 c 0.13238,-0.487563 0.10624,-0.928732 -0.57618,-0.33948 0.13793,0.0094 0.53244,0.567921 0.57618,0.33948 z m 10.01772,-0.17681 c -0.31293,-0.487184 -0.68151,0.282392 0,0 z m -2.45028,-0.38601 c -0.80829,-0.541353 -0.48507,0.464457 0.172,0.18308 -0.0573,-0.06103 -0.11467,-0.122053 -0.172,-0.18308 z m -8.5441,0.0569 c -0.71039,-0.636099 -0.38218,0.3796 0,0 z m 4.116,-0.089 c -0.42623,-0.33263 -0.72264,0.433434 0,0 z m -5.116,-0.071 c -0.41755,-0.314856 -0.28405,0.321365 0,0 z m 2.8,-0.08 c -0.15786,-0.291664 0.7665,-0.146461 0.12469,-0.669317 -0.96921,-0.812672 -0.68747,1.130643 -0.12469,0.669317 z m 1.47878,0.02 c -0.5233,-0.597888 -0.62401,-0.146872 -0.0252,0.05394 l 0.0252,-0.05393 z m -5.46044,-0.0683 c -0.26062,-0.08794 -0.21503,0.149245 0,0 z m 0.94637,-0.0691 c 0.23413,-0.237508 -1.53436,-0.63414 -0.5648,0.049 0.17838,0.08648 0.40546,0.07364 0.5648,-0.049 z m 2.27101,-0.67455 c -0.0489,-0.64237 -1.57198,0.16957 -0.31204,0.148256 l 0.19263,-0.04729 0.11941,-0.10098 z m 1.20177,0.012 c -0.34987,-0.627218 -1.44061,0.01322 0,0 z m 0.6768,-0.0657 c 0.38763,-0.648706 -1.03182,0.06322 -0.0964,0.08513 l 0.0964,-0.08514 z m 0.42405,-0.003 c -0.26062,-0.08794 -0.21503,0.149245 0,0 z m 5.74166,-0.0317 c -0.10786,-0.298846 -0.33561,0.286674 0,0 z m -10.64,-0.08 c -0.10786,-0.298846 -0.33561,0.286674 0,0 z m 3.9727,-0.34603 c 0.60194,-0.917181 -0.84487,0.295621 -5e-5,-3e-5 z m 0.84412,-0.054 c 0.042,-0.214489 1.46929,0.0836 0.62318,-0.15982 -0.42956,0.165689 -0.11325,-0.659191 -0.56919,-0.176288 -0.88696,-0.400438 -0.50257,0.915891 -0.054,0.336108 z m 5.66318,0.08 c -0.0212,-0.293391 -0.24008,0.269493 0,0 z m -8.08,-0.08 c -0.0342,-0.358445 -0.51725,0.359671 0,0 z m 0.64834,-0.13833 c -0.33255,-0.0683 0.1582,0.451833 0,0 z M 232.22869,62.200617 c -0.40573,-0.315611 0.0551,0.280513 0,0 z m -78.12,-1.59749 c -0.24448,-0.176904 -0.36221,0.279525 0,0 z m 60.83346,-2.37107 c 0.55574,-0.780192 1.12065,-1.559691 1.73915,-2.354084 0.6277,-0.994402 1.4868,-1.74379 2.15672,-2.711206 0.68688,-0.847747 1.68859,-1.459294 2.34592,-2.277491 0.60743,-0.801459 1.07871,-1.647438 1.42307,-2.647201 0.30392,-0.693828 1.08143,-2.1632 0.5441,-2.645526 -1.18019,0.417307 -1.88229,1.602703 -2.83817,2.374086 -0.71031,0.819297 -1.52282,1.50933 -2.10327,2.451606 -0.91647,0.973395 -1.50979,2.18335 -2.28602,3.248368 -0.46202,1.107471 -1.04828,2.213045 -1.29095,3.429142 -0.0889,0.291747 -0.35931,1.450547 0.30945,1.132306 z m 19.00654,-0.238107 c -0.22785,-0.326706 -0.25057,0.416062 0,0 z m -71.94692,-3.838567 c 0.92527,-0.769117 1.82466,-1.665338 2.8077,-2.336336 0.55559,-0.819446 1.36537,-1.38043 2.08792,-2.046895 0.74391,-0.748726 1.64017,-1.342058 2.26538,-2.171896 0.86995,-0.814839 1.60885,-1.760581 2.47629,-2.587668 0.90907,-1.010369 1.79392,-2.035329 2.4734,-3.211971 0.50151,-0.966954 1.14818,-2.090877 0.72819,-3.200113 -0.26396,-1.173056 -1.62802,-1.584211 -2.66053,-1.315496 -1.21094,0.186313 -2.11362,1.157408 -3.00757,1.945904 -0.75574,0.94181 -1.67024,1.78786 -2.34499,2.809697 -1.84825,1.992393 -3.04105,4.487044 -3.95982,7.025501 -0.61079,1.417225 -0.99391,2.914657 -1.31741,4.418082 -0.0978,0.331035 -0.0741,1.377067 0.45144,0.671191 z m 26.70692,-1.274767 c -0.45465,-0.434509 -0.48083,0.424624 0,0 z m 57.4,-5.8 c -0.24336,-0.522899 -0.21215,0.539421 0,0 z m 23.22,-3.412983 c -0.49782,-0.07936 -0.006,0.138414 0,0 z m -34.18,-17.627019 c -0.2154,-0.322399 -0.18853,0.311471 0,0 z m -47.96,76.480006 c 0.0606,-0.7667 0.59337,0.34669 0,0 z m 0.16704,-1.02999 c 0.0293,-0.87101 0.38459,-0.69508 0,0 z m 0.0885,-1.42117 c 0.003,-0.58423 0.42358,0.2251 0,0 z m -5.09554,-2.593558 c 0.16261,-0.175628 0.18114,0.267659 0,0 z m 0.32,-1.67528 c 0.2154,-0.322399 0.18853,0.311471 0,0 z m 0.08,-0.35528 c 0.16286,-0.398522 0.16431,0.283364 0,0 z m 3.12,-2.68472 c 0.2154,-0.322399 0.18853,0.311471 0,0 z m 94.092,-9.356 c 0.26455,-0.299649 0.0803,0.243382 0,0 z m 31.33958,-0.99387 c -0.08,-0.412426 -0.75491,-0.629839 -0.005,-0.90287 -0.55065,-0.210648 -0.15063,-1.452755 0.37752,-0.50432 0.18866,0.993805 1.73333,0.63406 1.42144,0.116118 0.92175,0.08009 -0.18252,1.058208 -0.0958,1.065982 -0.75699,-0.103227 -1.23562,-0.14735 -1.69861,0.22509 z m 0.59458,-0.58296 c -0.41815,-0.709505 -0.35762,0.139271 0,0 z m -0.58616,-0.66717 c -0.2154,-0.322399 -0.18853,0.311471 0,0 z m 2.37107,0.52 c 0.42759,-0.412368 0.11436,0.393093 0,0 z m -8.31556,-0.17116 c -0.0631,-0.391252 0.50029,0.158519 0,0 z m 6.90449,-0.10884 c 0.2154,-0.322399 0.18853,0.311471 0,0 z m 2.04,0 c 0.57327,-0.332998 0.25824,0.313336 0,0 z m -4.52,-0.24 c 0.29458,-0.321948 0.30691,0.312954 0,0 z m 2.28,-0.16 c 0.10786,-0.298846 0.33561,0.286674 0,0 z m -2.00446,-0.29796 c -0.42884,-1.152324 0.74027,0.168952 0,0 z m -3.63473,-0.0134 c -0.49871,-0.397761 0.77006,0.221112 0,0 z m -1.16,-0.40992 c 0.31608,-0.17919 0.16349,0.297381 0,0 z m 5.57661,-0.0911 c 0.42788,-0.469708 0.25934,0.30409 0,0 z m -2.4162,-0.37512 c 0.23976,-0.08071 -0.0656,-0.431663 0.0892,-0.810744 -0.88246,-0.618813 1.18343,-0.454858 1.54741,-0.421426 1.36737,-0.08892 -1.10314,0.183768 -0.65382,0.474925 -1.05763,-0.360275 -0.40164,1.326217 -0.98279,0.757245 z m -3.08122,-0.0925 c 0.12146,-0.304647 0.24418,0.253313 0,0 z m 1.12342,-0.0745 c 0.021,-0.427451 0.27424,0.256514 0,0 z m -0.55486,-0.13205 c -0.0523,-0.602062 0.63728,0.395706 -4e-5,6e-5 z m 0.49144,-0.41076 c -0.68993,-0.432186 1.11818,0.05457 0,0 z m 4.0319,-0.0137 c 0.17961,-0.363414 0.62919,0.183336 0,-1e-5 z m -3.6119,-0.27972 c 0.4211,-0.262699 0.29778,0.1421 0,0 z m 3.95954,-0.43645 c 0.14858,-0.477695 0.89606,0.143466 0,-2e-5 z M 8.8966359,76.666812 C 7.9967277,76.074776 6.8995717,75.92312 6.1633861,75.077147 5.7457096,74.01394 5.2122269,73.017942 5.2657179,71.840622 5.2632796,70.858343 4.8623554,69.892372 5.0108511,69.320581 4.6804026,68.635788 5.2575451,68.05446 5.0199945,67.442799 4.8873916,66.406078 5.1218565,65.398983 4.9011341,64.260179 5.1953647,63.138262 4.7438413,62.05065 4.9876503,60.926758 5.2222093,59.688918 4.9623941,58.511648 5.3332646,57.297738 5.7177363,56.296617 5.214268,55.230334 5.4293242,54.100677 5.3560773,52.7132 5.6001076,51.307419 5.4420113,49.93603 5.4286773,48.975601 5.8159953,48.066094 5.7060659,47.117879 5.4680481,45.934788 5.9730361,44.988453 5.8429419,43.779897 5.6819692,42.199136 5.5955618,40.579662 5.9182449,39.017489 5.7279417,37.810456 5.735785,36.516105 5.7472081,35.31629 5.3832153,34.762533 5.8349107,33.677465 5.6356899,32.800615 c 0.05215,-1.195823 -0.049442,-2.43389 -0.08582,-3.601453 0.082638,-1.26034 -0.2022404,-2.563113 -8.4e-4,-3.838548 C 5.2699361,24.060726 5.3571846,22.708305 5.2930671,21.403404 5.2680184,20.300693 5.2886255,19.168381 4.8353799,18.164746 4.8386955,17.453325 4.1500186,17.259338 4.5399402,16.621922 4.0842971,16.460802 4.516334,15.807615 4.1522236,15.490485 4.9702717,15.037552 4.402601,13.789571 5.4269026,13.352067 5.9945632,12.32124 7.2684509,12.462649 8.3658374,12.434151 c 0.9293392,0.198954 1.6372396,1.062767 2.6116466,1.410633 0.445543,1.048593 1.720136,1.434396 1.818384,2.703968 -0.15146,1.174643 0.293624,2.330842 -0.01264,3.517883 0.02213,1.794448 0.131335,3.594734 0.103431,5.39034 0.07479,1.206499 -0.07114,2.515616 0.122179,3.736854 -0.1783,1.260677 0.07595,2.521598 -0.03334,3.779625 0.249097,1.275819 0.0528,2.672765 0.0646,4.035912 0.10549,1.201126 -0.06344,2.418313 -0.06851,3.599716 0.08418,1.896854 0.03955,3.80946 -0.07333,5.705742 -0.191382,1.202577 0.02714,2.406397 -0.116634,3.583682 -0.102096,1.375771 -0.07817,2.759113 -0.19606,4.122017 0.149456,1.15463 -0.06133,2.269621 -0.123156,3.446769 0.08243,1.35718 -0.415172,2.618819 -0.274622,4.040095 -0.07622,1.660335 -0.313336,3.315134 -0.34312,4.97322 -0.07593,1.179622 0.11186,2.344763 0.01571,3.535678 0.143207,1.058803 0.0018,2.196123 0.508317,3.132577 0.118479,1.012257 0.440094,2.52846 -0.718034,2.741873 -0.986945,-0.08766 -1.7011286,1.762437 -2.7540131,0.776077 z M 38.484889,72.492202 C 37.445678,71.823115 36.206423,71.456521 35.30508,70.566083 34.721339,69.520618 34.359064,68.377914 33.984067,67.258572 33.591798,66.099811 33.119574,64.969123 32.997609,63.729359 32.737416,62.551283 32.48454,61.627191 32.432015,60.370758 32.179848,59.08653 32.245227,57.752804 32.023275,56.468276 31.900063,55.155093 31.85789,53.862625 31.757321,52.534623 c 0.01329,-1.38326 -0.134071,-2.756238 0.06553,-4.134007 0.04772,-1.391399 0.382393,-2.693512 0.708565,-4.018375 0.190398,-1.1933 0.548997,-2.359844 0.604368,-3.650041 -0.02761,-1.192736 0.827296,-2.185505 1.372175,-3.080676 0.667976,0.22058 1.361809,-0.780247 2.160747,-0.179743 1.240764,-0.164986 1.882119,0.942383 2.853163,1.216108 0.393453,1.017976 1.677882,1.867007 1.138398,3.202996 0.07547,1.15765 -0.754666,2.078208 -0.644668,3.2802 -0.668689,1.07405 -0.532337,2.457177 -0.8733,3.66532 -0.05091,1.117502 -0.262345,2.136243 -0.38962,3.270335 0.07375,1.272445 0.03968,2.599735 0.268321,3.769166 0.682111,-0.739969 0.883968,-2.322395 1.352768,-3.395287 0.301785,-1.179706 0.828527,-2.072745 1.045039,-3.12 0.334328,-1.088428 0.695586,-2.134608 1.035296,-3.200326 0.378163,-0.811429 0.625608,-1.725987 1.051486,-2.364756 0.255168,-1.003216 0.904936,-1.732618 0.997238,-2.80548 0.309732,-1.079393 0.940483,-2.003812 1.457824,-2.869117 0.593732,-0.934028 1.260945,-1.858137 2.089603,-2.628902 0.487516,-1.005208 1.636784,-1.473114 2.372697,-2.163908 1.056911,0.274023 2.469259,-0.407919 3.343406,0.732603 0.896297,0.864164 1.88476,1.757894 2.429262,2.917882 0.557723,1.104926 0.721364,2.334222 1.034822,3.514662 0.308753,1.319725 0.426474,2.654691 0.647507,4.008448 0.313895,1.066965 0.531105,2.111731 0.426226,3.257657 0.002,1.183719 0.126554,2.259299 0.142837,3.44563 0.150586,0.907002 0.584503,-0.923609 0.867736,-1.210174 0.370822,-0.913107 1.007344,-1.79124 1.085615,-2.818972 0.617142,-0.819679 0.828479,-1.868581 1.19419,-2.73809 0.18263,-1.199417 1.07816,-2.160897 1.392934,-3.343907 0.736041,-0.95894 0.874509,-2.109308 1.552758,-3.091636 0.677025,-0.968214 1.285954,-2.069638 2.369617,-2.652284 0.771856,-0.638406 1.805876,-0.530372 2.812197,-0.378244 1.412529,0.08173 1.979521,1.600264 3.063214,2.253817 0.813597,1.209208 0.702463,2.732018 0.99321,4.113056 -0.0054,1.215366 0.308102,2.382605 0.273235,3.595523 0.078,1.090647 0.176118,2.201311 0.225811,3.31697 0.117948,1.343859 -0.02444,2.709788 0.102615,4.066655 -0.01718,1.714452 -0.106339,3.440518 -0.101076,5.146895 0.387114,1.275137 0.154999,2.658495 0.634503,3.902235 0.142663,1.256435 0.938946,2.324637 1.405445,3.453249 0.805812,0.851192 1.038273,2.060552 1.606782,3.010346 0.242261,0.712556 0.437997,0.971966 -0.306988,1.308006 -0.747291,1.143939 -2.26123,1.204203 -3.401668,0.733348 -0.970814,-0.591119 -2.083067,-0.991209 -2.874835,-1.864192 -0.770468,-0.637621 -1.518044,-1.485134 -1.920014,-2.419165 -0.5404,-0.878713 -1.017654,-1.796184 -1.403913,-2.802231 -0.444286,-1.209706 -0.754208,-2.466915 -0.787583,-3.76685 -0.572173,-1.924678 -0.160802,-3.94896 -0.441527,-5.908993 -0.02628,-1.125163 0.0793,-2.354625 -0.238469,-3.454499 -0.260395,-1.25984 -0.762427,1.041164 -0.919582,1.504211 -0.234351,1.196328 -1.405289,1.942589 -1.412135,3.23947 -0.694234,1.237551 -0.843411,2.651828 -1.515735,3.918024 -0.57915,1.120463 -0.967371,2.294175 -1.443509,3.465675 -0.281185,1.120333 -0.931271,2.119657 -1.013019,3.3023 -0.288319,1.103806 -0.309358,2.561301 -1.705677,2.847746 -1.05153,0.524538 -2.342329,1.053734 -3.519602,0.627225 -0.360923,-0.706303 -1.390211,-0.461276 -1.831617,-1.24037 -0.988546,-0.59941 -0.880617,-2.04891 -1.251863,-3.062465 -0.396795,-2.008664 -0.766793,-4.035006 -0.795838,-6.09459 0.08085,-1.218151 -0.211553,-2.359702 -0.178361,-3.587991 0.04201,-1.345402 0.03772,-2.66691 0.03595,-4.004764 -0.106297,-1.928195 -0.145761,-3.864884 -0.411823,-5.777248 -0.618828,-1.729067 -1.263757,1.138142 -1.517237,1.812084 -0.290731,1.176147 -0.846325,2.254097 -1.121549,3.442096 -0.310055,1.094189 -0.591476,2.241504 -1.17615,3.246008 -0.172749,1.192841 -0.627973,2.314869 -0.802424,3.52591 -0.272995,1.160379 -0.590062,2.310052 -0.798059,3.496956 -0.187707,1.122357 -0.901972,2.191228 -1.106065,3.361599 -0.603795,0.785474 -0.423731,1.920344 -0.889267,2.641867 -0.683741,0.822936 -0.208802,1.883852 -0.7945,2.730965 0.470336,0.776644 -0.0032,1.71855 -0.431317,2.44976 -0.722557,0.861228 -2.129023,0.536997 -2.934303,1.161944 -0.183018,-0.03813 -0.357021,-0.107342 -0.532227,-0.170085 z M 191.1095,48.039311 c 0.3161,-0.17916 0.16345,0.297404 0,0 z M 24.402026,39.507282 c -0.736559,-0.59921 0.330101,-1.355106 -0.210266,-1.812203 -0.628288,0.549277 -0.628264,1.103185 -1.080779,0.05995 -0.416156,-1.052138 -1.473001,1.120584 -1.190929,-0.197655 0.178301,-0.520904 0.05018,-1.013175 0.445182,-1.535708 -0.300218,-0.795714 0.371899,-1.979536 0.318282,-2.728105 0.474644,-0.50478 0.310705,-1.400628 0.648682,-2.020877 0.147614,-1.055387 0.699844,-1.419226 0.846808,-2.463197 0.701443,-0.955835 0.648155,-2.19996 1.217261,-3.262569 0.457466,-0.827458 0.810693,-1.571803 1.148555,-2.466303 0.537165,-1.194854 1.229618,-2.323573 1.612601,-3.585974 0.39282,-1.238354 1.037806,-2.376272 1.286788,-3.671223 0.467164,-0.897898 0.170456,-1.944517 0.258773,-2.793237 0.877158,-0.181662 0.694459,-1.698299 1.789587,-1.472312 0.881233,-0.739689 1.758336,-0.499627 2.711016,-0.507655 1.254627,0.160101 2.192189,0.745898 3.008981,1.621786 0.487531,0.942104 1.259489,2.020376 0.949437,3.190325 -0.131906,1.141109 -1.141195,1.771102 -1.402219,2.881484 -0.475851,1.017342 -1.052466,2.060141 -1.41809,3.182043 -0.704769,0.980525 -0.994349,2.202224 -1.761363,3.147049 -0.399692,0.978501 -0.980129,1.918173 -1.394046,2.930279 -0.43097,1.195761 -1.113297,2.127005 -1.617999,3.294679 -0.399605,1.14189 -1.066709,2.194305 -1.443403,3.306757 -0.691286,0.869766 -1.279646,1.916652 -1.736189,2.994346 -0.348803,0.684013 -1.356142,0.03707 -1.426026,1.112269 -0.211275,0.458026 -0.61119,0.701055 -0.686837,0.176148 -0.356441,0.05513 -0.53659,0.703988 -0.873807,0.619904 z m -1.601345,-0.783888 c -0.470348,-0.727984 0.156983,-1.03843 0.472517,-0.225631 0.05268,0.322997 -0.255792,0.436551 -0.472517,0.225631 z M 251.52869,36.867633 c 0.49782,-0.07936 0.006,0.138414 0,0 z m -35.66,-14.587019 c 0.43328,-0.330396 -1.2143,0.253045 -1.4646,-0.418923 -0.73796,-1.067873 -1.99351,-1.570796 -2.54982,-2.698098 -0.68201,-0.793003 -2.13701,-0.631696 -2.36997,-1.559464 -0.96643,-0.451643 -0.57195,-1.567097 -1.64136,-1.677963 -0.79639,-0.830354 -0.71128,-2.110175 -0.89211,-3.134025 0.18857,-0.812821 0.7617,-1.564109 1.63818,-1.975289 1.05395,-0.136106 2.42154,-0.03661 3.28,0.269845 0.5057,0.215611 2.19104,0.420433 2.2847,1.536636 0.61712,0.477012 1.53287,1.429848 1.34631,2.305523 0.55683,1.039618 0.54478,2.26103 1.47047,3.114432 0.49383,0.925001 1.08568,2.844661 0.24133,3.478677 -0.86913,-0.402769 -0.49075,1.025308 -1.34313,0.758649 z M 4.3886919,17.560613 c 0.021118,-0.293387 0.2401253,0.269502 0,0 z" />
    <path
       id="path747"
       style="fill:#000000;fill-opacity:1;stroke:none;stroke-width:0;stroke-miterlimit:4;stroke-dasharray:none"
       d="m 95.318619,-4.725317 c -0.948772,-0.4584926 -1.387376,-1.578535 -1.714906,-2.3310975 -0.564621,-0.8252997 -1.112433,-1.8744198 -1.282761,-2.6684375 -0.495082,-0.951713 -0.928287,-2.006581 -1.274499,-3.07879 -0.295346,-1.037377 -0.633743,-2.083281 -0.987718,-3.111123 0.531258,-0.220308 0.659099,-1.496246 -0.06115,-1.000652 -0.357147,-0.714314 -0.939973,-2.423095 -0.6792,-2.76072 0.917427,0.645567 0.04768,-1.376316 -0.355611,-1.360091 0.507386,-0.210589 0.392379,-1.776603 -0.273688,-1.319011 0.0047,-0.664374 -0.343481,-0.987082 0.178052,-1.509579 -1.114377,-0.484479 0.02693,-1.236237 -0.547374,-1.961151 -0.960707,-0.639169 -0.520618,-2.132844 -0.790609,-3.063988 -0.359343,-1.085287 -0.432633,-2.549457 -0.580422,-3.793851 -0.08443,-1.20552 -0.243487,-2.406103 -0.361528,-3.575949 0.178556,-1.114962 -0.5604,-2.234051 -1.592,-1.22438 -1.237159,0.687628 -2.132336,1.710421 -3.443696,2.292404 -1.06364,0.630983 -2.248546,0.98235 -3.323864,1.60896 -0.995981,0.720746 -3.068789,0.444119 -3.208605,1.991856 0.0554,1.234537 0.169291,2.472517 0.03263,3.663592 0.12452,1.136567 0.462424,2.26826 0.444723,3.447427 -0.260105,1.206684 0.370585,2.347322 0.277434,3.563959 0.142079,1.248011 0.151703,2.503116 0.407657,3.736752 0.06473,1.148376 0.220963,2.213194 -0.09192,3.34456 -0.187045,0.861173 -0.04062,1.973817 -1.01165,2.04 -0.414926,1.000779 -1.444644,2.1811337 -2.566964,2.0670664 -0.465324,0.5992496 -2.51958,0.6937623 -1.956956,-0.4658164 -0.438056,0.3482446 -0.311256,-0.924028 -0.31107,-1.20877 0.472293,-1.648792 -0.07016,-3.33084 -0.19142,-4.985401 0.132825,-1.032328 -0.409037,-1.851555 -0.42296,-2.887019 -0.111916,-1.170216 -0.206949,-2.163044 -0.43484,-3.40774 -0.0581,-0.937575 -0.23214,-2.129315 -0.454964,-3.243788 0.15802,-1.111189 -0.482741,-2.181335 -0.228946,-3.331662 -0.09131,-1.814204 -2.393793,-0.118523 -3.472401,-0.249719 -1.092477,0.369758 -2.240558,0.540317 -3.343524,0.895014 -1.230899,0.258595 -2.439383,0.555984 -3.663419,0.823155 -1.064724,0.443242 -2.41133,0.540283 -3.228156,1.36113 -1.127635,0.177439 -1.850205,1.377499 -3.01257,1.350409 -0.83418,0.113706 -1.370306,0.0504 -2.107287,-0.03737 -0.578131,-0.529657 -1.411613,-0.666771 -1.564073,-1.519451 -0.599859,-0.791035 -0.119981,-1.520993 -0.05016,-2.199871 0.08049,-0.828613 0.871912,-1.433479 1.236313,-1.987759 0.819433,-0.721246 1.728274,-1.207307 2.820948,-1.510263 1.239981,-0.40746 2.383415,-1.095466 3.709688,-1.192304 1.280182,-0.405322 2.45265,-0.677132 3.817478,-0.832794 1.227261,-0.520329 2.454953,-0.483579 3.69161,-0.882787 1.478373,-0.293725 2.962945,-0.6115 4.402274,-1.00121 0.824442,-0.766827 0.311304,-2.182302 0.440499,-3.219457 -0.151566,-1.174131 0.01081,-2.277083 0.0016,-3.448688 0.01343,-2.479887 0.17207,-4.957493 0.09212,-7.436752 0.128541,-1.552717 0.145534,-3.120848 0.05869,-4.67357 0.212158,-1.404214 0.02063,-2.89227 0.08083,-4.335365 -0.06955,-2.345224 0.214181,-4.689178 0.05588,-7.030994 0.139899,-1.135856 0.116076,-2.37479 -0.09404,-3.497581 0.369941,-0.719272 -0.941542,-1.653765 -0.04629,-2.079695 -0.294562,-0.692528 0.589404,-1.695896 0.96985,-2.4779 0.795556,-0.878883 2.291594,-1.35129 3.23306,-0.36782 0.511323,0.594792 1.738429,0.762987 1.7346,1.49488 0.930904,0.857438 1.318153,2.122555 1.39475,3.376446 0.138401,1.148087 0.123783,2.215462 0.0229,3.355142 -0.16443,3.655689 -0.423851,7.312971 -0.275325,10.974182 -0.109274,1.388547 -0.09884,2.696504 -0.154837,4.099013 0.04988,1.249314 -0.294561,2.539017 0.01697,3.75945 -0.354949,1.068 -0.07806,2.077245 -0.198439,3.188442 -0.04743,1.775891 -0.0554,3.565381 -0.08527,5.333573 0.826023,0.934132 2.196362,-0.730901 3.201304,-0.901652 1.179126,-0.835688 2.613098,-1.204288 3.681591,-2.241018 1.05417,-0.5685 1.865285,-1.530796 2.874812,-2.163809 0.957153,-0.86987 1.876253,-1.615512 1.442632,-3.059679 0.07303,-1.332314 -0.08578,-2.633514 -0.0686,-3.912951 0.01305,-2.48433 -0.03106,-4.97172 0.143479,-7.45433 -4.9e-5,-1.86949 0.163648,-3.72963 0.422744,-5.578286 -0.01749,-1.53237 0.480509,-2.990823 0.624623,-4.500705 0.277146,-1.132722 0.510259,-2.302945 0.702483,-3.465548 0.35549,-1.117927 0.772685,-2.28194 1.533856,-3.22821 0.767769,-0.686357 1.876787,-1.728357 3.04493,-1.3514 1.513221,0.249751 2.840147,1.123358 3.82466,2.28433 0.628486,1.018089 1.578352,1.945409 1.997445,3.013535 0.53676,1.249316 0.925095,2.544951 1.416537,3.807322 0.470589,1.294627 0.622649,2.645656 0.855529,3.999223 -0.27549,1.171606 0.1619,2.422759 -0.0843,3.61132 -0.14992,0.953175 -0.16419,1.913025 -0.48825,2.85528 -0.1306,1.159036 -0.63285,2.195065 -1.061957,3.28175 -0.349566,1.027881 -0.949411,1.965376 -1.42452,2.97241 -0.437045,1.163485 -1.288734,2.002428 -1.847168,3.109025 -0.485269,1.207936 -1.658413,1.880422 -2.27641,3.008085 -0.598186,1.146513 -0.244068,2.538284 -0.328253,3.788781 0.06137,2.22463 0.01327,4.459958 0.320125,6.665616 -0.04342,1.340751 0.314119,2.628524 0.420997,3.935378 0.231228,1.521249 0.279631,3.085435 0.676789,4.570765 0.279481,1.294386 0.380328,2.672734 0.748177,3.971466 0.164739,1.150616 0.483823,2.287752 0.643783,3.416164 0.310016,1.158024 0.458493,2.356063 0.91942,3.47998 0.289142,1.110222 0.663549,2.209784 0.88544,3.31911 0.513641,1.213435 1.088684,2.4928496 1.418055,3.7467275 -0.04303,0.6775275 0.729265,1.9131822 0.30145,2.2462845 -1.004977,-0.9000402 -0.765977,1.6650966 -1.977395,1.261508 -0.61453,0.6944372 -1.408755,-0.6174708 -1.745528,0.217245 -0.169859,-0.035973 -0.323796,-0.1175726 -0.473956,-0.200765 z m -25.96,-20.029 c -0.121465,-0.304647 -0.244182,0.253313 0,0 z m 24.175,-31.374 c 0.416809,-1.186448 1.142416,-1.954356 1.105899,-3.215774 0.164782,-1.184562 0.585148,-2.334173 0.450651,-3.511666 -0.211535,-1.264368 0.107432,-2.669532 -0.605089,-3.811713 -0.270921,-1.53537 -0.88377,0.833095 -0.805141,1.425472 -0.205266,1.315121 -0.394916,2.651678 -0.404349,4.003822 -0.216105,1.698977 -0.173742,3.433981 -0.09938,5.143769 0.05326,0.236635 0.277781,0.07529 0.35741,-0.03391 z m 38.327001,46.29 c -0.50356,-0.1092058 -1.17655,-0.380836 -1.47027,-0.431892 0.43909,-0.264707 -1.32209,-1.129572 -0.979,-1.87334 -0.76001,-0.428805 -0.20558,-1.872935 0.18653,-2.588918 0.46561,-0.694376 1.17954,-1.118186 1.73442,-1.694314 1.09172,0.08073 2.30657,-0.285347 3.26744,0.364739 0.60586,0.902341 1.36655,1.475042 2.01494,2.46509 0.1179,0.927781 -0.15733,1.660608 -0.34402,2.358085 -0.91241,0.933567 -1.91147,1.3074653 -3.17132,1.322375 -0.40911,0.049629 -0.82593,0.122486 -1.23872,0.078175 z m -21.429,-2.7906 c -1.2461,-0.282323 -2.3367,-1.100937 -2.98934,-2.249766 -0.3735,-1.126378 -1.51044,-1.989935 -1.50461,-3.221277 -0.40059,-1.21807 -0.97429,-2.354406 -1.15739,-3.655902 0.0672,-0.966074 -0.35954,-1.901044 -0.5512,-2.935981 -0.16498,-1.295218 -0.17035,-2.560981 -0.16804,-3.849295 -0.17232,-1.242107 0.17601,-2.253912 0.12577,-3.475599 0.24298,-1.327368 0.18424,-2.637452 0.7097,-3.884607 0.10371,-1.214982 0.42618,-2.405661 0.72288,-3.590163 0.25371,-1.260894 0.38744,-2.560759 0.5352,-3.839982 0.0318,-1.154024 0.25944,-2.420874 0.6758,-3.533791 0.59119,-0.714003 1.01638,-1.65846 2.17925,-1.702884 1.19101,-0.23339 2.58687,0.01649 3.18406,1.171023 0.82838,0.807758 1.82891,2.017919 1.16614,3.20722 -0.37795,1.251145 -0.64097,2.511636 -0.68522,3.815851 -0.34229,1.178969 -0.21327,2.315931 -0.64677,3.51037 -0.37809,1.575779 -0.4459,3.197701 -0.89842,4.748773 -0.4433,2.573395 -0.39993,5.235491 0.0287,7.807345 -0.061,0.967593 0.20847,2.109677 0.51078,3.112695 0.13104,1.274276 0.63313,2.47542 1.12544,3.62445 0.0221,1.024503 0.38217,2.192267 0.55261,3.216513 -1.29581,0.09875 -1.3664,2.049534 -2.91585,1.724937 z m 20.244,-33.902 c -0.54492,-1.17837 -0.22185,-2.199094 -0.68962,-3.340458 -0.0971,-1.287526 -0.34881,-2.538577 -0.39328,-3.845132 -0.0859,-1.342375 -0.26443,-2.522833 -0.4552,-3.832985 -0.31227,-1.336413 -0.17718,-2.7288 -0.42206,-4.074284 -0.088,-1.186073 -0.22192,-2.369788 -0.30178,-3.564091 -0.32591,-2.372999 -0.3514,-4.787632 -0.23615,-7.184035 0.28479,-1.186578 -0.002,-2.530172 0.14719,-3.782585 0.0934,-1.249812 -0.095,-2.517803 0.0791,-3.746782 -0.15292,-1.130484 -0.055,-2.365809 0.68683,-3.239844 0.87239,-0.732001 1.79372,-1.490089 2.89045,-0.743325 1.31498,-0.122496 1.97067,1.176735 2.74169,2.013001 0.68094,0.930802 0.54221,2.140934 0.51329,3.276496 -0.10676,2.996172 -0.12207,5.993139 -0.39329,8.981324 -0.12738,1.272771 -0.0678,2.503202 0.054,3.771747 -0.0235,1.404816 0.21303,2.719609 0.16031,4.101983 0.0495,1.194192 0.17909,2.285794 0.27985,3.498777 -0.0832,1.640123 0.14094,3.339998 0.0279,5.005603 0.16025,1.234482 -0.12892,2.409433 -0.29583,3.595508 -1.15746,-0.747461 -1.02958,1.308862 -1.34759,2.092916 -0.29443,0.628027 -0.70816,0.800589 -1.24022,0.786836 -0.20886,0.440919 -0.52573,-0.99642 -0.68184,0.05827 5.9e-4,0.351094 -1.07598,0.631588 -1.12379,0.17106 z m 1.4647,-0.83136 c -0.005,-0.747634 -0.59096,0.212319 0,0 z m 2.5172,-2.7273 c -0.29843,-0.531411 -0.34518,0.400717 0,0 z m -28.051,-22.506 c -0.85941,-0.540394 -1.90452,-0.899356 -2.53496,-1.72761 -0.65355,-0.810892 -1.35179,-2.209455 -0.67232,-3.15382 0.71137,-0.610528 1.28297,-1.750879 2.34857,-1.76214 1.35283,-0.3769 2.45578,0.245288 3.51873,0.92075 1.14141,0.661213 1.8652,1.877702 2.35807,3.03827 0.61749,1.459692 -1.50742,2.112431 -2.6109,2.473827 -0.75935,0.217089 -1.6234,0.49086 -2.40719,0.210723 z" />
  </g>
</svg>
