<?xml version="1.0" encoding="UTF-8" standalone="no"?>
<svg
   xmlns:dc="http://purl.org/dc/elements/1.1/"
   xmlns:cc="http://creativecommons.org/ns#"
   xmlns:rdf="http://www.w3.org/1999/02/22-rdf-syntax-ns#"
   xmlns:svg="http://www.w3.org/2000/svg"
   xmlns="http://www.w3.org/2000/svg"
   xmlns:sodipodi="http://sodipodi.sourceforge.net/DTD/sodipodi-0.dtd"
   xmlns:inkscape="http://www.inkscape.org/namespaces/inkscape"
   version="1.1"
   id="svg2"
   width="105.35593"
   height="98.118507"
   viewBox="0 0 105.35593 98.118509"
   sodipodi:docname="Smiley.svg"
   inkscape:version="1.0.2 (e86c870879, 2021-01-15)">
  <metadata
     id="metadata8">
    <rdf:RDF>
      <cc:Work
         rdf:about="">
        <dc:format>image/svg+xml</dc:format>
        <dc:type
           rdf:resource="http://purl.org/dc/dcmitype/StillImage" />
        <dc:title></dc:title>
      </cc:Work>
    </rdf:RDF>
  </metadata>
  <defs
     id="defs6" />
  <sodipodi:namedview
     pagecolor="#ffffff"
     bordercolor="#666666"
     borderopacity="1"
     objecttolerance="10"
     gridtolerance="10"
     guidetolerance="10"
     inkscape:pageopacity="0"
     inkscape:pageshadow="2"
     inkscape:window-width="1920"
     inkscape:window-height="1052"
     id="namedview4"
     showgrid="false"
     fit-margin-top="0"
     fit-margin-left="0"
     fit-margin-right="0"
     fit-margin-bottom="0"
     inkscape:zoom="7.9301076"
     inkscape:cx="7.6596436"
     inkscape:cy="46.863173"
     inkscape:window-x="0"
     inkscape:window-y="0"
     inkscape:window-maximized="1"
     inkscape:current-layer="g10" />
  <g
     inkscape:groupmode="layer"
     inkscape:label="Image"
     id="g10"
     transform="translate(-54.266457,-8.9368261)">
    <path
       style="fill:#000000;stroke-width:0.08"
       d="m 99.257498,106.99561 c -0.154,-0.0335 -0.825896,-0.0418 -1.493102,-0.0186 -1.040434,0.0362 -1.241788,0.0234 -1.414636,-0.0899 -0.142074,-0.0931 -0.24442,-0.10995 -0.346897,-0.0571 -0.191015,0.0984 -2.922137,0.0454 -3.38211,-0.0657 -0.196209,-0.0474 -0.682209,-0.12246 -1.08,-0.16684 -0.39779,-0.0444 -0.993255,-0.11051 -1.323255,-0.14696 -0.588056,-0.065 -1.481679,-0.28468 -1.64,-0.40325 -0.138858,-0.104 -0.626343,-0.23798 -1.003777,-0.27587 -0.43599,-0.0438 -0.796223,-0.17084 -0.796223,-0.28087 0,-0.17276 -0.499563,-0.34309 -0.860971,-0.29356 -0.364567,0.05 -1.630734,-0.21549 -2.299029,-0.48201 -0.578696,-0.23078 -0.635099,-0.255 -1.171438,-0.50286 -0.29229,-0.13508 -0.584435,-0.2456 -0.649211,-0.2456 -0.06477,0 -0.209745,-0.0723 -0.322153,-0.16077 -0.2193,-0.17249 -1.304633,-0.6385 -1.488148,-0.63896 -0.120952,0 -1.464051,-0.63301 -1.52905,-0.72032 -0.022,-0.0296 -0.282679,-0.18854 -0.579288,-0.35333 -0.296608,-0.16477 -0.558021,-0.32991 -0.580918,-0.36696 -0.0229,-0.037 -0.149751,-0.0911 -0.281899,-0.12012 -0.132149,-0.029 -0.416193,-0.19183 -0.631209,-0.36179 -0.215016,-0.16996 -0.52822,-0.36638 -0.696009,-0.43648 -0.167788,-0.0701 -0.324331,-0.15559 -0.347873,-0.18996 -0.02354,-0.0344 -0.249804,-0.21418 -0.502804,-0.3995 -0.253,-0.18531 -0.46,-0.368268 -0.46,-0.406572 0,-0.03831 -0.101178,-0.10492 -0.224839,-0.148032 -0.123662,-0.0431 -0.291768,-0.145632 -0.373571,-0.227824 -0.0818,-0.0822 -0.391681,-0.275448 -0.688618,-0.429448 -0.296938,-0.154 -0.757705,-0.485432 -1.023926,-0.736512 -0.266222,-0.251088 -0.57515,-0.516216 -0.686506,-0.589184 -0.111357,-0.07296 -0.337483,-0.257184 -0.502503,-0.409376 -0.16502,-0.1522 -0.399037,-0.335832 -0.520037,-0.408072 -0.121,-0.07225 -0.22,-0.178176 -0.22,-0.2354 0,-0.05722 -0.126,-0.164128 -0.28,-0.237568 -0.154,-0.07344 -0.28,-0.16788 -0.28,-0.209864 0,-0.04199 -0.243,-0.307808 -0.54,-0.590704 -0.745986,-0.710552 -0.75326,-0.716592 -0.996145,-0.827128 -0.118879,-0.0541 -0.270525,-0.210376 -0.33699,-0.34728 -0.175716,-0.361936 -0.640287,-0.834176 -0.879755,-0.89428 -0.113911,-0.02858 -0.20711,-0.10876 -0.20711,-0.17816 0,-0.147448 -0.521539,-0.783984 -1.015141,-1.238968 -0.189673,-0.174832 -0.344859,-0.3632 -0.344859,-0.418584 0,-0.05538 -0.210852,-0.319552 -0.468559,-0.587048 -0.459985,-0.47744 -1.211441,-1.508128 -1.211441,-1.661592 0,-0.04289 -0.124857,-0.202248 -0.27746,-0.354128 -0.152603,-0.151888 -0.278603,-0.320872 -0.28,-0.375536 -0.0014,-0.05466 -0.107996,-0.193344 -0.236887,-0.308184 -0.128891,-0.114848 -0.216823,-0.25448 -0.195403,-0.310296 0.02142,-0.05582 -0.01712,-0.123008 -0.08565,-0.149304 -0.06853,-0.0263 -0.1246,-0.134536 -0.1246,-0.240528 0,-0.105992 -0.05345,-0.237072 -0.11877,-0.29128 -0.06532,-0.05422 -0.200324,-0.265624 -0.3,-0.4698 -0.09968,-0.204176 -0.319793,-0.50264 -0.489149,-0.663256 -0.236494,-0.224296 -0.295524,-0.331088 -0.254484,-0.4604 0.03737,-0.117752 0.01332,-0.183752 -0.08004,-0.219576 -0.07341,-0.02817 -0.236558,-0.270992 -0.36255,-0.539608 -0.125991,-0.268608 -0.374295,-0.704384 -0.551786,-0.968384 -0.177491,-0.264 -0.323971,-0.552 -0.325511,-0.64 -0.0015,-0.088 -0.05565,-0.22988 -0.120254,-0.315288 -0.0646,-0.08542 -0.117456,-0.244016 -0.117456,-0.352448 0,-0.10844 -0.09,-0.31516 -0.2,-0.459376 -0.11,-0.144216 -0.200134,-0.309616 -0.200299,-0.367552 -1.6e-4,-0.05794 -0.07216,-0.223208 -0.16,-0.367272 -0.08784,-0.144061 -0.159701,-0.348299 -0.159701,-0.453859 0,-0.105561 -0.09429,-0.303983 -0.209527,-0.440938 -0.11524,-0.136955 -0.217827,-0.354505 -0.22797,-0.483445 -0.01014,-0.12894 -0.05255,-0.280648 -0.09424,-0.337129 -0.198506,-0.268943 -0.715644,-1.716984 -1.03085,-2.886486 -0.104328,-0.387085 -0.258486,-0.909085 -0.342572,-1.16 -0.08409,-0.250913 -0.158134,-0.563813 -0.16455,-0.69533 -0.01046,-0.21436 -0.148574,-0.677567 -0.334219,-1.120877 -0.03685,-0.088 -0.09105,-0.322 -0.120445,-0.52 -0.02939,-0.198 -0.139877,-0.619669 -0.245521,-0.937042 -0.105643,-0.317373 -0.184876,-0.605373 -0.176073,-0.64 0.02331,-0.0917 -0.103872,-0.769043 -0.162037,-0.862958 -0.02725,-0.044 -0.05856,-0.17 -0.06957,-0.28 -0.01101,-0.11 -0.03429,-0.344 -0.05173,-0.52 -0.01744,-0.176 -0.07094,-0.442126 -0.118883,-0.59139 -0.04795,-0.149264 -0.0681,-0.302264 -0.04478,-0.34 0.02332,-0.03774 0.0019,-0.06861 -0.04771,-0.06861 -0.054,0 -0.06956,-0.06475 -0.03882,-0.161598 0.02821,-0.08888 -0.01189,-0.34988 -0.08911,-0.58 -0.07722,-0.230121 -0.1347,-0.494287 -0.127735,-0.587035 0.007,-0.09275 -0.03415,-0.416749 -0.09136,-0.72 -0.06122,-0.324485 -0.08381,-0.758509 -0.05489,-1.054763 0.02702,-0.276867 0.03073,-0.521798 0.0082,-0.54429 -0.02249,-0.02249 -0.03043,-0.162364 -0.01764,-0.310825 0.01279,-0.148461 -0.02811,-0.35353 -0.09088,-0.455709 -0.06278,-0.102179 -0.121218,-0.34639 -0.12987,-0.54269 -0.0087,-0.1963 -0.04545,-0.3943 -0.08178,-0.44 -0.03633,-0.0457 -0.08781,-0.37109 -0.114402,-0.72309 -0.02659,-0.352 -0.06576,-0.766 -0.08705,-0.92 -0.07613,-0.550856 -0.233181,-4.57525 -0.216973,-5.56 0.0051,-0.308 -0.0018,-0.767584 -0.01535,-1.021297 -0.01351,-0.253713 0.0033,-0.666494 0.03731,-0.91729 0.03935,-0.289936 0.03156,-0.492527 -0.02138,-0.556311 -0.08586,-0.103459 -0.130338,-1.05025 -0.07258,-1.545102 0.03859,-0.330614 0.140074,-0.56 0.24776,-0.56 0.04245,0 0.146606,-0.063 0.231452,-0.14 0.480812,-0.436348 0.670152,-0.499058 1.621015,-0.536883 0.501203,-0.01994 0.735676,0.003 0.84,0.08207 0.07959,0.06035 0.20214,0.11087 0.27232,0.11227 0.07018,0.0014 0.191938,0.07364 0.270573,0.160526 0.142224,0.157156 0.741956,0.482018 0.88986,0.482018 0.08387,0 0.505849,0.330186 0.792363,0.62 0.09787,0.099 0.235556,0.18 0.305962,0.18 0.07041,0 0.171103,0.081 0.223768,0.18 0.05267,0.099 0.184631,0.274566 0.293255,0.390146 0.108624,0.115581 0.197063,0.241581 0.19653,0.28 -5.6e-4,0.03842 0.04877,0.140864 0.10956,0.227655 0.06079,0.08679 0.110528,0.236789 0.110528,0.333333 0,0.09654 0.03935,0.188648 0.08743,0.204677 0.04809,0.01603 0.09529,0.172029 0.104887,0.346667 0.0096,0.174637 0.06131,0.398118 0.114901,0.496624 0.09363,0.17208 0.09244,0.623359 -0.0021,0.783834 -0.06556,0.111321 -0.08723,5.900477 -0.0256,6.837064 0.04017,0.610433 0.0428,0.687246 0.04497,1.312848 0.0011,0.304066 0.02,0.582116 0.04211,0.617889 0.02211,0.03577 0.05283,0.470991 0.06827,0.967152 0.01544,0.496161 0.06977,1.056881 0.120727,1.246045 0.05096,0.189163 0.06981,0.41589 0.0419,0.503838 -0.02791,0.08795 -0.0078,0.21172 0.04481,0.275048 0.05256,0.06333 0.07635,0.165201 0.05287,0.226384 -0.02348,0.06118 -0.0065,0.376642 0.0378,0.701018 0.04427,0.324378 0.09136,0.815164 0.104655,1.090636 0.01329,0.275472 0.06009,0.545472 0.104007,0.6 0.09102,0.113013 0.199594,0.544912 0.226039,0.899142 0.02781,0.372557 0.194003,1.182389 0.279093,1.36 0.04216,0.088 0.08945,0.327284 0.105097,0.531743 0.01564,0.204459 0.04614,0.402459 0.06776,0.44 0.07882,0.136835 0.249079,0.719829 0.347015,1.188257 0.149539,0.71525 0.315918,1.37619 0.49692,1.974022 0.08892,0.293713 0.140851,0.554855 0.11539,0.580316 -0.02546,0.02546 0.03525,0.133088 0.134907,0.239172 0.125187,0.133255 0.164798,0.244557 0.128138,0.36006 -0.03493,0.110061 0.0028,0.238161 0.110347,0.374922 0.08987,0.114257 0.187048,0.339087 0.215941,0.499624 0.02889,0.160536 0.07915,0.327884 0.111677,0.371884 0.07879,0.106575 0.271807,0.68889 0.278431,0.84 0.0029,0.066 0.103726,0.224578 0.224072,0.352394 0.120348,0.127818 0.212288,0.271818 0.204312,0.32 -0.01452,0.08772 0.06325,0.289022 0.342905,0.887606 0.08223,0.176 0.161549,0.392 0.17627,0.48 0.03302,0.197408 0.31216,0.678808 0.394005,0.679496 0.033,0 0.06,0.106376 0.06,0.235784 0,0.1294 0.03804,0.258784 0.08452,0.287512 0.04649,0.02874 0.172666,0.244944 0.280397,0.480464 0.107731,0.235528 0.271599,0.481264 0.36415,0.546096 0.09255,0.06482 0.145786,0.154248 0.118299,0.198728 -0.02749,0.04447 -0.01339,0.10348 0.03133,0.131112 0.04472,0.02764 0.08131,0.115272 0.08131,0.194744 0,0.07946 0.072,0.236016 0.16,0.347896 0.088,0.111872 0.16,0.259528 0.16,0.32812 0,0.06859 0.126,0.250712 0.28,0.404712 0.154,0.154 0.28,0.331392 0.28,0.394208 0,0.06282 0.108,0.229824 0.24,0.371128 0.132,0.141304 0.24,0.303816 0.24,0.361128 0,0.05731 0.154403,0.296504 0.343117,0.531536 0.188715,0.235032 0.47411,0.607336 0.634211,0.827336 0.160103,0.22 0.366337,0.463192 0.4583,0.540432 0.122047,0.102504 0.153676,0.194328 0.117116,0.34 -0.03213,0.127992 -0.01636,0.199568 0.04396,0.199568 0.130581,0 0.720085,0.499512 0.721849,0.611656 8e-4,0.05042 0.334443,0.4372 0.741443,0.859528 0.407,0.422328 0.779844,0.81308 0.828541,0.868336 0.0487,0.05526 0.174698,0.175648 0.28,0.26752 0.105303,0.09186 0.268995,0.253864 0.36376,0.36 0.09477,0.106128 0.308479,0.28296 0.474916,0.39296 0.166438,0.11 0.468259,0.365144 0.670713,0.566992 0.202455,0.20184 0.546841,0.489936 0.765301,0.640216 0.21846,0.150272 0.475523,0.345128 0.57125,0.433008 0.286705,0.263208 0.45192,0.395368 0.599756,0.479784 0.628618,0.358936 1.099761,0.68616 1.353427,0.94 0.164885,0.165 0.351759,0.3 0.415275,0.3 0.06352,0 0.201338,0.06594 0.306272,0.146528 0.104933,0.08058 0.352705,0.233584 0.550602,0.34 0.197898,0.106408 0.570858,0.346472 0.828801,0.533472 0.257942,0.187 0.512187,0.34 0.564988,0.34 0.09749,0 1.008505,0.447312 1.446398,0.710184 0.275719,0.165512 1.763088,0.809816 1.869467,0.809816 0.03902,0 0.115757,0.054 0.170533,0.12 0.05477,0.066 0.176183,0.121584 0.269795,0.123512 0.09361,0.0019 0.314205,0.05832 0.490205,0.125312 0.176,0.06698 0.518,0.174048 0.76,0.237912 0.242,0.06386 0.502511,0.151479 0.578914,0.194699 0.0764,0.0432 0.202403,0.0797 0.28,0.0811 0.0776,10e-4 0.210966,0.0554 0.296376,0.12 0.08541,0.0646 0.269883,0.11745 0.409942,0.11745 0.140058,0 0.411432,0.0553 0.603052,0.12292 0.330321,0.11655 0.822768,0.2112 1.843719,0.35437 0.248602,0.0349 0.486339,0.0846 0.528305,0.11055 0.04197,0.0259 0.28197,0.0639 0.533342,0.0843 0.251372,0.0204 0.499635,0.072 0.551695,0.11467 0.05206,0.0426 0.418655,0.0948 0.814655,0.11593 3.231883,0.17237 4.173148,0.24663 4.306972,0.33978 0.104842,0.073 0.219505,0.081 0.4,0.028 0.218841,-0.0643 1.363788,-0.0393 1.973028,0.043 0.961502,0.13 1.207048,0.14021 1.310309,0.0545 0.112114,-0.093 1.441146,-0.0634 1.858916,0.0414 0.10607,0.0266 0.23738,0.0133 0.29181,-0.0296 0.10921,-0.0861 0.91291,-0.16698 2.25896,-0.22747 0.484,-0.0217 1.05278,-0.0739 1.26394,-0.11597 0.21117,-0.042 0.71517,-0.0765 1.12,-0.0765 0.40484,-6e-5 1.03892,-0.0534 1.40908,-0.11854 0.37016,-0.0651 0.88078,-0.11272 1.13472,-0.10572 0.25394,0.007 0.51094,-0.0281 0.5711,-0.0781 0.0676,-0.0561 0.39844,-0.0853 0.86528,-0.0766 0.52678,0.01 0.8165,-0.0201 0.95588,-0.0989 0.11,-0.0622 0.398,-0.12057 0.64,-0.12961 0.242,-0.009 0.58279,-0.0778 0.7573,-0.15275 0.17452,-0.075 0.58852,-0.15108 0.92,-0.16912 0.33149,-0.018 0.8547,-0.10458 1.1627,-0.19231 0.76132,-0.21685 1.27706,-0.329215 1.8,-0.392175 0.242,-0.02914 0.51864,-0.09642 0.61474,-0.149544 0.0961,-0.05311 0.30357,-0.09657 0.46102,-0.09657 0.15745,0 0.54609,-0.072 0.86365,-0.16 0.31756,-0.088 0.69689,-0.16 0.84296,-0.16 0.14607,0 0.36279,-0.04799 0.48161,-0.106648 0.23075,-0.11392 0.75216,-0.233136 1.65602,-0.378648 0.308,-0.04958 0.614,-0.122032 0.68,-0.161008 0.5736,-0.338704 1.61578,-0.685776 2.6,-0.865872 0.176,-0.0322 0.392,-0.09922 0.48,-0.14892 0.088,-0.0497 0.394,-0.167168 0.68,-0.261024 0.286,-0.09386 0.574,-0.21708 0.64,-0.273824 0.066,-0.05674 0.21,-0.122272 0.32,-0.145624 0.38629,-0.082 1.08006,-0.380416 1.52984,-0.658032 0.24985,-0.154216 0.4793,-0.2804 0.50988,-0.2804 0.0306,0 0.15114,-0.06542 0.26793,-0.145368 0.11679,-0.07995 0.29388,-0.149752 0.39353,-0.155112 0.0996,-0.0054 0.27234,-0.08146 0.38375,-0.169104 0.11143,-0.08765 0.30848,-0.182616 0.43791,-0.21104 0.12944,-0.02842 0.25587,-0.08492 0.28096,-0.125528 0.0251,-0.04062 0.18722,-0.07385 0.36024,-0.07385 0.22796,0 0.34212,-0.04406 0.41453,-0.16 0.06,-0.09606 0.18656,-0.16 0.31671,-0.16 0.11922,0 0.24556,-0.04586 0.28075,-0.10192 0.12434,-0.198096 0.49506,-0.373544 0.76764,-0.363296 0.18369,0.0069 0.33867,-0.04799 0.46333,-0.164128 0.10302,-0.09598 0.32887,-0.21692 0.50188,-0.26876 0.17301,-0.05183 0.32948,-0.151272 0.3477,-0.220976 0.0319,-0.121832 0.87827,-0.56036 1.08366,-0.561448 0.0549,0 0.20776,-0.07205 0.33976,-0.159472 0.132,-0.08742 0.34137,-0.159184 0.46526,-0.159472 0.25886,-8e-4 0.55768,-0.138696 0.50046,-0.23128 -0.0213,-0.0345 0.0587,-0.140856 0.17776,-0.236352 0.11909,-0.09549 0.33058,-0.264184 0.46998,-0.374864 0.13939,-0.11068 0.41727,-0.273704 0.6175,-0.362272 0.20023,-0.08857 0.39217,-0.208608 0.42655,-0.26676 0.0344,-0.05814 0.22124,-0.209952 0.41525,-0.33736 0.19402,-0.1274 0.44602,-0.293544 0.56,-0.369208 0.39968,-0.265304 0.60981,-0.361512 0.90724,-0.415368 0.165,-0.02987 0.3,-0.09254 0.3,-0.139248 0,-0.04671 0.0506,-0.06551 0.11248,-0.04177 0.14478,0.05555 0.32054,-0.142984 0.4834,-0.546048 0.0753,-0.18628 0.26193,-0.418344 0.44671,-0.555344 0.17457,-0.12944 0.31741,-0.26444 0.31741,-0.3 0,-0.03556 0.12532,-0.06466 0.27848,-0.06466 0.23224,0 0.28703,-0.03409 0.33,-0.205312 0.0283,-0.11292 0.18204,-0.292536 0.34153,-0.399152 0.55993,-0.374256 0.69123,-0.477056 0.83346,-0.65256 0.0789,-0.09737 0.27075,-0.200904 0.42631,-0.230088 0.16219,-0.03042 0.30575,-0.113624 0.33654,-0.195032 0.0295,-0.07808 0.22314,-0.325544 0.43023,-0.549912 0.29125,-0.315528 0.4307,-0.407944 0.61555,-0.407944 0.14015,0 0.33181,-0.08166 0.46344,-0.197472 0.19022,-0.167344 0.20161,-0.197856 0.0747,-0.2 -0.12403,-0.0021 -0.13267,-0.02318 -0.0502,-0.122528 0.0548,-0.066 0.14798,-0.12 0.20713,-0.12 0.0591,0 0.23353,-0.126 0.38753,-0.28 0.154,-0.154 0.3262,-0.280552 0.38267,-0.281224 0.077,-9.6e-4 0.0747,-0.01892 -0.009,-0.07193 -0.18511,-0.117208 -0.0381,-0.326848 0.22915,-0.326848 0.18917,0 0.24251,-0.03518 0.24251,-0.16 0,-0.088 0.0375,-0.16 0.0833,-0.16 0.0458,0 0.1939,-0.177896 0.32906,-0.395328 0.15268,-0.245616 0.3329,-0.42572 0.47589,-0.47556 0.14471,-0.05045 0.21452,-0.120928 0.18806,-0.18988 -0.0231,-0.0603 0.0402,-0.201328 0.14081,-0.313392 0.23136,-0.257744 0.35141,-0.441512 0.49273,-0.754168 0.115,-0.254448 0.45015,-0.427728 0.45015,-0.232744 0,0.13056 0.24327,0.2298 0.336,0.137072 0.10837,-0.108376 -0.0167,-0.336 -0.18456,-0.336 -0.2057,0 -0.19929,-0.294032 0.008,-0.359773 0.0876,-0.02781 0.1912,-0.03083 0.23021,-0.0067 0.039,0.02411 0.19579,-0.07392 0.3484,-0.217845 0.21692,-0.20459 0.2866,-0.342724 0.31933,-0.633127 0.0235,-0.208092 0.006,-0.407757 -0.0407,-0.454017 -0.0568,-0.05677 -0.016,-0.107889 0.13046,-0.163568 0.11716,-0.04455 0.21302,-0.138113 0.21302,-0.207927 0,-0.172621 0.39522,-0.997026 0.47798,-0.997026 0.0365,0 0.10389,-0.107637 0.14975,-0.239194 0.0459,-0.131557 0.17538,-0.331193 0.28783,-0.443637 0.12699,-0.126995 0.20444,-0.293981 0.20444,-0.440805 0,-0.13 0.0338,-0.236364 0.0751,-0.236364 0.0413,0 0.0992,-0.160815 0.12868,-0.357367 0.0521,-0.347364 0.23806,-0.525102 0.42714,-0.408243 0.0982,0.06069 0.16102,-0.620821 0.0633,-0.686317 -0.13796,-0.09243 0.015,-0.308073 0.21859,-0.308073 0.2406,0 0.33421,-0.127001 0.20678,-0.280543 -0.0732,-0.08818 -0.0658,-0.170529 0.0331,-0.368786 0.07,-0.14039 0.12734,-0.340852 0.12734,-0.445473 0,-0.104621 0.0549,-0.211294 0.12204,-0.237052 0.0971,-0.03724 0.1023,-0.07063 0.0256,-0.163016 -0.0784,-0.09444 -0.0539,-0.150096 0.13077,-0.297342 0.16355,-0.130415 0.21483,-0.228432 0.18306,-0.349928 -0.0556,-0.212775 0.16692,-0.426832 0.38461,-0.369907 0.0986,0.02579 0.21426,-0.01786 0.30084,-0.113522 0.13152,-0.14532 0.13195,-0.164112 0.007,-0.289322 -0.0737,-0.07365 -0.21036,-0.127944 -0.3038,-0.120654 -0.29531,0.02304 -0.36988,-0.0012 -0.36988,-0.12048 0,-0.06381 0.0458,-0.144814 0.10168,-0.18 0.12904,-0.08119 0.33194,-0.510319 0.30728,-0.64991 -0.0103,-0.05826 0.0271,-0.161106 0.083,-0.228536 0.0869,-0.104689 0.13243,-0.62252 0.14788,-1.681564 0.001,-0.09682 0.038,-0.197944 0.0813,-0.224722 0.0433,-0.02678 0.0788,-0.118562 0.0788,-0.203965 0,-0.172948 0.31808,-0.227441 0.32266,-0.05528 0.004,0.151221 0.28702,0.46 0.4216,0.46 0.13881,0 0.24706,-0.212193 0.22445,-0.44 -0.0132,-0.132723 -0.002,-0.139542 0.0665,-0.04 0.0453,0.066 0.0829,0.08859 0.0836,0.0502 8e-4,-0.03839 0.0552,-0.02498 0.12123,0.0298 0.066,0.05477 0.1245,0.07718 0.13,0.0498 0.0436,-0.216853 0.0274,-0.586583 -0.029,-0.662673 -0.0861,-0.116228 0.0625,-0.219105 0.19669,-0.136177 0.0537,0.03321 0.19378,0.05307 0.31121,0.04412 0.13415,-0.01022 0.23199,0.03193 0.26326,0.113409 0.0313,0.08148 0.10787,0.114482 0.20612,0.08879 0.11258,-0.02944 0.20152,0.02961 0.31768,0.210923 0.0887,0.138497 0.16193,0.204687 0.16267,0.14709 8e-4,-0.05815 0.0421,-0.07954 0.093,-0.04811 0.0632,0.03908 0.079,-0.009 0.0511,-0.15528 -0.0243,-0.127242 -0.005,-0.211889 0.0491,-0.211889 0.11563,0 0.30704,0.304718 0.24971,0.397494 -0.0241,0.03904 0.0376,0.09676 0.13729,0.128257 0.0996,0.0315 0.29609,0.144792 0.43658,0.251762 0.30046,0.228795 0.29836,0.228701 0.50458,0.02249 0.32056,-0.320559 0.46344,-0.196402 0.64445,0.56 0.0579,0.242 0.14955,0.494 0.20365,0.56 0.0541,0.066 0.12257,0.264 0.15216,0.44 0.0296,0.176 0.10811,0.440767 0.1745,0.588371 0.0664,0.147605 0.10229,0.363605 0.0798,0.48 -0.0225,0.116396 -0.007,0.395823 0.0344,0.62095 0.0516,0.280762 0.0472,0.481771 -0.014,0.64 -0.0491,0.126873 -0.14066,0.618847 -0.20352,1.093275 -0.0629,0.474428 -0.19926,1.122428 -0.30311,1.44 -0.10386,0.317572 -0.23123,0.757404 -0.28307,0.977404 -0.0518,0.22 -0.16038,0.544 -0.24121,0.72 -0.0808,0.176 -0.16879,0.416225 -0.19547,0.533834 -0.0267,0.117609 -0.14481,0.328277 -0.26251,0.468151 -0.11769,0.139874 -0.21841,0.314281 -0.22381,0.387572 -0.005,0.07329 -0.0387,0.180018 -0.074,0.237172 -0.0353,0.05715 -0.0451,0.123029 -0.0218,0.14639 0.0234,0.02336 -0.063,0.213947 -0.19199,0.423526 -0.12895,0.209577 -0.23446,0.435037 -0.23446,0.50102 0,0.215672 -0.87273,1.843471 -1.15981,2.163263 -0.15411,0.171664 -0.28019,0.382448 -0.28019,0.468408 0,0.178872 -0.18169,0.49448 -0.46239,0.8032 -0.10629,0.116896 -0.32857,0.432576 -0.49396,0.70152 -0.16539,0.268936 -0.41387,0.613336 -0.55218,0.765328 -0.13831,0.151992 -0.25147,0.325776 -0.25147,0.386184 0,0.0604 -0.162,0.257256 -0.36,0.437456 -0.198,0.180192 -0.36,0.365728 -0.36,0.412304 0,0.04657 -0.063,0.150728 -0.14,0.231456 -0.077,0.08074 -0.28355,0.323736 -0.45899,0.54 -0.17544,0.216272 -0.50801,0.584112 -0.73905,0.817424 -0.23104,0.23332 -0.52543,0.57532 -0.6542,0.76 -0.12876,0.184688 -0.56307,0.641792 -0.96512,1.015792 -0.40205,0.374 -0.97533,0.914 -1.27396,1.2 -0.29862,0.286 -0.71452,0.646 -0.92423,0.8 -0.2097,0.154 -0.45849,0.356 -0.55287,0.44888 -0.0944,0.09289 -0.32214,0.245368 -0.50616,0.338856 -0.18401,0.09349 -0.35714,0.206496 -0.38472,0.25112 -0.0276,0.04463 -0.15602,0.08114 -0.28542,0.08114 -0.19062,0 -0.23531,0.03417 -0.23543,0.18 0,0.126216 -0.10766,0.247928 -0.36,0.407344 -0.19792,0.12504 -0.35985,0.271112 -0.35985,0.324608 0,0.05349 -0.14745,0.162312 -0.32766,0.241816 -0.18021,0.07951 -0.44121,0.242632 -0.58,0.362488 -0.39594,0.341936 -1.41228,0.978696 -1.70596,1.068832 -0.14652,0.04497 -0.26639,0.1292 -0.26639,0.187184 0,0.05798 -0.15648,0.144824 -0.34773,0.192984 -0.3388,0.08531 -0.77227,0.400408 -0.77227,0.561376 0,0.04409 -0.22019,0.184296 -0.48932,0.311576 -0.26912,0.127272 -0.56612,0.297392 -0.66,0.37804 -0.23912,0.205424 -0.67429,0.503752 -0.73482,0.503752 -0.0278,0 -0.14215,0.072 -0.25403,0.16 -0.11188,0.088 -0.26619,0.16 -0.34292,0.16 -0.15358,0 -1.03788,0.508888 -1.12265,0.646048 -0.0293,0.04734 -0.21139,0.104496 -0.40473,0.126992 -0.19334,0.0225 -0.56753,0.14012 -0.83153,0.261368 -0.264,0.121248 -0.57594,0.244032 -0.69321,0.272848 -0.13178,0.03238 -0.25383,0.14412 -0.31953,0.292568 -0.0791,0.1788 -0.15991,0.240176 -0.31607,0.240176 -0.11537,0 -0.55175,0.162 -0.96973,0.36 -0.47286,0.223992 -0.87131,0.360002 -1.05469,0.360002 -0.30609,0 -0.76677,0.19025 -0.76677,0.31666 0,0.0399 -0.081,0.0978 -0.18,0.12873 -0.099,0.0309 -0.198,0.0802 -0.22,0.10946 -0.0995,0.13255 -0.96899,0.52404 -1.44344,0.64992 -0.28789,0.0764 -0.71763,0.23255 -0.95497,0.34705 -0.23734,0.1145 -0.48058,0.20818 -0.54053,0.20818 -0.0599,0 -0.21402,0.0543 -0.34236,0.12067 -0.12835,0.0664 -0.32456,0.12822 -0.43603,0.13745 -0.11147,0.009 -0.20267,0.0401 -0.20267,0.0686 0,0.0656 -0.89129,0.39328 -1.0698,0.39328 -0.0734,0 -0.27595,0.09 -0.4502,0.2 -0.17425,0.11 -0.42732,0.2 -0.56238,0.2 -0.13506,0 -0.34278,0.0493 -0.46159,0.10964 -0.11881,0.0603 -0.29703,0.0965 -0.39603,0.0805 -0.099,-0.016 -0.18,8e-4 -0.18,0.0369 0,0.0363 -0.117,0.10596 -0.26,0.15469 -0.143,0.0487 -0.476,0.16801 -0.74,0.26503 -0.264,0.097 -0.696,0.20454 -0.96,0.23894 -0.71099,0.0927 -1.55163,0.28382 -2.04436,0.4649 -0.38146,0.14018 -0.67147,0.2126 -1.51564,0.37851 -0.11,0.0216 -0.371,0.059 -0.58,0.0831 -0.209,0.0241 -0.38,0.0688 -0.38,0.0993 0,0.0305 -0.225,0.10007 -0.5,0.15461 -0.275,0.0546 -0.67425,0.13409 -0.88722,0.17676 -0.21297,0.0427 -0.42068,0.0569 -0.46156,0.0316 -0.0409,-0.0253 -0.20864,-8e-4 -0.37278,0.0552 -0.16414,0.0556 -0.3847,0.0909 -0.49014,0.0784 -0.10543,-0.0125 -0.26743,0.0116 -0.36,0.0535 -0.63909,0.28923 -0.84457,0.34009 -1.53325,0.37947 -0.42077,0.0241 -0.82578,0.0762 -0.90004,0.11588 -0.24691,0.13192 -1.24744,0.33652 -1.81501,0.37117 -0.308,0.0188 -0.776,0.0681 -1.04,0.10949 -1.15444,0.18113 -2.90216,0.22599 -3.2754,0.0841 -0.14572,-0.0554 -0.32021,-0.0502 -0.57149,0.017 -0.287,0.0768 -0.3745,0.0761 -0.42354,-0.003 -0.0432,-0.0699 -0.091,-0.0359 -0.159,0.11327 l -0.0972,0.21328 -0.90092,-0.0397 c -0.49551,-0.0219 -0.98002,-0.0821 -1.0767,-0.13383 -0.13633,-0.073 -0.21616,-0.0714 -0.35577,0.007 -0.15983,0.0897 -0.60096,0.12264 -2.3,0.17189 -0.242,0.007 -0.68593,-0.0156 -0.98651,-0.0501 -0.307566,-0.0354 -0.527714,-0.0325 -0.503519,0.007 0.05214,0.0844 -0.06004,0.0858 -0.42997,0.005 z m 25.840002,-3.66919 c 0,-0.044 -0.063,-0.0795 -0.14,-0.0788 -0.11964,0.001 -0.12255,0.0125 -0.02,0.0788 0.15097,0.0976 0.16,0.0976 0.16,0 z m 6.60216,-6.7965 c -0.026,-0.04208 -0.10013,-0.05623 -0.16472,-0.03144 -0.16537,0.06346 -0.14588,0.107944 0.0473,0.107944 0.0906,0 0.14345,-0.03442 0.11744,-0.0765 z m 6.10055,-3.27112 c 0.12683,-0.08048 0.0478,-0.31044 -0.14161,-0.411784 -0.18469,-0.09885 -0.22073,-0.05055 -0.17823,0.238952 0.0355,0.242032 0.13017,0.293184 0.31984,0.172832 z m 8.57729,-7.452376 c 0,-0.044 -0.0741,-0.08 -0.16472,-0.08 -0.0906,0 -0.14247,0.036 -0.11528,0.08 0.0272,0.044 0.10132,0.08 0.16472,0.08 0.0634,0 0.11528,-0.036 0.11528,-0.08 z m 0.42744,-0.46612 c 0.12561,-0.138792 0.12021,-0.14436 -0.1076,-0.11092 -0.24798,0.03639 -0.31457,0.133552 -0.13984,0.204056 0.055,0.02219 0.10342,0.04319 0.1076,0.04667 0.004,0.0034 0.0671,-0.05944 0.13984,-0.139808 z m 0.99182,0.03353 c 0.0261,-0.02607 -0.0216,-0.0479 -0.10592,-0.0485 -0.0843,-8e-4 -0.23434,-0.02279 -0.33334,-0.04933 -0.12968,-0.03475 -0.18,-0.01376 -0.18,0.07508 0,0.09304 0.0702,0.116792 0.28592,0.09674 0.15726,-0.01462 0.30726,-0.04791 0.33334,-0.07399 z m 5.34074,-5.24741 c 0.0272,-0.044 -0.009,-0.08 -0.08,-0.08 -0.0712,0 -0.10719,0.036 -0.08,0.08 0.0272,0.044 0.0632,0.08 0.08,0.08 0.0168,0 0.0528,-0.036 0.08,-0.08 z m -0.92,-3.471441 c 0,-0.07589 -0.23947,-0.114137 -0.28216,-0.04507 -0.026,0.04208 0.0268,0.07651 0.11744,0.07651 0.0906,0 0.16472,-0.01415 0.16472,-0.03144 z m 1.36,-2.523837 c 0,-0.139418 -0.13535,-0.160412 -0.28822,-0.0447 -0.14381,0.108862 -0.14023,0.115027 0.0682,0.117438 0.121,0.0014 0.22,-0.03133 0.22,-0.07273 z m 2.25554,-3.086892 c 0.0673,-0.14766 0.0683,-0.22602 0.004,-0.290623 -0.11859,-0.11859 -0.34797,-0.02314 -0.2924,0.121673 0.0243,0.06321 0.005,0.139065 -0.0426,0.168556 -0.0477,0.02949 -0.0661,0.08713 -0.0407,0.128092 0.0869,0.140603 0.28009,0.07431 0.37213,-0.127698 z m -1.31205,-0.799827 c 0.16997,-0.158577 0.19311,-0.216657 0.10765,-0.270195 -0.25468,-0.15956 -0.66918,0.137668 -0.49114,0.352192 0.12887,0.155278 0.12926,0.155194 0.38349,-0.082 z m 1.29651,-0.358003 c 0,-0.088 -0.036,-0.16 -0.08,-0.16 -0.044,0 -0.08,-0.072 -0.08,-0.16 0,-0.10749 0.0533,-0.16 0.16251,-0.16 0.0894,0 0.18615,-0.063 0.21504,-0.14 0.0289,-0.077 0.10562,-0.179794 0.17049,-0.228431 0.1734,-0.129995 0.0533,-0.351569 -0.19056,-0.351569 -0.1693,0 -0.20293,0.03316 -0.18251,0.18 0.0188,0.13501 -0.015,0.18 -0.13497,0.18 -0.10534,0 -0.16878,0.06191 -0.18572,0.181186 -0.0152,0.107407 -0.0615,0.159072 -0.11359,0.126877 -0.0551,-0.03403 -0.0702,-0.0082 -0.0405,0.06906 0.026,0.06786 0.0179,0.154762 -0.0181,0.193123 -0.036,0.03836 -0.0343,0.150749 0.004,0.249749 0.092,0.239897 0.47422,0.256015 0.47422,0.02 z m -0.96,-1.28 c 0,-0.044 0.0381,-0.08 0.0847,-0.08 0.0466,0 0.0625,0.036 0.0353,0.08 -0.0272,0.044 -0.0653,0.08 -0.0847,0.08 -0.0194,0 -0.0353,-0.036 -0.0353,-0.08 z M 91.199019,62.834722 c -0.237991,-0.04179 -0.438591,-0.155632 -0.675687,-0.383455 -0.185464,-0.17821 -0.408509,-0.346649 -0.495656,-0.374309 -0.178169,-0.05655 -0.689092,-0.527924 -0.692192,-0.638616 -0.0011,-0.03956 -0.240029,-0.323918 -0.530935,-0.631918 -0.290905,-0.308 -0.576983,-0.673413 -0.635728,-0.812029 -0.05874,-0.138616 -0.163977,-0.309197 -0.233849,-0.379069 -0.162814,-0.162814 -0.610522,-0.834338 -0.727513,-1.091208 -0.22917,-0.503175 -0.296603,-0.682873 -0.280584,-0.747707 0.0095,-0.03851 -0.03778,-0.130869 -0.105089,-0.205249 -0.06731,-0.07438 -0.144337,-0.258875 -0.171163,-0.409988 -0.02683,-0.151112 -0.101533,-0.420912 -0.166015,-0.599554 -0.06448,-0.178642 -0.109246,-0.358642 -0.09947,-0.4 0.0098,-0.04136 -0.01003,-0.138797 -0.044,-0.21653 -0.03397,-0.07773 -0.04562,-0.225816 -0.02588,-0.329072 0.01974,-0.103256 -0.0059,-0.435656 -0.05695,-0.738666 -0.101187,-0.600474 -0.07433,-1.720763 0.043,-1.793273 0.0878,-0.05427 0.03321,-0.39265 -0.08192,-0.507782 -0.109978,-0.109978 -0.103351,-0.337653 0.01536,-0.527741 0.07678,-0.122942 0.07539,-0.216097 -0.0066,-0.44279 -0.06788,-0.187732 -0.07707,-0.32036 -0.02654,-0.383217 0.08628,-0.10732 0.194214,-0.77512 0.18114,-1.120699 -0.0047,-0.123516 0.04547,-0.383544 0.111441,-0.577841 0.06596,-0.194297 0.09884,-0.408239 0.07306,-0.475426 -0.02578,-0.06719 -0.01986,-0.185159 0.01316,-0.262159 0.03302,-0.077 0.06906,-0.267333 0.0801,-0.422962 0.01103,-0.155628 0.1,-0.55138 0.197703,-0.879447 0.166704,-0.559763 0.21513,-0.767761 0.269508,-1.157591 0.01228,-0.088 0.04329,-0.214 0.06893,-0.28 0.02564,-0.066 0.08781,-0.3 0.138168,-0.52 0.05035,-0.22 0.159122,-0.531436 0.241704,-0.692079 0.08258,-0.160644 0.130979,-0.311249 0.10755,-0.334678 -0.02343,-0.02343 -0.01242,-0.08999 0.02446,-0.147921 0.03688,-0.05793 0.06904,-0.213322 0.07146,-0.345322 0.0043,-0.232 0.144804,-0.790886 0.281659,-1.12 0.03659,-0.088 0.08841,-0.272088 0.11515,-0.409085 0.03021,-0.15475 0.16831,-0.349503 0.364659,-0.514237 0.357902,-0.300272 0.384962,-0.395149 0.153864,-0.539472 -0.161205,-0.100674 -0.160964,-0.103354 0.04,-0.446272 0.111197,-0.189745 0.202177,-0.401828 0.202177,-0.471296 0,-0.06947 0.045,-0.144564 0.1,-0.166881 0.07523,-0.03052 0.07027,-0.06141 -0.02,-0.124663 -0.103902,-0.07281 -0.09049,-0.140868 0.1,-0.507359 0.121,-0.232799 0.22,-0.477233 0.22,-0.543188 0,-0.06595 0.072,-0.254253 0.16,-0.418441 0.088,-0.16419 0.16,-0.364381 0.16,-0.444871 0,-0.08049 0.08889,-0.229853 0.197535,-0.331919 0.108644,-0.102066 0.180056,-0.213853 0.158695,-0.248417 -0.02136,-0.03456 -0.0022,-0.08546 0.04246,-0.113093 0.04472,-0.02764 0.0813,-0.112512 0.0813,-0.188612 0,-0.0761 0.072,-0.279587 0.16,-0.452194 0.088,-0.172607 0.16,-0.349866 0.16,-0.39391 0,-0.04404 0.099,-0.159922 0.22,-0.257506 0.180575,-0.145631 0.204418,-0.203515 0.133046,-0.323006 -0.111587,-0.186817 -0.0097,-0.434403 0.374337,-0.909828 0.290386,-0.35946 0.552624,-0.919925 0.552624,-1.181076 0,-0.07815 0.125078,-0.33842 0.277952,-0.578381 0.152874,-0.239961 0.279416,-0.508293 0.281205,-0.596293 0.0044,-0.21787 0.192793,-0.74395 0.307413,-0.85857 0.05139,-0.05139 0.09343,-0.125552 0.09343,-0.164812 0,-0.03926 0.072,-0.162915 0.16,-0.274788 0.088,-0.111874 0.16,-0.286511 0.16,-0.388082 0,-0.101572 0.07932,-0.240234 0.176268,-0.308138 0.09695,-0.0679 0.179896,-0.204946 0.18433,-0.304536 0.0044,-0.09959 0.19855,-0.577074 0.431366,-1.061074 0.794314,-1.651294 1.048036,-2.196475 1.048036,-2.25195 0,-0.0305 0.04981,-0.112286 0.110694,-0.181751 0.06088,-0.06947 0.227068,-0.396299 0.369306,-0.726299 0.142238,-0.33 0.308426,-0.656834 0.369306,-0.726299 0.06088,-0.06947 0.110694,-0.182057 0.110694,-0.250205 0,-0.06815 0.05305,-0.16793 0.117883,-0.221739 0.06483,-0.05381 0.139828,-0.214812 0.16665,-0.357785 0.02682,-0.142973 0.135774,-0.353784 0.242117,-0.46847 0.106343,-0.114685 0.19335,-0.259017 0.19335,-0.320736 0,-0.06172 0.107544,-0.324292 0.238986,-0.583492 0.131444,-0.259201 0.239444,-0.516274 0.24,-0.571274 5.6e-4,-0.055 0.0344,-0.1 0.0752,-0.1 0.08454,0 0.48581,-0.811646 0.48581,-0.982647 0,-0.0619 0.072,-0.177714 0.16,-0.257353 0.088,-0.07964 0.16,-0.180745 0.16,-0.22468 0,-0.125524 0.391347,-0.92053 0.480155,-0.975416 0.04391,-0.02714 0.07984,-0.101994 0.07984,-0.166341 0,-0.06435 0.08963,-0.252427 0.199168,-0.417957 0.109542,-0.165529 0.253656,-0.484444 0.320253,-0.708699 0.0666,-0.224254 0.17497,-0.452457 0.240832,-0.507117 0.06586,-0.05466 0.122137,-0.175973 0.125058,-0.269585 0.0029,-0.09361 0.129433,-0.332205 0.281137,-0.530205 0.151704,-0.198 0.332472,-0.486 0.401703,-0.64 0.11448,-0.254624 0.57695,-1.308163 0.70235,-1.6 0.0284,-0.066 0.1411,-0.278662 0.25053,-0.472582 0.10944,-0.193921 0.19898,-0.396513 0.19898,-0.450205 0,-0.05369 0.053,-0.141647 0.11788,-0.195456 0.0648,-0.05381 0.1406,-0.218935 0.16837,-0.366945 0.0278,-0.148011 0.10072,-0.310802 0.16212,-0.361758 0.0614,-0.05096 0.11163,-0.197367 0.11163,-0.32536 0,-0.133059 0.0514,-0.252435 0.12,-0.278764 0.066,-0.02533 0.12,-0.109342 0.12,-0.1867 0,-0.07736 0.0745,-0.235338 0.16551,-0.351065 0.10587,-0.1346 0.14713,-0.268332 0.11449,-0.371165 -0.0326,-0.102666 0.008,-0.236283 0.1134,-0.369779 0.0904,-0.114965 0.14614,-0.238593 0.12381,-0.274729 -0.0665,-0.107633 0.22494,-1.049016 0.33825,-1.092496 0.0575,-0.02206 0.10744,-0.09926 0.11099,-0.171555 0.004,-0.072292 0.0846,-0.2754405 0.18015,-0.4514405 0.14451,-0.2662127 0.22075,-0.3243639 0.45355,-0.3459627 0.15392,-0.01428 0.36182,-0.1024675 0.46201,-0.1959733 0.17501,-0.1633432 0.19118,-0.164678 0.41234,-0.034037 0.1266,0.074785 0.37278,0.1359733 0.54705,0.1359733 0.19573,0 0.39463,0.061167 0.52028,0.16 0.11187,0.088 0.24273,0.16 0.29079,0.16 0.0481,0 0.0874,0.054 0.0874,0.12 0,0.079931 0.0799,0.12 0.23938,0.12 0.16767,0 0.30548,0.074863 0.46,0.2498896 0.12134,0.1374386 0.21162,0.2814386 0.20062,0.3199996 -0.011,0.03856 0.016,0.07011 0.06,0.07011 0.044,0 0.08,0.06642 0.08,0.147601 0,0.08118 0.072,0.21276 0.16,0.292399 0.088,0.07964 0.16,0.225367 0.16,0.32384 0,0.172191 0.13529,0.27616 0.35936,0.27616 0.0584,0 0.25567,0.09781 0.43825,0.217349 0.22706,0.14866 0.32061,0.260799 0.29602,0.354833 -0.0198,0.07562 0.0165,0.157632 0.0807,0.182257 0.0754,0.02893 0.0986,0.101687 0.0656,0.205561 -0.034,0.107024 -0.009,0.176894 0.0745,0.208953 0.069,0.02649 0.12552,0.08965 0.12552,0.140362 0,0.05071 0.072,0.137163 0.16,0.192119 0.088,0.05496 0.16,0.165616 0.16,0.245911 0,0.08029 0.0238,0.169785 0.0529,0.19887 0.12963,0.129631 0.069,0.586976 -0.11044,0.832775 -0.12591,0.172492 -0.18613,0.359519 -0.18031,0.56 0.01,0.34285 -0.13415,0.983556 -0.24672,1.09701 -0.0415,0.0418 -0.0754,0.174675 -0.0754,0.295278 0,0.120604 -0.0355,0.241188 -0.0788,0.267965 -0.0433,0.02678 -0.0762,0.127903 -0.073,0.224722 0.006,0.173125 -0.32329,1.177848 -0.41125,1.256035 -0.0882,0.07842 -0.5372,0.85169 -0.58866,1.013836 -0.0288,0.09078 -0.12347,0.22939 -0.21035,0.308012 -0.0869,0.07862 -0.15794,0.184278 -0.15794,0.234791 0,0.05051 -0.11112,0.242933 -0.24692,0.427601 -0.13581,0.184668 -0.22639,0.33576 -0.20129,0.33576 0.0614,0 -0.2692,0.628958 -0.36008,0.685121 -0.0394,0.02438 -0.0717,0.131498 -0.0717,0.238047 0,0.106549 -0.126,0.390695 -0.28,0.631436 -0.154,0.240741 -0.28,0.458897 -0.28,0.484793 0,0.02589 -0.0686,0.144624 -0.15252,0.263842 -0.0839,0.119219 -0.17484,0.348143 -0.20212,0.508723 -0.0273,0.160578 -0.10264,0.335986 -0.16748,0.389795 -0.0648,0.05381 -0.11788,0.141895 -0.11788,0.195748 0,0.122397 -0.24472,0.62713 -0.33297,0.686745 -0.036,0.02434 -0.17357,0.267339 -0.30565,0.54 -0.13208,0.272663 -0.27503,0.49575 -0.31768,0.49575 -0.0426,0 -0.11827,0.153 -0.16806,0.34 -0.0498,0.187 -0.13578,0.394 -0.19108,0.46 -0.0553,0.066 -0.20491,0.345 -0.33243,0.62 -0.12753,0.275 -0.25803,0.5 -0.29,0.5 -0.032,0 -0.1361,0.171 -0.23139,0.38 -0.28187,0.61819 -0.46781,1.00717 -0.58318,1.22 -0.0596,0.11 -0.20819,0.416 -0.33014,0.68 -0.39332,0.851465 -0.69652,1.434321 -0.87393,1.68 -0.0953,0.132 -0.22186,0.366 -0.28122,0.52 -0.0594,0.154 -0.13814,0.3142 -0.17509,0.356 -0.037,0.0418 -0.0672,0.136266 -0.0672,0.209924 0,0.122118 -0.22604,0.554772 -0.575645,1.101823 -0.127013,0.198747 -0.224028,0.390721 -0.653041,1.292253 -0.09422,0.198 -0.26168,0.46842 -0.372129,0.600933 -0.190989,0.229145 -0.401672,0.625993 -0.806457,1.519067 -0.09971,0.22 -0.229628,0.429213 -0.288696,0.464917 -0.05907,0.0357 -0.08904,0.09463 -0.06659,0.130935 0.02244,0.03631 -0.0128,0.110506 -0.07832,0.164879 -0.06552,0.05437 -0.119119,0.165641 -0.119119,0.247262 0,0.08162 -0.0996,0.338212 -0.221323,0.570204 -0.121727,0.231992 -0.224327,0.466803 -0.228,0.521803 -0.0037,0.055 -0.01208,0.169238 -0.01868,0.253862 -0.0066,0.08462 -0.102,0.260821 -0.212,0.391548 -0.11,0.130728 -0.2,0.312237 -0.2,0.403355 0,0.09112 -0.105656,0.286003 -0.23479,0.433079 -0.129135,0.147076 -0.314341,0.499329 -0.41157,0.782784 -0.09723,0.283454 -0.225574,0.586382 -0.28521,0.673173 -0.05964,0.08679 -0.10843,0.203 -0.10843,0.258245 0,0.05524 -0.126,0.36957 -0.28,0.6985 -0.154,0.328931 -0.28,0.634625 -0.28,0.679322 0,0.0447 -0.06986,0.205643 -0.155242,0.357662 -0.08538,0.152017 -0.179969,0.408199 -0.21019,0.569292 -0.03022,0.161092 -0.158362,0.506383 -0.284758,0.767312 -0.126396,0.260928 -0.22981,0.540818 -0.22981,0.621976 0,0.08116 -0.08644,0.274944 -0.192095,0.430631 -0.136006,0.200416 -0.167192,0.307972 -0.106807,0.368357 0.06039,0.06039 0.02297,0.232104 -0.128134,0.588096 -0.117383,0.276544 -0.21332,0.568042 -0.213194,0.647774 1.6e-4,0.07973 -0.05047,0.313733 -0.112446,0.52 -0.06197,0.206268 -0.174894,0.591032 -0.250938,0.855032 -0.07604,0.264 -0.203264,0.617466 -0.282711,0.785478 -0.07945,0.168013 -0.127056,0.350805 -0.105797,0.406204 0.02126,0.0554 -0.0045,0.205934 -0.05716,0.334522 -0.0527,0.128588 -0.107692,0.370271 -0.122205,0.537074 -0.01451,0.166803 -0.06896,0.382803 -0.120992,0.48 -0.05203,0.0972 -0.0912,0.401722 -0.08704,0.676722 0.0042,0.275 -0.01872,0.5 -0.05085,0.5 -0.03213,0 -0.06723,0.27635 -0.07802,0.614111 -0.01078,0.337761 -0.04119,0.649043 -0.06758,0.691737 -0.0631,0.102102 -0.09244,1.750801 -0.03299,1.854152 0.02531,0.044 0.05165,0.182687 0.05854,0.308194 0.01774,0.323237 0.176331,0.445149 0.611524,0.470093 0.208346,0.01194 0.378831,0.05291 0.378855,0.09104 2.4e-5,0.03813 0.06972,0.05111 0.154878,0.02884 0.08952,-0.02341 0.172827,0.0064 0.197488,0.07067 0.02515,0.06555 0.15742,0.111159 0.322352,0.111159 0.334167,0 0.485656,0.203507 0.372683,0.50065 -0.03997,0.10512 -0.08497,0.332477 -0.100012,0.505239 -0.02641,0.303322 -0.01829,0.314981 0.23635,0.339455 0.20764,0.01996 0.254403,0.05462 0.219986,0.163058 -0.02404,0.07574 0.0283,0.278949 0.116305,0.451571 0.08801,0.172621 0.160014,0.376979 0.160014,0.454128 0,0.07715 0.0636,0.174308 0.141334,0.215909 0.245794,0.131545 0.361568,0.590984 0.248629,0.98667 -0.05389,0.188826 -0.09073,0.385606 -0.08186,0.437287 0.0089,0.05168 -0.02082,0.116807 -0.06598,0.144722 -0.04518,0.02792 -0.08213,0.123634 -0.08213,0.212706 0,0.19815 -0.508698,0.708609 -0.706165,0.708609 -0.07879,0 -0.211776,0.0501 -0.295525,0.111343 -0.12539,0.09169 -0.134464,0.132798 -0.0514,0.232878 0.08133,0.09799 0.08074,0.134114 -0.003,0.186478 -0.132209,0.08265 -2.233396,0.09644 -2.682364,0.0176 z m 27.551011,-9.894164 c -0.0729,-0.01423 -0.13373,-0.06823 -0.13519,-0.12 -0.002,-0.05177 -0.0719,-0.177224 -0.15659,-0.278777 -0.12512,-0.150101 -0.18351,-0.168809 -0.31208,-0.1 -0.21515,0.115145 -0.32867,0.106303 -0.32867,-0.0256 0,-0.06063 -0.081,-0.165195 -0.18,-0.232358 -0.15359,-0.104194 -0.16586,-0.145713 -0.0836,-0.282914 0.0836,-0.139363 0.0682,-0.179279 -0.1152,-0.299444 -0.1671,-0.109486 -0.2575,-0.121321 -0.42983,-0.05627 -0.13478,0.05087 -0.24673,0.05388 -0.29275,0.0079 -0.0953,-0.09532 0.13726,-0.607462 0.30137,-0.663634 0.0751,-0.0257 0.12416,-0.153717 0.13109,-0.342034 0.0306,-0.830291 0.0514,-0.976498 0.13192,-0.926738 0.0546,0.03374 0.0633,-0.0018 0.0247,-0.101099 -0.0684,-0.176036 -0.0699,-0.185316 -0.0571,-0.373123 0.007,-0.09677 0.0774,-0.140378 0.22948,-0.141225 0.17143,-9.52e-4 0.19351,-0.01835 0.1,-0.07878 -0.066,-0.04265 -0.0858,-0.0781 -0.044,-0.07878 0.0418,-6.4e-4 0.0328,-0.04443 -0.02,-0.09723 -0.0528,-0.0528 -0.096,-0.163226 -0.096,-0.245391 0,-0.115064 0.0384,-0.137214 0.16697,-0.0964 0.22617,0.07178 0.4143,-0.1441 0.59211,-0.679462 0.1374,-0.413665 0.13727,-0.432937 -0.004,-0.535923 -0.0901,-0.0659 -0.10626,-0.106852 -0.0422,-0.106852 0.0594,0 0.0842,-0.05131 0.0578,-0.12 -0.0284,-0.0741 2.4e-4,-0.12 0.0751,-0.12 0.0951,0 0.10982,-0.06017 0.0686,-0.28 -0.0289,-0.154 -0.0215,-0.281198 0.0164,-0.282662 0.0379,-0.0015 0.15199,-0.07193 0.25354,-0.156583 0.15563,-0.129737 0.17034,-0.180644 0.0936,-0.323993 -0.0737,-0.137714 -0.0638,-0.200176 0.0522,-0.328301 0.0993,-0.109687 0.11554,-0.175323 0.053,-0.21395 -0.13095,-0.08093 0.046,-0.800305 0.20973,-0.852634 0.086,-0.02748 0.12792,-0.140129 0.1303,-0.350027 0.004,-0.317696 0.13308,-0.818372 0.32686,-1.26394 0.0603,-0.13865 0.10963,-0.325525 0.10963,-0.415279 0,-0.08975 0.036,-0.185437 0.08,-0.212631 0.044,-0.02719 0.08,-0.152746 0.08,-0.279007 0,-0.12626 0.0509,-0.280503 0.1132,-0.342762 0.0623,-0.06226 0.10726,-0.163829 0.1,-0.225714 -0.0268,-0.228295 0.30473,-0.781533 0.49837,-0.831723 0.13568,-0.03516 0.16668,-0.07454 0.10626,-0.134971 -0.0469,-0.04693 -0.0649,-0.138566 -0.0399,-0.203645 0.025,-0.06508 -0.001,-0.147336 -0.0589,-0.182794 -0.0837,-0.05173 -0.0758,-0.12522 0.0399,-0.371926 0.0793,-0.169102 0.18723,-0.33302 0.23984,-0.364264 0.0632,-0.03751 0.0894,-0.254916 0.0772,-0.64 -0.013,-0.409601 0.0195,-0.654632 0.10906,-0.823194 0.0701,-0.132 0.1184,-0.286018 0.10724,-0.342262 -0.0112,-0.05625 0.0535,-0.1961 0.14375,-0.310789 0.0902,-0.11469 0.16401,-0.297117 0.16401,-0.405395 0,-0.108276 0.0529,-0.292422 0.11749,-0.409211 0.22738,-0.410961 0.33359,-0.776751 0.352,-1.212343 0.0115,-0.272784 0.0948,-0.598622 0.21916,-0.857387 0.11031,-0.229563 0.22136,-0.553563 0.24678,-0.72 0.0254,-0.166437 0.10169,-0.366463 0.1695,-0.444503 0.0884,-0.101718 0.0988,-0.166385 0.0368,-0.228406 -0.062,-0.06202 -0.0547,-0.162684 0.0259,-0.35554 0.0618,-0.147964 0.11241,-0.330346 0.11241,-0.405295 0,-0.07495 0.0551,-0.197175 0.12248,-0.271613 0.0674,-0.07444 0.13678,-0.209599 0.15426,-0.300357 0.0175,-0.09076 0.0925,-0.257755 0.16682,-0.371105 0.0787,-0.120048 0.1185,-0.292571 0.0954,-0.413231 -0.0361,-0.188947 0.0183,-0.441568 0.1879,-0.872563 0.0346,-0.088 0.12569,-0.448 0.20236,-0.8 0.0767,-0.352 0.18704,-0.696922 0.24524,-0.766492 0.0582,-0.06957 0.0826,-0.149701 0.0543,-0.178067 -0.0284,-0.02837 -0.0151,-0.09744 0.0294,-0.153507 0.0934,-0.117546 0.21595,-0.678831 0.19106,-0.874847 -0.009,-0.0731 0.0208,-0.156226 0.0669,-0.184721 0.0461,-0.02849 0.0838,-0.125852 0.0838,-0.21635 0,-0.143506 0.13851,-0.635431 0.32269,-1.146016 0.0317,-0.088 0.10359,-0.358 0.15966,-0.6 0.0561,-0.242 0.17105,-0.572962 0.25551,-0.73547 0.0845,-0.162509 0.17123,-0.4855 0.1928,-0.717758 0.0216,-0.232258 0.0685,-0.459297 0.10419,-0.50453 0.0357,-0.04523 0.0896,-0.252403 0.11968,-0.460377 0.0301,-0.207975 0.0911,-0.400616 0.13555,-0.428092 0.0445,-0.02748 0.0606,-0.102596 0.0359,-0.166933 -0.0247,-0.06434 0.009,-0.220907 0.0745,-0.347935 0.0657,-0.127027 0.11945,-0.320623 0.11945,-0.430211 0,-0.109588 0.0317,-0.218829 0.0704,-0.242757 0.0849,-0.05246 0.35346,-0.848751 0.30322,-0.898991 -0.0195,-0.01947 0.008,-0.186504 0.0622,-0.371176 0.0537,-0.184674 0.0904,-0.44377 0.0816,-0.57577 -0.009,-0.132 0.022,-0.287915 0.0685,-0.346478 0.11491,-0.144846 0.28833,-1.287664 0.20336,-1.340175 -0.0374,-0.02313 0.01,-0.193095 0.105,-0.377701 0.0969,-0.188059 0.18147,-0.51672 0.1922,-0.747446 0.0105,-0.22649 0.056,-0.480564 0.10095,-0.56461 0.045,-0.08404 0.10687,-0.462103 0.13755,-0.840128 l 0.0558,-0.68732 -0.39645,-0.388071 c -0.2439,-0.238748 -0.43606,-0.514491 -0.49938,-0.71662 -0.10155,-0.324161 -0.0564,-0.712762 0.0734,-0.632502 0.0367,0.0227 0.047,-0.03423 0.0229,-0.126501 -0.0341,-0.130275 0.0749,-0.281383 0.48746,-0.676098 0.29224,-0.27958 0.53135,-0.544931 0.53135,-0.589671 0,-0.04474 0.119,-0.200348 0.26445,-0.345796 0.27837,-0.278372 0.41155,-0.514111 0.38466,-0.6808825 -0.009,-0.055 0.0125,-0.1016928 0.0474,-0.1037624 0.88934,-0.052682 1.09746,-0.087916 1.11667,-0.1890488 0.025,-0.1314576 0.2216,-0.1979264 0.32692,-0.1105168 0.058,0.048135 0.21223,0.084483 0.34273,0.080773 0.15412,-0.00438 0.26512,0.045268 0.31671,0.1416664 0.13093,0.2446491 0.31825,0.3967201 0.43398,0.3523131 0.0599,-0.02298 0.19383,0.0422 0.29768,0.144834 0.10385,0.102637 0.40482,0.252757 0.66882,0.333601 0.6867,0.210287 0.88365,0.319591 0.85649,0.475344 -0.0211,0.12103 0.0684,0.172957 0.24675,0.14319 0.11832,-0.01975 0.37676,0.156847 0.37676,0.257443 0,0.05511 0.10653,0.224847 0.23675,0.377185 0.13021,0.152338 0.23821,0.32275 0.24,0.378693 0.002,0.05594 0.0904,0.141423 0.19692,0.189956 0.10651,0.04853 0.17606,0.13412 0.15454,0.190193 -0.0215,0.05607 -8e-5,0.126081 0.0476,0.155572 0.0477,0.02949 0.0661,0.08713 0.0407,0.128092 -0.0253,0.04096 -0.009,0.07447 0.0359,0.07447 0.0451,0 0.2113,0.113576 0.3694,0.25239 0.21621,0.189839 0.26152,0.26951 0.18278,0.321464 -0.0827,0.05456 -0.0755,0.08626 0.034,0.150836 0.11474,0.06765 0.12198,0.108472 0.042,0.23654 -0.0757,0.121238 -0.0754,0.176012 10e-4,0.252773 0.13521,0.135202 0.12292,0.305997 -0.022,0.305997 -0.14246,0 -0.15796,0.170041 -0.0274,0.30061 0.0701,0.07015 0.0685,0.121608 -0.007,0.21216 -0.0546,0.06575 -0.0758,0.19328 -0.0472,0.283391 0.0298,0.094 0.0162,0.163839 -0.0319,0.163839 -0.0915,0 -0.21335,0.3747 -0.17817,0.547965 0.0121,0.05938 -0.0366,0.23131 -0.10814,0.382068 -0.0715,0.150757 -0.10826,0.342821 -0.0816,0.42681 0.0267,0.08399 -0.0391,0.416059 -0.1462,0.737932 -0.10707,0.321874 -0.22015,0.70465 -0.25127,0.850614 -0.0311,0.145964 -0.107,0.361964 -0.16858,0.48 -0.0616,0.118036 -0.11219,0.311486 -0.11246,0.429889 0,0.118404 -0.0394,0.239332 -0.087,0.268728 -0.0476,0.0294 -0.0645,0.140904 -0.0377,0.247794 0.0276,0.11005 -0.008,0.323134 -0.0817,0.491273 -0.22582,0.514013 -0.26153,0.613741 -0.26387,0.736927 -0.001,0.066 -0.0556,0.330436 -0.12083,0.587636 -0.0652,0.2572 -0.10039,0.51495 -0.0782,0.572779 0.0222,0.05783 -0.016,0.214113 -0.0849,0.347297 -0.0689,0.133184 -0.10584,0.292666 -0.0821,0.354403 0.0237,0.06174 -0.0122,0.158098 -0.0797,0.214132 -0.0675,0.05604 -0.10091,0.137235 -0.0742,0.180446 0.0267,0.04321 0.0108,0.156131 -0.0355,0.250935 -0.0462,0.09481 -0.16078,0.460372 -0.25462,0.812372 -0.26342,0.988111 -0.29414,1.094685 -0.42658,1.48 -0.068,0.198 -0.16834,0.522 -0.22286,0.72 -0.0545,0.198 -0.11875,0.396 -0.14272,0.44 -0.0439,0.08058 -0.0719,0.185839 -0.12747,0.48 -0.0374,0.197944 -0.19843,0.672616 -0.29133,0.858914 -0.0381,0.0764 -0.0693,0.210868 -0.0693,0.29881 0,0.212698 -0.4598,1.59495 -0.60523,1.819462 -0.0631,0.09745 -0.11477,0.23294 -0.11477,0.301085 0,0.125515 -0.028,0.193199 -0.27463,0.664308 -0.0756,0.144419 -0.15778,0.459419 -0.18261,0.7 -0.0303,0.293361 -0.0811,0.437423 -0.15403,0.437423 -0.0598,0 -0.11041,0.027 -0.11237,0.06 -0.037,0.623377 -0.08,0.851358 -0.18203,0.964097 -0.15808,0.174705 -0.45441,0.864616 -0.45441,1.057963 0,0.08184 -0.0755,0.276852 -0.1679,0.433367 -0.0923,0.156515 -0.14077,0.284573 -0.1076,0.284573 0.0332,0 0.005,0.063 -0.0625,0.14 -0.21712,0.247613 -0.38205,0.644813 -0.38205,0.920027 0,0.147385 -0.0286,0.302173 -0.0637,0.343973 -0.12391,0.147902 -0.25343,0.643318 -0.21728,0.831037 0.0206,0.107107 -0.046,0.354907 -0.15247,0.566823 -0.10402,0.207087 -0.21505,0.498386 -0.24676,0.647331 -0.0317,0.148945 -0.10873,0.328871 -0.1712,0.399837 -0.0625,0.07097 -0.13559,0.315018 -0.16251,0.542337 -0.0269,0.22732 -0.0798,0.432381 -0.11753,0.455693 -0.0377,0.02331 -0.0686,0.14025 -0.0686,0.259863 0,0.119613 -0.0524,0.29225 -0.11639,0.383639 -0.14992,0.214036 -0.36095,0.819977 -0.36245,1.040704 -8e-4,0.09419 -0.0724,0.328194 -0.1594,0.52 -0.087,0.191805 -0.15904,0.428784 -0.16,0.526622 -9.6e-4,0.09784 -0.12316,0.427335 -0.27154,0.732219 -0.14838,0.304883 -0.28919,0.656835 -0.31292,0.782114 -0.0593,0.313149 -0.40552,1.238769 -0.66567,1.77972 -0.36567,0.76034 -0.44098,0.935246 -0.46077,1.070135 -0.0105,0.07164 -0.0803,0.197812 -0.15499,0.280388 -0.0747,0.08257 -0.13587,0.184123 -0.13587,0.225661 0,0.04154 -0.12455,0.264635 -0.27676,0.495768 -0.15223,0.231134 -0.30167,0.552955 -0.3321,0.715159 -0.0304,0.162204 -0.15788,0.468858 -0.28323,0.681453 -0.12534,0.212596 -0.2279,0.43393 -0.2279,0.491854 0,0.05792 -0.09,0.237938 -0.2,0.400032 -0.11,0.162094 -0.2,0.344356 -0.2,0.405025 0,0.06067 -0.089,0.216066 -0.19775,0.345323 -0.10877,0.129257 -0.23159,0.324019 -0.27295,0.432805 -0.0414,0.108785 -0.12338,0.198133 -0.18225,0.19855 -0.0589,4e-4 -0.18896,0.02713 -0.28906,0.05936 -0.10011,0.03223 -0.17211,0.02889 -0.16,-0.0074 0.0121,-0.03632 -0.005,-0.07503 -0.038,-0.08603 -0.033,-0.011 -0.0569,0.003 -0.0532,0.03106 0.0141,0.105253 -0.21393,0.187175 -0.408,0.146583 -0.15642,-0.03272 -0.27799,0.02957 -0.5467,0.280142 -0.19889,0.185459 -0.42476,0.322219 -0.53218,0.322219 -0.10264,0 -0.20016,0.04061 -0.21671,0.09025 -0.0285,0.08543 -0.60472,0.139701 -0.89071,0.08388 z m 1.29213,-0.980134 c -0.0158,-0.0473 -0.0629,-0.086 -0.10466,-0.086 -0.0418,0 -0.0889,0.0387 -0.10467,0.086 -0.0158,0.0473 0.0313,0.086 0.10467,0.086 0.0733,0 0.12043,-0.0387 0.10466,-0.086 z m -2.38589,-0.854 c -0.003,-0.131203 -0.13963,-0.267113 -0.2461,-0.244223 -0.13992,0.03008 -0.23518,0.155445 -0.18267,0.240403 0.05,0.08091 0.43042,0.08429 0.42877,0.0038 z"
       id="path14" />
  </g>
</svg>
