<?xml version="1.0" encoding="UTF-8" standalone="no"?>
<svg
   xmlns:dc="http://purl.org/dc/elements/1.1/"
   xmlns:cc="http://creativecommons.org/ns#"
   xmlns:rdf="http://www.w3.org/1999/02/22-rdf-syntax-ns#"
   xmlns:svg="http://www.w3.org/2000/svg"
   xmlns="http://www.w3.org/2000/svg"
   xmlns:sodipodi="http://sodipodi.sourceforge.net/DTD/sodipodi-0.dtd"
   xmlns:inkscape="http://www.inkscape.org/namespaces/inkscape"
   version="1.1"
   id="svg2"
   width="135.82965"
   height="103.15086"
   viewBox="0 0 135.82965 103.15086"
   sodipodi:docname="Tick.svg"
   inkscape:version="1.0.2 (e86c870879, 2021-01-15)">
  <metadata
     id="metadata8">
    <rdf:RDF>
      <cc:Work
         rdf:about="">
        <dc:format>image/svg+xml</dc:format>
        <dc:type
           rdf:resource="http://purl.org/dc/dcmitype/StillImage" />
        <dc:title></dc:title>
      </cc:Work>
    </rdf:RDF>
  </metadata>
  <defs
     id="defs6" />
  <sodipodi:namedview
     pagecolor="#ffffff"
     bordercolor="#666666"
     borderopacity="1"
     objecttolerance="10"
     gridtolerance="10"
     guidetolerance="10"
     inkscape:pageopacity="0"
     inkscape:pageshadow="2"
     inkscape:window-width="1920"
     inkscape:window-height="1052"
     id="namedview4"
     showgrid="false"
     fit-margin-top="0"
     fit-margin-left="0"
     fit-margin-right="0"
     fit-margin-bottom="0"
     inkscape:zoom="7.146318"
     inkscape:cx="59.01272"
     inkscape:cy="50.930896"
     inkscape:window-x="0"
     inkscape:window-y="0"
     inkscape:window-maximized="1"
     inkscape:current-layer="g10" />
  <g
     inkscape:groupmode="layer"
     inkscape:label="Image"
     id="g10"
     transform="translate(-19.527214,-10.989102)">
    <path
       style="fill:#000000;stroke-width:0.08"
       d="m 32.923433,114.09327 c -0.33,-0.0395 -0.744,-0.0858 -0.92,-0.10292 -0.176,-0.0171 -0.452226,-0.0867 -0.613834,-0.15468 -0.217735,-0.0916 -0.302048,-0.0989 -0.325547,-0.0284 -0.0198,0.0594 -0.119497,0.0137 -0.265348,-0.1215 -0.1285,-0.11915 -0.300446,-0.21664 -0.382104,-0.21664 -0.08166,0 -0.254303,-0.0754 -0.383657,-0.16747 -0.129354,-0.0921 -0.28528,-0.14825 -0.3465,-0.12475 -0.06122,0.0235 -0.154352,-0.009 -0.206956,-0.0725 -0.0526,-0.0634 -0.140661,-0.11525 -0.19568,-0.11525 -0.163212,0 -0.811241,-0.3085 -0.917844,-0.43695 -0.05423,-0.0654 -0.22099,-0.14178 -0.370568,-0.16983 -0.154232,-0.029 -0.271962,-0.0992 -0.271962,-0.16219 0,-0.0611 -0.054,-0.1111 -0.12,-0.1111 -0.066,0 -0.12,-0.0357 -0.12,-0.0792 0,-0.0436 -0.327094,-0.39457 -0.726874,-0.78 -0.524341,-0.50553 -0.781339,-0.82206 -0.92234,-1.13603 -0.107505,-0.23938 -0.312756,-0.61738 -0.456112,-0.84 -0.143356,-0.22262 -0.308732,-0.54876 -0.3675,-0.72476 -0.05877,-0.176 -0.152872,-0.374 -0.209121,-0.44 -0.05625,-0.066 -0.148355,-0.282 -0.204679,-0.48 -0.05632,-0.198 -0.163399,-0.45 -0.237944,-0.56 -0.07454,-0.11 -0.161809,-0.326 -0.193921,-0.48 -0.03211,-0.154 -0.105306,-0.388 -0.162652,-0.52 -0.05735,-0.132 -0.123097,-0.33 -0.146111,-0.44 -0.02301,-0.11 -0.120405,-0.434 -0.216424,-0.72 -0.286799,-0.85425 -0.335484,-1.04963 -0.357216,-1.43354 -0.01141,-0.20156 -0.06309,-0.51046 -0.114848,-0.68646 -0.05176,-0.176 -0.09513,-0.374 -0.09638,-0.44 -0.0012,-0.066 -0.04207,-0.246 -0.09071,-0.4 -0.165217,-0.52309 -0.215131,-0.8103 -0.257214,-1.48 -0.01382,-0.22 -0.04634,-0.454 -0.07227,-0.520004 -0.150202,-0.382418 -0.389014,-1.90037 -0.344437,-2.189346 0.02164,-0.140288 -0.0055,-0.303504 -0.06174,-0.370664 -0.101576,-0.1214 -0.361511,-1.739632 -0.361511,-2.250592 0,-0.152576 -0.03825,-0.315656 -0.08499,-0.3624 -0.04675,-0.04674 -0.100522,-0.224944 -0.119503,-0.396 -0.03533,-0.318408 -0.127939,-1.21288 -0.272392,-2.631008 -0.04482,-0.44 -0.09223,-1.088104 -0.105365,-1.440232 -0.01313,-0.352128 -0.05289,-0.687176 -0.08835,-0.744552 -0.03546,-0.05737 -0.04235,-0.192424 -0.01532,-0.30012 0.0304,-0.12112 -0.0016,-0.2732 -0.08382,-0.398728 -0.108033,-0.16488 -0.115644,-0.240928 -0.0406,-0.40564 0.0508,-0.111496 0.07146,-0.236536 0.04592,-0.277864 -0.02554,-0.04134 -0.06151,-0.49764 -0.07992,-1.014008 -0.01841,-0.516368 -0.04768,-1.200384 -0.06504,-1.520024 -0.01736,-0.319648 -0.0018,-0.599576 0.03462,-0.62208 0.0364,-0.0225 0.01716,-0.179872 -0.04277,-0.34972 -0.07082,-0.200744 -0.09328,-0.481768 -0.06415,-0.802968 0.05511,-0.607752 -0.102892,-1.354432 -0.32474,-1.534656 -0.152152,-0.1236 -0.153976,-0.145 -0.03409,-0.4 0.137033,-0.291464 0.134191,-1.376261 -0.0046,-1.751416 -0.03998,-0.108084 -0.04511,-0.29271 -0.01139,-0.410282 0.0392,-0.136678 0.02443,-0.266765 -0.04097,-0.360737 -0.05626,-0.08084 -0.124485,-0.380973 -0.151626,-0.666973 -0.09154,-0.964633 -0.149989,-1.22976 -0.298726,-1.35515 -0.09181,-0.0774 -0.1651,-0.276885 -0.192835,-0.52485 -0.06532,-0.584015 -0.08211,-0.669402 -0.143727,-0.731018 -0.03061,-0.03061 -0.05565,-0.132448 -0.05565,-0.226316 0,-0.09387 -0.0382,-0.208862 -0.08488,-0.255545 -0.05984,-0.05984 -0.035,-0.173679 0.08419,-0.385885 0.11638,-0.207205 0.153475,-0.37199 0.119035,-0.528795 -0.03818,-0.173837 9.76e-4,-0.294658 0.165309,-0.510115 0.118438,-0.15528 0.259488,-0.282326 0.313447,-0.282326 0.05396,0 0.163264,-0.072 0.242904,-0.16 0.102475,-0.113234 0.246397,-0.16 0.492399,-0.16 0.19118,0 0.347601,0.03091 0.347601,0.06869 0,0.03778 0.283764,0.05224 0.630586,0.03215 0.429883,-0.02491 0.690874,-0.0034 0.82,0.0677 0.104178,0.05734 0.247702,0.0954 0.318943,0.0846 0.09844,-0.01493 0.120248,0.0289 0.09086,0.182613 -0.05059,0.26465 0.163983,0.351605 0.450291,0.182479 0.17274,-0.10204 0.280355,-0.110073 0.571083,-0.04263 0.197028,0.04571 0.412233,0.115125 0.478233,0.154261 0.268634,0.159292 0.348425,0.170874 0.504724,0.07326 0.137962,-0.08616 0.178928,-0.08107 0.262025,0.03257 0.05417,0.07408 0.146816,0.128095 0.205873,0.120021 0.05906,-0.0081 0.256276,-0.01041 0.438263,-0.0052 0.294548,0.0084 0.345218,0.03968 0.461407,0.284534 0.07179,0.151281 0.201806,0.29768 0.288929,0.325332 0.08712,0.02765 0.180632,0.138827 0.207795,0.247055 0.02716,0.108228 0.117247,0.233095 0.200186,0.277483 0.0859,0.04597 0.150798,0.166643 0.150798,0.2804 0,0.109833 0.04874,0.2184 0.108312,0.24126 0.05957,0.02286 0.109977,0.13873 0.112011,0.257489 0.002,0.118759 0.04173,0.377926 0.0882,0.575926 0.04648,0.198 0.0867,0.594 0.08938,0.88 0.0027,0.286 0.05825,0.771986 0.123484,1.07997 0.06524,0.307991 0.118617,0.782867 0.118617,1.055287 0,0.27242 0.03746,0.518462 0.08325,0.546762 0.04734,0.02925 0.05815,0.12621 0.02507,0.224722 -0.137057,0.408108 0.03231,1.589923 0.251255,1.753267 0.05324,0.03972 0.05118,0.08028 -0.0061,0.12 -0.110963,0.07695 -0.04866,2.722856 0.08901,3.78 0.08341,0.640536 0.09517,1.60436 0.02013,1.650736 -0.04018,0.02483 -0.01436,0.11 0.05738,0.189264 0.09029,0.09977 0.103022,0.161048 0.04137,0.199152 -0.08878,0.05487 -0.0376,0.709912 0.06882,0.880848 0.02739,0.044 0.05329,0.314 0.05756,0.6 0.01225,0.821912 0.105918,2.226512 0.164298,2.463648 0.0293,0.118992 0.09852,0.288352 0.153836,0.376352 0.09454,0.150408 0.09915,0.510056 0.0084,0.656872 -0.02244,0.03631 -0.0075,0.353368 0.03316,0.704576 0.04068,0.3512 0.0904,0.790576 0.110486,0.976376 0.02009,0.185808 0.07272,0.626504 0.116965,0.979328 0.04424,0.352824 0.05084,0.721512 0.01467,0.819296 -0.04708,0.127264 -0.01125,0.286344 0.126056,0.559712 0.105505,0.210056 0.183078,0.427352 0.172383,0.48288 -0.03299,0.171288 0.09716,0.854712 0.171521,0.900672 0.03866,0.02389 0.07008,0.105728 0.06983,0.181864 -0.0016,0.47988 0.175366,1.729087 0.331208,2.338427 0.03939,0.154 0.09548,0.45946 0.124643,0.67879 0.02917,0.21933 0.08492,0.48267 0.123906,0.58521 0.03898,0.10253 0.07088,0.26966 0.07088,0.37142 0,0.10174 0.054,0.2298 0.12,0.28458 0.066,0.0548 0.12,0.1903 0.12,0.30117 0,0.35755 0.563016,2.14441 0.781049,2.47883 0.06454,0.099 0.09107,0.18 0.05895,0.18 -0.03212,0 -0.006,0.081 0.05814,0.18 0.0641,0.099 0.140134,0.27 0.168963,0.38 0.02883,0.11 0.118787,0.28512 0.199906,0.38916 0.192535,0.24693 0.520512,0.18354 0.913664,-0.17657 0.155951,-0.14285 0.369063,-0.29869 0.473581,-0.3463 0.104518,-0.0476 0.281302,-0.16788 0.392853,-0.26725 0.111552,-0.0994 0.327699,-0.25679 0.480327,-0.34985 0.700056,-0.42681 0.795404,-0.49661 0.832303,-0.60919 0.02163,-0.066 0.145805,-0.19113 0.275942,-0.27806 0.130138,-0.0869 0.280431,-0.23994 0.333984,-0.34 0.05355,-0.10007 0.126523,-0.18194 0.162155,-0.18194 0.113048,0 0.868178,-0.80686 0.868178,-0.92766 0,-0.0637 0.099,-0.1592 0.22,-0.21227 0.260169,-0.11412 0.739766,-0.54005 0.740546,-0.65767 3.2e-4,-0.0453 0.124305,-0.16667 0.275565,-0.26967 0.15126,-0.103 0.336591,-0.28125 0.411847,-0.39611 0.07526,-0.11485 0.509252,-0.57365 0.964436,-1.01956 0.455184,-0.4459 0.827606,-0.85197 0.827606,-0.90237 0,-0.0504 0.09126,-0.11455 0.202793,-0.14254 0.111536,-0.028 0.252103,-0.14568 0.312372,-0.261529 0.06027,-0.11584 0.257817,-0.318624 0.438997,-0.450624 0.18118,-0.132 0.38484,-0.353048 0.452576,-0.491216 0.09114,-0.185904 0.163468,-0.240672 0.278209,-0.210672 0.117194,0.03065 0.155053,-8e-4 0.155053,-0.128104 0,-0.09276 0.072,-0.213616 0.16,-0.268576 0.088,-0.05495 0.16,-0.125664 0.16,-0.15712 0,-0.135072 0.439986,-0.695368 0.84345,-1.074096 0.240102,-0.225384 0.43655,-0.44636 0.43655,-0.491056 0,-0.0447 0.162,-0.2456 0.36,-0.44644 0.198,-0.20084 0.360085,-0.393864 0.360188,-0.428944 3.2e-4,-0.113368 0.450402,-0.594368 0.647961,-0.692496 0.105518,-0.05241 0.203132,-0.17368 0.21692,-0.269504 0.01379,-0.09582 0.09295,-0.195752 0.175907,-0.222088 0.08296,-0.02633 0.171358,-0.109032 0.196438,-0.183784 0.02508,-0.07474 0.22492,-0.333064 0.444092,-0.574032 0.219172,-0.240976 0.398494,-0.483976 0.398494,-0.54 0,-0.05603 0.072,-0.101872 0.16,-0.101872 0.088,0 0.16,-0.04105 0.16,-0.09122 0,-0.05017 0.333,-0.426352 0.74,-0.835976 0.407,-0.409616 0.87452,-0.899568 1.038934,-1.088784 0.740636,-0.852352 1.150282,-1.261776 1.263527,-1.262856 0.06735,-8e-4 0.164083,-0.11144 0.214955,-0.246216 0.05852,-0.155048 0.182138,-0.27888 0.336574,-0.337168 0.154073,-0.05816 0.292359,-0.196424 0.375005,-0.37496 0.123058,-0.265824 0.536663,-0.722824 0.654191,-0.722824 0.07573,0 0.656814,-0.645928 0.656814,-0.730112 0,-0.03844 0.0501,-0.06989 0.111327,-0.06989 0.06123,0 0.133314,-0.0876 0.160187,-0.194664 0.02687,-0.107072 0.113981,-0.215344 0.193576,-0.2406 0.0796,-0.02526 0.376512,-0.30312 0.659815,-0.617456 0.283302,-0.314336 0.582612,-0.629064 0.665132,-0.6994 0.350305,-0.298576 0.590671,-0.54508 0.787749,-0.80788 0.115489,-0.154 0.410732,-0.491104 0.656097,-0.74912 0.245364,-0.258016 0.446117,-0.496648 0.446117,-0.530296 0,-0.03365 0.099,-0.10228 0.22,-0.152528 0.121,-0.05025 0.306451,-0.217792 0.412114,-0.372336 0.206381,-0.301848 0.379807,-0.325168 0.348829,-0.0469 -0.03227,0.289848 0.37228,0.225856 0.687953,-0.108816 0.145257,-0.154 0.299604,-0.28 0.342994,-0.28 0.04339,0 0.05815,-0.06537 0.03279,-0.145256 -0.03443,-0.108488 0.01989,-0.174304 0.214609,-0.26 0.20935,-0.09214 0.25518,-0.153752 0.232632,-0.31276 -0.01544,-0.108904 -0.07573,-0.26604 -0.133965,-0.349181 -0.121545,-0.173553 -0.07312,-0.372802 0.09062,-0.372802 0.06129,0 0.111441,-0.03219 0.111441,-0.07154 0,-0.105443 0.44969,-0.568461 0.552097,-0.568461 0.138026,0 0.10333,0.144573 -0.07828,0.326186 -0.231846,0.231846 -0.150643,0.425389 0.125659,0.299498 0.140185,-0.06387 0.178924,-0.119287 0.122697,-0.175514 -0.106772,-0.106769 -0.105028,-0.21017 0.0035,-0.21017 0.04714,0 0.139715,-0.054 0.205715,-0.12 0.066,-0.066 0.198428,-0.120551 0.294285,-0.121225 0.09586,-6.4e-4 0.228286,-0.03612 0.294286,-0.07878 0.127383,-0.08232 0.113147,-0.08898 -0.24,-0.11229 -0.07254,-0.0048 -0.12,-0.08698 -0.12,-0.207816 0,-0.161016 0.04499,-0.20503 0.231319,-0.2263 0.127226,-0.01452 0.257731,0.01633 0.290013,0.06856 0.09832,0.159087 0.36014,0.01328 0.580485,-0.323267 0.11483,-0.175382 0.175583,-0.318882 0.135007,-0.318882 -0.15429,0 -0.178574,-0.403369 -0.03391,-0.563223 0.186407,-0.205979 0.263739,-0.197795 0.321932,0.03407 0.05902,0.23516 0.306518,0.197749 0.484028,-0.07316 0.06522,-0.09953 0.192519,-0.200303 0.282897,-0.223937 0.09038,-0.02363 0.140577,-0.0814 0.111553,-0.128356 -0.07701,-0.124605 -0.281075,-0.104341 -0.333836,0.03315 -0.03564,0.09288 -0.08071,0.09969 -0.208187,0.03146 -0.153417,-0.0821 -0.139032,-0.109416 0.252052,-0.478535 0.228119,-0.215312 0.442792,-0.391469 0.477055,-0.391469 0.03426,0 0.05944,-0.07322 0.05594,-0.162707 -0.0042,-0.107311 0.09502,-0.221176 0.291396,-0.334438 0.277046,-0.15979 0.30783,-0.162605 0.442758,-0.0405 0.134693,0.121896 0.151335,0.121104 0.233917,-0.01113 0.0489,-0.0783 0.07045,-0.238936 0.04788,-0.356969 -0.03512,-0.183703 0.04153,-0.29522 0.532288,-0.774432 0.31533,-0.307902 0.625541,-0.559824 0.689367,-0.559824 0.06382,0 0.116046,-0.06906 0.116046,-0.153475 0,-0.156141 0.496224,-0.522138 0.711823,-0.525015 0.0622,-8.32e-4 0.169958,-0.112689 0.239451,-0.248574 0.13909,-0.271977 0.448444,-0.539697 0.574916,-0.497539 0.04444,0.01481 -6.4e-4,0.114319 -0.10012,0.221125 -0.09951,0.106806 -0.191552,0.263877 -0.20455,0.349047 -0.02041,0.133708 0.01065,0.147997 0.227424,0.104642 0.138081,-0.02762 0.318371,-0.05021 0.400646,-0.05021 0.09858,0 0.2065,-0.121071 0.316482,-0.355046 0.09179,-0.195276 0.253974,-0.412105 0.36041,-0.481844 0.249534,-0.163502 0.246796,-0.283111 -0.0065,-0.283111 -0.225656,0 -0.265885,-0.165729 -0.07807,-0.321605 0.06706,-0.05566 0.105059,-0.118069 0.08444,-0.138693 -0.0453,-0.0453 0.321555,-0.357992 0.579,-0.493505 0.101952,-0.05366 0.289312,-0.261475 0.416354,-0.4618 0.127042,-0.200325 0.30291,-0.414604 0.390818,-0.476178 0.142081,-0.09952 0.169452,-0.09397 0.24646,0.04991 0.107424,0.200724 0.290228,0.20884 0.392666,0.01744 0.04251,-0.07944 0.20213,-0.211658 0.354704,-0.293824 0.237647,-0.127982 0.26137,-0.165431 0.165518,-0.261284 -0.181674,-0.181674 -0.12922,-0.465465 0.14283,-0.77275 0.140096,-0.158241 0.286738,-0.287711 0.32587,-0.287711 0.205712,0 2.217925,-1.832263 2.32841,-2.120182 0.02529,-0.0659 0.111086,-0.119818 0.19066,-0.119818 0.07957,0 0.269706,-0.111421 0.422511,-0.247602 0.633551,-0.564624 0.797829,-0.729121 0.797829,-0.798897 0,-0.04043 0.054,-0.0735 0.12,-0.0735 0.07324,0 0.12,0.0746 0.12,0.191441 0,0.246381 0.239837,0.346421 0.37789,0.157623 0.05616,-0.07681 0.10211,-0.167377 0.10211,-0.201271 0,-0.106264 0.606622,-0.230468 0.869167,-0.177959 0.254787,0.05096 0.32239,-0.02628 0.16274,-0.185927 -0.100004,-0.100005 -0.02173,-0.583908 0.09445,-0.583908 0.0405,0 0.07364,-0.05686 0.07364,-0.126357 0,-0.100661 -0.05287,-0.115016 -0.26,-0.07059 -0.344982,0.07399 -0.399004,0.112034 -0.347965,0.245041 0.04282,0.111592 -0.193933,0.163343 -0.293189,0.06409 -0.07785,-0.07786 0.02904,-0.272184 0.149713,-0.272184 0.06129,0 0.111441,-0.036 0.111441,-0.08 0,-0.044 0.05513,-0.08 0.12251,-0.08 0.06738,0 0.141683,-0.04996 0.165115,-0.111023 0.02343,-0.06106 0.148302,-0.132163 0.277489,-0.158 0.167053,-0.03341 0.234886,-0.09376 0.234886,-0.208977 0,-0.199532 0.252161,-0.21841 0.437794,-0.03278 0.118965,0.118965 0.14056,0.118965 0.272014,0 0.177972,-0.161059 0.250192,-0.163722 0.250192,-0.0092 0,0.06667 0.07111,0.12 0.16,0.12 0.088,0 0.16,-0.036 0.16,-0.08 0,-0.044 -0.05124,-0.08 -0.113869,-0.08 -0.182989,0 0.05624,-0.404938 0.517572,-0.876082 0.217963,-0.222599 0.396297,-0.422544 0.396297,-0.444322 0,-0.02178 -0.104814,-0.0396 -0.232922,-0.0396 -0.141946,0 -0.226371,-0.03906 -0.216152,-0.1 0.03301,-0.196832 0.216618,-0.46 0.320941,-0.46 0.05843,0 0.274607,-0.18 0.480391,-0.4 0.205784,-0.22 0.398359,-0.4 0.427943,-0.4 0.02958,0 0.132914,-0.099 0.229623,-0.22 0.09671,-0.121 0.197218,-0.198844 0.223352,-0.172986 0.0632,0.06253 -0.184289,0.552986 -0.279035,0.552986 -0.04078,0 -0.07414,0.05331 -0.07414,0.118476 0,0.06516 -0.09,0.141064 -0.2,0.168673 -0.146678,0.03681 -0.2,0.103569 -0.2,0.250386 0,0.196985 0.0022,0.197683 0.14,0.04358 0.077,-0.08614 0.293,-0.203885 0.48,-0.261667 0.187,-0.05778 0.34,-0.134665 0.34,-0.17085 0,-0.100414 0.655409,-0.754055 0.866205,-0.863868 0.113193,-0.05897 0.168617,-0.142837 0.141349,-0.213896 -0.02467,-0.06429 0.0085,-0.137382 0.07379,-0.162423 0.217667,-0.08353 0.122152,-0.156694 -0.161349,-0.123596 -0.154,0.01798 -0.278648,0.0018 -0.276996,-0.03606 0.0017,-0.03781 0.121808,-0.207519 0.267014,-0.37712 0.19492,-0.227667 0.351154,-0.324303 0.596996,-0.369259 0.338164,-0.06184 0.465538,0.02477 0.172986,0.117626 -0.088,0.02793 -0.16,0.116158 -0.16,0.196061 0,0.08111 -0.0795,0.169444 -0.18,0.199993 -0.099,0.03009 -0.13769,0.0724 -0.08598,0.094 0.05171,0.02161 0.239279,-0.03481 0.416813,-0.125384 0.177542,-0.09057 0.383811,-0.164672 0.458383,-0.164672 0.126738,0 0.126606,0.0099 -0.002,0.152058 -0.0859,0.09492 -0.106814,0.171091 -0.05565,0.20271 0.141423,0.0874 0.388466,-0.130894 0.388466,-0.343264 0,-0.124762 0.09369,-0.286214 0.244065,-0.420571 0.137941,-0.123251 0.255343,-0.31653 0.27,-0.444503 0.01885,-0.164553 0.100177,-0.263493 0.297617,-0.36206 0.149425,-0.0746 0.383425,-0.243388 0.52,-0.375092 0.136575,-0.131706 0.350244,-0.277894 0.47482,-0.324864 0.124577,-0.04697 0.212015,-0.128863 0.194307,-0.181985 -0.04507,-0.135221 0.302487,-0.437907 0.625073,-0.544371 0.148715,-0.04908 0.266967,-0.113721 0.262781,-0.143648 -0.02805,-0.200518 0.02549,-0.346097 0.114688,-0.311868 0.155086,0.05951 0.37863,-0.138029 0.446918,-0.394932 0.04198,-0.15792 0.120089,-0.236203 0.255116,-0.255676 0.1869,-0.02695 0.3108,-0.137243 0.31339,-0.278966 6.4e-4,-0.03687 -0.151775,-0.04176 -0.338775,-0.01088 l -0.34,0.05615 0.193945,-0.209121 c 0.218103,-0.235169 0.367035,-0.266197 0.434451,-0.09051 0.03342,0.08709 0.115426,0.105121 0.308559,0.06786 0.245506,-0.04736 0.663577,-0.26647 0.508446,-0.26647 -0.03861,0 -0.005,-0.072 0.0746,-0.16 0.07964,-0.088 0.203457,-0.16 0.27515,-0.16 0.07169,0 0.193996,-0.107741 0.271783,-0.239424 0.07779,-0.131682 0.220549,-0.281072 0.317249,-0.331976 0.178499,-0.09396 0.292372,-0.220618 0.294593,-0.327654 6.4e-4,-0.03248 -0.145545,-0.08252 -0.32493,-0.111209 l -0.326156,-0.05215 0.283758,-0.248791 c 0.156038,-0.136837 0.470018,-0.410793 0.697703,-0.608793 0.227686,-0.198 0.551323,-0.495 0.719194,-0.66 0.16787,-0.165 0.356521,-0.3 0.419222,-0.3 0.0627,0 0.172646,-0.0895 0.244319,-0.198886 0.197121,-0.300844 0.514188,-0.487012 0.630815,-0.370386 0.07268,0.07268 0.05326,0.105301 -0.08411,0.141222 -0.09824,0.02569 -0.17862,0.0601 -0.17862,0.07647 0,0.08696 0.291269,0.351584 0.386989,0.351584 0.09264,0 0.595252,-0.474444 0.670723,-0.633135 0.06153,-0.129368 0.593779,-0.432059 0.771896,-0.438973 0.147744,-0.0057 0.216216,-0.06256 0.250464,-0.207892 0.04288,-0.181916 0.09134,-0.208591 0.31244,-0.172 0.03988,0.0066 0.05459,0.08053 0.03269,0.164288 -0.02744,0.10493 0.01198,0.16873 0.126768,0.205163 0.240832,0.07644 0.328032,-0.0097 0.328032,-0.324173 0,-0.238336 0.0309,-0.283544 0.22,-0.321893 0.2776,-0.0563 0.740208,-0.430676 0.6,-0.485568 -0.175376,-0.06866 -0.10728,-0.165021 0.08998,-0.127313 0.125752,0.02404 0.244608,-0.02232 0.35156,-0.137115 0.102816,-0.110359 0.180912,-0.142148 0.214744,-0.08741 0.09511,0.153901 0.36372,0.09927 0.36372,-0.07398 0,-0.088 0.036,-0.16 0.08,-0.16 0.044,0 0.08,-0.054 0.08,-0.12 0,-0.159908 -0.213288,-0.153522 -0.304304,0.0091 -0.04954,0.08852 -0.126648,0.111848 -0.245256,0.0742 l -0.173008,-0.05491 0.181288,-0.229776 c 0.0997,-0.126376 0.25028,-0.231767 0.334616,-0.234202 0.08433,-0.0024 0.135112,-0.02264 0.112848,-0.04491 -0.02227,-0.02227 0.08873,-0.178384 0.246664,-0.346927 0.349728,-0.373222 0.594424,-0.786292 0.500256,-0.84449 -0.03819,-0.0236 -0.208928,0.0282 -0.379408,0.115115 -0.17048,0.08692 -0.346808,0.142593 -0.391832,0.123725 -0.04502,-0.01887 -0.0297,-0.03715 0.03406,-0.04062 0.06376,-0.0035 0.28492,-0.186316 0.491464,-0.406316 0.206552,-0.22 0.398952,-0.4 0.427568,-0.4 0.02862,0 0.147552,-0.08857 0.264288,-0.196819 0.286848,-0.26598 0.679032,-0.428354 0.72216,-0.298988 0.04606,0.138193 0.704208,0.121269 0.832888,-0.02142 0.278144,-0.308425 0.29432,-0.342171 0.20624,-0.43025 -0.06304,-0.06304 -0.04469,-0.103429 0.0661,-0.145427 0.175104,-0.06638 0.398144,-0.266477 0.299088,-0.268324 -0.03614,-6.4e-4 -0.01171,-0.03612 0.05429,-0.07878 0.09318,-0.06021 0.06977,-0.07782 -0.10472,-0.07878 -0.130736,-7.2e-4 -0.203896,0.03247 -0.174928,0.07934 0.05636,0.09119 -0.179272,0.20718 -0.258976,0.127478 -0.05647,-0.05648 0.161432,-0.228306 0.644264,-0.508043 0.297728,-0.17249 0.53956,-0.25674 0.297544,-0.103659 -0.10008,0.0633 -0.09567,0.09726 0.03074,0.236949 0.140176,0.154897 0.15876,0.156448 0.37112,0.031 0.24664,-0.145696 0.352472,-0.402695 0.22772,-0.553009 -0.05495,-0.06621 -0.05041,-0.115663 0.01433,-0.155668 0.141656,-0.08755 0.406048,0.292147 0.295872,0.424907 -0.04718,0.05684 -0.06535,0.12376 -0.0404,0.148714 0.08382,0.08382 0.376752,-0.05849 0.466824,-0.226786 0.0753,-0.1407 0.06905,-0.15897 -0.04009,-0.117094 -0.07111,0.02729 -0.129304,0.01775 -0.129304,-0.0212 0,-0.107125 0.171704,-0.147065 0.449832,-0.104635 0.29071,0.04435 0.44954,-0.117547 0.23378,-0.238294 -0.12288,-0.06876 -0.11014,-0.09516 0.1107,-0.229465 0.13725,-0.08347 0.32068,-0.151762 0.40762,-0.151762 0.19509,0 0.21201,-0.157035 0.0181,-0.167694 -0.983372,-0.05404 -1.015564,-0.04736 -1.09654,0.227694 -0.0787,0.267314 -0.363456,0.377002 -0.363456,0.14 0,-0.066 0.036,-0.12 0.08,-0.12 0.044,0 0.08,-0.072 0.08,-0.16 0,-0.088 0.04006,-0.16 0.08902,-0.16 0.109664,0 0.557176,-0.351495 0.891206,-0.7 0.13706,-0.143 0.29008,-0.26 0.34004,-0.26 0.05,0 0.2846,-0.144568 0.52142,-0.321262 0.23683,-0.176696 0.56841,-0.358376 0.73686,-0.403734 0.16845,-0.04536 0.28758,-0.112712 0.26474,-0.149673 -0.0228,-0.03696 0.0148,-0.113966 0.0837,-0.171122 0.10338,-0.08579 0.1379,-0.08389 0.1979,0.01093 0.13679,0.216184 0.0749,0.308749 -0.26487,0.396082 -0.187,0.04807 -0.376,0.09873 -0.42,0.112595 -0.044,0.01386 0.0193,0.07184 0.14068,0.128843 0.26383,0.123902 0.43647,0.05284 1.07255,-0.441511 0.72837,-0.566081 0.77806,-0.601153 0.8516,-0.601153 0.0398,0 0.0524,-0.05176 0.0281,-0.115015 -0.0285,-0.0743 0.0158,-0.123861 0.12517,-0.14 0.21195,-0.03128 0.28834,-0.225123 0.0885,-0.224603 -0.0807,2.4e-4 -0.27869,0.121653 -0.44006,0.269872 -0.34732,0.319019 -0.67102,0.443734 -0.9466,0.364712 l -0.2,-0.05735 0.26,-0.106347 c 0.143,-0.05849 0.26,-0.152456 0.26,-0.208809 0,-0.05635 0.0641,-0.102461 0.14234,-0.102461 0.0783,0 0.19424,-0.072 0.25766,-0.16 0.0634,-0.088 0.17695,-0.16 0.25227,-0.16 0.0753,0 0.15785,-0.06585 0.18339,-0.146334 0.0526,-0.16562 1.02966,-0.920239 1.30434,-1.007359 0.099,-0.0314 0.18,-0.08981 0.18,-0.129795 0,-0.09312 1.14376,-0.956512 1.26712,-0.956512 0.14649,0 0.10978,0.08367 -0.11386,0.259598 -0.24378,0.191757 -0.14934,0.29722 0.26792,0.299177 0.18685,8.72e-4 0.34612,-0.07663 0.55972,-0.27238 0.31356,-0.287358 0.31647,-0.349127 0.0191,-0.406395 -0.22856,-0.04402 -0.254,-0.07044 -0.20092,-0.208751 0.0483,-0.125774 0.68836,-0.551249 0.82932,-0.551249 0.0504,0 0.0916,-0.054 0.0916,-0.12 0,-0.066 0.0287,-0.12 0.0637,-0.12 0.035,0 0.13404,-0.054 0.22,-0.120001 0.91361,-0.701565 0.94874,-0.720117 1.35166,-0.713829 0.22626,0.0035 0.40877,0.0463 0.42666,0.1 0.0172,0.05161 0.0664,0.09383 0.10934,0.09383 0.0429,0 0.0558,-0.036 0.0286,-0.08 -0.0272,-0.044 -0.0113,-0.08 0.0353,-0.08 0.0466,0 0.0847,-0.054 0.0847,-0.12 0,-0.066 -0.0282,-0.12 -0.0626,-0.12 -0.0344,0 -0.07,-0.09 -0.0791,-0.2 -0.0185,-0.222999 0.19394,-0.285304 0.27273,-0.08 0.0253,0.066 0.0951,0.12 0.15505,0.12 0.11303,0 0.65657,-0.280444 0.78987,-0.407539 0.0418,-0.03985 0.13823,-0.07246 0.21429,-0.07246 0.076,0 0.19485,-0.05657 0.264,-0.125714 0.0691,-0.06914 0.12571,-0.08938 0.12571,-0.04497 0,0.04441 0.0675,0.07566 0.15,0.06944 0.1031,-0.0078 0.15,-0.07304 0.15,-0.208789 0,-0.10862 0.0572,-0.23935 0.12722,-0.290513 0.0949,-0.06938 0.10414,-0.116097 0.0364,-0.1838 -0.0677,-0.0677 -0.0416,-0.111541 0.10278,-0.172464 0.14836,-0.06261 0.0861,-0.07037 -0.26644,-0.03322 -0.47799,0.05036 -0.64903,-0.06518 -0.24618,-0.166292 0.19051,-0.04781 0.6616,-0.483246 0.6649,-0.614563 0.002,-0.08586 0.56236,-0.322533 0.66489,-0.280896 0.0744,0.03023 0.0742,0.04059 -0.001,0.04547 -0.0536,0.0035 -0.0769,0.06001 -0.0517,0.125642 0.0265,0.06905 -0.0102,0.140812 -0.0871,0.170323 -0.0731,0.02805 -0.11433,0.0994 -0.0916,0.158559 0.0227,0.05916 -0.0202,0.143418 -0.0954,0.187243 -0.12868,0.07501 -0.12868,0.07983 0,0.08212 0.12357,0.0022 0.58435,-0.260571 0.8476,-0.483381 0.0572,-0.04844 0.24104,-0.165944 0.40845,-0.261127 0.16743,-0.09518 0.40225,-0.289409 0.52184,-0.431614 0.24895,-0.296018 0.66264,-0.445879 1.12566,-0.407778 0.25785,0.02122 0.32002,0.05741 0.3201,0.186333 0,0.123794 0.0535,0.16 0.23595,0.16 0.22088,0 0.23731,-0.02177 0.25882,-0.342926 0.0242,-0.361521 -0.13138,-0.532572 -0.31625,-0.347696 -0.0498,0.04984 -0.14257,0.09062 -0.20605,0.09062 -0.15612,0 0.6018,-0.744609 0.92743,-0.911142 0.143,-0.07313 0.26,-0.165182 0.26,-0.204556 0,-0.03937 0.10426,-0.09449 0.2317,-0.12248 0.12744,-0.02799 0.29502,-0.12085 0.3724,-0.206356 0.0774,-0.08551 0.17575,-0.155466 0.2186,-0.155466 0.0429,0 0.21537,-0.117 0.38338,-0.26 0.16801,-0.143 0.41749,-0.345498 0.55441,-0.449996 0.13692,-0.104498 0.23164,-0.235111 0.21048,-0.290252 -0.0212,-0.05514 0,-0.138328 0.0461,-0.184861 0.0595,-0.05947 0.0426,-0.126658 -0.057,-0.226177 -0.11308,-0.113078 -0.11929,-0.148928 -0.0309,-0.178121 0.0609,-0.0201 0.15316,-0.09371 0.20505,-0.163571 0.0856,-0.115293 0.11989,-0.11338 0.37099,0.02072 0.26276,0.140326 0.2872,0.140837 0.4866,0.01018 0.2202,-0.144282 0.33755,-0.433604 0.25894,-0.638446 -0.0677,-0.176392 0.0846,-0.519484 0.23064,-0.519484 0.069,0 0.22253,-0.09 0.34116,-0.2 0.11863,-0.11 0.27218,-0.2 0.34122,-0.2 0.069,0 0.1954,-0.05285 0.28082,-0.117456 0.0854,-0.0646 0.2683,-0.1186 0.40642,-0.12 0.26444,-0.0027 0.566,-0.201885 0.60547,-0.39997 0.0129,-0.06459 0.1833,-0.2524 0.37874,-0.417366 0.19544,-0.164966 0.38623,-0.355125 0.42398,-0.422574 0.0377,-0.06745 0.13884,-0.122634 0.22465,-0.122634 0.0858,0 0.15603,-0.04963 0.15603,-0.110294 0,-0.06066 0.108,-0.15503 0.24,-0.209706 0.132,-0.05468 0.24,-0.130561 0.24,-0.168632 0,-0.03807 0.117,-0.11893 0.26,-0.179687 0.143,-0.06076 0.36628,-0.21027 0.49618,-0.332252 0.1299,-0.121982 0.4179,-0.306403 0.64,-0.409826 0.2221,-0.103422 0.36782,-0.189901 0.32382,-0.192175 -0.044,-0.0023 0.046,-0.0728 0.2,-0.156735 0.154,-0.08393 0.343,-0.133995 0.42,-0.111256 0.077,0.02274 0.14,0.0048 0.14,-0.03992 0,-0.0447 0.0903,-0.178748 0.20075,-0.297888 0.17731,-0.191316 0.22447,-0.205815 0.40377,-0.124122 0.27085,0.123408 0.43548,0.116791 0.43548,-0.0175 0,-0.0605 0.108,-0.1316 0.24,-0.158 0.132,-0.0264 0.24,-0.0849 0.24,-0.13 0,-0.10761 -0.28756,-0.10499 -0.49211,0.0045 -0.0889,0.04756 -0.18288,0.06519 -0.2089,0.03917 -0.0581,-0.05813 0.15753,-0.231635 0.58101,-0.467457 0.31917,-0.177734 0.84,-0.247241 0.84,-0.112101 0,0.03919 -0.09,0.04866 -0.2,0.02105 -0.19836,-0.04978 -0.27723,0.05568 -0.11611,0.155252 0.0566,0.03497 0.0509,0.09158 -0.0175,0.173949 -0.0856,0.10318 -0.0769,0.117405 0.0561,0.09178 0.0866,-0.01668 0.15746,-0.08383 0.15746,-0.149228 0,-0.07024 0.09,-0.129263 0.22,-0.144217 0.15541,-0.01788 0.22,-0.07072 0.22,-0.18 0,-0.199336 0.0666,-0.195141 0.29405,0.01852 0.15949,0.149834 0.21252,0.160376 0.393,0.07814 0.13351,-0.06083 0.19232,-0.137603 0.16331,-0.213202 -0.0269,-0.07008 9.6e-4,-0.118141 0.0685,-0.118141 0.0626,0 0.20386,-0.09 0.31386,-0.2 0.20154,-0.201546 0.33885,-0.26818 0.24727,-0.12 -0.0272,0.044 -0.009,0.08 0.0407,0.08 0.0537,0 0.0696,-0.06464 0.0393,-0.16 -0.0291,-0.09178 -0.0144,-0.16 0.0346,-0.16 0.0764,0 0.11696,0.105371 0.0973,0.252646 -0.004,0.02895 0.0909,0.0048 0.21052,-0.05372 0.11965,-0.0585 0.28955,-0.118192 0.37755,-0.132645 0.21949,-0.03605 0.4,-0.298712 0.4,-0.582067 0,-0.172914 0.0645,-0.279578 0.24205,-0.4 0.56229,-0.381482 0.7148,-0.531995 0.60672,-0.598791 -0.081,-0.05005 -0.0666,-0.09184 0.0626,-0.182353 0.0922,-0.06458 0.14283,-0.142232 0.1125,-0.172559 -0.18085,-0.180853 -0.0163,-0.448971 0.28977,-0.472023 0.10605,-0.008 0.16639,-0.06793 0.16639,-0.165306 0,-0.127802 0.0199,-0.136232 0.12193,-0.05158 0.0671,0.05566 0.14702,0.07611 0.17768,0.04545 0.0307,-0.03066 0.004,-0.08784 -0.0596,-0.127051 -0.0635,-0.03921 -0.0984,-0.08415 -0.0777,-0.09986 0.19017,-0.144152 0.49289,-0.300137 0.58246,-0.300137 0.0607,0 0.17558,-0.072 0.25522,-0.16 0.0796,-0.088 0.20221,-0.157157 0.2724,-0.153684 0.0827,0.0041 0.0924,0.02052 0.0276,0.04667 -0.12093,0.0488 -0.13415,0.267017 -0.0162,0.267017 0.1338,0 0.4784,-0.411712 0.42156,-0.50366 -0.0318,-0.05153 -8e-4,-0.06396 0.0815,-0.03244 0.0832,0.03193 0.13312,0.01103 0.13312,-0.05578 0,-0.103912 0.567,-0.52812 0.70589,-0.52812 0.0381,0 0.13154,-0.06876 0.2076,-0.152804 0.076,-0.08404 0.22024,-0.173374 0.3204,-0.198513 0.11866,-0.02978 0.20817,-0.136573 0.2569,-0.306495 0.0693,-0.24158 0.107,-0.26535 0.512,-0.322723 0.24046,-0.03406 0.53475,-0.133379 0.65397,-0.2207 0.11921,-0.08732 0.25101,-0.158765 0.29289,-0.158765 0.0419,0 0.16181,-0.101837 0.26655,-0.226305 0.21215,-0.252127 0.5438,-0.383105 0.5438,-0.214764 0,0.05717 -0.0534,0.12444 -0.11865,0.149482 -0.0653,0.02504 -0.0999,0.09448 -0.0769,0.15431 0.0246,0.06397 -0.0419,0.146893 -0.16135,0.201313 -0.20964,0.09552 -0.28184,0.335964 -0.10089,0.335964 0.14641,0 0.46777,-0.239143 0.42165,-0.313775 -0.0214,-0.03456 0.05,-0.103321 0.15866,-0.152811 0.22462,-0.102346 0.28604,-0.493414 0.0775,-0.493414 -0.29061,0 -0.0147,-0.334568 0.44,-0.533527 0.066,-0.02888 0.21263,-0.116565 0.32584,-0.194857 0.11321,-0.07829 0.39221,-0.167072 0.62,-0.197288 0.33353,-0.04424 0.41416,-0.0844 0.41416,-0.206248 0,-0.09936 0.19046,-0.274516 0.55479,-0.510201 0.30514,-0.197392 0.60214,-0.404371 0.66,-0.459954 0.1935,-0.185869 1.23315,-0.777925 1.36604,-0.777925 0.0722,0 0.16001,-0.04629 0.19519,-0.102876 0.0725,-0.116524 0.80217,-0.603738 1.22398,-0.817228 0.154,-0.07795 0.406,-0.24728 0.56,-0.376299 0.32474,-0.272064 1.05526,-0.797384 1.94681,-1.399952 0.548,-0.370373 0.67672,-0.423644 1.02372,-0.423644 0.35714,0 0.41056,0.024 0.53319,0.239494 0.10446,0.183585 0.19324,0.239612 0.38028,0.24 0.1342,2.4e-4 0.28229,-0.03778 0.32909,-0.08458 0.11036,-0.110367 0.89254,-0.153236 1.28278,-0.07031 0.66314,0.140922 1.30413,0.338571 1.30413,0.402124 0,0.132942 0.35421,0.393271 0.53509,0.393271 0.1017,0 0.18491,0.03532 0.18491,0.07848 0,0.04316 0.099,0.102126 0.22,0.131032 0.121,0.0289 0.27033,0.09259 0.33186,0.141524 0.0615,0.04893 0.25953,0.124968 0.44,0.168968 0.29807,0.07267 0.33057,0.10563 0.35467,0.35968 0.0146,0.153823 0.0581,0.317707 0.0967,0.364187 0.0995,0.119845 0.15562,1.467414 0.0635,1.524333 -0.0417,0.02576 -0.16258,0.236602 -0.26867,0.46854 -0.13564,0.296532 -0.26241,0.450501 -0.42708,0.518709 -0.12879,0.05335 -0.30116,0.1572 -0.38302,0.230776 -0.24939,0.224131 -0.77015,0.476917 -1.10796,0.537815 -0.32384,0.05838 -0.78413,0.283504 -1.30929,0.64036 -0.15832,0.10758 -0.33144,0.1956 -0.38471,0.1956 -0.13184,0 -0.66114,0.30662 -0.906,0.524844 -0.11,0.09803 -0.434,0.294302 -0.72,0.436154 -0.286,0.141853 -0.5844,0.325658 -0.66312,0.408458 -0.0787,0.0828 -0.20931,0.150544 -0.2902,0.150544 -0.0809,0 -0.18729,0.04844 -0.23643,0.107643 -0.0491,0.0592 -0.23354,0.172671 -0.40979,0.25215 -0.17625,0.07948 -0.32046,0.17504 -0.32046,0.212357 0,0.03732 -0.0512,0.06785 -0.11387,0.06785 -0.0626,0 -0.21562,0.0824 -0.34,0.183115 -0.12437,0.100713 -0.31613,0.228473 -0.42613,0.283912 -0.47838,0.241095 -0.64,0.34649 -0.64,0.417339 0,0.0416 -0.054,0.07563 -0.12,0.07563 -0.066,0 -0.192,0.072 -0.28,0.16 -0.088,0.088 -0.19591,0.16 -0.23979,0.16 -0.173,0 -1.12503,0.499833 -1.22565,0.643492 -0.0588,0.08393 -0.22216,0.201065 -0.36306,0.260307 -0.14089,0.05924 -0.35412,0.186933 -0.47384,0.283759 -0.32658,0.26397 -1.28143,0.892444 -1.35611,0.892444 -0.0359,0 -0.1905,0.102367 -0.34354,0.227482 -0.15302,0.125116 -0.37103,0.250247 -0.48445,0.27807 -0.11343,0.02782 -0.29778,0.132455 -0.40965,0.232518 -0.4039,0.36124 -0.54388,0.457823 -0.89623,0.618336 -0.197,0.08975 -0.3805,0.199268 -0.40776,0.243384 -0.0273,0.04412 -0.11945,0.08021 -0.20485,0.08021 -0.0854,0 -0.15528,0.03177 -0.15528,0.07061 0,0.07283 -0.79503,0.489388 -0.93403,0.489388 -0.043,0 -0.15827,0.08537 -0.2563,0.189702 -0.098,0.104337 -0.31129,0.257337 -0.47394,0.34 -0.16265,0.08266 -0.356,0.204298 -0.42967,0.270298 -0.0737,0.066 -0.26168,0.237 -0.41783,0.38 -0.15615,0.143 -0.37488,0.2645 -0.48607,0.27 -0.11118,0.0055 -0.23291,0.0145 -0.2705,0.02 -0.0376,0.0055 -0.16678,0.127 -0.28711,0.27 -0.12033,0.143 -0.24977,0.26 -0.28765,0.26 -0.0862,0 -0.75502,0.441209 -1.08339,0.714703 -0.60127,0.500799 -0.71554,0.565297 -1.00154,0.565297 -0.22543,0 -0.30293,0.0368 -0.3349,0.159037 -0.0229,0.08747 -0.12607,0.191479 -0.22933,0.23113 -0.10326,0.03965 -0.29574,0.174435 -0.42774,0.299519 -0.132,0.125083 -0.40907,0.318074 -0.61571,0.428869 -0.20664,0.110795 -0.47664,0.282609 -0.6,0.381809 -0.74912,0.602413 -1.07206,0.784473 -1.26211,0.711544 -0.0781,-0.02998 -0.1224,-0.01061 -0.11278,0.04937 0.0327,0.204176 -0.11708,0.383479 -0.43966,0.526174 -0.18321,0.08104 -0.38968,0.203915 -0.45881,0.273052 -0.0691,0.06914 -0.46439,0.311415 -0.87832,0.538398 -0.41394,0.226983 -0.82461,0.494792 -0.91261,0.595131 -0.088,0.100338 -0.35502,0.286729 -0.59338,0.414201 -0.23835,0.127471 -0.49935,0.294766 -0.58,0.371766 -0.0806,0.077 -0.19621,0.14 -0.25683,0.14 -0.0606,0 -0.15961,0.05958 -0.22,0.132392 -0.0604,0.07282 -0.22836,0.181954 -0.37327,0.242528 -0.14491,0.06058 -0.28377,0.162998 -0.30856,0.227608 -0.0248,0.06461 -0.0754,0.117472 -0.1124,0.117472 -0.037,0 -0.16443,0.09 -0.28312,0.2 -0.1187,0.11 -0.24937,0.2 -0.29039,0.2 -0.041,0 -0.21716,0.144 -0.39142,0.32 -0.17425,0.176 -0.38328,0.32 -0.46452,0.32 -0.0812,0 -0.20668,0.09 -0.27875,0.2 -0.0721,0.11 -0.20018,0.2 -0.28466,0.2 -0.0845,0 -0.20612,0.07493 -0.27026,0.16652 -0.0641,0.09159 -0.33959,0.346177 -0.61209,0.565757 -0.45983,0.370537 -0.5181,0.395408 -0.81066,0.345981 -0.34632,-0.05851 -0.54969,0.04622 -0.54969,0.283077 0,0.207791 -0.41943,0.621797 -0.68782,0.678915 -0.1277,0.02718 -0.29469,0.08324 -0.37109,0.124582 -0.22263,0.120463 -0.50251,0.08739 -0.69843,-0.08252 -0.13639,-0.118293 -0.21832,-0.138151 -0.32794,-0.07948 -0.13761,0.07365 -0.13472,0.09051 0.0496,0.289371 0.10764,0.116141 0.1957,0.237808 0.1957,0.270369 0,0.03256 -0.135,0.124644 -0.3,0.204628 -0.21662,0.105004 -0.26109,0.15364 -0.16,0.174981 0.24782,0.05232 0.14902,0.177825 -0.14,0.177825 -0.19555,0 -0.28,0.03619 -0.28,0.12 0,0.066 -0.034,0.12 -0.0756,0.12 -0.0416,0 -0.12287,0.099 -0.18059,0.22 -0.0669,0.140297 -0.2569,0.290216 -0.52436,0.413812 -0.23068,0.106596 -0.41942,0.240865 -0.41942,0.298374 0,0.05751 -0.135,0.175 -0.3,0.261089 -0.165,0.08609 -0.462,0.307102 -0.66,0.491137 -0.55676,0.51749 -0.72069,0.630302 -0.84602,0.58221 -0.078,-0.02994 -0.10103,-0.006 -0.0705,0.07355 0.0336,0.08767 -0.0374,0.131203 -0.27649,0.169436 -0.44097,0.07051 -0.71495,0.206479 -0.77083,0.382535 -0.0258,0.08132 -0.0769,0.147859 -0.11353,0.147859 -0.0366,0 -0.1953,0.128688 -0.35259,0.285974 -0.16054,0.160548 -0.32569,0.261424 -0.37653,0.23 -0.0666,-0.04117 -0.0654,-0.07154 0.005,-0.114841 0.0703,-0.04346 0.0654,-0.07031 -0.0187,-0.102599 -0.0627,-0.02405 -0.16239,-0.0138 -0.22157,0.02277 -0.0875,0.05407 -0.0885,0.08945 -0.006,0.189302 0.0864,0.104066 0.0703,0.130731 -0.10515,0.174771 -0.22193,0.0557 -0.26956,0.155028 -0.10706,0.223313 0.0689,0.02893 0.0502,0.0729 -0.06,0.141119 -0.088,0.0545 -0.36734,0.296399 -0.62076,0.537548 -0.35182,0.334787 -0.52205,0.440681 -0.72,0.447879 -0.30834,0.01121 -0.48165,0.103775 -0.41034,0.219154 0.0708,0.114569 -0.36778,0.459199 -0.5889,0.462733 -0.099,0.0016 -0.18,0.0506 -0.18,0.108932 0,0.124131 -0.33127,0.453945 -0.45595,0.453945 -0.0471,0 -0.14579,0.09179 -0.21929,0.203978 -0.0957,0.145999 -0.17787,0.189946 -0.2892,0.154609 -0.0877,-0.02785 -0.15556,-0.01215 -0.15556,0.03602 0,0.04697 0.0429,0.08539 0.0953,0.08539 0.0524,0 0.0267,0.05017 -0.0572,0.111489 -0.10672,0.07804 -0.20934,0.08987 -0.342,0.03943 -0.10424,-0.03963 -0.22252,-0.05168 -0.26282,-0.02677 -0.1086,0.06712 -0.0889,0.275009 0.0267,0.281265 0.12823,0.0069 -0.15368,0.128933 -0.44,0.190404 -0.121,0.02598 -0.22,0.100872 -0.22,0.166434 0,0.237691 -0.58597,0.707368 -1.21377,0.972882 -0.18953,0.08016 -0.27875,0.163384 -0.25145,0.234555 0.0233,0.06067 0.002,0.110311 -0.048,0.110311 -0.0497,0 -0.24253,0.136166 -0.42855,0.302592 -0.41314,0.369628 -0.95304,0.737408 -1.08252,0.737408 -0.0526,0 -0.0957,0.03658 -0.0957,0.08129 0,0.04471 -0.126,0.14138 -0.28,0.214817 -0.154,0.07344 -0.28,0.180855 -0.28,0.238706 0,0.07185 -0.11802,0.105183 -0.3724,0.105183 -0.35507,0 -0.36626,0.0068 -0.24061,0.145621 0.12348,0.136448 0.11796,0.158353 -0.0876,0.347731 -0.3274,0.301613 -0.5972,0.466648 -0.7629,0.466648 -0.17431,0 -0.36122,0.165811 -0.32144,0.285152 0.0153,0.04605 -0.10775,0.160539 -0.27357,0.254425 -0.31745,0.179748 -0.58148,0.445561 -0.58148,0.58542 0,0.04574 -0.11986,0.13325 -0.26637,0.194463 -0.1465,0.06121 -0.31488,0.16975 -0.37417,0.241193 -0.0593,0.07144 -0.20687,0.181129 -0.32796,0.243745 -0.12109,0.06262 -0.243133,0.186242 -0.271213,0.274724 -0.02809,0.08848 -0.102328,0.160878 -0.164976,0.160878 -0.120376,0 -0.727168,0.423719 -1.092472,0.762858 -0.156032,0.144861 -0.270664,0.188186 -0.407216,0.153912 -0.14388,-0.03611 -0.22084,-7.2e-4 -0.31676,0.145684 -0.176808,0.269833 -0.925888,1.017545 -1.019416,1.017545 -0.04244,0 -0.174024,0.146355 -0.2924,0.325234 -0.118376,0.178879 -0.316888,0.377804 -0.441136,0.442055 -0.124248,0.06425 -0.225904,0.154996 -0.225904,0.201656 0,0.134505 -0.502344,0.631055 -0.638424,0.631055 -0.06777,0 -0.220272,0.09 -0.338904,0.2 -0.118632,0.11 -0.253264,0.2 -0.299184,0.2 -0.04592,0 -0.08349,0.049 -0.08349,0.108883 0,0.05989 -0.1602,0.193871 -0.356008,0.297745 -0.22524,0.119488 -0.321224,0.210362 -0.261312,0.24739 0.0605,0.03739 -0.0059,0.105203 -0.183992,0.187774 -0.57016,0.264418 -0.718688,0.37065 -0.718688,0.514014 0,0.15872 -0.162536,0.258448 -0.48,0.294517 -0.11,0.0125 -0.254,0.0873 -0.32,0.166226 -0.155688,0.186179 -0.510608,0.342811 -0.783764,0.345884 -0.177764,0.002 -0.19265,0.0162 -0.08367,0.07981 0.199242,0.116302 0.01438,0.452365 -0.281371,0.511516 -0.192599,0.03852 -0.214621,0.06571 -0.132937,0.164134 0.08124,0.09789 0.04852,0.147106 -0.192242,0.289157 -0.159581,0.09416 -0.326482,0.239085 -0.370894,0.322069 -0.0912,0.1704 -0.315992,0.198004 -0.457784,0.05621 -0.07289,-0.07289 -0.147923,-0.04141 -0.326167,0.136832 -0.192979,0.192979 -0.216496,0.256726 -0.141333,0.383111 0.07343,0.123476 0.06178,0.168601 -0.06281,0.243167 -0.08414,0.05036 -0.222026,0.163561 -0.306408,0.251561 -0.08438,0.088 -0.265807,0.277 -0.403168,0.42 -0.137362,0.143 -0.313652,0.26 -0.391755,0.26 -0.0781,0 -0.19514,0.081 -0.26008,0.18 -0.124911,0.190423 -0.537828,0.434189 -0.805615,0.475594 -0.101265,0.01566 -0.188099,0.120124 -0.236544,0.284572 -0.0421,0.142909 -0.105534,0.259834 -0.140969,0.259834 -0.03543,0 -0.282446,0.216 -0.548917,0.48 -0.515704,0.510922 -0.645098,0.581362 -0.574912,0.312972 0.03646,-0.139418 0.01208,-0.16256 -0.14749,-0.14 -0.140666,0.01989 -0.197855,0.08515 -0.216482,0.247028 -0.01392,0.121 -0.0565,0.22 -0.09461,0.22 -0.03811,0 -0.09215,0.072 -0.120078,0.16 -0.03193,0.100602 -0.121042,0.16 -0.24004,0.16 -0.161089,0 -0.188175,0.03809 -0.181982,0.255932 0.0048,0.168207 -0.04235,0.284747 -0.137514,0.34 -0.145635,0.08456 -0.29193,0.234546 -0.589197,0.604068 -0.157843,0.196209 -0.163099,0.197027 -0.277316,0.04317 -0.100402,-0.135252 -0.145153,-0.143744 -0.325187,-0.06172 -0.21088,0.09608 -0.276007,0.287549 -0.128764,0.37855 0.11251,0.06954 0.09965,0.199563 -0.02,0.202222 -0.055,0.0012 -0.200665,0.104888 -0.3237,0.230368 -0.141229,0.144034 -0.345096,0.247556 -0.552979,0.280798 -0.250163,0.04 -0.306939,0.07499 -0.2363,0.145633 0.10873,0.10873 0.125005,0.380979 0.02277,0.380979 -0.03861,0 -0.115389,-0.05444 -0.170613,-0.120986 -0.07808,-0.09408 -0.125544,-0.100128 -0.213437,-0.02718 -0.06216,0.05159 -0.09454,0.141975 -0.07195,0.200851 0.02259,0.05888 -0.05677,0.210538 -0.176359,0.337028 -0.119584,0.126485 -0.30743,0.34494 -0.41743,0.48545 -0.197949,0.252853 -0.709543,0.642346 -0.98,0.746105 -0.077,0.02954 -0.141657,0.11784 -0.143682,0.196222 -0.0021,0.07965 -0.266728,0.348314 -0.6,0.609064 -0.327975,0.256604 -0.596318,0.503506 -0.596318,0.548672 0,0.04866 -0.08544,0.06068 -0.209664,0.0295 -0.191375,-0.04803 -0.205367,-0.0355 -0.160405,0.143643 0.04134,0.164694 0.01167,0.209367 -0.184412,0.277722 -0.128519,0.0448 -0.293557,0.172857 -0.366752,0.284566 -0.07319,0.111708 -0.20186,0.224936 -0.285924,0.251617 -0.08406,0.02668 -0.152843,0.08041 -0.152843,0.119395 0,0.03899 -0.153,0.229932 -0.34,0.424323 -0.187,0.194391 -0.38123,0.403068 -0.431621,0.463725 -0.226841,0.273054 -0.581973,0.54563 -0.773525,0.593706 -0.115016,0.02887 -0.231265,0.122258 -0.258331,0.207534 -0.02707,0.08528 -0.181355,0.239349 -0.342866,0.342384 -0.314452,0.200599 -0.653657,0.557247 -0.653657,0.687268 0,0.04366 -0.09,0.07939 -0.2,0.07939 -0.140514,0 -0.2,0.04357 -0.2,0.146482 0,0.145449 -0.15787,0.257017 -0.58,0.409887 -0.121,0.04382 -0.22,0.133637 -0.22,0.199597 0,0.06596 -0.103638,0.173518 -0.230306,0.23902 -0.126668,0.0655 -0.251666,0.174762 -0.277773,0.242797 -0.02611,0.06803 -0.07547,0.119104 -0.109695,0.113485 -0.177584,-0.02915 -0.262226,0.02453 -0.262226,0.166303 0,0.08666 -0.189,0.360724 -0.42,0.609026 -0.260945,0.28049 -0.410522,0.508632 -0.394971,0.602431 0.01376,0.08304 -0.01469,0.150973 -0.06324,0.150973 -0.04855,0 -0.191388,0.07624 -0.317424,0.169422 -0.126036,0.09318 -0.267264,0.145868 -0.313843,0.117082 -0.04658,-0.02879 -0.152817,0.01197 -0.236086,0.09058 -0.08327,0.0786 -0.265436,0.232916 -0.404814,0.342916 -0.13938,0.11 -0.463896,0.403114 -0.721148,0.651366 -0.273709,0.264132 -0.571589,0.474176 -0.718103,0.506356 -0.137704,0.03025 -0.254965,0.07913 -0.260581,0.108635 -0.0056,0.0295 -0.01899,0.140746 -0.02973,0.247205 -0.02014,0.199752 -0.231359,0.406438 -0.41535,0.406438 -0.05759,0 -0.10471,0.03323 -0.10471,0.07385 0,0.156283 -0.48647,0.558726 -0.622633,0.515086 -0.117001,-0.0375 -0.119576,-0.03105 -0.01737,0.04352 0.102345,0.07467 0.103413,0.09823 0.0073,0.160144 -0.06201,0.03993 -0.16101,0.05408 -0.22,0.03144 -0.05899,-0.02264 -0.107254,-0.0043 -0.107254,0.04073 0,0.04504 0.0409,0.09553 0.0909,0.112192 0.143395,0.0478 -0.09062,0.363508 -0.348682,0.4704 -0.12222,0.05062 -0.222217,0.13489 -0.222217,0.187258 0,0.157 -0.327948,0.459448 -0.44817,0.413312 -0.154618,-0.05934 -0.35183,0.02745 -0.35183,0.154816 0,0.0581 -0.08602,0.173304 -0.191161,0.256 -0.105139,0.0827 -0.204579,0.22004 -0.220979,0.3052 -0.0164,0.08516 -0.128376,0.202072 -0.248839,0.259808 -0.120461,0.05774 -0.219021,0.15344 -0.219021,0.21268 0,0.05924 -0.164562,0.17428 -0.365693,0.255632 -0.290584,0.117544 -0.397049,0.21612 -0.518362,0.479944 -0.08397,0.182608 -0.314812,0.488608 -0.512986,0.68 -0.198217,0.191396 -0.360953,0.392988 -0.36168,0.447988 -7.2e-4,0.055 -0.03172,0.1 -0.06888,0.1 -0.03716,0 -0.169742,0.08781 -0.294635,0.19512 -0.124892,0.10732 -0.247492,0.193056 -0.272443,0.190528 -0.178512,-0.01808 -0.245365,0.04101 -0.245365,0.216864 0,0.111376 -0.054,0.223232 -0.12,0.24856 -0.066,0.02533 -0.12,0.08012 -0.12,0.12176 0,0.127032 -0.433185,0.62716 -0.543211,0.627168 -0.145991,0 -0.722139,0.630704 -0.853845,0.934696 -0.06069,0.140088 -0.257183,0.351872 -0.436647,0.470632 -0.179464,0.11876 -0.326297,0.259368 -0.326297,0.312456 0,0.05308 -0.135,0.22204 -0.3,0.375464 -0.165,0.153416 -0.507017,0.503272 -0.760038,0.777448 -0.253021,0.274176 -0.541021,0.514016 -0.64,0.532968 -0.204312,0.03913 -0.346821,0.200312 -0.509575,0.576336 -0.06189,0.143 -0.139398,0.26 -0.172231,0.26 -0.03283,0 -0.253444,0.18 -0.490246,0.4 -0.236803,0.22 -0.459066,0.4 -0.493917,0.4 -0.03485,0 -0.07476,0.099 -0.08868,0.22 -0.02133,0.18536 -0.07844,0.232816 -0.362725,0.301408 -0.40412,0.09751 -0.595942,0.251456 -0.43628,0.350128 0.07939,0.04907 0.04485,0.125 -0.141787,0.311632 -0.135716,0.13572 -0.318253,0.269448 -0.405639,0.297184 -0.0902,0.02863 -0.158882,0.121072 -0.158882,0.213848 0,0.150536 -0.247205,0.430552 -1.6,1.812368 -0.242,0.247192 -0.467,0.441336 -0.5,0.43144 -0.033,-0.0099 -0.06,0.03599 -0.06,0.101992 0,0.066 -0.02961,0.12 -0.06579,0.12 -0.101726,0 -0.49421,0.636208 -0.49421,0.801096 0,0.09851 -0.149172,0.221056 -0.453822,0.372824 -0.369786,0.184216 -0.513237,0.318664 -0.77469,0.72608 -0.176477,0.275 -0.350257,0.5 -0.386178,0.5 -0.03592,0 -0.06531,0.126 -0.06531,0.28 0,0.25444 -0.10121,0.348184 -0.280709,0.26 -0.02239,-0.011 -0.111823,0.09694 -0.198742,0.239864 -0.08692,0.142928 -0.301375,0.358928 -0.47657,0.48 -0.175196,0.121072 -0.302304,0.266665 -0.282462,0.323535 0.01984,0.0569 -0.08938,0.17744 -0.242721,0.26791 -0.153338,0.0905 -0.278796,0.2082 -0.278796,0.26162 0,0.13756 -0.3745,0.46825 -0.82,0.72407 -0.276087,0.15853 -0.38,0.26742 -0.38,0.3982 0,0.099 -0.072,0.24516 -0.16,0.3248 -0.088,0.0796 -0.16,0.18902 -0.16,0.24307 0,0.0541 -0.07562,0.11804 -0.16805,0.14222 -0.09243,0.0242 -0.145904,0.0798 -0.118838,0.12357 0.02707,0.0438 -0.01805,0.10097 -0.100258,0.12706 -0.08221,0.0261 -0.216917,0.17268 -0.299354,0.32576 -0.08244,0.15307 -0.175734,0.27832 -0.207328,0.27832 -0.03159,0 -0.105205,0.099 -0.163583,0.22 -0.08942,0.18534 -0.156277,0.22 -0.424365,0.22 -0.27856,0 -0.317432,0.0224 -0.311872,0.18 0.0035,0.099 -0.01901,0.18 -0.05,0.18 -0.03099,0 -0.07825,0.1095 -0.105016,0.24332 -0.04798,0.23992 -0.689227,0.95668 -0.855883,0.95668 -0.04599,0 -0.133024,0.117 -0.193409,0.26 -0.06039,0.143 -0.184549,0.31294 -0.275918,0.37766 -0.09137,0.0647 -0.166126,0.16303 -0.166126,0.21848 0,0.0554 -0.09095,0.12364 -0.202111,0.15154 -0.111161,0.0279 -0.236975,0.11587 -0.279589,0.1955 -0.145319,0.27152 -2.530071,2.72871 -3.219052,3.31682 -0.206187,0.176 -0.375868,0.36667 -0.377067,0.42372 -0.0012,0.057 -0.109953,0.16505 -0.241676,0.24 -0.131721,0.075 -0.239721,0.17388 -0.24,0.21984 -2.4e-4,0.046 -0.181867,0.22187 -0.403531,0.39091 -0.221664,0.16905 -0.438326,0.37331 -0.481471,0.45393 -0.04315,0.0806 -0.239784,0.24113 -0.436975,0.35669 -0.223692,0.13109 -0.358528,0.26685 -0.358528,0.36099 0,0.098 -0.0771,0.17004 -0.22,0.20556 -0.207812,0.0517 -0.498628,0.2251 -0.86,0.51291 -0.088,0.0701 -0.315195,0.17623 -0.504877,0.23586 -0.189683,0.0596 -0.459683,0.22125 -0.6,0.35915 -0.19566,0.1923 -0.39497,0.28164 -0.855123,0.38333 -0.844502,0.18663 -1.079119,0.2028 -1.76,0.12129 z m 9.15469,-15.107944 c -0.08508,-0.03089 -0.171648,-0.04072 -0.192373,-0.02185 -0.06506,0.05923 0.186027,0.177536 0.268553,0.126528 0.04318,-0.02669 0.0089,-0.07379 -0.07618,-0.10468 z m 2.84531,-3.15152 c 0,-0.08444 -0.153529,-0.119912 -0.199194,-0.04602 -0.02764,0.04472 0.0059,0.0813 0.07447,0.0813 0.0686,0 0.124722,-0.01587 0.124722,-0.03528 z m 6.749174,-6.882792 c 0.183344,-0.138864 0.370826,-0.488256 0.370826,-0.691072 0,-0.201336 -0.06522,-0.190168 -0.287006,0.04914 -0.101945,0.11 -0.257807,0.2 -0.34636,0.2 -0.150655,0 -0.326634,0.209512 -0.326634,0.388872 0,0.07246 0.157767,0.14228 0.36,0.159304 0.044,0.0037 0.147129,-0.0441 0.229174,-0.106248 z m 1.970826,-1.481928 c 0,-0.044 -0.03813,-0.08 -0.08472,-0.08 -0.0466,0 -0.06247,0.036 -0.03528,0.08 0.02719,0.044 0.06532,0.08 0.08472,0.08 0.0194,0 0.03528,-0.036 0.03528,-0.08 z m -1,-0.08 c -0.02719,-0.044 -0.09232,-0.07945 -0.144722,-0.07878 -0.05725,8e-4 -0.04738,0.03218 0.02472,0.07878 0.15369,0.09932 0.181384,0.09932 0.12,0 z m 0.84,-0.64472 c 0,-0.04141 -0.07641,-0.07528 -0.169795,-0.07528 -0.141301,0 -0.153206,0.01999 -0.07094,0.11912 0.09992,0.1204 0.240731,0.09475 0.240731,-0.04384 z m 2.440866,-2.496664 c 0.375479,-0.416912 0.393846,-0.458616 0.20198,-0.458616 -0.122918,0 -0.204332,0.07309 -0.267334,0.24 -0.04982,0.132 -0.118698,0.24 -0.153051,0.24 -0.03435,0 -0.06246,0.036 -0.06246,0.08 0,0.129232 0.108416,0.0901 0.280866,-0.101384 z m 3.751129,-3.437391 c 0.04846,-0.03236 -0.0087,-0.05933 -0.127273,-0.06 -0.266404,-0.0015 -0.356096,0.121853 -0.166404,0.228884 0.09988,0.05636 0.151122,0.05191 0.173677,-0.01508 0.0176,-0.05226 0.0716,-0.121475 0.12,-0.153801 z m 3.168005,-3.301225 c 0,-0.066 -0.054,-0.12 -0.12,-0.12 -0.066,0 -0.12,0.054 -0.12,0.12 0,0.066 0.054,0.12 0.12,0.12 0.066,0 0.12,-0.054 0.12,-0.12 z m 4.516583,-0.125528 c -0.05941,-0.09612 -0.276583,-0.09702 -0.276583,-0.0011 0,0.0867 0.173629,0.160016 0.261305,0.110343 0.03372,-0.0191 0.04059,-0.06824 0.01528,-0.109205 z m -2.756583,-1.434472 c 0,-0.044 -0.03813,-0.08 -0.08472,-0.08 -0.0466,0 -0.06247,0.036 -0.03528,0.08 0.02719,0.044 0.06532,0.08 0.08472,0.08 0.0194,0 0.03528,-0.036 0.03528,-0.08 z m 2.036014,-0.15355 c 0.06227,-0.100758 -0.189084,-0.340176 -0.291004,-0.277185 -0.05334,0.03296 -0.04749,0.07212 0.0167,0.111791 0.05434,0.03358 0.07405,0.10108 0.04382,0.15 -0.031,0.05016 -0.0026,0.08894 0.06503,0.08894 0.066,0 0.140455,-0.0331 0.165456,-0.07355 z m 1.109959,-2.619089 c 0.09105,-0.09105 -0.117193,-0.267361 -0.315768,-0.267361 -0.209274,0 -0.241523,0.07668 -0.09421,0.224 0.104236,0.104236 0.325677,0.127657 0.409973,0.04336 z m 0.694027,-0.867361 c 0,-0.066 -0.03387,-0.12 -0.07528,-0.12 -0.100879,0 -0.173128,0.124927 -0.109214,0.188842 0.0901,0.09009 0.184494,0.05487 0.184494,-0.06884 z m 2.38764,-2.318242 c 0.0368,-0.186628 -0.140496,-0.123368 -0.291459,0.103994 -0.112459,0.169372 -0.109313,0.173956 0.07315,0.106587 0.104866,-0.03872 0.203104,-0.133479 0.218306,-0.210581 z m 1.45236,0.198242 c 0,-0.044 -0.09213,-0.08 -0.204722,-0.08 -0.116108,0 -0.18332,0.03463 -0.155278,0.08 0.02719,0.044 0.119318,0.08 0.204722,0.08 0.0854,0 0.155278,-0.036 0.155278,-0.08 z m -0.24,-0.32 c 0,-0.044 -0.036,-0.08 -0.08,-0.08 -0.044,0 -0.08,0.036 -0.08,0.08 0,0.044 0.036,0.08 0.08,0.08 0.044,0 0.08,-0.036 0.08,-0.08 z m -0.136027,-0.610168 c 0.247052,-0.125605 0.536027,-0.37709 0.536027,-0.466487 0,-0.130911 -0.352452,-0.01 -0.597216,0.204942 -0.418386,0.367347 -0.389528,0.490695 0.06119,0.261545 z m 0.970001,-0.970235 c 0.565494,-0.43003 0.571759,-0.679853 0.0097,-0.388272 -0.201059,0.10431 -0.595216,0.689152 -0.463865,0.688272 0.03308,-2.4e-4 0.237443,-0.135222 0.454129,-0.3 z m 4.806026,-0.659597 c 0.02719,-0.044 0.01344,-0.08 -0.03056,-0.08 -0.044,0 -0.102248,0.036 -0.129442,0.08 -0.02719,0.044 -0.01344,0.08 0.03056,0.08 0.044,0 0.102248,-0.036 0.129442,-0.08 z m -2.619782,-0.460543 c 0.02899,-0.08707 -0.07762,-0.09449 -0.36494,-0.0254 -0.0136,0.0033 -0.0012,0.04394 0.02746,0.09037 0.06736,0.108988 0.294092,0.06534 0.33748,-0.06497 z m 0.959782,-1.694942 c 0.194245,-0.162045 0.23745,-0.324515 0.0863,-0.324515 -0.132821,0 -0.386299,0.244356 -0.386299,0.372399 0,0.145155 0.08483,0.131614 0.3,-0.04788 z m 1.06,-0.08451 c 0,-0.088 -0.05187,-0.16 -0.115278,-0.16 -0.141328,0 -0.231685,0.131651 -0.164722,0.24 0.087,0.140768 0.28,0.08562 0.28,-0.08 z m 4.32,-2.911441 c 0,-0.01729 -0.054,-0.05216 -0.12,-0.07749 -0.066,-0.02533 -0.12,-0.01118 -0.12,0.03144 0,0.04262 0.054,0.07749 0.12,0.07749 0.066,0 0.12,-0.01415 0.12,-0.03144 z m -0.1473,-0.634585 c 0.127312,-0.09684 0.177062,-0.231377 0.156778,-0.423974 -0.0113,-0.107332 -0.437286,-0.205006 -0.608144,-0.139442 -0.15572,0.05976 -0.07035,0.2005 0.104068,0.171564 0.105676,-0.01753 0.128067,0.03181 0.107938,0.237878 -0.0272,0.278457 0.02855,0.314323 0.23936,0.153974 z m -0.3327,-0.133974 c 0,-0.044 -0.036,-0.08 -0.08,-0.08 -0.044,0 -0.08,0.036 -0.08,0.08 0,0.044 0.036,0.08 0.08,0.08 0.044,0 0.08,-0.036 0.08,-0.08 z m 2.806377,-1.247683 c 0.09252,-0.111478 0.08186,-0.12417 -0.08394,-0.1 -0.104448,0.01523 -0.204725,0.07268 -0.222839,0.127683 -0.0474,0.143934 0.18149,0.123279 0.306778,-0.02768 z m -1.286377,-0.192317 c 0,-0.044 -0.01587,-0.08 -0.03528,-0.08 -0.0194,0 -0.05753,0.036 -0.08472,0.08 -0.02719,0.044 -0.01132,0.08 0.03528,0.08 0.0466,0 0.08472,-0.036 0.08472,-0.08 z m 2.68,-0.16 c -0.02719,-0.044 -0.101318,-0.08 -0.164722,-0.08 -0.0634,0 -0.115278,0.036 -0.115278,0.08 0,0.044 0.07412,0.08 0.164722,0.08 0.0906,0 0.142472,-0.036 0.115278,-0.08 z m -1.814951,-0.54 c -0.01468,-0.077 -0.107315,-0.151504 -0.205867,-0.165564 -0.196951,-0.0281 -0.232155,0.06059 -0.08318,0.209564 0.143316,0.143316 0.319634,0.116476 0.289049,-0.044 z m 5.694951,-2.646666 c 0,-0.104167 -0.0951,-0.173444 -0.172463,-0.125632 -0.08274,0.05114 -0.0114,0.192298 0.09718,0.192298 0.0414,0 0.07528,-0.03 0.07528,-0.06667 z m 0.16,-0.863129 c 0,-0.0649 -0.08417,-0.110205 -0.204722,-0.110205 -0.112596,0 -0.190147,0.027 -0.172335,0.06 0.01781,0.033 0.05636,0.127054 0.08567,0.20901 0.04355,0.121801 0.07502,0.130968 0.172335,0.0502 0.06548,-0.05434 0.119052,-0.148393 0.119052,-0.209005 z m 0.679609,-0.350839 c -0.02698,-0.04365 -0.08293,-0.07937 -0.124331,-0.07937 -0.08706,0 -0.102115,0.266497 -0.01971,0.348902 0.07511,0.07511 0.205847,-0.169528 0.144041,-0.269536 z m -1.419571,-0.779366 c 0.01877,-0.05639 -0.03241,-0.1 -0.117372,-0.1 -0.08287,0 -0.189803,-0.03914 -0.237636,-0.08697 -0.05735,-0.05735 -0.103922,-0.05954 -0.136736,-0.0064 -0.06799,0.110013 0.182026,0.347058 0.334787,0.317416 0.06801,-0.0132 0.138644,-0.069 0.156957,-0.123996 z m 0.377648,-0.61125 c 0.245272,-0.210757 0.214162,-0.36875 -0.07261,-0.36875 -0.209184,0 -0.4055,0.189869 -0.32724,0.316496 0.02839,0.04593 0.01348,0.0835 -0.03311,0.0835 -0.0466,0 -0.08472,0.036 -0.08472,0.08 0,0.145671 0.29162,0.083 0.517686,-0.11125 z m 4.962314,-0.28875 c 0.02982,-0.04824 -0.07759,-0.08 -0.27056,-0.08 -0.176,0 -0.342248,0.036 -0.36944,0.08 -0.02982,0.04824 0.07759,0.08 0.27056,0.08 0.176,0 0.342248,-0.036 0.36944,-0.08 z m -1.474,-0.262 c -0.0099,-0.09566 -0.119624,-0.07713 -0.154,0.026 -0.0176,0.0528 0.0112,0.0816 0.064,0.064 0.0528,-0.0176 0.0933,-0.0581 0.09,-0.09 z m 1.514,-0.186559 c 0,-0.01729 -0.07413,-0.03144 -0.16472,-0.03144 -0.0906,0 -0.143448,0.03443 -0.11744,0.07651 0.04269,0.06907 0.28216,0.03083 0.28216,-0.04506 z m -3.84,-0.521236 c 0,-0.08863 -0.08831,-0.08783 -0.23025,0.0021 -0.06064,0.03841 -0.08443,0.111604 -0.05288,0.162659 0.04347,0.07034 0.08472,0.07013 0.170249,-8.48e-4 0.06209,-0.05155 0.112881,-0.125299 0.112881,-0.163911 z m 2.92,-0.07021 c 0.02719,-0.044 0.01132,-0.08 -0.03528,-0.08 -0.04659,0 -0.08472,0.036 -0.08472,0.08 0,0.044 0.01587,0.08 0.03528,0.08 0.0194,0 0.05753,-0.036 0.08472,-0.08 z m -1.136824,-0.4 c 0.0272,-0.103989 0.0025,-0.16 -0.07066,-0.16 -0.06188,0 -0.112512,0.01506 -0.112512,0.03346 0,0.0184 -0.02185,0.0904 -0.04856,0.16 -0.03089,0.08051 -0.0052,0.126543 0.07067,0.126543 0.06558,0 0.138058,-0.072 0.161066,-0.16 z m 1.533408,-0.405528 c -0.07523,-0.121723 -0.195424,-0.08454 -0.145688,0.04507 0.02522,0.06575 0.07869,0.09926 0.118792,0.07447 0.0401,-0.02479 0.05221,-0.07858 0.0269,-0.119541 z m -1.116232,0.005 c 0.02738,-0.04431 -0.01013,-0.103557 -0.08335,-0.131658 -0.07323,-0.0281 -0.159392,-0.0086 -0.191472,0.04328 -0.03207,0.0519 -0.11844,0.0713 -0.19192,0.0431 -0.07522,-0.02887 -0.133608,-0.01257 -0.133608,0.03729 0,0.110657 0.53252,0.117748 0.600352,0.008 z m 5.319648,-0.248914 c 0,-0.044 -0.036,-0.05775 -0.08,-0.03056 -0.044,0.02719 -0.08,0.08544 -0.08,0.129442 0,0.044 0.036,0.05775 0.08,0.03056 0.044,-0.02719 0.08,-0.08544 0.08,-0.129442 z m -0.99136,-4.050558 c 0.168352,-0.221784 0.130632,-0.276846 -0.14864,-0.216949 -0.374168,0.08025 -0.423016,0.127642 -0.256832,0.24916 0.194968,0.14256 0.277792,0.13598 0.405472,-0.03221 z m 3.975587,-0.538904 c 0.009,-0.0434 -0.0472,-0.09104 -0.12423,-0.105866 -0.0876,-0.01686 -0.14,0.02237 -0.14,0.10477 0,0.139183 0.23643,0.140163 0.26423,0.0011 z m 4.29577,-1.241096 c 0.0891,-0.05757 0.0415,-0.07787 -0.18472,-0.07878 -0.18304,-7.2e-4 -0.28497,0.03072 -0.25528,0.07878 0.0625,0.101109 0.28355,0.101109 0.44,0 z m 2.68,0 c 0.0272,-0.044 0.0113,-0.08 -0.0353,-0.08 -0.0466,0 -0.0847,0.036 -0.0847,0.08 0,0.044 0.0159,0.08 0.0353,0.08 0.0194,0 0.0575,-0.036 0.0847,-0.08 z m 1.24,-0.404722 c 0,-0.0414 -0.135,-0.07365 -0.3,-0.07167 l -0.3,0.0036 0.24,0.10526 c 0.24577,0.10779 0.36,0.09599 0.36,-0.0372 z m -6.16,0.0047 c 0,-0.044 -0.0561,-0.08 -0.12472,-0.08 -0.0686,0 -0.10247,0.036 -0.0753,0.08 0.0272,0.044 0.0833,0.08 0.12472,0.08 0.0414,0 0.0753,-0.036 0.0753,-0.08 z m 2.32,0.0086 c 0,-0.07221 -0.18853,-0.1686 -0.32969,-0.1686 -0.11352,0 0.11273,0.233398 0.22969,0.236957 0.055,0.0017 0.1,-0.02911 0.1,-0.0684 z m -3.66708,-1.215474 0.16241,-0.08692 -0.16432,-0.153085 c -0.19738,-0.183882 -0.26198,-0.194777 -0.2002,-0.03376 0.0261,0.06803 -0.009,0.140412 -0.082,0.168383 -0.0703,0.02698 -0.10792,0.08128 -0.0836,0.120673 0.0587,0.095 0.17031,0.09036 0.36774,-0.0153 z m 2.18367,-0.707557 c 0.0253,-0.04096 0.0127,-0.09508 -0.0281,-0.12026 -0.10435,-0.06449 -0.33686,0.03654 -0.28335,0.123114 0.0579,0.09376 0.25279,0.09197 0.3114,-0.0029 z m 2.08341,-2.645569 c 0.0272,-0.044 -0.007,-0.08 -0.0753,-0.08 -0.0686,0 -0.12472,0.036 -0.12472,0.08 0,0.044 0.0339,0.08 0.0753,0.08 0.0414,0 0.0975,-0.036 0.12472,-0.08 z m 4.08,-0.08 c -0.0272,-0.044 -0.10132,-0.08 -0.16472,-0.08 -0.0634,0 -0.11528,0.036 -0.11528,0.08 0,0.044 0.0741,0.08 0.16472,0.08 0.0906,0 0.14247,-0.036 0.11528,-0.08 z m -3.3975,-0.253386 c 0.44722,-0.09237 0.4865,-0.117095 0.45424,-0.285883 -0.0217,-0.113677 0.0144,-0.216239 0.094,-0.266569 0.10977,-0.06946 0.10514,-0.07631 -0.0307,-0.04542 -0.088,0.02001 -0.26105,0.05893 -0.38455,0.08648 -0.17288,0.03857 -0.21375,0.08412 -0.17761,0.197961 0.0503,0.158379 -0.15622,0.298886 -0.24,0.163315 -0.026,-0.04208 -0.13516,-0.07651 -0.24256,-0.07651 -0.15711,0 -0.19528,0.04077 -0.19528,0.208559 0,0.149709 0.0329,0.195947 0.11647,0.163866 0.0641,-0.02458 0.33677,-0.0902 0.60602,-0.145811 z m 2.42643,-1.786614 c 0.0253,-0.066 0.13718,-0.12 0.24856,-0.12 0.11138,0 0.20251,-0.036 0.20251,-0.08 0,-0.044 0.0386,-0.08 0.0857,-0.08 0.12476,0 0.2977,-0.192815 0.32803,-0.365738 0.0444,-0.253186 -0.36944,-0.189129 -0.81236,0.125738 -0.38393,0.272925 -0.50335,0.505522 -0.30138,0.587018 0.16662,0.06723 0.20096,0.05799 0.24893,-0.06702 z m 0.98941,-0.248334 c -0.0266,-0.02658 -0.0956,-0.02942 -0.15334,-0.0063 -0.0638,0.02554 -0.0449,0.0445 0.0483,0.04833 0.0843,0.0035 0.13159,-0.01543 0.105,-0.04202 z m -0.01,-0.81 c -0.0813,-0.08132 -0.14843,0.04111 -0.0817,0.149071 0.0504,0.08155 0.0692,0.08162 0.0964,3.2e-4 0.0185,-0.05558 0.0119,-0.122811 -0.0147,-0.149394 z m 5.19166,-0.181666 c -0.0272,-0.044 -0.10132,-0.08 -0.16472,-0.08 -0.0634,0 -0.11528,0.036 -0.11528,0.08 0,0.044 0.0741,0.08 0.16472,0.08 0.0906,0 0.14247,-0.036 0.11528,-0.08 z m 5.04,-0.24 c 0.0272,-0.044 0.0113,-0.08 -0.0353,-0.08 -0.0466,0 -0.0847,0.036 -0.0847,0.08 0,0.044 0.0159,0.08 0.0353,0.08 0.0194,0 0.0575,-0.036 0.0847,-0.08 z m -7.96,-0.06667 c 0,-0.11258 -0.0901,-0.164452 -0.20736,-0.119439 -0.0614,0.02358 -0.0918,0.0751 -0.0675,0.114487 0.0558,0.09035 0.27482,0.09429 0.27482,0.005 z m 0.19482,-0.564952 c 0.0243,-0.03939 -0.008,-0.09182 -0.0727,-0.116505 -0.12501,-0.04797 -0.23178,0.05178 -0.14659,0.136965 0.0723,0.07232 0.16745,0.06345 0.21931,-0.02046 z m 6.28518,0.03443 c 0,-0.02045 -0.0712,-0.07528 -0.1582,-0.121851 -0.12906,-0.06907 -0.14959,-0.06223 -0.11144,0.03719 0.0414,0.107989 0.26964,0.179642 0.26964,0.08467 z m -5.04,-0.762808 c 0,-0.106666 -0.0533,-0.16 -0.16,-0.16 -0.10666,0 -0.16,0.05333 -0.16,0.16 0,0.106666 0.0533,0.16 0.16,0.16 0.10666,0 0.16,-0.05333 0.16,-0.16 z m 0.16,-0.351441 c 0,-0.01729 -0.054,-0.05216 -0.12,-0.07749 -0.066,-0.02533 -0.12,-0.01118 -0.12,0.03144 0,0.04262 0.054,0.07749 0.12,0.07749 0.066,0 0.12,-0.01415 0.12,-0.03144 z m 0.496,-0.06456 c -0.0747,-0.07467 -0.11734,-0.07467 -0.192,0 -0.0747,0.07467 -0.0533,0.096 0.096,0.096 0.14934,0 0.17066,-0.02133 0.096,-0.096 z m 8.544,-0.183999 c 0,-0.066 -0.036,-0.12 -0.08,-0.12 -0.044,0 -0.08,0.054 -0.08,0.12 0,0.066 0.036,0.12 0.08,0.12 0.044,0 0.08,-0.054 0.08,-0.12 z m -1,-2.92 c -0.0387,-0.06263 -0.0847,-0.06727 -0.13806,-0.01394 -0.044,0.044 -0.0539,0.122273 -0.0219,0.173941 0.0387,0.06263 0.0847,0.06727 0.13806,0.01394 0.044,-0.044 0.0539,-0.122273 0.0219,-0.173941 z m 4.44,-1.44 c 0,-0.044 -0.036,-0.08 -0.08,-0.08 -0.044,0 -0.08,0.036 -0.08,0.08 0,0.044 0.036,0.08 0.08,0.08 0.044,0 0.08,-0.036 0.08,-0.08 z m -5.72668,-0.69145 c 0.0638,-0.166341 0.0245,-0.205705 -0.14187,-0.141874 -0.15985,0.06134 -0.17537,0.273324 -0.02,0.273324 0.0613,0 0.13414,-0.05915 0.16188,-0.13145 z m 1.98783,-1.196372 c 0.0883,-0.08826 -0.0367,-0.272178 -0.18499,-0.272178 -0.2084,0 -0.26526,0.135185 -0.0978,0.23265 0.16662,0.097 0.21816,0.104204 0.28283,0.03953 z m -0.56115,-0.16516 c -0.055,-0.02219 -0.145,-0.02219 -0.2,0 -0.055,0.02219 -0.01,0.04035 0.1,0.04035 0.11,0 0.155,-0.01816 0.1,-0.04035 z m 4.56422,-0.06592 c 0.009,-0.0434 -0.0472,-0.09104 -0.12422,-0.105866 -0.0876,-0.01686 -0.14,0.02237 -0.14,0.10477 0,0.139183 0.23642,0.140163 0.26422,0.0011 z m -3.26206,-0.437602 c -0.026,-0.04208 -0.10013,-0.05623 -0.16472,-0.03144 -0.16537,0.06346 -0.14588,0.107947 0.0473,0.107947 0.0906,0 0.14345,-0.03443 0.11744,-0.07651 z m 1.4313,-1.092053 c 0.0696,-0.02671 0.12654,-0.102559 0.12654,-0.168559 0,-0.07656 -0.0458,-0.10242 -0.12654,-0.07144 -0.0696,0.02671 -0.1416,0.04856 -0.16,0.04856 -0.0184,0 -0.0335,0.054 -0.0335,0.12 0,0.134644 0.0146,0.140055 0.19346,0.07144 z m 5.56654,-0.03144 c 0,-0.044 -0.054,-0.08 -0.12,-0.08 -0.066,0 -0.12,0.036 -0.12,0.08 0,0.044 0.054,0.08 0.12,0.08 0.066,0 0.12,-0.036 0.12,-0.08 z m -4.0069,-0.849403 c 0.0906,-0.115171 0.14508,-0.241171 0.12109,-0.28 -0.0816,-0.132003 -0.4632,-0.07124 -0.64903,0.103348 -0.26754,0.251341 -0.23647,0.386055 0.089,0.386055 0.20047,0 0.31848,-0.0563 0.43891,-0.209403 z m 2.2869,-0.830597 c -0.0272,-0.044 -0.11932,-0.08 -0.20472,-0.08 -0.0854,0 -0.15528,0.036 -0.15528,0.08 0,0.044 0.0921,0.08 0.20472,0.08 0.11611,0 0.18332,-0.03463 0.15528,-0.08 z m -0.75474,-0.242814 c 0.0851,-0.04555 0.15474,-0.117548 0.15474,-0.16 0,-0.124116 -0.18421,-0.08598 -0.4,0.08281 -0.16825,0.131604 -0.17694,0.156725 -0.0547,0.158221 0.0799,9.76e-4 0.21489,-0.03549 0.3,-0.08103 z m 0.51474,-0.557186 c -0.0272,-0.044 -0.10344,-0.08 -0.16944,-0.08 -0.066,0 -0.0978,0.036 -0.0706,0.08 0.0272,0.044 0.10344,0.08 0.16944,0.08 0.066,0 0.0978,-0.036 0.0706,-0.08 z m 2.84,-0.808559 c 0,-0.09141 -0.21694,-0.09347 -0.2731,-0.0026 -0.0234,0.03786 -0.022,0.08938 0.003,0.114488 0.0624,0.06243 0.27,-0.02359 0.27,-0.111889 z m 3.52,-2.826719 c 0,-0.0194 -0.036,-0.05753 -0.08,-0.08472 -0.044,-0.02719 -0.08,-0.01132 -0.08,0.03528 0,0.0466 0.036,0.08472 0.08,0.08472 0.044,0 0.08,-0.01588 0.08,-0.03528 z m 4.68,-1.884722 c 0.0272,-0.044 0.0113,-0.08 -0.0353,-0.08 -0.0466,0 -0.0847,0.036 -0.0847,0.08 0,0.044 0.0159,0.08 0.0353,0.08 0.0194,0 0.0575,-0.036 0.0847,-0.08 z m 1.52,-2.56 c 0.0272,-0.044 0.0113,-0.08 -0.0353,-0.08 -0.0466,0 -0.0847,0.036 -0.0847,0.08 0,0.044 0.0159,0.08 0.0353,0.08 0.0194,0 0.0575,-0.036 0.0847,-0.08 z m 0.91722,-0.4 c 0.0843,0 0.16416,-0.309703 0.0915,-0.354642 -0.08,-0.04946 -0.19164,0.0444 -0.31659,0.266241 -0.0964,0.171193 -0.0936,0.186103 0.0265,0.14 0.074,-0.02838 0.16332,-0.0516 0.1986,-0.0516 z m -84.477217,65.92 c 0,-0.044 0.03813,-0.08 0.08472,-0.08 0.0466,0 0.06247,0.036 0.03528,0.08 -0.02719,0.044 -0.06532,0.08 -0.08472,0.08 -0.0194,0 -0.03528,-0.036 -0.03528,-0.08 z m 2.96,-2.911319 c 0,-0.134344 0.302821,-0.332527 0.384022,-0.251326 0.075,0.075 -0.101708,0.318815 -0.252596,0.348511 -0.07615,0.01499 -0.131426,-0.02589 -0.131426,-0.09718 z m 14.32,-13.253403 c 0,-0.0466 0.036,-0.06247 0.08,-0.03528 0.044,0.02719 0.08,0.06532 0.08,0.08472 0,0.0194 -0.036,0.03528 -0.08,0.03528 -0.044,0 -0.08,-0.03812 -0.08,-0.08472 z m 2.08,-1.905836 c 0,-0.044 0.036,-0.102248 0.08,-0.129442 0.044,-0.02719 0.08,-0.01344 0.08,0.03056 0,0.044 -0.036,0.102248 -0.08,0.129442 -0.044,0.02719 -0.08,0.01344 -0.08,-0.03056 z m 0.535602,-0.404784 c 0.02368,-0.09056 0.0955,-0.164658 0.159595,-0.164658 0.159939,0 0.09751,0.271511 -0.06984,0.303739 -0.09903,0.01907 -0.121858,-0.0163 -0.08975,-0.139081 z m 5.321059,-4.618753 c -0.130006,-0.05216 0.02524,-0.265905 0.193134,-0.265905 0.06061,0 0.110205,-0.05015 0.110205,-0.111441 0,-0.114401 0.165483,-0.208559 0.366543,-0.208559 0.180216,0 0.131875,0.125926 -0.08654,0.225444 -0.11,0.05012 -0.2,0.142046 -0.2,0.204282 0,0.08803 -0.195239,0.237424 -0.266543,0.203958 -0.0074,-0.0035 -0.05996,-0.02497 -0.116796,-0.04778 z m 0.958689,-0.913157 c 0.04396,-0.133296 0.38465,-0.202658 0.38465,-0.07831 0,0.04706 -0.03306,0.08556 -0.07346,0.08556 -0.0404,0 -0.135313,0.02374 -0.210916,0.05275 -0.09648,0.03702 -0.126373,0.01913 -0.100277,-0.06 z m 0.410999,-0.279474 c -0.05733,-0.149389 0.08488,-0.312858 0.206681,-0.237582 0.127019,0.0785 0.106226,0.259801 -0.03606,0.3144 -0.07129,0.02736 -0.143042,-0.0049 -0.170623,-0.07682 z m 0.533651,-0.593274 c 0,-0.044 0.036,-0.08 0.08,-0.08 0.044,0 0.08,0.036 0.08,0.08 0,0.044 -0.036,0.08 -0.08,0.08 -0.044,0 -0.08,-0.036 -0.08,-0.08 z m 0.46,-0.220591 c -0.077,-0.01713 -0.14,-0.0645 -0.14,-0.105275 0,-0.102192 0.218551,-0.09356 0.28329,0.01119 0.06747,0.109167 0.03129,0.13292 -0.14329,0.09409 z m 1.3,-1.372489 c 0,-0.06498 0.701185,-0.72692 0.770019,-0.72692 0.0284,0 0.144594,-0.099 0.258211,-0.22 0.1862,-0.198298 0.209588,-0.205138 0.237092,-0.06935 0.01826,0.09016 -0.05298,0.222391 -0.177405,0.329308 -0.114355,0.09826 -0.207917,0.237469 -0.207917,0.30935 0,0.07188 -0.05143,0.130692 -0.114286,0.130692 -0.06286,0 -0.162489,0.0482 -0.221404,0.107119 -0.11444,0.114439 -0.54431,0.224847 -0.54431,0.139801 z m 4.545,-3.821569 c 0.05775,-0.02311 0.12675,-0.02027 0.153334,0.0063 0.02658,0.02658 -0.02067,0.04549 -0.105,0.04202 -0.0932,-0.0038 -0.112152,-0.0228 -0.04833,-0.04833 z m 2.336608,-1.907285 c 0.05566,-0.06706 0.117664,-0.105458 0.1378,-0.08532 0.05548,0.05548 -0.05724,0.207256 -0.153928,0.207256 -0.05305,0 -0.04698,-0.0459 0.01613,-0.121934 z m 0.878392,-0.59598 c 0,-0.04595 0.108,-0.196554 0.24,-0.33468 0.132,-0.138124 0.24,-0.281797 0.24,-0.319271 0,-0.03747 0.054,-0.06813 0.12,-0.06813 0.164656,0 0.15268,0.04783 -0.09242,0.369168 -0.230188,0.301789 -0.50758,0.494659 -0.50758,0.352913 z m 3.48,-2.962086 c 0.02719,-0.044 0.10132,-0.08 0.16472,-0.08 0.06341,0 0.11528,0.036 0.11528,0.08 0,0.044 -0.07413,0.08 -0.16472,0.08 -0.0906,0 -0.142472,-0.036 -0.11528,-0.08 z m 13.039997,-9.52 c 0.0272,-0.044 0.0653,-0.08 0.0847,-0.08 0.0194,0 0.0353,0.036 0.0353,0.08 0,0.044 -0.0381,0.08 -0.0847,0.08 -0.0466,0 -0.0625,-0.036 -0.0353,-0.08 z m 4.6,-3.40198 c 0,-0.02309 0.0922,-0.07702 0.20482,-0.11985 0.11264,-0.04283 0.18485,-0.110165 0.16045,-0.149637 -0.0468,-0.07575 0.13007,-0.168533 0.32127,-0.168533 0.1707,0 0.13631,0.135365 -0.0465,0.18318 -0.088,0.02301 -0.16,0.09921 -0.16,0.16933 0,0.08832 -0.0737,0.12749 -0.24,0.12749 -0.132,0 -0.24,-0.01889 -0.24,-0.04198 z m 17.2,-11.07802 c 0,-0.044 0.0741,-0.08 0.16472,-0.08 0.0906,0 0.14247,0.036 0.11528,0.08 -0.0272,0.044 -0.10132,0.08 -0.16472,0.08 -0.0634,0 -0.11528,-0.036 -0.11528,-0.08 z"
       id="path14" />
  </g>
</svg>
