<?xml version="1.0" encoding="UTF-8" standalone="no"?>
<svg
   xmlns:dc="http://purl.org/dc/elements/1.1/"
   xmlns:cc="http://creativecommons.org/ns#"
   xmlns:rdf="http://www.w3.org/1999/02/22-rdf-syntax-ns#"
   xmlns:svg="http://www.w3.org/2000/svg"
   xmlns="http://www.w3.org/2000/svg"
   xmlns:sodipodi="http://sodipodi.sourceforge.net/DTD/sodipodi-0.dtd"
   xmlns:inkscape="http://www.inkscape.org/namespaces/inkscape"
   version="1.1"
   id="svg2"
   width="179.92862"
   height="52.584"
   viewBox="0 0 179.92862 52.583999"
   sodipodi:docname="Underline3.svg"
   inkscape:version="1.0.2 (e86c870879, 2021-01-15)">
  <metadata
     id="metadata8">
    <rdf:RDF>
      <cc:Work
         rdf:about="">
        <dc:format>image/svg+xml</dc:format>
        <dc:type
           rdf:resource="http://purl.org/dc/dcmitype/StillImage" />
        <dc:title></dc:title>
      </cc:Work>
    </rdf:RDF>
  </metadata>
  <defs
     id="defs6" />
  <sodipodi:namedview
     pagecolor="#ffffff"
     bordercolor="#666666"
     borderopacity="1"
     objecttolerance="10"
     gridtolerance="10"
     guidetolerance="10"
     inkscape:pageopacity="0"
     inkscape:pageshadow="2"
     inkscape:window-width="1920"
     inkscape:window-height="1052"
     id="namedview4"
     showgrid="false"
     fit-margin-top="0"
     fit-margin-left="0"
     fit-margin-right="0"
     fit-margin-bottom="0"
     inkscape:zoom="6.8530022"
     inkscape:cx="56.265664"
     inkscape:cy="-12.932169"
     inkscape:window-x="0"
     inkscape:window-y="0"
     inkscape:window-maximized="1"
     inkscape:current-layer="g10" />
  <g
     inkscape:groupmode="layer"
     inkscape:label="Image"
     id="g10"
     transform="translate(-40.480256,-44.732168)">
    <path
       style="fill:#000000;stroke-width:0.08"
       d="m 45.171073,97.236423 c -0.148052,-0.06321 -0.365301,-0.114929 -0.482776,-0.114929 -0.200444,0 -0.529954,-0.218486 -0.919262,-0.609528 -0.09283,-0.09324 -0.293595,-0.196818 -0.446151,-0.230173 -0.394583,-0.08627 -0.562626,-0.211577 -0.562626,-0.419543 0,-0.100821 -0.04908,-0.180756 -0.110995,-0.180756 -0.06105,0 -0.196047,-0.107673 -0.3,-0.239274 -0.103953,-0.1316 -0.225345,-0.2396 -0.269761,-0.24 -0.121664,-0.0011 -0.28277,-0.298451 -0.232573,-0.429263 0.05002,-0.130359 -0.270555,-0.390866 -0.390087,-0.316991 -0.04254,0.02629 -0.06058,-0.0022 -0.04009,-0.06334 0.02049,-0.06112 -0.04684,-0.269497 -0.149621,-0.463051 -0.102781,-0.19355 -0.186875,-0.416855 -0.186875,-0.496232 0,-0.232074 -0.176373,-0.577485 -0.396145,-0.775815 l -0.203855,-0.183967 0.2,0.04439 0.2,0.04439 -0.183302,-0.09412 c -0.108064,-0.05549 -0.165422,-0.14072 -0.139741,-0.207645 0.02396,-0.06244 0.01777,-0.15525 -0.01375,-0.206253 -0.07379,-0.119389 -0.03161,-0.550126 0.06353,-0.648829 0.09395,-0.09746 0.09472,-0.20996 0.0013,-0.184 -0.202665,0.0563 0.0093,-0.531336 0.287148,-0.79618 0.101669,-0.0969 0.18599,-0.204899 0.18738,-0.24 0.0061,-0.153677 0.406293,-0.50382 0.575856,-0.50382 0.102332,0 0.247706,-0.072 0.323054,-0.16 0.07535,-0.088 0.117929,-0.16 0.09463,-0.16 -0.0233,0 0.0035,-0.0491 0.05955,-0.109111 0.08584,-0.0919 0.154396,-0.08662 0.43449,0.03344 0.268365,0.115035 0.399556,0.127502 0.679591,0.06458 0.190865,-0.04288 0.414228,-0.0604 0.496363,-0.03892 0.08326,0.02177 0.317977,-0.06471 0.530486,-0.195472 0.209632,-0.128988 0.438043,-0.234524 0.50758,-0.234524 0.06954,0 0.14868,-0.036 0.175873,-0.08 0.02719,-0.044 0.15864,-0.08 0.292104,-0.08 0.133463,0 0.33299,-0.07105 0.443395,-0.157897 0.110404,-0.08684 0.332081,-0.180884 0.492618,-0.208979 0.160536,-0.0281 0.370783,-0.100495 0.467215,-0.160888 0.250956,-0.157168 0.8314,-0.349707 1.05837,-0.351072 0.106534,-6.4e-4 0.250534,-0.05126 0.32,-0.112489 0.06946,-0.06123 0.450298,-0.245159 0.846299,-0.408735 0.396,-0.163575 0.773999,-0.328345 0.84,-0.366156 0.335513,-0.192214 1.767449,-0.873783 1.835768,-0.873783 0.122887,0 0.644232,-0.263097 0.644232,-0.325112 0,-0.08504 0.460263,-0.256529 0.546107,-0.203475 0.04167,0.02575 0.123086,-0.01019 0.180924,-0.07989 0.127334,-0.153428 1.227844,-0.671528 1.426412,-0.671528 0.07797,0 0.206918,-0.072 0.286556,-0.16 0.07964,-0.088 0.213585,-0.16 0.297658,-0.16 0.20065,0 0.440759,-0.129955 0.772188,-0.417934 0.196737,-0.170944 0.320928,-0.221649 0.458386,-0.187149 0.14328,0.03596 0.239798,-0.01021 0.40207,-0.192332 0.162047,-0.181869 0.258881,-0.22827 0.401615,-0.192446 0.103445,0.02596 0.188083,0.01131 0.188083,-0.03256 0,-0.04387 0.126142,-0.103434 0.280316,-0.132357 0.154174,-0.02892 0.350015,-0.127401 0.435202,-0.218839 0.08519,-0.09144 0.27123,-0.179797 0.413427,-0.196353 0.142197,-0.01656 0.315356,-0.07983 0.384797,-0.140603 0.06944,-0.06077 0.207258,-0.135184 0.306258,-0.165353 0.099,-0.03017 0.18,-0.086 0.18,-0.124071 0,-0.09288 0.318338,-0.194593 0.53258,-0.170169 0.106352,0.01212 0.275205,-0.08193 0.44,-0.245079 0.302013,-0.299 0.624788,-0.464752 0.90503,-0.464752 0.104545,0 0.298082,-0.108 0.430082,-0.24 0.196283,-0.196284 0.306254,-0.24 0.603721,-0.24 0.215432,0 0.479861,-0.06523 0.648587,-0.16 0.156677,-0.088 0.350917,-0.16 0.431645,-0.16 0.08073,0 0.232633,-0.06622 0.337566,-0.147159 0.256266,-0.197661 1.033672,-0.547274 1.670789,-0.751381 0.308886,-0.09895 0.633676,-0.27208 0.8,-0.426429 0.221957,-0.205976 0.41267,-0.287162 0.92,-0.391642 0.352,-0.07249 0.702511,-0.165908 0.778914,-0.207595 0.0764,-0.04169 0.203403,-0.07579 0.282221,-0.07579 0.07882,0 0.207891,-0.07543 0.286828,-0.167621 0.242176,-0.282841 1.222837,-0.679354 1.850625,-0.748268 0.102334,-0.01123 0.281765,-0.0957 0.398736,-0.187713 0.11697,-0.09201 0.345424,-0.20989 0.507674,-0.261958 0.162252,-0.05207 0.349002,-0.139923 0.415002,-0.195234 0.184297,-0.154448 0.77871,-0.439206 0.916813,-0.439206 0.06775,0 0.123187,-0.03129 0.123187,-0.06953 0,-0.03824 0.127379,-0.0902 0.283066,-0.115467 0.155685,-0.02526 0.39246,-0.137986 0.526165,-0.250491 0.133705,-0.112506 0.339326,-0.227184 0.456935,-0.254842 0.273977,-0.06443 0.813833,-0.359219 0.813833,-0.444396 0,-0.0359 0.100388,-0.06527 0.223085,-0.06527 0.122697,0 0.364308,-0.072 0.536915,-0.16 0.172607,-0.088 0.361349,-0.16 0.419426,-0.16 0.05808,0 0.126317,-0.054 0.151644,-0.12 0.02533,-0.066 0.128795,-0.12 0.229929,-0.12 0.101135,0 0.322283,-0.06949 0.491441,-0.154429 0.169158,-0.08494 0.475938,-0.214826 0.681733,-0.288643 0.255978,-0.09182 0.360674,-0.16939 0.331441,-0.245571 -0.04633,-0.120737 -0.04001,-0.12338 0.374386,-0.156562 0.352358,-0.02821 0.802263,-0.165274 1.335046,-0.406712 0.228276,-0.103446 0.525276,-0.188083 0.66,-0.188083 0.138288,0 0.314627,-0.06967 0.404954,-0.16 0.088,-0.088 0.210454,-0.16 0.27212,-0.16 0.06167,0 0.520666,-0.164745 1.02,-0.3661 1.191499,-0.480469 1.512842,-0.591332 1.718085,-0.592736 0.09361,-6.4e-4 0.21502,-0.05516 0.269795,-0.121164 0.05477,-0.066 0.178302,-0.12 0.274506,-0.12 0.0962,0 0.244794,-0.05285 0.330204,-0.117456 0.08541,-0.0646 0.231882,-0.1186 0.325495,-0.12 0.09361,-0.0014 0.211942,-0.05284 0.262955,-0.114302 0.09558,-0.115168 0.782226,-0.368242 0.999122,-0.368242 0.06722,0 0.438456,-0.15876 0.824968,-0.352799 0.841324,-0.422367 1.20108,-0.516757 1.271375,-0.333572 0.02667,0.0695 0.134641,0.126371 0.239934,0.126371 0.212114,0 0.259172,0.13903 0.07144,0.21107 -0.191223,0.07338 -0.13903,0.18893 0.08534,0.18893 0.23272,0 0.747013,-0.3574 0.724793,-0.503683 -0.008,-0.05297 -0.0414,-0.139139 -0.07411,-0.191476 -0.08947,-0.143133 0.339018,-0.497947 0.663126,-0.549111 0.154469,-0.02439 0.334853,-0.07863 0.400853,-0.120542 0.25341,-0.160929 0.346081,-0.177388 0.490598,-0.08714 0.124753,0.07791 0.149402,0.06993 0.149402,-0.04839 0,-0.218492 0.372186,-0.448121 0.90123,-0.556036 0.263896,-0.05383 0.543337,-0.155364 0.620981,-0.225632 0.09534,-0.08628 0.254262,-0.11968 0.48948,-0.102878 0.19157,0.01368 0.360859,-0.01112 0.376198,-0.05512 0.08343,-0.239315 0.194374,-0.36 0.33095,-0.36 0.08427,0 0.181999,-0.04694 0.217186,-0.104316 0.12304,-0.200626 0.648685,-0.385802 0.940006,-0.33115 0.228982,0.04296 0.307957,0.0181 0.460194,-0.144864 0.101077,-0.108197 0.300775,-0.256809 0.443775,-0.33025 0.143,-0.07344 0.26,-0.168604 0.26,-0.211474 0,-0.102681 0.376356,-0.100924 0.44,0.0021 0.09115,0.147486 0.310271,0.08205 0.570801,-0.170468 0.321528,-0.311638 0.983817,-0.545759 1.389814,-0.491303 0.238255,0.03196 0.337847,0.0033 0.478912,-0.137756 0.14538,-0.14538 0.234391,-0.169103 0.484459,-0.129115 0.168496,0.02694 0.327249,0.01518 0.352784,-0.02613 0.08455,-0.136806 0.909236,-0.485229 1.148486,-0.485229 0.12934,0 0.27997,-0.054 0.33475,-0.12 0.0548,-0.066 0.18445,-0.12 0.28818,-0.12 0.27332,0 0.83182,-0.240244 0.83182,-0.357817 0,-0.103778 0.58358,-0.362183 0.81795,-0.362183 0.0729,0 0.15207,-0.03149 0.17585,-0.06997 0.0238,-0.03848 0.23291,-0.09216 0.46472,-0.119278 0.90494,-0.105865 1.07782,-0.160471 1.6,-0.505374 0.61293,-0.404847 0.80475,-0.471771 1.42148,-0.495941 0.62255,-0.0244 1.41617,-0.221575 1.69717,-0.421666 0.13161,-0.09371 0.47858,-0.234586 0.77106,-0.313055 0.29247,-0.07847 0.63977,-0.178232 0.77177,-0.221692 0.132,-0.04346 0.465,-0.142984 0.74,-0.221162 0.275,-0.07818 0.5,-0.171328 0.5,-0.207001 0,-0.03567 0.0879,-0.06486 0.19528,-0.06486 0.1074,0 0.21624,-0.03392 0.24186,-0.07538 0.0256,-0.04146 0.21675,-0.09793 0.42472,-0.125486 0.20798,-0.02756 0.45014,-0.08266 0.53814,-0.122457 0.32474,-0.146839 0.88511,-0.314385 1.05528,-0.315516 0.0964,-6.4e-4 0.19698,-0.03628 0.22351,-0.07921 0.0265,-0.04293 0.44944,-0.203699 0.93981,-0.357275 0.67154,-0.210318 0.91804,-0.257261 0.99883,-0.190213 0.0812,0.0674 0.15039,0.05066 0.28491,-0.06895 0.0977,-0.08688 0.29103,-0.164463 0.42959,-0.172398 0.21568,-0.01235 0.26676,0.0231 0.35479,0.246228 0.0566,0.143361 0.1172,0.287657 0.13473,0.320657 0.0175,0.033 -0.0431,0.06 -0.1348,0.06 -0.18748,0 -0.21318,0.08148 -0.0707,0.224 0.12375,0.123754 0.48425,0.123754 0.60801,0 0.13306,-0.133054 0.1205,-0.517477 -0.0186,-0.570869 -0.0934,-0.03583 -0.0971,-0.08182 -0.02,-0.247936 0.0729,-0.157093 0.15436,-0.20409 0.35463,-0.204571 0.17276,-4e-4 0.26001,-0.03931 0.26001,-0.115902 0,-0.14545 0.16101,-0.250355 0.22895,-0.14916 0.0554,0.08252 0.57528,0.114371 0.88088,0.05397 0.17657,-0.0349 0.17992,-0.04476 0.0479,-0.141315 -0.17512,-0.128043 -0.10476,-0.172306 0.38728,-0.243677 0.25075,-0.03637 0.42365,-0.02378 0.49582,0.03612 0.18451,0.153134 0.59918,0.188292 0.59918,0.0508 0,-0.06498 -0.0381,-0.130824 -0.0846,-0.14633 -0.18088,-0.0603 0.0399,-0.310658 0.45162,-0.51209 0.32439,-0.158709 0.49877,-0.198511 0.70238,-0.160315 0.25048,0.04699 0.46884,-0.0049 0.77058,-0.183273 0.42935,-0.253745 1.1597,-0.475615 1.54637,-0.46977 0.2891,0.0044 0.41593,-0.03492 0.53897,-0.166989 0.11187,-0.120078 0.25624,-0.172704 0.4738,-0.172704 0.20696,0 0.3378,-0.04447 0.3864,-0.131329 0.0554,-0.09896 0.1303,-0.116773 0.30397,-0.07226 0.42491,0.1089 1.15484,0.03275 1.37829,-0.143784 0.0593,-0.04684 0.18084,-0.09632 0.2701,-0.109938 0.0893,-0.01362 0.28118,-0.08118 0.42647,-0.150132 0.19788,-0.0939 0.40274,-0.113546 0.81624,-0.07828 0.64373,0.05491 0.99961,-0.07593 1.20931,-0.444586 0.0914,-0.160763 0.19287,-0.228834 0.34151,-0.22919 0.1163,-2.4e-4 0.23216,-0.05451 0.25749,-0.120506 0.0302,-0.0788 0.15516,-0.12 0.36384,-0.12 0.17478,0 0.33959,-0.03527 0.36623,-0.07838 0.0286,-0.04624 0.2427,-0.05808 0.52206,-0.02888 0.46731,0.04884 0.47552,0.04616 0.61628,-0.201111 0.14091,-0.247554 0.26266,-0.32711 0.26266,-0.17165 0,0.113872 0.34765,0.0992 0.474,-0.02 0.0848,-0.08 0.11333,-0.08 0.14266,0 0.0583,0.158881 0.32052,0.115951 0.36651,-0.06 0.0343,-0.13112 0.10913,-0.16 0.41461,-0.16 0.42661,0 0.68223,-0.10917 0.68223,-0.291373 0,-0.08179 0.0442,-0.108773 0.12654,-0.07719 0.0696,0.02671 0.2136,0.04856 0.32,0.04856 0.11862,0 0.19345,0.04642 0.19345,0.12 0,0.066 0.054,0.12 0.12,0.12 0.066,0 0.12,-0.05513 0.12,-0.12251 0,-0.06738 0.0538,-0.143154 0.11955,-0.168383 0.0657,-0.02523 0.10214,-0.07402 0.0809,-0.108425 -0.0939,-0.151914 0.2561,-0.27233 0.8879,-0.305492 0.56936,-0.02988 0.7016,-0.01291 0.83415,0.107047 0.0873,0.07896 0.15753,0.102021 0.15753,0.05169 0,-0.04998 0.0932,-0.114275 0.20718,-0.142874 0.11395,-0.0286 0.29526,-0.13363 0.40292,-0.2334 0.10765,-0.09977 0.32942,-0.201216 0.4928,-0.225435 2.0909,-0.309921 3.12087,-0.438962 3.2331,-0.405058 0.0748,0.0226 0.24402,-0.01477 0.37602,-0.08303 0.13201,-0.06827 0.41977,-0.124122 0.63947,-0.124122 0.31856,0 0.42393,-0.03497 0.52043,-0.172739 0.10343,-0.147673 0.13968,-0.157225 0.2498,-0.06583 0.10283,0.08535 0.18154,0.08783 0.3904,0.01231 0.21492,-0.07772 0.30666,-0.0721 0.51426,0.03146 0.13898,0.06933 0.33389,0.111307 0.43315,0.09329 0.16382,-0.02974 0.15648,-0.04205 -0.0795,-0.133451 -0.38594,-0.149458 -0.32558,-0.294982 0.1455,-0.350774 0.22301,-0.02641 0.51655,-0.103428 0.65228,-0.171143 0.13574,-0.06771 0.36964,-0.123118 0.51977,-0.123118 0.15012,0 0.3426,-0.03727 0.4277,-0.08282 0.10866,-0.05815 0.20517,-0.05583 0.32409,0.0078 0.1364,0.073 0.19474,0.0641 0.3,-0.04577 0.12174,-0.127089 0.11838,-0.132713 -0.0493,-0.08242 -0.10795,0.03237 -0.18,0.0198 -0.18,-0.03141 0,-0.08263 0.37801,-0.126294 0.81045,-0.09362 0.11574,0.0087 0.25974,-0.03336 0.32,-0.09356 0.0602,-0.0602 0.34079,-0.160742 0.62341,-0.223416 0.28263,-0.06267 0.55263,-0.150144 0.6,-0.194376 0.0474,-0.04423 0.37414,-0.08341 0.72614,-0.08705 1.01361,-0.0105 1.81981,-0.154903 1.94976,-0.349224 0.12814,-0.191633 0.32581,-0.217281 0.34023,-0.04415 0.0157,0.188782 0.0282,0.233378 0.0949,0.338346 0.0344,0.05409 0.0248,0.168724 -0.0212,0.254741 -0.12201,0.227977 -0.10597,0.255547 0.11629,0.199764 0.23109,-0.058 0.27304,0.07833 0.0607,0.197174 -0.22564,0.126274 -0.0549,0.193688 0.2422,0.09563 0.1614,-0.05326 0.31167,-0.173913 0.36649,-0.29423 0.0808,-0.177356 0.0693,-0.223639 -0.0882,-0.355024 -0.0996,-0.0831 -0.28314,-0.152279 -0.4078,-0.153743 -0.41375,-0.0049 -0.18772,-0.2011 0.26161,-0.227143 0.32883,-0.01906 0.43082,-0.05676 0.46049,-0.170249 0.0561,-0.214432 0.3928,-0.347896 0.59913,-0.237472 0.18965,0.101497 0.57721,-0.05165 0.48957,-0.19345 -0.0324,-0.05239 0.004,-0.05833 0.10274,-0.01663 0.2776,0.117677 0.60342,0.143608 0.77963,0.06205 0.15737,-0.07284 0.81055,-0.226897 1.21349,-0.286208 0.80512,-0.11851 1.13218,-0.287226 0.58,-0.299197 l -0.26,-0.0056 0.31806,-0.11643 c 0.17495,-0.06404 0.35315,-0.1515 0.396,-0.194363 0.0429,-0.04286 0.14715,-0.07793 0.23173,-0.07793 0.13095,0 0.13825,0.01874 0.0491,0.126097 -0.0867,0.104504 -0.085,0.138543 0.0102,0.198775 0.13551,0.08574 0.66375,0.09958 0.74384,0.01948 0.0966,-0.09659 0.67874,-0.182566 1.225,-0.180917 0.13969,4e-4 0.27472,-0.0328 0.30008,-0.07382 0.0254,-0.04102 0.11013,-0.05785 0.1884,-0.03738 0.0783,0.02046 0.24923,-0.0075 0.37992,-0.06206 0.26224,-0.109552 0.31582,-0.121744 0.83762,-0.190586 0.35093,-0.0463 0.87012,-0.178517 1.6,-0.407458 0.198,-0.06211 0.58243,-0.112743 0.85429,-0.112525 0.34212,2.4e-4 0.5328,-0.03812 0.61941,-0.124732 0.0688,-0.06882 0.20639,-0.11382 0.30572,-0.1 0.11619,0.01617 0.17281,-0.01244 0.1588,-0.08023 -0.0153,-0.07395 0.0562,-0.0978 0.24,-0.08 0.21237,0.02057 0.25734,-0.0011 0.23828,-0.114643 -0.0267,-0.159089 0.11176,-0.192628 0.16515,-0.04 0.0253,0.07226 0.0816,0.05862 0.2031,-0.04917 0.16882,-0.149786 0.24611,-0.150302 0.9499,-0.0063 0.17214,0.03521 0.31221,0.01176 0.43237,-0.0724 0.12208,-0.08552 0.22079,-0.101441 0.31532,-0.05085 0.0844,0.04517 0.31929,0.04351 0.60763,-0.0043 0.25852,-0.04287 0.56458,-0.05783 0.68014,-0.03326 0.1336,0.02841 0.25533,-5.6e-4 0.33429,-0.0795 0.07,-0.06998 0.26098,-0.124182 0.4376,-0.124182 0.17239,0 0.42829,-0.0573 0.56868,-0.127337 0.18311,-0.09135 0.28411,-0.103387 0.35735,-0.04261 0.10841,0.08998 0.66836,0.03288 0.735,-0.07495 0.0215,-0.03483 0.14301,-0.03353 0.26996,0.0029 0.14868,0.04264 0.2627,0.03433 0.32038,-0.02335 0.0529,-0.05293 0.32286,-0.08251 0.6602,-0.07235 0.31386,0.0095 0.61668,-0.021 0.67294,-0.06768 0.0563,-0.04669 0.37231,-0.09005 0.70234,-0.09636 0.33003,-0.0063 0.58228,-0.04026 0.56054,-0.07543 -0.0217,-0.03517 0.0204,-0.08694 0.0936,-0.115042 0.0739,-0.02834 0.16185,-0.0047 0.19762,0.05322 0.052,0.08406 0.11962,0.07814 0.34852,-0.03048 0.15624,-0.07414 0.30572,-0.169832 0.33218,-0.212654 0.0604,-0.09768 0.38126,-0.101814 0.48268,-0.0062 0.1174,0.110667 0.44173,-0.04364 0.38769,-0.184453 -0.0389,-0.101273 0.0594,-0.113814 0.66133,-0.08438 0.38884,0.01902 0.85098,0.0314 1.02698,0.02753 0.176,-0.0039 0.878,-0.01705 1.56,-0.02928 0.682,-0.01223 1.28407,-0.02647 1.33794,-0.03164 0.0539,-0.0052 0.1538,-0.117416 0.22206,-0.249416 0.1,-0.193279 0.17562,-0.24 0.38872,-0.24 0.14554,0 0.29014,0.02553 0.32135,0.05674 0.0805,0.0805 0.71035,0.02486 0.82925,-0.07325 0.0546,-0.04507 0.27962,-0.07447 0.5,-0.06534 0.70676,0.02931 0.91102,0.02352 1.40068,-0.03967 0.264,-0.03407 0.55101,-0.110665 0.6378,-0.170215 0.20683,-0.141913 0.36357,-0.13698 0.47466,0.01494 0.081,0.11079 0.11575,0.110407 0.34468,-0.0038 0.33728,-0.168254 0.44116,-0.184764 1.46707,-0.233167 0.75374,-0.03556 0.87579,-0.02412 0.87579,0.08208 0,0.07521 0.0547,0.112105 0.14,0.09447 0.077,-0.01591 0.13495,-0.09086 0.12878,-0.166545 -0.0123,-0.151103 0.13114,-0.199699 0.69122,-0.234127 0.27115,-0.01667 0.35426,0.005 0.33673,0.08769 -0.0146,0.06902 0.0216,0.09261 0.0974,0.06349 0.0664,-0.02548 0.14198,-0.01189 0.16799,0.03019 0.0766,0.123899 0.27758,0.08832 0.50307,-0.08905 0.15866,-0.124799 0.27587,-0.153286 0.47611,-0.115719 0.35047,0.06575 0.60428,-0.01656 0.54307,-0.176093 -0.0552,-0.143947 0.0871,-0.342633 0.24538,-0.342633 0.0606,0 0.11021,0.05317 0.11021,0.118156 0,0.06499 0.0891,0.176506 0.1979,0.247823 0.18556,0.121587 0.21482,0.119209 0.46944,-0.03816 0.29136,-0.18007 0.41004,-0.213037 0.33608,-0.09335 -0.0253,0.04096 -0.009,0.09728 0.036,0.125164 0.1213,0.07497 0.40059,-0.03404 0.40059,-0.156354 0,-0.175516 0.40089,-0.232647 0.51712,-0.0737 0.0943,0.12899 0.10452,0.129013 0.17649,4.16e-4 0.10547,-0.188462 0.36827,-0.08497 0.30338,0.119475 -0.0655,0.206437 0.19716,0.201083 0.46484,-0.0095 0.11187,-0.088 0.2991,-0.16 0.41605,-0.16 0.11695,0 0.28227,-0.03727 0.36738,-0.08282 0.12872,-0.06889 0.15474,-0.05623 0.15474,0.07528 0,0.08695 0.0284,0.175675 0.0632,0.197164 0.0348,0.02149 0.43977,-0.02434 0.9,-0.101837 0.48206,-0.08118 1.05992,-0.126067 1.36315,-0.105898 0.42117,0.02801 0.59605,0.0013 0.87503,-0.133442 0.38666,-0.186818 0.53181,-0.208835 0.57247,-0.08684 0.0396,0.118911 1.47034,-0.07737 2.18613,-0.29992 0.28062,-0.08725 2.33485,-0.07602 2.53967,0.01388 0.0768,0.03372 0.29283,0.03509 0.48,0.0031 0.47899,-0.08197 3.42503,-0.09117 4.62033,-0.01442 0.55,0.03531 1.4525,0.07604 2.00554,0.09051 0.55305,0.01447 1.18643,0.05118 1.4075,0.08158 0.71794,0.09874 2.06509,-0.225013 2.41856,-0.58124 0.17539,-0.176756 0.23293,-0.18856 0.68,-0.139501 0.60974,0.06691 1.1504,0.319498 1.31922,0.616319 0.0829,0.145667 0.19507,0.227299 0.3129,0.227623 0.12027,3.28e-4 0.23078,0.08346 0.32,0.240712 0.075,0.132113 0.1992,0.260513 0.2761,0.285332 0.0769,0.02482 0.1618,0.132727 0.18867,0.239794 0.0269,0.107068 0.0828,0.194668 0.12434,0.194668 0.0415,0 0.11315,0.108 0.15915,0.24 0.046,0.132 0.13252,0.24 0.19221,0.24 0.17903,0 0.52743,0.404835 0.54211,0.629936 0.0128,0.195952 0.11167,0.312655 0.87899,1.037302 0.20292,0.191632 0.2221,0.254811 0.19314,0.63616 -0.0177,0.232868 -0.002,0.44217 0.0353,0.465115 0.0371,0.02294 0.046,0.138415 0.0198,0.256603 -0.1339,0.603178 -0.16794,0.951712 -0.10829,1.108688 0.0463,0.121887 0.0294,0.204181 -0.0565,0.275503 -0.0674,0.05593 -0.19685,0.259797 -0.28768,0.453025 -0.0908,0.193229 -0.23173,0.392912 -0.31312,0.443741 -0.0814,0.05083 -0.14798,0.132909 -0.14798,0.182401 0,0.04949 -0.15037,0.274834 -0.33414,0.500757 -0.22826,0.280596 -0.39305,0.410769 -0.52,0.410769 -0.11188,0 -0.18586,0.04777 -0.18586,0.12 0,0.142428 -0.008,0.143481 -0.28452,0.03828 -0.12498,-0.04752 -0.25272,-0.05234 -0.30521,-0.01152 -0.16966,0.131952 -0.75777,0.03072 -1.29436,-0.222808 -0.29488,-0.139321 -0.58641,-0.234024 -0.64784,-0.210449 -0.0614,0.02357 -0.18289,-0.02832 -0.26989,-0.115322 -0.087,-0.087 -0.26405,-0.158186 -0.39346,-0.158186 -0.1294,0 -0.2542,-0.03062 -0.27733,-0.06804 -0.0231,-0.03743 -0.42637,-0.09289 -0.89607,-0.123259 -0.46971,-0.03037 -0.91191,-0.08605 -0.98266,-0.123748 -0.0708,-0.03769 -0.6117,-0.09184 -1.20209,-0.12032 -0.59039,-0.02848 -1.10103,-0.06884 -1.13476,-0.08969 -0.13164,-0.08136 -0.95033,-0.102055 -0.99781,-0.02523 -0.0309,0.04995 -0.10358,0.03212 -0.19075,-0.04677 -0.11671,-0.105618 -0.18053,-0.111274 -0.37206,-0.03297 -0.23505,0.09609 -3.2022,0.106267 -3.9003,0.01337 -0.18199,-0.02422 -0.51089,-0.04173 -0.73089,-0.03893 -0.79881,0.01018 -3.0582,0.08471 -3.8,0.125348 -0.418,0.0229 -1.44391,0.06341 -2.27981,0.09004 -0.83589,0.02662 -1.66573,0.08111 -1.84409,0.121078 -0.17836,0.03997 -0.87735,0.06033 -1.55332,0.04525 -0.67597,-0.01508 -1.33573,0.0032 -1.46612,0.04057 -0.13584,0.03896 -0.29517,0.03691 -0.37308,-0.0048 -0.191,-0.102219 -2.95587,0.192356 -3.7151,0.395816 -0.42562,0.114059 -0.81862,0.158813 -1.30842,0.149001 -0.38503,-0.0077 -1.16806,0.01553 -1.74006,0.05166 -1.23843,0.07822 -1.40402,0.0821 -1.55636,0.03646 -0.0647,-0.01938 -0.11798,0.01828 -0.12,0.0848 -0.006,0.186518 -0.55583,0.322972 -1.46816,0.364138 -0.45814,0.02067 -0.86662,0.05837 -0.90774,0.08379 -0.0411,0.02541 -0.12083,0.008 -0.17715,-0.03879 -0.0724,-0.06009 -0.24127,-0.05835 -0.57649,0.006 -0.26076,0.05003 -0.63036,0.09547 -0.82134,0.100979 -0.2372,0.0068 -0.37155,0.05348 -0.42398,0.147144 -0.0476,0.08504 -0.17418,0.137121 -0.33328,0.137121 -0.14111,0 -0.38232,0.03849 -0.53603,0.08554 -0.15371,0.04704 -0.76547,0.105003 -1.35947,0.128797 -2.32225,0.09302 -2.16,0.07707 -2.16,0.212333 0,0.07693 -0.13262,0.106667 -0.47574,0.106667 -0.26165,0 -0.52265,0.03693 -0.58,0.08208 -0.1633,0.128556 -0.61122,0.19041 -0.67158,0.09274 -0.0324,-0.05249 -0.19913,-0.06993 -0.4231,-0.04428 -0.27584,0.03159 -0.40805,0.0086 -0.52127,-0.09077 -0.10711,-0.09398 -0.16153,-0.105032 -0.18517,-0.0376 -0.0184,0.05253 -0.16222,0.137991 -0.31957,0.189923 -0.24484,0.0808 -0.29659,0.07568 -0.35881,-0.0355 -0.10077,-0.180054 -0.30476,-0.163082 -0.30476,0.02536 0,0.0854 -0.027,0.171805 -0.06,0.192003 -0.033,0.0202 -0.41828,0.05933 -0.85618,0.08697 -0.55258,0.03487 -0.83844,0.08848 -0.93427,0.175207 -0.0947,0.08574 -0.19639,0.105361 -0.32381,0.06252 -0.24336,-0.08182 -1.21248,-0.03695 -1.27213,0.0589 -0.0544,0.08735 -0.31361,0.0052 -0.31361,-0.09944 0,-0.03929 -0.054,-0.07144 -0.12,-0.07144 -0.066,0 -0.12,0.054 -0.12,0.12 0,0.08755 -0.0905,0.12 -0.33474,0.12 -0.18411,0 -0.49258,0.07641 -0.6855,0.169797 -0.24786,0.119986 -0.44153,0.15762 -0.66021,0.128289 -0.17021,-0.02283 -0.33294,-0.01824 -0.36164,0.0102 -0.0287,0.02844 -0.20197,0.05485 -0.38505,0.0587 -0.18307,0.0038 -0.44086,0.04581 -0.57286,0.09326 -0.56246,0.202185 -0.83538,0.259755 -1.23139,0.259755 -0.2667,0 -0.46384,0.04381 -0.54004,0.12 -0.12931,0.129315 -0.46809,0.168663 -0.39199,0.04553 0.09,-0.145614 -0.0949,-0.157634 -0.24686,-0.01605 -0.085,0.07917 -0.33343,0.167682 -0.55211,0.196692 -0.21869,0.02901 -0.35139,0.02311 -0.2949,-0.01311 0.14402,-0.09234 0.0322,-0.333063 -0.15477,-0.333063 -0.10147,0 -0.14684,0.04671 -0.13144,0.135329 0.0164,0.09449 -0.11707,0.207846 -0.44229,0.375626 -0.3995,0.206096 -0.48883,0.22591 -0.62767,0.139208 -0.13374,-0.08352 -0.18539,-0.07981 -0.2972,0.02138 -0.0943,0.0853 -0.36508,0.133174 -0.89233,0.157733 -0.41635,0.01939 -0.82491,0.06247 -0.90788,0.09572 -0.083,0.03325 -0.20899,0.02317 -0.28,-0.02241 -0.0958,-0.06146 -0.21181,-0.03985 -0.44913,0.08365 -0.176,0.09159 -0.338,0.171262 -0.36,0.177051 -0.0618,0.01625 -0.33852,0.120909 -0.56,0.211773 -0.45655,0.187302 -1.1186,0.322843 -1.72,0.352134 -1.01687,0.04952 -1.79468,0.193584 -1.74495,0.323178 0.0453,0.118015 0.0198,0.124946 -0.55375,0.150792 -0.20828,0.0094 -0.42556,0.05596 -0.48284,0.103499 -0.0573,0.04754 -0.34097,0.09896 -0.63041,0.114264 -0.36067,0.01907 -0.56924,0.07082 -0.66287,0.164448 -0.0751,0.07514 -0.21505,0.140164 -0.3109,0.1445 -0.0959,0.0043 -0.26429,0.01334 -0.37429,0.02 -0.11,0.0067 -0.24757,-0.03288 -0.30571,-0.08788 -0.16211,-0.15334 -0.27792,-0.118999 -0.22904,0.06791 0.0361,0.137923 0.0149,0.160323 -0.1186,0.125417 -0.0894,-0.02337 -0.29753,0.02788 -0.46255,0.113895 -0.16503,0.08602 -0.51246,0.170024 -0.77208,0.186684 -0.2596,0.01666 -0.69707,0.07706 -0.97213,0.134222 -0.40654,0.08448 -0.55292,0.08484 -0.78231,0.0019 -0.25739,-0.09307 -0.29429,-0.08724 -0.41988,0.06632 -0.109,0.133271 -0.25264,0.175801 -0.68924,0.204063 -0.3169,0.02051 -0.6062,0.08423 -0.68,0.149761 -0.22916,0.203474 -0.76098,0.320883 -0.96322,0.212647 -0.14472,-0.07746 -0.19598,-0.07292 -0.2718,0.02406 -0.0514,0.06573 -0.30944,0.162478 -0.57344,0.214994 -0.264,0.05252 -0.52257,0.129973 -0.5746,0.172127 -0.11889,0.09632 -0.92122,0.21637 -1.7054,0.255173 -0.61002,0.03018 -0.87704,0.114192 -1.33744,0.420782 -0.18029,0.120059 -0.49635,0.200702 -1.05464,0.269092 -0.56345,0.06902 -0.81056,0.13245 -0.84274,0.216315 -0.0344,0.08955 -0.12015,0.106053 -0.34966,0.06728 -0.18572,-0.03138 -0.44262,-0.0064 -0.65982,0.06422 -0.59578,0.193631 -0.7921,0.220711 -0.95768,0.132098 -0.19849,-0.106233 -0.78553,0.0354 -0.8507,0.20525 -0.0244,0.06369 -0.12932,0.115808 -0.23307,0.115808 -0.10476,0 -0.22552,0.06896 -0.27163,0.155091 -0.0717,0.133879 -0.17265,0.155289 -0.73847,0.156532 -0.53315,0.0012 -0.69673,0.03195 -0.87657,0.164909 -0.12161,0.08991 -0.33056,0.163468 -0.46434,0.163468 -0.1361,0 -0.31331,0.07006 -0.40231,0.159067 -0.12485,0.124853 -0.24973,0.154972 -0.58058,0.140027 -0.32014,-0.01446 -0.52722,0.03211 -0.86094,0.193624 -0.24168,0.116966 -0.61895,0.254098 -0.83838,0.304738 -0.21942,0.05064 -0.45625,0.143931 -0.52629,0.207309 -0.0813,0.07358 -0.30226,0.115235 -0.61125,0.115235 -0.33528,0 -0.51487,0.03733 -0.58476,0.121546 -0.0717,0.0864 -0.17863,0.10696 -0.3698,0.0711 -0.17417,-0.03267 -0.26892,-0.01913 -0.26892,0.03845 0,0.119746 -0.26379,0.113116 -0.38663,-0.0097 -0.0782,-0.07816 -0.10784,-0.06334 -0.14308,0.07142 -0.0479,0.183036 -0.30947,0.267204 -0.8305,0.267204 -0.16925,0 -0.34364,0.05234 -0.39979,0.12 -0.0548,0.066 -0.16031,0.12 -0.23451,0.12 -0.0742,0 -0.20479,0.05122 -0.2902,0.113818 -0.0888,0.06509 -0.24632,0.09569 -0.36792,0.07148 -0.1608,-0.03203 -0.2346,-0.0013 -0.30281,0.126181 -0.0496,0.09269 -0.15404,0.168525 -0.23209,0.168525 -0.078,0 -0.20999,0.0498 -0.29322,0.110658 -0.1119,0.08182 -0.1871,0.08833 -0.28855,0.02497 -0.14422,-0.09007 -0.41697,-0.0318 -1.2307,0.262937 -0.6234,0.225791 -1.32378,0.337892 -1.45107,0.232253 -0.15737,-0.130753 -0.50891,-0.01825 -0.50891,0.162754 0,0.182458 -0.36447,0.326302 -0.82679,0.326302 -0.22251,0 -0.3811,0.05468 -0.5101,0.175867 -0.15574,0.146316 -0.28809,0.177642 -0.78758,0.186428 -0.33021,0.0058 -0.63968,0.04985 -0.68771,0.09788 -0.048,0.04803 -0.13693,0.06828 -0.19757,0.04501 -0.0655,-0.02513 -0.11025,0.0099 -0.11025,0.08625 0,0.09338 -0.076,0.12856 -0.27767,0.12856 -0.17792,0 -0.40062,0.08548 -0.62,0.237972 -0.26849,0.18664 -0.46312,0.249012 -0.90233,0.289155 -0.3144,0.02874 -0.67604,0.117341 -0.82458,0.202029 -0.14551,0.08296 -0.37262,0.150844 -0.50469,0.150844 -0.14394,0 -0.35839,0.09308 -0.53542,0.23239 -0.16242,0.127818 -0.42131,0.257243 -0.57531,0.287616 -0.154,0.03037 -0.46,0.138671 -0.68,0.240665 -0.55929,0.259292 -0.96225,0.375334 -1.30334,0.375334 -0.16085,0 -0.36441,0.0504 -0.45236,0.112 -0.088,0.0616 -0.34732,0.112 -0.57639,0.112 -0.24569,0 -0.46137,0.04488 -0.52593,0.109446 -0.0602,0.06019 -0.19777,0.136452 -0.30571,0.169462 -0.10796,0.03301 -0.25433,0.11087 -0.3253,0.173024 -0.071,0.06215 -0.31503,0.135035 -0.54234,0.161958 -0.22732,0.02692 -0.43238,0.07981 -0.45569,0.11753 -0.0233,0.03772 -0.18758,0.06858 -0.36505,0.06858 -0.20152,0 -0.39902,0.06007 -0.52606,0.16 -0.11188,0.088 -0.28855,0.16 -0.39262,0.16 -0.19301,0 -0.25352,-0.110814 -0.10921,-0.2 0.1471,-0.09091 0.0821,-0.211434 -0.1,-0.185564 -0.14929,0.0212 -0.17575,0.06808 -0.1551,0.274773 0.0213,0.213169 -0.017,0.273906 -0.26458,0.42 -0.15921,0.09393 -0.38018,0.170791 -0.49105,0.170791 -0.11545,0 -0.30003,0.09845 -0.432,0.230417 -0.12673,0.126729 -0.33096,0.249691 -0.45384,0.273249 -0.12289,0.02356 -0.43408,0.117232 -0.69155,0.208164 -0.36923,0.130406 -0.53546,0.150197 -0.78694,0.09369 -0.25701,-0.05775 -0.34482,-0.04584 -0.45288,0.06142 -0.19076,0.18934 -0.95725,0.573056 -1.1447,0.573056 -0.17497,0 -0.48015,0.14231 -0.55683,0.259654 -0.0272,0.04164 -0.18921,0.0837 -0.36,0.09347 -0.17079,0.0098 -0.38918,0.06031 -0.485278,0.112322 -0.09611,0.05201 -0.350319,0.09456 -0.564915,0.09456 -0.262518,0 -0.440914,0.04655 -0.545259,0.142286 -0.211519,0.194061 -1.014628,0.577714 -1.209343,0.577714 -0.08707,0 -0.321092,0.107821 -0.520047,0.239604 -0.406726,0.269405 -0.817703,0.382769 -0.900714,0.248455 -0.08628,-0.1396 -0.287112,-0.106699 -0.231608,0.03794 0.03072,0.08005 0.0079,0.120356 -0.06251,0.110521 -0.267648,-0.03737 -0.388904,0.01755 -0.486496,0.220366 -0.102869,0.213777 -0.290113,0.294622 -0.921563,0.397897 -0.141458,0.02314 -0.298866,0.09227 -0.349795,0.15364 -0.05093,0.06137 -0.166635,0.111575 -0.257124,0.111575 -0.201724,0 -0.629522,0.133533 -1.055884,0.329585 -0.176,0.08093 -0.482,0.184896 -0.68,0.231037 -0.198,0.04614 -0.414,0.09761 -0.48,0.114369 -0.107234,0.02723 -0.686718,0.319398 -1.389795,0.700706 -0.137613,0.07463 -0.479707,0.211563 -0.760208,0.304288 -0.280502,0.09273 -0.562073,0.220663 -0.625715,0.284304 -0.06936,0.06936 -0.272228,0.115711 -0.506444,0.115711 -0.285903,0 -0.470604,0.0542 -0.688437,0.202028 -0.163738,0.111115 -0.389979,0.225187 -0.50276,0.253493 -0.112781,0.02831 -0.249459,0.09587 -0.303727,0.150136 -0.05427,0.05427 -0.226642,0.177761 -0.383051,0.274428 -0.231424,0.143028 -0.306688,0.157244 -0.404169,0.07634 -0.150772,-0.125128 -0.581443,0.07888 -0.9718,0.460338 -0.145928,0.1426 -0.414179,0.294986 -0.603324,0.342731 -0.187313,0.04728 -0.425306,0.12167 -0.528872,0.165305 -0.103566,0.04363 -0.306797,0.05711 -0.451624,0.02994 -0.27088,-0.05082 -0.561452,0.07751 -0.863191,0.381215 -0.07871,0.07923 -0.227317,0.14405 -0.330229,0.14405 -0.248791,0 -0.746105,0.210047 -1.062479,0.448752 -0.205813,0.155288 -0.357756,0.194551 -0.777237,0.200844 -0.498556,0.0075 -0.52804,0.01906 -0.672646,0.264147 -0.116275,0.197072 -0.269483,0.297986 -0.662764,0.436545 -0.676119,0.238205 -0.951529,0.289954 -0.951529,0.178788 0,-0.156093 -0.253281,-0.09558 -0.29682,0.07092 -0.02316,0.08855 -0.109122,0.16 -0.19251,0.16 -0.08287,0 -0.15067,0.03527 -0.15067,0.07837 0,0.118074 -0.52914,0.36266 -1.182916,0.546782 -0.406286,0.114421 -0.649181,0.235103 -0.801607,0.398276 -0.120281,0.128761 -0.305202,0.261568 -0.410935,0.295126 -0.105733,0.03356 -0.260503,0.12461 -0.343932,0.202337 -0.08343,0.07773 -0.261944,0.163372 -0.396698,0.190322 -0.134754,0.02695 -0.575726,0.210952 -0.979939,0.408892 -0.404214,0.19794 -0.827059,0.359891 -0.939658,0.359891 -0.112598,0 -0.24954,0.054 -0.304315,0.12 -0.05477,0.066 -0.152298,0.12 -0.216718,0.12 -0.06442,0 -0.279514,0.116619 -0.477989,0.259152 -0.299376,0.214996 -0.436245,0.259943 -0.803262,0.263786 -0.37377,0.0039 -0.470075,0.03681 -0.620822,0.212065 -0.182458,0.21212 -0.837341,0.544997 -1.072196,0.544997 -0.07186,0 -0.222166,0.08486 -0.334021,0.188578 -0.111855,0.103718 -0.345487,0.234715 -0.519182,0.291104 -0.173696,0.05639 -0.406179,0.165835 -0.51663,0.243212 -0.110451,0.07738 -0.430347,0.216036 -0.710881,0.30813 -0.280533,0.0921 -0.550164,0.197304 -0.59918,0.233799 -0.04901,0.0365 -0.242634,0.114773 -0.430264,0.173949 -0.18763,0.05918 -0.381038,0.15566 -0.429796,0.21441 -0.04876,0.05875 -0.171242,0.106817 -0.272188,0.106817 -0.100945,0 -0.195537,0.027 -0.210205,0.06 -0.05218,0.117406 -0.705776,0.5 -0.854162,0.5 -0.08301,0 -0.24246,0.072 -0.354334,0.16 -0.111873,0.088 -0.313035,0.16 -0.447024,0.16 -0.329832,0 -0.601783,0.134531 -0.694424,0.343522 -0.05304,0.119647 -0.185693,0.194371 -0.429713,0.242055 -0.194146,0.03794 -0.403717,0.119703 -0.465715,0.1817 -0.062,0.062 -0.193876,0.112723 -0.293063,0.112723 -0.09919,0 -0.264891,0.09 -0.368231,0.2 -0.10334,0.11 -0.231081,0.2 -0.283869,0.2 -0.05279,0 -0.253513,0.08624 -0.446055,0.191637 -0.192542,0.1054 -0.437974,0.218015 -0.545404,0.250256 -0.107431,0.03224 -0.366298,0.189004 -0.57526,0.348363 -0.816571,0.622735 -0.80011,0.614131 -1.504789,0.786488 -0.107457,0.02628 -0.353214,0.168268 -0.546127,0.315522 -0.192914,0.147254 -0.437994,0.267734 -0.544624,0.267734 -0.10663,0 -0.193872,0.03527 -0.193872,0.07838 0,0.115365 -0.548474,0.375321 -1.278346,0.605888 -0.39698,0.125404 -0.641654,0.245072 -0.641654,0.313826 0,0.06112 -0.081,0.135733 -0.18,0.165805 -0.099,0.03007 -0.294598,0.140497 -0.434662,0.245391 -0.140064,0.104893 -0.326302,0.190714 -0.413862,0.190714 -0.08756,0 -0.260962,0.08493 -0.385338,0.188745 -0.124376,0.103809 -0.352138,0.25202 -0.506138,0.329358 -0.154,0.07734 -0.352458,0.206652 -0.441017,0.287366 -0.217247,0.198003 -1.083632,0.632258 -1.263937,0.633518 -0.246325,0.0017 -1.014134,0.405251 -1.14179,0.600078 -0.06658,0.101615 -0.236301,0.228418 -0.377156,0.281782 -0.664342,0.251697 -1.744768,0.834531 -1.830287,0.987345 -0.03487,0.0623 -0.222353,0.137116 -0.416637,0.166251 -0.194284,0.02913 -0.434497,0.123442 -0.533806,0.209572 -0.163976,0.142217 -0.377074,0.2187 -0.95537,0.342891 -0.11,0.02362 -0.321133,-0.0088 -0.469185,-0.07198 z M 83.200258,79.121495 c 0.02719,-0.044 -0.0088,-0.08 -0.08,-0.08 -0.07119,0 -0.107194,0.036 -0.08,0.08 0.02719,0.044 0.06319,0.08 0.08,0.08 0.01681,0 0.05281,-0.036 0.08,-0.08 z m 6.178334,-2.688334 c -0.02658,-0.02658 -0.09558,-0.02942 -0.153334,-0.0063 -0.06382,0.02554 -0.04486,0.0445 0.04833,0.04833 0.08433,0.0035 0.131583,-0.01543 0.105,-0.04202 z M 89.274656,75.59243 c -0.06817,-0.110299 -0.274398,-0.08344 -0.274398,0.03573 0,0.05867 0.02369,0.130355 0.05264,0.159307 0.07235,0.07235 0.276203,-0.106946 0.221758,-0.195037 z m 3.845602,-1.590935 c 0.02719,-0.044 -0.0067,-0.08 -0.07528,-0.08 -0.0686,0 -0.124722,0.036 -0.124722,0.08 0,0.044 0.03388,0.08 0.07528,0.08 0.0414,0 0.09753,-0.036 0.124722,-0.08 z m 2,-0.4 c 0.02719,-0.044 -0.02468,-0.08 -0.115278,-0.08 -0.0906,0 -0.164722,0.036 -0.164722,0.08 0,0.044 0.05187,0.08 0.115278,0.08 0.0634,0 0.137528,-0.036 0.164722,-0.08 z M 84.898592,72.593161 c -0.02658,-0.02658 -0.09558,-0.02942 -0.153334,-0.0063 -0.06382,0.02554 -0.04486,0.04449 0.04833,0.04833 0.08433,0.0035 0.131583,-0.01543 0.105,-0.04202 z m 6.369024,-0.707571 c 0.02732,-0.0712 -0.01877,-0.135979 -0.119493,-0.167947 -0.18444,-0.05854 -0.354157,0.06423 -0.272173,0.196882 0.0779,0.126045 0.339614,0.106712 0.391666,-0.02893 z m 13.196864,-0.722999 c 0.009,-0.0434 -0.0472,-0.09104 -0.12422,-0.105866 -0.0876,-0.01686 -0.14,0.02237 -0.14,0.10477 0,0.139183 0.23642,0.140163 0.26422,0.0011 z M 87.520258,71.041495 c 0.02719,-0.044 0.01132,-0.08 -0.03528,-0.08 -0.0466,0 -0.08472,0.036 -0.08472,0.08 0,0.044 0.01588,0.08 0.03528,0.08 0.0194,0 0.05753,-0.036 0.08472,-0.08 z m 15.005022,-0.04455 c 0.1166,-0.105524 0.1335,-0.435454 0.0223,-0.435454 -0.11705,0 -0.36026,0.3309 -0.32011,0.435522 0.0602,0.156752 0.12454,0.156738 0.29781,-6.8e-5 z m 1.67498,-0.270914 c 0,-0.04151 -0.0663,-0.122505 -0.14731,-0.18 -0.14733,-0.104552 -0.20511,-0.384536 -0.0794,-0.384536 0.0367,0 0.0667,-0.036 0.0667,-0.08 0,-0.117249 -0.23881,-0.09789 -0.24666,0.02 -0.004,0.055 -0.0172,0.19 -0.03,0.3 -0.0128,0.11 0.0126,0.245 0.0565,0.3 0.0931,0.116622 0.3802,0.135152 0.3802,0.02454 z m 8.8,-2.644536 c 0,-0.044 -0.0159,-0.08 -0.0353,-0.08 -0.0194,0 -0.0575,0.036 -0.0847,0.08 -0.0272,0.044 -0.0113,0.08 0.0353,0.08 0.0466,0 0.0847,-0.036 0.0847,-0.08 z m -5.92,-0.16 c 0,-0.044 -0.0561,-0.08 -0.12472,-0.08 -0.0686,0 -0.10248,0.036 -0.0753,0.08 0.0272,0.044 0.0833,0.08 0.12472,0.08 0.0414,0 0.0753,-0.036 0.0753,-0.08 z m 7.16,0 c -0.0272,-0.044 -0.0833,-0.08 -0.12472,-0.08 -0.0414,0 -0.0753,0.036 -0.0753,0.08 0,0.044 0.0561,0.08 0.12472,0.08 0.0686,0 0.10247,-0.036 0.0753,-0.08 z M 97.174199,67.503436 c -0.044,-0.044 -0.12298,-0.05344 -0.175511,-0.02097 -0.07257,0.04485 -0.07035,0.07458 0.0092,0.123752 0.136475,0.08434 0.270559,0.0015 0.166302,-0.102781 z m 13.106061,-0.137219 c 0,-0.0414 -0.0377,-0.09859 -0.0838,-0.12709 -0.11742,-0.07257 -0.3369,0.02411 -0.27652,0.121803 0.0629,0.101815 0.36035,0.106178 0.36035,0.0053 z M 98.658592,67.233161 c -0.02658,-0.02658 -0.09558,-0.02942 -0.153334,-0.0063 -0.06382,0.02554 -0.04486,0.04449 0.04833,0.04833 0.08433,0.0035 0.131583,-0.01543 0.105,-0.04202 z m 0.541666,-0.191666 c 0.02885,-0.04667 -0.0525,-0.08 -0.195278,-0.08 -0.134597,0 -0.244722,0.036 -0.244722,0.08 0,0.044 0.08788,0.08 0.195278,0.08 0.107404,0 0.217528,-0.036 0.244722,-0.08 z m 17.480002,-0.08 c 0,-0.044 -0.0159,-0.08 -0.0353,-0.08 -0.0194,0 -0.0575,0.036 -0.0847,0.08 -0.0272,0.044 -0.0113,0.08 0.0353,0.08 0.0466,0 0.0847,-0.036 0.0847,-0.08 z m -15.22167,-0.368333 c -0.0266,-0.02658 -0.0956,-0.02942 -0.15333,-0.0063 -0.0638,0.02554 -0.0449,0.04449 0.0483,0.04833 0.0843,0.0035 0.13158,-0.01543 0.105,-0.04202 z m 4.48425,-0.739307 c 0.0229,-0.06885 -0.0155,-0.09768 -0.10674,-0.08 -0.0784,0.0152 -0.15871,0.07608 -0.17843,0.13528 -0.0229,0.06885 0.0155,0.09768 0.10675,0.08 0.0784,-0.0152 0.15871,-0.07608 0.17842,-0.13528 z m 11.29742,0.06267 c 0,-0.09107 -0.21491,-0.10034 -0.26974,-0.01164 -0.0215,0.03487 0.0303,0.06863 0.11528,0.07503 0.0849,0.0064 0.15446,-0.02213 0.15446,-0.06339 z m -10.64,-0.204358 c 0,-0.01687 -0.072,-0.03067 -0.16,-0.03067 -0.088,0 -0.16,0.03263 -0.16,0.07251 0,0.03988 0.072,0.05368 0.16,0.03067 0.088,-0.02301 0.16,-0.05564 0.16,-0.07251 z m 9.28,-0.59067 c 0,-0.044 -0.036,-0.08 -0.08,-0.08 -0.044,0 -0.08,0.036 -0.08,0.08 0,0.044 0.036,0.08 0.08,0.08 0.044,0 0.08,-0.036 0.08,-0.08 z m 0.28,-0.56 c 0.0272,-0.044 -0.0268,-0.08 -0.12,-0.08 -0.0932,0 -0.14719,0.036 -0.12,0.08 0.0272,0.044 0.0812,0.08 0.12,0.08 0.0388,0 0.0928,-0.036 0.12,-0.08 z m 9.52,-0.24 c -0.0272,-0.044 -0.0854,-0.08 -0.12944,-0.08 -0.044,0 -0.0577,0.036 -0.0306,0.08 0.0272,0.044 0.0854,0.08 0.12944,0.08 0.044,0 0.0577,-0.036 0.0306,-0.08 z m -16.01717,-0.241326 c -0.0452,-0.172838 -0.16647,-0.281703 -0.23617,-0.212007 -0.0235,0.02348 -0.0126,0.09008 0.0241,0.148011 0.0367,0.05793 0.0718,0.132322 0.078,0.165322 0.006,0.033 0.0157,0.08013 0.0212,0.104722 0.006,0.0246 0.0426,0.02456 0.0825,-8e-5 0.0399,-0.02464 0.0535,-0.117327 0.0303,-0.205968 z m 0.45717,-0.487233 c 0,-0.03929 -0.054,-0.07144 -0.12,-0.07144 -0.066,0 -0.12,0.05287 -0.12,0.11749 0,0.07157 0.0469,0.09949 0.12,0.07144 0.066,-0.02533 0.12,-0.0782 0.12,-0.11749 z m 14.24,0.08856 c 0,-0.044 -0.036,-0.08 -0.08,-0.08 -0.044,0 -0.08,0.036 -0.08,0.08 0,0.044 0.036,0.08 0.08,0.08 0.044,0 0.08,-0.036 0.08,-0.08 z m -7.31635,-1.55223 c 0.0963,-0.09631 0.0945,-0.119045 -0.0129,-0.16026 -0.16796,-0.06445 -0.27404,0.01076 -0.21867,0.155052 0.056,0.145879 0.0902,0.146648 0.2316,0.0052 z m 10.19635,0.03877 c 0,-0.0404 0.0195,-0.124401 0.0434,-0.186667 0.0503,-0.131053 -0.18938,-0.160639 -0.34007,-0.04198 -0.0755,0.05945 -0.0755,0.100131 0,0.186053 0.11032,0.125549 0.29663,0.152302 0.29663,0.04259 z m 7.44,-0.726543 c 0,-0.044 -0.0159,-0.08 -0.0353,-0.08 -0.0194,0 -0.0575,0.036 -0.0847,0.08 -0.0272,0.044 -0.0113,0.08 0.0353,0.08 0.0466,0 0.0847,-0.036 0.0847,-0.08 z m -4.49834,-0.255 c -0.0494,-0.148337 -0.22166,-0.172941 -0.22166,-0.03167 0,0.06967 0.057,0.126666 0.12666,0.126666 0.0697,0 0.11242,-0.04275 0.095,-0.095 z M 120.319,61.039462 c -0.0241,-0.03904 -0.0997,-0.04954 -0.16801,-0.02334 -0.097,0.03721 -0.10163,0.06156 -0.0213,0.111228 0.12134,0.075 0.25234,0.01416 0.18927,-0.08789 z m 0.63784,-0.07244 c 0.0253,-0.04096 0.008,-0.09815 -0.0391,-0.127089 -0.11839,-0.07317 -0.33856,0.02271 -0.27782,0.120996 0.0625,0.101172 0.25588,0.104889 0.31693,0.0061 z m 15.12342,-0.165527 c -0.0272,-0.044 -0.0854,-0.08 -0.12944,-0.08 -0.044,0 -0.0577,0.036 -0.0306,0.08 0.0272,0.044 0.0854,0.08 0.12944,0.08 0.044,0 0.0577,-0.036 0.0306,-0.08 z m 3.332,-0.04 c 0,-0.0418 -0.0387,-0.0889 -0.086,-0.104666 -0.0473,-0.01577 -0.086,0.03133 -0.086,0.104666 0,0.07333 0.0387,0.120434 0.086,0.104667 0.0473,-0.01577 0.086,-0.06287 0.086,-0.104667 z m -9.212,-0.04 c 0,-0.044 -0.036,-0.08 -0.08,-0.08 -0.044,0 -0.08,0.036 -0.08,0.08 0,0.044 0.036,0.08 0.08,0.08 0.044,0 0.08,-0.036 0.08,-0.08 z m 4.69833,0.03167 c -0.0266,-0.02658 -0.0956,-0.02942 -0.15333,-0.0063 -0.0638,0.02554 -0.0449,0.04449 0.0483,0.04833 0.0843,0.0035 0.13158,-0.01543 0.105,-0.04202 z m -16.72,-0.16 c -0.0266,-0.02658 -0.0956,-0.02942 -0.15333,-0.0063 -0.0638,0.02554 -0.0449,0.04449 0.0483,0.04833 0.0843,0.0035 0.13158,-0.01544 0.105,-0.04202 z m 9.22167,-0.206895 c 0,-0.105151 -0.18183,-0.03931 -0.22169,0.08028 -0.0195,0.05846 0.0171,0.07634 0.095,0.04644 0.0697,-0.02674 0.12669,-0.08376 0.12669,-0.126721 z m 8.16,0.09522 c 0,-0.044 -0.036,-0.08 -0.08,-0.08 -0.044,0 -0.08,0.036 -0.08,0.08 0,0.044 0.036,0.08 0.08,0.08 0.044,0 0.08,-0.036 0.08,-0.08 z m -13.04,-0.124716 c 0,-0.0686 -0.036,-0.102472 -0.08,-0.07528 -0.044,0.02719 -0.08,0.08332 -0.08,0.124722 0,0.0414 0.036,0.07528 0.08,0.07528 0.044,0 0.08,-0.05612 0.08,-0.124722 z m 4.68,-0.755279 c -0.0272,-0.044 -0.0833,-0.08 -0.12472,-0.08 -0.0414,0 -0.0753,0.036 -0.0753,0.08 0,0.044 0.0561,0.08 0.12472,0.08 0.0686,0 0.10247,-0.036 0.0753,-0.08 z m 2.04451,-0.26 c 0.22848,-0.273874 0.18804,-1.1 -0.0538,-1.1 -0.0609,0 -0.11067,0.03813 -0.11067,0.08472 0,0.0466 0.036,0.06247 0.08,0.03528 0.10532,-0.06509 0.10353,0.144464 -0.002,0.250127 -0.0975,0.09745 -0.20624,0.909873 -0.12184,0.909873 0.0321,0 0.12589,-0.081 0.20848,-0.18 z m -2.48451,0.02 c 0,-0.044 -0.0381,-0.08 -0.0847,-0.08 -0.0466,0 -0.0625,0.036 -0.0353,0.08 0.0272,0.044 0.0653,0.08 0.0847,0.08 0.0194,0 0.0353,-0.036 0.0353,-0.08 z m 0,-0.56 c 0,-0.044 -0.036,-0.08 -0.08,-0.08 -0.044,0 -0.08,0.036 -0.08,0.08 0,0.044 0.036,0.08 0.08,0.08 0.044,0 0.08,-0.036 0.08,-0.08 z m 4.16,-0.315278 c 0,-0.134114 -0.14188,-0.167323 -0.18911,-0.04426 -0.0279,0.07261 0,0.11954 0.0716,0.11954 0.0646,0 0.11749,-0.03388 0.11749,-0.07528 z m -5.96,-0.08472 c 0.0272,-0.044 -0.0247,-0.08 -0.11528,-0.08 -0.0906,0 -0.16472,0.036 -0.16472,0.08 0,0.044 0.0519,0.08 0.11528,0.08 0.0634,0 0.13753,-0.036 0.16472,-0.08 z m 3.52,-0.48 c -0.0272,-0.044 -0.11032,-0.07945 -0.18472,-0.07878 -0.11659,0.0011 -0.1187,0.01194 -0.0153,0.07878 0.15667,0.101248 0.26257,0.101248 0.2,0 z m 5.03,-0.94382 c 0.0705,-0.113992 -0.0903,-0.280853 -0.22193,-0.230348 -0.18077,0.06937 -0.15998,0.294168 0.0272,0.294168 0.0854,0 0.17302,-0.02872 0.19472,-0.06382 z m 24.21,-0.04762 c 0,-0.07589 -0.23947,-0.114138 -0.28216,-0.04507 -0.026,0.04208 0.0268,0.07651 0.11744,0.07651 0.0906,0 0.16472,-0.01415 0.16472,-0.03144 z m -20.6,-0.44856 c -0.0272,-0.044 -0.0854,-0.08 -0.12944,-0.08 -0.044,0 -0.0577,0.036 -0.0306,0.08 0.0272,0.044 0.0854,0.08 0.12944,0.08 0.044,0 0.0577,-0.036 0.0306,-0.08 z m -3.34167,-0.368333 c -0.0266,-0.02658 -0.0956,-0.02942 -0.15333,-0.0063 -0.0638,0.02554 -0.0449,0.04449 0.0483,0.04833 0.0843,0.0035 0.13158,-0.01544 0.105,-0.04202 z m 28.18167,-0.351669 c 0,-0.044 -0.063,-0.07945 -0.14,-0.07878 -0.11964,10e-4 -0.12255,0.0125 -0.02,0.07878 0.15098,0.09757 0.16,0.09757 0.16,0 z m -20.78203,-0.524632 c 0.0245,-0.02455 0.0274,-0.110365 0.006,-0.190706 -0.0427,-0.163375 -0.3444,-0.135926 -0.3444,0.03133 0,0.174271 0.21953,0.277797 0.33797,0.159371 z m 5.82346,-0.49454 c -0.0652,-0.0256 -0.16712,-0.09509 -0.22645,-0.15442 -0.10819,-0.108189 -0.25498,-0.07782 -0.25498,0.05275 0,0.06667 0.22465,0.133889 0.48,0.143632 0.10492,0.004 0.1051,-0.0013 0.001,-0.04196 z m 5.81944,-0.780827 c -0.0119,-0.272117 -0.0473,-0.36 -0.14531,-0.36 -0.0937,0 -0.13266,0.08054 -0.14057,0.290916 -0.0126,0.334834 0.0287,0.429084 0.188,0.429084 0.0836,0 0.10941,-0.09507 0.0979,-0.36 z m -5.78485,0.04645 c 0.025,-0.04045 -0.009,-0.128157 -0.0759,-0.194899 -0.0751,-0.07515 -0.0907,-0.140316 -0.0407,-0.171171 0.0963,-0.05954 0.10752,-0.200379 0.0159,-0.200379 -0.1946,0 -0.34423,0.21654 -0.29238,0.423136 0.0537,0.214081 0.295,0.302041 0.39311,0.143313 z m 7.278,-0.09614 c -0.0519,-0.08389 -0.19402,-0.01655 -0.19402,0.0919 0,0.04002 0.0538,0.05213 0.11954,0.0269 0.0658,-0.02523 0.0993,-0.07869 0.0745,-0.118794 z M 157.445,52.16917 c -0.0874,-0.141463 -0.28474,-0.100585 -0.28474,0.05899 0,0.08067 0.0249,0.171524 0.0552,0.201905 0.0816,0.08164 0.29282,-0.158439 0.2295,-0.260895 z m 1.89846,-0.03275 c 0.0557,-0.145261 -0.0262,-0.534929 -0.11253,-0.534929 -0.0389,0 -0.0707,-0.0498 -0.0707,-0.11067 0,-0.06087 -0.081,-0.132377 -0.18,-0.158907 -0.31985,-0.08572 -0.42581,-0.04717 -0.2029,0.07381 0.1194,0.0648 0.20351,0.162364 0.18692,0.216797 -0.0166,0.05443 -0.0504,0.215968 -0.0751,0.358968 -0.042,0.243339 -0.0302,0.26 0.18452,0.26 0.12619,0 0.24758,-0.04728 0.26976,-0.105071 z m -2.29991,-0.380252 c 0.0938,-0.151788 -0.043,-0.189243 -0.18234,-0.04992 -0.12471,0.124716 -0.12493,0.135239 -0.003,0.135239 0.0728,0 0.15615,-0.0384 0.18515,-0.08532 z m 2.82472,-0.759293 c 0.0755,-0.06664 -0.0993,-0.195384 -0.26524,-0.195384 -0.14927,0 -0.17909,0.03328 -0.14536,0.162243 0.0321,0.122687 0.0839,0.149521 0.21251,0.110062 0.0935,-0.0287 0.18269,-0.06331 0.19809,-0.07692 z m 0.81298,-0.07644 c 0.22443,-0.238881 0.13705,-0.385315 -0.20596,-0.345195 -0.16575,0.01939 -0.23945,0.08275 -0.28176,0.242251 -0.0554,0.208708 -0.003,0.281845 0.21279,0.297688 0.0473,0.0035 0.17105,-0.08416 0.27493,-0.194744 z m 10.03247,-0.0875 c 0.17875,-0.06859 0.15728,-0.19144 -0.0335,-0.19144 -0.0889,0 -0.16,0.05333 -0.16,0.12 0,0.134644 0.0147,0.140055 0.19346,0.07144 z m -0.0292,-0.551439 c -0.006,-0.118744 -0.18524,-0.09693 -0.22676,0.02764 -0.0224,0.06729 0.0141,0.09728 0.0976,0.08 0.0734,-0.0152 0.13153,-0.06364 0.1292,-0.10764 z m 22.29578,-0.206408 c -0.077,-0.04485 -0.14,-0.133754 -0.14,-0.197568 0,-0.06381 -0.054,-0.116024 -0.12,-0.116024 -0.066,0 -0.12,0.0468 -0.12,0.104 0,0.155524 0.17074,0.296315 0.356,0.293567 0.1498,-0.0022 0.15188,-0.0095 0.024,-0.08398 z m -15.3087,-0.827407 c -0.0616,-0.160607 -0.25016,-0.216665 -0.29916,-0.08896 -0.0519,0.135215 0.0143,0.20277 0.19868,0.20277 0.0918,0 0.12829,-0.04135 0.10048,-0.113815 z m 3.62704,-0.01452 c -0.0266,-0.02658 -0.0956,-0.02942 -0.15334,-0.0063 -0.0638,0.02554 -0.0449,0.04449 0.0483,0.04833 0.0843,0.0035 0.13158,-0.01544 0.105,-0.04202 z M 170.3603,49.001496 c 0,-0.06898 -0.0722,-0.12 -0.16979,-0.12 -0.14187,0 -0.15342,0.01974 -0.0702,0.12 0.0548,0.066 0.13118,0.12 0.16979,0.12 0.0386,0 0.0702,-0.054 0.0702,-0.12 z m 1.41834,-0.0083 c -0.0266,-0.02658 -0.0956,-0.02942 -0.15334,-0.0063 -0.0638,0.02554 -0.0449,0.04449 0.0483,0.04833 0.0843,0.0035 0.13158,-0.01544 0.105,-0.04202 z m 7.04,-1.2 c -0.0266,-0.02658 -0.0956,-0.02943 -0.15334,-0.0063 -0.0638,0.02554 -0.0449,0.04449 0.0483,0.04833 0.0843,0.0035 0.13158,-0.01543 0.105,-0.04202 z m 9.86166,-0.586979 c 0,-0.0414 -0.036,-0.09753 -0.08,-0.124721 -0.044,-0.02719 -0.08,0.0067 -0.08,0.07528 0,0.0686 0.036,0.124721 0.08,0.124721 0.044,0 0.08,-0.03388 0.08,-0.07528 z m -32.51218,3.856433 c -0.1118,-0.111795 -0.0392,-0.243934 0.11218,-0.204334 0.088,0.02301 0.16,0.06979 0.16,0.103951 0,0.08284 -0.21166,0.160902 -0.27218,0.100383 z m 11.67218,-2.261154 c -0.0272,-0.044 0.007,-0.08 0.0753,-0.08 0.0686,0 0.12472,0.036 0.12472,0.08 0,0.044 -0.0339,0.08 -0.0753,0.08 -0.0414,0 -0.0975,-0.036 -0.12472,-0.08 z"
       id="path14" />
  </g>
</svg>
