<?xml version="1.0" encoding="UTF-8" standalone="no"?>
<svg
   xmlns:dc="http://purl.org/dc/elements/1.1/"
   xmlns:cc="http://creativecommons.org/ns#"
   xmlns:rdf="http://www.w3.org/1999/02/22-rdf-syntax-ns#"
   xmlns:svg="http://www.w3.org/2000/svg"
   xmlns="http://www.w3.org/2000/svg"
   xmlns:sodipodi="http://sodipodi.sourceforge.net/DTD/sodipodi-0.dtd"
   xmlns:inkscape="http://www.inkscape.org/namespaces/inkscape"
   version="1.1"
   id="svg2"
   width="100.67374"
   height="33.557613"
   viewBox="0 0 100.67374 33.557614"
   sodipodi:docname="Underline2.svg"
   inkscape:version="1.0.2 (e86c870879, 2021-01-15)">
  <metadata
     id="metadata8">
    <rdf:RDF>
      <cc:Work
         rdf:about="">
        <dc:format>image/svg+xml</dc:format>
        <dc:type
           rdf:resource="http://purl.org/dc/dcmitype/StillImage" />
        <dc:title></dc:title>
      </cc:Work>
    </rdf:RDF>
  </metadata>
  <defs
     id="defs6" />
  <sodipodi:namedview
     pagecolor="#ffffff"
     bordercolor="#666666"
     borderopacity="1"
     objecttolerance="10"
     gridtolerance="10"
     guidetolerance="10"
     inkscape:pageopacity="0"
     inkscape:pageshadow="2"
     inkscape:window-width="1920"
     inkscape:window-height="1052"
     id="namedview4"
     showgrid="false"
     fit-margin-top="0"
     fit-margin-left="0"
     fit-margin-right="0"
     fit-margin-bottom="0"
     inkscape:zoom="7.4020347"
     inkscape:cx="14.722186"
     inkscape:cy="5.1657492"
     inkscape:window-x="0"
     inkscape:window-y="0"
     inkscape:window-maximized="1"
     inkscape:current-layer="g10" />
  <g
     inkscape:groupmode="layer"
     inkscape:label="Image"
     id="g10"
     transform="translate(-47.38539,-23.101702)">
    <path
       style="fill:#000000;stroke-width:0.08"
       d="m 51.340449,56.633497 c -0.0052,-0.03134 -0.0054,-0.08336 -4.8e-4,-0.115583 0.01035,-0.06734 -0.314732,-0.160868 -0.479309,-0.137903 -0.220605,0.03078 -0.310748,-0.0059 -0.310748,-0.126318 0,-0.132672 -0.195215,-0.465047 -0.416596,-0.7093 -0.07583,-0.08366 -0.118991,-0.182664 -0.09592,-0.22 0.02309,-0.03734 -0.01416,-0.06789 -0.08275,-0.06789 -0.0686,0 -0.124722,-0.036 -0.124722,-0.08 0,-0.044 0.04041,-0.08 0.0898,-0.08 0.06204,0 0.05901,-0.03709 -0.0098,-0.12 -0.05478,-0.066 -0.140183,-0.120413 -0.189795,-0.120918 -0.04961,-4.8e-4 -0.159474,-0.145486 -0.244136,-0.322181 -0.106921,-0.22315 -0.173735,-0.290056 -0.218775,-0.219082 -0.04247,0.06692 -0.06527,0.07067 -0.06607,0.01085 -6.4e-4,-0.05023 -0.09093,-0.113841 -0.200561,-0.141358 -0.174481,-0.04379 -0.194888,-0.08477 -0.163661,-0.328673 0.02044,-0.15964 8e-4,-0.278642 -0.04605,-0.278642 -0.04532,0 -0.05911,-0.07127 -0.03095,-0.16 0.02913,-0.09179 0.01438,-0.16 -0.03461,-0.16 -0.04697,0 -0.08539,-0.09 -0.08539,-0.2 0,-0.11 -0.03009,-0.2 -0.06687,-0.2 -0.143548,0 -0.817803,-0.592428 -0.781608,-0.686752 0.02111,-0.055 -0.01607,-0.120901 -0.08262,-0.146438 -0.07569,-0.02905 -0.113107,-0.128877 -0.09992,-0.266621 0.01159,-0.121104 -0.01843,-0.346189 -0.0667,-0.500189 -0.04828,-0.154 -0.107035,-0.466415 -0.130574,-0.694255 -0.03872,-0.374757 -0.02046,-0.439595 0.191475,-0.68 0.12885,-0.14616 0.234847,-0.326745 0.23555,-0.4013 7.2e-4,-0.07456 0.23488,-0.369158 0.520392,-0.65467 0.483956,-0.483956 0.535428,-0.514435 0.76,-0.45003 0.132488,0.038 0.240886,0.04919 0.240886,0.02488 0,-0.02432 0.04831,-0.0041 0.107361,0.04489 0.05905,0.04901 0.129909,0.06655 0.157468,0.03899 0.02756,-0.02756 0.132246,-0.05865 0.232639,-0.0691 0.100393,-0.01044 0.22613,-0.02358 0.279415,-0.0292 0.05329,-0.0056 0.164852,-0.08317 0.247925,-0.172333 0.08307,-0.08917 0.20475,-0.141512 0.270394,-0.116322 0.09619,0.03691 1.005983,-0.358602 1.763712,-0.766732 0.0764,-0.04115 0.203393,-0.07482 0.2822,-0.07482 0.07881,0 0.214296,-0.04772 0.301085,-0.106056 0.08679,-0.05833 0.361883,-0.168763 0.611316,-0.245406 0.249434,-0.07664 0.473304,-0.190918 0.49749,-0.253945 0.02644,-0.0689 0.154319,-0.114593 0.320678,-0.114593 0.206067,0 0.32055,-0.05574 0.448457,-0.218348 0.19112,-0.24297 0.980851,-0.661652 1.248027,-0.661652 0.09473,0 0.21308,-0.04921 0.262994,-0.10935 0.04991,-0.06014 0.294101,-0.173311 0.54264,-0.251486 0.248537,-0.07817 0.649077,-0.280268 0.890089,-0.449097 0.241011,-0.168829 0.557948,-0.329427 0.704306,-0.356883 0.146357,-0.02746 0.307794,-0.100156 0.35875,-0.161553 0.05095,-0.0614 0.155382,-0.111631 0.232061,-0.111631 0.07668,0 0.225271,-0.06443 0.330204,-0.143186 0.104934,-0.07875 0.280789,-0.187973 0.390789,-0.242713 0.11,-0.05474 0.344,-0.187715 0.52,-0.295499 0.176,-0.107783 0.431421,-0.196562 0.567601,-0.197286 0.139391,-7.2e-4 0.307114,-0.06708 0.383776,-0.151788 0.0749,-0.08276 0.545,-0.352329 1.044676,-0.599044 1.163716,-0.574584 1.283289,-0.619142 1.385967,-0.516464 0.05645,0.05645 0.153968,0.03306 0.310158,-0.07437 0.629812,-0.433223 1.658584,-0.9721 1.867822,-0.978376 0.066,-0.002 0.276933,-0.05825 0.468739,-0.125052 0.191807,-0.0668 0.421315,-0.09842 0.510019,-0.07026 0.0887,0.02815 0.141963,0.01993 0.118354,-0.01826 -0.08702,-0.140809 0.438359,-0.587688 0.690929,-0.587688 0.06252,0 0.216785,-0.05378 0.342814,-0.119508 0.35751,-0.186454 0.726322,-0.153363 0.947217,0.08499 0.183246,0.197724 0.193563,0.199632 0.273366,0.05052 0.04561,-0.08523 0.05982,-0.17807 0.03158,-0.206314 -0.07843,-0.07843 0.387768,-0.529685 0.547228,-0.529685 0.07717,0 0.16262,-0.0361 0.189888,-0.08022 0.03314,-0.05362 0.09927,-0.05362 0.199462,0 0.198802,0.106396 0.211134,0.104156 0.377287,-0.06851 0.07872,-0.0818 0.251117,-0.17037 0.383117,-0.196825 0.132,-0.02645 0.193498,-0.02803 0.136661,-0.0035 -0.07934,0.03425 -0.08171,0.07067 -0.0102,0.156825 0.125984,0.151802 0.2626,0.141111 0.420052,-0.03287 0.104387,-0.115347 0.111029,-0.165653 0.0324,-0.245385 -0.0787,-0.0798 -0.06688,-0.12393 0.05786,-0.215987 0.221574,-0.163521 0.32716,-0.09747 0.299093,0.187112 -0.03045,0.308736 0.09519,0.38983 0.34766,0.224404 0.28396,-0.186058 0.25471,-0.410896 -0.06352,-0.48826 l -0.26,-0.06321 0.234802,-0.03353 c 0.140366,-0.02005 0.39328,0.04069 0.628838,0.151021 l 0.394036,0.184557 0.155022,-0.191445 c 0.08526,-0.105295 0.252286,-0.201743 0.371163,-0.214329 0.479781,-0.0508 0.556437,-0.09685 0.515723,-0.309835 -0.02128,-0.111311 -0.07214,-0.223057 -0.113021,-0.248324 -0.09661,-0.05971 0.07756,-0.271696 0.223232,-0.271696 0.06061,0 0.110205,-0.03658 0.110205,-0.08129 0,-0.04471 0.135,-0.139624 0.3,-0.210916 0.165,-0.07129 0.430902,-0.19671 0.590892,-0.278706 0.159971,-0.082 0.359771,-0.149088 0.44398,-0.149088 0.08421,0 0.187308,-0.03349 0.229108,-0.07443 0.09921,-0.09717 1.388171,-0.56557 1.55634,-0.56557 0.07134,0 0.316277,-0.09 0.544295,-0.2 0.228019,-0.11 0.497876,-0.2 0.599683,-0.2 0.101805,0 0.254982,-0.05286 0.340392,-0.117456 0.08541,-0.0646 0.30829,-0.1186 0.49529,-0.12 0.187,-0.0014 0.34,-0.03575 0.34,-0.07634 0,-0.04059 0.135,-0.117279 0.3,-0.170425 0.165,-0.05315 0.336,-0.123931 0.38,-0.157299 0.044,-0.03337 0.296,-0.10614 0.56,-0.161716 0.412547,-0.08685 0.720554,-0.209544 1.416752,-0.564366 0.07521,-0.03833 0.241228,-0.0488 0.36892,-0.02326 0.135891,0.02718 0.327994,-0.0025 0.463248,-0.0716 0.127094,-0.06492 0.33989,-0.10154 0.472881,-0.08138 0.175249,0.02657 0.283251,-0.0091 0.392399,-0.129746 0.08283,-0.09153 0.199018,-0.166409 0.258199,-0.166409 0.05918,0 0.107601,-0.036 0.107601,-0.08 0,-0.044 0.174882,-0.08 0.388628,-0.08 0.287962,0 0.526785,-0.07201 0.921992,-0.278008 0.531122,-0.27684 0.534027,-0.277344 0.691372,-0.12 0.190981,0.190981 0.266115,0.19693 0.403068,0.03191 0.08625,-0.103925 0.0861,-0.137563 -8.56e-4,-0.191304 -0.07334,-0.04533 -0.02969,-0.08186 0.143192,-0.119831 0.136785,-0.03004 0.287161,-0.03085 0.33417,-0.0018 0.04701,0.02905 0.180778,-0.0096 0.297266,-0.08595 0.116489,-0.07633 0.339906,-0.170845 0.496482,-0.210044 0.156577,-0.0392 0.320685,-0.08207 0.364685,-0.09527 0.044,-0.0132 0.224,-0.05298 0.4,-0.08839 0.176,-0.03541 0.344256,-0.101879 0.373903,-0.147703 0.03593,-0.05553 0.09674,-0.04776 0.182369,0.0233 0.09936,0.08246 0.17325,0.08621 0.326097,0.01657 0.108698,-0.04953 0.197631,-0.125187 0.197631,-0.168137 0,-0.04295 0.135,-0.100312 0.3,-0.127472 0.165,-0.02716 0.377567,-0.08704 0.472372,-0.13306 0.0948,-0.04602 0.208796,-0.06117 0.253315,-0.03365 0.113147,0.06993 0.922879,-0.11138 0.98711,-0.221026 0.05603,-0.09565 0.645343,-0.09872 1.09213,-0.0057 0.226946,0.04726 0.271291,0.03082 0.30933,-0.114639 0.03515,-0.134415 0.104982,-0.169296 0.335074,-0.16737 0.241957,0.002 0.266464,0.01651 0.146233,0.08646 -0.114093,0.06637 -0.12464,0.107879 -0.0502,0.197568 0.139475,0.168056 0.274229,0.138534 0.394641,-0.08646 0.108113,-0.202011 0.348812,-0.267546 0.440107,-0.119826 0.0618,0.09999 0.682499,0.01491 0.819324,-0.112303 0.05469,-0.05084 0.107996,-0.19596 0.118468,-0.322477 0.01132,-0.136718 0.07345,-0.244261 0.153173,-0.265109 0.07377,-0.01929 0.152094,-0.103749 0.174043,-0.187681 0.05229,-0.199974 0.340209,-0.197538 0.67354,0.0057 0.355912,0.217007 0.529824,0.138582 0.464528,-0.209476 -0.02788,-0.1486 -0.01715,-0.268829 0.02399,-0.268829 0.110259,0 0.347178,0.392055 0.291428,0.48226 -0.02642,0.04276 0.0023,0.07774 0.06383,0.07774 0.147021,0 0.326547,-0.377005 0.199665,-0.419299 -0.0493,-0.01643 0.02455,-0.07718 0.164126,-0.134997 0.139574,-0.05781 0.253771,-0.136748 0.253771,-0.175409 0,-0.114664 0.298865,-0.08 0.428571,0.0497 0.135788,0.135787 0.49662,0.161045 0.571429,0.04 0.02719,-0.044 0.115511,-0.08 0.196261,-0.08 0.08075,0 0.263406,-0.108909 0.405901,-0.242019 0.170448,-0.159222 0.309148,-0.226129 0.405438,-0.195569 0.0805,0.02555 0.22422,0.0048 0.31938,-0.04615 0.13347,-0.07143 0.21721,-0.06895 0.36633,0.01086 0.16382,0.08767 0.22826,0.08281 0.42235,-0.03183 0.12596,-0.07441 0.39027,-0.135291 0.58735,-0.135291 0.28441,0 0.36651,-0.03127 0.39797,-0.151581 0.0358,-0.137076 0.11375,-0.150033 0.81413,-0.135402 0.42597,0.0089 0.79313,-0.014 0.81593,-0.05088 0.0228,-0.03688 0.16539,-0.0438 0.31689,-0.01538 0.22941,0.04304 0.31041,0.01671 0.48467,-0.157546 0.11507,-0.115071 0.26475,-0.20922 0.33263,-0.20922 0.1276,0 0.57452,-0.130911 0.85477,-0.250375 0.088,-0.03751 0.232,-0.07106 0.32,-0.07456 0.67051,-0.02663 0.9006,-0.0552 1.04,-0.129141 0.088,-0.04668 0.29479,-0.109196 0.45955,-0.138935 0.23709,-0.0428 0.33477,-0.02125 0.4685,0.103343 0.0929,0.08658 0.14501,0.19617 0.11574,0.24354 -0.0296,0.04795 0.004,0.08613 0.0762,0.08613 0.0712,0 0.10719,-0.036 0.08,-0.08 -0.0272,-0.044 10e-4,-0.08 0.0629,-0.08 0.0618,0 0.17748,-0.072 0.25712,-0.16 0.0796,-0.088 0.18648,-0.16 0.23742,-0.16 0.051,0 0.28372,-0.09218 0.51727,-0.204851 0.23355,-0.112668 0.46574,-0.189078 0.51597,-0.1698 0.0502,0.01928 0.26689,0.0084 0.48144,-0.02415 0.21456,-0.03256 0.53713,-0.02617 0.71684,0.01421 0.25833,0.05804 0.34487,0.04863 0.41331,-0.04496 0.0476,-0.0651 0.37257,-0.173799 0.72215,-0.241544 0.34958,-0.06774 0.7526,-0.15795 0.8956,-0.200456 0.20816,-0.06188 0.26,-0.05447 0.26,0.03713 0,0.132388 0.28514,0.155542 0.36305,0.02948 0.1107,-0.179116 0.4419,-0.240672 0.62078,-0.115379 0.2234,0.156475 0.32577,0.152851 0.26354,-0.0093 -0.0376,-0.0979 -0.0125,-0.119914 0.10215,-0.08992 0.0842,0.02202 0.20171,-0.01845 0.26366,-0.0908 0.14818,-0.173061 0.94682,-0.13696 0.94682,0.0428 0,0.06435 0.0344,0.09572 0.0765,0.06972 0.0421,-0.026 0.0576,-0.09649 0.0345,-0.156629 -0.0231,-0.06014 0.003,-0.137361 0.0588,-0.171602 0.0573,-0.0354 0.11427,-0.02163 0.13212,0.03191 0.0173,0.05179 0.15439,0.09416 0.30472,0.09416 0.15033,0 0.27333,0.036 0.27333,0.08 0,0.044 0.0759,0.08 0.16856,0.08 0.11008,0 0.15393,-0.03813 0.12639,-0.1099 -0.025,-0.06527 0.0446,-0.153083 0.17144,-0.216227 0.33416,-0.166335 0.386,-0.175786 0.21832,-0.03981 -0.14489,0.117503 -0.11945,0.125933 0.38,0.125933 0.4899,0 0.68456,-0.08428 0.43529,-0.188465 -0.11102,-0.04641 -0.1033,-0.04683 1.56151,-0.08487 1.12121,-0.02562 1.19689,-0.03765 1.48264,-0.235676 0.279,-0.193346 0.35088,-0.206245 0.97848,-0.1756 0.37256,0.01819 0.78039,0.07231 0.90629,0.120255 0.17904,0.06819 0.28194,0.06073 0.47229,-0.03423 0.13386,-0.06678 0.30084,-0.124252 0.37108,-0.127726 0.0835,-0.0041 0.0929,-0.02035 0.0272,-0.04683 -0.19708,-0.07945 -0.0118,-0.175542 0.25499,-0.132247 0.16754,0.02719 0.36703,-0.0036 0.52077,-0.08025 0.22302,-0.111259 0.2795,-0.111664 0.5375,-0.0039 0.21124,0.08826 0.31202,0.09672 0.37709,0.03165 0.0651,-0.06507 0.0569,-0.110462 -0.0305,-0.169848 -0.0845,-0.05736 0.0257,-0.071 0.37714,-0.04666 0.35805,0.0248 0.54444,8e-4 0.66854,-0.08614 0.18468,-0.129356 0.47973,-0.141745 1.45323,-0.06102 0.58709,0.04868 0.62939,0.04094 0.83919,-0.153603 0.12152,-0.112676 0.29331,-0.205653 0.38176,-0.206615 0.0884,-9.6e-4 0.74885,-0.0518 1.46755,-0.112971 0.85356,-0.07265 1.47543,-0.08738 1.79314,-0.04247 0.31328,0.04428 0.54111,0.03948 0.64009,-0.0135 0.13152,-0.07039 0.39812,-0.116675 0.94003,-0.163209 0.066,-0.0057 0.14023,-0.04103 0.16496,-0.07857 0.0247,-0.03755 0.40272,-0.0843 0.84,-0.103904 0.43727,-0.01957 1.10105,-0.08932 1.47505,-0.154959 0.374,-0.06564 0.986,-0.14024 1.36,-0.165771 0.374,-0.02553 0.91234,-0.08349 1.19632,-0.128787 0.28398,-0.0453 0.71598,-0.07504 0.96,-0.06609 0.5238,0.01922 0.82777,-0.08829 1.00218,-0.354476 0.0957,-0.146112 0.22926,-0.207964 0.54418,-0.252083 0.31152,-0.04364 0.37685,-0.07353 0.25768,-0.117885 -0.11898,-0.04429 -0.0579,-0.07202 0.24,-0.108902 0.2198,-0.02721 0.65164,-0.108111 0.95964,-0.179772 0.83706,-0.194753 1.22585,-0.226214 1.3653,-0.110478 0.092,0.07636 0.14395,0.07835 0.21409,0.0082 0.1458,-0.145804 0.28582,-0.109554 0.43066,0.111499 0.10069,0.153681 0.11103,0.22681 0.0418,0.296 -0.18589,0.185885 -0.0992,0.299892 0.2281,0.299892 0.28361,0 0.32,0.02163 0.32,0.190205 0,0.104612 -0.054,0.23502 -0.12,0.289795 -0.19826,0.164545 -0.15006,0.330594 0.0793,0.273038 0.22746,-0.05709 0.35834,0.137064 0.2116,0.313884 -0.10365,0.124882 0.0279,0.293078 0.22914,0.293078 0.2065,0 0.32,0.171362 0.32,0.483158 0,0.236348 0.0394,0.309103 0.20919,0.386474 0.11506,0.05242 0.27988,0.07288 0.36628,0.04546 0.12367,-0.03925 0.1515,-0.01686 0.13082,0.105236 -0.0334,0.197376 0.14852,0.419674 0.34351,0.419674 0.13314,0 0.14858,0.05959 0.13578,0.5242 -0.008,0.28831 -0.0456,0.54344 -0.0836,0.566956 -0.038,0.02351 -0.064,0.210626 -0.0577,0.4158 0.006,0.205174 -0.027,0.517044 -0.0739,0.693044 -0.0469,0.176 -0.0652,0.38558 -0.0406,0.465733 0.0246,0.08015 -0.0149,0.211579 -0.0877,0.292058 -0.0728,0.08048 -0.10161,0.165371 -0.0639,0.188649 0.0377,0.02328 0.077,0.168497 0.0874,0.322708 0.0144,0.213679 -0.0304,0.326043 -0.1881,0.47231 -0.15526,0.143961 -0.20811,0.27359 -0.21149,0.518689 -0.004,0.323028 -0.007,0.326282 -0.26345,0.284741 -0.23638,-0.03836 -0.26312,-0.02119 -0.30673,0.196886 -0.0339,0.169359 -0.10715,0.253807 -0.25172,0.290091 -0.13406,0.03365 -0.20393,0.106342 -0.20393,0.21217 0,0.08854 -0.063,0.183076 -0.14,0.210074 -0.077,0.027 -0.19966,0.123168 -0.27258,0.213711 -0.11544,0.143351 -0.15987,0.15219 -0.34376,0.0684 -0.29395,-0.133928 -0.43667,-0.120571 -0.59084,0.05529 -0.16359,0.18661 -0.97282,0.301955 -0.97282,0.138661 0,-0.136223 -0.33988,-0.450176 -0.48735,-0.450176 -0.0644,0 -0.1934,-0.05348 -0.28673,-0.118846 -0.17983,-0.125963 -1.80094,-0.228181 -3.30592,-0.208454 -0.418,0.0055 -1.084,0.01174 -1.48,0.01391 -0.396,0.0022 -0.94742,0.03865 -1.22538,0.08106 -0.41154,0.06279 -0.58606,0.05167 -0.94,-0.05989 -0.23904,-0.07535 -0.43462,-0.165657 -0.43462,-0.200678 0,-0.03502 -0.0897,-0.0228 -0.19938,0.02717 -0.1514,0.06899 -0.17858,0.115896 -0.11293,0.194989 0.12276,0.147921 -0.25446,0.231918 -0.56125,0.124973 -0.17454,-0.06085 -0.34757,-0.05231 -0.66141,0.03263 -0.23376,0.06327 -0.67703,0.11594 -0.98503,0.117049 -0.76755,0.0028 -2.22249,0.129784 -3.28,0.286358 -0.484,0.07166 -1.114,0.14727 -1.4,0.168022 -1.5803,0.114665 -2.22472,0.174448 -2.44,0.226362 -0.132,0.03183 -0.312,0.05614 -0.4,0.05401 -0.15694,-0.0038 -0.60141,0.04756 -1.96,0.22644 -0.374,0.04924 -1.148,0.141365 -1.72,0.204719 -1.6764,0.185672 -2.09247,0.243719 -2.1932,0.305972 -0.0523,0.03229 -0.56171,0.08967 -1.13213,0.127496 -0.57042,0.03783 -1.08157,0.09756 -1.13589,0.132743 -0.0543,0.03518 -0.20678,0.07145 -0.33878,0.0806 -0.132,0.0091 -0.582,0.06788 -1,0.130501 -0.418,0.06262 -1.048,0.155344 -1.4,0.206045 -0.352,0.0507 -0.712,0.124143 -0.8,0.163205 -0.088,0.03906 -0.40714,0.09089 -0.70921,0.115168 -0.30207,0.02428 -0.59007,0.07722 -0.64,0.117652 -0.0499,0.04043 -0.23479,0.07782 -0.41079,0.0831 -0.176,0.0053 -0.41,0.01523 -0.52,0.02212 -0.11,0.0069 -0.30437,-0.01678 -0.43193,-0.05261 -0.15424,-0.04332 -0.21484,-0.03748 -0.1809,0.01743 0.0661,0.107031 -0.25995,0.192749 -0.41123,0.108093 -0.0686,-0.0384 -0.21453,-0.01591 -0.35656,0.05495 -0.13224,0.06597 -0.56869,0.152656 -0.9699,0.19264 -0.40121,0.03998 -0.80148,0.10688 -0.88948,0.148658 -0.19174,0.09103 -2.11917,0.476422 -2.38268,0.476422 -0.10193,0 -0.22766,0.04234 -0.27942,0.0941 -0.0517,0.05175 -0.26595,0.120141 -0.476,0.151972 -0.21019,0.03182 -0.59805,0.100121 -0.86205,0.15177 -0.264,0.05165 -0.732,0.123067 -1.04,0.158706 -0.308,0.03564 -0.668,0.110211 -0.8,0.165714 -0.132,0.0555 -0.46845,0.109953 -0.74767,0.120999 -0.27923,0.01105 -0.54743,0.05983 -0.596,0.108407 -0.0486,0.04858 -0.16393,0.08832 -0.25633,0.08832 -0.0924,0 -0.21083,0.04284 -0.26319,0.09519 -0.10648,0.106482 -0.12808,0.113093 -0.71659,0.219325 -0.230882,0.04168 -0.453799,0.0968 -0.495371,0.122489 -0.04157,0.02569 -0.284604,0.08535 -0.540069,0.13258 -0.255465,0.04723 -0.590876,0.146931 -0.745359,0.221569 -0.208137,0.100562 -0.360029,0.11926 -0.586519,0.0722 -0.224719,-0.04669 -0.35103,-0.03171 -0.477071,0.05657 -0.09429,0.06604 -0.269294,0.120073 -0.388907,0.120073 -0.119613,0 -0.239124,0.03502 -0.265579,0.07783 -0.06782,0.109729 -1.047673,0.402065 -1.349769,0.402698 -0.138365,3.2e-4 -0.35902,0.07135 -0.490345,0.157912 -0.131324,0.08656 -0.401324,0.179429 -0.6,0.206371 -0.847427,0.114914 -1.665511,0.298949 -1.996425,0.449113 -0.195357,0.08865 -0.753357,0.26356 -1.24,0.38869 -0.486641,0.125133 -1.118803,0.315441 -1.404803,0.422911 -0.286,0.107471 -0.670927,0.220508 -0.855394,0.251194 -0.184468,0.03069 -0.377876,0.106979 -0.429796,0.169539 -0.05192,0.06256 -0.226793,0.113747 -0.388605,0.113747 -0.161813,0 -0.331059,0.03685 -0.376104,0.0819 -0.04504,0.04504 -0.292592,0.11619 -0.550106,0.158101 -0.257513,0.04191 -0.494429,0.118633 -0.52648,0.170492 -0.03205,0.05186 -0.167124,0.0912 -0.300162,0.08741 -0.152409,-0.0043 -0.319517,0.06507 -0.451743,0.187609 -0.115419,0.106967 -0.279999,0.194487 -0.365732,0.194487 -0.08573,0 -0.155878,0.04684 -0.155878,0.104078 0,0.06788 -0.215616,0.138853 -0.62,0.204072 -0.854568,0.137825 -1.184052,0.232141 -1.300306,0.372218 -0.05461,0.0658 -0.218752,0.119632 -0.364768,0.119632 -0.146016,0 -0.287732,0.036 -0.314926,0.08 -0.02719,0.044 -0.118292,0.08 -0.20244,0.08 -0.08415,0 -0.361024,0.09234 -0.615279,0.205204 -0.254255,0.112863 -0.642281,0.238825 -0.862281,0.279916 -0.22,0.04109 -0.544,0.142578 -0.72,0.225527 -0.176,0.08295 -0.474761,0.197331 -0.663914,0.254182 -0.189152,0.05685 -0.369152,0.143049 -0.4,0.191552 -0.06602,0.103815 -0.520556,0.29912 -1.136086,0.488157 -0.242,0.07432 -0.4742,0.166705 -0.516,0.205296 -0.0418,0.03859 -0.1318,0.07037 -0.2,0.07061 -0.251408,9.04e-4 -0.713074,0.167291 -0.994974,0.358594 -0.159464,0.108215 -0.48518,0.253513 -0.723814,0.322886 -0.238634,0.06937 -0.523108,0.196319 -0.632164,0.282103 -0.109057,0.08578 -0.245126,0.155971 -0.302375,0.155971 -0.05725,0 -0.411571,0.129167 -0.787382,0.287038 -1.029766,0.432586 -1.192162,0.510234 -1.244614,0.595102 -0.02647,0.04282 -0.146795,0.07786 -0.267399,0.07786 -0.120603,0 -0.253478,0.03377 -0.295278,0.07504 -0.0418,0.04127 -0.381201,0.205418 -0.754224,0.364767 -0.373023,0.159349 -0.697023,0.31458 -0.72,0.344958 -0.06889,0.09108 -0.584818,0.325932 -0.841776,0.38318 -0.401729,0.0895 -1.174011,0.434599 -1.458961,0.65194 -0.199995,0.152544 -0.360706,0.20395 -0.625121,0.199952 -0.258304,-0.0039 -0.355918,0.02609 -0.355918,0.109371 0,0.128128 -0.3131,0.270792 -0.594299,0.270792 -0.101135,0 -0.269792,0.082 -0.374792,0.182229 -0.105,0.100227 -0.334909,0.253227 -0.510909,0.34 -0.176,0.08677 -0.454285,0.238771 -0.61841,0.337771 -0.164126,0.099 -0.367195,0.18 -0.451264,0.18 -0.212825,0 -0.717027,0.238166 -1.058508,0.5 -0.157806,0.121 -0.346523,0.22 -0.419369,0.22 -0.07285,0 -0.132449,0.03248 -0.132449,0.07217 0,0.0397 -0.105125,0.108821 -0.233611,0.153612 -0.128487,0.04479 -0.311642,0.159468 -0.407012,0.254838 -0.09537,0.09537 -0.292947,0.22335 -0.439059,0.2844 -0.146112,0.06105 -0.277957,0.138894 -0.292988,0.172988 -0.03953,0.08966 -0.608291,0.341989 -0.770862,0.341989 -0.07596,0 -0.237481,0.09215 -0.358943,0.204775 -0.121463,0.112626 -0.343633,0.256081 -0.493712,0.318787 -0.15008,0.06271 -0.295459,0.150559 -0.323064,0.195226 -0.0276,0.04467 -0.100263,0.08121 -0.161459,0.08121 -0.0612,0 -0.271295,0.108 -0.466881,0.24 -0.195587,0.132 -0.425812,0.24 -0.511612,0.24 -0.0858,0 -0.221158,0.072 -0.300797,0.16 -0.07964,0.088 -0.178118,0.16 -0.218842,0.16 -0.04072,0 -0.271368,0.130977 -0.512544,0.291061 -0.241176,0.160083 -0.589277,0.342869 -0.773558,0.406191 -0.184281,0.06332 -0.452893,0.204815 -0.596915,0.314429 -0.144023,0.109613 -0.420403,0.253319 -0.614178,0.319344 -0.193775,0.06603 -0.471938,0.243172 -0.618141,0.39366 -0.168704,0.173647 -0.34262,0.273922 -0.476027,0.274463 -0.115612,4.8e-4 -0.25502,0.05485 -0.309795,0.120852 -0.05477,0.066 -0.158183,0.120221 -0.229795,0.120493 -0.07161,2.4e-4 -0.23332,0.05427 -0.35935,0.12 -0.126029,0.06573 -0.294905,0.119507 -0.375278,0.119507 -0.08037,0 -0.169285,0.03746 -0.19758,0.08324 -0.142477,0.230532 -0.668295,0.454194 -1.177997,0.501073 -0.297,0.02732 -0.544263,0.02402 -0.549474,-0.0073 z M 72.309923,40.536508 c 0,-0.044 -0.03813,-0.08 -0.08472,-0.08 -0.0466,0 -0.06247,0.036 -0.03528,0.08 0.02719,0.044 0.06532,0.08 0.08472,0.08 0.0194,0 0.03528,-0.036 0.03528,-0.08 z m 0.298334,-0.448334 c -0.02658,-0.02658 -0.09558,-0.02942 -0.153334,-0.0063 -0.06382,0.02554 -0.04486,0.04449 0.04833,0.04833 0.08433,0.0035 0.131583,-0.01544 0.105,-0.04202 z M 91.3857,37.409675 c -0.02576,-0.04168 -0.08093,-0.0547 -0.12261,-0.02894 -0.04168,0.02576 -0.0547,0.08093 -0.02894,0.122609 0.02576,0.04168 0.08093,0.0547 0.12261,0.02894 0.04168,-0.02576 0.0547,-0.08093 0.02894,-0.122609 z m -3.955777,-0.633168 c 0,-0.044 -0.03388,-0.08 -0.07528,-0.08 -0.0414,0 -0.09753,0.036 -0.124722,0.08 -0.02719,0.044 0.0067,0.08 0.07528,0.08 0.0686,0 0.124722,-0.036 0.124722,-0.08 z m 5.6,-3.350204 c 0,-0.100841 -0.234838,-0.281624 -0.291816,-0.224646 -0.08192,0.08192 0.04034,0.29485 0.169306,0.29485 0.06738,0 0.12251,-0.03159 0.12251,-0.0702 z m 14.839997,-0.0098 c -0.0272,-0.044 -0.0854,-0.08 -0.12944,-0.08 -0.044,0 -0.0577,0.036 -0.0306,0.08 0.0272,0.044 0.0854,0.08 0.12944,0.08 0.044,0 0.0577,-0.036 0.0306,-0.08 z m 1.656,-0.256 c -0.0747,-0.07467 -0.11733,-0.07467 -0.192,0 -0.0747,0.07467 -0.0533,0.096 0.096,0.096 0.14934,0 0.17067,-0.02133 0.096,-0.096 z m -17.363997,-0.424 c 0,-0.0418 -0.0387,-0.0889 -0.086,-0.104666 -0.0473,-0.01577 -0.086,0.03133 -0.086,0.104666 0,0.07333 0.0387,0.120434 0.086,0.104667 0.0473,-0.01577 0.086,-0.06287 0.086,-0.104667 z m 5.94835,-0.440564 c 0.02738,-0.04431 -0.008,-0.102759 -0.07873,-0.129884 -0.153171,-0.05878 -0.238537,0.006 -0.16491,0.125126 0.06643,0.107486 0.178793,0.109681 0.24364,0.0048 z m 1.79965,-0.559436 c 0.103417,-0.06683 0.101307,-0.07772 -0.01528,-0.07878 -0.0744,-6.4e-4 -0.157528,0.03477 -0.184722,0.07878 -0.06257,0.101248 0.04333,0.101248 0.2,0 z m 4.799997,-0.165865 c 0,-0.114488 -0.0431,-0.15757 -0.13908,-0.139082 -0.20854,0.04016 -0.2318,0.304947 -0.0268,0.304947 0.11448,0 0.16586,-0.05138 0.16586,-0.165865 z m 5.6,-0.07413 c 0,-0.044 -0.036,-0.08 -0.08,-0.08 -0.044,0 -0.08,0.036 -0.08,0.08 0,0.044 0.036,0.08 0.08,0.08 0.044,0 0.08,-0.036 0.08,-0.08 z M 99.749923,31.303051 c 0,-0.127746 -0.11558,-0.286544 -0.208559,-0.286544 -0.114932,0 -0.152477,0.172298 -0.05811,0.266667 0.05826,0.05826 0.266666,0.0738 0.266666,0.01988 z m -1.52,-0.126544 c 0,-0.044 -0.036,-0.08 -0.08,-0.08 -0.044,0 -0.08,0.036 -0.08,0.08 0,0.044 0.036,0.08 0.08,0.08 0.044,0 0.08,-0.036 0.08,-0.08 z m 2.039997,-0.24 c -0.0272,-0.044 -0.10344,-0.08 -0.16944,-0.08 -0.066,0 -0.0978,0.036 -0.0706,0.08 0.0272,0.044 0.10344,0.08 0.16944,0.08 0.066,0 0.0978,-0.036 0.0706,-0.08 z m -0.885711,-0.125714 c 0.16389,-0.16389 0.159612,-0.175993 -0.05429,-0.153573 -0.099,0.01038 -0.244419,0.02346 -0.323154,0.02908 -0.119154,0.0085 -0.12586,0.02982 -0.04,0.127166 0.134907,0.152959 0.262628,0.152141 0.41744,-0.0027 z m 1.274821,-0.153826 c -0.0252,-0.06575 -0.0781,-0.09962 -0.11749,-0.07528 -0.11295,0.06981 -0.0835,0.194819 0.0459,0.194819 0.0714,0 0.0995,-0.04693 0.0716,-0.11954 z m -0.869107,-0.12046 c 0.02719,-0.044 -0.0067,-0.08 -0.07528,-0.08 -0.0686,0 -0.12472,0.036 -0.12472,0.08 0,0.044 0.03387,0.08 0.07528,0.08 0.0414,0 0.09753,-0.036 0.124722,-0.08 z m 18.738427,-0.07446 c -0.006,-0.08495 -0.0402,-0.136827 -0.075,-0.115279 -0.0887,0.05482 -0.0794,0.269736 0.0116,0.269736 0.0413,0 0.0698,-0.0695 0.0634,-0.154457 z m -15.52009,-0.373876 c -0.0266,-0.02658 -0.0956,-0.02942 -0.15334,-0.0063 -0.0638,0.02554 -0.0449,0.04449 0.0483,0.04833 0.0843,0.0035 0.13159,-0.01544 0.105,-0.04202 z m 2.26166,-0.663105 c 0,-0.03929 -0.054,-0.09216 -0.12,-0.117489 -0.12194,-0.04679 -0.16384,0.03842 -0.0667,0.135597 0.0764,0.07646 0.18667,0.06576 0.18667,-0.01811 z m 5.2,-0.208559 c 0,-0.066 -0.0502,-0.12 -0.11144,-0.12 -0.0613,0 -0.13216,0.054 -0.15749,0.12 -0.0313,0.08162 0.004,0.12 0.11144,0.12 0.0867,0 0.15749,-0.05397 0.15749,-0.12 z m 3.55277,-1.331698 c -0.0232,-0.03757 -0.0897,-0.0683 -0.14769,-0.0683 -0.12683,0 -0.30307,0.195339 -0.2364,0.262009 0.0698,0.06977 0.43354,-0.113691 0.38409,-0.193707 z m 1.62557,-0.596635 c -0.0266,-0.02658 -0.0956,-0.02943 -0.15334,-0.0063 -0.0638,0.02554 -0.0449,0.04449 0.0483,0.04833 0.0843,0.0035 0.13159,-0.01543 0.105,-0.04202 z"
       id="path14" />
  </g>
</svg>
